<?xml version="1.0" encoding="UTF-8" standalone="no"?>
<!DOCTYPE svg PUBLIC "-//W3C//DTD SVG 1.1//EN"
 "http://www.w3.org/Graphics/SVG/1.1/DTD/svg11.dtd">
<!-- Generated by graphviz version 2.30.1 (20130214.1330)
 -->
<!-- Title: D:/space/c++/OmniOGL/OmniOGL/EngineIncludes.h Pages: 1 -->
<!--zoomable 96 -->
<svg id="main" version="1.1" xmlns="http://www.w3.org/2000/svg" xmlns:xlink="http://www.w3.org/1999/xlink" xml:space="preserve" onload="init(evt)">
        <defs>
                <circle id="rim" cx="0" cy="0" r="7"/>
                <circle id="rim2" cx="0" cy="0" r="3.5"/>
                <g id="zoomPlus">
                        <use xlink:href="#rim" fill="#404040">
                                <set attributeName="fill" to="#808080" begin="zoomplus.mouseover" end="zoomplus.mouseout"/>
                        </use>
                        <path d="M-4,0h8M0,-4v8" fill="none" stroke="white" stroke-width="1.5" pointer-events="none"/>
                </g>
                <g id="zoomMin">
                        <use xlink:href="#rim" fill="#404040">
                                <set attributeName="fill" to="#808080" begin="zoomminus.mouseover" end="zoomminus.mouseout"/>
                        </use>
                        <path d="M-4,0h8" fill="none" stroke="white" stroke-width="1.5" pointer-events="none"/>
                </g>
                <g id="dirArrow">
                        <path fill="none" stroke="white" stroke-width="1.5" d="M0,-3.0v7 M-2.5,-0.5L0,-3.0L2.5,-0.5"/>
                </g>
               <g id="resetDef">
                       <use xlink:href="#rim2" fill="#404040">
                               <set attributeName="fill" to="#808080" begin="reset.mouseover" end="reset.mouseout"/>
                       </use>
               </g>
        </defs>

<script type="text/javascript">
var viewWidth = 1572;
var viewHeight = 96;
var sectionId = 'dynsection-0';
</script>
<script xlink:href="svgpan.js"/>
<svg id="graph" class="graph">
<g id="viewport">
<title>D:/space/c++/OmniOGL/OmniOGL/EngineIncludes.h</title>
<polygon fill="white" stroke="white" points="-4,5 -4,-92 1569,-92 1569,5 -4,5"/>
<!-- Node1 -->
<g id="node1" class="node"><title>Node1</title>
<polygon fill="#bfbfbf" stroke="black" points="535,-57 535,-87 675,-87 675,-57 535,-57"/>
<text text-anchor="start" x="543" y="-75" font-family="Helvetica,sans-Serif" font-size="10.00">D:/space/c++/OmniOGL</text>
<text text-anchor="middle" x="605" y="-64" font-family="Helvetica,sans-Serif" font-size="10.00">/OmniOGL/EngineIncludes.h</text>
</g>
<!-- Node2 -->
<g id="node2" class="node"><title>Node2</title>
<polygon fill="white" stroke="#bfbfbf" points="-0.5,-0.5 -0.5,-19.5 48.5,-19.5 48.5,-0.5 -0.5,-0.5"/>
<text text-anchor="middle" x="24" y="-7.5" font-family="Helvetica,sans-Serif" font-size="10.00">fstream</text>
</g>
<!-- Node1&#45;&gt;Node2 -->
<g id="edge1" class="edge"><title>Node1&#45;&gt;Node2</title>
<path fill="none" stroke="midnightblue" d="M534.836,-68.3646C432.03,-63.6433 234.436,-51.3081 58.7032,-20.0417"/>
<polygon fill="midnightblue" stroke="midnightblue" points="59.2231,-16.579 48.7605,-18.248 57.9803,-23.4678 59.2231,-16.579"/>
</g>
<!-- Node3 -->
<g id="node3" class="node"><title>Node3</title>
<polygon fill="white" stroke="#bfbfbf" points="66.5,-0.5 66.5,-19.5 95.5,-19.5 95.5,-0.5 66.5,-0.5"/>
<text text-anchor="middle" x="81" y="-7.5" font-family="Helvetica,sans-Serif" font-size="10.00">list</text>
</g>
<!-- Node1&#45;&gt;Node3 -->
<g id="edge2" class="edge"><title>Node1&#45;&gt;Node3</title>
<path fill="none" stroke="midnightblue" d="M534.702,-69.8293C438.854,-66.9152 262.066,-56.8421 105.699,-19.8637"/>
<polygon fill="midnightblue" stroke="midnightblue" points="106.447,-16.4438 95.905,-17.5055 104.808,-23.2493 106.447,-16.4438"/>
</g>
<!-- Node4 -->
<g id="node4" class="node"><title>Node4</title>
<polygon fill="white" stroke="#bfbfbf" points="113.5,-0.5 113.5,-19.5 148.5,-19.5 148.5,-0.5 113.5,-0.5"/>
<text text-anchor="middle" x="131" y="-7.5" font-family="Helvetica,sans-Serif" font-size="10.00">map</text>
</g>
<!-- Node1&#45;&gt;Node4 -->
<g id="edge3" class="edge"><title>Node1&#45;&gt;Node4</title>
<path fill="none" stroke="midnightblue" d="M534.959,-67.5255C448.399,-62.2273 296.685,-49.6629 158.496,-19.6337"/>
<polygon fill="midnightblue" stroke="midnightblue" points="159.09,-16.1807 148.571,-17.4413 157.58,-23.0159 159.09,-16.1807"/>
</g>
<!-- Node5 -->
<g id="node5" class="node"><title>Node5</title>
<polygon fill="white" stroke="#bfbfbf" points="167,-0.5 167,-19.5 219,-19.5 219,-0.5 167,-0.5"/>
<text text-anchor="middle" x="193" y="-7.5" font-family="Helvetica,sans-Serif" font-size="10.00">memory</text>
</g>
<!-- Node1&#45;&gt;Node5 -->
<g id="edge4" class="edge"><title>Node1&#45;&gt;Node5</title>
<path fill="none" stroke="midnightblue" d="M534.767,-63.9896C460.975,-56.0621 341.403,-41.6294 229.415,-20.0849"/>
<polygon fill="midnightblue" stroke="midnightblue" points="229.783,-16.5907 219.298,-18.1147 228.445,-23.4617 229.783,-16.5907"/>
</g>
<!-- Node6 -->
<g id="node6" class="node"><title>Node6</title>
<polygon fill="white" stroke="#bfbfbf" points="237,-0.5 237,-19.5 289,-19.5 289,-0.5 237,-0.5"/>
<text text-anchor="middle" x="263" y="-7.5" font-family="Helvetica,sans-Serif" font-size="10.00">sstream</text>
</g>
<!-- Node1&#45;&gt;Node6 -->
<g id="edge5" class="edge"><title>Node1&#45;&gt;Node6</title>
<path fill="none" stroke="midnightblue" d="M534.871,-61.1268C474.752,-52.2566 385.658,-38.1502 299.288,-20.1295"/>
<polygon fill="midnightblue" stroke="midnightblue" points="299.822,-16.6654 289.315,-18.0286 298.379,-23.5151 299.822,-16.6654"/>
</g>
<!-- Node7 -->
<g id="node7" class="node"><title>Node7</title>
<polygon fill="white" stroke="#bfbfbf" points="307.5,-0.5 307.5,-19.5 348.5,-19.5 348.5,-0.5 307.5,-0.5"/>
<text text-anchor="middle" x="328" y="-7.5" font-family="Helvetica,sans-Serif" font-size="10.00">string</text>
</g>
<!-- Node1&#45;&gt;Node7 -->
<g id="edge6" class="edge"><title>Node1&#45;&gt;Node7</title>
<path fill="none" stroke="midnightblue" d="M534.892,-58.2256C487.668,-49.2274 423.819,-36.3034 358.637,-19.9777"/>
<polygon fill="midnightblue" stroke="midnightblue" points="359.144,-16.4956 348.591,-17.4366 357.427,-23.2819 359.144,-16.4956"/>
</g>
<!-- Node8 -->
<g id="node8" class="node"><title>Node8</title>
<polygon fill="white" stroke="#bfbfbf" points="367,-0.5 367,-19.5 411,-19.5 411,-0.5 367,-0.5"/>
<text text-anchor="middle" x="389" y="-7.5" font-family="Helvetica,sans-Serif" font-size="10.00">time.h</text>
</g>
<!-- Node1&#45;&gt;Node8 -->
<g id="edge7" class="edge"><title>Node1&#45;&gt;Node8</title>
<path fill="none" stroke="midnightblue" d="M553.114,-56.8985C518.248,-47.3762 471.019,-34.3889 420.758,-20.1885"/>
<polygon fill="midnightblue" stroke="midnightblue" points="421.58,-16.7838 411.005,-17.4284 419.674,-23.5193 421.58,-16.7838"/>
</g>
<!-- Node9 -->
<g id="node9" class="node"><title>Node9</title>
<polygon fill="white" stroke="#bfbfbf" points="429,-0.5 429,-19.5 471,-19.5 471,-0.5 429,-0.5"/>
<text text-anchor="middle" x="450" y="-7.5" font-family="Helvetica,sans-Serif" font-size="10.00">vector</text>
</g>
<!-- Node1&#45;&gt;Node9 -->
<g id="edge8" class="edge"><title>Node1&#45;&gt;Node9</title>
<path fill="none" stroke="midnightblue" d="M568.659,-56.9327C541.96,-46.5973 506.078,-32.7077 480.786,-22.9171"/>
<polygon fill="midnightblue" stroke="midnightblue" points="481.909,-19.5988 471.32,-19.2527 479.382,-26.1267 481.909,-19.5988"/>
</g>
<!-- Node10 -->
<g id="node10" class="node"><title>Node10</title>
<polygon fill="white" stroke="#bfbfbf" points="489,-0.5 489,-19.5 551,-19.5 551,-0.5 489,-0.5"/>
<text text-anchor="middle" x="520" y="-7.5" font-family="Helvetica,sans-Serif" font-size="10.00">windows.h</text>
</g>
<!-- Node1&#45;&gt;Node10 -->
<g id="edge9" class="edge"><title>Node1&#45;&gt;Node10</title>
<path fill="none" stroke="midnightblue" d="M584.856,-56.7808C571.405,-47.2862 553.778,-34.8434 540.296,-25.3267"/>
<polygon fill="midnightblue" stroke="midnightblue" points="542.309,-22.4632 532.121,-19.5557 538.272,-28.182 542.309,-22.4632"/>
</g>
<!-- Node11 -->
<g id="node11" class="node"><title>Node11</title>
<polygon fill="white" stroke="#bfbfbf" points="569.5,-0.5 569.5,-19.5 640.5,-19.5 640.5,-0.5 569.5,-0.5"/>
<text text-anchor="middle" x="605" y="-7.5" font-family="Helvetica,sans-Serif" font-size="10.00">FreeImage.h</text>
</g>
<!-- Node1&#45;&gt;Node11 -->
<g id="edge10" class="edge"><title>Node1&#45;&gt;Node11</title>
<path fill="none" stroke="midnightblue" d="M605,-56.7808C605,-48.7812 605,-38.6887 605,-30.0168"/>
<polygon fill="midnightblue" stroke="midnightblue" points="608.5,-29.7305 605,-19.7305 601.5,-29.7306 608.5,-29.7305"/>
</g>
<!-- Node12 -->
<g id="node12" class="node"><title>Node12</title>
<polygon fill="white" stroke="#bfbfbf" points="659,-0.5 659,-19.5 719,-19.5 719,-0.5 659,-0.5"/>
<text text-anchor="middle" x="689" y="-7.5" font-family="Helvetica,sans-Serif" font-size="10.00">GL/glew.h</text>
</g>
<!-- Node1&#45;&gt;Node12 -->
<g id="edge11" class="edge"><title>Node1&#45;&gt;Node12</title>
<path fill="none" stroke="midnightblue" d="M624.907,-56.7808C637.994,-47.4329 655.082,-35.2273 668.322,-25.77"/>
<polygon fill="midnightblue" stroke="midnightblue" points="670.674,-28.391 676.777,-19.7305 666.606,-22.6949 670.674,-28.391"/>
</g>
<!-- Node13 -->
<g id="node13" class="node"><title>Node13</title>
<polygon fill="white" stroke="#bfbfbf" points="737,-0.5 737,-19.5 807,-19.5 807,-0.5 737,-0.5"/>
<text text-anchor="middle" x="772" y="-7.5" font-family="Helvetica,sans-Serif" font-size="10.00">glm/glm.hpp</text>
</g>
<!-- Node1&#45;&gt;Node13 -->
<g id="edge12" class="edge"><title>Node1&#45;&gt;Node13</title>
<path fill="none" stroke="midnightblue" d="M644.154,-56.9327C672.832,-46.6292 711.341,-32.7935 738.578,-23.0079"/>
<polygon fill="midnightblue" stroke="midnightblue" points="739.836,-26.2752 748.063,-19.6 737.469,-19.6874 739.836,-26.2752"/>
</g>
<!-- Node14 -->
<g id="node14" class="node"><title>Node14</title>
<polygon fill="white" stroke="#bfbfbf" points="825.5,-0.5 825.5,-19.5 968.5,-19.5 968.5,-0.5 825.5,-0.5"/>
<text text-anchor="middle" x="897" y="-7.5" font-family="Helvetica,sans-Serif" font-size="10.00">glm/gtc/matrix_transform.hpp</text>
</g>
<!-- Node1&#45;&gt;Node14 -->
<g id="edge13" class="edge"><title>Node1&#45;&gt;Node14</title>
<path fill="none" stroke="midnightblue" d="M673.461,-56.9327C726.181,-46.0998 797.903,-31.3623 845.741,-21.5326"/>
<polygon fill="midnightblue" stroke="midnightblue" points="846.481,-24.9539 855.572,-19.5127 845.072,-18.0971 846.481,-24.9539"/>
</g>
<!-- Node15 -->
<g id="node15" class="node"><title>Node15</title>
<polygon fill="white" stroke="#bfbfbf" points="986.5,-0.5 986.5,-19.5 1089.5,-19.5 1089.5,-0.5 986.5,-0.5"/>
<text text-anchor="middle" x="1038" y="-7.5" font-family="Helvetica,sans-Serif" font-size="10.00">glm/gtc/random.hpp</text>
</g>
<!-- Node1&#45;&gt;Node15 -->
<g id="edge14" class="edge"><title>Node1&#45;&gt;Node15</title>
<path fill="none" stroke="midnightblue" d="M675.308,-61.5792C747.938,-51.7976 864.867,-35.9124 976.344,-20.081"/>
<polygon fill="midnightblue" stroke="midnightblue" points="977.013,-23.5211 986.421,-18.6479 976.028,-16.5909 977.013,-23.5211"/>
</g>
<!-- Node16 -->
<g id="node16" class="node"><title>Node16</title>
<polygon fill="white" stroke="#bfbfbf" points="1108,-0.5 1108,-19.5 1214,-19.5 1214,-0.5 1108,-0.5"/>
<text text-anchor="middle" x="1161" y="-7.5" font-family="Helvetica,sans-Serif" font-size="10.00">glm/gtc/type_ptr.hpp</text>
</g>
<!-- Node1&#45;&gt;Node16 -->
<g id="edge15" class="edge"><title>Node1&#45;&gt;Node16</title>
<path fill="none" stroke="midnightblue" d="M675.308,-64.5924C768.981,-55.862 940.139,-39.2376 1097.41,-20.0254"/>
<polygon fill="midnightblue" stroke="midnightblue" points="1098.24,-23.4488 1107.74,-18.7562 1097.39,-16.5009 1098.24,-23.4488"/>
</g>
<!-- Node17 -->
<g id="node17" class="node"><title>Node17</title>
<polygon fill="white" stroke="#bfbfbf" points="1232.5,-0.5 1232.5,-19.5 1289.5,-19.5 1289.5,-0.5 1232.5,-0.5"/>
<text text-anchor="middle" x="1261" y="-7.5" font-family="Helvetica,sans-Serif" font-size="10.00">GL/glfw.h</text>
</g>
<!-- Node1&#45;&gt;Node17 -->
<g id="edge16" class="edge"><title>Node1&#45;&gt;Node17</title>
<path fill="none" stroke="midnightblue" d="M675.384,-68.6324C788.662,-64.0651 1018.47,-51.6785 1222.46,-19.8262"/>
<polygon fill="midnightblue" stroke="midnightblue" points="1223.13,-23.2639 1232.46,-18.2455 1222.03,-16.3497 1223.13,-23.2639"/>
</g>
<!-- Node18 -->
<g id="node18" class="node"><title>Node18</title>
<polygon fill="white" stroke="#bfbfbf" points="1307.5,-0.5 1307.5,-19.5 1380.5,-19.5 1380.5,-0.5 1307.5,-0.5"/>
<text text-anchor="middle" x="1344" y="-7.5" font-family="Helvetica,sans-Serif" font-size="10.00">irK/irrKlang.h</text>
</g>
<!-- Node1&#45;&gt;Node18 -->
<g id="edge17" class="edge"><title>Node1&#45;&gt;Node18</title>
<path fill="none" stroke="midnightblue" d="M675.125,-68.616C798.781,-63.8038 1063.78,-50.7677 1297.36,-19.9104"/>
<polygon fill="midnightblue" stroke="midnightblue" points="1297.96,-23.3619 1307.41,-18.5696 1297.03,-16.4234 1297.96,-23.3619"/>
</g>
<!-- Node19 -->
<g id="node19" class="node"><title>Node19</title>
<polygon fill="white" stroke="#bfbfbf" points="1398.5,-0.5 1398.5,-19.5 1475.5,-19.5 1475.5,-0.5 1398.5,-0.5"/>
<text text-anchor="middle" x="1437" y="-7.5" font-family="Helvetica,sans-Serif" font-size="10.00">irK/ik_vec3d.h</text>
</g>
<!-- Node1&#45;&gt;Node19 -->
<g id="edge18" class="edge"><title>Node1&#45;&gt;Node19</title>
<path fill="none" stroke="midnightblue" d="M675.014,-69.2715C810.729,-65.3051 1119.15,-53.2867 1388.33,-19.9188"/>
<polygon fill="midnightblue" stroke="midnightblue" points="1388.8,-23.387 1398.29,-18.672 1387.93,-16.4412 1388.8,-23.387"/>
</g>
<!-- Node20 -->
<g id="node20" class="node"><title>Node20</title>
<polygon fill="white" stroke="#bfbfbf" points="1493.5,-0.5 1493.5,-19.5 1564.5,-19.5 1564.5,-0.5 1493.5,-0.5"/>
<text text-anchor="middle" x="1529" y="-7.5" font-family="Helvetica,sans-Serif" font-size="10.00">SOIL/SOIL.h</text>
</g>
<!-- Node1&#45;&gt;Node20 -->
<g id="edge19" class="edge"><title>Node1&#45;&gt;Node20</title>
<path fill="none" stroke="midnightblue" d="M675.098,-70.2452C822.827,-67.9362 1177.03,-58.6195 1483.25,-19.8972"/>
<polygon fill="midnightblue" stroke="midnightblue" points="1483.74,-23.3641 1493.21,-18.6253 1482.85,-16.4205 1483.74,-23.3641"/>
</g>
</g>
</svg>
        <g id="navigator" transform="translate(0 0)" fill="#404254">
                <rect fill="#f2f5e9" fill-opacity="0.5" stroke="#606060" stroke-width=".5" x="0" y="0" width="60" height="60"/>
                <use id="zoomplus" xlink:href="#zoomPlus" x="17" y="9" onmousedown="handleZoom(evt,'in')"/>
                <use id="zoomminus" xlink:href="#zoomMin" x="42" y="9" onmousedown="handleZoom(evt,'out')"/>
                <use id="reset" xlink:href="#resetDef" x="30" y="36" onmousedown="handleReset()"/>
                <g id="arrowUp" xlink:href="#dirArrow" transform="translate(30 24)" onmousedown="handlePan(0,-1)">
                  <use xlink:href="#rim" fill="#404040">
                        <set attributeName="fill" to="#808080" begin="arrowUp.mouseover" end="arrowUp.mouseout"/>
                  </use>
                  <path fill="none" stroke="white" stroke-width="1.5" d="M0,-3.0v7 M-2.5,-0.5L0,-3.0L2.5,-0.5"/>
                </g>
                <g id="arrowRight" xlink:href="#dirArrow" transform="rotate(90) translate(36 -43)" onmousedown="handlePan(1,0)">
                  <use xlink:href="#rim" fill="#404040">
                        <set attributeName="fill" to="#808080" begin="arrowRight.mouseover" end="arrowRight.mouseout"/>
                  </use>
                  <path fill="none" stroke="white" stroke-width="1.5" d="M0,-3.0v7 M-2.5,-0.5L0,-3.0L2.5,-0.5"/>
                </g>
                <g id="arrowDown" xlink:href="#dirArrow" transform="rotate(180) translate(-30 -48)" onmousedown="handlePan(0,1)">
                  <use xlink:href="#rim" fill="#404040">
                        <set attributeName="fill" to="#808080" begin="arrowDown.mouseover" end="arrowDown.mouseout"/>
                  </use>
                  <path fill="none" stroke="white" stroke-width="1.5" d="M0,-3.0v7 M-2.5,-0.5L0,-3.0L2.5,-0.5"/>
                </g>
                <g id="arrowLeft" xlink:href="#dirArrow" transform="rotate(270) translate(-36 17)" onmousedown="handlePan(-1,0)">
                  <use xlink:href="#rim" fill="#404040">
                        <set attributeName="fill" to="#808080" begin="arrowLeft.mouseover" end="arrowLeft.mouseout"/>
                  </use>
                  <path fill="none" stroke="white" stroke-width="1.5" d="M0,-3.0v7 M-2.5,-0.5L0,-3.0L2.5,-0.5"/>
                </g>
        </g>
        <svg viewBox="0 0 15 15" width="100%" height="30px" preserveAspectRatio="xMaxYMin meet">
         <g id="arrow_out" transform="scale(0.3 0.3)">
          <a xlink:href="_engine_includes_8h__incl_org.svg" target="_base">
           <rect id="button" ry="5" rx="5" y="6" x="6" height="38" width="38"
                fill="#f2f5e9" fill-opacity="0.5" stroke="#606060" stroke-width="1.0"/>
           <path id="arrow"
             d="M 11.500037,31.436501 C 11.940474,20.09759 22.043105,11.32322 32.158766,21.979434 L 37.068811,17.246167 C 37.068811,17.246167 37.088388,32 37.088388,32 L 22.160133,31.978069 C 22.160133,31.978069 26.997745,27.140456 26.997745,27.140456 C 18.528582,18.264221 13.291696,25.230495 11.500037,31.436501 z"
             style="fill:#404040;"/>
          </a>
         </g>
        </svg>
</svg>
