<?xml version="1.0" encoding="UTF-8" standalone="no"?>
<!DOCTYPE svg PUBLIC "-//W3C//DTD SVG 1.1//EN"
 "http://www.w3.org/Graphics/SVG/1.1/DTD/svg11.dtd">
<!-- Generated by graphviz version 2.30.1 (20130214.1330)
 -->
<!-- Title: D:/space/c++/OmniOGL/OmniOGL/Engine_Includes.cpp Pages: 1 -->
<svg width="1361pt" height="152pt"
 viewBox="0.00 0.00 1361.00 152.00" xmlns="http://www.w3.org/2000/svg" xmlns:xlink="http://www.w3.org/1999/xlink">
<g id="graph0" class="graph" transform="scale(1 1) rotate(0) translate(4 148)">
<title>D:/space/c++/OmniOGL/OmniOGL/Engine_Includes.cpp</title>
<polygon fill="white" stroke="white" points="-4,5 -4,-148 1358,-148 1358,5 -4,5"/>
<!-- Node1 -->
<g id="node1" class="node"><title>Node1</title>
<polygon fill="#bfbfbf" stroke="black" points="442,-113 442,-143 598,-143 598,-113 442,-113"/>
<text text-anchor="start" x="450" y="-131" font-family="Helvetica,sans-Serif" font-size="10.00">D:/space/c++/OmniOGL</text>
<text text-anchor="middle" x="520" y="-120" font-family="Helvetica,sans-Serif" font-size="10.00">/OmniOGL/Engine_Includes.cpp</text>
</g>
<!-- Node2 -->
<g id="node2" class="node"><title>Node2</title>
<g id="a_node2"><a xlink:href="_engine___includes_8h.html" target="_top" xlink:title="Engine_Includes.h">
<polygon fill="white" stroke="black" points="472,-56.5 472,-75.5 568,-75.5 568,-56.5 472,-56.5"/>
<text text-anchor="middle" x="520" y="-63.5" font-family="Helvetica,sans-Serif" font-size="10.00">Engine_Includes.h</text>
</a>
</g>
</g>
<!-- Node1&#45;&gt;Node2 -->
<g id="edge1" class="edge"><title>Node1&#45;&gt;Node2</title>
<path fill="none" stroke="midnightblue" d="M520,-112.781C520,-104.781 520,-94.6887 520,-86.0168"/>
<polygon fill="midnightblue" stroke="midnightblue" points="523.5,-85.7305 520,-75.7305 516.5,-85.7306 523.5,-85.7305"/>
</g>
<!-- Node3 -->
<g id="node3" class="node"><title>Node3</title>
<polygon fill="white" stroke="#bfbfbf" points="-0.5,-0.5 -0.5,-19.5 48.5,-19.5 48.5,-0.5 -0.5,-0.5"/>
<text text-anchor="middle" x="24" y="-7.5" font-family="Helvetica,sans-Serif" font-size="10.00">fstream</text>
</g>
<!-- Node2&#45;&gt;Node3 -->
<g id="edge2" class="edge"><title>Node2&#45;&gt;Node3</title>
<path fill="none" stroke="midnightblue" d="M471.973,-63.014C389.283,-59.0125 214.643,-48.0124 58.9868,-20.1"/>
<polygon fill="midnightblue" stroke="midnightblue" points="59.228,-16.5864 48.7626,-18.2369 57.9731,-23.473 59.228,-16.5864"/>
</g>
<!-- Node4 -->
<g id="node4" class="node"><title>Node4</title>
<polygon fill="white" stroke="#bfbfbf" points="66.5,-0.5 66.5,-19.5 95.5,-19.5 95.5,-0.5 66.5,-0.5"/>
<text text-anchor="middle" x="81" y="-7.5" font-family="Helvetica,sans-Serif" font-size="10.00">list</text>
</g>
<!-- Node2&#45;&gt;Node4 -->
<g id="edge3" class="edge"><title>Node2&#45;&gt;Node4</title>
<path fill="none" stroke="midnightblue" d="M471.874,-63.9186C395.483,-61.3094 241.941,-52.4235 105.688,-19.8759"/>
<polygon fill="midnightblue" stroke="midnightblue" points="106.453,-16.46 95.9085,-17.4913 104.795,-23.2608 106.453,-16.46"/>
</g>
<!-- Node5 -->
<g id="node5" class="node"><title>Node5</title>
<polygon fill="white" stroke="#bfbfbf" points="113.5,-0.5 113.5,-19.5 148.5,-19.5 148.5,-0.5 113.5,-0.5"/>
<text text-anchor="middle" x="131" y="-7.5" font-family="Helvetica,sans-Serif" font-size="10.00">map</text>
</g>
<!-- Node2&#45;&gt;Node5 -->
<g id="edge4" class="edge"><title>Node2&#45;&gt;Node5</title>
<path fill="none" stroke="midnightblue" d="M471.752,-62.0522C403.777,-57.2324 275.951,-45.7262 158.46,-19.6491"/>
<polygon fill="midnightblue" stroke="midnightblue" points="159.102,-16.2061 148.577,-17.4151 157.559,-23.0339 159.102,-16.2061"/>
</g>
<!-- Node6 -->
<g id="node6" class="node"><title>Node6</title>
<polygon fill="white" stroke="#bfbfbf" points="167,-0.5 167,-19.5 219,-19.5 219,-0.5 167,-0.5"/>
<text text-anchor="middle" x="193" y="-7.5" font-family="Helvetica,sans-Serif" font-size="10.00">memory</text>
</g>
<!-- Node2&#45;&gt;Node6 -->
<g id="edge5" class="edge"><title>Node2&#45;&gt;Node6</title>
<path fill="none" stroke="midnightblue" d="M471.944,-59.0753C415.903,-51.8375 320.313,-38.476 229.243,-20.0916"/>
<polygon fill="midnightblue" stroke="midnightblue" points="229.807,-16.6345 219.309,-18.0621 228.406,-23.4929 229.807,-16.6345"/>
</g>
<!-- Node7 -->
<g id="node7" class="node"><title>Node7</title>
<polygon fill="white" stroke="#bfbfbf" points="237,-0.5 237,-19.5 289,-19.5 289,-0.5 237,-0.5"/>
<text text-anchor="middle" x="263" y="-7.5" font-family="Helvetica,sans-Serif" font-size="10.00">sstream</text>
</g>
<!-- Node2&#45;&gt;Node7 -->
<g id="edge6" class="edge"><title>Node2&#45;&gt;Node7</title>
<path fill="none" stroke="midnightblue" d="M474.358,-56.4636C431.482,-48.2841 365.313,-35.2512 299.104,-20.168"/>
<polygon fill="midnightblue" stroke="midnightblue" points="299.867,-16.7522 289.338,-17.928 298.302,-23.5751 299.867,-16.7522"/>
</g>
<!-- Node8 -->
<g id="node8" class="node"><title>Node8</title>
<polygon fill="white" stroke="#bfbfbf" points="307.5,-0.5 307.5,-19.5 348.5,-19.5 348.5,-0.5 307.5,-0.5"/>
<text text-anchor="middle" x="328" y="-7.5" font-family="Helvetica,sans-Serif" font-size="10.00">string</text>
</g>
<!-- Node2&#45;&gt;Node8 -->
<g id="edge7" class="edge"><title>Node2&#45;&gt;Node8</title>
<path fill="none" stroke="midnightblue" d="M488.587,-56.4793C457.889,-48.1073 409.589,-34.816 358.541,-20.1123"/>
<polygon fill="midnightblue" stroke="midnightblue" points="359.219,-16.6652 348.64,-17.2527 357.276,-23.3903 359.219,-16.6652"/>
</g>
<!-- Node9 -->
<g id="node9" class="node"><title>Node9</title>
<polygon fill="white" stroke="#bfbfbf" points="367,-0.5 367,-19.5 411,-19.5 411,-0.5 367,-0.5"/>
<text text-anchor="middle" x="389" y="-7.5" font-family="Helvetica,sans-Serif" font-size="10.00">time.h</text>
</g>
<!-- Node2&#45;&gt;Node9 -->
<g id="edge8" class="edge"><title>Node2&#45;&gt;Node9</title>
<path fill="none" stroke="midnightblue" d="M499.243,-56.4435C477.684,-47.5566 443.737,-33.5632 419.206,-23.4514"/>
<polygon fill="midnightblue" stroke="midnightblue" points="420.239,-20.0917 409.66,-19.5164 417.572,-26.5634 420.239,-20.0917"/>
</g>
<!-- Node10 -->
<g id="node10" class="node"><title>Node10</title>
<polygon fill="white" stroke="#bfbfbf" points="429,-0.5 429,-19.5 471,-19.5 471,-0.5 429,-0.5"/>
<text text-anchor="middle" x="450" y="-7.5" font-family="Helvetica,sans-Serif" font-size="10.00">vector</text>
</g>
<!-- Node2&#45;&gt;Node10 -->
<g id="edge9" class="edge"><title>Node2&#45;&gt;Node10</title>
<path fill="none" stroke="midnightblue" d="M508.753,-56.324C498.203,-48.1849 482.199,-35.8395 469.558,-26.0874"/>
<polygon fill="midnightblue" stroke="midnightblue" points="471.507,-23.1707 461.451,-19.8339 467.231,-28.7132 471.507,-23.1707"/>
</g>
<!-- Node11 -->
<g id="node11" class="node"><title>Node11</title>
<polygon fill="white" stroke="#bfbfbf" points="489,-0.5 489,-19.5 551,-19.5 551,-0.5 489,-0.5"/>
<text text-anchor="middle" x="520" y="-7.5" font-family="Helvetica,sans-Serif" font-size="10.00">windows.h</text>
</g>
<!-- Node2&#45;&gt;Node11 -->
<g id="edge10" class="edge"><title>Node2&#45;&gt;Node11</title>
<path fill="none" stroke="midnightblue" d="M520,-56.083C520,-49.0059 520,-38.8611 520,-29.9865"/>
<polygon fill="midnightblue" stroke="midnightblue" points="523.5,-29.751 520,-19.7511 516.5,-29.7511 523.5,-29.751"/>
</g>
<!-- Node12 -->
<g id="node12" class="node"><title>Node12</title>
<polygon fill="white" stroke="#bfbfbf" points="569,-0.5 569,-19.5 629,-19.5 629,-0.5 569,-0.5"/>
<text text-anchor="middle" x="599" y="-7.5" font-family="Helvetica,sans-Serif" font-size="10.00">GL/glew.h</text>
</g>
<!-- Node2&#45;&gt;Node12 -->
<g id="edge11" class="edge"><title>Node2&#45;&gt;Node12</title>
<path fill="none" stroke="midnightblue" d="M532.693,-56.324C544.901,-47.979 563.578,-35.2122 578.003,-25.3524"/>
<polygon fill="midnightblue" stroke="midnightblue" points="580.058,-28.1871 586.339,-19.6545 576.108,-22.4082 580.058,-28.1871"/>
</g>
<!-- Node13 -->
<g id="node13" class="node"><title>Node13</title>
<polygon fill="white" stroke="#bfbfbf" points="647,-0.5 647,-19.5 717,-19.5 717,-0.5 647,-0.5"/>
<text text-anchor="middle" x="682" y="-7.5" font-family="Helvetica,sans-Serif" font-size="10.00">glm/glm.hpp</text>
</g>
<!-- Node2&#45;&gt;Node13 -->
<g id="edge12" class="edge"><title>Node2&#45;&gt;Node13</title>
<path fill="none" stroke="midnightblue" d="M545.669,-56.4435C572.923,-47.3591 616.184,-32.9388 646.651,-22.7831"/>
<polygon fill="midnightblue" stroke="midnightblue" points="648.071,-25.9992 656.451,-19.5164 645.857,-19.3584 648.071,-25.9992"/>
</g>
<!-- Node14 -->
<g id="node14" class="node"><title>Node14</title>
<polygon fill="white" stroke="#bfbfbf" points="735.5,-0.5 735.5,-19.5 878.5,-19.5 878.5,-0.5 735.5,-0.5"/>
<text text-anchor="middle" x="807" y="-7.5" font-family="Helvetica,sans-Serif" font-size="10.00">glm/gtc/matrix_transform.hpp</text>
</g>
<!-- Node2&#45;&gt;Node14 -->
<g id="edge13" class="edge"><title>Node2&#45;&gt;Node14</title>
<path fill="none" stroke="midnightblue" d="M565.476,-56.4435C615.962,-46.9444 697.456,-31.611 751.62,-21.4198"/>
<polygon fill="midnightblue" stroke="midnightblue" points="752.556,-24.8052 761.737,-19.5164 751.262,-17.9259 752.556,-24.8052"/>
</g>
<!-- Node15 -->
<g id="node15" class="node"><title>Node15</title>
<polygon fill="white" stroke="#bfbfbf" points="897,-0.5 897,-19.5 1003,-19.5 1003,-0.5 897,-0.5"/>
<text text-anchor="middle" x="950" y="-7.5" font-family="Helvetica,sans-Serif" font-size="10.00">glm/gtc/type_ptr.hpp</text>
</g>
<!-- Node2&#45;&gt;Node15 -->
<g id="edge14" class="edge"><title>Node2&#45;&gt;Node15</title>
<path fill="none" stroke="midnightblue" d="M568.131,-59.4077C636.382,-51.4093 765.47,-36.0306 886.544,-20.0356"/>
<polygon fill="midnightblue" stroke="midnightblue" points="887.281,-23.4686 896.734,-18.6853 886.361,-16.5293 887.281,-23.4686"/>
</g>
<!-- Node16 -->
<g id="node16" class="node"><title>Node16</title>
<polygon fill="white" stroke="#bfbfbf" points="1021.5,-0.5 1021.5,-19.5 1078.5,-19.5 1078.5,-0.5 1021.5,-0.5"/>
<text text-anchor="middle" x="1050" y="-7.5" font-family="Helvetica,sans-Serif" font-size="10.00">GL/glfw.h</text>
</g>
<!-- Node2&#45;&gt;Node16 -->
<g id="edge15" class="edge"><title>Node2&#45;&gt;Node16</title>
<path fill="none" stroke="midnightblue" d="M568.125,-62.8595C654.802,-58.5134 842.989,-46.8386 1011.41,-19.8491"/>
<polygon fill="midnightblue" stroke="midnightblue" points="1012.14,-23.2763 1021.45,-18.2179 1011.02,-16.3669 1012.14,-23.2763"/>
</g>
<!-- Node17 -->
<g id="node17" class="node"><title>Node17</title>
<polygon fill="white" stroke="#bfbfbf" points="1096.5,-0.5 1096.5,-19.5 1167.5,-19.5 1167.5,-0.5 1096.5,-0.5"/>
<text text-anchor="middle" x="1132" y="-7.5" font-family="Helvetica,sans-Serif" font-size="10.00">SOIL/SOIL.h</text>
</g>
<!-- Node2&#45;&gt;Node17 -->
<g id="edge16" class="edge"><title>Node2&#45;&gt;Node17</title>
<path fill="none" stroke="midnightblue" d="M568.374,-63.0907C664.911,-58.8628 888.453,-46.9826 1086.21,-19.9386"/>
<polygon fill="midnightblue" stroke="midnightblue" points="1086.78,-23.3936 1096.2,-18.556 1085.82,-16.4597 1086.78,-23.3936"/>
</g>
<!-- Node18 -->
<g id="node18" class="node"><title>Node18</title>
<polygon fill="white" stroke="#bfbfbf" points="1185.5,-0.5 1185.5,-19.5 1258.5,-19.5 1258.5,-0.5 1185.5,-0.5"/>
<text text-anchor="middle" x="1222" y="-7.5" font-family="Helvetica,sans-Serif" font-size="10.00">irK/irrKlang.h</text>
</g>
<!-- Node2&#45;&gt;Node18 -->
<g id="edge17" class="edge"><title>Node2&#45;&gt;Node18</title>
<path fill="none" stroke="midnightblue" d="M568.351,-63.7463C675.717,-60.5184 942.233,-50.0546 1175.38,-19.8979"/>
<polygon fill="midnightblue" stroke="midnightblue" points="1175.95,-23.354 1185.41,-18.5862 1175.04,-16.4132 1175.95,-23.354"/>
</g>
<!-- Node19 -->
<g id="node19" class="node"><title>Node19</title>
<polygon fill="white" stroke="#bfbfbf" points="1276.5,-0.5 1276.5,-19.5 1353.5,-19.5 1353.5,-0.5 1276.5,-0.5"/>
<text text-anchor="middle" x="1315" y="-7.5" font-family="Helvetica,sans-Serif" font-size="10.00">irK/ik_vec3d.h</text>
</g>
<!-- Node2&#45;&gt;Node19 -->
<g id="edge18" class="edge"><title>Node2&#45;&gt;Node19</title>
<path fill="none" stroke="midnightblue" d="M568.256,-64.1833C685.89,-61.7444 996.881,-52.6019 1266.32,-19.9108"/>
<polygon fill="midnightblue" stroke="midnightblue" points="1266.79,-23.3795 1276.29,-18.688 1265.94,-16.4316 1266.79,-23.3795"/>
</g>
</g>
</svg>
