<?xml version="1.0" encoding="UTF-8" standalone="no"?>
<!DOCTYPE svg PUBLIC "-//W3C//DTD SVG 1.1//EN"
 "http://www.w3.org/Graphics/SVG/1.1/DTD/svg11.dtd">
<!-- Generated by graphviz version 2.30.1 (20130214.1330)
 -->
<!-- Title: D:/space/c++/OmniOGL/OmniOGL/Engine_Includes.h Pages: 1 -->
<svg width="1361pt" height="96pt"
 viewBox="0.00 0.00 1361.00 96.00" xmlns="http://www.w3.org/2000/svg" xmlns:xlink="http://www.w3.org/1999/xlink">
<g id="graph0" class="graph" transform="scale(1 1) rotate(0) translate(4 92)">
<title>D:/space/c++/OmniOGL/OmniOGL/Engine_Includes.h</title>
<polygon fill="white" stroke="white" points="-4,5 -4,-92 1358,-92 1358,5 -4,5"/>
<!-- Node1 -->
<g id="node1" class="node"><title>Node1</title>
<polygon fill="#bfbfbf" stroke="black" points="447,-57 447,-87 593,-87 593,-57 447,-57"/>
<text text-anchor="start" x="455" y="-75" font-family="Helvetica,sans-Serif" font-size="10.00">D:/space/c++/OmniOGL</text>
<text text-anchor="middle" x="520" y="-64" font-family="Helvetica,sans-Serif" font-size="10.00">/OmniOGL/Engine_Includes.h</text>
</g>
<!-- Node2 -->
<g id="node2" class="node"><title>Node2</title>
<polygon fill="white" stroke="#bfbfbf" points="-0.5,-0.5 -0.5,-19.5 48.5,-19.5 48.5,-0.5 -0.5,-0.5"/>
<text text-anchor="middle" x="24" y="-7.5" font-family="Helvetica,sans-Serif" font-size="10.00">fstream</text>
</g>
<!-- Node1&#45;&gt;Node2 -->
<g id="edge1" class="edge"><title>Node1&#45;&gt;Node2</title>
<path fill="none" stroke="midnightblue" d="M446.901,-66.4981C357.356,-60.1906 200.988,-46.6113 58.9686,-20.1311"/>
<polygon fill="midnightblue" stroke="midnightblue" points="59.2453,-16.6214 48.7691,-18.2021 57.9445,-23.4995 59.2453,-16.6214"/>
</g>
<!-- Node3 -->
<g id="node3" class="node"><title>Node3</title>
<polygon fill="white" stroke="#bfbfbf" points="66.5,-0.5 66.5,-19.5 95.5,-19.5 95.5,-0.5 66.5,-0.5"/>
<text text-anchor="middle" x="81" y="-7.5" font-family="Helvetica,sans-Serif" font-size="10.00">list</text>
</g>
<!-- Node1&#45;&gt;Node3 -->
<g id="edge2" class="edge"><title>Node1&#45;&gt;Node3</title>
<path fill="none" stroke="midnightblue" d="M446.839,-67.5871C365.158,-62.5374 229.215,-50.4282 105.905,-19.9741"/>
<polygon fill="midnightblue" stroke="midnightblue" points="106.468,-16.5067 95.9164,-17.4593 104.759,-23.2949 106.468,-16.5067"/>
</g>
<!-- Node4 -->
<g id="node4" class="node"><title>Node4</title>
<polygon fill="white" stroke="#bfbfbf" points="113.5,-0.5 113.5,-19.5 148.5,-19.5 148.5,-0.5 113.5,-0.5"/>
<text text-anchor="middle" x="131" y="-7.5" font-family="Helvetica,sans-Serif" font-size="10.00">map</text>
</g>
<!-- Node1&#45;&gt;Node4 -->
<g id="edge3" class="edge"><title>Node1&#45;&gt;Node4</title>
<path fill="none" stroke="midnightblue" d="M446.82,-64.6314C375.412,-57.5262 263.713,-44.047 158.427,-19.6862"/>
<polygon fill="midnightblue" stroke="midnightblue" points="159.122,-16.2543 148.586,-17.3727 157.52,-23.0685 159.122,-16.2543"/>
</g>
<!-- Node5 -->
<g id="node5" class="node"><title>Node5</title>
<polygon fill="white" stroke="#bfbfbf" points="167,-0.5 167,-19.5 219,-19.5 219,-0.5 167,-0.5"/>
<text text-anchor="middle" x="193" y="-7.5" font-family="Helvetica,sans-Serif" font-size="10.00">memory</text>
</g>
<!-- Node1&#45;&gt;Node5 -->
<g id="edge4" class="edge"><title>Node1&#45;&gt;Node5</title>
<path fill="none" stroke="midnightblue" d="M446.79,-59.8533C389.974,-50.8253 309.043,-37.1458 229.515,-20.1975"/>
<polygon fill="midnightblue" stroke="midnightblue" points="229.833,-16.6859 219.321,-18.005 228.361,-23.5294 229.833,-16.6859"/>
</g>
<!-- Node6 -->
<g id="node6" class="node"><title>Node6</title>
<polygon fill="white" stroke="#bfbfbf" points="237,-0.5 237,-19.5 289,-19.5 289,-0.5 237,-0.5"/>
<text text-anchor="middle" x="263" y="-7.5" font-family="Helvetica,sans-Serif" font-size="10.00">sstream</text>
</g>
<!-- Node1&#45;&gt;Node6 -->
<g id="edge5" class="edge"><title>Node1&#45;&gt;Node6</title>
<path fill="none" stroke="midnightblue" d="M456.741,-56.9249C414.614,-47.4456 357.782,-34.4565 299.16,-20.2401"/>
<polygon fill="midnightblue" stroke="midnightblue" points="299.899,-16.8179 289.355,-17.8548 298.244,-23.6195 299.899,-16.8179"/>
</g>
<!-- Node7 -->
<g id="node7" class="node"><title>Node7</title>
<polygon fill="white" stroke="#bfbfbf" points="307.5,-0.5 307.5,-19.5 348.5,-19.5 348.5,-0.5 307.5,-0.5"/>
<text text-anchor="middle" x="328" y="-7.5" font-family="Helvetica,sans-Serif" font-size="10.00">string</text>
</g>
<!-- Node1&#45;&gt;Node7 -->
<g id="edge6" class="edge"><title>Node1&#45;&gt;Node7</title>
<path fill="none" stroke="midnightblue" d="M474.985,-56.9327C439.135,-45.7297 389.923,-30.3509 358.537,-20.5428"/>
<polygon fill="midnightblue" stroke="midnightblue" points="359.21,-17.0863 348.621,-17.4442 357.122,-23.7677 359.21,-17.0863"/>
</g>
<!-- Node8 -->
<g id="node8" class="node"><title>Node8</title>
<polygon fill="white" stroke="#bfbfbf" points="367,-0.5 367,-19.5 411,-19.5 411,-0.5 367,-0.5"/>
<text text-anchor="middle" x="389" y="-7.5" font-family="Helvetica,sans-Serif" font-size="10.00">time.h</text>
</g>
<!-- Node1&#45;&gt;Node8 -->
<g id="edge7" class="edge"><title>Node1&#45;&gt;Node8</title>
<path fill="none" stroke="midnightblue" d="M489.286,-56.9327C467.382,-46.9004 438.167,-33.5193 416.922,-23.7888"/>
<polygon fill="midnightblue" stroke="midnightblue" points="418.326,-20.5821 407.777,-19.6 415.411,-26.9464 418.326,-20.5821"/>
</g>
<!-- Node9 -->
<g id="node9" class="node"><title>Node9</title>
<polygon fill="white" stroke="#bfbfbf" points="429,-0.5 429,-19.5 471,-19.5 471,-0.5 429,-0.5"/>
<text text-anchor="middle" x="450" y="-7.5" font-family="Helvetica,sans-Serif" font-size="10.00">vector</text>
</g>
<!-- Node1&#45;&gt;Node9 -->
<g id="edge8" class="edge"><title>Node1&#45;&gt;Node9</title>
<path fill="none" stroke="midnightblue" d="M503.411,-56.7808C492.715,-47.6127 478.812,-35.6957 467.872,-26.3186"/>
<polygon fill="midnightblue" stroke="midnightblue" points="470.056,-23.5811 460.186,-19.7305 465.5,-28.8959 470.056,-23.5811"/>
</g>
<!-- Node10 -->
<g id="node10" class="node"><title>Node10</title>
<polygon fill="white" stroke="#bfbfbf" points="489,-0.5 489,-19.5 551,-19.5 551,-0.5 489,-0.5"/>
<text text-anchor="middle" x="520" y="-7.5" font-family="Helvetica,sans-Serif" font-size="10.00">windows.h</text>
</g>
<!-- Node1&#45;&gt;Node10 -->
<g id="edge9" class="edge"><title>Node1&#45;&gt;Node10</title>
<path fill="none" stroke="midnightblue" d="M520,-56.7808C520,-48.7812 520,-38.6887 520,-30.0168"/>
<polygon fill="midnightblue" stroke="midnightblue" points="523.5,-29.7305 520,-19.7305 516.5,-29.7306 523.5,-29.7305"/>
</g>
<!-- Node11 -->
<g id="node11" class="node"><title>Node11</title>
<polygon fill="white" stroke="#bfbfbf" points="569,-0.5 569,-19.5 629,-19.5 629,-0.5 569,-0.5"/>
<text text-anchor="middle" x="599" y="-7.5" font-family="Helvetica,sans-Serif" font-size="10.00">GL/glew.h</text>
</g>
<!-- Node1&#45;&gt;Node11 -->
<g id="edge10" class="edge"><title>Node1&#45;&gt;Node11</title>
<path fill="none" stroke="midnightblue" d="M538.722,-56.7808C550.912,-47.5228 566.792,-35.4618 579.193,-26.0435"/>
<polygon fill="midnightblue" stroke="midnightblue" points="581.658,-28.5661 587.505,-19.7305 577.424,-22.9916 581.658,-28.5661"/>
</g>
<!-- Node12 -->
<g id="node12" class="node"><title>Node12</title>
<polygon fill="white" stroke="#bfbfbf" points="647,-0.5 647,-19.5 717,-19.5 717,-0.5 647,-0.5"/>
<text text-anchor="middle" x="682" y="-7.5" font-family="Helvetica,sans-Serif" font-size="10.00">glm/glm.hpp</text>
</g>
<!-- Node1&#45;&gt;Node12 -->
<g id="edge11" class="edge"><title>Node1&#45;&gt;Node12</title>
<path fill="none" stroke="midnightblue" d="M557.982,-56.9327C585.679,-46.6744 622.83,-32.9148 649.23,-23.1369"/>
<polygon fill="midnightblue" stroke="midnightblue" points="650.618,-26.3554 658.78,-19.6 648.187,-19.7911 650.618,-26.3554"/>
</g>
<!-- Node13 -->
<g id="node13" class="node"><title>Node13</title>
<polygon fill="white" stroke="#bfbfbf" points="735.5,-0.5 735.5,-19.5 878.5,-19.5 878.5,-0.5 735.5,-0.5"/>
<text text-anchor="middle" x="807" y="-7.5" font-family="Helvetica,sans-Serif" font-size="10.00">glm/gtc/matrix_transform.hpp</text>
</g>
<!-- Node1&#45;&gt;Node13 -->
<g id="edge12" class="edge"><title>Node1&#45;&gt;Node13</title>
<path fill="none" stroke="midnightblue" d="M587.289,-56.9327C638.998,-46.1224 709.305,-31.424 756.324,-21.5943"/>
<polygon fill="midnightblue" stroke="midnightblue" points="757.209,-24.9851 766.281,-19.5127 755.776,-18.1332 757.209,-24.9851"/>
</g>
<!-- Node14 -->
<g id="node14" class="node"><title>Node14</title>
<polygon fill="white" stroke="#bfbfbf" points="897,-0.5 897,-19.5 1003,-19.5 1003,-0.5 897,-0.5"/>
<text text-anchor="middle" x="950" y="-7.5" font-family="Helvetica,sans-Serif" font-size="10.00">glm/gtc/type_ptr.hpp</text>
</g>
<!-- Node1&#45;&gt;Node14 -->
<g id="edge13" class="edge"><title>Node1&#45;&gt;Node14</title>
<path fill="none" stroke="midnightblue" d="M593.125,-60.9219C664.96,-51.0024 777.986,-35.3444 886.571,-20.0557"/>
<polygon fill="midnightblue" stroke="midnightblue" points="887.312,-23.486 896.726,-18.6251 886.336,-16.5544 887.312,-23.486"/>
</g>
<!-- Node15 -->
<g id="node15" class="node"><title>Node15</title>
<polygon fill="white" stroke="#bfbfbf" points="1021.5,-0.5 1021.5,-19.5 1078.5,-19.5 1078.5,-0.5 1021.5,-0.5"/>
<text text-anchor="middle" x="1050" y="-7.5" font-family="Helvetica,sans-Serif" font-size="10.00">GL/glfw.h</text>
</g>
<!-- Node1&#45;&gt;Node15 -->
<g id="edge14" class="edge"><title>Node1&#45;&gt;Node15</title>
<path fill="none" stroke="midnightblue" d="M593.339,-66.3704C687.758,-59.7467 857.001,-45.6328 1011.31,-19.8927"/>
<polygon fill="midnightblue" stroke="midnightblue" points="1012.17,-23.2965 1021.45,-18.1804 1011,-16.3942 1012.17,-23.2965"/>
</g>
<!-- Node16 -->
<g id="node16" class="node"><title>Node16</title>
<polygon fill="white" stroke="#bfbfbf" points="1096.5,-0.5 1096.5,-19.5 1167.5,-19.5 1167.5,-0.5 1096.5,-0.5"/>
<text text-anchor="middle" x="1132" y="-7.5" font-family="Helvetica,sans-Serif" font-size="10.00">SOIL/SOIL.h</text>
</g>
<!-- Node1&#45;&gt;Node16 -->
<g id="edge15" class="edge"><title>Node1&#45;&gt;Node16</title>
<path fill="none" stroke="midnightblue" d="M593.24,-66.9408C699.604,-60.4849 903.159,-46.0207 1086.12,-19.9714"/>
<polygon fill="midnightblue" stroke="midnightblue" points="1086.8,-23.41 1096.2,-18.5217 1085.8,-16.4813 1086.8,-23.41"/>
</g>
<!-- Node17 -->
<g id="node17" class="node"><title>Node17</title>
<polygon fill="white" stroke="#bfbfbf" points="1185.5,-0.5 1185.5,-19.5 1258.5,-19.5 1258.5,-0.5 1185.5,-0.5"/>
<text text-anchor="middle" x="1222" y="-7.5" font-family="Helvetica,sans-Serif" font-size="10.00">irK/irrKlang.h</text>
</g>
<!-- Node1&#45;&gt;Node17 -->
<g id="edge16" class="edge"><title>Node1&#45;&gt;Node17</title>
<path fill="none" stroke="midnightblue" d="M593.098,-68.0791C712.731,-62.6902 957.906,-49.1006 1175.4,-19.9128"/>
<polygon fill="midnightblue" stroke="midnightblue" points="1175.97,-23.3678 1185.41,-18.5559 1175.03,-16.4312 1175.97,-23.3678"/>
</g>
<!-- Node18 -->
<g id="node18" class="node"><title>Node18</title>
<polygon fill="white" stroke="#bfbfbf" points="1276.5,-0.5 1276.5,-19.5 1353.5,-19.5 1353.5,-0.5 1276.5,-0.5"/>
<text text-anchor="middle" x="1315" y="-7.5" font-family="Helvetica,sans-Serif" font-size="10.00">irK/ik_vec3d.h</text>
</g>
<!-- Node1&#45;&gt;Node18 -->
<g id="edge17" class="edge"><title>Node1&#45;&gt;Node18</title>
<path fill="none" stroke="midnightblue" d="M593.175,-68.8495C725.499,-64.3376 1013.47,-51.6656 1266.18,-19.9429"/>
<polygon fill="midnightblue" stroke="midnightblue" points="1266.81,-23.3913 1276.29,-18.6612 1265.93,-16.4469 1266.81,-23.3913"/>
</g>
</g>
</svg>
