<?xml version="1.0" encoding="UTF-8" standalone="no"?>
<!DOCTYPE svg PUBLIC "-//W3C//DTD SVG 1.1//EN"
 "http://www.w3.org/Graphics/SVG/1.1/DTD/svg11.dtd">
<!-- Generated by graphviz version 2.30.1 (20130214.1330)
 -->
<!-- Title: render Pages: 1 -->
<svg width="1048pt" height="962pt"
 viewBox="0.00 0.00 1048.00 961.53" xmlns="http://www.w3.org/2000/svg" xmlns:xlink="http://www.w3.org/1999/xlink">
<g id="graph0" class="graph" transform="scale(1 1) rotate(0) translate(4 957.532)">
<title>render</title>
<polygon fill="white" stroke="white" points="-4,5 -4,-957.532 1045,-957.532 1045,5 -4,5"/>
<!-- Node1 -->
<g id="node1" class="node"><title>Node1</title>
<polygon fill="#bfbfbf" stroke="black" points="0,-381.5 0,-400.5 44,-400.5 44,-381.5 0,-381.5"/>
<text text-anchor="middle" x="22" y="-388.5" font-family="Helvetica,sans-Serif" font-size="10.00">render</text>
</g>
<!-- Node2 -->
<g id="node2" class="node"><title>Node2</title>
<g id="a_node2"><a xlink:href="class_omni_o_g_l_1_1_ren_obj.html#af3c38be2a56405acab4dd354904f8576" target="_top" xlink:title="A setter which is more&#45;or&#45;less just a wrapper around the static function RenObj::MakeTexture(). This method sets the appropriate member with the value returned by MakeTexture(). The texture of an object is the image that is used to color the object&#39;s face(s). RenObj::SetTexture(std::string,bool), RenObj::MakeTexture(), RenObj::texture_sel">
<polygon fill="white" stroke="black" points="86,-758.5 86,-777.5 238,-777.5 238,-758.5 86,-758.5"/>
<text text-anchor="middle" x="162" y="-765.5" font-family="Helvetica,sans-Serif" font-size="10.00">OmniOGL::RenObj::SetTexture</text>
</a>
</g>
</g>
<!-- Node1&#45;&gt;Node2 -->
<g id="edge1" class="edge"><title>Node1&#45;&gt;Node2</title>
<path fill="none" stroke="midnightblue" d="M23.5229,-400.804C26.3211,-450.127 40.887,-670.89 80,-725 89.5638,-738.231 104.461,-747.761 118.886,-754.433"/>
<polygon fill="midnightblue" stroke="midnightblue" points="117.663,-757.717 128.235,-758.415 120.406,-751.276 117.663,-757.717"/>
</g>
<!-- Node5 -->
<g id="node5" class="node"><title>Node5</title>
<g id="a_node5"><a xlink:href="class_omni_o_g_l_1_1_scene.html#a63db7f91d326ad1a20741b31417b8148" target="_top" xlink:title="A template method which adds an renderable object of type T to the scene. It is assumed that T is a d...">
<polygon fill="white" stroke="black" points="292,-387.5 292,-406.5 438,-406.5 438,-387.5 292,-387.5"/>
<text text-anchor="middle" x="365" y="-394.5" font-family="Helvetica,sans-Serif" font-size="10.00">OmniOGL::Scene::AddObject</text>
</a>
</g>
</g>
<!-- Node1&#45;&gt;Node5 -->
<g id="edge4" class="edge"><title>Node1&#45;&gt;Node5</title>
<path fill="none" stroke="midnightblue" d="M27.5012,-400.502C35.5138,-416.15 53.8956,-446.819 80,-459 146.052,-489.821 177.957,-489.841 244,-459 266.583,-448.454 258.727,-428.988 280,-416 283.589,-413.809 287.404,-411.87 291.35,-410.154"/>
<polygon fill="midnightblue" stroke="midnightblue" points="292.676,-413.394 300.756,-406.541 290.166,-406.859 292.676,-413.394"/>
</g>
<!-- Node7 -->
<g id="node7" class="node"><title>Node7</title>
<g id="a_node7"><a xlink:href="class_omni_o_g_l_1_1_ren_obj.html#a57b3b7f832a64b1402d9734e533e58f7" target="_top" xlink:title="A setter which sets the origin of the object in 3D space, to which all vertices are relative...">
<polygon fill="white" stroke="black" points="292.5,-425.5 292.5,-444.5 437.5,-444.5 437.5,-425.5 292.5,-425.5"/>
<text text-anchor="middle" x="365" y="-432.5" font-family="Helvetica,sans-Serif" font-size="10.00">OmniOGL::RenObj::SetOrigin</text>
</a>
</g>
</g>
<!-- Node1&#45;&gt;Node7 -->
<g id="edge6" class="edge"><title>Node1&#45;&gt;Node7</title>
<path fill="none" stroke="midnightblue" d="M23.3343,-400.649C24.8543,-427.666 33.2823,-504.167 80,-536 140.235,-577.043 182.973,-575.857 244,-536 277.324,-514.236 249.297,-479.329 280,-454 282.018,-452.335 284.153,-450.809 286.38,-449.41"/>
<polygon fill="midnightblue" stroke="midnightblue" points="288.184,-452.415 295.365,-444.625 284.893,-446.236 288.184,-452.415"/>
</g>
<!-- Node8 -->
<g id="node8" class="node"><title>Node8</title>
<g id="a_node8"><a xlink:href="class_omni_o_g_l_1_1_text_overlay.html#ae7accf2c03cd55d5a7c76675965d33e2" target="_top" xlink:title="Sets the text size according to the parameter passed to the method. This method will modify vertices ...">
<polygon fill="white" stroke="black" points="103.5,-420 103.5,-450 220.5,-450 220.5,-420 103.5,-420"/>
<text text-anchor="start" x="111.5" y="-438" font-family="Helvetica,sans-Serif" font-size="10.00">OmniOGL::TextOverlay</text>
<text text-anchor="middle" x="162" y="-427" font-family="Helvetica,sans-Serif" font-size="10.00">::SetTextSize</text>
</a>
</g>
</g>
<!-- Node1&#45;&gt;Node8 -->
<g id="edge7" class="edge"><title>Node1&#45;&gt;Node8</title>
<path fill="none" stroke="midnightblue" d="M44.0772,-398.151C54.8121,-401.761 68.0814,-406.175 80,-410 87.0328,-412.257 94.4212,-414.59 101.756,-416.882"/>
<polygon fill="midnightblue" stroke="midnightblue" points="101.097,-420.343 111.685,-419.972 103.176,-413.659 101.097,-420.343"/>
</g>
<!-- Node9 -->
<g id="node9" class="node"><title>Node9</title>
<g id="a_node9"><a xlink:href="class_omni_o_g_l_1_1_ren_obj.html#a3e92b18f8431eadeedd525dfd5f7f45c" target="_top" xlink:title="A setter which is more&#45;or&#45;less just a wrapper around the static function RenObj::MakeTexture(). This method sets the appropriate member with the value returned by MakeTexture(). The bump map is an image whose color components are used to alter the normals of each object to simulate small differences in lighting.RenObj::SetBumpMap(GLint), RenObj::MakeTexture(), RenObj::bump_map">
<polygon fill="white" stroke="black" points="80,-833.5 80,-852.5 244,-852.5 244,-833.5 80,-833.5"/>
<text text-anchor="middle" x="162" y="-840.5" font-family="Helvetica,sans-Serif" font-size="10.00">OmniOGL::RenObj::SetBumpMap</text>
</a>
</g>
</g>
<!-- Node1&#45;&gt;Node9 -->
<g id="edge8" class="edge"><title>Node1&#45;&gt;Node9</title>
<path fill="none" stroke="midnightblue" d="M23.357,-400.673C25.5029,-454.712 38.0396,-719.236 80,-787 91.391,-805.396 111.317,-819.29 128.554,-828.637"/>
<polygon fill="midnightblue" stroke="midnightblue" points="127.286,-831.92 137.782,-833.362 130.476,-825.689 127.286,-831.92"/>
</g>
<!-- Node10 -->
<g id="node10" class="node"><title>Node10</title>
<g id="a_node10"><a xlink:href="class_omni_o_g_l_1_1_voxel_field.html#af35e1fbb4908ffbe639962bce40c36a4" target="_top" xlink:title="The core method of this class which initializes all voxels and populates a given BlockArray with the ...">
<polygon fill="white" stroke="black" points="106,-584 106,-614 218,-614 218,-584 106,-584"/>
<text text-anchor="start" x="114" y="-602" font-family="Helvetica,sans-Serif" font-size="10.00">OmniOGL::VoxelField</text>
<text text-anchor="middle" x="162" y="-591" font-family="Helvetica,sans-Serif" font-size="10.00">::FillWithRandom</text>
</a>
</g>
</g>
<!-- Node1&#45;&gt;Node10 -->
<g id="edge10" class="edge"><title>Node1&#45;&gt;Node10</title>
<path fill="none" stroke="midnightblue" d="M23.2595,-400.561C24.5677,-429.838 32.4591,-519.28 80,-569 84.8045,-574.025 90.5252,-578.213 96.6728,-581.704"/>
<polygon fill="midnightblue" stroke="midnightblue" points="95.4188,-584.99 105.928,-586.335 98.5511,-578.73 95.4188,-584.99"/>
</g>
<!-- Node22 -->
<g id="node22" class="node"><title>Node22</title>
<g id="a_node22"><a xlink:href="namespace_omni_o_g_l.html#af8a40db474407b190b16d08051206946" target="_top" xlink:title="Ppopulates pointers to various Scene members which allow mouse and keyboard events to directly affect...">
<polygon fill="white" stroke="black" points="101.5,-381.5 101.5,-400.5 222.5,-400.5 222.5,-381.5 101.5,-381.5"/>
<text text-anchor="middle" x="162" y="-388.5" font-family="Helvetica,sans-Serif" font-size="10.00">OmniOGL::CaptureInput</text>
</a>
</g>
</g>
<!-- Node1&#45;&gt;Node22 -->
<g id="edge30" class="edge"><title>Node1&#45;&gt;Node22</title>
<path fill="none" stroke="midnightblue" d="M44.2601,-391C57.0268,-391 74.0703,-391 91.181,-391"/>
<polygon fill="midnightblue" stroke="midnightblue" points="91.2315,-394.5 101.232,-391 91.2315,-387.5 91.2315,-394.5"/>
</g>
<!-- Node23 -->
<g id="node23" class="node"><title>Node23</title>
<g id="a_node23"><a xlink:href="namespace_omni_o_g_l.html#aa920bdd23ca74fca1e61ae65412364a8" target="_top" xlink:title="A templated function which takes any type of pointer as a parameter then returns a shared pointer to ...">
<polygon fill="white" stroke="black" points="84,-343.5 84,-362.5 240,-362.5 240,-343.5 84,-343.5"/>
<text text-anchor="middle" x="162" y="-350.5" font-family="Helvetica,sans-Serif" font-size="10.00">OmniOGL::SetPlacementObject</text>
</a>
</g>
</g>
<!-- Node1&#45;&gt;Node23 -->
<g id="edge31" class="edge"><title>Node1&#45;&gt;Node23</title>
<path fill="none" stroke="midnightblue" d="M44.2398,-383.407C54.9007,-379.727 68.057,-375.384 80,-372 88.777,-369.513 98.1532,-367.097 107.299,-364.868"/>
<polygon fill="midnightblue" stroke="midnightblue" points="108.18,-368.256 117.093,-362.528 106.553,-361.448 108.18,-368.256"/>
</g>
<!-- Node24 -->
<g id="node24" class="node"><title>Node24</title>
<g id="a_node24"><a xlink:href="class_omni_o_g_l_1_1_ren_obj.html#a23f7923118fef5b08a3c02892001178b" target="_top" xlink:title="A getter which attempts to copy the objects current origin (x,y,z location in 3D space to which all v...">
<polygon fill="white" stroke="black" points="89,-305.5 89,-324.5 235,-324.5 235,-305.5 89,-305.5"/>
<text text-anchor="middle" x="162" y="-312.5" font-family="Helvetica,sans-Serif" font-size="10.00">OmniOGL::RenObj::GetOrigin</text>
</a>
</g>
</g>
<!-- Node1&#45;&gt;Node24 -->
<g id="edge32" class="edge"><title>Node1&#45;&gt;Node24</title>
<path fill="none" stroke="midnightblue" d="M29.915,-381.289C39.6075,-368.428 58.4783,-345.979 80,-334 84.013,-331.766 88.2788,-329.794 92.6726,-328.054"/>
<polygon fill="midnightblue" stroke="midnightblue" points="94.1845,-331.232 102.447,-324.6 91.8527,-324.631 94.1845,-331.232"/>
</g>
<!-- Node25 -->
<g id="node25" class="node"><title>Node25</title>
<g id="a_node25"><a xlink:href="class_omni_o_g_l_1_1_scene.html#aae08df1c53cc88c0e8f7ec3f45b87f4b" target="_top" xlink:title="Configures lighting parameters for the Scene including the sole light&#39;s position and color...">
<polygon fill="white" stroke="black" points="83,-507.5 83,-526.5 241,-526.5 241,-507.5 83,-507.5"/>
<text text-anchor="middle" x="162" y="-514.5" font-family="Helvetica,sans-Serif" font-size="10.00">OmniOGL::Scene::ApplyLighting</text>
</a>
</g>
</g>
<!-- Node1&#45;&gt;Node25 -->
<g id="edge33" class="edge"><title>Node1&#45;&gt;Node25</title>
<path fill="none" stroke="midnightblue" d="M25.7143,-400.779C31.8606,-421.092 48.7914,-468.039 80,-493 85.3099,-497.247 91.353,-500.743 97.6896,-503.62"/>
<polygon fill="midnightblue" stroke="midnightblue" points="96.548,-506.933 107.132,-507.409 99.1549,-500.437 96.548,-506.933"/>
</g>
<!-- Node26 -->
<g id="node26" class="node"><title>Node26</title>
<g id="a_node26"><a xlink:href="class_omni_o_g_l_1_1_scene.html#abac81957e4ffd51ad7f25cb265b5916a" target="_top" xlink:title="Adds a &quot;sound&quot; to the Scene which can be subject to 3D effects (the most common being panning and vol...">
<polygon fill="white" stroke="black" points="89.5,-267.5 89.5,-286.5 234.5,-286.5 234.5,-267.5 89.5,-267.5"/>
<text text-anchor="middle" x="162" y="-274.5" font-family="Helvetica,sans-Serif" font-size="10.00">OmniOGL::Scene::AddSound</text>
</a>
</g>
</g>
<!-- Node1&#45;&gt;Node26 -->
<g id="edge36" class="edge"><title>Node1&#45;&gt;Node26</title>
<path fill="none" stroke="midnightblue" d="M25.9071,-381.453C32.3128,-362.104 49.5471,-318.222 80,-296 82.5433,-294.144 85.2406,-292.467 88.0475,-290.95"/>
<polygon fill="midnightblue" stroke="midnightblue" points="89.736,-294.025 97.3293,-286.637 86.7857,-287.677 89.736,-294.025"/>
</g>
<!-- Node4 -->
<g id="node4" class="node"><title>Node4</title>
<g id="a_node4"><a xlink:href="namespace_omni_o_g_l.html#a8f559408c62db097a1a918d7f58f4183" target="_top" xlink:title="A &quot;clone&quot; of the well&#45;known printf() function, with the debug routed to the OutputDebugString() funct...">
<polygon fill="white" stroke="black" points="712,-742.5 712,-761.5 802,-761.5 802,-742.5 712,-742.5"/>
<text text-anchor="middle" x="757" y="-749.5" font-family="Helvetica,sans-Serif" font-size="10.00">OmniOGL::dprint</text>
</a>
</g>
</g>
<!-- Node1&#45;&gt;Node4 -->
<g id="edge37" class="edge"><title>Node1&#45;&gt;Node4</title>
<path fill="none" stroke="midnightblue" d="M23.4636,-400.914C26.5932,-465.829 45.5574,-828.598 80,-862 258.402,-1035.01 411.074,-927.315 638,-826 674.062,-809.9 712.138,-784.224 734.98,-767.743"/>
<polygon fill="midnightblue" stroke="midnightblue" points="737.225,-770.438 743.231,-761.71 733.093,-764.787 737.225,-770.438"/>
</g>
<!-- Node27 -->
<g id="node27" class="node"><title>Node27</title>
<g id="a_node27"><a xlink:href="namespace_omni_o_g_l.html#aeb8bbf7534dfa99998abf69544023d47" target="_top" xlink:title="A function which returns a boolean variable which tells the render loop whether or not to continue (e...">
<polygon fill="white" stroke="black" points="107,-229.5 107,-248.5 217,-248.5 217,-229.5 107,-229.5"/>
<text text-anchor="middle" x="162" y="-236.5" font-family="Helvetica,sans-Serif" font-size="10.00">OmniOGL::ExitQuery</text>
</a>
</g>
</g>
<!-- Node1&#45;&gt;Node27 -->
<g id="edge38" class="edge"><title>Node1&#45;&gt;Node27</title>
<path fill="none" stroke="midnightblue" d="M24.1882,-381.209C27.7304,-356.476 40.5502,-291.104 80,-258 85.0102,-253.796 90.7822,-250.484 96.8898,-247.881"/>
<polygon fill="midnightblue" stroke="midnightblue" points="98.4796,-251.029 106.702,-244.348 96.1079,-244.443 98.4796,-251.029"/>
</g>
<!-- Node28 -->
<g id="node28" class="node"><title>Node28</title>
<g id="a_node28"><a xlink:href="class_omni_o_g_l_1_1_text_overlay.html#a4e34d1e6e721640ae3deab8034f6e2b1" target="_top" xlink:title="This method populates the vertex, color, and texture coordinate arrays with data necessary to render ...">
<polygon fill="white" stroke="black" points="306.5,-764 306.5,-794 423.5,-794 423.5,-764 306.5,-764"/>
<text text-anchor="start" x="314.5" y="-782" font-family="Helvetica,sans-Serif" font-size="10.00">OmniOGL::TextOverlay</text>
<text text-anchor="middle" x="365" y="-771" font-family="Helvetica,sans-Serif" font-size="10.00">::SetText</text>
</a>
</g>
</g>
<!-- Node1&#45;&gt;Node28 -->
<g id="edge39" class="edge"><title>Node1&#45;&gt;Node28</title>
<path fill="none" stroke="midnightblue" d="M22.9493,-400.866C23.2474,-434.984 28.2448,-549.875 80,-623 132.163,-696.702 230.561,-739.309 296.709,-760.841"/>
<polygon fill="midnightblue" stroke="midnightblue" points="296.04,-764.301 306.63,-763.991 298.159,-757.629 296.04,-764.301"/>
</g>
<!-- Node29 -->
<g id="node29" class="node"><title>Node29</title>
<g id="a_node29"><a xlink:href="class_omni_o_g_l_1_1_scene.html#a21aacd47c7ee99fea90d5eea7234c525" target="_top" xlink:title="A getter which returns a signed long integer representing the total number of objects in the Scene...">
<polygon fill="white" stroke="black" points="84,-191.5 84,-210.5 240,-210.5 240,-191.5 84,-191.5"/>
<text text-anchor="middle" x="162" y="-198.5" font-family="Helvetica,sans-Serif" font-size="10.00">OmniOGL::Scene::GetObjCount</text>
</a>
</g>
</g>
<!-- Node1&#45;&gt;Node29 -->
<g id="edge43" class="edge"><title>Node1&#45;&gt;Node29</title>
<path fill="none" stroke="midnightblue" d="M23.1435,-381.132C24.1312,-351.814 31.2274,-264.509 80,-220 81.6904,-218.457 83.4818,-217.033 85.3553,-215.718"/>
<polygon fill="midnightblue" stroke="midnightblue" points="87.1813,-218.705 94.0362,-210.626 83.6397,-212.667 87.1813,-218.705"/>
</g>
<!-- Node30 -->
<g id="node30" class="node"><title>Node30</title>
<g id="a_node30"><a xlink:href="class_omni_o_g_l_1_1_scene.html#a23b48d935feea1cdef80b8da8196a9df" target="_top" xlink:title="A getter which retrieves a boolean value representing whether or not the Camera&#39;s position or orienta...">
<polygon fill="white" stroke="black" points="82,-153.5 82,-172.5 242,-172.5 242,-153.5 82,-153.5"/>
<text text-anchor="middle" x="162" y="-160.5" font-family="Helvetica,sans-Serif" font-size="10.00">OmniOGL::Scene::CameraQuery</text>
</a>
</g>
</g>
<!-- Node1&#45;&gt;Node30 -->
<g id="edge44" class="edge"><title>Node1&#45;&gt;Node30</title>
<path fill="none" stroke="midnightblue" d="M22.4579,-381.418C21.1509,-348.417 21.536,-238.405 80,-182 81.4813,-180.571 83.0486,-179.242 84.6879,-178.007"/>
<polygon fill="midnightblue" stroke="midnightblue" points="86.7742,-180.831 93.4177,-172.578 83.0775,-174.887 86.7742,-180.831"/>
</g>
<!-- Node31 -->
<g id="node31" class="node"><title>Node31</title>
<g id="a_node31"><a xlink:href="class_omni_o_g_l_1_1_scene.html#a79a1f16120bf2a3861530956bacc9a03" target="_top" xlink:title="A getter which returns an unsigned integer representing the index of the Section that the player/came...">
<polygon fill="white" stroke="black" points="83.5,-104 83.5,-134 240.5,-134 240.5,-104 83.5,-104"/>
<text text-anchor="start" x="91.5" y="-122" font-family="Helvetica,sans-Serif" font-size="10.00">OmniOGL::Scene::GetOccupied</text>
<text text-anchor="middle" x="162" y="-111" font-family="Helvetica,sans-Serif" font-size="10.00">SectionIndex</text>
</a>
</g>
</g>
<!-- Node1&#45;&gt;Node31 -->
<g id="edge45" class="edge"><title>Node1&#45;&gt;Node31</title>
<path fill="none" stroke="midnightblue" d="M23.96,-381.26C28.2159,-339.969 46.6587,-179.853 80,-144 81.2402,-142.666 82.5499,-141.403 83.9192,-140.207"/>
<polygon fill="midnightblue" stroke="midnightblue" points="86.331,-142.78 92.3487,-134.06 82.2066,-137.124 86.331,-142.78"/>
</g>
<!-- Node32 -->
<g id="node32" class="node"><title>Node32</title>
<g id="a_node32"><a xlink:href="class_omni_o_g_l_1_1_scene.html#ad5369cbf93989073466f9b03d8dd8233" target="_top" xlink:title="A getter which retrieves a boolean value representing whether or not bump mapping is enabled...">
<polygon fill="white" stroke="black" points="84,-65.5 84,-84.5 240,-84.5 240,-65.5 84,-65.5"/>
<text text-anchor="middle" x="162" y="-72.5" font-family="Helvetica,sans-Serif" font-size="10.00">OmniOGL::Scene::BumpMapEn</text>
</a>
</g>
</g>
<!-- Node1&#45;&gt;Node32 -->
<g id="edge46" class="edge"><title>Node1&#45;&gt;Node32</title>
<path fill="none" stroke="midnightblue" d="M23.4721,-381.483C25.9467,-335.5 38.9123,-136.799 80,-94 81.2379,-92.7106 82.5454,-91.5014 83.9128,-90.3677"/>
<polygon fill="midnightblue" stroke="midnightblue" points="86.0144,-93.1717 92.3335,-84.6676 82.0904,-87.3749 86.0144,-93.1717"/>
</g>
<!-- Node33 -->
<g id="node33" class="node"><title>Node33</title>
<g id="a_node33"><a xlink:href="class_omni_o_g_l_1_1_scene.html#ac65b18faabaa3d2af9a0a4b2f2fc0fe0" target="_top" xlink:title="The core of the rendering loop! This method iterates through all possible containers of objects&#45;to&#45;be...">
<polygon fill="white" stroke="black" points="101,-27.5 101,-46.5 223,-46.5 223,-27.5 101,-27.5"/>
<text text-anchor="middle" x="162" y="-34.5" font-family="Helvetica,sans-Serif" font-size="10.00">OmniOGL::Scene::Draw</text>
</a>
</g>
</g>
<!-- Node1&#45;&gt;Node33 -->
<g id="edge47" class="edge"><title>Node1&#45;&gt;Node33</title>
<path fill="none" stroke="midnightblue" d="M23.2531,-381.287C24.7513,-331.449 34.0382,-104.897 80,-56 83.4068,-52.3756 87.3629,-49.3825 91.6587,-46.9164"/>
<polygon fill="midnightblue" stroke="midnightblue" points="93.337,-49.9946 100.887,-42.5613 90.3493,-43.6642 93.337,-49.9946"/>
</g>
<!-- Node3 -->
<g id="node3" class="node"><title>Node3</title>
<g id="a_node3"><a xlink:href="class_omni_o_g_l_1_1_ren_obj.html#a1aecddc73fe617ebc806ada1872ba851" target="_top" xlink:title="A static method which takes the path to a picture file as a parameter, uses the SOIL library to load ...">
<polygon fill="white" stroke="black" points="284.5,-851.5 284.5,-870.5 445.5,-870.5 445.5,-851.5 284.5,-851.5"/>
<text text-anchor="middle" x="365" y="-858.5" font-family="Helvetica,sans-Serif" font-size="10.00">OmniOGL::RenObj::MakeTexture</text>
</a>
</g>
</g>
<!-- Node2&#45;&gt;Node3 -->
<g id="edge2" class="edge"><title>Node2&#45;&gt;Node3</title>
<path fill="none" stroke="midnightblue" d="M176.791,-777.718C198.065,-792.336 240.563,-820.067 280,-837 290.35,-841.444 301.764,-845.329 312.754,-848.606"/>
<polygon fill="midnightblue" stroke="midnightblue" points="312.108,-852.062 322.685,-851.443 314.031,-845.331 312.108,-852.062"/>
</g>
<!-- Node3&#45;&gt;Node4 -->
<g id="edge3" class="edge"><title>Node3&#45;&gt;Node4</title>
<path fill="none" stroke="midnightblue" d="M409.192,-851.459C463.115,-839.26 558,-816.846 638,-793 666.188,-784.598 697.628,-773.591 720.963,-765.097"/>
<polygon fill="midnightblue" stroke="midnightblue" points="722.25,-768.353 730.434,-761.626 719.841,-761.781 722.25,-768.353"/>
</g>
<!-- Node6 -->
<g id="node6" class="node"><title>Node6</title>
<g id="a_node6"><a xlink:href="class_omni_o_g_l_1_1_section.html#a20b4cf2c6472d59e9967aa8dbad377a4" target="_top" xlink:title="Adds an object to the Section&#39;s collection (linked list) of objects. This method also increments Sect...">
<polygon fill="white" stroke="black" points="486.5,-376.5 486.5,-395.5 637.5,-395.5 637.5,-376.5 486.5,-376.5"/>
<text text-anchor="middle" x="562" y="-383.5" font-family="Helvetica,sans-Serif" font-size="10.00">OmniOGL::Section::AddObject</text>
</a>
</g>
</g>
<!-- Node5&#45;&gt;Node6 -->
<g id="edge5" class="edge"><title>Node5&#45;&gt;Node6</title>
<path fill="none" stroke="midnightblue" d="M438.057,-392.935C450.47,-392.235 463.475,-391.501 476.187,-390.784"/>
<polygon fill="midnightblue" stroke="midnightblue" points="476.515,-394.271 486.302,-390.214 476.12,-387.283 476.515,-394.271"/>
</g>
<!-- Node9&#45;&gt;Node3 -->
<g id="edge9" class="edge"><title>Node9&#45;&gt;Node3</title>
<path fill="none" stroke="midnightblue" d="M244.175,-850.269C254.144,-851.162 264.377,-852.079 274.461,-852.982"/>
<polygon fill="midnightblue" stroke="midnightblue" points="274.208,-856.473 284.481,-853.879 274.833,-849.501 274.208,-856.473"/>
</g>
<!-- Node11 -->
<g id="node11" class="node"><title>Node11</title>
<g id="a_node11"><a xlink:href="namespace_omni_o_g_l.html#abe5ff24d55002e6ebffb4415d994260a" target="_top" xlink:title="Sets the pointer to the value &#45;1.">
<polygon fill="white" stroke="black" points="520,-671.5 520,-690.5 604,-690.5 604,-671.5 520,-671.5"/>
<text text-anchor="middle" x="562" y="-678.5" font-family="Helvetica,sans-Serif" font-size="10.00">OmniOGL::_Init</text>
</a>
</g>
</g>
<!-- Node10&#45;&gt;Node11 -->
<g id="edge11" class="edge"><title>Node10&#45;&gt;Node11</title>
<path fill="none" stroke="midnightblue" d="M218.121,-597.207C276.779,-596.765 371.729,-600.284 450,-623 482.705,-632.492 516.941,-652.08 538.592,-665.857"/>
<polygon fill="midnightblue" stroke="midnightblue" points="536.767,-668.845 547.059,-671.359 540.581,-662.975 536.767,-668.845"/>
</g>
<!-- Node12 -->
<g id="node12" class="node"><title>Node12</title>
<g id="a_node12"><a xlink:href="namespace_omni_o_g_l.html#a80cd48382ee4083e78ba3431e570b82c" target="_top" xlink:title="A wrapper around the new[] keyword. Allocates the desired number of elements to the given pointer...">
<polygon fill="white" stroke="black" points="517,-764.5 517,-783.5 607,-783.5 607,-764.5 517,-764.5"/>
<text text-anchor="middle" x="562" y="-771.5" font-family="Helvetica,sans-Serif" font-size="10.00">OmniOGL::_New</text>
</a>
</g>
</g>
<!-- Node10&#45;&gt;Node12 -->
<g id="edge12" class="edge"><title>Node10&#45;&gt;Node12</title>
<path fill="none" stroke="midnightblue" d="M171.174,-614.198C196.194,-660.591 270.616,-797.564 280,-803 345.379,-840.872 375.74,-816.931 450,-803 466.873,-799.835 469.521,-793.813 486,-789 492.594,-787.074 499.586,-785.314 506.546,-783.732"/>
<polygon fill="midnightblue" stroke="midnightblue" points="507.636,-787.077 516.669,-781.541 506.155,-780.235 507.636,-787.077"/>
</g>
<!-- Node13 -->
<g id="node13" class="node"><title>Node13</title>
<g id="a_node13"><a xlink:href="class_omni_o_g_l_1_1_voxel.html#accf5059505b7def3ab49bdccb4f4b60e" target="_top" xlink:title="This method directly sets the density values at all eight corners of the voxel, determines the result...">
<polygon fill="white" stroke="black" points="289,-464 289,-494 441,-494 441,-464 289,-464"/>
<text text-anchor="start" x="297" y="-482" font-family="Helvetica,sans-Serif" font-size="10.00">OmniOGL::Voxel::SetMarching</text>
<text text-anchor="middle" x="365" y="-471" font-family="Helvetica,sans-Serif" font-size="10.00">CubesParameters</text>
</a>
</g>
</g>
<!-- Node10&#45;&gt;Node13 -->
<g id="edge14" class="edge"><title>Node10&#45;&gt;Node13</title>
<path fill="none" stroke="midnightblue" d="M218.037,-584.397C227.309,-580.374 236.383,-575.319 244,-569 267.934,-549.144 255.95,-528.716 280,-509 284.873,-505.005 290.318,-501.523 296.032,-498.49"/>
<polygon fill="midnightblue" stroke="midnightblue" points="297.692,-501.576 305.186,-494.087 294.657,-495.267 297.692,-501.576"/>
</g>
<!-- Node18 -->
<g id="node18" class="node"><title>Node18</title>
<g id="a_node18"><a xlink:href="namespace_omni_o_g_l.html#ab790cf1cdc8d2bcbdbbe06c6d87f1a1d" target="_top" xlink:title="A wrapper for the delete[] keyword. Always uses delete[], and never delete.">
<polygon fill="white" stroke="black" points="512.5,-720.5 512.5,-739.5 611.5,-739.5 611.5,-720.5 512.5,-720.5"/>
<text text-anchor="middle" x="562" y="-727.5" font-family="Helvetica,sans-Serif" font-size="10.00">OmniOGL::_Delete</text>
</a>
</g>
</g>
<!-- Node10&#45;&gt;Node18 -->
<g id="edge19" class="edge"><title>Node10&#45;&gt;Node18</title>
<path fill="none" stroke="midnightblue" d="M218.044,-610.349C237.602,-614.366 259.779,-618.904 280,-623 355.518,-638.297 383.738,-617.677 450,-657 471.434,-669.72 465.818,-685.373 486,-700 495.485,-706.874 506.766,-712.457 517.66,-716.858"/>
<polygon fill="midnightblue" stroke="midnightblue" points="516.488,-720.157 527.079,-720.425 518.967,-713.61 516.488,-720.157"/>
</g>
<!-- Node10&#45;&gt;Node4 -->
<g id="edge21" class="edge"><title>Node10&#45;&gt;Node4</title>
<path fill="none" stroke="midnightblue" d="M203.852,-583.975C290.012,-554.968 494.229,-500.542 638,-577 701.015,-610.512 736.449,-694.332 749.793,-732.509"/>
<polygon fill="midnightblue" stroke="midnightblue" points="746.608,-734.018 753.104,-742.388 753.245,-731.794 746.608,-734.018"/>
</g>
<!-- Node19 -->
<g id="node19" class="node"><title>Node19</title>
<g id="a_node19"><a xlink:href="class_omni_o_g_l_1_1_surface_net.html#aba0fe5219d99ab0549427800179449a6" target="_top" xlink:title="Iterates through all NetNodes in this SurfaceNet and adjusts them according to the position of each o...">
<polygon fill="white" stroke="black" points="505,-587 505,-617 619,-617 619,-587 505,-587"/>
<text text-anchor="start" x="513" y="-605" font-family="Helvetica,sans-Serif" font-size="10.00">OmniOGL::SurfaceNet</text>
<text text-anchor="middle" x="562" y="-594" font-family="Helvetica,sans-Serif" font-size="10.00">::RelaxNodes</text>
</a>
</g>
</g>
<!-- Node10&#45;&gt;Node19 -->
<g id="edge22" class="edge"><title>Node10&#45;&gt;Node19</title>
<path fill="none" stroke="midnightblue" d="M218.229,-591.022C237.705,-588.572 259.783,-586.205 280,-585 355.422,-580.504 374.662,-579.264 450,-585 464.531,-586.106 480.04,-588.016 494.717,-590.165"/>
<polygon fill="midnightblue" stroke="midnightblue" points="494.31,-593.644 504.722,-591.685 495.361,-586.723 494.31,-593.644"/>
</g>
<!-- Node20 -->
<g id="node20" class="node"><title>Node20</title>
<g id="a_node20"><a xlink:href="class_omni_o_g_l_1_1_surface_net.html#a08b1fdde1f08c89572ff8ffdc9058673" target="_top" xlink:title="Retrieves all of the vertices that are represented by the SurfaceNet (and its NetNodes) in proper ord...">
<polygon fill="white" stroke="black" points="308,-715 308,-745 422,-745 422,-715 308,-715"/>
<text text-anchor="start" x="316" y="-733" font-family="Helvetica,sans-Serif" font-size="10.00">OmniOGL::SurfaceNet</text>
<text text-anchor="middle" x="365" y="-722" font-family="Helvetica,sans-Serif" font-size="10.00">::GetVertices</text>
</a>
</g>
</g>
<!-- Node10&#45;&gt;Node20 -->
<g id="edge24" class="edge"><title>Node10&#45;&gt;Node20</title>
<path fill="none" stroke="midnightblue" d="M175.78,-614.317C195.733,-637.278 236.529,-680.53 280,-705 285.791,-708.259 292.05,-711.134 298.45,-713.661"/>
<polygon fill="midnightblue" stroke="midnightblue" points="297.295,-716.965 307.889,-717.118 299.702,-710.392 297.295,-716.965"/>
</g>
<!-- Node21 -->
<g id="node21" class="node"><title>Node21</title>
<g id="a_node21"><a xlink:href="class_omni_o_g_l_1_1_block_array.html#a1471e864380cd8c1e667a9bb79c4348c" target="_top" xlink:title="This method takes various critical parameters and populates its class members with their data...">
<polygon fill="white" stroke="black" points="308,-666 308,-696 422,-696 422,-666 308,-666"/>
<text text-anchor="start" x="316" y="-684" font-family="Helvetica,sans-Serif" font-size="10.00">OmniOGL::BlockArray</text>
<text text-anchor="middle" x="365" y="-673" font-family="Helvetica,sans-Serif" font-size="10.00">::UpdateVertices</text>
</a>
</g>
</g>
<!-- Node10&#45;&gt;Node21 -->
<g id="edge25" class="edge"><title>Node10&#45;&gt;Node21</title>
<path fill="none" stroke="midnightblue" d="M195.002,-614.004C218.363,-624.764 250.901,-639.356 280,-651 289.697,-654.88 300.115,-658.798 310.201,-662.464"/>
<polygon fill="midnightblue" stroke="midnightblue" points="309.14,-665.802 319.734,-665.893 311.509,-659.215 309.14,-665.802"/>
</g>
<!-- Node10&#45;&gt;Node7 -->
<g id="edge29" class="edge"><title>Node10&#45;&gt;Node7</title>
<path fill="none" stroke="midnightblue" d="M218.111,-586.372C227.704,-582.139 236.874,-576.502 244,-569 280.886,-530.17 240.628,-490.307 280,-454 281.525,-452.594 283.132,-451.284 284.806,-450.064"/>
<polygon fill="midnightblue" stroke="midnightblue" points="286.943,-452.862 293.686,-444.69 283.318,-446.874 286.943,-452.862"/>
</g>
<!-- Node12&#45;&gt;Node4 -->
<g id="edge13" class="edge"><title>Node12&#45;&gt;Node4</title>
<path fill="none" stroke="midnightblue" d="M607.278,-768.953C635.352,-765.753 671.864,-761.591 701.684,-758.191"/>
<polygon fill="midnightblue" stroke="midnightblue" points="702.389,-761.634 711.928,-757.024 701.596,-754.679 702.389,-761.634"/>
</g>
<!-- Node14 -->
<g id="node14" class="node"><title>Node14</title>
<g id="a_node14"><a xlink:href="class_omni_o_g_l_1_1_surface_net.html#af5a54cbc22614787f6c7fff05382e15f" target="_top" xlink:title="This method takes three floats as parameters which represent a point in 3D space which is added to th...">
<polygon fill="white" stroke="black" points="505,-464 505,-494 619,-494 619,-464 505,-464"/>
<text text-anchor="start" x="513" y="-482" font-family="Helvetica,sans-Serif" font-size="10.00">OmniOGL::SurfaceNet</text>
<text text-anchor="middle" x="562" y="-471" font-family="Helvetica,sans-Serif" font-size="10.00">::AddNode</text>
</a>
</g>
</g>
<!-- Node13&#45;&gt;Node14 -->
<g id="edge15" class="edge"><title>Node13&#45;&gt;Node14</title>
<path fill="none" stroke="midnightblue" d="M441.113,-479C458.616,-479 477.137,-479 494.25,-479"/>
<polygon fill="midnightblue" stroke="midnightblue" points="494.702,-482.5 504.702,-479 494.702,-475.5 494.702,-482.5"/>
</g>
<!-- Node15 -->
<g id="node15" class="node"><title>Node15</title>
<g id="a_node15"><a xlink:href="class_omni_o_g_l_1_1_surface_net.html#ae5c27214a80e2852b3db3ff1c9b2ab7e" target="_top" xlink:title="This method adds any number of neighbors to a NetNode at the specified index. All indices passed to t...">
<polygon fill="white" stroke="black" points="505,-415 505,-445 619,-445 619,-415 505,-415"/>
<text text-anchor="start" x="513" y="-433" font-family="Helvetica,sans-Serif" font-size="10.00">OmniOGL::SurfaceNet</text>
<text text-anchor="middle" x="562" y="-422" font-family="Helvetica,sans-Serif" font-size="10.00">::AddNeighbors</text>
</a>
</g>
</g>
<!-- Node13&#45;&gt;Node15 -->
<g id="edge16" class="edge"><title>Node13&#45;&gt;Node15</title>
<path fill="none" stroke="midnightblue" d="M425.832,-463.965C447.774,-458.452 472.725,-452.182 495.165,-446.543"/>
<polygon fill="midnightblue" stroke="midnightblue" points="496.099,-449.917 504.945,-444.086 494.393,-443.128 496.099,-449.917"/>
</g>
<!-- Node16 -->
<g id="node16" class="node"><title>Node16</title>
<g id="a_node16"><a xlink:href="class_omni_o_g_l_1_1_net_node.html#a8c7516402f5ac053c6723e512bb7e97e" target="_top" xlink:title="This method should be invoked two times for each triangle that the vertex represented by this NetNode...">
<polygon fill="white" stroke="black" points="674.5,-420.5 674.5,-439.5 839.5,-439.5 839.5,-420.5 674.5,-420.5"/>
<text text-anchor="middle" x="757" y="-427.5" font-family="Helvetica,sans-Serif" font-size="10.00">OmniOGL::NetNode::AddNeighbor</text>
</a>
</g>
</g>
<!-- Node15&#45;&gt;Node16 -->
<g id="edge17" class="edge"><title>Node15&#45;&gt;Node16</title>
<path fill="none" stroke="midnightblue" d="M619.083,-430C633.234,-430 648.801,-430 664.207,-430"/>
<polygon fill="midnightblue" stroke="midnightblue" points="664.291,-433.5 674.291,-430 664.291,-426.5 664.291,-433.5"/>
</g>
<!-- Node17 -->
<g id="node17" class="node"><title>Node17</title>
<g id="a_node17"><a xlink:href="class_omni_o_g_l_1_1_net_node.html#a16bade900879b7301129e0b202fb231c" target="_top" xlink:title="A method which returns a scalar distance between the original vertex represented by this NetNode and ...">
<polygon fill="white" stroke="black" points="876,-420.5 876,-439.5 1040,-439.5 1040,-420.5 876,-420.5"/>
<text text-anchor="middle" x="958" y="-427.5" font-family="Helvetica,sans-Serif" font-size="10.00">OmniOGL::NetNode::GetDistance</text>
</a>
</g>
</g>
<!-- Node16&#45;&gt;Node17 -->
<g id="edge18" class="edge"><title>Node16&#45;&gt;Node17</title>
<path fill="none" stroke="midnightblue" d="M839.515,-430C848.156,-430 856.984,-430 865.726,-430"/>
<polygon fill="midnightblue" stroke="midnightblue" points="865.934,-433.5 875.934,-430 865.933,-426.5 865.934,-433.5"/>
</g>
<!-- Node18&#45;&gt;Node4 -->
<g id="edge20" class="edge"><title>Node18&#45;&gt;Node4</title>
<path fill="none" stroke="midnightblue" d="M611.702,-735.552C639.152,-738.681 673.505,-742.596 701.805,-745.822"/>
<polygon fill="midnightblue" stroke="midnightblue" points="701.602,-749.322 711.934,-746.977 702.394,-742.367 701.602,-749.322"/>
</g>
<!-- Node19&#45;&gt;Node4 -->
<g id="edge23" class="edge"><title>Node19&#45;&gt;Node4</title>
<path fill="none" stroke="midnightblue" d="M582.568,-617.208C619.298,-645.755 698.224,-707.096 735.589,-736.137"/>
<polygon fill="midnightblue" stroke="midnightblue" points="733.688,-739.092 743.731,-742.465 737.983,-733.565 733.688,-739.092"/>
</g>
<!-- Node21&#45;&gt;Node12 -->
<g id="edge26" class="edge"><title>Node21&#45;&gt;Node12</title>
<path fill="none" stroke="midnightblue" d="M422.262,-692.756C431.961,-696.15 441.608,-700.484 450,-706 470.828,-719.691 465.397,-734.973 486,-749 493.094,-753.83 501.198,-757.792 509.394,-761.022"/>
<polygon fill="midnightblue" stroke="midnightblue" points="508.409,-764.388 519.003,-764.486 510.782,-757.802 508.409,-764.388"/>
</g>
<!-- Node21&#45;&gt;Node11 -->
<g id="edge27" class="edge"><title>Node21&#45;&gt;Node11</title>
<path fill="none" stroke="midnightblue" d="M422.14,-681C449.654,-681 482.562,-681 509.435,-681"/>
<polygon fill="midnightblue" stroke="midnightblue" points="509.791,-684.5 519.791,-681 509.791,-677.5 509.791,-684.5"/>
</g>
<!-- Node21&#45;&gt;Node18 -->
<g id="edge28" class="edge"><title>Node21&#45;&gt;Node18</title>
<path fill="none" stroke="midnightblue" d="M422.14,-695.107C451,-702.359 485.794,-711.102 513.334,-718.022"/>
<polygon fill="midnightblue" stroke="midnightblue" points="512.576,-721.441 523.127,-720.483 514.282,-714.652 512.576,-721.441"/>
</g>
<!-- Node25&#45;&gt;Node7 -->
<g id="edge34" class="edge"><title>Node25&#45;&gt;Node7</title>
<path fill="none" stroke="midnightblue" d="M210.664,-507.488C222.101,-503.985 233.914,-499.277 244,-493 264.027,-480.536 259.575,-465.801 280,-454 283.892,-451.751 288.028,-449.769 292.298,-448.021"/>
<polygon fill="midnightblue" stroke="midnightblue" points="293.615,-451.266 301.814,-444.557 291.22,-444.689 293.615,-451.266"/>
</g>
<!-- Node25&#45;&gt;Node5 -->
<g id="edge35" class="edge"><title>Node25&#45;&gt;Node5</title>
<path fill="none" stroke="midnightblue" d="M218.501,-507.399C227.726,-503.97 236.664,-499.315 244,-493 272.631,-468.353 250.576,-439.694 280,-416 282.089,-414.318 284.297,-412.778 286.599,-411.369"/>
<polygon fill="midnightblue" stroke="midnightblue" points="288.61,-414.269 295.877,-406.558 285.388,-408.054 288.61,-414.269"/>
</g>
<!-- Node28&#45;&gt;Node11 -->
<g id="edge40" class="edge"><title>Node28&#45;&gt;Node11</title>
<path fill="none" stroke="midnightblue" d="M423.584,-766.775C432.835,-763.453 441.99,-759.265 450,-754 470.828,-740.309 465.818,-725.627 486,-711 495.485,-704.126 506.766,-698.543 517.66,-694.142"/>
<polygon fill="midnightblue" stroke="midnightblue" points="518.967,-697.39 527.079,-690.575 516.488,-690.843 518.967,-697.39"/>
</g>
<!-- Node28&#45;&gt;Node12 -->
<g id="edge41" class="edge"><title>Node28&#45;&gt;Node12</title>
<path fill="none" stroke="midnightblue" d="M423.715,-777.52C449.988,-776.846 480.914,-776.053 506.756,-775.391"/>
<polygon fill="midnightblue" stroke="midnightblue" points="506.848,-778.89 516.755,-775.134 506.668,-771.892 506.848,-778.89"/>
</g>
<!-- Node28&#45;&gt;Node18 -->
<g id="edge42" class="edge"><title>Node28&#45;&gt;Node18</title>
<path fill="none" stroke="midnightblue" d="M423.715,-764.497C452.196,-757.34 486.144,-748.81 513.156,-742.022"/>
<polygon fill="midnightblue" stroke="midnightblue" points="514.297,-745.344 523.143,-739.513 512.591,-738.555 514.297,-745.344"/>
</g>
<!-- Node34 -->
<g id="node34" class="node"><title>Node34</title>
<g id="a_node34"><a xlink:href="class_omni_o_g_l_1_1_camera.html#a711885effb33e3a5de6b3b724af34f62" target="_top" xlink:title="A comprehensive method which checks to see if camera movement or camera orientation change is pending...">
<polygon fill="white" stroke="black" points="296.5,-5.5 296.5,-24.5 433.5,-24.5 433.5,-5.5 296.5,-5.5"/>
<text text-anchor="middle" x="365" y="-12.5" font-family="Helvetica,sans-Serif" font-size="10.00">OmniOGL::Camera::Update</text>
</a>
</g>
</g>
<!-- Node33&#45;&gt;Node34 -->
<g id="edge48" class="edge"><title>Node33&#45;&gt;Node34</title>
<path fill="none" stroke="midnightblue" d="M223.034,-30.4291C242.817,-28.2638 265.112,-25.8236 286.033,-23.5337"/>
<polygon fill="midnightblue" stroke="midnightblue" points="286.616,-26.9909 296.176,-22.4236 285.854,-20.0325 286.616,-26.9909"/>
</g>
<!-- Node37 -->
<g id="node37" class="node"><title>Node37</title>
<g id="a_node37"><a xlink:href="class_omni_o_g_l_1_1_scene.html#a7ad1d09b92c04fb221415d8c861e1f48" target="_top" xlink:title="A private method which updates the list of indices which represent all Sections which are in close pr...">
<polygon fill="white" stroke="black" points="280.5,-44 280.5,-74 449.5,-74 449.5,-44 280.5,-44"/>
<text text-anchor="start" x="288.5" y="-62" font-family="Helvetica,sans-Serif" font-size="10.00">OmniOGL::Scene::UpdateAdjacent</text>
<text text-anchor="middle" x="365" y="-51" font-family="Helvetica,sans-Serif" font-size="10.00">SectionsArray</text>
</a>
</g>
</g>
<!-- Node33&#45;&gt;Node37 -->
<g id="edge51" class="edge"><title>Node33&#45;&gt;Node37</title>
<path fill="none" stroke="midnightblue" d="M223.034,-43.5709C237.979,-45.2066 254.356,-46.9992 270.492,-48.7653"/>
<polygon fill="midnightblue" stroke="midnightblue" points="270.171,-52.251 280.493,-49.8599 270.933,-45.2926 270.171,-52.251"/>
</g>
<!-- Node35 -->
<g id="node35" class="node"><title>Node35</title>
<g id="a_node35"><a xlink:href="class_omni_o_g_l_1_1_camera.html#a698009762978100380046bf41abd45ea" target="_top" xlink:title="This method rotates a 3D vector (represented by a three element float array) around another 3D vector...">
<polygon fill="white" stroke="black" points="501.5,-0 501.5,-30 622.5,-30 622.5,-0 501.5,-0"/>
<text text-anchor="start" x="509.5" y="-18" font-family="Helvetica,sans-Serif" font-size="10.00">OmniOGL::Camera::raw</text>
<text text-anchor="middle" x="562" y="-7" font-family="Helvetica,sans-Serif" font-size="10.00">_rotate</text>
</a>
</g>
</g>
<!-- Node34&#45;&gt;Node35 -->
<g id="edge49" class="edge"><title>Node34&#45;&gt;Node35</title>
<path fill="none" stroke="midnightblue" d="M433.654,-15C452.217,-15 472.377,-15 491.065,-15"/>
<polygon fill="midnightblue" stroke="midnightblue" points="491.276,-18.5001 501.276,-15 491.276,-11.5001 491.276,-18.5001"/>
</g>
<!-- Node36 -->
<g id="node36" class="node"><title>Node36</title>
<g id="a_node36"><a xlink:href="class_omni_o_g_l_1_1_section.html#a048b806e5f535ddbf0dbca0b5111e65a" target="_top" xlink:title="A method used to either set or retrieve the unique ID/index of the Section. This method will always r...">
<polygon fill="white" stroke="black" points="492,-49.5 492,-68.5 632,-68.5 632,-49.5 492,-49.5"/>
<text text-anchor="middle" x="562" y="-56.5" font-family="Helvetica,sans-Serif" font-size="10.00">OmniOGL::Section::QueryID</text>
</a>
</g>
</g>
<!-- Node34&#45;&gt;Node36 -->
<g id="edge50" class="edge"><title>Node34&#45;&gt;Node36</title>
<path fill="none" stroke="midnightblue" d="M408.312,-24.5473C437.826,-31.2069 477.4,-40.1363 508.863,-47.2358"/>
<polygon fill="midnightblue" stroke="midnightblue" points="508.245,-50.6843 518.77,-49.4713 509.786,-43.856 508.245,-50.6843"/>
</g>
<!-- Node37&#45;&gt;Node36 -->
<g id="edge52" class="edge"><title>Node37&#45;&gt;Node36</title>
<path fill="none" stroke="midnightblue" d="M449.546,-59C460.2,-59 471.081,-59 481.665,-59"/>
<polygon fill="midnightblue" stroke="midnightblue" points="481.706,-62.5001 491.706,-59 481.705,-55.5001 481.706,-62.5001"/>
</g>
</g>
</svg>
