<?xml version="1.0" encoding="UTF-8" standalone="no"?>
<!DOCTYPE svg PUBLIC "-//W3C//DTD SVG 1.1//EN"
 "http://www.w3.org/Graphics/SVG/1.1/DTD/svg11.dtd">
<!-- Generated by graphviz version 2.30.1 (20130214.1330)
 -->
<!-- Title: D:/space/c++/OmniOGL/OmniOGL/OGLInterface.h Pages: 1 -->
<!--zoomable 448 -->
<svg id="main" version="1.1" xmlns="http://www.w3.org/2000/svg" xmlns:xlink="http://www.w3.org/1999/xlink" xml:space="preserve" onload="init(evt)">
        <defs>
                <circle id="rim" cx="0" cy="0" r="7"/>
                <circle id="rim2" cx="0" cy="0" r="3.5"/>
                <g id="zoomPlus">
                        <use xlink:href="#rim" fill="#404040">
                                <set attributeName="fill" to="#808080" begin="zoomplus.mouseover" end="zoomplus.mouseout"/>
                        </use>
                        <path d="M-4,0h8M0,-4v8" fill="none" stroke="white" stroke-width="1.5" pointer-events="none"/>
                </g>
                <g id="zoomMin">
                        <use xlink:href="#rim" fill="#404040">
                                <set attributeName="fill" to="#808080" begin="zoomminus.mouseover" end="zoomminus.mouseout"/>
                        </use>
                        <path d="M-4,0h8" fill="none" stroke="white" stroke-width="1.5" pointer-events="none"/>
                </g>
                <g id="dirArrow">
                        <path fill="none" stroke="white" stroke-width="1.5" d="M0,-3.0v7 M-2.5,-0.5L0,-3.0L2.5,-0.5"/>
                </g>
               <g id="resetDef">
                       <use xlink:href="#rim2" fill="#404040">
                               <set attributeName="fill" to="#808080" begin="reset.mouseover" end="reset.mouseout"/>
                       </use>
               </g>
        </defs>

<script type="text/javascript">
var viewWidth = 599;
var viewHeight = 448;
var sectionId = 'dynsection-1';
</script>
<script xlink:href="svgpan.js"/>
<svg id="graph" class="graph">
<g id="viewport">
<title>D:/space/c++/OmniOGL/OmniOGL/OGLInterface.h</title>
<polygon fill="white" stroke="white" points="-4,5 -4,-444 596,-444 596,5 -4,5"/>
<!-- Node1 -->
<g id="node1" class="node"><title>Node1</title>
<polygon fill="#bfbfbf" stroke="black" points="372.5,-409 372.5,-439 503.5,-439 503.5,-409 372.5,-409"/>
<text text-anchor="start" x="380.5" y="-427" font-family="Helvetica,sans-Serif" font-size="10.00">D:/space/c++/OmniOGL</text>
<text text-anchor="middle" x="438" y="-416" font-family="Helvetica,sans-Serif" font-size="10.00">/OmniOGL/OGLInterface.h</text>
</g>
<!-- Node2 -->
<g id="node2" class="node"><title>Node2</title>
<g id="a_node2"><a xlink:href="_render_properties_8h.html" target="_top" xlink:title="D:/space/c++/OmniOGL\l/OmniOGL/RenderProperties.h">
<polygon fill="white" stroke="black" points="281.5,-341 281.5,-371 430.5,-371 430.5,-341 281.5,-341"/>
<text text-anchor="start" x="289.5" y="-359" font-family="Helvetica,sans-Serif" font-size="10.00">D:/space/c++/OmniOGL</text>
<text text-anchor="middle" x="356" y="-348" font-family="Helvetica,sans-Serif" font-size="10.00">/OmniOGL/RenderProperties.h</text>
</a>
</g>
</g>
<!-- Node1&#45;&gt;Node2 -->
<g id="edge1" class="edge"><title>Node1&#45;&gt;Node2</title>
<path fill="none" stroke="midnightblue" d="M412.294,-402.309C399.662,-392.143 384.77,-380.156 373.476,-371.066"/>
<polygon fill="midnightblue" stroke="midnightblue" points="410.223,-405.135 420.207,-408.679 414.612,-399.682 410.223,-405.135"/>
</g>
<!-- Node14 -->
<g id="node14" class="node"><title>Node14</title>
<g id="a_node14"><a xlink:href="_o_g_l_interface_8cpp.html" target="_top" xlink:title="D:/space/c++/OmniOGL\l/OmniOGL/OGLInterface.cpp">
<polygon fill="white" stroke="black" points="449,-341 449,-371 591,-371 591,-341 449,-341"/>
<text text-anchor="start" x="457" y="-359" font-family="Helvetica,sans-Serif" font-size="10.00">D:/space/c++/OmniOGL</text>
<text text-anchor="middle" x="520" y="-348" font-family="Helvetica,sans-Serif" font-size="10.00">/OmniOGL/OGLInterface.cpp</text>
</a>
</g>
</g>
<!-- Node1&#45;&gt;Node14 -->
<g id="edge13" class="edge"><title>Node1&#45;&gt;Node14</title>
<path fill="none" stroke="midnightblue" d="M463.706,-402.309C476.338,-392.143 491.23,-380.156 502.524,-371.066"/>
<polygon fill="midnightblue" stroke="midnightblue" points="461.388,-399.682 455.793,-408.679 465.777,-405.135 461.388,-399.682"/>
</g>
<!-- Node3 -->
<g id="node3" class="node"><title>Node3</title>
<g id="a_node3"><a xlink:href="_ren_obj_8h.html" target="_top" xlink:title="D:/space/c++/OmniOGL\l/OmniOGL/RenObj.h">
<polygon fill="white" stroke="black" points="216,-273 216,-303 338,-303 338,-273 216,-273"/>
<text text-anchor="start" x="224" y="-291" font-family="Helvetica,sans-Serif" font-size="10.00">D:/space/c++/OmniOGL</text>
<text text-anchor="middle" x="277" y="-280" font-family="Helvetica,sans-Serif" font-size="10.00">/OmniOGL/RenObj.h</text>
</a>
</g>
</g>
<!-- Node2&#45;&gt;Node3 -->
<g id="edge2" class="edge"><title>Node2&#45;&gt;Node3</title>
<path fill="none" stroke="midnightblue" d="M330.886,-334.018C318.792,-323.915 304.614,-312.07 293.837,-303.066"/>
<polygon fill="midnightblue" stroke="midnightblue" points="328.94,-336.954 338.858,-340.679 333.428,-331.582 328.94,-336.954"/>
</g>
<!-- Node13 -->
<g id="node13" class="node"><title>Node13</title>
<g id="a_node13"><a xlink:href="_render_properties_8cpp.html" target="_top" xlink:title="D:/space/c++/OmniOGL\l/OmniOGL/RenderProperties.cpp">
<polygon fill="white" stroke="black" points="356,-273 356,-303 516,-303 516,-273 356,-273"/>
<text text-anchor="start" x="364" y="-291" font-family="Helvetica,sans-Serif" font-size="10.00">D:/space/c++/OmniOGL</text>
<text text-anchor="middle" x="436" y="-280" font-family="Helvetica,sans-Serif" font-size="10.00">/OmniOGL/RenderProperties.cpp</text>
</a>
</g>
</g>
<!-- Node2&#45;&gt;Node13 -->
<g id="edge12" class="edge"><title>Node2&#45;&gt;Node13</title>
<path fill="none" stroke="midnightblue" d="M381.08,-334.309C393.403,-324.143 407.932,-312.156 418.95,-303.066"/>
<polygon fill="midnightblue" stroke="midnightblue" points="378.845,-331.615 373.359,-340.679 383.3,-337.015 378.845,-331.615"/>
</g>
<!-- Node4 -->
<g id="node4" class="node"><title>Node4</title>
<g id="a_node4"><a xlink:href="_scene_8h.html" target="_top" xlink:title="D:/space/c++/OmniOGL\l/OmniOGL/Scene.h">
<polygon fill="white" stroke="black" points="146,-205 146,-235 268,-235 268,-205 146,-205"/>
<text text-anchor="start" x="154" y="-223" font-family="Helvetica,sans-Serif" font-size="10.00">D:/space/c++/OmniOGL</text>
<text text-anchor="middle" x="207" y="-212" font-family="Helvetica,sans-Serif" font-size="10.00">/OmniOGL/Scene.h</text>
</a>
</g>
</g>
<!-- Node3&#45;&gt;Node4 -->
<g id="edge3" class="edge"><title>Node3&#45;&gt;Node4</title>
<path fill="none" stroke="midnightblue" d="M254.49,-265.776C243.92,-255.81 231.601,-244.196 222.159,-235.293"/>
<polygon fill="midnightblue" stroke="midnightblue" points="252.134,-268.365 261.811,-272.679 256.936,-263.272 252.134,-268.365"/>
</g>
<!-- Node12 -->
<g id="node12" class="node"><title>Node12</title>
<g id="a_node12"><a xlink:href="_ren_obj_8cpp.html" target="_top" xlink:title="D:/space/c++/OmniOGL\l/OmniOGL/RenObj.cpp">
<polygon fill="white" stroke="black" points="286,-205 286,-235 408,-235 408,-205 286,-205"/>
<text text-anchor="start" x="294" y="-223" font-family="Helvetica,sans-Serif" font-size="10.00">D:/space/c++/OmniOGL</text>
<text text-anchor="middle" x="347" y="-212" font-family="Helvetica,sans-Serif" font-size="10.00">/OmniOGL/RenObj.cpp</text>
</a>
</g>
</g>
<!-- Node3&#45;&gt;Node12 -->
<g id="edge11" class="edge"><title>Node3&#45;&gt;Node12</title>
<path fill="none" stroke="midnightblue" d="M299.51,-265.776C310.08,-255.81 322.399,-244.196 331.841,-235.293"/>
<polygon fill="midnightblue" stroke="midnightblue" points="297.064,-263.272 292.189,-272.679 301.866,-268.365 297.064,-263.272"/>
</g>
<!-- Node5 -->
<g id="node5" class="node"><title>Node5</title>
<g id="a_node5"><a xlink:href="_blocks_8h.html" target="_top" xlink:title="D:/space/c++/OmniOGL\l/OmniOGL/Blocks.h">
<polygon fill="white" stroke="black" points="76,-137 76,-167 198,-167 198,-137 76,-137"/>
<text text-anchor="start" x="84" y="-155" font-family="Helvetica,sans-Serif" font-size="10.00">D:/space/c++/OmniOGL</text>
<text text-anchor="middle" x="137" y="-144" font-family="Helvetica,sans-Serif" font-size="10.00">/OmniOGL/Blocks.h</text>
</a>
</g>
</g>
<!-- Node4&#45;&gt;Node5 -->
<g id="edge4" class="edge"><title>Node4&#45;&gt;Node5</title>
<path fill="none" stroke="midnightblue" d="M184.49,-197.776C173.92,-187.81 161.601,-176.196 152.159,-167.293"/>
<polygon fill="midnightblue" stroke="midnightblue" points="182.134,-200.365 191.811,-204.679 186.936,-195.272 182.134,-200.365"/>
</g>
<!-- Node11 -->
<g id="node11" class="node"><title>Node11</title>
<g id="a_node11"><a xlink:href="_scene_8cpp.html" target="_top" xlink:title="D:/space/c++/OmniOGL\l/OmniOGL/Scene.cpp">
<polygon fill="white" stroke="black" points="216,-137 216,-167 338,-167 338,-137 216,-137"/>
<text text-anchor="start" x="224" y="-155" font-family="Helvetica,sans-Serif" font-size="10.00">D:/space/c++/OmniOGL</text>
<text text-anchor="middle" x="277" y="-144" font-family="Helvetica,sans-Serif" font-size="10.00">/OmniOGL/Scene.cpp</text>
</a>
</g>
</g>
<!-- Node4&#45;&gt;Node11 -->
<g id="edge10" class="edge"><title>Node4&#45;&gt;Node11</title>
<path fill="none" stroke="midnightblue" d="M229.51,-197.776C240.08,-187.81 252.399,-176.196 261.841,-167.293"/>
<polygon fill="midnightblue" stroke="midnightblue" points="227.064,-195.272 222.189,-204.679 231.866,-200.365 227.064,-195.272"/>
</g>
<!-- Node6 -->
<g id="node6" class="node"><title>Node6</title>
<g id="a_node6"><a xlink:href="_blocks_8cpp.html" target="_top" xlink:title="D:/space/c++/OmniOGL\l/OmniOGL/Blocks.cpp">
<polygon fill="white" stroke="black" points="5,-69 5,-99 127,-99 127,-69 5,-69"/>
<text text-anchor="start" x="13" y="-87" font-family="Helvetica,sans-Serif" font-size="10.00">D:/space/c++/OmniOGL</text>
<text text-anchor="middle" x="66" y="-76" font-family="Helvetica,sans-Serif" font-size="10.00">/OmniOGL/Blocks.cpp</text>
</a>
</g>
</g>
<!-- Node5&#45;&gt;Node6 -->
<g id="edge5" class="edge"><title>Node5&#45;&gt;Node6</title>
<path fill="none" stroke="midnightblue" d="M114.168,-129.776C103.448,-119.81 90.9529,-108.196 81.3759,-99.2931"/>
<polygon fill="midnightblue" stroke="midnightblue" points="111.887,-132.434 121.594,-136.679 116.653,-127.307 111.887,-132.434"/>
</g>
<!-- Node7 -->
<g id="node7" class="node"><title>Node7</title>
<g id="a_node7"><a xlink:href="_o_g_l_engine_8h.html" target="_top" xlink:title="D:/space/c++/OmniOGL\l/OmniOGL/OGLEngine.h">
<polygon fill="white" stroke="black" points="145.5,-69 145.5,-99 270.5,-99 270.5,-69 145.5,-69"/>
<text text-anchor="start" x="153.5" y="-87" font-family="Helvetica,sans-Serif" font-size="10.00">D:/space/c++/OmniOGL</text>
<text text-anchor="middle" x="208" y="-76" font-family="Helvetica,sans-Serif" font-size="10.00">/OmniOGL/OGLEngine.h</text>
</a>
</g>
</g>
<!-- Node5&#45;&gt;Node7 -->
<g id="edge6" class="edge"><title>Node5&#45;&gt;Node7</title>
<path fill="none" stroke="midnightblue" d="M159.832,-129.776C170.552,-119.81 183.047,-108.196 192.624,-99.2931"/>
<polygon fill="midnightblue" stroke="midnightblue" points="157.347,-127.307 152.406,-136.679 162.113,-132.434 157.347,-127.307"/>
</g>
<!-- Node8 -->
<g id="node8" class="node"><title>Node8</title>
<g id="a_node8"><a xlink:href="_exec_8cpp.html" target="_top" xlink:title="D:/space/c++/OmniOGL\l/OmniOGL/Exec.cpp">
<polygon fill="white" stroke="black" points="0,-1 0,-31 122,-31 122,-1 0,-1"/>
<text text-anchor="start" x="8" y="-19" font-family="Helvetica,sans-Serif" font-size="10.00">D:/space/c++/OmniOGL</text>
<text text-anchor="middle" x="61" y="-8" font-family="Helvetica,sans-Serif" font-size="10.00">/OmniOGL/Exec.cpp</text>
</a>
</g>
</g>
<!-- Node7&#45;&gt;Node8 -->
<g id="edge7" class="edge"><title>Node7&#45;&gt;Node8</title>
<path fill="none" stroke="midnightblue" d="M167.034,-64.6069C143.356,-53.976 114.034,-40.8112 92.2304,-31.0218"/>
<polygon fill="midnightblue" stroke="midnightblue" points="165.909,-67.9383 176.465,-68.8413 168.776,-61.5524 165.909,-67.9383"/>
</g>
<!-- Node9 -->
<g id="node9" class="node"><title>Node9</title>
<g id="a_node9"><a xlink:href="_o_g_l_engine_8cpp.html" target="_top" xlink:title="D:/space/c++/OmniOGL\l/OmniOGL/OGLEngine.cpp">
<polygon fill="white" stroke="black" points="140.5,-1 140.5,-31 275.5,-31 275.5,-1 140.5,-1"/>
<text text-anchor="start" x="148.5" y="-19" font-family="Helvetica,sans-Serif" font-size="10.00">D:/space/c++/OmniOGL</text>
<text text-anchor="middle" x="208" y="-8" font-family="Helvetica,sans-Serif" font-size="10.00">/OmniOGL/OGLEngine.cpp</text>
</a>
</g>
</g>
<!-- Node7&#45;&gt;Node9 -->
<g id="edge8" class="edge"><title>Node7&#45;&gt;Node9</title>
<path fill="none" stroke="midnightblue" d="M208,-58.5322C208,-49.3606 208,-39.2449 208,-31.2931"/>
<polygon fill="midnightblue" stroke="midnightblue" points="204.5,-58.6789 208,-68.679 211.5,-58.679 204.5,-58.6789"/>
</g>
<!-- Node10 -->
<g id="node10" class="node"><title>Node10</title>
<g id="a_node10"><a xlink:href="_small_o_g_l_8cpp.html" target="_top" xlink:title="D:/space/c++/OmniOGL\l/OmniOGL/SmallOGL.cpp">
<polygon fill="white" stroke="black" points="294,-1 294,-31 424,-31 424,-1 294,-1"/>
<text text-anchor="start" x="302" y="-19" font-family="Helvetica,sans-Serif" font-size="10.00">D:/space/c++/OmniOGL</text>
<text text-anchor="middle" x="359" y="-8" font-family="Helvetica,sans-Serif" font-size="10.00">/OmniOGL/SmallOGL.cpp</text>
</a>
</g>
</g>
<!-- Node7&#45;&gt;Node10 -->
<g id="edge9" class="edge"><title>Node7&#45;&gt;Node10</title>
<path fill="none" stroke="midnightblue" d="M249.757,-64.7485C274.136,-54.093 304.423,-40.8547 326.92,-31.0218"/>
<polygon fill="midnightblue" stroke="midnightblue" points="248.154,-61.6292 240.393,-68.8413 250.958,-68.0433 248.154,-61.6292"/>
</g>
</g>
</svg>
        <g id="navigator" transform="translate(0 0)" fill="#404254">
                <rect fill="#f2f5e9" fill-opacity="0.5" stroke="#606060" stroke-width=".5" x="0" y="0" width="60" height="60"/>
                <use id="zoomplus" xlink:href="#zoomPlus" x="17" y="9" onmousedown="handleZoom(evt,'in')"/>
                <use id="zoomminus" xlink:href="#zoomMin" x="42" y="9" onmousedown="handleZoom(evt,'out')"/>
                <use id="reset" xlink:href="#resetDef" x="30" y="36" onmousedown="handleReset()"/>
                <g id="arrowUp" xlink:href="#dirArrow" transform="translate(30 24)" onmousedown="handlePan(0,-1)">
                  <use xlink:href="#rim" fill="#404040">
                        <set attributeName="fill" to="#808080" begin="arrowUp.mouseover" end="arrowUp.mouseout"/>
                  </use>
                  <path fill="none" stroke="white" stroke-width="1.5" d="M0,-3.0v7 M-2.5,-0.5L0,-3.0L2.5,-0.5"/>
                </g>
                <g id="arrowRight" xlink:href="#dirArrow" transform="rotate(90) translate(36 -43)" onmousedown="handlePan(1,0)">
                  <use xlink:href="#rim" fill="#404040">
                        <set attributeName="fill" to="#808080" begin="arrowRight.mouseover" end="arrowRight.mouseout"/>
                  </use>
                  <path fill="none" stroke="white" stroke-width="1.5" d="M0,-3.0v7 M-2.5,-0.5L0,-3.0L2.5,-0.5"/>
                </g>
                <g id="arrowDown" xlink:href="#dirArrow" transform="rotate(180) translate(-30 -48)" onmousedown="handlePan(0,1)">
                  <use xlink:href="#rim" fill="#404040">
                        <set attributeName="fill" to="#808080" begin="arrowDown.mouseover" end="arrowDown.mouseout"/>
                  </use>
                  <path fill="none" stroke="white" stroke-width="1.5" d="M0,-3.0v7 M-2.5,-0.5L0,-3.0L2.5,-0.5"/>
                </g>
                <g id="arrowLeft" xlink:href="#dirArrow" transform="rotate(270) translate(-36 17)" onmousedown="handlePan(-1,0)">
                  <use xlink:href="#rim" fill="#404040">
                        <set attributeName="fill" to="#808080" begin="arrowLeft.mouseover" end="arrowLeft.mouseout"/>
                  </use>
                  <path fill="none" stroke="white" stroke-width="1.5" d="M0,-3.0v7 M-2.5,-0.5L0,-3.0L2.5,-0.5"/>
                </g>
        </g>
        <svg viewBox="0 0 15 15" width="100%" height="30px" preserveAspectRatio="xMaxYMin meet">
         <g id="arrow_out" transform="scale(0.3 0.3)">
          <a xlink:href="_o_g_l_interface_8h__dep__incl_org.svg" target="_base">
           <rect id="button" ry="5" rx="5" y="6" x="6" height="38" width="38"
                fill="#f2f5e9" fill-opacity="0.5" stroke="#606060" stroke-width="1.0"/>
           <path id="arrow"
             d="M 11.500037,31.436501 C 11.940474,20.09759 22.043105,11.32322 32.158766,21.979434 L 37.068811,17.246167 C 37.068811,17.246167 37.088388,32 37.088388,32 L 22.160133,31.978069 C 22.160133,31.978069 26.997745,27.140456 26.997745,27.140456 C 18.528582,18.264221 13.291696,25.230495 11.500037,31.436501 z"
             style="fill:#404040;"/>
          </a>
         </g>
        </svg>
</svg>
