<?xml version="1.0" encoding="UTF-8" standalone="no"?>
<!DOCTYPE svg PUBLIC "-//W3C//DTD SVG 1.1//EN"
 "http://www.w3.org/Graphics/SVG/1.1/DTD/svg11.dtd">
<!-- Generated by graphviz version 2.30.1 (20130214.1330)
 -->
<!-- Title: D:/space/c++/OmniOGL/OmniOGL/Scene.h Pages: 1 -->
<svg width="1572pt" height="320pt"
 viewBox="0.00 0.00 1572.00 320.00" xmlns="http://www.w3.org/2000/svg" xmlns:xlink="http://www.w3.org/1999/xlink">
<g id="graph0" class="graph" transform="scale(1 1) rotate(0) translate(4 316)">
<title>D:/space/c++/OmniOGL/OmniOGL/Scene.h</title>
<polygon fill="white" stroke="white" points="-4,5 -4,-316 1569,-316 1569,5 -4,5"/>
<!-- Node1 -->
<g id="node1" class="node"><title>Node1</title>
<polygon fill="#bfbfbf" stroke="black" points="544,-281 544,-311 666,-311 666,-281 544,-281"/>
<text text-anchor="start" x="552" y="-299" font-family="Helvetica,sans-Serif" font-size="10.00">D:/space/c++/OmniOGL</text>
<text text-anchor="middle" x="605" y="-288" font-family="Helvetica,sans-Serif" font-size="10.00">/OmniOGL/Scene.h</text>
</g>
<!-- Node2 -->
<g id="node2" class="node"><title>Node2</title>
<g id="a_node2"><a xlink:href="_ren_obj_8h.html" target="_top" xlink:title="RenObj.h">
<polygon fill="white" stroke="black" points="576.5,-224.5 576.5,-243.5 633.5,-243.5 633.5,-224.5 576.5,-224.5"/>
<text text-anchor="middle" x="605" y="-231.5" font-family="Helvetica,sans-Serif" font-size="10.00">RenObj.h</text>
</a>
</g>
</g>
<!-- Node1&#45;&gt;Node2 -->
<g id="edge1" class="edge"><title>Node1&#45;&gt;Node2</title>
<path fill="none" stroke="midnightblue" d="M605,-280.781C605,-272.781 605,-262.689 605,-254.017"/>
<polygon fill="midnightblue" stroke="midnightblue" points="608.5,-253.73 605,-243.731 601.5,-253.731 608.5,-253.73"/>
</g>
<!-- Node3 -->
<g id="node3" class="node"><title>Node3</title>
<g id="a_node3"><a xlink:href="_render_properties_8h.html" target="_top" xlink:title="RenderProperties.h">
<polygon fill="white" stroke="black" points="555,-168.5 555,-187.5 655,-187.5 655,-168.5 555,-168.5"/>
<text text-anchor="middle" x="605" y="-175.5" font-family="Helvetica,sans-Serif" font-size="10.00">RenderProperties.h</text>
</a>
</g>
</g>
<!-- Node2&#45;&gt;Node3 -->
<g id="edge2" class="edge"><title>Node2&#45;&gt;Node3</title>
<path fill="none" stroke="midnightblue" d="M605,-224.083C605,-217.006 605,-206.861 605,-197.986"/>
<polygon fill="midnightblue" stroke="midnightblue" points="608.5,-197.751 605,-187.751 601.5,-197.751 608.5,-197.751"/>
</g>
<!-- Node4 -->
<g id="node4" class="node"><title>Node4</title>
<g id="a_node4"><a xlink:href="_o_g_l_interface_8h.html" target="_top" xlink:title="OGLInterface.h">
<polygon fill="white" stroke="black" points="564,-112.5 564,-131.5 646,-131.5 646,-112.5 564,-112.5"/>
<text text-anchor="middle" x="605" y="-119.5" font-family="Helvetica,sans-Serif" font-size="10.00">OGLInterface.h</text>
</a>
</g>
</g>
<!-- Node3&#45;&gt;Node4 -->
<g id="edge3" class="edge"><title>Node3&#45;&gt;Node4</title>
<path fill="none" stroke="midnightblue" d="M605,-168.083C605,-161.006 605,-150.861 605,-141.986"/>
<polygon fill="midnightblue" stroke="midnightblue" points="608.5,-141.751 605,-131.751 601.5,-141.751 608.5,-141.751"/>
</g>
<!-- Node5 -->
<g id="node5" class="node"><title>Node5</title>
<g id="a_node5"><a xlink:href="_engine_includes_8h.html" target="_top" xlink:title="EngineIncludes.h">
<polygon fill="white" stroke="black" points="559.5,-56.5 559.5,-75.5 650.5,-75.5 650.5,-56.5 559.5,-56.5"/>
<text text-anchor="middle" x="605" y="-63.5" font-family="Helvetica,sans-Serif" font-size="10.00">EngineIncludes.h</text>
</a>
</g>
</g>
<!-- Node4&#45;&gt;Node5 -->
<g id="edge4" class="edge"><title>Node4&#45;&gt;Node5</title>
<path fill="none" stroke="midnightblue" d="M605,-112.083C605,-105.006 605,-94.8611 605,-85.9865"/>
<polygon fill="midnightblue" stroke="midnightblue" points="608.5,-85.751 605,-75.7511 601.5,-85.7511 608.5,-85.751"/>
</g>
<!-- Node6 -->
<g id="node6" class="node"><title>Node6</title>
<polygon fill="white" stroke="#bfbfbf" points="-0.5,-0.5 -0.5,-19.5 48.5,-19.5 48.5,-0.5 -0.5,-0.5"/>
<text text-anchor="middle" x="24" y="-7.5" font-family="Helvetica,sans-Serif" font-size="10.00">fstream</text>
</g>
<!-- Node5&#45;&gt;Node6 -->
<g id="edge5" class="edge"><title>Node5&#45;&gt;Node6</title>
<path fill="none" stroke="midnightblue" d="M559.17,-64.0837C466.221,-61.6126 248.868,-52.7196 58.6517,-20.0056"/>
<polygon fill="midnightblue" stroke="midnightblue" points="59.2083,-16.5499 48.7553,-18.2775 58.0041,-23.4455 59.2083,-16.5499"/>
</g>
<!-- Node7 -->
<g id="node7" class="node"><title>Node7</title>
<polygon fill="white" stroke="#bfbfbf" points="66.5,-0.5 66.5,-19.5 95.5,-19.5 95.5,-0.5 66.5,-0.5"/>
<text text-anchor="middle" x="81" y="-7.5" font-family="Helvetica,sans-Serif" font-size="10.00">list</text>
</g>
<!-- Node5&#45;&gt;Node7 -->
<g id="edge6" class="edge"><title>Node5&#45;&gt;Node7</title>
<path fill="none" stroke="midnightblue" d="M559.407,-65.1895C472.239,-64.6341 276.137,-58.9577 105.789,-19.8479"/>
<polygon fill="midnightblue" stroke="midnightblue" points="106.433,-16.4041 95.8986,-17.5322 104.837,-23.2198 106.433,-16.4041"/>
</g>
<!-- Node8 -->
<g id="node8" class="node"><title>Node8</title>
<polygon fill="white" stroke="#bfbfbf" points="113.5,-0.5 113.5,-19.5 148.5,-19.5 148.5,-0.5 113.5,-0.5"/>
<text text-anchor="middle" x="131" y="-7.5" font-family="Helvetica,sans-Serif" font-size="10.00">map</text>
</g>
<!-- Node5&#45;&gt;Node8 -->
<g id="edge7" class="edge"><title>Node5&#45;&gt;Node8</title>
<path fill="none" stroke="midnightblue" d="M559.439,-63.7357C479.766,-60.8074 310.021,-51.3788 158.515,-19.6015"/>
<polygon fill="midnightblue" stroke="midnightblue" points="159.074,-16.1419 148.563,-17.4759 157.612,-22.9875 159.074,-16.1419"/>
</g>
<!-- Node9 -->
<g id="node9" class="node"><title>Node9</title>
<polygon fill="white" stroke="#bfbfbf" points="167,-0.5 167,-19.5 219,-19.5 219,-0.5 167,-0.5"/>
<text text-anchor="middle" x="193" y="-7.5" font-family="Helvetica,sans-Serif" font-size="10.00">memory</text>
</g>
<!-- Node5&#45;&gt;Node9 -->
<g id="edge8" class="edge"><title>Node5&#45;&gt;Node9</title>
<path fill="none" stroke="midnightblue" d="M559.439,-61.5293C490.142,-55.8208 353.986,-42.9218 229.385,-20.0405"/>
<polygon fill="midnightblue" stroke="midnightblue" points="229.761,-16.5504 219.289,-18.1595 228.479,-23.432 229.761,-16.5504"/>
</g>
<!-- Node10 -->
<g id="node10" class="node"><title>Node10</title>
<polygon fill="white" stroke="#bfbfbf" points="237,-0.5 237,-19.5 289,-19.5 289,-0.5 237,-0.5"/>
<text text-anchor="middle" x="263" y="-7.5" font-family="Helvetica,sans-Serif" font-size="10.00">sstream</text>
</g>
<!-- Node5&#45;&gt;Node10 -->
<g id="edge9" class="edge"><title>Node5&#45;&gt;Node10</title>
<path fill="none" stroke="midnightblue" d="M559.485,-59.8609C501.315,-52.9552 397.347,-39.4807 299.375,-20.1007"/>
<polygon fill="midnightblue" stroke="midnightblue" points="299.797,-16.6157 289.304,-18.0831 298.422,-23.4793 299.797,-16.6157"/>
</g>
<!-- Node11 -->
<g id="node11" class="node"><title>Node11</title>
<polygon fill="white" stroke="#bfbfbf" points="307.5,-0.5 307.5,-19.5 348.5,-19.5 348.5,-0.5 307.5,-0.5"/>
<text text-anchor="middle" x="328" y="-7.5" font-family="Helvetica,sans-Serif" font-size="10.00">string</text>
</g>
<!-- Node5&#45;&gt;Node11 -->
<g id="edge10" class="edge"><title>Node5&#45;&gt;Node11</title>
<path fill="none" stroke="midnightblue" d="M559.158,-58.2133C511.37,-50.7904 434.163,-37.8219 358.299,-19.8362"/>
<polygon fill="midnightblue" stroke="midnightblue" points="359.116,-16.4328 348.575,-17.5009 357.481,-23.2393 359.116,-16.4328"/>
</g>
<!-- Node12 -->
<g id="node12" class="node"><title>Node12</title>
<polygon fill="white" stroke="#bfbfbf" points="367,-0.5 367,-19.5 411,-19.5 411,-0.5 367,-0.5"/>
<text text-anchor="middle" x="389" y="-7.5" font-family="Helvetica,sans-Serif" font-size="10.00">time.h</text>
</g>
<!-- Node5&#45;&gt;Node12 -->
<g id="edge11" class="edge"><title>Node5&#45;&gt;Node12</title>
<path fill="none" stroke="midnightblue" d="M567.672,-56.4284C532.268,-48.1859 477.36,-35.1123 421.094,-20.2105"/>
<polygon fill="midnightblue" stroke="midnightblue" points="421.882,-16.7986 411.318,-17.6065 420.08,-23.5627 421.882,-16.7986"/>
</g>
<!-- Node13 -->
<g id="node13" class="node"><title>Node13</title>
<polygon fill="white" stroke="#bfbfbf" points="429,-0.5 429,-19.5 471,-19.5 471,-0.5 429,-0.5"/>
<text text-anchor="middle" x="450" y="-7.5" font-family="Helvetica,sans-Serif" font-size="10.00">vector</text>
</g>
<!-- Node5&#45;&gt;Node13 -->
<g id="edge12" class="edge"><title>Node5&#45;&gt;Node13</title>
<path fill="none" stroke="midnightblue" d="M580.44,-56.4435C553.561,-47.0794 510.409,-32.0456 481.165,-21.8574"/>
<polygon fill="midnightblue" stroke="midnightblue" points="482.045,-18.4578 471.45,-18.473 479.742,-25.0682 482.045,-18.4578"/>
</g>
<!-- Node14 -->
<g id="node14" class="node"><title>Node14</title>
<polygon fill="white" stroke="#bfbfbf" points="489,-0.5 489,-19.5 551,-19.5 551,-0.5 489,-0.5"/>
<text text-anchor="middle" x="520" y="-7.5" font-family="Helvetica,sans-Serif" font-size="10.00">windows.h</text>
</g>
<!-- Node5&#45;&gt;Node14 -->
<g id="edge13" class="edge"><title>Node5&#45;&gt;Node14</title>
<path fill="none" stroke="midnightblue" d="M591.343,-56.324C578.084,-47.9002 557.732,-34.9709 542.154,-25.0741"/>
<polygon fill="midnightblue" stroke="midnightblue" points="543.94,-22.0626 533.623,-19.6545 540.187,-27.9711 543.94,-22.0626"/>
</g>
<!-- Node15 -->
<g id="node15" class="node"><title>Node15</title>
<polygon fill="white" stroke="#bfbfbf" points="569.5,-0.5 569.5,-19.5 640.5,-19.5 640.5,-0.5 569.5,-0.5"/>
<text text-anchor="middle" x="605" y="-7.5" font-family="Helvetica,sans-Serif" font-size="10.00">FreeImage.h</text>
</g>
<!-- Node5&#45;&gt;Node15 -->
<g id="edge14" class="edge"><title>Node5&#45;&gt;Node15</title>
<path fill="none" stroke="midnightblue" d="M605,-56.083C605,-49.0059 605,-38.8611 605,-29.9865"/>
<polygon fill="midnightblue" stroke="midnightblue" points="608.5,-29.751 605,-19.7511 601.5,-29.7511 608.5,-29.751"/>
</g>
<!-- Node16 -->
<g id="node16" class="node"><title>Node16</title>
<polygon fill="white" stroke="#bfbfbf" points="659,-0.5 659,-19.5 719,-19.5 719,-0.5 659,-0.5"/>
<text text-anchor="middle" x="689" y="-7.5" font-family="Helvetica,sans-Serif" font-size="10.00">GL/glew.h</text>
</g>
<!-- Node5&#45;&gt;Node16 -->
<g id="edge15" class="edge"><title>Node5&#45;&gt;Node16</title>
<path fill="none" stroke="midnightblue" d="M618.496,-56.324C631.6,-47.9002 651.712,-34.9709 667.107,-25.0741"/>
<polygon fill="midnightblue" stroke="midnightblue" points="669.018,-28.0063 675.537,-19.6545 665.233,-22.118 669.018,-28.0063"/>
</g>
<!-- Node17 -->
<g id="node17" class="node"><title>Node17</title>
<polygon fill="white" stroke="#bfbfbf" points="737,-0.5 737,-19.5 807,-19.5 807,-0.5 737,-0.5"/>
<text text-anchor="middle" x="772" y="-7.5" font-family="Helvetica,sans-Serif" font-size="10.00">glm/glm.hpp</text>
</g>
<!-- Node5&#45;&gt;Node17 -->
<g id="edge16" class="edge"><title>Node5&#45;&gt;Node17</title>
<path fill="none" stroke="midnightblue" d="M631.462,-56.4435C659.678,-47.3196 704.54,-32.8133 735.968,-22.6509"/>
<polygon fill="midnightblue" stroke="midnightblue" points="737.224,-25.9234 745.662,-19.5164 735.07,-19.263 737.224,-25.9234"/>
</g>
<!-- Node18 -->
<g id="node18" class="node"><title>Node18</title>
<polygon fill="white" stroke="#bfbfbf" points="825.5,-0.5 825.5,-19.5 968.5,-19.5 968.5,-0.5 825.5,-0.5"/>
<text text-anchor="middle" x="897" y="-7.5" font-family="Helvetica,sans-Serif" font-size="10.00">glm/gtc/matrix_transform.hpp</text>
</g>
<!-- Node5&#45;&gt;Node18 -->
<g id="edge17" class="edge"><title>Node5&#45;&gt;Node18</title>
<path fill="none" stroke="midnightblue" d="M650.625,-56.5625C701.966,-47.068 785.402,-31.638 840.74,-21.4042"/>
<polygon fill="midnightblue" stroke="midnightblue" points="841.535,-24.8167 850.732,-19.5565 840.262,-17.9334 841.535,-24.8167"/>
</g>
<!-- Node19 -->
<g id="node19" class="node"><title>Node19</title>
<polygon fill="white" stroke="#bfbfbf" points="986.5,-0.5 986.5,-19.5 1089.5,-19.5 1089.5,-0.5 986.5,-0.5"/>
<text text-anchor="middle" x="1038" y="-7.5" font-family="Helvetica,sans-Serif" font-size="10.00">glm/gtc/random.hpp</text>
</g>
<!-- Node5&#45;&gt;Node19 -->
<g id="edge18" class="edge"><title>Node5&#45;&gt;Node19</title>
<path fill="none" stroke="midnightblue" d="M650.575,-59.8749C718.907,-52.1054 852.224,-36.6176 976.365,-20.0535"/>
<polygon fill="midnightblue" stroke="midnightblue" points="976.982,-23.5021 986.429,-18.7055 976.053,-16.5641 976.982,-23.5021"/>
</g>
<!-- Node20 -->
<g id="node20" class="node"><title>Node20</title>
<polygon fill="white" stroke="#bfbfbf" points="1108,-0.5 1108,-19.5 1214,-19.5 1214,-0.5 1108,-0.5"/>
<text text-anchor="middle" x="1161" y="-7.5" font-family="Helvetica,sans-Serif" font-size="10.00">glm/gtc/type_ptr.hpp</text>
</g>
<!-- Node5&#45;&gt;Node20 -->
<g id="edge19" class="edge"><title>Node5&#45;&gt;Node20</title>
<path fill="none" stroke="midnightblue" d="M650.619,-61.6159C736.062,-55.108 926.251,-39.8214 1097.78,-19.9631"/>
<polygon fill="midnightblue" stroke="midnightblue" points="1098.22,-23.4356 1107.75,-18.8015 1097.41,-16.4827 1098.22,-23.4356"/>
</g>
<!-- Node21 -->
<g id="node21" class="node"><title>Node21</title>
<polygon fill="white" stroke="#bfbfbf" points="1232.5,-0.5 1232.5,-19.5 1289.5,-19.5 1289.5,-0.5 1232.5,-0.5"/>
<text text-anchor="middle" x="1261" y="-7.5" font-family="Helvetica,sans-Serif" font-size="10.00">GL/glfw.h</text>
</g>
<!-- Node5&#45;&gt;Node21 -->
<g id="edge20" class="edge"><title>Node5&#45;&gt;Node21</title>
<path fill="none" stroke="midnightblue" d="M650.637,-64.1687C751.856,-61.7901 1002.86,-52.9421 1222.36,-19.82"/>
<polygon fill="midnightblue" stroke="midnightblue" points="1223.11,-23.2473 1232.46,-18.2755 1222.05,-16.3278 1223.11,-23.2473"/>
</g>
<!-- Node22 -->
<g id="node22" class="node"><title>Node22</title>
<polygon fill="white" stroke="#bfbfbf" points="1307.5,-0.5 1307.5,-19.5 1380.5,-19.5 1380.5,-0.5 1307.5,-0.5"/>
<text text-anchor="middle" x="1344" y="-7.5" font-family="Helvetica,sans-Serif" font-size="10.00">irK/irrKlang.h</text>
</g>
<!-- Node5&#45;&gt;Node22 -->
<g id="edge21" class="edge"><title>Node5&#45;&gt;Node22</title>
<path fill="none" stroke="midnightblue" d="M650.601,-64.0617C760.278,-61.3715 1047.58,-51.7501 1297.42,-19.8874"/>
<polygon fill="midnightblue" stroke="midnightblue" points="1297.94,-23.349 1307.41,-18.5984 1297.05,-16.4065 1297.94,-23.349"/>
</g>
<!-- Node23 -->
<g id="node23" class="node"><title>Node23</title>
<polygon fill="white" stroke="#bfbfbf" points="1398.5,-0.5 1398.5,-19.5 1475.5,-19.5 1475.5,-0.5 1398.5,-0.5"/>
<text text-anchor="middle" x="1437" y="-7.5" font-family="Helvetica,sans-Serif" font-size="10.00">irK/ik_vec3d.h</text>
</g>
<!-- Node5&#45;&gt;Node23 -->
<g id="edge22" class="edge"><title>Node5&#45;&gt;Node23</title>
<path fill="none" stroke="midnightblue" d="M650.694,-64.4184C770.205,-62.4615 1101.98,-54.2325 1388.13,-19.9289"/>
<polygon fill="midnightblue" stroke="midnightblue" points="1388.79,-23.3754 1398.29,-18.6976 1387.95,-16.4262 1388.79,-23.3754"/>
</g>
<!-- Node24 -->
<g id="node24" class="node"><title>Node24</title>
<polygon fill="white" stroke="#bfbfbf" points="1493.5,-0.5 1493.5,-19.5 1564.5,-19.5 1564.5,-0.5 1493.5,-0.5"/>
<text text-anchor="middle" x="1529" y="-7.5" font-family="Helvetica,sans-Serif" font-size="10.00">SOIL/SOIL.h</text>
</g>
<!-- Node5&#45;&gt;Node24 -->
<g id="edge23" class="edge"><title>Node5&#45;&gt;Node24</title>
<path fill="none" stroke="midnightblue" d="M650.961,-65.0095C780.428,-64.5337 1159.23,-59.6866 1483.17,-19.8956"/>
<polygon fill="midnightblue" stroke="midnightblue" points="1483.72,-23.3533 1493.22,-18.6476 1482.86,-16.4066 1483.72,-23.3533"/>
</g>
</g>
</svg>
