<?xml version="1.0" encoding="UTF-8" standalone="no"?>
<!DOCTYPE svg PUBLIC "-//W3C//DTD SVG 1.1//EN"
 "http://www.w3.org/Graphics/SVG/1.1/DTD/svg11.dtd">
<!-- Generated by graphviz version 2.30.1 (20130214.1330)
 -->
<!-- Title: D:/space/c++/OmniOGL/OmniOGL/Scene.h Pages: 1 -->
<svg width="432pt" height="244pt"
 viewBox="0.00 0.00 432.00 244.00" xmlns="http://www.w3.org/2000/svg" xmlns:xlink="http://www.w3.org/1999/xlink">
<g id="graph0" class="graph" transform="scale(1 1) rotate(0) translate(4 240)">
<title>D:/space/c++/OmniOGL/OmniOGL/Scene.h</title>
<polygon fill="white" stroke="white" points="-4,5 -4,-240 429,-240 429,5 -4,5"/>
<!-- Node1 -->
<g id="node1" class="node"><title>Node1</title>
<polygon fill="#bfbfbf" stroke="black" points="146,-205 146,-235 268,-235 268,-205 146,-205"/>
<text text-anchor="start" x="154" y="-223" font-family="Helvetica,sans-Serif" font-size="10.00">D:/space/c++/OmniOGL</text>
<text text-anchor="middle" x="207" y="-212" font-family="Helvetica,sans-Serif" font-size="10.00">/OmniOGL/Scene.h</text>
</g>
<!-- Node2 -->
<g id="node2" class="node"><title>Node2</title>
<g id="a_node2"><a xlink:href="_blocks_8h.html" target="_top" xlink:title="D:/space/c++/OmniOGL\l/OmniOGL/Blocks.h">
<polygon fill="white" stroke="black" points="76,-137 76,-167 198,-167 198,-137 76,-137"/>
<text text-anchor="start" x="84" y="-155" font-family="Helvetica,sans-Serif" font-size="10.00">D:/space/c++/OmniOGL</text>
<text text-anchor="middle" x="137" y="-144" font-family="Helvetica,sans-Serif" font-size="10.00">/OmniOGL/Blocks.h</text>
</a>
</g>
</g>
<!-- Node1&#45;&gt;Node2 -->
<g id="edge1" class="edge"><title>Node1&#45;&gt;Node2</title>
<path fill="none" stroke="midnightblue" d="M184.49,-197.776C173.92,-187.81 161.601,-176.196 152.159,-167.293"/>
<polygon fill="midnightblue" stroke="midnightblue" points="182.134,-200.365 191.811,-204.679 186.936,-195.272 182.134,-200.365"/>
</g>
<!-- Node8 -->
<g id="node8" class="node"><title>Node8</title>
<g id="a_node8"><a xlink:href="_scene_8cpp.html" target="_top" xlink:title="D:/space/c++/OmniOGL\l/OmniOGL/Scene.cpp">
<polygon fill="white" stroke="black" points="216,-137 216,-167 338,-167 338,-137 216,-137"/>
<text text-anchor="start" x="224" y="-155" font-family="Helvetica,sans-Serif" font-size="10.00">D:/space/c++/OmniOGL</text>
<text text-anchor="middle" x="277" y="-144" font-family="Helvetica,sans-Serif" font-size="10.00">/OmniOGL/Scene.cpp</text>
</a>
</g>
</g>
<!-- Node1&#45;&gt;Node8 -->
<g id="edge7" class="edge"><title>Node1&#45;&gt;Node8</title>
<path fill="none" stroke="midnightblue" d="M229.51,-197.776C240.08,-187.81 252.399,-176.196 261.841,-167.293"/>
<polygon fill="midnightblue" stroke="midnightblue" points="227.064,-195.272 222.189,-204.679 231.866,-200.365 227.064,-195.272"/>
</g>
<!-- Node3 -->
<g id="node3" class="node"><title>Node3</title>
<g id="a_node3"><a xlink:href="_blocks_8cpp.html" target="_top" xlink:title="D:/space/c++/OmniOGL\l/OmniOGL/Blocks.cpp">
<polygon fill="white" stroke="black" points="5,-69 5,-99 127,-99 127,-69 5,-69"/>
<text text-anchor="start" x="13" y="-87" font-family="Helvetica,sans-Serif" font-size="10.00">D:/space/c++/OmniOGL</text>
<text text-anchor="middle" x="66" y="-76" font-family="Helvetica,sans-Serif" font-size="10.00">/OmniOGL/Blocks.cpp</text>
</a>
</g>
</g>
<!-- Node2&#45;&gt;Node3 -->
<g id="edge2" class="edge"><title>Node2&#45;&gt;Node3</title>
<path fill="none" stroke="midnightblue" d="M114.168,-129.776C103.448,-119.81 90.9529,-108.196 81.3759,-99.2931"/>
<polygon fill="midnightblue" stroke="midnightblue" points="111.887,-132.434 121.594,-136.679 116.653,-127.307 111.887,-132.434"/>
</g>
<!-- Node4 -->
<g id="node4" class="node"><title>Node4</title>
<g id="a_node4"><a xlink:href="_o_g_l_engine_8h.html" target="_top" xlink:title="D:/space/c++/OmniOGL\l/OmniOGL/OGLEngine.h">
<polygon fill="white" stroke="black" points="145.5,-69 145.5,-99 270.5,-99 270.5,-69 145.5,-69"/>
<text text-anchor="start" x="153.5" y="-87" font-family="Helvetica,sans-Serif" font-size="10.00">D:/space/c++/OmniOGL</text>
<text text-anchor="middle" x="208" y="-76" font-family="Helvetica,sans-Serif" font-size="10.00">/OmniOGL/OGLEngine.h</text>
</a>
</g>
</g>
<!-- Node2&#45;&gt;Node4 -->
<g id="edge3" class="edge"><title>Node2&#45;&gt;Node4</title>
<path fill="none" stroke="midnightblue" d="M159.832,-129.776C170.552,-119.81 183.047,-108.196 192.624,-99.2931"/>
<polygon fill="midnightblue" stroke="midnightblue" points="157.347,-127.307 152.406,-136.679 162.113,-132.434 157.347,-127.307"/>
</g>
<!-- Node5 -->
<g id="node5" class="node"><title>Node5</title>
<g id="a_node5"><a xlink:href="_exec_8cpp.html" target="_top" xlink:title="D:/space/c++/OmniOGL\l/OmniOGL/Exec.cpp">
<polygon fill="white" stroke="black" points="0,-1 0,-31 122,-31 122,-1 0,-1"/>
<text text-anchor="start" x="8" y="-19" font-family="Helvetica,sans-Serif" font-size="10.00">D:/space/c++/OmniOGL</text>
<text text-anchor="middle" x="61" y="-8" font-family="Helvetica,sans-Serif" font-size="10.00">/OmniOGL/Exec.cpp</text>
</a>
</g>
</g>
<!-- Node4&#45;&gt;Node5 -->
<g id="edge4" class="edge"><title>Node4&#45;&gt;Node5</title>
<path fill="none" stroke="midnightblue" d="M167.034,-64.6069C143.356,-53.976 114.034,-40.8112 92.2304,-31.0218"/>
<polygon fill="midnightblue" stroke="midnightblue" points="165.909,-67.9383 176.465,-68.8413 168.776,-61.5524 165.909,-67.9383"/>
</g>
<!-- Node6 -->
<g id="node6" class="node"><title>Node6</title>
<g id="a_node6"><a xlink:href="_o_g_l_engine_8cpp.html" target="_top" xlink:title="D:/space/c++/OmniOGL\l/OmniOGL/OGLEngine.cpp">
<polygon fill="white" stroke="black" points="140.5,-1 140.5,-31 275.5,-31 275.5,-1 140.5,-1"/>
<text text-anchor="start" x="148.5" y="-19" font-family="Helvetica,sans-Serif" font-size="10.00">D:/space/c++/OmniOGL</text>
<text text-anchor="middle" x="208" y="-8" font-family="Helvetica,sans-Serif" font-size="10.00">/OmniOGL/OGLEngine.cpp</text>
</a>
</g>
</g>
<!-- Node4&#45;&gt;Node6 -->
<g id="edge5" class="edge"><title>Node4&#45;&gt;Node6</title>
<path fill="none" stroke="midnightblue" d="M208,-58.5322C208,-49.3606 208,-39.2449 208,-31.2931"/>
<polygon fill="midnightblue" stroke="midnightblue" points="204.5,-58.6789 208,-68.679 211.5,-58.679 204.5,-58.6789"/>
</g>
<!-- Node7 -->
<g id="node7" class="node"><title>Node7</title>
<g id="a_node7"><a xlink:href="_small_o_g_l_8cpp.html" target="_top" xlink:title="D:/space/c++/OmniOGL\l/OmniOGL/SmallOGL.cpp">
<polygon fill="white" stroke="black" points="294,-1 294,-31 424,-31 424,-1 294,-1"/>
<text text-anchor="start" x="302" y="-19" font-family="Helvetica,sans-Serif" font-size="10.00">D:/space/c++/OmniOGL</text>
<text text-anchor="middle" x="359" y="-8" font-family="Helvetica,sans-Serif" font-size="10.00">/OmniOGL/SmallOGL.cpp</text>
</a>
</g>
</g>
<!-- Node4&#45;&gt;Node7 -->
<g id="edge6" class="edge"><title>Node4&#45;&gt;Node7</title>
<path fill="none" stroke="midnightblue" d="M249.757,-64.7485C274.136,-54.093 304.423,-40.8547 326.92,-31.0218"/>
<polygon fill="midnightblue" stroke="midnightblue" points="248.154,-61.6292 240.393,-68.8413 250.958,-68.0433 248.154,-61.6292"/>
</g>
</g>
</svg>
