<?xml version="1.0" encoding="UTF-8" standalone="no"?>
<!DOCTYPE svg PUBLIC "-//W3C//DTD SVG 1.1//EN"
 "http://www.w3.org/Graphics/SVG/1.1/DTD/svg11.dtd">
<!-- Generated by graphviz version 2.30.1 (20130214.1330)
 -->
<!-- Title: OmniOGL::BlockArray::GetNormals Pages: 1 -->
<svg width="524pt" height="119pt"
 viewBox="0.00 0.00 524.00 118.82" xmlns="http://www.w3.org/2000/svg" xmlns:xlink="http://www.w3.org/1999/xlink">
<g id="graph0" class="graph" transform="scale(1 1) rotate(0) translate(4 114.82)">
<title>OmniOGL::BlockArray::GetNormals</title>
<polygon fill="white" stroke="white" points="-4,5 -4,-114.82 521,-114.82 521,5 -4,5"/>
<!-- Node1 -->
<g id="node1" class="node"><title>Node1</title>
<polygon fill="#bfbfbf" stroke="black" points="0,-1.81969 0,-31.8197 114,-31.8197 114,-1.81969 0,-1.81969"/>
<text text-anchor="start" x="8" y="-19.8197" font-family="Helvetica,sans-Serif" font-size="10.00">OmniOGL::BlockArray</text>
<text text-anchor="middle" x="57" y="-8.81969" font-family="Helvetica,sans-Serif" font-size="10.00">::GetNormals</text>
</g>
<!-- Node2 -->
<g id="node2" class="node"><title>Node2</title>
<g id="a_node2"><a xlink:href="class_omni_o_g_l_1_1_line_strip.html#af64b3e0837c49702b82c3b7a6c4288e4" target="_top" xlink:title="Adds a line segment to the class instance using absolute coordinates for a start and end point (i...">
<polygon fill="white" stroke="black" points="150,-31.8197 150,-61.8197 254,-61.8197 254,-31.8197 150,-31.8197"/>
<text text-anchor="start" x="158" y="-49.8197" font-family="Helvetica,sans-Serif" font-size="10.00">OmniOGL::LineStrip</text>
<text text-anchor="middle" x="202" y="-38.8197" font-family="Helvetica,sans-Serif" font-size="10.00">::AddInstance</text>
</a>
</g>
</g>
<!-- Node1&#45;&gt;Node2 -->
<g id="edge1" class="edge"><title>Node1&#45;&gt;Node2</title>
<path fill="none" stroke="midnightblue" d="M114.107,-28.5904C122.543,-30.3602 131.279,-32.1929 139.815,-33.9836"/>
<polygon fill="midnightblue" stroke="midnightblue" points="139.207,-37.4323 149.713,-36.0602 140.645,-30.5815 139.207,-37.4323"/>
</g>
<!-- Node5 -->
<g id="node5" class="node"><title>Node5</title>
<g id="a_node5"><a xlink:href="namespace_omni_o_g_l.html#a8f559408c62db097a1a918d7f58f4183" target="_top" xlink:title="A &quot;clone&quot; of the well&#45;known printf() function, with the debug routed to the OutputDebugString() funct...">
<polygon fill="white" stroke="black" points="426,-15.3197 426,-34.3197 516,-34.3197 516,-15.3197 426,-15.3197"/>
<text text-anchor="middle" x="471" y="-22.3197" font-family="Helvetica,sans-Serif" font-size="10.00">OmniOGL::dprint</text>
</a>
</g>
</g>
<!-- Node1&#45;&gt;Node5 -->
<g id="edge7" class="edge"><title>Node1&#45;&gt;Node5</title>
<path fill="none" stroke="midnightblue" d="M114.018,-9.88118C180.19,-2.85793 293.485,5.48426 390,-5.81969 402.406,-7.2727 415.677,-9.95212 427.773,-12.8498"/>
<polygon fill="midnightblue" stroke="midnightblue" points="427.062,-16.2797 437.612,-15.3131 428.762,-9.48923 427.062,-16.2797"/>
</g>
<!-- Node3 -->
<g id="node3" class="node"><title>Node3</title>
<g id="a_node3"><a xlink:href="namespace_omni_o_g_l.html#abe5ff24d55002e6ebffb4415d994260a" target="_top" xlink:title="Sets the pointer to the value &#45;1.">
<polygon fill="white" stroke="black" points="298,-91.3197 298,-110.32 382,-110.32 382,-91.3197 298,-91.3197"/>
<text text-anchor="middle" x="340" y="-98.3197" font-family="Helvetica,sans-Serif" font-size="10.00">OmniOGL::_Init</text>
</a>
</g>
</g>
<!-- Node2&#45;&gt;Node3 -->
<g id="edge2" class="edge"><title>Node2&#45;&gt;Node3</title>
<path fill="none" stroke="midnightblue" d="M240.215,-61.9108C255.607,-68.1213 273.647,-75.3599 290,-81.8197 294.809,-83.7194 299.89,-85.7091 304.888,-87.6559"/>
<polygon fill="midnightblue" stroke="midnightblue" points="303.711,-90.9537 314.3,-91.3118 306.246,-84.4286 303.711,-90.9537"/>
</g>
<!-- Node4 -->
<g id="node4" class="node"><title>Node4</title>
<g id="a_node4"><a xlink:href="namespace_omni_o_g_l.html#a80cd48382ee4083e78ba3431e570b82c" target="_top" xlink:title="A wrapper around the new[] keyword. Allocates the desired number of elements to the given pointer...">
<polygon fill="white" stroke="black" points="295,-53.3197 295,-72.3197 385,-72.3197 385,-53.3197 295,-53.3197"/>
<text text-anchor="middle" x="340" y="-60.3197" font-family="Helvetica,sans-Serif" font-size="10.00">OmniOGL::_New</text>
</a>
</g>
</g>
<!-- Node2&#45;&gt;Node4 -->
<g id="edge3" class="edge"><title>Node2&#45;&gt;Node4</title>
<path fill="none" stroke="midnightblue" d="M254.028,-52.823C264.09,-54.0068 274.682,-55.2529 284.844,-56.4483"/>
<polygon fill="midnightblue" stroke="midnightblue" points="284.485,-59.9302 294.826,-57.6227 285.303,-52.9782 284.485,-59.9302"/>
</g>
<!-- Node6 -->
<g id="node6" class="node"><title>Node6</title>
<g id="a_node6"><a xlink:href="namespace_omni_o_g_l.html#ab790cf1cdc8d2bcbdbbe06c6d87f1a1d" target="_top" xlink:title="A wrapper for the delete[] keyword. Always uses delete[], and never delete.">
<polygon fill="white" stroke="black" points="290.5,-15.3197 290.5,-34.3197 389.5,-34.3197 389.5,-15.3197 290.5,-15.3197"/>
<text text-anchor="middle" x="340" y="-22.3197" font-family="Helvetica,sans-Serif" font-size="10.00">OmniOGL::_Delete</text>
</a>
</g>
</g>
<!-- Node2&#45;&gt;Node6 -->
<g id="edge5" class="edge"><title>Node2&#45;&gt;Node6</title>
<path fill="none" stroke="midnightblue" d="M254.028,-38.5651C262.588,-37.1805 271.53,-35.7339 280.265,-34.3209"/>
<polygon fill="midnightblue" stroke="midnightblue" points="281.076,-37.7354 290.388,-32.6833 279.958,-30.8252 281.076,-37.7354"/>
</g>
<!-- Node4&#45;&gt;Node5 -->
<g id="edge4" class="edge"><title>Node4&#45;&gt;Node5</title>
<path fill="none" stroke="midnightblue" d="M373.552,-53.2307C389.899,-48.4153 409.909,-42.5208 427.457,-37.3517"/>
<polygon fill="midnightblue" stroke="midnightblue" points="428.855,-40.5888 437.458,-34.4056 426.877,-33.874 428.855,-40.5888"/>
</g>
<!-- Node6&#45;&gt;Node5 -->
<g id="edge6" class="edge"><title>Node6&#45;&gt;Node5</title>
<path fill="none" stroke="midnightblue" d="M389.769,-24.8197C398.19,-24.8197 406.991,-24.8197 415.55,-24.8197"/>
<polygon fill="midnightblue" stroke="midnightblue" points="415.828,-28.3198 425.828,-24.8197 415.828,-21.3198 415.828,-28.3198"/>
</g>
</g>
</svg>
