<?xml version="1.0" encoding="UTF-8" standalone="no"?>
<!DOCTYPE svg PUBLIC "-//W3C//DTD SVG 1.1//EN"
 "http://www.w3.org/Graphics/SVG/1.1/DTD/svg11.dtd">
<!-- Generated by graphviz version 2.30.1 (20130214.1330)
 -->
<!-- Title: OmniOGL::Section::QueryID Pages: 1 -->
<svg width="1034pt" height="111pt"
 viewBox="0.00 0.00 1034.00 111.00" xmlns="http://www.w3.org/2000/svg" xmlns:xlink="http://www.w3.org/1999/xlink">
<g id="graph0" class="graph" transform="scale(1 1) rotate(0) translate(4 107)">
<title>OmniOGL::Section::QueryID</title>
<polygon fill="white" stroke="white" points="-4,5 -4,-107 1031,-107 1031,5 -4,5"/>
<!-- Node1 -->
<g id="node1" class="node"><title>Node1</title>
<polygon fill="#bfbfbf" stroke="black" points="0,-44.5 0,-63.5 140,-63.5 140,-44.5 0,-44.5"/>
<text text-anchor="middle" x="70" y="-51.5" font-family="Helvetica,sans-Serif" font-size="10.00">OmniOGL::Section::QueryID</text>
</g>
<!-- Node2 -->
<g id="node2" class="node"><title>Node2</title>
<g id="a_node2"><a xlink:href="class_omni_o_g_l_1_1_section_collection.html#a8ce8d4ffbeab35bf911fb1b473cf73f2" target="_top" xlink:title="OmniOGL::SectionCollection\l::SectionCollection">
<polygon fill="white" stroke="black" points="366,-73 366,-103 508,-103 508,-73 366,-73"/>
<text text-anchor="start" x="374" y="-91" font-family="Helvetica,sans-Serif" font-size="10.00">OmniOGL::SectionCollection</text>
<text text-anchor="middle" x="437" y="-80" font-family="Helvetica,sans-Serif" font-size="10.00">::SectionCollection</text>
</a>
</g>
</g>
<!-- Node1&#45;&gt;Node2 -->
<g id="edge1" class="edge"><title>Node1&#45;&gt;Node2</title>
<path fill="none" stroke="midnightblue" d="M114.938,-65.9634C133.619,-70.5477 155.73,-75.3174 176,-78 239.926,-86.4601 313.403,-88.5945 365.903,-88.8274"/>
<polygon fill="midnightblue" stroke="midnightblue" points="115.78,-62.5663 105.229,-63.5228 114.074,-69.3551 115.78,-62.5663"/>
</g>
<!-- Node3 -->
<g id="node3" class="node"><title>Node3</title>
<g id="a_node3"><a xlink:href="class_omni_o_g_l_1_1_section_collection.html#a8eb741628a5957199c4c511be6e4f599" target="_top" xlink:title="OmniOGL::SectionCollection\l::UpdateCurrentSection">
<polygon fill="white" stroke="black" points="366,-14 366,-44 508,-44 508,-14 366,-14"/>
<text text-anchor="start" x="374" y="-32" font-family="Helvetica,sans-Serif" font-size="10.00">OmniOGL::SectionCollection</text>
<text text-anchor="middle" x="437" y="-21" font-family="Helvetica,sans-Serif" font-size="10.00">::UpdateCurrentSection</text>
</a>
</g>
</g>
<!-- Node1&#45;&gt;Node3 -->
<g id="edge2" class="edge"><title>Node1&#45;&gt;Node3</title>
<path fill="none" stroke="midnightblue" d="M112.704,-41.7018C131.809,-36.683 154.861,-31.4819 176,-29 239.996,-21.4864 313.465,-22.3522 365.944,-24.5887"/>
<polygon fill="midnightblue" stroke="midnightblue" points="111.56,-38.3853 102.82,-44.3732 113.387,-45.1428 111.56,-38.3853"/>
</g>
<!-- Node9 -->
<g id="node9" class="node"><title>Node9</title>
<g id="a_node9"><a xlink:href="class_omni_o_g_l_1_1_section_collection.html#aa4bab32a8d339d5a1e34d28b283768ff" target="_top" xlink:title="OmniOGL::SectionCollection\l::UpdateAdjacentSectionsArray">
<polygon fill="white" stroke="black" points="176.5,-39 176.5,-69 329.5,-69 329.5,-39 176.5,-39"/>
<text text-anchor="start" x="184.5" y="-57" font-family="Helvetica,sans-Serif" font-size="10.00">OmniOGL::SectionCollection</text>
<text text-anchor="middle" x="253" y="-46" font-family="Helvetica,sans-Serif" font-size="10.00">::UpdateAdjacentSectionsArray</text>
</a>
</g>
</g>
<!-- Node1&#45;&gt;Node9 -->
<g id="edge8" class="edge"><title>Node1&#45;&gt;Node9</title>
<path fill="none" stroke="midnightblue" d="M150.241,-54C158.863,-54 167.623,-54 176.201,-54"/>
<polygon fill="midnightblue" stroke="midnightblue" points="150.203,-50.5001 140.203,-54 150.203,-57.5001 150.203,-50.5001"/>
</g>
<!-- Node4 -->
<g id="node4" class="node"><title>Node4</title>
<g id="a_node4"><a xlink:href="class_omni_o_g_l_1_1_scene.html#a8601c13e69f3269928209f1ffdf2584a" target="_top" xlink:title="The constructor for the Scene class. This is a fairly busy constructor since it&#39;s responsible for ini...">
<polygon fill="white" stroke="black" points="556,-38.5 556,-57.5 684,-57.5 684,-38.5 556,-38.5"/>
<text text-anchor="middle" x="620" y="-45.5" font-family="Helvetica,sans-Serif" font-size="10.00">OmniOGL::Scene::Scene</text>
</a>
</g>
</g>
<!-- Node3&#45;&gt;Node4 -->
<g id="edge3" class="edge"><title>Node3&#45;&gt;Node4</title>
<path fill="none" stroke="midnightblue" d="M518.269,-37.4261C530.873,-38.7491 543.744,-40.1002 555.889,-41.375"/>
<polygon fill="midnightblue" stroke="midnightblue" points="518.549,-33.9363 508.238,-36.3731 517.818,-40.898 518.549,-33.9363"/>
</g>
<!-- Node5 -->
<g id="node5" class="node"><title>Node5</title>
<g id="a_node5"><a xlink:href="class_omni_o_g_l_1_1_scene.html#aaf90a48c617a97b06e8b75320c0271b0" target="_top" xlink:title="OmniOGL::Scene::HandleInput">
<polygon fill="white" stroke="black" points="544.5,-0.5 544.5,-19.5 695.5,-19.5 695.5,-0.5 544.5,-0.5"/>
<text text-anchor="middle" x="620" y="-7.5" font-family="Helvetica,sans-Serif" font-size="10.00">OmniOGL::Scene::HandleInput</text>
</a>
</g>
</g>
<!-- Node3&#45;&gt;Node5 -->
<g id="edge4" class="edge"><title>Node3&#45;&gt;Node5</title>
<path fill="none" stroke="midnightblue" d="M518.312,-20.5695C526.959,-19.6618 535.731,-18.7409 544.308,-17.8406"/>
<polygon fill="midnightblue" stroke="midnightblue" points="517.818,-17.102 508.238,-21.6269 518.549,-24.0637 517.818,-17.102"/>
</g>
<!-- Node6 -->
<g id="node6" class="node"><title>Node6</title>
<g id="a_node6"><a xlink:href="class_omni_o_g_l_1_1_scene.html#ac65b18faabaa3d2af9a0a4b2f2fc0fe0" target="_top" xlink:title="The core of the rendering loop! This method iterates through all possible containers of objects&#45;to&#45;be...">
<polygon fill="white" stroke="black" points="732,-0.5 732,-19.5 854,-19.5 854,-0.5 732,-0.5"/>
<text text-anchor="middle" x="793" y="-7.5" font-family="Helvetica,sans-Serif" font-size="10.00">OmniOGL::Scene::Draw</text>
</a>
</g>
</g>
<!-- Node5&#45;&gt;Node6 -->
<g id="edge5" class="edge"><title>Node5&#45;&gt;Node6</title>
<path fill="none" stroke="midnightblue" d="M705.52,-10C714.413,-10 723.32,-10 731.856,-10"/>
<polygon fill="midnightblue" stroke="midnightblue" points="705.506,-6.5001 695.506,-10 705.506,-13.5001 705.506,-6.5001"/>
</g>
<!-- Node7 -->
<g id="node7" class="node"><title>Node7</title>
<g id="a_node7"><a xlink:href="_exec_8cpp.html#a38c5e7def3be6ea702581ee4a92b9cc0" target="_top" xlink:title="render">
<polygon fill="white" stroke="black" points="890,-0.5 890,-19.5 934,-19.5 934,-0.5 890,-0.5"/>
<text text-anchor="middle" x="912" y="-7.5" font-family="Helvetica,sans-Serif" font-size="10.00">render</text>
</a>
</g>
</g>
<!-- Node6&#45;&gt;Node7 -->
<g id="edge6" class="edge"><title>Node6&#45;&gt;Node7</title>
<path fill="none" stroke="midnightblue" d="M864.318,-10C873.524,-10 882.323,-10 889.751,-10"/>
<polygon fill="midnightblue" stroke="midnightblue" points="864.214,-6.5001 854.214,-10 864.214,-13.5001 864.214,-6.5001"/>
</g>
<!-- Node8 -->
<g id="node8" class="node"><title>Node8</title>
<g id="a_node8"><a xlink:href="_exec_8cpp.html#a66e65252a6985e382838442f280f46ba" target="_top" xlink:title="WinMain">
<polygon fill="white" stroke="black" points="970.5,-0.5 970.5,-19.5 1025.5,-19.5 1025.5,-0.5 970.5,-0.5"/>
<text text-anchor="middle" x="998" y="-7.5" font-family="Helvetica,sans-Serif" font-size="10.00">WinMain</text>
</a>
</g>
</g>
<!-- Node7&#45;&gt;Node8 -->
<g id="edge7" class="edge"><title>Node7&#45;&gt;Node8</title>
<path fill="none" stroke="midnightblue" d="M944.253,-10C952.845,-10 962.081,-10 970.386,-10"/>
<polygon fill="midnightblue" stroke="midnightblue" points="944.197,-6.5001 934.197,-10 944.197,-13.5001 944.197,-6.5001"/>
</g>
<!-- Node9&#45;&gt;Node2 -->
<g id="edge9" class="edge"><title>Node9&#45;&gt;Node2</title>
<path fill="none" stroke="midnightblue" d="M339.522,-69.9767C348.35,-71.6257 357.246,-73.2877 365.877,-74.9001"/>
<polygon fill="midnightblue" stroke="midnightblue" points="340.076,-66.5196 329.603,-68.1237 338.79,-73.4006 340.076,-66.5196"/>
</g>
<!-- Node9&#45;&gt;Node3 -->
<g id="edge10" class="edge"><title>Node9&#45;&gt;Node3</title>
<path fill="none" stroke="midnightblue" d="M339.522,-42.2524C348.35,-41.0399 357.246,-39.8179 365.877,-38.6323"/>
<polygon fill="midnightblue" stroke="midnightblue" points="339.034,-38.7866 329.603,-43.6149 339.987,-45.7214 339.034,-38.7866"/>
</g>
</g>
</svg>
