<?xml version="1.0" encoding="UTF-8" standalone="no"?>
<!DOCTYPE svg PUBLIC "-//W3C//DTD SVG 1.1//EN"
 "http://www.w3.org/Graphics/SVG/1.1/DTD/svg11.dtd">
<!-- Generated by graphviz version 2.30.1 (20130214.1330)
 -->
<!-- Title: OmniOGL::StencilFunction Pages: 1 -->
<svg width="142pt" height="194pt"
 viewBox="0.00 0.00 142.00 194.00" xmlns="http://www.w3.org/2000/svg" xmlns:xlink="http://www.w3.org/1999/xlink">
<g id="graph0" class="graph" transform="scale(1 1) rotate(0) translate(4 190)">
<title>OmniOGL::StencilFunction</title>
<polygon fill="white" stroke="white" points="-4,5 -4,-190 139,-190 139,5 -4,5"/>
<!-- Node1 -->
<g id="node1" class="node"><title>Node1</title>
<polygon fill="#bfbfbf" stroke="black" points="0,-0.5 0,-57.5 134,-57.5 134,-0.5 0,-0.5"/>
<text text-anchor="middle" x="67" y="-45.5" font-family="Helvetica,sans-Serif" font-size="10.00">OmniOGL::StencilFunction</text>
<polyline fill="none" stroke="black" points="0,-38.5 134,-38.5 "/>
<text text-anchor="middle" x="67" y="-26.5" font-family="Helvetica,sans-Serif" font-size="10.00"> </text>
<polyline fill="none" stroke="black" points="0,-19.5 134,-19.5 "/>
<text text-anchor="start" x="8" y="-7.5" font-family="Helvetica,sans-Serif" font-size="10.00">+ StencilFunction()</text>
</g>
<!-- Node2 -->
<g id="node2" class="node"><title>Node2</title>
<polygon fill="white" stroke="#bfbfbf" points="13,-128.5 13,-185.5 53,-185.5 53,-128.5 13,-128.5"/>
<text text-anchor="middle" x="33" y="-173.5" font-family="Helvetica,sans-Serif" font-size="10.00">GLint</text>
<polyline fill="none" stroke="#bfbfbf" points="13,-166.5 53,-166.5 "/>
<text text-anchor="middle" x="33" y="-154.5" font-family="Helvetica,sans-Serif" font-size="10.00"> </text>
<polyline fill="none" stroke="#bfbfbf" points="13,-147.5 53,-147.5 "/>
<text text-anchor="middle" x="33" y="-135.5" font-family="Helvetica,sans-Serif" font-size="10.00"> </text>
</g>
<!-- Node2&#45;&gt;Node1 -->
<g id="edge1" class="edge"><title>Node2&#45;&gt;Node1</title>
<path fill="none" stroke="#404040" d="M29.312,-128.298C28.2054,-112.579 28.4945,-92.7591 34,-76 34.8474,-73.4205 35.8962,-70.862 37.093,-68.3501"/>
<polygon fill="none" stroke="#404040" points="37.2046,-68.1533 36.6841,-60.961 43.123,-57.7143 43.6434,-64.9066 37.2046,-68.1533"/>
<text text-anchor="middle" x="57" y="-101.5" font-family="Helvetica,sans-Serif" font-size="10.00"> +mask</text>
<text text-anchor="middle" x="57" y="-90.5" font-family="Helvetica,sans-Serif" font-size="10.00">+operation</text>
<text text-anchor="middle" x="57" y="-79.5" font-family="Helvetica,sans-Serif" font-size="10.00">+function</text>
</g>
<!-- Node3 -->
<g id="node3" class="node"><title>Node3</title>
<polygon fill="white" stroke="#bfbfbf" points="84.5,-128.5 84.5,-185.5 119.5,-185.5 119.5,-128.5 84.5,-128.5"/>
<text text-anchor="middle" x="102" y="-173.5" font-family="Helvetica,sans-Serif" font-size="10.00">bool</text>
<polyline fill="none" stroke="#bfbfbf" points="84.5,-166.5 119.5,-166.5 "/>
<text text-anchor="middle" x="102" y="-154.5" font-family="Helvetica,sans-Serif" font-size="10.00"> </text>
<polyline fill="none" stroke="#bfbfbf" points="84.5,-147.5 119.5,-147.5 "/>
<text text-anchor="middle" x="102" y="-135.5" font-family="Helvetica,sans-Serif" font-size="10.00"> </text>
</g>
<!-- Node3&#45;&gt;Node1 -->
<g id="edge2" class="edge"><title>Node3&#45;&gt;Node1</title>
<path fill="none" stroke="#404040" d="M94.412,-128.219C90.1941,-112.824 84.8356,-93.3441 80,-76 79.4073,-73.8741 78.7974,-71.6935 78.1804,-69.4924"/>
<polygon fill="none" stroke="#404040" points="78.1187,-69.2729 72.6431,-64.5806 74.8685,-57.7214 80.3441,-62.4138 78.1187,-69.2729"/>
<text text-anchor="middle" x="111.5" y="-90.5" font-family="Helvetica,sans-Serif" font-size="10.00"> +enabled</text>
</g>
</g>
</svg>
