<?xml version="1.0" encoding="UTF-8" standalone="no"?>
<!DOCTYPE svg PUBLIC "-//W3C//DTD SVG 1.1//EN"
 "http://www.w3.org/Graphics/SVG/1.1/DTD/svg11.dtd">
<!-- Generated by graphviz version 2.30.1 (20130214.1330)
 -->
<!-- Title: OmniOGL::OGLMatrices::sTranslate Pages: 1 -->
<svg width="286pt" height="262pt"
 viewBox="0.00 0.00 286.00 262.00" xmlns="http://www.w3.org/2000/svg" xmlns:xlink="http://www.w3.org/1999/xlink">
<g id="graph0" class="graph" transform="scale(1 1) rotate(0) translate(4 258)">
<title>OmniOGL::OGLMatrices::sTranslate</title>
<polygon fill="white" stroke="white" points="-4,5 -4,-258 283,-258 283,5 -4,5"/>
<!-- Node1 -->
<g id="node1" class="node"><title>Node1</title>
<polygon fill="#bfbfbf" stroke="black" points="0,-120 0,-150 124,-150 124,-120 0,-120"/>
<text text-anchor="start" x="8" y="-138" font-family="Helvetica,sans-Serif" font-size="10.00">OmniOGL::OGLMatrices</text>
<text text-anchor="middle" x="62" y="-127" font-family="Helvetica,sans-Serif" font-size="10.00">::sTranslate</text>
</g>
<!-- Node2 -->
<g id="node2" class="node"><title>Node2</title>
<g id="a_node2"><a xlink:href="class_omni_o_g_l_1_1_blender_obj.html#a3c4dab9041ae8991266d48363dce03ff" target="_top" xlink:title="The draw method which must be implemented in order for the class to be instantiable. This method is responsible for sending the vertices, normals, etc. necessary to draw the object to the shader program, set all necessary options to their desired state, and finally invoke the desired OpenGL draw call. At the time being this method implementation is fairly rudimentary as it contains no logic to determine whether or not it needs send its data to the graphics card (it sends its data blindly).">
<polygon fill="white" stroke="black" points="162,-224 162,-254 276,-254 276,-224 162,-224"/>
<text text-anchor="start" x="170" y="-242" font-family="Helvetica,sans-Serif" font-size="10.00">OmniOGL::BlenderObj</text>
<text text-anchor="middle" x="219" y="-231" font-family="Helvetica,sans-Serif" font-size="10.00">::Draw</text>
</a>
</g>
</g>
<!-- Node1&#45;&gt;Node2 -->
<g id="edge1" class="edge"><title>Node1&#45;&gt;Node2</title>
<path fill="none" stroke="midnightblue" d="M86.2715,-157.07C105.103,-174.132 132.865,-197.541 160,-214 165.906,-217.583 172.418,-220.916 178.88,-223.906"/>
<polygon fill="midnightblue" stroke="midnightblue" points="88.5079,-154.372 78.7753,-150.185 83.7727,-159.528 88.5079,-154.372"/>
</g>
<!-- Node3 -->
<g id="node3" class="node"><title>Node3</title>
<g id="a_node3"><a xlink:href="class_omni_o_g_l_1_1_cube.html#a00747eeb6be98f4c9338ec10c2add6b8" target="_top" xlink:title="A method which is called each frame in order to render the object to the screen. This method is respo...">
<polygon fill="white" stroke="black" points="161,-185.5 161,-204.5 277,-204.5 277,-185.5 161,-185.5"/>
<text text-anchor="middle" x="219" y="-192.5" font-family="Helvetica,sans-Serif" font-size="10.00">OmniOGL::Cube::Draw</text>
</a>
</g>
</g>
<!-- Node1&#45;&gt;Node3 -->
<g id="edge2" class="edge"><title>Node1&#45;&gt;Node3</title>
<path fill="none" stroke="midnightblue" d="M106.313,-154.218C122.973,-161.37 142.252,-169.355 160,-176 168.733,-179.269 178.315,-182.536 187.131,-185.416"/>
<polygon fill="midnightblue" stroke="midnightblue" points="107.406,-150.878 96.8383,-150.121 104.627,-157.302 107.406,-150.878"/>
</g>
<!-- Node4 -->
<g id="node4" class="node"><title>Node4</title>
<g id="a_node4"><a xlink:href="class_omni_o_g_l_1_1_floor.html#ac36ccc5c2f1acb80548af20f166b1f77" target="_top" xlink:title="A method which will be called each frame for each Floor object and is responsible for binding relevan...">
<polygon fill="white" stroke="black" points="161,-147.5 161,-166.5 277,-166.5 277,-147.5 161,-147.5"/>
<text text-anchor="middle" x="219" y="-154.5" font-family="Helvetica,sans-Serif" font-size="10.00">OmniOGL::Floor::Draw</text>
</a>
</g>
</g>
<!-- Node1&#45;&gt;Node4 -->
<g id="edge3" class="edge"><title>Node1&#45;&gt;Node4</title>
<path fill="none" stroke="midnightblue" d="M134.285,-145.118C143.228,-146.387 152.283,-147.672 160.968,-148.905"/>
<polygon fill="midnightblue" stroke="midnightblue" points="134.653,-141.635 124.26,-143.695 133.669,-148.566 134.653,-141.635"/>
</g>
<!-- Node5 -->
<g id="node5" class="node"><title>Node5</title>
<g id="a_node5"><a xlink:href="class_omni_o_g_l_1_1_text_overlay.html#aa30ee3a394108270a31eed426e19a4ca" target="_top" xlink:title="A method which will be called each frame for each TextOverlay object and is responsible for binding r...">
<polygon fill="white" stroke="black" points="160.5,-98 160.5,-128 277.5,-128 277.5,-98 160.5,-98"/>
<text text-anchor="start" x="168.5" y="-116" font-family="Helvetica,sans-Serif" font-size="10.00">OmniOGL::TextOverlay</text>
<text text-anchor="middle" x="219" y="-105" font-family="Helvetica,sans-Serif" font-size="10.00">::Draw</text>
</a>
</g>
</g>
<!-- Node1&#45;&gt;Node5 -->
<g id="edge4" class="edge"><title>Node1&#45;&gt;Node5</title>
<path fill="none" stroke="midnightblue" d="M134.428,-124.862C143.153,-123.623 151.981,-122.37 160.466,-121.166"/>
<polygon fill="midnightblue" stroke="midnightblue" points="133.669,-121.434 124.26,-126.305 134.653,-128.365 133.669,-121.434"/>
</g>
<!-- Node6 -->
<g id="node6" class="node"><title>Node6</title>
<g id="a_node6"><a xlink:href="class_omni_o_g_l_1_1_line_strip.html#a3ecdafa271dd370a5073a0d6dd2e5bf9" target="_top" xlink:title="when commenting, note that we translate to 0,0,0 instead of the object&#39;s origin">
<polygon fill="white" stroke="black" points="167,-49 167,-79 271,-79 271,-49 167,-49"/>
<text text-anchor="start" x="175" y="-67" font-family="Helvetica,sans-Serif" font-size="10.00">OmniOGL::LineStrip</text>
<text text-anchor="middle" x="219" y="-56" font-family="Helvetica,sans-Serif" font-size="10.00">::Draw</text>
</a>
</g>
</g>
<!-- Node1&#45;&gt;Node6 -->
<g id="edge5" class="edge"><title>Node1&#45;&gt;Node6</title>
<path fill="none" stroke="midnightblue" d="M103.585,-115.356C120.902,-107.078 141.374,-97.4273 160,-89 167.293,-85.7004 175.143,-82.2497 182.639,-79.0024"/>
<polygon fill="midnightblue" stroke="midnightblue" points="101.825,-112.319 94.3205,-119.798 104.851,-118.631 101.825,-112.319"/>
</g>
<!-- Node7 -->
<g id="node7" class="node"><title>Node7</title>
<g id="a_node7"><a xlink:href="class_omni_o_g_l_1_1_block_array.html#a2ffeafa923f1f49001d771ce7e670521" target="_top" xlink:title="OmniOGL::BlockArray\l::Draw">
<polygon fill="white" stroke="black" points="162,-0 162,-30 276,-30 276,-0 162,-0"/>
<text text-anchor="start" x="170" y="-18" font-family="Helvetica,sans-Serif" font-size="10.00">OmniOGL::BlockArray</text>
<text text-anchor="middle" x="219" y="-7" font-family="Helvetica,sans-Serif" font-size="10.00">::Draw</text>
</a>
</g>
</g>
<!-- Node1&#45;&gt;Node7 -->
<g id="edge6" class="edge"><title>Node1&#45;&gt;Node7</title>
<path fill="none" stroke="midnightblue" d="M82.082,-111.964C100.36,-91.0368 129.587,-60.406 160,-40 165.463,-36.3344 171.552,-33.0137 177.672,-30.0777"/>
<polygon fill="midnightblue" stroke="midnightblue" points="79.2653,-109.872 75.4049,-119.738 84.5755,-114.433 79.2653,-109.872"/>
</g>
</g>
</svg>
