<?xml version="1.0" encoding="UTF-8" standalone="no"?>
<!DOCTYPE svg PUBLIC "-//W3C//DTD SVG 1.1//EN"
 "http://www.w3.org/Graphics/SVG/1.1/DTD/svg11.dtd">
<!-- Generated by graphviz version 2.30.1 (20130214.1330)
 -->
<!-- Title: OmniOGL::TextOverlay::operator= Pages: 1 -->
<svg width="570pt" height="142pt"
 viewBox="0.00 0.00 570.00 142.00" xmlns="http://www.w3.org/2000/svg" xmlns:xlink="http://www.w3.org/1999/xlink">
<g id="graph0" class="graph" transform="scale(1 1) rotate(0) translate(4 138)">
<title>OmniOGL::TextOverlay::operator=</title>
<polygon fill="white" stroke="white" points="-4,5 -4,-138 567,-138 567,5 -4,5"/>
<!-- Node1 -->
<g id="node1" class="node"><title>Node1</title>
<polygon fill="#bfbfbf" stroke="black" points="0.5,-52 0.5,-82 117.5,-82 117.5,-52 0.5,-52"/>
<text text-anchor="start" x="8.5" y="-70" font-family="Helvetica,sans-Serif" font-size="10.00">OmniOGL::TextOverlay</text>
<text text-anchor="middle" x="59" y="-59" font-family="Helvetica,sans-Serif" font-size="10.00">::operator=</text>
</g>
<!-- Node2 -->
<g id="node2" class="node"><title>Node2</title>
<g id="a_node2"><a xlink:href="class_omni_o_g_l_1_1_ren_obj.html#a0f76d1a329f2ed1ded9a87b1fdb70d19" target="_top" xlink:title="The &#39;=&#39; operator for the RenObj class. This method is called any time a derived class instance of a R...">
<polygon fill="white" stroke="black" points="154,-76.5 154,-95.5 300,-95.5 300,-76.5 154,-76.5"/>
<text text-anchor="middle" x="227" y="-83.5" font-family="Helvetica,sans-Serif" font-size="10.00">OmniOGL::RenObj::operator=</text>
</a>
</g>
</g>
<!-- Node1&#45;&gt;Node2 -->
<g id="edge1" class="edge"><title>Node1&#45;&gt;Node2</title>
<path fill="none" stroke="midnightblue" d="M117.593,-73.592C126.097,-74.5654 134.996,-75.5839 143.881,-76.6008"/>
<polygon fill="midnightblue" stroke="midnightblue" points="143.552,-80.0859 153.885,-77.7459 144.348,-73.1313 143.552,-80.0859"/>
</g>
<!-- Node6 -->
<g id="node6" class="node"><title>Node6</title>
<g id="a_node6"><a xlink:href="namespace_omni_o_g_l.html#ab790cf1cdc8d2bcbdbbe06c6d87f1a1d" target="_top" xlink:title="A wrapper for the delete[] keyword. Always uses delete[], and never delete.">
<polygon fill="white" stroke="black" points="336.5,-38.5 336.5,-57.5 435.5,-57.5 435.5,-38.5 336.5,-38.5"/>
<text text-anchor="middle" x="386" y="-45.5" font-family="Helvetica,sans-Serif" font-size="10.00">OmniOGL::_Delete</text>
</a>
</g>
</g>
<!-- Node1&#45;&gt;Node6 -->
<g id="edge8" class="edge"><title>Node1&#45;&gt;Node6</title>
<path fill="none" stroke="midnightblue" d="M117.729,-63.6251C176.406,-60.1947 266.856,-54.9069 325.991,-51.4498"/>
<polygon fill="midnightblue" stroke="midnightblue" points="326.511,-54.9254 336.29,-50.8477 326.103,-47.9373 326.511,-54.9254"/>
</g>
<!-- Node7 -->
<g id="node7" class="node"><title>Node7</title>
<g id="a_node7"><a xlink:href="namespace_omni_o_g_l.html#ade1ba238a31a1003412522a2769d5945" target="_top" xlink:title="OmniOGL::_Valid">
<polygon fill="white" stroke="black" points="339.5,-0.5 339.5,-19.5 432.5,-19.5 432.5,-0.5 339.5,-0.5"/>
<text text-anchor="middle" x="386" y="-7.5" font-family="Helvetica,sans-Serif" font-size="10.00">OmniOGL::_Valid</text>
</a>
</g>
</g>
<!-- Node1&#45;&gt;Node7 -->
<g id="edge9" class="edge"><title>Node1&#45;&gt;Node7</title>
<path fill="none" stroke="midnightblue" d="M117.628,-55.7576C129.639,-53.4727 142.226,-51.1209 154,-49 213.852,-38.2183 282.595,-26.7262 329.423,-19.0319"/>
<polygon fill="midnightblue" stroke="midnightblue" points="330.064,-22.4737 339.365,-17.4013 328.931,-15.566 330.064,-22.4737"/>
</g>
<!-- Node4 -->
<g id="node4" class="node"><title>Node4</title>
<g id="a_node4"><a xlink:href="namespace_omni_o_g_l.html#a80cd48382ee4083e78ba3431e570b82c" target="_top" xlink:title="A wrapper around the new[] keyword. Allocates the desired number of elements to the given pointer...">
<polygon fill="white" stroke="black" points="341,-114.5 341,-133.5 431,-133.5 431,-114.5 341,-114.5"/>
<text text-anchor="middle" x="386" y="-121.5" font-family="Helvetica,sans-Serif" font-size="10.00">OmniOGL::_New</text>
</a>
</g>
</g>
<!-- Node1&#45;&gt;Node4 -->
<g id="edge10" class="edge"><title>Node1&#45;&gt;Node4</title>
<path fill="none" stroke="midnightblue" d="M90.5587,-82.0963C108.578,-90.295 132.078,-99.795 154,-105 213.454,-119.116 283.656,-123.171 330.935,-124.134"/>
<polygon fill="midnightblue" stroke="midnightblue" points="330.902,-127.634 340.959,-124.298 331.017,-120.634 330.902,-127.634"/>
</g>
<!-- Node3 -->
<g id="node3" class="node"><title>Node3</title>
<g id="a_node3"><a xlink:href="namespace_omni_o_g_l.html#abe5ff24d55002e6ebffb4415d994260a" target="_top" xlink:title="Sets the pointer to the value &#45;1.">
<polygon fill="white" stroke="black" points="344,-76.5 344,-95.5 428,-95.5 428,-76.5 344,-76.5"/>
<text text-anchor="middle" x="386" y="-83.5" font-family="Helvetica,sans-Serif" font-size="10.00">OmniOGL::_Init</text>
</a>
</g>
</g>
<!-- Node2&#45;&gt;Node3 -->
<g id="edge2" class="edge"><title>Node2&#45;&gt;Node3</title>
<path fill="none" stroke="midnightblue" d="M300.067,-86C311.429,-86 322.973,-86 333.736,-86"/>
<polygon fill="midnightblue" stroke="midnightblue" points="333.785,-89.5001 343.785,-86 333.785,-82.5001 333.785,-89.5001"/>
</g>
<!-- Node2&#45;&gt;Node4 -->
<g id="edge3" class="edge"><title>Node2&#45;&gt;Node4</title>
<path fill="none" stroke="midnightblue" d="M267.618,-95.589C288.336,-100.604 313.888,-106.788 335.856,-112.105"/>
<polygon fill="midnightblue" stroke="midnightblue" points="335.124,-115.529 345.667,-114.48 336.771,-108.726 335.124,-115.529"/>
</g>
<!-- Node2&#45;&gt;Node6 -->
<g id="edge5" class="edge"><title>Node2&#45;&gt;Node6</title>
<path fill="none" stroke="midnightblue" d="M267.618,-76.411C288.336,-71.3965 313.888,-65.2119 335.856,-59.8947"/>
<polygon fill="midnightblue" stroke="midnightblue" points="336.771,-63.2744 345.667,-57.5201 335.124,-56.4708 336.771,-63.2744"/>
</g>
<!-- Node2&#45;&gt;Node7 -->
<g id="edge7" class="edge"><title>Node2&#45;&gt;Node7</title>
<path fill="none" stroke="midnightblue" d="M244.903,-76.2952C265.907,-64.4196 303.013,-44.0395 336,-29 340.224,-27.0744 344.704,-25.1637 349.172,-23.3382"/>
<polygon fill="midnightblue" stroke="midnightblue" points="350.825,-26.4474 358.828,-19.5048 348.243,-19.9413 350.825,-26.4474"/>
</g>
<!-- Node5 -->
<g id="node5" class="node"><title>Node5</title>
<g id="a_node5"><a xlink:href="namespace_omni_o_g_l.html#a8f559408c62db097a1a918d7f58f4183" target="_top" xlink:title="A &quot;clone&quot; of the well&#45;known printf() function, with the debug routed to the OutputDebugString() funct...">
<polygon fill="white" stroke="black" points="472,-76.5 472,-95.5 562,-95.5 562,-76.5 472,-76.5"/>
<text text-anchor="middle" x="517" y="-83.5" font-family="Helvetica,sans-Serif" font-size="10.00">OmniOGL::dprint</text>
</a>
</g>
</g>
<!-- Node4&#45;&gt;Node5 -->
<g id="edge4" class="edge"><title>Node4&#45;&gt;Node5</title>
<path fill="none" stroke="midnightblue" d="M419.552,-114.411C435.899,-109.596 455.909,-103.701 473.457,-98.532"/>
<polygon fill="midnightblue" stroke="midnightblue" points="474.855,-101.769 483.458,-95.5859 472.877,-95.0543 474.855,-101.769"/>
</g>
<!-- Node6&#45;&gt;Node5 -->
<g id="edge6" class="edge"><title>Node6&#45;&gt;Node5</title>
<path fill="none" stroke="midnightblue" d="M419.552,-57.589C435.899,-62.4044 455.909,-68.2988 473.457,-73.468"/>
<polygon fill="midnightblue" stroke="midnightblue" points="472.877,-76.9457 483.458,-76.4141 474.855,-70.2309 472.877,-76.9457"/>
</g>
</g>
</svg>
