<?xml version="1.0" encoding="UTF-8" standalone="no"?>
<!DOCTYPE svg PUBLIC "-//W3C//DTD SVG 1.1//EN"
 "http://www.w3.org/Graphics/SVG/1.1/DTD/svg11.dtd">
<!-- Generated by graphviz version 2.30.1 (20130214.1330)
 -->
<!-- Title: OmniOGL::MaterialLighting Pages: 1 -->
<svg width="172pt" height="194pt"
 viewBox="0.00 0.00 172.00 194.00" xmlns="http://www.w3.org/2000/svg" xmlns:xlink="http://www.w3.org/1999/xlink">
<g id="graph0" class="graph" transform="scale(1 1) rotate(0) translate(4 190)">
<title>OmniOGL::MaterialLighting</title>
<polygon fill="white" stroke="white" points="-4,5 -4,-190 169,-190 169,5 -4,5"/>
<!-- Node1 -->
<g id="node1" class="node"><title>Node1</title>
<polygon fill="#bfbfbf" stroke="black" points="5,-0.5 5,-57.5 139,-57.5 139,-0.5 5,-0.5"/>
<text text-anchor="middle" x="72" y="-45.5" font-family="Helvetica,sans-Serif" font-size="10.00">OmniOGL::MaterialLighting</text>
<polyline fill="none" stroke="black" points="5,-38.5 139,-38.5 "/>
<text text-anchor="middle" x="72" y="-26.5" font-family="Helvetica,sans-Serif" font-size="10.00"> </text>
<polyline fill="none" stroke="black" points="5,-19.5 139,-19.5 "/>
<text text-anchor="start" x="13" y="-7.5" font-family="Helvetica,sans-Serif" font-size="10.00">+ MaterialLighting()</text>
</g>
<!-- Node2 -->
<g id="node2" class="node"><title>Node2</title>
<polygon fill="white" stroke="#bfbfbf" points="-0.5,-128.5 -0.5,-185.5 46.5,-185.5 46.5,-128.5 -0.5,-128.5"/>
<text text-anchor="middle" x="23" y="-173.5" font-family="Helvetica,sans-Serif" font-size="10.00">GLfloat</text>
<polyline fill="none" stroke="#bfbfbf" points="-0.5,-166.5 46.5,-166.5 "/>
<text text-anchor="middle" x="23" y="-154.5" font-family="Helvetica,sans-Serif" font-size="10.00"> </text>
<polyline fill="none" stroke="#bfbfbf" points="-0.5,-147.5 46.5,-147.5 "/>
<text text-anchor="middle" x="23" y="-135.5" font-family="Helvetica,sans-Serif" font-size="10.00"> </text>
</g>
<!-- Node2&#45;&gt;Node1 -->
<g id="edge1" class="edge"><title>Node2&#45;&gt;Node1</title>
<path fill="none" stroke="#404040" d="M18.1899,-128.231C16.6698,-112.309 16.9198,-92.3086 24,-76 25.3121,-72.9776 26.9285,-70.0573 28.7649,-67.2538"/>
<polygon fill="none" stroke="#404040" points="28.8693,-67.1193 29.3888,-59.9269 36.2278,-57.6402 35.7083,-64.8326 28.8693,-67.1193"/>
<text text-anchor="middle" x="62" y="-101.5" font-family="Helvetica,sans-Serif" font-size="10.00"> +specular_factor</text>
<text text-anchor="middle" x="62" y="-90.5" font-family="Helvetica,sans-Serif" font-size="10.00">+shininess</text>
<text text-anchor="middle" x="62" y="-79.5" font-family="Helvetica,sans-Serif" font-size="10.00">+diffuse_factor</text>
</g>
<!-- Node3 -->
<g id="node3" class="node"><title>Node3</title>
<polygon fill="white" stroke="#bfbfbf" points="104.5,-128.5 104.5,-185.5 139.5,-185.5 139.5,-128.5 104.5,-128.5"/>
<text text-anchor="middle" x="122" y="-173.5" font-family="Helvetica,sans-Serif" font-size="10.00">bool</text>
<polyline fill="none" stroke="#bfbfbf" points="104.5,-166.5 139.5,-166.5 "/>
<text text-anchor="middle" x="122" y="-154.5" font-family="Helvetica,sans-Serif" font-size="10.00"> </text>
<polyline fill="none" stroke="#bfbfbf" points="104.5,-147.5 139.5,-147.5 "/>
<text text-anchor="middle" x="122" y="-135.5" font-family="Helvetica,sans-Serif" font-size="10.00"> </text>
</g>
<!-- Node3&#45;&gt;Node1 -->
<g id="edge2" class="edge"><title>Node3&#45;&gt;Node1</title>
<path fill="none" stroke="#404040" d="M116.395,-128.325C112.722,-112.615 107.251,-92.7952 100,-76 98.8743,-73.3928 97.6216,-70.7567 96.2878,-68.1352"/>
<polygon fill="none" stroke="#404040" points="96.2502,-68.0669 89.8535,-64.7379 90.466,-57.5529 96.8628,-60.8818 96.2502,-68.0669"/>
<text text-anchor="middle" x="137.5" y="-96" font-family="Helvetica,sans-Serif" font-size="10.00"> +enabled</text>
<text text-anchor="middle" x="137.5" y="-85" font-family="Helvetica,sans-Serif" font-size="10.00">+black_only</text>
</g>
</g>
</svg>
