<?xml version="1.0" encoding="UTF-8" standalone="no"?>
<!DOCTYPE svg PUBLIC "-//W3C//DTD SVG 1.1//EN"
 "http://www.w3.org/Graphics/SVG/1.1/DTD/svg11.dtd">
<!-- Generated by graphviz version 2.30.1 (20130214.1330)
 -->
<!-- Title: OmniOGL::Scene::RemoveNearObject Pages: 1 -->
<svg width="844pt" height="77pt"
 viewBox="0.00 0.00 844.00 77.00" xmlns="http://www.w3.org/2000/svg" xmlns:xlink="http://www.w3.org/1999/xlink">
<g id="graph0" class="graph" transform="scale(1 1) rotate(0) translate(4 73)">
<title>OmniOGL::Scene::RemoveNearObject</title>
<polygon fill="white" stroke="white" points="-4,5 -4,-73 841,-73 841,5 -4,5"/>
<!-- Node1 -->
<g id="node1" class="node"><title>Node1</title>
<polygon fill="#bfbfbf" stroke="black" points="0.5,-17 0.5,-47 155.5,-47 155.5,-17 0.5,-17"/>
<text text-anchor="start" x="8.5" y="-35" font-family="Helvetica,sans-Serif" font-size="10.00">OmniOGL::Scene::RemoveNear</text>
<text text-anchor="middle" x="78" y="-24" font-family="Helvetica,sans-Serif" font-size="10.00">Object</text>
</g>
<!-- Node2 -->
<g id="node2" class="node"><title>Node2</title>
<g id="a_node2"><a xlink:href="class_omni_o_g_l_1_1_section_collection.html#af49673c003179e600645df9310c23108" target="_top" xlink:title="OmniOGL::SectionCollection\l::RemoveNearObject">
<polygon fill="white" stroke="black" points="203,-39 203,-69 345,-69 345,-39 203,-39"/>
<text text-anchor="start" x="211" y="-57" font-family="Helvetica,sans-Serif" font-size="10.00">OmniOGL::SectionCollection</text>
<text text-anchor="middle" x="274" y="-46" font-family="Helvetica,sans-Serif" font-size="10.00">::RemoveNearObject</text>
</a>
</g>
</g>
<!-- Node1&#45;&gt;Node2 -->
<g id="edge1" class="edge"><title>Node1&#45;&gt;Node2</title>
<path fill="none" stroke="midnightblue" d="M155.674,-40.695C167.837,-42.0743 180.447,-43.5043 192.691,-44.8927"/>
<polygon fill="midnightblue" stroke="midnightblue" points="192.541,-48.3981 202.872,-46.0473 193.33,-41.4427 192.541,-48.3981"/>
</g>
<!-- Node6 -->
<g id="node6" class="node"><title>Node6</title>
<g id="a_node6"><a xlink:href="class_omni_o_g_l_1_1_scene.html#a0dbdc05458b6c7c905b79dd847bc5e24" target="_top" xlink:title="Removes a RenObj (or one of its derivates) from the Scene, only if the object [pointer] already exist...">
<polygon fill="white" stroke="black" points="192.5,-0.5 192.5,-19.5 355.5,-19.5 355.5,-0.5 192.5,-0.5"/>
<text text-anchor="middle" x="274" y="-7.5" font-family="Helvetica,sans-Serif" font-size="10.00">OmniOGL::Scene::RemoveObject</text>
</a>
</g>
</g>
<!-- Node1&#45;&gt;Node6 -->
<g id="edge5" class="edge"><title>Node1&#45;&gt;Node6</title>
<path fill="none" stroke="midnightblue" d="M155.674,-23.305C164.446,-22.3102 173.451,-21.2891 182.383,-20.2761"/>
<polygon fill="midnightblue" stroke="midnightblue" points="182.879,-23.7425 192.421,-19.1379 182.09,-16.787 182.879,-23.7425"/>
</g>
<!-- Node3 -->
<g id="node3" class="node"><title>Node3</title>
<g id="a_node3"><a xlink:href="class_omni_o_g_l_1_1_section_collection.html#a48c15326a3435fbc853671efde647d6f" target="_top" xlink:title="OmniOGL::SectionCollection\l::RemoveObject">
<polygon fill="white" stroke="black" points="392,-17 392,-47 534,-47 534,-17 392,-17"/>
<text text-anchor="start" x="400" y="-35" font-family="Helvetica,sans-Serif" font-size="10.00">OmniOGL::SectionCollection</text>
<text text-anchor="middle" x="463" y="-24" font-family="Helvetica,sans-Serif" font-size="10.00">::RemoveObject</text>
</a>
</g>
</g>
<!-- Node2&#45;&gt;Node3 -->
<g id="edge2" class="edge"><title>Node2&#45;&gt;Node3</title>
<path fill="none" stroke="midnightblue" d="M345.164,-45.7454C357.066,-44.3452 369.507,-42.8815 381.646,-41.4534"/>
<polygon fill="midnightblue" stroke="midnightblue" points="382.231,-44.9088 391.754,-40.2642 381.413,-37.9567 382.231,-44.9088"/>
</g>
<!-- Node4 -->
<g id="node4" class="node"><title>Node4</title>
<g id="a_node4"><a xlink:href="class_omni_o_g_l_1_1_section.html#ac8ecd65a9d61f632f44d18df9174cf8d" target="_top" xlink:title="Removes an object from the Section&#39;s collection (linked list) of objects. This method also decrements...">
<polygon fill="white" stroke="black" points="570,-17 570,-47 710,-47 710,-17 570,-17"/>
<text text-anchor="start" x="578" y="-35" font-family="Helvetica,sans-Serif" font-size="10.00">OmniOGL::Section::Remove</text>
<text text-anchor="middle" x="640" y="-24" font-family="Helvetica,sans-Serif" font-size="10.00">Object</text>
</a>
</g>
</g>
<!-- Node3&#45;&gt;Node4 -->
<g id="edge3" class="edge"><title>Node3&#45;&gt;Node4</title>
<path fill="none" stroke="midnightblue" d="M534.171,-32C542.646,-32 551.347,-32 559.938,-32"/>
<polygon fill="midnightblue" stroke="midnightblue" points="559.953,-35.5001 569.953,-32 559.953,-28.5001 559.953,-35.5001"/>
</g>
<!-- Node5 -->
<g id="node5" class="node"><title>Node5</title>
<g id="a_node5"><a xlink:href="namespace_omni_o_g_l.html#a8f559408c62db097a1a918d7f58f4183" target="_top" xlink:title="A &quot;clone&quot; of the well&#45;known printf() function, with the debug routed to the OutputDebugString() funct...">
<polygon fill="white" stroke="black" points="746,-22.5 746,-41.5 836,-41.5 836,-22.5 746,-22.5"/>
<text text-anchor="middle" x="791" y="-29.5" font-family="Helvetica,sans-Serif" font-size="10.00">OmniOGL::dprint</text>
</a>
</g>
</g>
<!-- Node4&#45;&gt;Node5 -->
<g id="edge4" class="edge"><title>Node4&#45;&gt;Node5</title>
<path fill="none" stroke="midnightblue" d="M710.266,-32C718.708,-32 727.241,-32 735.428,-32"/>
<polygon fill="midnightblue" stroke="midnightblue" points="735.579,-35.5001 745.579,-32 735.579,-28.5001 735.579,-35.5001"/>
</g>
<!-- Node6&#45;&gt;Node3 -->
<g id="edge6" class="edge"><title>Node6&#45;&gt;Node3</title>
<path fill="none" stroke="midnightblue" d="M355.662,-19.4896C364.33,-20.5094 373.148,-21.5468 381.81,-22.5659"/>
<polygon fill="midnightblue" stroke="midnightblue" points="381.549,-26.0592 391.889,-23.7517 382.367,-19.1071 381.549,-26.0592"/>
</g>
</g>
</svg>
