<?xml version="1.0" encoding="UTF-8" standalone="no"?>
<!DOCTYPE svg PUBLIC "-//W3C//DTD SVG 1.1//EN"
 "http://www.w3.org/Graphics/SVG/1.1/DTD/svg11.dtd">
<!-- Generated by graphviz version 2.30.1 (20130214.1330)
 -->
<!-- Title: OmniOGL::BlenderObj::Draw Pages: 1 -->
<svg width="488pt" height="115pt"
 viewBox="0.00 0.00 488.00 115.00" xmlns="http://www.w3.org/2000/svg" xmlns:xlink="http://www.w3.org/1999/xlink">
<g id="graph0" class="graph" transform="scale(1 1) rotate(0) translate(4 111)">
<title>OmniOGL::BlenderObj::Draw</title>
<polygon fill="white" stroke="white" points="-4,5 -4,-111 485,-111 485,5 -4,5"/>
<!-- Node1 -->
<g id="node1" class="node"><title>Node1</title>
<polygon fill="#bfbfbf" stroke="black" points="0,-44 0,-74 114,-74 114,-44 0,-44"/>
<text text-anchor="start" x="8" y="-62" font-family="Helvetica,sans-Serif" font-size="10.00">OmniOGL::BlenderObj</text>
<text text-anchor="middle" x="57" y="-51" font-family="Helvetica,sans-Serif" font-size="10.00">::Draw</text>
</g>
<!-- Node2 -->
<g id="node2" class="node"><title>Node2</title>
<g id="a_node2"><a xlink:href="class_omni_o_g_l_1_1_ren_obj.html#af0c2ce990c74a67459352d89a02c757e" target="_top" xlink:title="This method lies at the heart of the rendering process, as it binds the object&#39;s relevant data to the...">
<polygon fill="white" stroke="black" points="150.5,-87.5 150.5,-106.5 319.5,-106.5 319.5,-87.5 150.5,-87.5"/>
<text text-anchor="middle" x="235" y="-94.5" font-family="Helvetica,sans-Serif" font-size="10.00">OmniOGL::RenObj::BindBufferData</text>
</a>
</g>
</g>
<!-- Node1&#45;&gt;Node2 -->
<g id="edge1" class="edge"><title>Node1&#45;&gt;Node2</title>
<path fill="none" stroke="midnightblue" d="M114.171,-71.1279C135.18,-75.6638 158.985,-80.8036 179.811,-85.3001"/>
<polygon fill="midnightblue" stroke="midnightblue" points="179.256,-88.7609 189.77,-87.4503 180.734,-81.9186 179.256,-88.7609"/>
</g>
<!-- Node3 -->
<g id="node3" class="node"><title>Node3</title>
<g id="a_node3"><a xlink:href="class_omni_o_g_l_1_1_ren_obj.html#a0a4218e288329f8e7b17081670948c9d" target="_top" xlink:title="This method attempts to handle all of the necessary OpenGL state changes in one place. The desired value of various states are stored as a local variable owned by the object. This method is called for each object each frame and simply sets each state to the position specified by the object.">
<polygon fill="white" stroke="black" points="166,-49.5 166,-68.5 304,-68.5 304,-49.5 166,-49.5"/>
<text text-anchor="middle" x="235" y="-56.5" font-family="Helvetica,sans-Serif" font-size="10.00">OmniOGL::RenObj::Prepare</text>
</a>
</g>
</g>
<!-- Node1&#45;&gt;Node3 -->
<g id="edge2" class="edge"><title>Node1&#45;&gt;Node3</title>
<path fill="none" stroke="midnightblue" d="M114.171,-59C127.367,-59 141.665,-59 155.636,-59"/>
<polygon fill="midnightblue" stroke="midnightblue" points="155.73,-62.5001 165.73,-59 155.73,-55.5001 155.73,-62.5001"/>
</g>
<!-- Node4 -->
<g id="node4" class="node"><title>Node4</title>
<g id="a_node4"><a xlink:href="class_omni_o_g_l_1_1_o_g_l_matrices.html#acf36e7ad27e383dfdd30095dd1b97b0a" target="_top" xlink:title="This method is intended to offer a simple way to set the translation matrix via a set of x...">
<polygon fill="white" stroke="black" points="173,-0 173,-30 297,-30 297,-0 173,-0"/>
<text text-anchor="start" x="181" y="-18" font-family="Helvetica,sans-Serif" font-size="10.00">OmniOGL::OGLMatrices</text>
<text text-anchor="middle" x="235" y="-7" font-family="Helvetica,sans-Serif" font-size="10.00">::sTranslate</text>
</a>
</g>
</g>
<!-- Node1&#45;&gt;Node4 -->
<g id="edge3" class="edge"><title>Node1&#45;&gt;Node4</title>
<path fill="none" stroke="midnightblue" d="M114.171,-44.9572C129.917,-41.0208 147.234,-36.6916 163.69,-32.5776"/>
<polygon fill="midnightblue" stroke="midnightblue" points="164.95,-35.8702 173.803,-30.0493 163.253,-29.0792 164.95,-35.8702"/>
</g>
<!-- Node5 -->
<g id="node5" class="node"><title>Node5</title>
<g id="a_node5"><a xlink:href="class_omni_o_g_l_1_1_o_g_l_matrices.html#aacb4830605589d383ded70ceec9b40bf" target="_top" xlink:title="This method sends a combined translation*rotation*scale 4x4 matrix to the shader program, effectively configuring the size, orientation, and position of each vertex which is a candidate for rendering. The combined &quot;srt&quot; matrix is an attribute in the shader program, so it is sent via a vertex buffer object. Note that this method is capable of taking an array of matrices if a count is specified (second parameter), in order to accomodate instanced rendering. If no second parameter is passed, it is assumed that the first parameter only points to a single matrix. Scene::info.vbo">
<polygon fill="white" stroke="black" points="356,-0 356,-30 480,-30 480,-0 356,-0"/>
<text text-anchor="start" x="364" y="-18" font-family="Helvetica,sans-Serif" font-size="10.00">OmniOGL::OGLMatrices</text>
<text text-anchor="middle" x="418" y="-7" font-family="Helvetica,sans-Serif" font-size="10.00">::UpdateSRT</text>
</a>
</g>
</g>
<!-- Node4&#45;&gt;Node5 -->
<g id="edge4" class="edge"><title>Node4&#45;&gt;Node5</title>
<path fill="none" stroke="midnightblue" d="M297.026,-15C312.601,-15 329.483,-15 345.529,-15"/>
<polygon fill="midnightblue" stroke="midnightblue" points="345.931,-18.5001 355.931,-15 345.931,-11.5001 345.931,-18.5001"/>
</g>
</g>
</svg>
