<?xml version="1.0" encoding="UTF-8" standalone="no"?>
<!DOCTYPE svg PUBLIC "-//W3C//DTD SVG 1.1//EN"
 "http://www.w3.org/Graphics/SVG/1.1/DTD/svg11.dtd">
<!-- Generated by graphviz version 2.30.1 (20130214.1330)
 -->
<!-- Title: OmniOGL::NetNode Pages: 1 -->
<svg width="626pt" height="600pt"
 viewBox="0.00 0.00 625.75 600.00" xmlns="http://www.w3.org/2000/svg" xmlns:xlink="http://www.w3.org/1999/xlink">
<g id="graph0" class="graph" transform="scale(1 1) rotate(0) translate(4 596)">
<title>OmniOGL::NetNode</title>
<polygon fill="white" stroke="white" points="-4,5 -4,-596 622.751,-596 622.751,5 -4,5"/>
<!-- Node1 -->
<g id="node1" class="node"><title>Node1</title>
<polygon fill="#bfbfbf" stroke="black" points="275.251,-118.5 275.251,-263.5 388.251,-263.5 388.251,-118.5 275.251,-118.5"/>
<text text-anchor="middle" x="331.751" y="-251.5" font-family="Helvetica,sans-Serif" font-size="10.00">OmniOGL::NetNode</text>
<polyline fill="none" stroke="black" points="275.251,-244.5 388.251,-244.5 "/>
<text text-anchor="middle" x="331.751" y="-232.5" font-family="Helvetica,sans-Serif" font-size="10.00"> </text>
<polyline fill="none" stroke="black" points="275.251,-225.5 388.251,-225.5 "/>
<text text-anchor="start" x="283.251" y="-213.5" font-family="Helvetica,sans-Serif" font-size="10.00">+ NetNode()</text>
<text text-anchor="start" x="283.251" y="-202.5" font-family="Helvetica,sans-Serif" font-size="10.00">+ ~NetNode()</text>
<text text-anchor="start" x="283.251" y="-191.5" font-family="Helvetica,sans-Serif" font-size="10.00">+ AddNeighbor()</text>
<text text-anchor="start" x="283.251" y="-180.5" font-family="Helvetica,sans-Serif" font-size="10.00">+ AddNormal()</text>
<text text-anchor="start" x="283.251" y="-169.5" font-family="Helvetica,sans-Serif" font-size="10.00">+ CommitNewVertex()</text>
<text text-anchor="start" x="283.251" y="-158.5" font-family="Helvetica,sans-Serif" font-size="10.00">+ GetDistance()</text>
<text text-anchor="start" x="283.251" y="-147.5" font-family="Helvetica,sans-Serif" font-size="10.00">+ GetVertices()</text>
<text text-anchor="start" x="283.251" y="-136.5" font-family="Helvetica,sans-Serif" font-size="10.00">+ Relax()</text>
<text text-anchor="start" x="283.251" y="-125.5" font-family="Helvetica,sans-Serif" font-size="10.00">+ UpdateConstraints()</text>
</g>
<!-- Node2 -->
<g id="node2" class="node"><title>Node2</title>
<polygon fill="white" stroke="#bfbfbf" points="346.751,-1 346.751,-69 460.751,-69 460.751,-1 346.751,-1"/>
<text text-anchor="start" x="354.751" y="-57" font-family="Helvetica,sans-Serif" font-size="10.00">std::vector&lt; OmniOGL</text>
<text text-anchor="middle" x="403.751" y="-46" font-family="Helvetica,sans-Serif" font-size="10.00">::NetNode * &gt;</text>
<polyline fill="none" stroke="#bfbfbf" points="346.751,-39 460.751,-39 "/>
<text text-anchor="middle" x="403.751" y="-27" font-family="Helvetica,sans-Serif" font-size="10.00"> </text>
<polyline fill="none" stroke="#bfbfbf" points="346.751,-20 460.751,-20 "/>
<text text-anchor="middle" x="403.751" y="-8" font-family="Helvetica,sans-Serif" font-size="10.00"> </text>
</g>
<!-- Node1&#45;&gt;Node2 -->
<g id="edge2" class="edge"><title>Node1&#45;&gt;Node2</title>
<path fill="none" stroke="#404040" d="M320.521,-118.475C321.408,-107.846 323.862,-97.3387 328.751,-88 331.19,-83.3414 334.257,-79.0168 337.748,-75.0178"/>
<polygon fill="none" stroke="#404040" points="338.046,-74.7223 339.491,-67.6574 346.568,-66.274 345.123,-73.3388 338.046,-74.7223"/>
<text text-anchor="middle" x="353.251" y="-91.5" font-family="Helvetica,sans-Serif" font-size="10.00"> +elements</text>
</g>
<!-- Node2&#45;&gt;Node1 -->
<g id="edge1" class="edge"><title>Node2&#45;&gt;Node1</title>
<path fill="none" stroke="#404040" d="M393.537,-69.3169C390.14,-79.3234 386.102,-90.2335 381.751,-100 380.658,-102.454 379.521,-104.931 378.348,-107.418"/>
<polygon fill="none" stroke="#404040" points="378.272,-107.574 379.237,-114.721 373.011,-118.36 372.046,-111.214 378.272,-107.574"/>
<text text-anchor="middle" x="412.251" y="-91.5" font-family="Helvetica,sans-Serif" font-size="10.00"> #neighbors</text>
</g>
<!-- Node3 -->
<g id="node3" class="node"><title>Node3</title>
<g id="a_node3"><a xlink:title="STL class.">
<polygon fill="white" stroke="#bfbfbf" points="287.251,-428.5 287.251,-485.5 372.251,-485.5 372.251,-428.5 287.251,-428.5"/>
<text text-anchor="middle" x="329.751" y="-473.5" font-family="Helvetica,sans-Serif" font-size="10.00">std::vector&lt; T &gt;</text>
<polyline fill="none" stroke="#bfbfbf" points="287.251,-466.5 372.251,-466.5 "/>
<text text-anchor="middle" x="329.751" y="-454.5" font-family="Helvetica,sans-Serif" font-size="10.00"> </text>
<polyline fill="none" stroke="#bfbfbf" points="287.251,-447.5 372.251,-447.5 "/>
<text text-anchor="middle" x="329.751" y="-435.5" font-family="Helvetica,sans-Serif" font-size="10.00"> </text>
</a>
</g>
</g>
<!-- Node3&#45;&gt;Node2 -->
<g id="edge3" class="edge"><title>Node3&#45;&gt;Node2</title>
<path fill="none" stroke="orange" d="M382.131,-446.7C419.726,-436.994 467.815,-417.669 491.751,-380 533.165,-314.827 448.875,-103.067 441.751,-88 438.74,-81.6317 434.91,-75.2485 430.846,-69.2435"/>
<polygon fill="orange" stroke="orange" points="381.221,-443.32 372.328,-449.079 382.872,-450.122 381.221,-443.32"/>
<text text-anchor="middle" x="560.251" y="-290.5" font-family="Helvetica,sans-Serif" font-size="10.00"> &lt; OmniOGL::NetNode * &gt;</text>
</g>
<!-- Node6 -->
<g id="node6" class="node"><title>Node6</title>
<polygon fill="white" stroke="#bfbfbf" points="220.251,-322.5 220.251,-379.5 341.251,-379.5 341.251,-322.5 220.251,-322.5"/>
<text text-anchor="middle" x="280.751" y="-367.5" font-family="Helvetica,sans-Serif" font-size="10.00">std::vector&lt; glm::vec3 &gt;</text>
<polyline fill="none" stroke="#bfbfbf" points="220.251,-360.5 341.251,-360.5 "/>
<text text-anchor="middle" x="280.751" y="-348.5" font-family="Helvetica,sans-Serif" font-size="10.00"> </text>
<polyline fill="none" stroke="#bfbfbf" points="220.251,-341.5 341.251,-341.5 "/>
<text text-anchor="middle" x="280.751" y="-329.5" font-family="Helvetica,sans-Serif" font-size="10.00"> </text>
</g>
<!-- Node3&#45;&gt;Node6 -->
<g id="edge8" class="edge"><title>Node3&#45;&gt;Node6</title>
<path fill="none" stroke="orange" d="M316.792,-419.02C314.016,-411.952 310.949,-404.678 307.751,-398 304.871,-391.987 301.475,-385.717 298.082,-379.811"/>
<polygon fill="orange" stroke="orange" points="313.555,-420.354 320.382,-428.457 320.098,-417.865 313.555,-420.354"/>
<text text-anchor="middle" x="344.251" y="-401.5" font-family="Helvetica,sans-Serif" font-size="10.00"> &lt; glm::vec3 &gt;</text>
</g>
<!-- Node9 -->
<g id="node9" class="node"><title>Node9</title>
<polygon fill="white" stroke="#bfbfbf" points="93.7512,-322.5 93.7512,-379.5 201.751,-379.5 201.751,-322.5 93.7512,-322.5"/>
<text text-anchor="middle" x="147.751" y="-367.5" font-family="Helvetica,sans-Serif" font-size="10.00">std::vector&lt; GLuint &gt;</text>
<polyline fill="none" stroke="#bfbfbf" points="93.7512,-360.5 201.751,-360.5 "/>
<text text-anchor="middle" x="147.751" y="-348.5" font-family="Helvetica,sans-Serif" font-size="10.00"> </text>
<polyline fill="none" stroke="#bfbfbf" points="93.7512,-341.5 201.751,-341.5 "/>
<text text-anchor="middle" x="147.751" y="-329.5" font-family="Helvetica,sans-Serif" font-size="10.00"> </text>
</g>
<!-- Node3&#45;&gt;Node9 -->
<g id="edge12" class="edge"><title>Node3&#45;&gt;Node9</title>
<path fill="none" stroke="orange" d="M278.249,-425.009C270.039,-420.016 261.651,-414.885 253.751,-410 245.256,-404.747 243.394,-403.005 234.751,-398 224.105,-391.836 212.566,-385.501 201.478,-379.578"/>
<polygon fill="orange" stroke="orange" points="276.692,-428.158 287.057,-430.354 280.323,-422.174 276.692,-428.158"/>
<text text-anchor="middle" x="278.751" y="-401.5" font-family="Helvetica,sans-Serif" font-size="10.00"> &lt; GLuint &gt;</text>
</g>
<!-- Node4 -->
<g id="node4" class="node"><title>Node4</title>
<polygon fill="white" stroke="#bfbfbf" points="315.251,-534.5 315.251,-591.5 344.251,-591.5 344.251,-534.5 315.251,-534.5"/>
<text text-anchor="middle" x="329.751" y="-579.5" font-family="Helvetica,sans-Serif" font-size="10.00">T</text>
<polyline fill="none" stroke="#bfbfbf" points="315.251,-572.5 344.251,-572.5 "/>
<text text-anchor="middle" x="329.751" y="-560.5" font-family="Helvetica,sans-Serif" font-size="10.00"> </text>
<polyline fill="none" stroke="#bfbfbf" points="315.251,-553.5 344.251,-553.5 "/>
<text text-anchor="middle" x="329.751" y="-541.5" font-family="Helvetica,sans-Serif" font-size="10.00"> </text>
</g>
<!-- Node4&#45;&gt;Node3 -->
<g id="edge4" class="edge"><title>Node4&#45;&gt;Node3</title>
<path fill="none" stroke="#404040" d="M329.751,-534.403C329.751,-523.237 329.751,-510.13 329.751,-497.956"/>
<polygon fill="none" stroke="#404040" points="329.751,-497.726 325.751,-491.726 329.751,-485.726 333.751,-491.726 329.751,-497.726"/>
<text text-anchor="middle" x="354.251" y="-507.5" font-family="Helvetica,sans-Serif" font-size="10.00"> +elements</text>
</g>
<!-- Node5 -->
<g id="node5" class="node"><title>Node5</title>
<polygon fill="white" stroke="#bfbfbf" points="359.251,-322.5 359.251,-379.5 406.251,-379.5 406.251,-322.5 359.251,-322.5"/>
<text text-anchor="middle" x="382.751" y="-367.5" font-family="Helvetica,sans-Serif" font-size="10.00">GLfloat</text>
<polyline fill="none" stroke="#bfbfbf" points="359.251,-360.5 406.251,-360.5 "/>
<text text-anchor="middle" x="382.751" y="-348.5" font-family="Helvetica,sans-Serif" font-size="10.00"> </text>
<polyline fill="none" stroke="#bfbfbf" points="359.251,-341.5 406.251,-341.5 "/>
<text text-anchor="middle" x="382.751" y="-329.5" font-family="Helvetica,sans-Serif" font-size="10.00"> </text>
</g>
<!-- Node5&#45;&gt;Node1 -->
<g id="edge5" class="edge"><title>Node5&#45;&gt;Node1</title>
<path fill="none" stroke="#404040" d="M373.868,-322.479C369.578,-309.189 364.177,-292.456 358.687,-275.448"/>
<polygon fill="none" stroke="#404040" points="358.571,-275.088 352.921,-270.607 354.885,-263.668 360.534,-268.149 358.571,-275.088"/>
<text text-anchor="middle" x="394.751" y="-296" font-family="Helvetica,sans-Serif" font-size="10.00"> #vertex</text>
<text text-anchor="middle" x="394.751" y="-285" font-family="Helvetica,sans-Serif" font-size="10.00">#new_vertex</text>
</g>
<!-- Node6&#45;&gt;Node1 -->
<g id="edge6" class="edge"><title>Node6&#45;&gt;Node1</title>
<path fill="none" stroke="#404040" d="M289.635,-322.479C293.924,-309.189 299.325,-292.456 304.815,-275.448"/>
<polygon fill="none" stroke="#404040" points="304.932,-275.088 302.968,-268.149 308.618,-263.668 310.581,-270.607 304.932,-275.088"/>
<text text-anchor="middle" x="323.251" y="-290.5" font-family="Helvetica,sans-Serif" font-size="10.00"> #normals</text>
</g>
<!-- Node7 -->
<g id="node7" class="node"><title>Node7</title>
<polygon fill="white" stroke="#bfbfbf" points="166.751,-428.5 166.751,-485.5 202.751,-485.5 202.751,-428.5 166.751,-428.5"/>
<text text-anchor="middle" x="184.751" y="-473.5" font-family="Helvetica,sans-Serif" font-size="10.00">vec3</text>
<polyline fill="none" stroke="#bfbfbf" points="166.751,-466.5 202.751,-466.5 "/>
<text text-anchor="middle" x="184.751" y="-454.5" font-family="Helvetica,sans-Serif" font-size="10.00"> </text>
<polyline fill="none" stroke="#bfbfbf" points="166.751,-447.5 202.751,-447.5 "/>
<text text-anchor="middle" x="184.751" y="-435.5" font-family="Helvetica,sans-Serif" font-size="10.00"> </text>
</g>
<!-- Node7&#45;&gt;Node6 -->
<g id="edge7" class="edge"><title>Node7&#45;&gt;Node6</title>
<path fill="none" stroke="#404040" d="M179.426,-428.274C178.89,-418.053 180.112,-406.826 185.751,-398 187.659,-395.014 197.085,-389.634 209.313,-383.578"/>
<polygon fill="none" stroke="#404040" points="209.326,-383.572 212.999,-377.366 220.14,-378.37 216.467,-384.576 209.326,-383.572"/>
<text text-anchor="middle" x="210.251" y="-401.5" font-family="Helvetica,sans-Serif" font-size="10.00"> +elements</text>
</g>
<!-- Node8 -->
<g id="node8" class="node"><title>Node8</title>
<polygon fill="white" stroke="#bfbfbf" points="424.751,-322.5 424.751,-379.5 482.751,-379.5 482.751,-322.5 424.751,-322.5"/>
<text text-anchor="middle" x="453.751" y="-367.5" font-family="Helvetica,sans-Serif" font-size="10.00">GLdouble</text>
<polyline fill="none" stroke="#bfbfbf" points="424.751,-360.5 482.751,-360.5 "/>
<text text-anchor="middle" x="453.751" y="-348.5" font-family="Helvetica,sans-Serif" font-size="10.00"> </text>
<polyline fill="none" stroke="#bfbfbf" points="424.751,-341.5 482.751,-341.5 "/>
<text text-anchor="middle" x="453.751" y="-329.5" font-family="Helvetica,sans-Serif" font-size="10.00"> </text>
</g>
<!-- Node8&#45;&gt;Node1 -->
<g id="edge9" class="edge"><title>Node8&#45;&gt;Node1</title>
<path fill="none" stroke="#404040" d="M443.806,-322.306C438.537,-309.461 431.365,-294.342 422.751,-282 415.254,-271.258 406.384,-260.691 397.171,-250.787"/>
<polygon fill="none" stroke="#404040" points="396.948,-250.555 389.908,-248.992 388.643,-241.893 395.683,-243.455 396.948,-250.555"/>
<text text-anchor="middle" x="461.751" y="-290.5" font-family="Helvetica,sans-Serif" font-size="10.00"> #constraint</text>
</g>
<!-- Node9&#45;&gt;Node1 -->
<g id="edge10" class="edge"><title>Node9&#45;&gt;Node1</title>
<path fill="none" stroke="#404040" d="M171.204,-322.422C182.621,-309.602 196.859,-294.471 210.751,-282 227.678,-266.805 247.053,-251.557 265.265,-238.042"/>
<polygon fill="none" stroke="#404040" points="265.276,-238.034 267.746,-231.259 274.95,-230.934 272.48,-237.709 265.276,-238.034"/>
<text text-anchor="middle" x="251.751" y="-290.5" font-family="Helvetica,sans-Serif" font-size="10.00"> #neighbor_indices</text>
</g>
<!-- Node10 -->
<g id="node10" class="node"><title>Node10</title>
<polygon fill="white" stroke="#bfbfbf" points="27.2512,-428.5 27.2512,-485.5 72.2512,-485.5 72.2512,-428.5 27.2512,-428.5"/>
<text text-anchor="middle" x="49.7512" y="-473.5" font-family="Helvetica,sans-Serif" font-size="10.00">GLuint</text>
<polyline fill="none" stroke="#bfbfbf" points="27.2512,-466.5 72.2512,-466.5 "/>
<text text-anchor="middle" x="49.7512" y="-454.5" font-family="Helvetica,sans-Serif" font-size="10.00"> </text>
<polyline fill="none" stroke="#bfbfbf" points="27.2512,-447.5 72.2512,-447.5 "/>
<text text-anchor="middle" x="49.7512" y="-435.5" font-family="Helvetica,sans-Serif" font-size="10.00"> </text>
</g>
<!-- Node10&#45;&gt;Node9 -->
<g id="edge11" class="edge"><title>Node10&#45;&gt;Node9</title>
<path fill="none" stroke="#404040" d="M72.4807,-431.879C84.5403,-419.081 99.6141,-403.084 113.098,-388.775"/>
<polygon fill="none" stroke="#404040" points="113.452,-388.399 114.656,-381.289 121.682,-379.665 120.478,-386.775 113.452,-388.399"/>
<text text-anchor="middle" x="126.251" y="-401.5" font-family="Helvetica,sans-Serif" font-size="10.00"> +elements</text>
</g>
<!-- Node10&#45;&gt;Node1 -->
<g id="edge13" class="edge"><title>Node10&#45;&gt;Node1</title>
<path fill="none" stroke="#404040" d="M28.6349,-428.255C9.61467,-399.604 -12.2465,-354.604 9.75116,-322 66.1257,-238.444 186.208,-208.579 262.738,-197.913"/>
<polygon fill="none" stroke="#404040" points="263.196,-197.854 268.63,-193.113 275.096,-196.305 269.663,-201.046 263.196,-197.854"/>
<text text-anchor="middle" x="47.2512" y="-348.5" font-family="Helvetica,sans-Serif" font-size="10.00"> #neighbor_count</text>
</g>
</g>
</svg>
