<?xml version="1.0" encoding="UTF-8" standalone="no"?>
<!DOCTYPE svg PUBLIC "-//W3C//DTD SVG 1.1//EN"
 "http://www.w3.org/Graphics/SVG/1.1/DTD/svg11.dtd">
<!-- Generated by graphviz version 2.30.1 (20130214.1330)
 -->
<!-- Title: OmniOGL::Scene::sTranslate Pages: 1 -->
<svg width="308pt" height="262pt"
 viewBox="0.00 0.00 308.00 262.00" xmlns="http://www.w3.org/2000/svg" xmlns:xlink="http://www.w3.org/1999/xlink">
<g id="graph0" class="graph" transform="scale(1 1) rotate(0) translate(4 258)">
<title>OmniOGL::Scene::sTranslate</title>
<polygon fill="white" stroke="white" points="-4,5 -4,-258 305,-258 305,5 -4,5"/>
<!-- Node1 -->
<g id="node1" class="node"><title>Node1</title>
<polygon fill="#bfbfbf" stroke="black" points="0.5,-125.5 0.5,-144.5 145.5,-144.5 145.5,-125.5 0.5,-125.5"/>
<text text-anchor="middle" x="73" y="-132.5" font-family="Helvetica,sans-Serif" font-size="10.00">OmniOGL::Scene::sTranslate</text>
</g>
<!-- Node2 -->
<g id="node2" class="node"><title>Node2</title>
<g id="a_node2"><a xlink:href="class_omni_o_g_l_1_1_blender_obj.html#afcd64d1d531ec5f31a4bbe184c4ccd48" target="_top" xlink:title="The draw method which must be implemented in order for the class to be instantiable. This method is responsible for sending the vertices, normals, etc. necessary to draw the object to the shader program, set all necessary options to their desired state, and finally invoke the desired OpenGL draw call. At the time being this method implementation is fairly rudimentary as it contains no logic to determine whether or not it needs send its data to the graphics card (it sends its data blindly).">
<polygon fill="white" stroke="black" points="184,-224 184,-254 298,-254 298,-224 184,-224"/>
<text text-anchor="start" x="192" y="-242" font-family="Helvetica,sans-Serif" font-size="10.00">OmniOGL::BlenderObj</text>
<text text-anchor="middle" x="241" y="-231" font-family="Helvetica,sans-Serif" font-size="10.00">::Draw</text>
</a>
</g>
</g>
<!-- Node1&#45;&gt;Node2 -->
<g id="edge1" class="edge"><title>Node1&#45;&gt;Node2</title>
<path fill="none" stroke="midnightblue" d="M93.2044,-151.114C114.126,-168.163 149.029,-195.154 182,-214 188.188,-217.537 194.973,-220.889 201.652,-223.923"/>
<polygon fill="midnightblue" stroke="midnightblue" points="95.3382,-148.337 85.3944,-144.68 90.8876,-153.74 95.3382,-148.337"/>
</g>
<!-- Node3 -->
<g id="node3" class="node"><title>Node3</title>
<g id="a_node3"><a xlink:href="class_omni_o_g_l_1_1_cube.html#af17ad72ba759cea86eec434588f04d8a" target="_top" xlink:title="A method which is called each frame in order to render the object to the screen. This method is respo...">
<polygon fill="white" stroke="black" points="183,-185.5 183,-204.5 299,-204.5 299,-185.5 183,-185.5"/>
<text text-anchor="middle" x="241" y="-192.5" font-family="Helvetica,sans-Serif" font-size="10.00">OmniOGL::Cube::Draw</text>
</a>
</g>
</g>
<!-- Node1&#45;&gt;Node3 -->
<g id="edge2" class="edge"><title>Node1&#45;&gt;Node3</title>
<path fill="none" stroke="midnightblue" d="M107.861,-148.315C129.071,-156.541 157.024,-167.174 182,-176 191.091,-179.213 201.048,-182.542 210.106,-185.5"/>
<polygon fill="midnightblue" stroke="midnightblue" points="108.919,-144.971 98.3304,-144.605 106.38,-151.494 108.919,-144.971"/>
</g>
<!-- Node4 -->
<g id="node4" class="node"><title>Node4</title>
<g id="a_node4"><a xlink:href="class_omni_o_g_l_1_1_floor.html#a64e76510ea0c09dfd0181b2e51288faa" target="_top" xlink:title="A method which will be called each frame for each Floor object and is responsible for binding relevan...">
<polygon fill="white" stroke="black" points="183,-147.5 183,-166.5 299,-166.5 299,-147.5 183,-147.5"/>
<text text-anchor="middle" x="241" y="-154.5" font-family="Helvetica,sans-Serif" font-size="10.00">OmniOGL::Floor::Draw</text>
</a>
</g>
</g>
<!-- Node1&#45;&gt;Node4 -->
<g id="edge3" class="edge"><title>Node1&#45;&gt;Node4</title>
<path fill="none" stroke="midnightblue" d="M156.032,-145.872C165.081,-147.071 174.146,-148.272 182.795,-149.419"/>
<polygon fill="midnightblue" stroke="midnightblue" points="156.218,-142.366 145.845,-144.522 155.298,-149.305 156.218,-142.366"/>
</g>
<!-- Node5 -->
<g id="node5" class="node"><title>Node5</title>
<g id="a_node5"><a xlink:href="class_omni_o_g_l_1_1_text_overlay.html#a21150746059ec6c2ce5a48169aff6f14" target="_top" xlink:title="A method which will be called each frame for each TextOverlay object and is responsible for binding r...">
<polygon fill="white" stroke="black" points="182.5,-98 182.5,-128 299.5,-128 299.5,-98 182.5,-98"/>
<text text-anchor="start" x="190.5" y="-116" font-family="Helvetica,sans-Serif" font-size="10.00">OmniOGL::TextOverlay</text>
<text text-anchor="middle" x="241" y="-105" font-family="Helvetica,sans-Serif" font-size="10.00">::Draw</text>
</a>
</g>
</g>
<!-- Node1&#45;&gt;Node5 -->
<g id="edge4" class="edge"><title>Node1&#45;&gt;Node5</title>
<path fill="none" stroke="midnightblue" d="M155.887,-124.148C164.808,-122.965 173.745,-121.781 182.288,-120.649"/>
<polygon fill="midnightblue" stroke="midnightblue" points="155.298,-120.695 145.845,-125.478 156.218,-127.634 155.298,-120.695"/>
</g>
<!-- Node6 -->
<g id="node6" class="node"><title>Node6</title>
<g id="a_node6"><a xlink:href="class_omni_o_g_l_1_1_line_strip.html#a7537f5cb2b6fa75d43aae512accab828" target="_top" xlink:title="when commenting, note that we translate to 0,0,0 instead of the object&#39;s origin">
<polygon fill="white" stroke="black" points="189,-49 189,-79 293,-79 293,-49 189,-49"/>
<text text-anchor="start" x="197" y="-67" font-family="Helvetica,sans-Serif" font-size="10.00">OmniOGL::LineStrip</text>
<text text-anchor="middle" x="241" y="-56" font-family="Helvetica,sans-Serif" font-size="10.00">::Draw</text>
</a>
</g>
</g>
<!-- Node1&#45;&gt;Node6 -->
<g id="edge5" class="edge"><title>Node1&#45;&gt;Node6</title>
<path fill="none" stroke="midnightblue" d="M105.804,-121.397C134.075,-109.305 175.349,-91.6519 204.646,-79.1211"/>
<polygon fill="midnightblue" stroke="midnightblue" points="104.205,-118.274 96.3875,-125.425 106.958,-124.71 104.205,-118.274"/>
</g>
<!-- Node7 -->
<g id="node7" class="node"><title>Node7</title>
<g id="a_node7"><a xlink:href="class_omni_o_g_l_1_1_block_array.html#ac05ba87741d5756b0d1001a8aeb45daa" target="_top" xlink:title="OmniOGL::BlockArray\l::Draw">
<polygon fill="white" stroke="black" points="184,-0 184,-30 298,-30 298,-0 184,-0"/>
<text text-anchor="start" x="192" y="-18" font-family="Helvetica,sans-Serif" font-size="10.00">OmniOGL::BlockArray</text>
<text text-anchor="middle" x="241" y="-7" font-family="Helvetica,sans-Serif" font-size="10.00">::Draw</text>
</a>
</g>
</g>
<!-- Node1&#45;&gt;Node7 -->
<g id="edge6" class="edge"><title>Node1&#45;&gt;Node7</title>
<path fill="none" stroke="midnightblue" d="M90.0956,-117.864C110.111,-97.3004 146.047,-62.7521 182,-40 187.745,-36.3646 194.109,-33.0238 200.455,-30.048"/>
<polygon fill="midnightblue" stroke="midnightblue" points="87.4027,-115.616 83.0036,-125.254 92.4531,-120.463 87.4027,-115.616"/>
</g>
</g>
</svg>
