<?xml version="1.0" encoding="UTF-8" standalone="no"?>
<!DOCTYPE svg PUBLIC "-//W3C//DTD SVG 1.1//EN"
 "http://www.w3.org/Graphics/SVG/1.1/DTD/svg11.dtd">
<!-- Generated by graphviz version 2.30.1 (20130214.1330)
 -->
<!-- Title: OmniOGL::Scene::AddObject Pages: 1 -->
<svg width="872pt" height="124pt"
 viewBox="0.00 0.00 872.00 123.96" xmlns="http://www.w3.org/2000/svg" xmlns:xlink="http://www.w3.org/1999/xlink">
<g id="graph0" class="graph" transform="scale(1 1) rotate(0) translate(4 119.961)">
<title>OmniOGL::Scene::AddObject</title>
<polygon fill="white" stroke="white" points="-4,5 -4,-119.961 869,-119.961 869,5 -4,5"/>
<!-- Node1 -->
<g id="node1" class="node"><title>Node1</title>
<polygon fill="#bfbfbf" stroke="black" points="0,-57.5 0,-76.5 146,-76.5 146,-57.5 0,-57.5"/>
<text text-anchor="middle" x="73" y="-64.5" font-family="Helvetica,sans-Serif" font-size="10.00">OmniOGL::Scene::AddObject</text>
</g>
<!-- Node2 -->
<g id="node2" class="node"><title>Node2</title>
<g id="a_node2"><a xlink:href="_exec_8cpp.html#a38c5e7def3be6ea702581ee4a92b9cc0" target="_top" xlink:title="render">
<polygon fill="white" stroke="black" points="728,-38.5 728,-57.5 772,-57.5 772,-38.5 728,-38.5"/>
<text text-anchor="middle" x="750" y="-45.5" font-family="Helvetica,sans-Serif" font-size="10.00">render</text>
</a>
</g>
</g>
<!-- Node1&#45;&gt;Node2 -->
<g id="edge1" class="edge"><title>Node1&#45;&gt;Node2</title>
<path fill="none" stroke="midnightblue" d="M103.996,-80.6443C125.271,-89.5471 154.768,-100.349 182,-105 393.134,-141.06 652.681,-75.3608 727.749,-54.2278"/>
<polygon fill="midnightblue" stroke="midnightblue" points="105.118,-77.3171 94.5477,-76.5893 102.357,-83.7497 105.118,-77.3171"/>
</g>
<!-- Node4 -->
<g id="node4" class="node"><title>Node4</title>
<g id="a_node4"><a xlink:href="class_omni_o_g_l_1_1_scene.html#a8601c13e69f3269928209f1ffdf2584a" target="_top" xlink:title="The constructor for the Scene class. This is a fairly busy constructor since it&#39;s responsible for ini...">
<polygon fill="white" stroke="black" points="200,-76.5 200,-95.5 328,-95.5 328,-76.5 200,-76.5"/>
<text text-anchor="middle" x="264" y="-83.5" font-family="Helvetica,sans-Serif" font-size="10.00">OmniOGL::Scene::Scene</text>
</a>
</g>
</g>
<!-- Node1&#45;&gt;Node4 -->
<g id="edge3" class="edge"><title>Node1&#45;&gt;Node4</title>
<path fill="none" stroke="midnightblue" d="M156.266,-75.2701C170.833,-76.7345 185.794,-78.2386 199.734,-79.6399"/>
<polygon fill="midnightblue" stroke="midnightblue" points="156.562,-71.7823 146.262,-74.2644 155.862,-78.7472 156.562,-71.7823"/>
</g>
<!-- Node5 -->
<g id="node5" class="node"><title>Node5</title>
<g id="a_node5"><a xlink:href="class_omni_o_g_l_1_1_scene.html#ad03a14cbdf1446c4e9300db0a18a8ebf" target="_top" xlink:title="Configures lighting parameters for the Scene including the sole light&#39;s position and color...">
<polygon fill="white" stroke="black" points="389,-38.5 389,-57.5 527,-57.5 527,-38.5 389,-38.5"/>
<text text-anchor="middle" x="458" y="-45.5" font-family="Helvetica,sans-Serif" font-size="10.00">OmniOGL::Scene::AddLight</text>
</a>
</g>
</g>
<!-- Node1&#45;&gt;Node5 -->
<g id="edge4" class="edge"><title>Node1&#45;&gt;Node5</title>
<path fill="none" stroke="midnightblue" d="M156.06,-62.9291C225.449,-59.4869 323.694,-54.6131 388.822,-51.3822"/>
<polygon fill="midnightblue" stroke="midnightblue" points="155.854,-59.435 146.039,-63.4262 156.201,-66.4264 155.854,-59.435"/>
</g>
<!-- Node6 -->
<g id="node6" class="node"><title>Node6</title>
<g id="a_node6"><a xlink:href="class_omni_o_g_l_1_1_scene.html#ad54723f8249185236e8bc77315b3622c" target="_top" xlink:title="In the current implementation this function must determine the derived type of the shared pointer pas...">
<polygon fill="white" stroke="black" points="182,-0.5 182,-19.5 346,-19.5 346,-0.5 182,-0.5"/>
<text text-anchor="middle" x="264" y="-7.5" font-family="Helvetica,sans-Serif" font-size="10.00">OmniOGL::Scene::AddDerivedObj</text>
</a>
</g>
</g>
<!-- Node1&#45;&gt;Node6 -->
<g id="edge6" class="edge"><title>Node1&#45;&gt;Node6</title>
<path fill="none" stroke="midnightblue" d="M114.975,-54.3905C135.147,-48.2055 159.836,-40.6695 182,-34 198.011,-29.182 215.825,-23.8957 230.661,-19.5137"/>
<polygon fill="midnightblue" stroke="midnightblue" points="113.704,-51.1192 105.171,-57.399 115.758,-57.8112 113.704,-51.1192"/>
</g>
<!-- Node3 -->
<g id="node3" class="node"><title>Node3</title>
<g id="a_node3"><a xlink:href="_exec_8cpp.html#a66e65252a6985e382838442f280f46ba" target="_top" xlink:title="WinMain">
<polygon fill="white" stroke="black" points="808.5,-38.5 808.5,-57.5 863.5,-57.5 863.5,-38.5 808.5,-38.5"/>
<text text-anchor="middle" x="836" y="-45.5" font-family="Helvetica,sans-Serif" font-size="10.00">WinMain</text>
</a>
</g>
</g>
<!-- Node2&#45;&gt;Node3 -->
<g id="edge2" class="edge"><title>Node2&#45;&gt;Node3</title>
<path fill="none" stroke="midnightblue" d="M782.253,-48C790.845,-48 800.081,-48 808.386,-48"/>
<polygon fill="midnightblue" stroke="midnightblue" points="782.197,-44.5001 772.197,-48 782.197,-51.5001 782.197,-44.5001"/>
</g>
<!-- Node5&#45;&gt;Node2 -->
<g id="edge5" class="edge"><title>Node5&#45;&gt;Node2</title>
<path fill="none" stroke="midnightblue" d="M537.469,-48C601.721,-48 688.227,-48 727.729,-48"/>
<polygon fill="midnightblue" stroke="midnightblue" points="537.359,-44.5001 527.359,-48 537.359,-51.5001 537.359,-44.5001"/>
</g>
<!-- Node7 -->
<g id="node7" class="node"><title>Node7</title>
<g id="a_node7"><a xlink:href="class_omni_o_g_l_1_1_scene.html#aaf90a48c617a97b06e8b75320c0271b0" target="_top" xlink:title="OmniOGL::Scene::HandleInput">
<polygon fill="white" stroke="black" points="382.5,-0.5 382.5,-19.5 533.5,-19.5 533.5,-0.5 382.5,-0.5"/>
<text text-anchor="middle" x="458" y="-7.5" font-family="Helvetica,sans-Serif" font-size="10.00">OmniOGL::Scene::HandleInput</text>
</a>
</g>
</g>
<!-- Node6&#45;&gt;Node7 -->
<g id="edge7" class="edge"><title>Node6&#45;&gt;Node7</title>
<path fill="none" stroke="midnightblue" d="M356.308,-10C364.999,-10 373.741,-10 382.249,-10"/>
<polygon fill="midnightblue" stroke="midnightblue" points="356.147,-6.5001 346.147,-10 356.147,-13.5001 356.147,-6.5001"/>
</g>
<!-- Node8 -->
<g id="node8" class="node"><title>Node8</title>
<g id="a_node8"><a xlink:href="class_omni_o_g_l_1_1_scene.html#ac65b18faabaa3d2af9a0a4b2f2fc0fe0" target="_top" xlink:title="The core of the rendering loop! This method iterates through all possible containers of objects&#45;to&#45;be...">
<polygon fill="white" stroke="black" points="570,-0.5 570,-19.5 692,-19.5 692,-0.5 570,-0.5"/>
<text text-anchor="middle" x="631" y="-7.5" font-family="Helvetica,sans-Serif" font-size="10.00">OmniOGL::Scene::Draw</text>
</a>
</g>
</g>
<!-- Node7&#45;&gt;Node8 -->
<g id="edge8" class="edge"><title>Node7&#45;&gt;Node8</title>
<path fill="none" stroke="midnightblue" d="M543.52,-10C552.413,-10 561.32,-10 569.856,-10"/>
<polygon fill="midnightblue" stroke="midnightblue" points="543.506,-6.5001 533.506,-10 543.506,-13.5001 543.506,-6.5001"/>
</g>
<!-- Node8&#45;&gt;Node2 -->
<g id="edge9" class="edge"><title>Node8&#45;&gt;Node2</title>
<path fill="none" stroke="midnightblue" d="M671.128,-22.7082C690.123,-28.8776 712.19,-36.0446 727.973,-41.1707"/>
<polygon fill="midnightblue" stroke="midnightblue" points="672.116,-19.3493 661.524,-19.589 669.954,-26.0069 672.116,-19.3493"/>
</g>
</g>
</svg>
