<?xml version="1.0" encoding="UTF-8" standalone="no"?>
<!DOCTYPE svg PUBLIC "-//W3C//DTD SVG 1.1//EN"
 "http://www.w3.org/Graphics/SVG/1.1/DTD/svg11.dtd">
<!-- Generated by graphviz version 2.30.1 (20130214.1330)
 -->
<!-- Title: OmniOGL::RenObj::operator= Pages: 1 -->
<svg width="330pt" height="301pt"
 viewBox="0.00 0.00 330.00 301.00" xmlns="http://www.w3.org/2000/svg" xmlns:xlink="http://www.w3.org/1999/xlink">
<g id="graph0" class="graph" transform="scale(1 1) rotate(0) translate(4 297)">
<title>OmniOGL::RenObj::operator=</title>
<polygon fill="white" stroke="white" points="-4,5 -4,-297 327,-297 327,5 -4,5"/>
<!-- Node1 -->
<g id="node1" class="node"><title>Node1</title>
<polygon fill="#bfbfbf" stroke="black" points="0,-142.5 0,-161.5 146,-161.5 146,-142.5 0,-142.5"/>
<text text-anchor="middle" x="73" y="-149.5" font-family="Helvetica,sans-Serif" font-size="10.00">OmniOGL::RenObj::operator=</text>
</g>
<!-- Node2 -->
<g id="node2" class="node"><title>Node2</title>
<g id="a_node2"><a xlink:href="class_omni_o_g_l_1_1_blender_obj.html#adaa4f366633bf3f03e0712ce346b6960" target="_top" xlink:title="The assignment operator method. Since the BlenderObj class has no unique members this method simply i...">
<polygon fill="white" stroke="black" points="195,-263 195,-293 309,-293 309,-263 195,-263"/>
<text text-anchor="start" x="203" y="-281" font-family="Helvetica,sans-Serif" font-size="10.00">OmniOGL::BlenderObj</text>
<text text-anchor="middle" x="252" y="-270" font-family="Helvetica,sans-Serif" font-size="10.00">::operator=</text>
</a>
</g>
</g>
<!-- Node1&#45;&gt;Node2 -->
<g id="edge1" class="edge"><title>Node1&#45;&gt;Node2</title>
<path fill="none" stroke="midnightblue" d="M88.4884,-169.343C107.792,-191.479 143.958,-229.689 182,-253 188.084,-256.728 194.808,-260.021 201.6,-262.892"/>
<polygon fill="midnightblue" stroke="midnightblue" points="91.1122,-167.026 81.9469,-161.711 85.7973,-171.582 91.1122,-167.026"/>
</g>
<!-- Node3 -->
<g id="node3" class="node"><title>Node3</title>
<g id="a_node3"><a xlink:href="class_omni_o_g_l_1_1_cube.html#a86352bb28ba6e31c2a1c995b30a3cd25" target="_top" xlink:title="The &quot;= operator&quot; for the Cube class. This method sets all of the Cube class members of one Cube to be...">
<polygon fill="white" stroke="black" points="184,-224.5 184,-243.5 320,-243.5 320,-224.5 184,-224.5"/>
<text text-anchor="middle" x="252" y="-231.5" font-family="Helvetica,sans-Serif" font-size="10.00">OmniOGL::Cube::operator=</text>
</a>
</g>
</g>
<!-- Node1&#45;&gt;Node3 -->
<g id="edge2" class="edge"><title>Node1&#45;&gt;Node3</title>
<path fill="none" stroke="midnightblue" d="M96.022,-167.147C117.245,-181.178 150.664,-201.811 182,-215 190.704,-218.663 200.321,-221.826 209.542,-224.463"/>
<polygon fill="midnightblue" stroke="midnightblue" points="97.97,-164.239 87.7146,-161.579 94.0726,-170.054 97.97,-164.239"/>
</g>
<!-- Node4 -->
<g id="node4" class="node"><title>Node4</title>
<g id="a_node4"><a xlink:href="class_omni_o_g_l_1_1_floor.html#a2f9d6cc54ea9629077201252b2deac27" target="_top" xlink:title="Assignment operator method. This method is called whenever a Floor is on the left&#45;hand side of an &#39;=&#39;...">
<polygon fill="white" stroke="black" points="184.5,-186.5 184.5,-205.5 319.5,-205.5 319.5,-186.5 184.5,-186.5"/>
<text text-anchor="middle" x="252" y="-193.5" font-family="Helvetica,sans-Serif" font-size="10.00">OmniOGL::Floor::operator=</text>
</a>
</g>
</g>
<!-- Node1&#45;&gt;Node4 -->
<g id="edge3" class="edge"><title>Node1&#45;&gt;Node4</title>
<path fill="none" stroke="midnightblue" d="M122.148,-163.969C150.598,-171.041 186.128,-179.874 212.669,-186.471"/>
<polygon fill="midnightblue" stroke="midnightblue" points="122.955,-160.563 112.406,-161.547 121.267,-167.356 122.955,-160.563"/>
</g>
<!-- Node5 -->
<g id="node5" class="node"><title>Node5</title>
<g id="a_node5"><a xlink:href="class_omni_o_g_l_1_1_text_overlay.html#aac511da2435b188ccb84ae6e1de1c7f0" target="_top" xlink:title="The assignment operator method for this class. This method is responsible for setting all of the memb...">
<polygon fill="white" stroke="black" points="193.5,-137 193.5,-167 310.5,-167 310.5,-137 193.5,-137"/>
<text text-anchor="start" x="201.5" y="-155" font-family="Helvetica,sans-Serif" font-size="10.00">OmniOGL::TextOverlay</text>
<text text-anchor="middle" x="252" y="-144" font-family="Helvetica,sans-Serif" font-size="10.00">::operator=</text>
</a>
</g>
</g>
<!-- Node1&#45;&gt;Node5 -->
<g id="edge4" class="edge"><title>Node1&#45;&gt;Node5</title>
<path fill="none" stroke="midnightblue" d="M156.615,-152C169.027,-152 181.593,-152 193.332,-152"/>
<polygon fill="midnightblue" stroke="midnightblue" points="156.248,-148.5 146.248,-152 156.248,-155.5 156.248,-148.5"/>
</g>
<!-- Node6 -->
<g id="node6" class="node"><title>Node6</title>
<g id="a_node6"><a xlink:href="class_omni_o_g_l_1_1_line_strip.html#a16bb6a0a3573bdd448482cf67f983e6e" target="_top" xlink:title="The assignment operator method which is responsible for copying the data of one instance over to the ...">
<polygon fill="white" stroke="black" points="200,-88 200,-118 304,-118 304,-88 200,-88"/>
<text text-anchor="start" x="208" y="-106" font-family="Helvetica,sans-Serif" font-size="10.00">OmniOGL::LineStrip</text>
<text text-anchor="middle" x="252" y="-95" font-family="Helvetica,sans-Serif" font-size="10.00">::operator=</text>
</a>
</g>
</g>
<!-- Node1&#45;&gt;Node6 -->
<g id="edge5" class="edge"><title>Node1&#45;&gt;Node6</title>
<path fill="none" stroke="midnightblue" d="M118.388,-139.712C143.117,-132.866 174.021,-124.311 199.773,-117.182"/>
<polygon fill="midnightblue" stroke="midnightblue" points="117.251,-136.395 108.548,-142.436 119.119,-143.141 117.251,-136.395"/>
</g>
<!-- Node7 -->
<g id="node7" class="node"><title>Node7</title>
<g id="a_node7"><a xlink:href="class_omni_o_g_l_1_1_block_array.html#aa65d78b3ff0f2d2c27011a8f057aa07d" target="_top" xlink:title="The &quot;=&quot; operator method for the BlockArray class. This method copies all data from one existing Block...">
<polygon fill="white" stroke="black" points="195,-39 195,-69 309,-69 309,-39 195,-39"/>
<text text-anchor="start" x="203" y="-57" font-family="Helvetica,sans-Serif" font-size="10.00">OmniOGL::BlockArray</text>
<text text-anchor="middle" x="252" y="-46" font-family="Helvetica,sans-Serif" font-size="10.00">::operator=</text>
</a>
</g>
</g>
<!-- Node1&#45;&gt;Node7 -->
<g id="edge6" class="edge"><title>Node1&#45;&gt;Node7</title>
<path fill="none" stroke="midnightblue" d="M94.1658,-136.133C115.185,-120.145 149.531,-95.534 182,-79 189.039,-75.4154 196.716,-72.1007 204.309,-69.1355"/>
<polygon fill="midnightblue" stroke="midnightblue" points="91.8044,-133.534 86.0176,-142.409 96.0759,-139.08 91.8044,-133.534"/>
</g>
<!-- Node8 -->
<g id="node8" class="node"><title>Node8</title>
<g id="a_node8"><a xlink:href="class_omni_o_g_l_1_1_group.html#a3ed0d1f33c3001ac2c6f0f86144d71ab" target="_top" xlink:title="The assignment operator method which is responsible for copying the data of one instance over to the ...">
<polygon fill="white" stroke="black" points="182,-0.5 182,-19.5 322,-19.5 322,-0.5 182,-0.5"/>
<text text-anchor="middle" x="252" y="-7.5" font-family="Helvetica,sans-Serif" font-size="10.00">OmniOGL::Group::operator=</text>
</a>
</g>
</g>
<!-- Node1&#45;&gt;Node8 -->
<g id="edge7" class="edge"><title>Node1&#45;&gt;Node8</title>
<path fill="none" stroke="midnightblue" d="M85.2957,-133.681C102.741,-106.917 138.782,-57.3463 182,-30 188.851,-25.6652 196.671,-22.2423 204.526,-19.5476"/>
<polygon fill="midnightblue" stroke="midnightblue" points="82.1466,-132.11 79.7309,-142.426 88.0524,-135.868 82.1466,-132.11"/>
</g>
</g>
</svg>
