<?xml version="1.0" encoding="UTF-8" standalone="no"?>
<!DOCTYPE svg PUBLIC "-//W3C//DTD SVG 1.1//EN"
 "http://www.w3.org/Graphics/SVG/1.1/DTD/svg11.dtd">
<!-- Generated by graphviz version 2.30.1 (20130214.1330)
 -->
<!-- Title: OmniOGL::Scene::GlobalInitialization Pages: 1 -->
<svg width="514pt" height="136pt"
 viewBox="0.00 0.00 514.00 136.00" xmlns="http://www.w3.org/2000/svg" xmlns:xlink="http://www.w3.org/1999/xlink">
<g id="graph0" class="graph" transform="scale(1 1) rotate(0) translate(4 132)">
<title>OmniOGL::Scene::GlobalInitialization</title>
<polygon fill="white" stroke="white" points="-4,5 -4,-132 511,-132 511,5 -4,5"/>
<!-- Node1 -->
<g id="node1" class="node"><title>Node1</title>
<polygon fill="#bfbfbf" stroke="black" points="0.5,-54.5 0.5,-73.5 179.5,-73.5 179.5,-54.5 0.5,-54.5"/>
<text text-anchor="middle" x="90" y="-61.5" font-family="Helvetica,sans-Serif" font-size="10.00">OmniOGL::Scene::GlobalInitialization</text>
</g>
<!-- Node2 -->
<g id="node2" class="node"><title>Node2</title>
<g id="a_node2"><a xlink:href="class_omni_o_g_l_1_1_o_g_l_buffers.html#aced7928dd8f160dffc9f6476ed46ccc7" target="_top" xlink:title="OmniOGL::OGLBuffers\l::CreateVAO">
<polygon fill="white" stroke="black" points="216,-98 216,-128 332,-128 332,-98 216,-98"/>
<text text-anchor="start" x="224" y="-116" font-family="Helvetica,sans-Serif" font-size="10.00">OmniOGL::OGLBuffers</text>
<text text-anchor="middle" x="274" y="-105" font-family="Helvetica,sans-Serif" font-size="10.00">::CreateVAO</text>
</a>
</g>
</g>
<!-- Node1&#45;&gt;Node2 -->
<g id="edge1" class="edge"><title>Node1&#45;&gt;Node2</title>
<path fill="none" stroke="midnightblue" d="M126.523,-73.564C149.465,-79.7405 180.013,-87.9649 207.274,-95.3045"/>
<polygon fill="midnightblue" stroke="midnightblue" points="206.582,-98.7429 217.148,-97.963 208.402,-91.9836 206.582,-98.7429"/>
</g>
<!-- Node4 -->
<g id="node4" class="node"><title>Node4</title>
<g id="a_node4"><a xlink:href="class_omni_o_g_l_1_1_o_g_l_buffers.html#a3cd416254327ba7bfe8dd27bf1758ea8" target="_top" xlink:title="A simple wrapper around glGenBuffers() which also increments a global counter keeping track of how ma...">
<polygon fill="white" stroke="black" points="216,-49 216,-79 332,-79 332,-49 216,-49"/>
<text text-anchor="start" x="224" y="-67" font-family="Helvetica,sans-Serif" font-size="10.00">OmniOGL::OGLBuffers</text>
<text text-anchor="middle" x="274" y="-56" font-family="Helvetica,sans-Serif" font-size="10.00">::CreateVBO</text>
</a>
</g>
</g>
<!-- Node1&#45;&gt;Node4 -->
<g id="edge3" class="edge"><title>Node1&#45;&gt;Node4</title>
<path fill="none" stroke="midnightblue" d="M179.601,-64C188.342,-64 197.112,-64 205.589,-64"/>
<polygon fill="midnightblue" stroke="midnightblue" points="205.761,-67.5001 215.761,-64 205.761,-60.5001 205.761,-67.5001"/>
</g>
<!-- Node6 -->
<g id="node6" class="node"><title>Node6</title>
<g id="a_node6"><a xlink:href="class_omni_o_g_l_1_1_o_g_l_buffers.html#aab5c455cf9fec77c007a9b69b1c5339a" target="_top" xlink:title="A simple wrapper around glGenBuffers() which also increments a global counter keeping track of how ma...">
<polygon fill="white" stroke="black" points="216,-0 216,-30 332,-30 332,-0 216,-0"/>
<text text-anchor="start" x="224" y="-18" font-family="Helvetica,sans-Serif" font-size="10.00">OmniOGL::OGLBuffers</text>
<text text-anchor="middle" x="274" y="-7" font-family="Helvetica,sans-Serif" font-size="10.00">::CreateEBO</text>
</a>
</g>
</g>
<!-- Node1&#45;&gt;Node6 -->
<g id="edge5" class="edge"><title>Node1&#45;&gt;Node6</title>
<path fill="none" stroke="midnightblue" d="M126.523,-54.436C149.465,-48.2595 180.013,-40.0351 207.274,-32.6955"/>
<polygon fill="midnightblue" stroke="midnightblue" points="208.402,-36.0164 217.148,-30.037 206.582,-29.2571 208.402,-36.0164"/>
</g>
<!-- Node3 -->
<g id="node3" class="node"><title>Node3</title>
<g id="a_node3"><a xlink:href="class_omni_o_g_l_1_1_o_g_l_buffers.html#a966449fc915c1e54317bc4189476a83a" target="_top" xlink:title="OmniOGL::OGLBuffers::vao">
<polygon fill="white" stroke="black" points="368.5,-103.5 368.5,-122.5 505.5,-122.5 505.5,-103.5 368.5,-103.5"/>
<text text-anchor="middle" x="437" y="-110.5" font-family="Helvetica,sans-Serif" font-size="10.00">OmniOGL::OGLBuffers::vao</text>
</a>
</g>
</g>
<!-- Node2&#45;&gt;Node3 -->
<g id="edge2" class="edge"><title>Node2&#45;&gt;Node3</title>
<path fill="none" stroke="midnightblue" d="M332.216,-113C340.596,-113 349.345,-113 358.053,-113"/>
<polygon fill="midnightblue" stroke="midnightblue" points="358.234,-116.5 368.234,-113 358.234,-109.5 358.234,-116.5"/>
</g>
<!-- Node5 -->
<g id="node5" class="node"><title>Node5</title>
<g id="a_node5"><a xlink:href="class_omni_o_g_l_1_1_o_g_l_buffers.html#aee0431bf99d4f232db33ad6b10780088" target="_top" xlink:title="OmniOGL::OGLBuffers::vbo">
<polygon fill="white" stroke="black" points="368.5,-30.5 368.5,-49.5 505.5,-49.5 505.5,-30.5 368.5,-30.5"/>
<text text-anchor="middle" x="437" y="-37.5" font-family="Helvetica,sans-Serif" font-size="10.00">OmniOGL::OGLBuffers::vbo</text>
</a>
</g>
</g>
<!-- Node4&#45;&gt;Node5 -->
<g id="edge4" class="edge"><title>Node4&#45;&gt;Node5</title>
<path fill="none" stroke="midnightblue" d="M332.216,-55.4709C341.909,-54.0259 352.096,-52.5074 362.143,-51.0097"/>
<polygon fill="midnightblue" stroke="midnightblue" points="362.746,-54.4586 372.121,-49.5223 361.714,-47.5351 362.746,-54.4586"/>
</g>
<!-- Node6&#45;&gt;Node5 -->
<g id="edge6" class="edge"><title>Node6&#45;&gt;Node5</title>
<path fill="none" stroke="midnightblue" d="M332.216,-23.8845C342.734,-25.5177 353.833,-27.2411 364.704,-28.9293"/>
<polygon fill="midnightblue" stroke="midnightblue" points="364.183,-32.3902 374.602,-30.4661 365.257,-25.4731 364.183,-32.3902"/>
</g>
</g>
</svg>
