<?xml version="1.0" encoding="UTF-8" standalone="no"?>
<!DOCTYPE svg PUBLIC "-//W3C//DTD SVG 1.1//EN"
 "http://www.w3.org/Graphics/SVG/1.1/DTD/svg11.dtd">
<!-- Generated by graphviz version 2.30.1 (20130214.1330)
 -->
<!-- Title: OmniOGL::BlenderObj Pages: 1 -->
<!--zoomable 778 -->
<svg id="main" version="1.1" xmlns="http://www.w3.org/2000/svg" xmlns:xlink="http://www.w3.org/1999/xlink" xml:space="preserve" onload="init(evt)">
        <defs>
                <circle id="rim" cx="0" cy="0" r="7"/>
                <circle id="rim2" cx="0" cy="0" r="3.5"/>
                <g id="zoomPlus">
                        <use xlink:href="#rim" fill="#404040">
                                <set attributeName="fill" to="#808080" begin="zoomplus.mouseover" end="zoomplus.mouseout"/>
                        </use>
                        <path d="M-4,0h8M0,-4v8" fill="none" stroke="white" stroke-width="1.5" pointer-events="none"/>
                </g>
                <g id="zoomMin">
                        <use xlink:href="#rim" fill="#404040">
                                <set attributeName="fill" to="#808080" begin="zoomminus.mouseover" end="zoomminus.mouseout"/>
                        </use>
                        <path d="M-4,0h8" fill="none" stroke="white" stroke-width="1.5" pointer-events="none"/>
                </g>
                <g id="dirArrow">
                        <path fill="none" stroke="white" stroke-width="1.5" d="M0,-3.0v7 M-2.5,-0.5L0,-3.0L2.5,-0.5"/>
                </g>
               <g id="resetDef">
                       <use xlink:href="#rim2" fill="#404040">
                               <set attributeName="fill" to="#808080" begin="reset.mouseover" end="reset.mouseout"/>
                       </use>
               </g>
        </defs>

<script type="text/javascript">
var viewWidth = 971;
var viewHeight = 778;
var sectionId = 'dynsection-1';
</script>
<script xlink:href="svgpan.js"/>
<svg id="graph" class="graph">
<g id="viewport">
<title>OmniOGL::BlenderObj</title>
<polygon fill="white" stroke="white" points="-4,5 -4,-774 968.231,-774 968.231,5 -4,5"/>
<!-- Node1 -->
<g id="node1" class="node"><title>Node1</title>
<polygon fill="#bfbfbf" stroke="black" points="456.231,-0.5 456.231,-101.5 570.231,-101.5 570.231,-0.5 456.231,-0.5"/>
<text text-anchor="middle" x="513.231" y="-89.5" font-family="Helvetica,sans-Serif" font-size="10.00">OmniOGL::BlenderObj</text>
<polyline fill="none" stroke="black" points="456.231,-82.5 570.231,-82.5 "/>
<text text-anchor="middle" x="513.231" y="-70.5" font-family="Helvetica,sans-Serif" font-size="10.00"> </text>
<polyline fill="none" stroke="black" points="456.231,-63.5 570.231,-63.5 "/>
<text text-anchor="start" x="464.231" y="-51.5" font-family="Helvetica,sans-Serif" font-size="10.00">+ BlenderObj()</text>
<text text-anchor="start" x="464.231" y="-40.5" font-family="Helvetica,sans-Serif" font-size="10.00">+ BlenderObj()</text>
<text text-anchor="start" x="464.231" y="-29.5" font-family="Helvetica,sans-Serif" font-size="10.00">+ ~BlenderObj()</text>
<text text-anchor="start" x="464.231" y="-18.5" font-family="Helvetica,sans-Serif" font-size="10.00">+ Draw()</text>
<text text-anchor="start" x="464.231" y="-7.5" font-family="Helvetica,sans-Serif" font-size="10.00">+ operator=()</text>
</g>
<!-- Node2 -->
<g id="node2" class="node"><title>Node2</title>
<g id="a_node2"><a xlink:href="class_omni_o_g_l_1_1_ren_obj.html" target="_top" xlink:title="The purely virtual base class which is used to represent a single object which will potentially be re...">
<polygon fill="white" stroke="black" points="452.231,-141 452.231,-517 574.231,-517 574.231,-141 452.231,-141"/>
<text text-anchor="middle" x="513.231" y="-505" font-family="Helvetica,sans-Serif" font-size="10.00">OmniOGL::RenObj</text>
<polyline fill="none" stroke="black" points="452.231,-498 574.231,-498 "/>
<text text-anchor="middle" x="513.231" y="-486" font-family="Helvetica,sans-Serif" font-size="10.00"> </text>
<polyline fill="none" stroke="black" points="452.231,-479 574.231,-479 "/>
<text text-anchor="start" x="460.231" y="-467" font-family="Helvetica,sans-Serif" font-size="10.00">+ RenObj()</text>
<text text-anchor="start" x="460.231" y="-456" font-family="Helvetica,sans-Serif" font-size="10.00">+ RenObj()</text>
<text text-anchor="start" x="460.231" y="-445" font-family="Helvetica,sans-Serif" font-size="10.00">+ ~RenObj()</text>
<text text-anchor="start" x="460.231" y="-434" font-family="Helvetica,sans-Serif" font-size="10.00">+ Draw()</text>
<text text-anchor="start" x="460.231" y="-423" font-family="Helvetica,sans-Serif" font-size="10.00">+ EnableLighting()</text>
<text text-anchor="start" x="460.231" y="-412" font-family="Helvetica,sans-Serif" font-size="10.00">+ GetForeground()</text>
<text text-anchor="start" x="460.231" y="-401" font-family="Helvetica,sans-Serif" font-size="10.00">+ GetInternalClipping()</text>
<text text-anchor="start" x="460.231" y="-390" font-family="Helvetica,sans-Serif" font-size="10.00">+ GetLightingEnable()</text>
<text text-anchor="start" x="460.231" y="-379" font-family="Helvetica,sans-Serif" font-size="10.00">+ GetOccupiedSection()</text>
<text text-anchor="start" x="460.231" y="-368" font-family="Helvetica,sans-Serif" font-size="10.00">+ GetOrigin()</text>
<text text-anchor="start" x="460.231" y="-357" font-family="Helvetica,sans-Serif" font-size="10.00">+ GetRenderID()</text>
<text text-anchor="start" x="460.231" y="-346" font-family="Helvetica,sans-Serif" font-size="10.00">+ GetSelectionRadius()</text>
<text text-anchor="start" x="460.231" y="-335" font-family="Helvetica,sans-Serif" font-size="10.00">+ GetTexture()</text>
<text text-anchor="start" x="460.231" y="-324" font-family="Helvetica,sans-Serif" font-size="10.00">+ operator=()</text>
<text text-anchor="start" x="460.231" y="-313" font-family="Helvetica,sans-Serif" font-size="10.00">+ SetBumpMap()</text>
<text text-anchor="start" x="460.231" y="-302" font-family="Helvetica,sans-Serif" font-size="10.00">+ SetBumpMap()</text>
<text text-anchor="start" x="460.231" y="-291" font-family="Helvetica,sans-Serif" font-size="10.00">+ SetColor()</text>
<text text-anchor="start" x="460.231" y="-280" font-family="Helvetica,sans-Serif" font-size="10.00">+ SetForeground()</text>
<text text-anchor="start" x="460.231" y="-269" font-family="Helvetica,sans-Serif" font-size="10.00">+ SetInternalClipping()</text>
<text text-anchor="start" x="460.231" y="-258" font-family="Helvetica,sans-Serif" font-size="10.00">+ SetLighting()</text>
<text text-anchor="start" x="460.231" y="-247" font-family="Helvetica,sans-Serif" font-size="10.00">+ SetOccupiedSection()</text>
<text text-anchor="start" x="460.231" y="-236" font-family="Helvetica,sans-Serif" font-size="10.00">+ SetOrigin()</text>
<text text-anchor="start" x="460.231" y="-225" font-family="Helvetica,sans-Serif" font-size="10.00">+ SetTexture()</text>
<text text-anchor="start" x="460.231" y="-214" font-family="Helvetica,sans-Serif" font-size="10.00">+ SetTexture()</text>
<text text-anchor="start" x="460.231" y="-203" font-family="Helvetica,sans-Serif" font-size="10.00"># BindBufferData()</text>
<text text-anchor="start" x="460.231" y="-192" font-family="Helvetica,sans-Serif" font-size="10.00"># factor_vec4()</text>
<text text-anchor="start" x="460.231" y="-181" font-family="Helvetica,sans-Serif" font-size="10.00"># Prepare()</text>
<text text-anchor="start" x="460.231" y="-170" font-family="Helvetica,sans-Serif" font-size="10.00"># ebo()</text>
<text text-anchor="start" x="460.231" y="-159" font-family="Helvetica,sans-Serif" font-size="10.00"># vao()</text>
<text text-anchor="start" x="460.231" y="-148" font-family="Helvetica,sans-Serif" font-size="10.00"># vbo()</text>
</a>
</g>
</g>
<!-- Node2&#45;&gt;Node1 -->
<g id="edge1" class="edge"><title>Node2&#45;&gt;Node1</title>
<path fill="none" stroke="midnightblue" d="M513.231,-130.797C513.231,-120.477 513.231,-110.703 513.231,-101.777"/>
<polygon fill="none" stroke="midnightblue" points="509.731,-130.847 513.231,-140.847 516.731,-130.847 509.731,-130.847"/>
</g>
<!-- Node3 -->
<g id="node3" class="node"><title>Node3</title>
<polygon fill="white" stroke="#bfbfbf" points="6.73107,-712.5 6.73107,-769.5 53.7311,-769.5 53.7311,-712.5 6.73107,-712.5"/>
<text text-anchor="middle" x="30.2311" y="-757.5" font-family="Helvetica,sans-Serif" font-size="10.00">GLfloat</text>
<polyline fill="none" stroke="#bfbfbf" points="6.73107,-750.5 53.7311,-750.5 "/>
<text text-anchor="middle" x="30.2311" y="-738.5" font-family="Helvetica,sans-Serif" font-size="10.00"> </text>
<polyline fill="none" stroke="#bfbfbf" points="6.73107,-731.5 53.7311,-731.5 "/>
<text text-anchor="middle" x="30.2311" y="-719.5" font-family="Helvetica,sans-Serif" font-size="10.00"> </text>
</g>
<!-- Node3&#45;&gt;Node2 -->
<g id="edge2" class="edge"><title>Node3&#45;&gt;Node2</title>
<path fill="none" stroke="#404040" d="M17.9169,-712.413C4.49462,-677.799 -11.8306,-617.905 14.2311,-576 108.235,-424.851 325.482,-363.837 439.823,-341.515"/>
<polygon fill="none" stroke="#404040" points="440.111,-341.46 445.262,-336.413 451.901,-339.226 446.751,-344.273 440.111,-341.46"/>
<text text-anchor="middle" x="52.2311" y="-634" font-family="Helvetica,sans-Serif" font-size="10.00"> #colors</text>
<text text-anchor="middle" x="52.2311" y="-623" font-family="Helvetica,sans-Serif" font-size="10.00">#normals</text>
<text text-anchor="middle" x="52.2311" y="-612" font-family="Helvetica,sans-Serif" font-size="10.00">#selection_radius</text>
<text text-anchor="middle" x="52.2311" y="-601" font-family="Helvetica,sans-Serif" font-size="10.00">#vertices</text>
<text text-anchor="middle" x="52.2311" y="-590" font-family="Helvetica,sans-Serif" font-size="10.00">#origin</text>
<text text-anchor="middle" x="52.2311" y="-579" font-family="Helvetica,sans-Serif" font-size="10.00">#texcoords</text>
</g>
<!-- Node4 -->
<g id="node4" class="node"><title>Node4</title>
<g id="a_node4"><a xlink:href="class_omni_o_g_l_1_1_material_lighting.html" target="_top" xlink:title="{OmniOGL::MaterialLighting\n||+ MaterialLighting()\l}">
<polygon fill="white" stroke="black" points="99.2311,-580.5 99.2311,-637.5 233.231,-637.5 233.231,-580.5 99.2311,-580.5"/>
<text text-anchor="middle" x="166.231" y="-625.5" font-family="Helvetica,sans-Serif" font-size="10.00">OmniOGL::MaterialLighting</text>
<polyline fill="none" stroke="black" points="99.2311,-618.5 233.231,-618.5 "/>
<text text-anchor="middle" x="166.231" y="-606.5" font-family="Helvetica,sans-Serif" font-size="10.00"> </text>
<polyline fill="none" stroke="black" points="99.2311,-599.5 233.231,-599.5 "/>
<text text-anchor="start" x="107.231" y="-587.5" font-family="Helvetica,sans-Serif" font-size="10.00">+ MaterialLighting()</text>
</a>
</g>
</g>
<!-- Node3&#45;&gt;Node4 -->
<g id="edge4" class="edge"><title>Node3&#45;&gt;Node4</title>
<path fill="none" stroke="#404040" d="M46.1251,-712.391C56.4617,-695.947 71.0072,-675.358 87.2311,-660 93.0125,-654.527 99.4784,-649.316 106.154,-644.467"/>
<polygon fill="none" stroke="#404040" points="106.162,-644.462 108.82,-637.758 116.03,-637.634 113.372,-644.337 106.162,-644.462"/>
<text text-anchor="middle" x="125.231" y="-685.5" font-family="Helvetica,sans-Serif" font-size="10.00"> +specular_factor</text>
<text text-anchor="middle" x="125.231" y="-674.5" font-family="Helvetica,sans-Serif" font-size="10.00">+shininess</text>
<text text-anchor="middle" x="125.231" y="-663.5" font-family="Helvetica,sans-Serif" font-size="10.00">+diffuse_factor</text>
</g>
<!-- Node4&#45;&gt;Node2 -->
<g id="edge3" class="edge"><title>Node4&#45;&gt;Node2</title>
<path fill="none" stroke="#404040" d="M181.77,-580.231C190.497,-566.057 202.235,-549.091 215.231,-536 283.543,-467.188 377.652,-406.546 441.713,-369.19"/>
<polygon fill="none" stroke="#404040" points="441.735,-369.178 444.926,-362.711 452.123,-363.171 448.931,-369.637 441.735,-369.178"/>
<text text-anchor="middle" x="235.231" y="-544.5" font-family="Helvetica,sans-Serif" font-size="10.00"> #lighting</text>
</g>
<!-- Node5 -->
<g id="node5" class="node"><title>Node5</title>
<polygon fill="white" stroke="#bfbfbf" points="394.731,-712.5 394.731,-769.5 429.731,-769.5 429.731,-712.5 394.731,-712.5"/>
<text text-anchor="middle" x="412.231" y="-757.5" font-family="Helvetica,sans-Serif" font-size="10.00">bool</text>
<polyline fill="none" stroke="#bfbfbf" points="394.731,-750.5 429.731,-750.5 "/>
<text text-anchor="middle" x="412.231" y="-738.5" font-family="Helvetica,sans-Serif" font-size="10.00"> </text>
<polyline fill="none" stroke="#bfbfbf" points="394.731,-731.5 429.731,-731.5 "/>
<text text-anchor="middle" x="412.231" y="-719.5" font-family="Helvetica,sans-Serif" font-size="10.00"> </text>
</g>
<!-- Node5&#45;&gt;Node4 -->
<g id="edge5" class="edge"><title>Node5&#45;&gt;Node4</title>
<path fill="none" stroke="#404040" d="M394.719,-738.224C349.785,-733.354 231.861,-718.493 202.231,-694 188.686,-682.803 180.122,-665.57 174.766,-649.62"/>
<polygon fill="none" stroke="#404040" points="174.671,-649.301 169.133,-644.683 171.265,-637.794 176.803,-642.412 174.671,-649.301"/>
<text text-anchor="middle" x="228.731" y="-680" font-family="Helvetica,sans-Serif" font-size="10.00"> +enabled</text>
<text text-anchor="middle" x="228.731" y="-669" font-family="Helvetica,sans-Serif" font-size="10.00">+black_only</text>
</g>
<!-- Node7 -->
<g id="node7" class="node"><title>Node7</title>
<g id="a_node7"><a xlink:href="class_omni_o_g_l_1_1_blend_function.html" target="_top" xlink:title="{OmniOGL::BlendFunction\n||+ BlendFunction()\l}">
<polygon fill="white" stroke="black" points="526.231,-580.5 526.231,-637.5 654.231,-637.5 654.231,-580.5 526.231,-580.5"/>
<text text-anchor="middle" x="590.231" y="-625.5" font-family="Helvetica,sans-Serif" font-size="10.00">OmniOGL::BlendFunction</text>
<polyline fill="none" stroke="black" points="526.231,-618.5 654.231,-618.5 "/>
<text text-anchor="middle" x="590.231" y="-606.5" font-family="Helvetica,sans-Serif" font-size="10.00"> </text>
<polyline fill="none" stroke="black" points="526.231,-599.5 654.231,-599.5 "/>
<text text-anchor="start" x="534.231" y="-587.5" font-family="Helvetica,sans-Serif" font-size="10.00">+ BlendFunction()</text>
</a>
</g>
</g>
<!-- Node5&#45;&gt;Node7 -->
<g id="edge9" class="edge"><title>Node5&#45;&gt;Node7</title>
<path fill="none" stroke="#404040" d="M430.093,-722.726C438.392,-714.356 448.181,-703.976 456.231,-694 467.688,-679.802 465.273,-671.748 479.231,-660 481.149,-658.385 496.9,-651.097 515.963,-642.562"/>
<polygon fill="none" stroke="#404040" points="516.197,-642.459 520.049,-636.363 527.158,-637.575 523.305,-643.67 516.197,-642.459"/>
<text text-anchor="middle" x="500.731" y="-674.5" font-family="Helvetica,sans-Serif" font-size="10.00"> +enabled</text>
</g>
<!-- Node8 -->
<g id="node8" class="node"><title>Node8</title>
<g id="a_node8"><a xlink:href="class_omni_o_g_l_1_1_stencil_function.html" target="_top" xlink:title="{OmniOGL::StencilFunction\n||+ StencilFunction()\l}">
<polygon fill="white" stroke="black" points="672.231,-580.5 672.231,-637.5 806.231,-637.5 806.231,-580.5 672.231,-580.5"/>
<text text-anchor="middle" x="739.231" y="-625.5" font-family="Helvetica,sans-Serif" font-size="10.00">OmniOGL::StencilFunction</text>
<polyline fill="none" stroke="black" points="672.231,-618.5 806.231,-618.5 "/>
<text text-anchor="middle" x="739.231" y="-606.5" font-family="Helvetica,sans-Serif" font-size="10.00"> </text>
<polyline fill="none" stroke="black" points="672.231,-599.5 806.231,-599.5 "/>
<text text-anchor="start" x="680.231" y="-587.5" font-family="Helvetica,sans-Serif" font-size="10.00">+ StencilFunction()</text>
</a>
</g>
</g>
<!-- Node5&#45;&gt;Node8 -->
<g id="edge12" class="edge"><title>Node5&#45;&gt;Node8</title>
<path fill="none" stroke="#404040" d="M429.901,-739.7C463.59,-738.258 537.866,-730.801 585.231,-694 598.9,-683.379 590.756,-670.867 604.231,-660 625.572,-642.79 637.453,-651.332 663.231,-642 663.353,-641.956 663.475,-641.912 663.597,-641.867"/>
<polygon fill="none" stroke="#404040" points="663.911,-641.749 668.121,-635.894 675.144,-637.528 670.935,-643.383 663.911,-641.749"/>
<text text-anchor="middle" x="625.731" y="-674.5" font-family="Helvetica,sans-Serif" font-size="10.00"> +enabled</text>
</g>
<!-- Node5&#45;&gt;Node2 -->
<g id="edge13" class="edge"><title>Node5&#45;&gt;Node2</title>
<path fill="none" stroke="#404040" d="M394.566,-733.357C364.174,-720.841 302.885,-690.574 278.231,-642 264.955,-615.843 267.316,-603.227 278.231,-576 311.16,-493.858 386.044,-423.6 442.492,-379.453"/>
<polygon fill="none" stroke="#404040" points="442.586,-379.381 444.898,-372.55 452.092,-372.056 449.78,-378.887 442.586,-379.381"/>
<text text-anchor="middle" x="323.731" y="-617.5" font-family="Helvetica,sans-Serif" font-size="10.00"> #in_foreground</text>
<text text-anchor="middle" x="323.731" y="-606.5" font-family="Helvetica,sans-Serif" font-size="10.00">#en_collision</text>
<text text-anchor="middle" x="323.731" y="-595.5" font-family="Helvetica,sans-Serif" font-size="10.00">#en_internal_clipping</text>
</g>
<!-- Node9 -->
<g id="node9" class="node"><title>Node9</title>
<g id="a_node9"><a xlink:href="class_omni_o_g_l_1_1_depth_function.html" target="_top" xlink:title="{OmniOGL::DepthFunction\n||+ DepthFunction()\l}">
<polygon fill="white" stroke="black" points="378.731,-580.5 378.731,-637.5 507.731,-637.5 507.731,-580.5 378.731,-580.5"/>
<text text-anchor="middle" x="443.231" y="-625.5" font-family="Helvetica,sans-Serif" font-size="10.00">OmniOGL::DepthFunction</text>
<polyline fill="none" stroke="black" points="378.731,-618.5 507.731,-618.5 "/>
<text text-anchor="middle" x="443.231" y="-606.5" font-family="Helvetica,sans-Serif" font-size="10.00"> </text>
<polyline fill="none" stroke="black" points="378.731,-599.5 507.731,-599.5 "/>
<text text-anchor="start" x="386.731" y="-587.5" font-family="Helvetica,sans-Serif" font-size="10.00">+ DepthFunction()</text>
</a>
</g>
</g>
<!-- Node5&#45;&gt;Node9 -->
<g id="edge16" class="edge"><title>Node5&#45;&gt;Node9</title>
<path fill="none" stroke="#404040" d="M409.069,-712.459C408.132,-696.792 408.416,-676.97 413.231,-660 414.323,-656.153 415.791,-652.303 417.495,-648.542"/>
<polygon fill="none" stroke="#404040" points="417.637,-648.269 416.853,-641.101 423.169,-637.621 423.953,-644.789 417.637,-648.269"/>
<text text-anchor="middle" x="434.731" y="-674.5" font-family="Helvetica,sans-Serif" font-size="10.00"> +enabled</text>
</g>
<!-- Node6 -->
<g id="node6" class="node"><title>Node6</title>
<polygon fill="white" stroke="#bfbfbf" points="686.231,-712.5 686.231,-769.5 726.231,-769.5 726.231,-712.5 686.231,-712.5"/>
<text text-anchor="middle" x="706.231" y="-757.5" font-family="Helvetica,sans-Serif" font-size="10.00">GLint</text>
<polyline fill="none" stroke="#bfbfbf" points="686.231,-750.5 726.231,-750.5 "/>
<text text-anchor="middle" x="706.231" y="-738.5" font-family="Helvetica,sans-Serif" font-size="10.00"> </text>
<polyline fill="none" stroke="#bfbfbf" points="686.231,-731.5 726.231,-731.5 "/>
<text text-anchor="middle" x="706.231" y="-719.5" font-family="Helvetica,sans-Serif" font-size="10.00"> </text>
</g>
<!-- Node6&#45;&gt;Node2 -->
<g id="edge6" class="edge"><title>Node6&#45;&gt;Node2</title>
<path fill="none" stroke="#404040" d="M726.249,-729.348C741.011,-720.925 761.077,-708.241 776.231,-694 816.482,-656.175 838.938,-625.888 815.231,-576 767.953,-476.511 658.573,-404.034 585.261,-364.473"/>
<polygon fill="none" stroke="#404040" points="584.869,-364.265 577.695,-364.987 574.269,-358.641 581.444,-357.92 584.869,-364.265"/>
<text text-anchor="middle" x="853.731" y="-617.5" font-family="Helvetica,sans-Serif" font-size="10.00"> #texture_sel</text>
<text text-anchor="middle" x="853.731" y="-606.5" font-family="Helvetica,sans-Serif" font-size="10.00">#render_id</text>
<text text-anchor="middle" x="853.731" y="-595.5" font-family="Helvetica,sans-Serif" font-size="10.00">#bump_map</text>
</g>
<!-- Node6&#45;&gt;Node7 -->
<g id="edge8" class="edge"><title>Node6&#45;&gt;Node7</title>
<path fill="none" stroke="#404040" d="M686.073,-713.513C681.424,-707.192 676.572,-700.415 672.231,-694 662.277,-679.29 662.926,-673.368 651.231,-660 646.892,-655.04 642.029,-650.178 636.991,-645.552"/>
<polygon fill="none" stroke="#404040" points="636.839,-645.419 629.69,-644.474 627.812,-637.511 634.961,-638.456 636.839,-645.419"/>
<text text-anchor="middle" x="693.731" y="-674.5" font-family="Helvetica,sans-Serif" font-size="10.00"> +function</text>
</g>
<!-- Node6&#45;&gt;Node8 -->
<g id="edge11" class="edge"><title>Node6&#45;&gt;Node8</title>
<path fill="none" stroke="#404040" d="M713.23,-712.43C717.889,-694.075 724.082,-669.678 729.255,-649.298"/>
<polygon fill="none" stroke="#404040" points="729.29,-649.161 726.889,-642.361 732.243,-637.53 734.643,-644.33 729.29,-649.161"/>
<text text-anchor="middle" x="749.231" y="-685.5" font-family="Helvetica,sans-Serif" font-size="10.00"> +mask</text>
<text text-anchor="middle" x="749.231" y="-674.5" font-family="Helvetica,sans-Serif" font-size="10.00">+operation</text>
<text text-anchor="middle" x="749.231" y="-663.5" font-family="Helvetica,sans-Serif" font-size="10.00">+function</text>
</g>
<!-- Node6&#45;&gt;Node9 -->
<g id="edge15" class="edge"><title>Node6&#45;&gt;Node9</title>
<path fill="none" stroke="#404040" d="M685.997,-738.631C653.464,-735.529 588.776,-725.561 545.231,-694 530.459,-683.293 535.327,-672.702 522.231,-660 516.726,-654.66 510.562,-649.588 504.169,-644.867"/>
<polygon fill="none" stroke="#404040" points="503.83,-644.63 496.62,-644.467 493.998,-637.749 501.207,-637.912 503.83,-644.63"/>
<text text-anchor="middle" x="565.231" y="-680" font-family="Helvetica,sans-Serif" font-size="10.00"> +mask</text>
<text text-anchor="middle" x="565.231" y="-669" font-family="Helvetica,sans-Serif" font-size="10.00">+function</text>
</g>
<!-- Node7&#45;&gt;Node2 -->
<g id="edge7" class="edge"><title>Node7&#45;&gt;Node2</title>
<path fill="none" stroke="#404040" d="M582.567,-580.328C578.765,-566.602 573.805,-548.697 568.285,-528.767"/>
<polygon fill="none" stroke="#404040" points="568.273,-528.723 562.817,-524.009 565.07,-517.159 570.526,-521.873 568.273,-528.723"/>
<text text-anchor="middle" x="598.731" y="-544.5" font-family="Helvetica,sans-Serif" font-size="10.00"> #blending</text>
</g>
<!-- Node8&#45;&gt;Node2 -->
<g id="edge10" class="edge"><title>Node8&#45;&gt;Node2</title>
<path fill="none" stroke="#404040" d="M716.735,-580.328C685.653,-542.094 628.205,-471.429 582.254,-414.904"/>
<polygon fill="none" stroke="#404040" points="581.971,-414.556 575.083,-412.424 574.402,-405.245 581.29,-407.378 581.971,-414.556"/>
<text text-anchor="middle" x="714.731" y="-544.5" font-family="Helvetica,sans-Serif" font-size="10.00"> #stencil</text>
</g>
<!-- Node9&#45;&gt;Node2 -->
<g id="edge14" class="edge"><title>Node9&#45;&gt;Node2</title>
<path fill="none" stroke="#404040" d="M450.199,-580.328C453.639,-566.666 458.122,-548.863 463.112,-529.045"/>
<polygon fill="none" stroke="#404040" points="463.175,-528.796 460.761,-522 466.105,-517.159 468.519,-523.954 463.175,-528.796"/>
<text text-anchor="middle" x="476.731" y="-544.5" font-family="Helvetica,sans-Serif" font-size="10.00"> #depth</text>
</g>
<!-- Node10 -->
<g id="node10" class="node"><title>Node10</title>
<polygon fill="white" stroke="#bfbfbf" points="917.731,-580.5 917.731,-637.5 962.731,-637.5 962.731,-580.5 917.731,-580.5"/>
<text text-anchor="middle" x="940.231" y="-625.5" font-family="Helvetica,sans-Serif" font-size="10.00">GLuint</text>
<polyline fill="none" stroke="#bfbfbf" points="917.731,-618.5 962.731,-618.5 "/>
<text text-anchor="middle" x="940.231" y="-606.5" font-family="Helvetica,sans-Serif" font-size="10.00"> </text>
<polyline fill="none" stroke="#bfbfbf" points="917.731,-599.5 962.731,-599.5 "/>
<text text-anchor="middle" x="940.231" y="-587.5" font-family="Helvetica,sans-Serif" font-size="10.00"> </text>
</g>
<!-- Node10&#45;&gt;Node2 -->
<g id="edge17" class="edge"><title>Node10&#45;&gt;Node2</title>
<path fill="none" stroke="#404040" d="M917.572,-586.712C901.145,-571.752 878.07,-551.689 856.231,-536 766.486,-471.526 655.826,-407.633 584.901,-368.497"/>
<polygon fill="none" stroke="#404040" points="584.816,-368.45 577.631,-369.065 574.301,-362.669 581.485,-362.054 584.816,-368.45"/>
<text text-anchor="middle" x="911.231" y="-550" font-family="Helvetica,sans-Serif" font-size="10.00"> #lengths</text>
<text text-anchor="middle" x="911.231" y="-539" font-family="Helvetica,sans-Serif" font-size="10.00">#my_section</text>
</g>
</g>
</svg>
        <g id="navigator" transform="translate(0 0)" fill="#404254">
                <rect fill="#f2f5e9" fill-opacity="0.5" stroke="#606060" stroke-width=".5" x="0" y="0" width="60" height="60"/>
                <use id="zoomplus" xlink:href="#zoomPlus" x="17" y="9" onmousedown="handleZoom(evt,'in')"/>
                <use id="zoomminus" xlink:href="#zoomMin" x="42" y="9" onmousedown="handleZoom(evt,'out')"/>
                <use id="reset" xlink:href="#resetDef" x="30" y="36" onmousedown="handleReset()"/>
                <g id="arrowUp" xlink:href="#dirArrow" transform="translate(30 24)" onmousedown="handlePan(0,-1)">
                  <use xlink:href="#rim" fill="#404040">
                        <set attributeName="fill" to="#808080" begin="arrowUp.mouseover" end="arrowUp.mouseout"/>
                  </use>
                  <path fill="none" stroke="white" stroke-width="1.5" d="M0,-3.0v7 M-2.5,-0.5L0,-3.0L2.5,-0.5"/>
                </g>
                <g id="arrowRight" xlink:href="#dirArrow" transform="rotate(90) translate(36 -43)" onmousedown="handlePan(1,0)">
                  <use xlink:href="#rim" fill="#404040">
                        <set attributeName="fill" to="#808080" begin="arrowRight.mouseover" end="arrowRight.mouseout"/>
                  </use>
                  <path fill="none" stroke="white" stroke-width="1.5" d="M0,-3.0v7 M-2.5,-0.5L0,-3.0L2.5,-0.5"/>
                </g>
                <g id="arrowDown" xlink:href="#dirArrow" transform="rotate(180) translate(-30 -48)" onmousedown="handlePan(0,1)">
                  <use xlink:href="#rim" fill="#404040">
                        <set attributeName="fill" to="#808080" begin="arrowDown.mouseover" end="arrowDown.mouseout"/>
                  </use>
                  <path fill="none" stroke="white" stroke-width="1.5" d="M0,-3.0v7 M-2.5,-0.5L0,-3.0L2.5,-0.5"/>
                </g>
                <g id="arrowLeft" xlink:href="#dirArrow" transform="rotate(270) translate(-36 17)" onmousedown="handlePan(-1,0)">
                  <use xlink:href="#rim" fill="#404040">
                        <set attributeName="fill" to="#808080" begin="arrowLeft.mouseover" end="arrowLeft.mouseout"/>
                  </use>
                  <path fill="none" stroke="white" stroke-width="1.5" d="M0,-3.0v7 M-2.5,-0.5L0,-3.0L2.5,-0.5"/>
                </g>
        </g>
        <svg viewBox="0 0 15 15" width="100%" height="30px" preserveAspectRatio="xMaxYMin meet">
         <g id="arrow_out" transform="scale(0.3 0.3)">
          <a xlink:href="class_omni_o_g_l_1_1_blender_obj__coll__graph_org.svg" target="_base">
           <rect id="button" ry="5" rx="5" y="6" x="6" height="38" width="38"
                fill="#f2f5e9" fill-opacity="0.5" stroke="#606060" stroke-width="1.0"/>
           <path id="arrow"
             d="M 11.500037,31.436501 C 11.940474,20.09759 22.043105,11.32322 32.158766,21.979434 L 37.068811,17.246167 C 37.068811,17.246167 37.088388,32 37.088388,32 L 22.160133,31.978069 C 22.160133,31.978069 26.997745,27.140456 26.997745,27.140456 C 18.528582,18.264221 13.291696,25.230495 11.500037,31.436501 z"
             style="fill:#404040;"/>
          </a>
         </g>
        </svg>
</svg>
