<?xml version="1.0" encoding="UTF-8" standalone="no"?>
<!DOCTYPE svg PUBLIC "-//W3C//DTD SVG 1.1//EN"
 "http://www.w3.org/Graphics/SVG/1.1/DTD/svg11.dtd">
<!-- Generated by graphviz version 2.30.1 (20130214.1330)
 -->
<!-- Title: OmniOGL::Cube::Draw Pages: 1 -->
<svg width="504pt" height="115pt"
 viewBox="0.00 0.00 504.00 115.00" xmlns="http://www.w3.org/2000/svg" xmlns:xlink="http://www.w3.org/1999/xlink">
<g id="graph0" class="graph" transform="scale(1 1) rotate(0) translate(4 111)">
<title>OmniOGL::Cube::Draw</title>
<polygon fill="white" stroke="white" points="-4,5 -4,-111 501,-111 501,5 -4,5"/>
<!-- Node1 -->
<g id="node1" class="node"><title>Node1</title>
<polygon fill="#bfbfbf" stroke="black" points="0,-49.5 0,-68.5 116,-68.5 116,-49.5 0,-49.5"/>
<text text-anchor="middle" x="58" y="-56.5" font-family="Helvetica,sans-Serif" font-size="10.00">OmniOGL::Cube::Draw</text>
</g>
<!-- Node2 -->
<g id="node2" class="node"><title>Node2</title>
<g id="a_node2"><a xlink:href="class_omni_o_g_l_1_1_ren_obj.html#a255d93ed0e0f4827b47dacc68eac6c36" target="_top" xlink:title="This method lies at the heart of the rendering process, as it binds the object&#39;s relevant data to the...">
<polygon fill="white" stroke="black" points="152.5,-87.5 152.5,-106.5 321.5,-106.5 321.5,-87.5 152.5,-87.5"/>
<text text-anchor="middle" x="237" y="-94.5" font-family="Helvetica,sans-Serif" font-size="10.00">OmniOGL::RenObj::BindBufferData</text>
</a>
</g>
</g>
<!-- Node1&#45;&gt;Node2 -->
<g id="edge1" class="edge"><title>Node1&#45;&gt;Node2</title>
<path fill="none" stroke="midnightblue" d="M103.665,-68.589C127.337,-73.6713 156.608,-79.9554 181.597,-85.3203"/>
<polygon fill="midnightblue" stroke="midnightblue" points="181.145,-88.8028 191.657,-87.4799 182.614,-81.9588 181.145,-88.8028"/>
</g>
<!-- Node4 -->
<g id="node4" class="node"><title>Node4</title>
<g id="a_node4"><a xlink:href="class_omni_o_g_l_1_1_ren_obj.html#a0a4218e288329f8e7b17081670948c9d" target="_top" xlink:title="This method attempts to handle all of the necessary OpenGL state changes in one place. The desired value of various states are stored as a local variable owned by the object. This method is called for each object each frame and simply sets each state to the position specified by the object.">
<polygon fill="white" stroke="black" points="168,-49.5 168,-68.5 306,-68.5 306,-49.5 168,-49.5"/>
<text text-anchor="middle" x="237" y="-56.5" font-family="Helvetica,sans-Serif" font-size="10.00">OmniOGL::RenObj::Prepare</text>
</a>
</g>
</g>
<!-- Node1&#45;&gt;Node4 -->
<g id="edge3" class="edge"><title>Node1&#45;&gt;Node4</title>
<path fill="none" stroke="midnightblue" d="M116.467,-59C129.626,-59 143.833,-59 157.701,-59"/>
<polygon fill="midnightblue" stroke="midnightblue" points="157.72,-62.5001 167.72,-59 157.719,-55.5001 157.72,-62.5001"/>
</g>
<!-- Node6 -->
<g id="node6" class="node"><title>Node6</title>
<g id="a_node6"><a xlink:href="class_omni_o_g_l_1_1_o_g_l_matrices.html#acf36e7ad27e383dfdd30095dd1b97b0a" target="_top" xlink:title="This method is intended to offer a simple way to set the translation matrix via a set of x...">
<polygon fill="white" stroke="black" points="175,-0 175,-30 299,-30 299,-0 175,-0"/>
<text text-anchor="start" x="183" y="-18" font-family="Helvetica,sans-Serif" font-size="10.00">OmniOGL::OGLMatrices</text>
<text text-anchor="middle" x="237" y="-7" font-family="Helvetica,sans-Serif" font-size="10.00">::sTranslate</text>
</a>
</g>
</g>
<!-- Node1&#45;&gt;Node6 -->
<g id="edge5" class="edge"><title>Node1&#45;&gt;Node6</title>
<path fill="none" stroke="midnightblue" d="M97.4064,-49.4527C117.334,-44.4988 142.315,-38.2888 165.56,-32.5105"/>
<polygon fill="midnightblue" stroke="midnightblue" points="166.536,-35.8745 175.396,-30.0654 164.847,-29.0813 166.536,-35.8745"/>
</g>
<!-- Node3 -->
<g id="node3" class="node"><title>Node3</title>
<g id="a_node3"><a xlink:href="class_omni_o_g_l_1_1_o_g_l_buffers.html#aee0431bf99d4f232db33ad6b10780088" target="_top" xlink:title="OmniOGL::OGLBuffers::vbo">
<polygon fill="white" stroke="black" points="358.5,-87.5 358.5,-106.5 495.5,-106.5 495.5,-87.5 358.5,-87.5"/>
<text text-anchor="middle" x="427" y="-94.5" font-family="Helvetica,sans-Serif" font-size="10.00">OmniOGL::OGLBuffers::vbo</text>
</a>
</g>
</g>
<!-- Node2&#45;&gt;Node3 -->
<g id="edge2" class="edge"><title>Node2&#45;&gt;Node3</title>
<path fill="none" stroke="midnightblue" d="M321.554,-97C330.436,-97 339.443,-97 348.253,-97"/>
<polygon fill="midnightblue" stroke="midnightblue" points="348.487,-100.5 358.487,-97 348.487,-93.5001 348.487,-100.5"/>
</g>
<!-- Node5 -->
<g id="node5" class="node"><title>Node5</title>
<g id="a_node5"><a xlink:href="namespace_omni_o_g_l.html#ade1ba238a31a1003412522a2769d5945" target="_top" xlink:title="OmniOGL::_Valid">
<polygon fill="white" stroke="black" points="380.5,-49.5 380.5,-68.5 473.5,-68.5 473.5,-49.5 380.5,-49.5"/>
<text text-anchor="middle" x="427" y="-56.5" font-family="Helvetica,sans-Serif" font-size="10.00">OmniOGL::_Valid</text>
</a>
</g>
</g>
<!-- Node4&#45;&gt;Node5 -->
<g id="edge4" class="edge"><title>Node4&#45;&gt;Node5</title>
<path fill="none" stroke="midnightblue" d="M306.138,-59C327.167,-59 350.068,-59 370.166,-59"/>
<polygon fill="midnightblue" stroke="midnightblue" points="370.395,-62.5001 380.395,-59 370.395,-55.5001 370.395,-62.5001"/>
</g>
<!-- Node7 -->
<g id="node7" class="node"><title>Node7</title>
<g id="a_node7"><a xlink:href="class_omni_o_g_l_1_1_o_g_l_matrices.html#aacb4830605589d383ded70ceec9b40bf" target="_top" xlink:title="This method sends a combined translation*rotation*scale 4x4 matrix to the shader program, effectively configuring the size, orientation, and position of each vertex which is a candidate for rendering. The combined &quot;srt&quot; matrix is an attribute in the shader program, so it is sent via a vertex buffer object. Note that this method is capable of taking an array of matrices if a count is specified (second parameter), in order to accomodate instanced rendering. If no second parameter is passed, it is assumed that the first parameter only points to a single matrix. Scene::info.vbo">
<polygon fill="white" stroke="black" points="365,-0 365,-30 489,-30 489,-0 365,-0"/>
<text text-anchor="start" x="373" y="-18" font-family="Helvetica,sans-Serif" font-size="10.00">OmniOGL::OGLMatrices</text>
<text text-anchor="middle" x="427" y="-7" font-family="Helvetica,sans-Serif" font-size="10.00">::UpdateSRT</text>
</a>
</g>
</g>
<!-- Node6&#45;&gt;Node7 -->
<g id="edge6" class="edge"><title>Node6&#45;&gt;Node7</title>
<path fill="none" stroke="midnightblue" d="M299.038,-15C316.86,-15 336.491,-15 354.879,-15"/>
<polygon fill="midnightblue" stroke="midnightblue" points="354.947,-18.5001 364.947,-15 354.947,-11.5001 354.947,-18.5001"/>
</g>
</g>
</svg>
