<?xml version="1.0" encoding="UTF-8" standalone="no"?>
<!DOCTYPE svg PUBLIC "-//W3C//DTD SVG 1.1//EN"
 "http://www.w3.org/Graphics/SVG/1.1/DTD/svg11.dtd">
<!-- Generated by graphviz version 2.30.1 (20130214.1330)
 -->
<!-- Title: OmniOGL::SectionCollection::Get Pages: 1 -->
<svg width="884pt" height="101pt"
 viewBox="0.00 0.00 884.00 101.00" xmlns="http://www.w3.org/2000/svg" xmlns:xlink="http://www.w3.org/1999/xlink">
<g id="graph0" class="graph" transform="scale(1 1) rotate(0) translate(4 97)">
<title>OmniOGL::SectionCollection::Get</title>
<polygon fill="white" stroke="white" points="-4,5 -4,-97 881,-97 881,5 -4,5"/>
<!-- Node1 -->
<g id="node1" class="node"><title>Node1</title>
<polygon fill="#bfbfbf" stroke="black" points="0,-29.5 0,-48.5 164,-48.5 164,-29.5 0,-29.5"/>
<text text-anchor="middle" x="82" y="-36.5" font-family="Helvetica,sans-Serif" font-size="10.00">OmniOGL::SectionCollection::Get</text>
</g>
<!-- Node2 -->
<g id="node2" class="node"><title>Node2</title>
<g id="a_node2"><a xlink:href="class_omni_o_g_l_1_1_section_collection.html#a8eb741628a5957199c4c511be6e4f599" target="_top" xlink:title="OmniOGL::SectionCollection\l::UpdateCurrentSection">
<polygon fill="white" stroke="black" points="208,-49 208,-79 350,-79 350,-49 208,-49"/>
<text text-anchor="start" x="216" y="-67" font-family="Helvetica,sans-Serif" font-size="10.00">OmniOGL::SectionCollection</text>
<text text-anchor="middle" x="279" y="-56" font-family="Helvetica,sans-Serif" font-size="10.00">::UpdateCurrentSection</text>
</a>
</g>
</g>
<!-- Node1&#45;&gt;Node2 -->
<g id="edge1" class="edge"><title>Node1&#45;&gt;Node2</title>
<path fill="none" stroke="midnightblue" d="M167.478,-49.8305C180.926,-51.5546 194.711,-53.3219 207.783,-54.9979"/>
<polygon fill="midnightblue" stroke="midnightblue" points="167.641,-46.3229 157.277,-48.5227 166.751,-53.2661 167.641,-46.3229"/>
</g>
<!-- Node8 -->
<g id="node8" class="node"><title>Node8</title>
<g id="a_node8"><a xlink:href="class_omni_o_g_l_1_1_scene.html#a4795ab65f4026f0d648075c132bcb447" target="_top" xlink:title="A getter which returns a pointer to the Section object currently being occupied by the player/camera ...">
<polygon fill="white" stroke="black" points="200.5,-0 200.5,-30 357.5,-30 357.5,-0 200.5,-0"/>
<text text-anchor="start" x="208.5" y="-18" font-family="Helvetica,sans-Serif" font-size="10.00">OmniOGL::Scene::GetOccupied</text>
<text text-anchor="middle" x="279" y="-7" font-family="Helvetica,sans-Serif" font-size="10.00">Section</text>
</a>
</g>
</g>
<!-- Node1&#45;&gt;Node8 -->
<g id="edge7" class="edge"><title>Node1&#45;&gt;Node8</title>
<path fill="none" stroke="midnightblue" d="M170.319,-28.2531C180.353,-27.0181 190.532,-25.7653 200.425,-24.5477"/>
<polygon fill="midnightblue" stroke="midnightblue" points="169.847,-24.7847 160.349,-29.4801 170.702,-31.7322 169.847,-24.7847"/>
</g>
<!-- Node3 -->
<g id="node3" class="node"><title>Node3</title>
<g id="a_node3"><a xlink:href="class_omni_o_g_l_1_1_scene.html#a8601c13e69f3269928209f1ffdf2584a" target="_top" xlink:title="The constructor for the Scene class. This is a fairly busy constructor since it&#39;s responsible for ini...">
<polygon fill="white" stroke="black" points="406,-73.5 406,-92.5 534,-92.5 534,-73.5 406,-73.5"/>
<text text-anchor="middle" x="470" y="-80.5" font-family="Helvetica,sans-Serif" font-size="10.00">OmniOGL::Scene::Scene</text>
</a>
</g>
</g>
<!-- Node2&#45;&gt;Node3 -->
<g id="edge2" class="edge"><title>Node2&#45;&gt;Node3</title>
<path fill="none" stroke="midnightblue" d="M360.071,-72.0495C375.372,-73.5876 391.189,-75.1777 405.868,-76.6534"/>
<polygon fill="midnightblue" stroke="midnightblue" points="360.408,-68.5658 350.108,-71.0479 359.708,-75.5307 360.408,-68.5658"/>
</g>
<!-- Node4 -->
<g id="node4" class="node"><title>Node4</title>
<g id="a_node4"><a xlink:href="class_omni_o_g_l_1_1_scene.html#aaf90a48c617a97b06e8b75320c0271b0" target="_top" xlink:title="OmniOGL::Scene::HandleInput">
<polygon fill="white" stroke="black" points="394.5,-35.5 394.5,-54.5 545.5,-54.5 545.5,-35.5 394.5,-35.5"/>
<text text-anchor="middle" x="470" y="-42.5" font-family="Helvetica,sans-Serif" font-size="10.00">OmniOGL::Scene::HandleInput</text>
</a>
</g>
</g>
<!-- Node2&#45;&gt;Node4 -->
<g id="edge3" class="edge"><title>Node2&#45;&gt;Node4</title>
<path fill="none" stroke="midnightblue" d="M360.342,-55.9233C371.591,-54.7925 383.113,-53.6342 394.252,-52.5144"/>
<polygon fill="midnightblue" stroke="midnightblue" points="359.708,-52.4693 350.108,-56.9521 360.408,-59.4342 359.708,-52.4693"/>
</g>
<!-- Node5 -->
<g id="node5" class="node"><title>Node5</title>
<g id="a_node5"><a xlink:href="class_omni_o_g_l_1_1_scene.html#ac65b18faabaa3d2af9a0a4b2f2fc0fe0" target="_top" xlink:title="The core of the rendering loop! This method iterates through all possible containers of objects&#45;to&#45;be...">
<polygon fill="white" stroke="black" points="582,-35.5 582,-54.5 704,-54.5 704,-35.5 582,-35.5"/>
<text text-anchor="middle" x="643" y="-42.5" font-family="Helvetica,sans-Serif" font-size="10.00">OmniOGL::Scene::Draw</text>
</a>
</g>
</g>
<!-- Node4&#45;&gt;Node5 -->
<g id="edge4" class="edge"><title>Node4&#45;&gt;Node5</title>
<path fill="none" stroke="midnightblue" d="M555.52,-45C564.413,-45 573.32,-45 581.856,-45"/>
<polygon fill="midnightblue" stroke="midnightblue" points="555.506,-41.5001 545.506,-45 555.506,-48.5001 555.506,-41.5001"/>
</g>
<!-- Node6 -->
<g id="node6" class="node"><title>Node6</title>
<g id="a_node6"><a xlink:href="_exec_8cpp.html#a38c5e7def3be6ea702581ee4a92b9cc0" target="_top" xlink:title="render">
<polygon fill="white" stroke="black" points="740,-35.5 740,-54.5 784,-54.5 784,-35.5 740,-35.5"/>
<text text-anchor="middle" x="762" y="-42.5" font-family="Helvetica,sans-Serif" font-size="10.00">render</text>
</a>
</g>
</g>
<!-- Node5&#45;&gt;Node6 -->
<g id="edge5" class="edge"><title>Node5&#45;&gt;Node6</title>
<path fill="none" stroke="midnightblue" d="M714.318,-45C723.524,-45 732.323,-45 739.751,-45"/>
<polygon fill="midnightblue" stroke="midnightblue" points="714.214,-41.5001 704.214,-45 714.214,-48.5001 714.214,-41.5001"/>
</g>
<!-- Node7 -->
<g id="node7" class="node"><title>Node7</title>
<g id="a_node7"><a xlink:href="_exec_8cpp.html#a66e65252a6985e382838442f280f46ba" target="_top" xlink:title="WinMain">
<polygon fill="white" stroke="black" points="820.5,-35.5 820.5,-54.5 875.5,-54.5 875.5,-35.5 820.5,-35.5"/>
<text text-anchor="middle" x="848" y="-42.5" font-family="Helvetica,sans-Serif" font-size="10.00">WinMain</text>
</a>
</g>
</g>
<!-- Node6&#45;&gt;Node7 -->
<g id="edge6" class="edge"><title>Node6&#45;&gt;Node7</title>
<path fill="none" stroke="midnightblue" d="M794.253,-45C802.845,-45 812.081,-45 820.386,-45"/>
<polygon fill="midnightblue" stroke="midnightblue" points="794.197,-41.5001 784.197,-45 794.197,-48.5001 794.197,-41.5001"/>
</g>
</g>
</svg>
