<?xml version="1.0" encoding="UTF-8" standalone="no"?>
<!DOCTYPE svg PUBLIC "-//W3C//DTD SVG 1.1//EN"
 "http://www.w3.org/Graphics/SVG/1.1/DTD/svg11.dtd">
<!-- Generated by graphviz version 2.30.1 (20130214.1330)
 -->
<!-- Title: OmniOGL::Group::Draw Pages: 1 -->
<svg width="542pt" height="104pt"
 viewBox="0.00 0.00 542.00 104.00" xmlns="http://www.w3.org/2000/svg" xmlns:xlink="http://www.w3.org/1999/xlink">
<g id="graph0" class="graph" transform="scale(1 1) rotate(0) translate(4 100)">
<title>OmniOGL::Group::Draw</title>
<polygon fill="white" stroke="white" points="-4,5 -4,-100 539,-100 539,5 -4,5"/>
<!-- Node1 -->
<g id="node1" class="node"><title>Node1</title>
<polygon fill="#bfbfbf" stroke="black" points="0,-38.5 0,-57.5 120,-57.5 120,-38.5 0,-38.5"/>
<text text-anchor="middle" x="60" y="-45.5" font-family="Helvetica,sans-Serif" font-size="10.00">OmniOGL::Group::Draw</text>
</g>
<!-- Node2 -->
<g id="node2" class="node"><title>Node2</title>
<g id="a_node2"><a xlink:href="class_omni_o_g_l_1_1_ren_obj.html#a25e6e5b1ba07d42f125c7bdd19a2e609" target="_top" xlink:title="This method lies at the heart of the rendering process, as it binds the object&#39;s relevant data to the...">
<polygon fill="white" stroke="black" points="156.5,-76.5 156.5,-95.5 325.5,-95.5 325.5,-76.5 156.5,-76.5"/>
<text text-anchor="middle" x="241" y="-83.5" font-family="Helvetica,sans-Serif" font-size="10.00">OmniOGL::RenObj::BindBufferData</text>
</a>
</g>
</g>
<!-- Node1&#45;&gt;Node2 -->
<g id="edge1" class="edge"><title>Node1&#45;&gt;Node2</title>
<path fill="none" stroke="midnightblue" d="M106.169,-57.589C130.216,-62.6939 159.974,-69.0113 185.319,-74.3918"/>
<polygon fill="midnightblue" stroke="midnightblue" points="184.647,-77.8269 195.156,-76.4799 186.1,-70.9795 184.647,-77.8269"/>
</g>
<!-- Node3 -->
<g id="node3" class="node"><title>Node3</title>
<g id="a_node3"><a xlink:href="class_omni_o_g_l_1_1_ren_obj.html#a8a386f32d8e09e00a1ef45c55fd4c301" target="_top" xlink:title="This method attempts to handle all of the necessary OpenGL state changes in one place. The desired value of various states are stored as a local variable owned by the object. This method is called for each object each frame and simply sets each state to the position specified by the object.">
<polygon fill="white" stroke="black" points="172,-38.5 172,-57.5 310,-57.5 310,-38.5 172,-38.5"/>
<text text-anchor="middle" x="241" y="-45.5" font-family="Helvetica,sans-Serif" font-size="10.00">OmniOGL::RenObj::Prepare</text>
</a>
</g>
</g>
<!-- Node1&#45;&gt;Node3 -->
<g id="edge2" class="edge"><title>Node1&#45;&gt;Node3</title>
<path fill="none" stroke="midnightblue" d="M120.107,-48C133.464,-48 147.846,-48 161.851,-48"/>
<polygon fill="midnightblue" stroke="midnightblue" points="161.962,-51.5001 171.962,-48 161.962,-44.5001 161.962,-51.5001"/>
</g>
<!-- Node6 -->
<g id="node6" class="node"><title>Node6</title>
<g id="a_node6"><a xlink:href="class_omni_o_g_l_1_1_scene.html#a3e40078b453c8199045775feb1ab18d1" target="_top" xlink:title="This method sends a combined translation*rotation*scale 4x4 matrix to the shader program, effectively configuring the size, orientation, and position of each vertex which is a candidate for rendering. The combined &quot;srt&quot; matrix is an attribute in the shader program, so it is sent via a vertex buffer object. Note that this method is capable of taking an array of matrices if a count is specified (second parameter), in order to accomodate instanced rendering. If no second parameter is passed, it is assumed that the first parameter only points to a single matrix. Scene::info.vbo">
<polygon fill="white" stroke="black" points="166.5,-0.5 166.5,-19.5 315.5,-19.5 315.5,-0.5 166.5,-0.5"/>
<text text-anchor="middle" x="241" y="-7.5" font-family="Helvetica,sans-Serif" font-size="10.00">OmniOGL::Scene::UpdateSRT</text>
</a>
</g>
</g>
<!-- Node1&#45;&gt;Node6 -->
<g id="edge5" class="edge"><title>Node1&#45;&gt;Node6</title>
<path fill="none" stroke="midnightblue" d="M106.169,-38.411C130.216,-33.3061 159.974,-26.9887 185.319,-21.6082"/>
<polygon fill="midnightblue" stroke="midnightblue" points="186.1,-25.0205 195.156,-19.5201 184.647,-18.1731 186.1,-25.0205"/>
</g>
<!-- Node4 -->
<g id="node4" class="node"><title>Node4</title>
<g id="a_node4"><a xlink:href="class_omni_o_g_l_1_1_scene.html#a0d76d3bd0b63be254c1b808e58c91aba" target="_top" xlink:title="A getter which retrieves a boolean value representing whether or not [regular] textures are enabled...">
<polygon fill="white" stroke="black" points="362,-57.5 362,-76.5 534,-76.5 534,-57.5 362,-57.5"/>
<text text-anchor="middle" x="448" y="-64.5" font-family="Helvetica,sans-Serif" font-size="10.00">OmniOGL::Scene::GlobalTextureEn</text>
</a>
</g>
</g>
<!-- Node3&#45;&gt;Node4 -->
<g id="edge3" class="edge"><title>Node3&#45;&gt;Node4</title>
<path fill="none" stroke="midnightblue" d="M310.262,-54.3267C323.571,-55.5602 337.75,-56.8744 351.748,-58.1718"/>
<polygon fill="midnightblue" stroke="midnightblue" points="351.613,-61.6742 361.893,-59.1121 352.259,-54.704 351.613,-61.6742"/>
</g>
<!-- Node5 -->
<g id="node5" class="node"><title>Node5</title>
<g id="a_node5"><a xlink:href="class_omni_o_g_l_1_1_scene.html#ad5369cbf93989073466f9b03d8dd8233" target="_top" xlink:title="A getter which retrieves a boolean value representing whether or not bump mapping is enabled...">
<polygon fill="white" stroke="black" points="370,-19.5 370,-38.5 526,-38.5 526,-19.5 370,-19.5"/>
<text text-anchor="middle" x="448" y="-26.5" font-family="Helvetica,sans-Serif" font-size="10.00">OmniOGL::Scene::BumpMapEn</text>
</a>
</g>
</g>
<!-- Node3&#45;&gt;Node5 -->
<g id="edge4" class="edge"><title>Node3&#45;&gt;Node5</title>
<path fill="none" stroke="midnightblue" d="M310.262,-41.6733C326.081,-40.2072 343.128,-38.6271 359.64,-37.0968"/>
<polygon fill="midnightblue" stroke="midnightblue" points="360.202,-40.5598 369.836,-36.1518 359.556,-33.5897 360.202,-40.5598"/>
</g>
</g>
</svg>
