<?xml version="1.0" encoding="UTF-8" standalone="no"?>
<!DOCTYPE svg PUBLIC "-//W3C//DTD SVG 1.1//EN"
 "http://www.w3.org/Graphics/SVG/1.1/DTD/svg11.dtd">
<!-- Generated by graphviz version 2.30.1 (20130214.1330)
 -->
<!-- Title: OmniOGL::OGLBuffers::vbo Pages: 1 -->
<!--zoomable 432 -->
<svg id="main" version="1.1" xmlns="http://www.w3.org/2000/svg" xmlns:xlink="http://www.w3.org/1999/xlink" xml:space="preserve" onload="init(evt)">
        <defs>
                <circle id="rim" cx="0" cy="0" r="7"/>
                <circle id="rim2" cx="0" cy="0" r="3.5"/>
                <g id="zoomPlus">
                        <use xlink:href="#rim" fill="#404040">
                                <set attributeName="fill" to="#808080" begin="zoomplus.mouseover" end="zoomplus.mouseout"/>
                        </use>
                        <path d="M-4,0h8M0,-4v8" fill="none" stroke="white" stroke-width="1.5" pointer-events="none"/>
                </g>
                <g id="zoomMin">
                        <use xlink:href="#rim" fill="#404040">
                                <set attributeName="fill" to="#808080" begin="zoomminus.mouseover" end="zoomminus.mouseout"/>
                        </use>
                        <path d="M-4,0h8" fill="none" stroke="white" stroke-width="1.5" pointer-events="none"/>
                </g>
                <g id="dirArrow">
                        <path fill="none" stroke="white" stroke-width="1.5" d="M0,-3.0v7 M-2.5,-0.5L0,-3.0L2.5,-0.5"/>
                </g>
               <g id="resetDef">
                       <use xlink:href="#rim2" fill="#404040">
                               <set attributeName="fill" to="#808080" begin="reset.mouseover" end="reset.mouseout"/>
                       </use>
               </g>
        </defs>

<script type="text/javascript">
var viewWidth = 732;
var viewHeight = 432;
var sectionId = 'dynsection-10';
</script>
<script xlink:href="svgpan.js"/>
<svg id="graph" class="graph">
<g id="viewport">
<title>OmniOGL::OGLBuffers::vbo</title>
<polygon fill="white" stroke="white" points="-4,5 -4,-427.611 729,-427.611 729,5 -4,5"/>
<!-- Node1 -->
<g id="node1" class="node"><title>Node1</title>
<polygon fill="#bfbfbf" stroke="black" points="0.5,-252.111 0.5,-271.111 137.5,-271.111 137.5,-252.111 0.5,-252.111"/>
<text text-anchor="middle" x="69" y="-259.111" font-family="Helvetica,sans-Serif" font-size="10.00">OmniOGL::OGLBuffers::vbo</text>
</g>
<!-- Node2 -->
<g id="node2" class="node"><title>Node2</title>
<g id="a_node2"><a xlink:href="class_omni_o_g_l_1_1_o_g_l_attributes.html#a154bce4dbac316f03f7e21cb9d760a5d" target="_top" xlink:title="OmniOGL::OGLAttributes\l::OGLAttributes">
<polygon fill="white" stroke="black" points="195,-393.611 195,-423.611 323,-423.611 323,-393.611 195,-393.611"/>
<text text-anchor="start" x="203" y="-411.611" font-family="Helvetica,sans-Serif" font-size="10.00">OmniOGL::OGLAttributes</text>
<text text-anchor="middle" x="259" y="-400.611" font-family="Helvetica,sans-Serif" font-size="10.00">::OGLAttributes</text>
</a>
</g>
</g>
<!-- Node1&#45;&gt;Node2 -->
<g id="edge1" class="edge"><title>Node1&#45;&gt;Node2</title>
<path fill="none" stroke="midnightblue" d="M80.734,-279.903C97.3514,-306.632 131.829,-356.158 174,-383.611 180.376,-387.762 187.465,-391.245 194.747,-394.163"/>
<polygon fill="midnightblue" stroke="midnightblue" points="83.6164,-277.906 75.4387,-271.17 77.6308,-281.536 83.6164,-277.906"/>
</g>
<!-- Node3 -->
<g id="node3" class="node"><title>Node3</title>
<g id="a_node3"><a xlink:href="class_omni_o_g_l_1_1_o_g_l_buffers.html#a3cd416254327ba7bfe8dd27bf1758ea8" target="_top" xlink:title="A simple wrapper around glGenBuffers() which also increments a global counter keeping track of how ma...">
<polygon fill="white" stroke="black" points="201,-344.611 201,-374.611 317,-374.611 317,-344.611 201,-344.611"/>
<text text-anchor="start" x="209" y="-362.611" font-family="Helvetica,sans-Serif" font-size="10.00">OmniOGL::OGLBuffers</text>
<text text-anchor="middle" x="259" y="-351.611" font-family="Helvetica,sans-Serif" font-size="10.00">::CreateVBO</text>
</a>
</g>
</g>
<!-- Node1&#45;&gt;Node3 -->
<g id="edge2" class="edge"><title>Node1&#45;&gt;Node3</title>
<path fill="none" stroke="midnightblue" d="M88.8032,-277.653C108.78,-293.987 141.856,-319.059 174,-334.611 182.355,-338.654 191.497,-342.189 200.578,-345.23"/>
<polygon fill="midnightblue" stroke="midnightblue" points="91.0131,-274.938 81.0845,-271.24 86.54,-280.323 91.0131,-274.938"/>
</g>
<!-- Node6 -->
<g id="node6" class="node"><title>Node6</title>
<g id="a_node6"><a xlink:href="class_omni_o_g_l_1_1_o_g_l_buffers.html#aab5c455cf9fec77c007a9b69b1c5339a" target="_top" xlink:title="A simple wrapper around glGenBuffers() which also increments a global counter keeping track of how ma...">
<polygon fill="white" stroke="black" points="201,-295.611 201,-325.611 317,-325.611 317,-295.611 201,-295.611"/>
<text text-anchor="start" x="209" y="-313.611" font-family="Helvetica,sans-Serif" font-size="10.00">OmniOGL::OGLBuffers</text>
<text text-anchor="middle" x="259" y="-302.611" font-family="Helvetica,sans-Serif" font-size="10.00">::CreateEBO</text>
</a>
</g>
</g>
<!-- Node1&#45;&gt;Node6 -->
<g id="edge5" class="edge"><title>Node1&#45;&gt;Node6</title>
<path fill="none" stroke="midnightblue" d="M116.472,-273.724C141.926,-280.358 173.691,-288.637 200.674,-295.67"/>
<polygon fill="midnightblue" stroke="midnightblue" points="117.254,-270.311 106.695,-271.175 115.489,-277.084 117.254,-270.311"/>
</g>
<!-- Node7 -->
<g id="node7" class="node"><title>Node7</title>
<g id="a_node7"><a xlink:href="class_omni_o_g_l_1_1_o_g_l_buffers.html#a7d647481a48be70af411ff8a5d84576c" target="_top" xlink:title="OmniOGL::OGLBuffers\l::Cleanup">
<polygon fill="white" stroke="black" points="201,-246.611 201,-276.611 317,-276.611 317,-246.611 201,-246.611"/>
<text text-anchor="start" x="209" y="-264.611" font-family="Helvetica,sans-Serif" font-size="10.00">OmniOGL::OGLBuffers</text>
<text text-anchor="middle" x="259" y="-253.611" font-family="Helvetica,sans-Serif" font-size="10.00">::Cleanup</text>
</a>
</g>
</g>
<!-- Node1&#45;&gt;Node7 -->
<g id="edge7" class="edge"><title>Node1&#45;&gt;Node7</title>
<path fill="none" stroke="midnightblue" d="M147.944,-261.611C165.69,-261.611 184.223,-261.611 200.91,-261.611"/>
<polygon fill="midnightblue" stroke="midnightblue" points="147.607,-258.111 137.607,-261.611 147.607,-265.111 147.607,-258.111"/>
</g>
<!-- Node8 -->
<g id="node8" class="node"><title>Node8</title>
<g id="a_node8"><a xlink:href="class_omni_o_g_l_1_1_ren_obj.html#a36559c1f2710eaf181cb94097cf619e3" target="_top" xlink:title="OmniOGL::RenObj::vbo">
<polygon fill="white" stroke="black" points="199.5,-208.111 199.5,-227.111 318.5,-227.111 318.5,-208.111 199.5,-208.111"/>
<text text-anchor="middle" x="259" y="-215.111" font-family="Helvetica,sans-Serif" font-size="10.00">OmniOGL::RenObj::vbo</text>
</a>
</g>
</g>
<!-- Node1&#45;&gt;Node8 -->
<g id="edge8" class="edge"><title>Node1&#45;&gt;Node8</title>
<path fill="none" stroke="midnightblue" d="M120.745,-249.735C151.029,-242.647 188.973,-233.767 217.286,-227.14"/>
<polygon fill="midnightblue" stroke="midnightblue" points="119.732,-246.377 110.793,-252.064 121.328,-253.193 119.732,-246.377"/>
</g>
<!-- Node9 -->
<g id="node9" class="node"><title>Node9</title>
<g id="a_node9"><a xlink:href="class_omni_o_g_l_1_1_ren_obj.html#a255d93ed0e0f4827b47dacc68eac6c36" target="_top" xlink:title="This method lies at the heart of the rendering process, as it binds the object&#39;s relevant data to the...">
<polygon fill="white" stroke="black" points="174.5,-170.111 174.5,-189.111 343.5,-189.111 343.5,-170.111 174.5,-170.111"/>
<text text-anchor="middle" x="259" y="-177.111" font-family="Helvetica,sans-Serif" font-size="10.00">OmniOGL::RenObj::BindBufferData</text>
</a>
</g>
</g>
<!-- Node1&#45;&gt;Node9 -->
<g id="edge9" class="edge"><title>Node1&#45;&gt;Node9</title>
<path fill="none" stroke="midnightblue" d="M90.92,-246.142C111.196,-231.845 143.305,-210.998 174,-198.611 183.428,-194.807 193.775,-191.683 203.886,-189.146"/>
<polygon fill="midnightblue" stroke="midnightblue" points="88.8247,-243.338 82.7389,-252.01 92.9047,-249.026 88.8247,-243.338"/>
</g>
<!-- Node5 -->
<g id="node5" class="node"><title>Node5</title>
<g id="a_node5"><a xlink:href="class_omni_o_g_l_1_1_scene.html#a8601c13e69f3269928209f1ffdf2584a" target="_top" xlink:title="The constructor for the Scene class. This is a fairly busy constructor since it&#39;s responsible for ini...">
<polygon fill="white" stroke="black" points="596,-170.111 596,-189.111 724,-189.111 724,-170.111 596,-170.111"/>
<text text-anchor="middle" x="660" y="-177.111" font-family="Helvetica,sans-Serif" font-size="10.00">OmniOGL::Scene::Scene</text>
</a>
</g>
</g>
<!-- Node1&#45;&gt;Node5 -->
<g id="edge17" class="edge"><title>Node1&#45;&gt;Node5</title>
<path fill="none" stroke="midnightblue" d="M84.3302,-243.988C124.631,-196.101 244.869,-64.4432 380,-23.6113 456.58,-0.471534 489.896,14.929 560,-23.6113 619.31,-56.2174 648.106,-141.051 656.396,-169.868"/>
<polygon fill="midnightblue" stroke="midnightblue" points="81.4448,-241.984 77.7499,-251.914 86.8305,-246.456 81.4448,-241.984"/>
</g>
<!-- Node4 -->
<g id="node4" class="node"><title>Node4</title>
<g id="a_node4"><a xlink:href="class_omni_o_g_l_1_1_scene.html#a199b6195ca00c1ca4a50e3d0b9c312a3" target="_top" xlink:title="OmniOGL::Scene::GlobalInitialization">
<polygon fill="white" stroke="black" points="380.5,-345.111 380.5,-364.111 559.5,-364.111 559.5,-345.111 380.5,-345.111"/>
<text text-anchor="middle" x="470" y="-352.111" font-family="Helvetica,sans-Serif" font-size="10.00">OmniOGL::Scene::GlobalInitialization</text>
</a>
</g>
</g>
<!-- Node3&#45;&gt;Node4 -->
<g id="edge3" class="edge"><title>Node3&#45;&gt;Node4</title>
<path fill="none" stroke="midnightblue" d="M327.371,-358C344.187,-357.597 362.478,-357.16 380.157,-356.737"/>
<polygon fill="midnightblue" stroke="midnightblue" points="327.024,-354.507 317.11,-358.245 327.191,-361.505 327.024,-354.507"/>
</g>
<!-- Node4&#45;&gt;Node5 -->
<g id="edge4" class="edge"><title>Node4&#45;&gt;Node5</title>
<path fill="none" stroke="midnightblue" d="M548.836,-341.127C552.747,-339.227 556.499,-337.067 560,-334.611 614.633,-296.287 646.046,-217.229 655.739,-189.491"/>
<polygon fill="midnightblue" stroke="midnightblue" points="547.301,-337.976 539.462,-345.103 550.035,-344.42 547.301,-337.976"/>
</g>
<!-- Node6&#45;&gt;Node4 -->
<g id="edge6" class="edge"><title>Node6&#45;&gt;Node4</title>
<path fill="none" stroke="midnightblue" d="M327.136,-324.745C358.636,-331.377 395.351,-339.106 423.537,-345.04"/>
<polygon fill="midnightblue" stroke="midnightblue" points="327.617,-321.27 317.11,-322.635 326.175,-328.12 327.617,-321.27"/>
</g>
<!-- Node10 -->
<g id="node10" class="node"><title>Node10</title>
<g id="a_node10"><a xlink:href="class_omni_o_g_l_1_1_blender_obj.html#a3c4dab9041ae8991266d48363dce03ff" target="_top" xlink:title="The draw method which must be implemented in order for the class to be instantiable. This method is responsible for sending the vertices, normals, etc. necessary to draw the object to the shader program, set all necessary options to their desired state, and finally invoke the desired OpenGL draw call. At the time being this method implementation is fairly rudimentary as it contains no logic to determine whether or not it needs send its data to the graphics card (it sends its data blindly).">
<polygon fill="white" stroke="black" points="413,-295.611 413,-325.611 527,-325.611 527,-295.611 413,-295.611"/>
<text text-anchor="start" x="421" y="-313.611" font-family="Helvetica,sans-Serif" font-size="10.00">OmniOGL::BlenderObj</text>
<text text-anchor="middle" x="470" y="-302.611" font-family="Helvetica,sans-Serif" font-size="10.00">::Draw</text>
</a>
</g>
</g>
<!-- Node9&#45;&gt;Node10 -->
<g id="edge10" class="edge"><title>Node9&#45;&gt;Node10</title>
<path fill="none" stroke="midnightblue" d="M337.667,-193.966C339.88,-195.38 342,-196.925 344,-198.611 375.994,-225.584 348.71,-257.826 380,-285.611 389.241,-293.817 400.974,-299.348 412.865,-303.071"/>
<polygon fill="midnightblue" stroke="midnightblue" points="339.184,-190.807 328.723,-189.132 335.856,-196.965 339.184,-190.807"/>
</g>
<!-- Node11 -->
<g id="node11" class="node"><title>Node11</title>
<g id="a_node11"><a xlink:href="class_omni_o_g_l_1_1_cube.html#a00747eeb6be98f4c9338ec10c2add6b8" target="_top" xlink:title="A method which is called each frame in order to render the object to the screen. This method is respo...">
<polygon fill="white" stroke="black" points="412,-257.111 412,-276.111 528,-276.111 528,-257.111 412,-257.111"/>
<text text-anchor="middle" x="470" y="-264.111" font-family="Helvetica,sans-Serif" font-size="10.00">OmniOGL::Cube::Draw</text>
</a>
</g>
</g>
<!-- Node9&#45;&gt;Node11 -->
<g id="edge11" class="edge"><title>Node9&#45;&gt;Node11</title>
<path fill="none" stroke="midnightblue" d="M334.128,-193.107C337.564,-194.739 340.877,-196.566 344,-198.611 366.607,-213.416 357.304,-232.943 380,-247.611 389.554,-253.786 400.774,-257.99 411.967,-260.844"/>
<polygon fill="midnightblue" stroke="midnightblue" points="335.368,-189.832 324.79,-189.227 332.682,-196.296 335.368,-189.832"/>
</g>
<!-- Node12 -->
<g id="node12" class="node"><title>Node12</title>
<g id="a_node12"><a xlink:href="class_omni_o_g_l_1_1_floor.html#ac36ccc5c2f1acb80548af20f166b1f77" target="_top" xlink:title="A method which will be called each frame for each Floor object and is responsible for binding relevan...">
<polygon fill="white" stroke="black" points="412,-219.111 412,-238.111 528,-238.111 528,-219.111 412,-219.111"/>
<text text-anchor="middle" x="470" y="-226.111" font-family="Helvetica,sans-Serif" font-size="10.00">OmniOGL::Floor::Draw</text>
</a>
</g>
</g>
<!-- Node9&#45;&gt;Node12 -->
<g id="edge12" class="edge"><title>Node9&#45;&gt;Node12</title>
<path fill="none" stroke="midnightblue" d="M313.978,-191.414C323.98,-193.716 334.322,-196.174 344,-198.611 360.103,-202.667 363.894,-204.567 380,-208.611 394.438,-212.237 410.273,-215.896 424.532,-219.076"/>
<polygon fill="midnightblue" stroke="midnightblue" points="314.655,-187.978 304.127,-189.17 313.1,-194.804 314.655,-187.978"/>
</g>
<!-- Node13 -->
<g id="node13" class="node"><title>Node13</title>
<g id="a_node13"><a xlink:href="class_omni_o_g_l_1_1_text_overlay.html#aa30ee3a394108270a31eed426e19a4ca" target="_top" xlink:title="A method which will be called each frame for each TextOverlay object and is responsible for binding r...">
<polygon fill="white" stroke="black" points="411.5,-169.611 411.5,-199.611 528.5,-199.611 528.5,-169.611 411.5,-169.611"/>
<text text-anchor="start" x="419.5" y="-187.611" font-family="Helvetica,sans-Serif" font-size="10.00">OmniOGL::TextOverlay</text>
<text text-anchor="middle" x="470" y="-176.611" font-family="Helvetica,sans-Serif" font-size="10.00">::Draw</text>
</a>
</g>
</g>
<!-- Node9&#45;&gt;Node13 -->
<g id="edge13" class="edge"><title>Node9&#45;&gt;Node13</title>
<path fill="none" stroke="midnightblue" d="M353.706,-181.853C373.335,-182.323 393.478,-182.805 411.324,-183.232"/>
<polygon fill="midnightblue" stroke="midnightblue" points="353.584,-178.349 343.503,-181.609 353.417,-185.347 353.584,-178.349"/>
</g>
<!-- Node14 -->
<g id="node14" class="node"><title>Node14</title>
<g id="a_node14"><a xlink:href="class_omni_o_g_l_1_1_line_strip.html#a3ecdafa271dd370a5073a0d6dd2e5bf9" target="_top" xlink:title="when commenting, note that we translate to 0,0,0 instead of the object&#39;s origin">
<polygon fill="white" stroke="black" points="418,-120.611 418,-150.611 522,-150.611 522,-120.611 418,-120.611"/>
<text text-anchor="start" x="426" y="-138.611" font-family="Helvetica,sans-Serif" font-size="10.00">OmniOGL::LineStrip</text>
<text text-anchor="middle" x="470" y="-127.611" font-family="Helvetica,sans-Serif" font-size="10.00">::Draw</text>
</a>
</g>
</g>
<!-- Node9&#45;&gt;Node14 -->
<g id="edge14" class="edge"><title>Node9&#45;&gt;Node14</title>
<path fill="none" stroke="midnightblue" d="M315.375,-167.953C347.167,-161.26 386.812,-152.914 417.864,-146.377"/>
<polygon fill="midnightblue" stroke="midnightblue" points="314.414,-164.579 305.35,-170.064 315.856,-171.429 314.414,-164.579"/>
</g>
<!-- Node15 -->
<g id="node15" class="node"><title>Node15</title>
<g id="a_node15"><a xlink:href="class_omni_o_g_l_1_1_block_array.html#a2ffeafa923f1f49001d771ce7e670521" target="_top" xlink:title="OmniOGL::BlockArray\l::Draw">
<polygon fill="white" stroke="black" points="413,-71.6113 413,-101.611 527,-101.611 527,-71.6113 413,-71.6113"/>
<text text-anchor="start" x="421" y="-89.6113" font-family="Helvetica,sans-Serif" font-size="10.00">OmniOGL::BlockArray</text>
<text text-anchor="middle" x="470" y="-78.6113" font-family="Helvetica,sans-Serif" font-size="10.00">::Draw</text>
</a>
</g>
</g>
<!-- Node9&#45;&gt;Node15 -->
<g id="edge15" class="edge"><title>Node9&#45;&gt;Node15</title>
<path fill="none" stroke="midnightblue" d="M282.301,-164.432C305.742,-149.051 344.13,-125.466 380,-110.611 390.35,-106.325 401.694,-102.589 412.715,-99.4216"/>
<polygon fill="midnightblue" stroke="midnightblue" points="280.188,-161.634 273.796,-170.084 284.062,-167.464 280.188,-161.634"/>
</g>
<!-- Node16 -->
<g id="node16" class="node"><title>Node16</title>
<g id="a_node16"><a xlink:href="class_omni_o_g_l_1_1_group.html#a16851672d0c006abd0f9aafd267713f2" target="_top" xlink:title="A method which will be called each frame for each LineStrip object and is responsible for binding rel...">
<polygon fill="white" stroke="black" points="410,-33.1113 410,-52.1113 530,-52.1113 530,-33.1113 410,-33.1113"/>
<text text-anchor="middle" x="470" y="-40.1113" font-family="Helvetica,sans-Serif" font-size="10.00">OmniOGL::Group::Draw</text>
</a>
</g>
</g>
<!-- Node9&#45;&gt;Node16 -->
<g id="edge16" class="edge"><title>Node9&#45;&gt;Node16</title>
<path fill="none" stroke="midnightblue" d="M272.973,-161.481C292.862,-135.119 333.508,-86.6289 380,-61.6113 389.183,-56.6701 399.546,-53.0139 409.871,-50.3084"/>
<polygon fill="midnightblue" stroke="midnightblue" points="269.949,-159.684 266.828,-169.808 275.582,-163.84 269.949,-159.684"/>
</g>
</g>
</svg>
        <g id="navigator" transform="translate(0 0)" fill="#404254">
                <rect fill="#f2f5e9" fill-opacity="0.5" stroke="#606060" stroke-width=".5" x="0" y="0" width="60" height="60"/>
                <use id="zoomplus" xlink:href="#zoomPlus" x="17" y="9" onmousedown="handleZoom(evt,'in')"/>
                <use id="zoomminus" xlink:href="#zoomMin" x="42" y="9" onmousedown="handleZoom(evt,'out')"/>
                <use id="reset" xlink:href="#resetDef" x="30" y="36" onmousedown="handleReset()"/>
                <g id="arrowUp" xlink:href="#dirArrow" transform="translate(30 24)" onmousedown="handlePan(0,-1)">
                  <use xlink:href="#rim" fill="#404040">
                        <set attributeName="fill" to="#808080" begin="arrowUp.mouseover" end="arrowUp.mouseout"/>
                  </use>
                  <path fill="none" stroke="white" stroke-width="1.5" d="M0,-3.0v7 M-2.5,-0.5L0,-3.0L2.5,-0.5"/>
                </g>
                <g id="arrowRight" xlink:href="#dirArrow" transform="rotate(90) translate(36 -43)" onmousedown="handlePan(1,0)">
                  <use xlink:href="#rim" fill="#404040">
                        <set attributeName="fill" to="#808080" begin="arrowRight.mouseover" end="arrowRight.mouseout"/>
                  </use>
                  <path fill="none" stroke="white" stroke-width="1.5" d="M0,-3.0v7 M-2.5,-0.5L0,-3.0L2.5,-0.5"/>
                </g>
                <g id="arrowDown" xlink:href="#dirArrow" transform="rotate(180) translate(-30 -48)" onmousedown="handlePan(0,1)">
                  <use xlink:href="#rim" fill="#404040">
                        <set attributeName="fill" to="#808080" begin="arrowDown.mouseover" end="arrowDown.mouseout"/>
                  </use>
                  <path fill="none" stroke="white" stroke-width="1.5" d="M0,-3.0v7 M-2.5,-0.5L0,-3.0L2.5,-0.5"/>
                </g>
                <g id="arrowLeft" xlink:href="#dirArrow" transform="rotate(270) translate(-36 17)" onmousedown="handlePan(-1,0)">
                  <use xlink:href="#rim" fill="#404040">
                        <set attributeName="fill" to="#808080" begin="arrowLeft.mouseover" end="arrowLeft.mouseout"/>
                  </use>
                  <path fill="none" stroke="white" stroke-width="1.5" d="M0,-3.0v7 M-2.5,-0.5L0,-3.0L2.5,-0.5"/>
                </g>
        </g>
        <svg viewBox="0 0 15 15" width="100%" height="30px" preserveAspectRatio="xMaxYMin meet">
         <g id="arrow_out" transform="scale(0.3 0.3)">
          <a xlink:href="class_omni_o_g_l_1_1_o_g_l_buffers_aee0431bf99d4f232db33ad6b10780088_icgraph_org.svg" target="_base">
           <rect id="button" ry="5" rx="5" y="6" x="6" height="38" width="38"
                fill="#f2f5e9" fill-opacity="0.5" stroke="#606060" stroke-width="1.0"/>
           <path id="arrow"
             d="M 11.500037,31.436501 C 11.940474,20.09759 22.043105,11.32322 32.158766,21.979434 L 37.068811,17.246167 C 37.068811,17.246167 37.088388,32 37.088388,32 L 22.160133,31.978069 C 22.160133,31.978069 26.997745,27.140456 26.997745,27.140456 C 18.528582,18.264221 13.291696,25.230495 11.500037,31.436501 z"
             style="fill:#404040;"/>
          </a>
         </g>
        </svg>
</svg>
