<?xml version="1.0" encoding="UTF-8" standalone="no"?>
<!DOCTYPE svg PUBLIC "-//W3C//DTD SVG 1.1//EN"
 "http://www.w3.org/Graphics/SVG/1.1/DTD/svg11.dtd">
<!-- Generated by graphviz version 2.30.1 (20130214.1330)
 -->
<!-- Title: OmniOGL::SectionCollection::UpdateCurrentSection Pages: 1 -->
<svg width="526pt" height="151pt"
 viewBox="0.00 0.00 526.00 151.00" xmlns="http://www.w3.org/2000/svg" xmlns:xlink="http://www.w3.org/1999/xlink">
<g id="graph0" class="graph" transform="scale(1 1) rotate(0) translate(4 147)">
<title>OmniOGL::SectionCollection::UpdateCurrentSection</title>
<polygon fill="white" stroke="white" points="-4,5 -4,-147 523,-147 523,5 -4,5"/>
<!-- Node1 -->
<g id="node1" class="node"><title>Node1</title>
<polygon fill="#bfbfbf" stroke="black" points="0,-58 0,-88 142,-88 142,-58 0,-58"/>
<text text-anchor="start" x="8" y="-76" font-family="Helvetica,sans-Serif" font-size="10.00">OmniOGL::SectionCollection</text>
<text text-anchor="middle" x="71" y="-65" font-family="Helvetica,sans-Serif" font-size="10.00">::UpdateCurrentSection</text>
</g>
<!-- Node2 -->
<g id="node2" class="node"><title>Node2</title>
<g id="a_node2"><a xlink:href="class_omni_o_g_l_1_1_section_collection.html#a2f0e17b0f75e99116daca045854d656a" target="_top" xlink:title="OmniOGL::SectionCollection::Get">
<polygon fill="white" stroke="black" points="178,-123.5 178,-142.5 342,-142.5 342,-123.5 178,-123.5"/>
<text text-anchor="middle" x="260" y="-130.5" font-family="Helvetica,sans-Serif" font-size="10.00">OmniOGL::SectionCollection::Get</text>
</a>
</g>
</g>
<!-- Node1&#45;&gt;Node2 -->
<g id="edge1" class="edge"><title>Node1&#45;&gt;Node2</title>
<path fill="none" stroke="midnightblue" d="M114.938,-88.0108C134.169,-94.6231 157.163,-102.377 178,-109 190.353,-112.926 203.83,-117.002 216.183,-120.656"/>
<polygon fill="midnightblue" stroke="midnightblue" points="215.225,-124.022 225.806,-123.485 217.199,-117.306 215.225,-124.022"/>
</g>
<!-- Node3 -->
<g id="node3" class="node"><title>Node3</title>
<g id="a_node3"><a xlink:href="namespace_omni_o_g_l.html#ade1ba238a31a1003412522a2769d5945" target="_top" xlink:title="OmniOGL::_Valid">
<polygon fill="white" stroke="black" points="401.5,-82.5 401.5,-101.5 494.5,-101.5 494.5,-82.5 401.5,-82.5"/>
<text text-anchor="middle" x="448" y="-89.5" font-family="Helvetica,sans-Serif" font-size="10.00">OmniOGL::_Valid</text>
</a>
</g>
</g>
<!-- Node1&#45;&gt;Node3 -->
<g id="edge2" class="edge"><title>Node1&#45;&gt;Node3</title>
<path fill="none" stroke="midnightblue" d="M142.095,-76.5515C214.133,-80.2014 324.861,-85.8116 391.187,-89.1721"/>
<polygon fill="midnightblue" stroke="midnightblue" points="391.274,-92.6809 401.438,-89.6915 391.628,-85.6899 391.274,-92.6809"/>
</g>
<!-- Node4 -->
<g id="node4" class="node"><title>Node4</title>
<g id="a_node4"><a xlink:href="class_omni_o_g_l_1_1_section.html#a048b806e5f535ddbf0dbca0b5111e65a" target="_top" xlink:title="A method used to either set or retrieve the unique ID/index of the Section. This method will always r...">
<polygon fill="white" stroke="black" points="378,-0.5 378,-19.5 518,-19.5 518,-0.5 378,-0.5"/>
<text text-anchor="middle" x="448" y="-7.5" font-family="Helvetica,sans-Serif" font-size="10.00">OmniOGL::Section::QueryID</text>
</a>
</g>
</g>
<!-- Node1&#45;&gt;Node4 -->
<g id="edge3" class="edge"><title>Node1&#45;&gt;Node4</title>
<path fill="none" stroke="midnightblue" d="M98.9394,-57.8138C119.814,-46.8604 149.832,-32.8449 178,-26 240.461,-10.822 313.361,-7.32729 367.503,-7.34703"/>
<polygon fill="midnightblue" stroke="midnightblue" points="367.714,-10.8479 377.73,-7.39245 367.745,-3.84797 367.714,-10.8479"/>
</g>
<!-- Node5 -->
<g id="node5" class="node"><title>Node5</title>
<g id="a_node5"><a xlink:href="class_omni_o_g_l_1_1_section_collection.html#aa4bab32a8d339d5a1e34d28b283768ff" target="_top" xlink:title="OmniOGL::SectionCollection\l::UpdateAdjacentSectionsArray">
<polygon fill="white" stroke="black" points="183.5,-36 183.5,-66 336.5,-66 336.5,-36 183.5,-36"/>
<text text-anchor="start" x="191.5" y="-54" font-family="Helvetica,sans-Serif" font-size="10.00">OmniOGL::SectionCollection</text>
<text text-anchor="middle" x="260" y="-43" font-family="Helvetica,sans-Serif" font-size="10.00">::UpdateAdjacentSectionsArray</text>
</a>
</g>
</g>
<!-- Node1&#45;&gt;Node5 -->
<g id="edge4" class="edge"><title>Node1&#45;&gt;Node5</title>
<path fill="none" stroke="midnightblue" d="M142.164,-64.7454C152.374,-63.5443 162.98,-62.2964 173.453,-61.0644"/>
<polygon fill="midnightblue" stroke="midnightblue" points="173.912,-64.5346 183.435,-59.89 173.094,-57.5825 173.912,-64.5346"/>
</g>
<!-- Node6 -->
<g id="node6" class="node"><title>Node6</title>
<g id="a_node6"><a xlink:href="namespace_omni_o_g_l.html#abe5ff24d55002e6ebffb4415d994260a" target="_top" xlink:title="Sets the pointer to the value &#45;1.">
<polygon fill="white" stroke="black" points="406,-41.5 406,-60.5 490,-60.5 490,-41.5 406,-41.5"/>
<text text-anchor="middle" x="448" y="-48.5" font-family="Helvetica,sans-Serif" font-size="10.00">OmniOGL::_Init</text>
</a>
</g>
</g>
<!-- Node5&#45;&gt;Node6 -->
<g id="edge5" class="edge"><title>Node5&#45;&gt;Node6</title>
<path fill="none" stroke="midnightblue" d="M336.653,-51C356.503,-51 377.447,-51 395.691,-51"/>
<polygon fill="midnightblue" stroke="midnightblue" points="395.807,-54.5001 405.807,-51 395.807,-47.5001 395.807,-54.5001"/>
</g>
<!-- Node5&#45;&gt;Node3 -->
<g id="edge6" class="edge"><title>Node5&#45;&gt;Node3</title>
<path fill="none" stroke="midnightblue" d="M329.203,-66.0341C350.49,-70.7263 373.647,-75.8308 393.751,-80.2623"/>
<polygon fill="midnightblue" stroke="midnightblue" points="393.136,-83.7108 403.655,-82.4455 394.643,-76.8749 393.136,-83.7108"/>
</g>
<!-- Node5&#45;&gt;Node4 -->
<g id="edge7" class="edge"><title>Node5&#45;&gt;Node4</title>
<path fill="none" stroke="midnightblue" d="M329.203,-35.9659C350.49,-31.2737 373.647,-26.1692 393.751,-21.7377"/>
<polygon fill="midnightblue" stroke="midnightblue" points="394.643,-25.1251 403.655,-19.5545 393.136,-18.2892 394.643,-25.1251"/>
</g>
</g>
</svg>
