<?xml version="1.0" encoding="UTF-8" standalone="no"?>
<!DOCTYPE svg PUBLIC "-//W3C//DTD SVG 1.1//EN"
 "http://www.w3.org/Graphics/SVG/1.1/DTD/svg11.dtd">
<!-- Generated by graphviz version 2.30.1 (20130214.1330)
 -->
<!-- Title: OmniOGL::BlockArray::Draw Pages: 1 -->
<svg width="502pt" height="153pt"
 viewBox="0.00 0.00 502.00 153.00" xmlns="http://www.w3.org/2000/svg" xmlns:xlink="http://www.w3.org/1999/xlink">
<g id="graph0" class="graph" transform="scale(1 1) rotate(0) translate(4 149)">
<title>OmniOGL::BlockArray::Draw</title>
<polygon fill="white" stroke="white" points="-4,5 -4,-149 499,-149 499,5 -4,5"/>
<!-- Node1 -->
<g id="node1" class="node"><title>Node1</title>
<polygon fill="#bfbfbf" stroke="black" points="0,-63 0,-93 114,-93 114,-63 0,-63"/>
<text text-anchor="start" x="8" y="-81" font-family="Helvetica,sans-Serif" font-size="10.00">OmniOGL::BlockArray</text>
<text text-anchor="middle" x="57" y="-70" font-family="Helvetica,sans-Serif" font-size="10.00">::Draw</text>
</g>
<!-- Node2 -->
<g id="node2" class="node"><title>Node2</title>
<g id="a_node2"><a xlink:href="class_omni_o_g_l_1_1_ren_obj.html#a255d93ed0e0f4827b47dacc68eac6c36" target="_top" xlink:title="This method lies at the heart of the rendering process, as it binds the object&#39;s relevant data to the...">
<polygon fill="white" stroke="black" points="150.5,-125.5 150.5,-144.5 319.5,-144.5 319.5,-125.5 150.5,-125.5"/>
<text text-anchor="middle" x="235" y="-132.5" font-family="Helvetica,sans-Serif" font-size="10.00">OmniOGL::RenObj::BindBufferData</text>
</a>
</g>
</g>
<!-- Node1&#45;&gt;Node2 -->
<g id="edge1" class="edge"><title>Node1&#45;&gt;Node2</title>
<path fill="none" stroke="midnightblue" d="M90.7133,-93.0968C108.067,-100.698 129.903,-109.627 150,-116 158.093,-118.566 166.728,-120.929 175.267,-123.052"/>
<polygon fill="midnightblue" stroke="midnightblue" points="174.668,-126.507 185.208,-125.432 176.298,-119.7 174.668,-126.507"/>
</g>
<!-- Node4 -->
<g id="node4" class="node"><title>Node4</title>
<g id="a_node4"><a xlink:href="class_omni_o_g_l_1_1_ren_obj.html#a0a4218e288329f8e7b17081670948c9d" target="_top" xlink:title="This method attempts to handle all of the necessary OpenGL state changes in one place. The desired value of various states are stored as a local variable owned by the object. This method is called for each object each frame and simply sets each state to the position specified by the object.">
<polygon fill="white" stroke="black" points="166,-87.5 166,-106.5 304,-106.5 304,-87.5 166,-87.5"/>
<text text-anchor="middle" x="235" y="-94.5" font-family="Helvetica,sans-Serif" font-size="10.00">OmniOGL::RenObj::Prepare</text>
</a>
</g>
</g>
<!-- Node1&#45;&gt;Node4 -->
<g id="edge3" class="edge"><title>Node1&#45;&gt;Node4</title>
<path fill="none" stroke="midnightblue" d="M114.171,-84.064C127.367,-85.4884 141.665,-87.032 155.636,-88.5402"/>
<polygon fill="midnightblue" stroke="midnightblue" points="155.413,-92.0364 165.73,-89.63 156.164,-85.0768 155.413,-92.0364"/>
</g>
<!-- Node6 -->
<g id="node6" class="node"><title>Node6</title>
<g id="a_node6"><a xlink:href="class_omni_o_g_l_1_1_ren_obj.html#a12f940283cf317910410fb2014ff789f" target="_top" xlink:title="OmniOGL::RenObj::ebo">
<polygon fill="white" stroke="black" points="175,-49.5 175,-68.5 295,-68.5 295,-49.5 175,-49.5"/>
<text text-anchor="middle" x="235" y="-56.5" font-family="Helvetica,sans-Serif" font-size="10.00">OmniOGL::RenObj::ebo</text>
</a>
</g>
</g>
<!-- Node1&#45;&gt;Node6 -->
<g id="edge5" class="edge"><title>Node1&#45;&gt;Node6</title>
<path fill="none" stroke="midnightblue" d="M114.171,-71.936C130.167,-70.2093 147.784,-68.3074 164.473,-66.5058"/>
<polygon fill="midnightblue" stroke="midnightblue" points="165.155,-69.9526 174.721,-65.3994 164.403,-62.993 165.155,-69.9526"/>
</g>
<!-- Node8 -->
<g id="node8" class="node"><title>Node8</title>
<g id="a_node8"><a xlink:href="class_omni_o_g_l_1_1_o_g_l_matrices.html#acf36e7ad27e383dfdd30095dd1b97b0a" target="_top" xlink:title="This method is intended to offer a simple way to set the translation matrix via a set of x...">
<polygon fill="white" stroke="black" points="173,-0 173,-30 297,-30 297,-0 173,-0"/>
<text text-anchor="start" x="181" y="-18" font-family="Helvetica,sans-Serif" font-size="10.00">OmniOGL::OGLMatrices</text>
<text text-anchor="middle" x="235" y="-7" font-family="Helvetica,sans-Serif" font-size="10.00">::sTranslate</text>
</a>
</g>
</g>
<!-- Node1&#45;&gt;Node8 -->
<g id="edge7" class="edge"><title>Node1&#45;&gt;Node8</title>
<path fill="none" stroke="midnightblue" d="M92.1894,-62.8997C109.374,-55.5613 130.616,-46.8674 150,-40 156.705,-37.6246 163.762,-35.283 170.82,-33.0421"/>
<polygon fill="midnightblue" stroke="midnightblue" points="171.904,-36.3705 180.411,-30.0551 169.822,-29.6871 171.904,-36.3705"/>
</g>
<!-- Node3 -->
<g id="node3" class="node"><title>Node3</title>
<g id="a_node3"><a xlink:href="class_omni_o_g_l_1_1_o_g_l_buffers.html#aee0431bf99d4f232db33ad6b10780088" target="_top" xlink:title="OmniOGL::OGLBuffers::vbo">
<polygon fill="white" stroke="black" points="356.5,-125.5 356.5,-144.5 493.5,-144.5 493.5,-125.5 356.5,-125.5"/>
<text text-anchor="middle" x="425" y="-132.5" font-family="Helvetica,sans-Serif" font-size="10.00">OmniOGL::OGLBuffers::vbo</text>
</a>
</g>
</g>
<!-- Node2&#45;&gt;Node3 -->
<g id="edge2" class="edge"><title>Node2&#45;&gt;Node3</title>
<path fill="none" stroke="midnightblue" d="M319.554,-135C328.436,-135 337.443,-135 346.253,-135"/>
<polygon fill="midnightblue" stroke="midnightblue" points="346.487,-138.5 356.487,-135 346.487,-131.5 346.487,-138.5"/>
</g>
<!-- Node5 -->
<g id="node5" class="node"><title>Node5</title>
<g id="a_node5"><a xlink:href="namespace_omni_o_g_l.html#ade1ba238a31a1003412522a2769d5945" target="_top" xlink:title="OmniOGL::_Valid">
<polygon fill="white" stroke="black" points="378.5,-87.5 378.5,-106.5 471.5,-106.5 471.5,-87.5 378.5,-87.5"/>
<text text-anchor="middle" x="425" y="-94.5" font-family="Helvetica,sans-Serif" font-size="10.00">OmniOGL::_Valid</text>
</a>
</g>
</g>
<!-- Node4&#45;&gt;Node5 -->
<g id="edge4" class="edge"><title>Node4&#45;&gt;Node5</title>
<path fill="none" stroke="midnightblue" d="M304.138,-97C325.167,-97 348.068,-97 368.166,-97"/>
<polygon fill="midnightblue" stroke="midnightblue" points="368.395,-100.5 378.395,-97 368.395,-93.5001 368.395,-100.5"/>
</g>
<!-- Node7 -->
<g id="node7" class="node"><title>Node7</title>
<g id="a_node7"><a xlink:href="class_omni_o_g_l_1_1_o_g_l_buffers.html#a7ca7cec35f1fee287bb2fa5a5a7b9472" target="_top" xlink:title="OmniOGL::OGLBuffers::ebo">
<polygon fill="white" stroke="black" points="356,-49.5 356,-68.5 494,-68.5 494,-49.5 356,-49.5"/>
<text text-anchor="middle" x="425" y="-56.5" font-family="Helvetica,sans-Serif" font-size="10.00">OmniOGL::OGLBuffers::ebo</text>
</a>
</g>
</g>
<!-- Node6&#45;&gt;Node7 -->
<g id="edge6" class="edge"><title>Node6&#45;&gt;Node7</title>
<path fill="none" stroke="midnightblue" d="M295.226,-59C311.181,-59 328.691,-59 345.519,-59"/>
<polygon fill="midnightblue" stroke="midnightblue" points="345.888,-62.5001 355.888,-59 345.888,-55.5001 345.888,-62.5001"/>
</g>
<!-- Node9 -->
<g id="node9" class="node"><title>Node9</title>
<g id="a_node9"><a xlink:href="class_omni_o_g_l_1_1_o_g_l_matrices.html#aacb4830605589d383ded70ceec9b40bf" target="_top" xlink:title="This method sends a combined translation*rotation*scale 4x4 matrix to the shader program, effectively configuring the size, orientation, and position of each vertex which is a candidate for rendering. The combined &quot;srt&quot; matrix is an attribute in the shader program, so it is sent via a vertex buffer object. Note that this method is capable of taking an array of matrices if a count is specified (second parameter), in order to accomodate instanced rendering. If no second parameter is passed, it is assumed that the first parameter only points to a single matrix. Scene::info.vbo">
<polygon fill="white" stroke="black" points="363,-0 363,-30 487,-30 487,-0 363,-0"/>
<text text-anchor="start" x="371" y="-18" font-family="Helvetica,sans-Serif" font-size="10.00">OmniOGL::OGLMatrices</text>
<text text-anchor="middle" x="425" y="-7" font-family="Helvetica,sans-Serif" font-size="10.00">::UpdateSRT</text>
</a>
</g>
</g>
<!-- Node8&#45;&gt;Node9 -->
<g id="edge8" class="edge"><title>Node8&#45;&gt;Node9</title>
<path fill="none" stroke="midnightblue" d="M297.038,-15C314.86,-15 334.491,-15 352.879,-15"/>
<polygon fill="midnightblue" stroke="midnightblue" points="352.947,-18.5001 362.947,-15 352.947,-11.5001 352.947,-18.5001"/>
</g>
</g>
</svg>
