<?xml version="1.0" encoding="UTF-8" standalone="no"?>
<!DOCTYPE svg PUBLIC "-//W3C//DTD SVG 1.1//EN"
 "http://www.w3.org/Graphics/SVG/1.1/DTD/svg11.dtd">
<!-- Generated by graphviz version 2.30.1 (20130214.1330)
 -->
<!-- Title: OmniOGL::Voxel::AddCubeMesh Pages: 1 -->
<svg width="572pt" height="104pt"
 viewBox="0.00 0.00 572.00 104.00" xmlns="http://www.w3.org/2000/svg" xmlns:xlink="http://www.w3.org/1999/xlink">
<g id="graph0" class="graph" transform="scale(1 1) rotate(0) translate(4 100)">
<title>OmniOGL::Voxel::AddCubeMesh</title>
<polygon fill="white" stroke="white" points="-4,5 -4,-100 569,-100 569,5 -4,5"/>
<!-- Node1 -->
<g id="node1" class="node"><title>Node1</title>
<polygon fill="#bfbfbf" stroke="black" points="0.5,-38.5 0.5,-57.5 161.5,-57.5 161.5,-38.5 0.5,-38.5"/>
<text text-anchor="middle" x="81" y="-45.5" font-family="Helvetica,sans-Serif" font-size="10.00">OmniOGL::Voxel::AddCubeMesh</text>
</g>
<!-- Node2 -->
<g id="node2" class="node"><title>Node2</title>
<g id="a_node2"><a xlink:href="class_omni_o_g_l_1_1_line_strip.html#af64b3e0837c49702b82c3b7a6c4288e4" target="_top" xlink:title="Adds a line segment to the class instance using absolute coordinates for a start and end point (i...">
<polygon fill="white" stroke="black" points="198,-33 198,-63 302,-63 302,-33 198,-33"/>
<text text-anchor="start" x="206" y="-51" font-family="Helvetica,sans-Serif" font-size="10.00">OmniOGL::LineStrip</text>
<text text-anchor="middle" x="250" y="-40" font-family="Helvetica,sans-Serif" font-size="10.00">::AddInstance</text>
</a>
</g>
</g>
<!-- Node1&#45;&gt;Node2 -->
<g id="edge1" class="edge"><title>Node1&#45;&gt;Node2</title>
<path fill="none" stroke="midnightblue" d="M161.587,-48C170.307,-48 179.084,-48 187.536,-48"/>
<polygon fill="midnightblue" stroke="midnightblue" points="187.66,-51.5001 197.66,-48 187.66,-44.5001 187.66,-51.5001"/>
</g>
<!-- Node3 -->
<g id="node3" class="node"><title>Node3</title>
<g id="a_node3"><a xlink:href="namespace_omni_o_g_l.html#abe5ff24d55002e6ebffb4415d994260a" target="_top" xlink:title="Sets the pointer to the value &#45;1.">
<polygon fill="white" stroke="black" points="346,-76.5 346,-95.5 430,-95.5 430,-76.5 346,-76.5"/>
<text text-anchor="middle" x="388" y="-83.5" font-family="Helvetica,sans-Serif" font-size="10.00">OmniOGL::_Init</text>
</a>
</g>
</g>
<!-- Node2&#45;&gt;Node3 -->
<g id="edge2" class="edge"><title>Node2&#45;&gt;Node3</title>
<path fill="none" stroke="midnightblue" d="M302.028,-62.2579C315.482,-66.0171 329.883,-70.0409 342.935,-73.6878"/>
<polygon fill="midnightblue" stroke="midnightblue" points="342.043,-77.0724 352.616,-76.3926 343.926,-70.3306 342.043,-77.0724"/>
</g>
<!-- Node4 -->
<g id="node4" class="node"><title>Node4</title>
<g id="a_node4"><a xlink:href="namespace_omni_o_g_l.html#a80cd48382ee4083e78ba3431e570b82c" target="_top" xlink:title="A wrapper around the new[] keyword. Allocates the desired number of elements to the given pointer...">
<polygon fill="white" stroke="black" points="343,-38.5 343,-57.5 433,-57.5 433,-38.5 343,-38.5"/>
<text text-anchor="middle" x="388" y="-45.5" font-family="Helvetica,sans-Serif" font-size="10.00">OmniOGL::_New</text>
</a>
</g>
</g>
<!-- Node2&#45;&gt;Node4 -->
<g id="edge3" class="edge"><title>Node2&#45;&gt;Node4</title>
<path fill="none" stroke="midnightblue" d="M302.028,-48C311.986,-48 322.462,-48 332.526,-48"/>
<polygon fill="midnightblue" stroke="midnightblue" points="332.826,-51.5001 342.826,-48 332.826,-44.5001 332.826,-51.5001"/>
</g>
<!-- Node6 -->
<g id="node6" class="node"><title>Node6</title>
<g id="a_node6"><a xlink:href="namespace_omni_o_g_l.html#ab790cf1cdc8d2bcbdbbe06c6d87f1a1d" target="_top" xlink:title="A wrapper for the delete[] keyword. Always uses delete[], and never delete.">
<polygon fill="white" stroke="black" points="338.5,-0.5 338.5,-19.5 437.5,-19.5 437.5,-0.5 338.5,-0.5"/>
<text text-anchor="middle" x="388" y="-7.5" font-family="Helvetica,sans-Serif" font-size="10.00">OmniOGL::_Delete</text>
</a>
</g>
</g>
<!-- Node2&#45;&gt;Node6 -->
<g id="edge5" class="edge"><title>Node2&#45;&gt;Node6</title>
<path fill="none" stroke="midnightblue" d="M302.028,-33.7421C315.482,-29.9829 329.883,-25.9591 342.935,-22.3122"/>
<polygon fill="midnightblue" stroke="midnightblue" points="343.926,-25.6694 352.616,-19.6074 342.043,-18.9276 343.926,-25.6694"/>
</g>
<!-- Node5 -->
<g id="node5" class="node"><title>Node5</title>
<g id="a_node5"><a xlink:href="namespace_omni_o_g_l.html#a8f559408c62db097a1a918d7f58f4183" target="_top" xlink:title="A &quot;clone&quot; of the well&#45;known printf() function, with the debug routed to the OutputDebugString() funct...">
<polygon fill="white" stroke="black" points="474,-19.5 474,-38.5 564,-38.5 564,-19.5 474,-19.5"/>
<text text-anchor="middle" x="519" y="-26.5" font-family="Helvetica,sans-Serif" font-size="10.00">OmniOGL::dprint</text>
</a>
</g>
</g>
<!-- Node4&#45;&gt;Node5 -->
<g id="edge4" class="edge"><title>Node4&#45;&gt;Node5</title>
<path fill="none" stroke="midnightblue" d="M433.034,-41.5144C442.887,-40.0631 453.452,-38.5071 463.667,-37.0025"/>
<polygon fill="midnightblue" stroke="midnightblue" points="464.344,-40.4407 473.727,-35.5209 463.323,-33.5154 464.344,-40.4407"/>
</g>
<!-- Node6&#45;&gt;Node5 -->
<g id="edge6" class="edge"><title>Node6&#45;&gt;Node5</title>
<path fill="none" stroke="midnightblue" d="M437.769,-17.1831C446.282,-18.4369 455.184,-19.7481 463.832,-21.0218"/>
<polygon fill="midnightblue" stroke="midnightblue" points="463.425,-24.4995 473.828,-22.4941 464.445,-17.5742 463.425,-24.4995"/>
</g>
</g>
</svg>
