<?xml version="1.0" encoding="UTF-8" standalone="no"?>
<!DOCTYPE svg PUBLIC "-//W3C//DTD SVG 1.1//EN"
 "http://www.w3.org/Graphics/SVG/1.1/DTD/svg11.dtd">
<!-- Generated by graphviz version 2.30.1 (20130214.1330)
 -->
<!-- Title: OmniOGL::Camera::raw_rotate Pages: 1 -->
<svg width="822pt" height="66pt"
 viewBox="0.00 0.00 822.00 66.00" xmlns="http://www.w3.org/2000/svg" xmlns:xlink="http://www.w3.org/1999/xlink">
<g id="graph0" class="graph" transform="scale(1 1) rotate(0) translate(4 62)">
<title>OmniOGL::Camera::raw_rotate</title>
<polygon fill="white" stroke="white" points="-4,5 -4,-62 819,-62 819,5 -4,5"/>
<!-- Node1 -->
<g id="node1" class="node"><title>Node1</title>
<polygon fill="#bfbfbf" stroke="black" points="0.5,-14 0.5,-44 121.5,-44 121.5,-14 0.5,-14"/>
<text text-anchor="start" x="8.5" y="-32" font-family="Helvetica,sans-Serif" font-size="10.00">OmniOGL::Camera::raw</text>
<text text-anchor="middle" x="61" y="-21" font-family="Helvetica,sans-Serif" font-size="10.00">_rotate</text>
</g>
<!-- Node2 -->
<g id="node2" class="node"><title>Node2</title>
<g id="a_node2"><a xlink:href="class_omni_o_g_l_1_1_camera.html#a909a3939c41861fe1a4c11d965660c28" target="_top" xlink:title="A comprehensive method which checks to see if camera movement or camera orientation change is pending...">
<polygon fill="white" stroke="black" points="158.5,-19.5 158.5,-38.5 295.5,-38.5 295.5,-19.5 158.5,-19.5"/>
<text text-anchor="middle" x="227" y="-26.5" font-family="Helvetica,sans-Serif" font-size="10.00">OmniOGL::Camera::Update</text>
</a>
</g>
</g>
<!-- Node1&#45;&gt;Node2 -->
<g id="edge1" class="edge"><title>Node1&#45;&gt;Node2</title>
<path fill="none" stroke="midnightblue" d="M131.854,-29C140.623,-29 149.582,-29 158.317,-29"/>
<polygon fill="midnightblue" stroke="midnightblue" points="131.672,-25.5001 121.672,-29 131.672,-32.5001 131.672,-25.5001"/>
</g>
<!-- Node3 -->
<g id="node3" class="node"><title>Node3</title>
<g id="a_node3"><a xlink:href="class_omni_o_g_l_1_1_scene.html#a8601c13e69f3269928209f1ffdf2584a" target="_top" xlink:title="The constructor for the Scene class. This is a fairly busy constructor since it&#39;s responsible for ini...">
<polygon fill="white" stroke="black" points="344,-38.5 344,-57.5 472,-57.5 472,-38.5 344,-38.5"/>
<text text-anchor="middle" x="408" y="-45.5" font-family="Helvetica,sans-Serif" font-size="10.00">OmniOGL::Scene::Scene</text>
</a>
</g>
</g>
<!-- Node2&#45;&gt;Node3 -->
<g id="edge2" class="edge"><title>Node2&#45;&gt;Node3</title>
<path fill="none" stroke="midnightblue" d="M305.806,-37.2587C318.553,-38.6117 331.622,-39.9989 343.954,-41.308"/>
<polygon fill="midnightblue" stroke="midnightblue" points="305.986,-33.7582 295.672,-36.1831 305.247,-40.7191 305.986,-33.7582"/>
</g>
<!-- Node4 -->
<g id="node4" class="node"><title>Node4</title>
<g id="a_node4"><a xlink:href="class_omni_o_g_l_1_1_scene.html#aaf90a48c617a97b06e8b75320c0271b0" target="_top" xlink:title="OmniOGL::Scene::HandleInput">
<polygon fill="white" stroke="black" points="332.5,-0.5 332.5,-19.5 483.5,-19.5 483.5,-0.5 332.5,-0.5"/>
<text text-anchor="middle" x="408" y="-7.5" font-family="Helvetica,sans-Serif" font-size="10.00">OmniOGL::Scene::HandleInput</text>
</a>
</g>
</g>
<!-- Node2&#45;&gt;Node4 -->
<g id="edge3" class="edge"><title>Node2&#45;&gt;Node4</title>
<path fill="none" stroke="midnightblue" d="M305.891,-20.7322C314.673,-19.8001 323.606,-18.8518 332.346,-17.9242"/>
<polygon fill="midnightblue" stroke="midnightblue" points="305.247,-17.2809 295.672,-21.8169 305.986,-24.2418 305.247,-17.2809"/>
</g>
<!-- Node5 -->
<g id="node5" class="node"><title>Node5</title>
<g id="a_node5"><a xlink:href="class_omni_o_g_l_1_1_scene.html#ac65b18faabaa3d2af9a0a4b2f2fc0fe0" target="_top" xlink:title="The core of the rendering loop! This method iterates through all possible containers of objects&#45;to&#45;be...">
<polygon fill="white" stroke="black" points="520,-0.5 520,-19.5 642,-19.5 642,-0.5 520,-0.5"/>
<text text-anchor="middle" x="581" y="-7.5" font-family="Helvetica,sans-Serif" font-size="10.00">OmniOGL::Scene::Draw</text>
</a>
</g>
</g>
<!-- Node4&#45;&gt;Node5 -->
<g id="edge4" class="edge"><title>Node4&#45;&gt;Node5</title>
<path fill="none" stroke="midnightblue" d="M493.52,-10C502.413,-10 511.32,-10 519.856,-10"/>
<polygon fill="midnightblue" stroke="midnightblue" points="493.506,-6.5001 483.506,-10 493.506,-13.5001 493.506,-6.5001"/>
</g>
<!-- Node6 -->
<g id="node6" class="node"><title>Node6</title>
<g id="a_node6"><a xlink:href="_exec_8cpp.html#a38c5e7def3be6ea702581ee4a92b9cc0" target="_top" xlink:title="render">
<polygon fill="white" stroke="black" points="678,-0.5 678,-19.5 722,-19.5 722,-0.5 678,-0.5"/>
<text text-anchor="middle" x="700" y="-7.5" font-family="Helvetica,sans-Serif" font-size="10.00">render</text>
</a>
</g>
</g>
<!-- Node5&#45;&gt;Node6 -->
<g id="edge5" class="edge"><title>Node5&#45;&gt;Node6</title>
<path fill="none" stroke="midnightblue" d="M652.318,-10C661.524,-10 670.323,-10 677.751,-10"/>
<polygon fill="midnightblue" stroke="midnightblue" points="652.214,-6.5001 642.214,-10 652.214,-13.5001 652.214,-6.5001"/>
</g>
<!-- Node7 -->
<g id="node7" class="node"><title>Node7</title>
<g id="a_node7"><a xlink:href="_exec_8cpp.html#a66e65252a6985e382838442f280f46ba" target="_top" xlink:title="WinMain">
<polygon fill="white" stroke="black" points="758.5,-0.5 758.5,-19.5 813.5,-19.5 813.5,-0.5 758.5,-0.5"/>
<text text-anchor="middle" x="786" y="-7.5" font-family="Helvetica,sans-Serif" font-size="10.00">WinMain</text>
</a>
</g>
</g>
<!-- Node6&#45;&gt;Node7 -->
<g id="edge6" class="edge"><title>Node6&#45;&gt;Node7</title>
<path fill="none" stroke="midnightblue" d="M732.253,-10C740.845,-10 750.081,-10 758.386,-10"/>
<polygon fill="midnightblue" stroke="midnightblue" points="732.197,-6.5001 722.197,-10 732.197,-13.5001 732.197,-6.5001"/>
</g>
</g>
</svg>
