<?xml version="1.0" encoding="UTF-8" standalone="no"?>
<!DOCTYPE svg PUBLIC "-//W3C//DTD SVG 1.1//EN"
 "http://www.w3.org/Graphics/SVG/1.1/DTD/svg11.dtd">
<!-- Generated by graphviz version 2.30.1 (20130214.1330)
 -->
<!-- Title: OmniOGL::InputEvents Pages: 1 -->
<svg width="460pt" height="476pt"
 viewBox="0.00 0.00 460.00 476.00" xmlns="http://www.w3.org/2000/svg" xmlns:xlink="http://www.w3.org/1999/xlink">
<g id="graph0" class="graph" transform="scale(1 1) rotate(0) translate(4 472)">
<title>OmniOGL::InputEvents</title>
<polygon fill="white" stroke="white" points="-4,5 -4,-472 457,-472 457,5 -4,5"/>
<!-- Node1 -->
<g id="node1" class="node"><title>Node1</title>
<polygon fill="#bfbfbf" stroke="black" points="183,-0.5 183,-145.5 299,-145.5 299,-0.5 183,-0.5"/>
<text text-anchor="middle" x="241" y="-133.5" font-family="Helvetica,sans-Serif" font-size="10.00">OmniOGL::InputEvents</text>
<polyline fill="none" stroke="black" points="183,-126.5 299,-126.5 "/>
<text text-anchor="middle" x="241" y="-114.5" font-family="Helvetica,sans-Serif" font-size="10.00"> </text>
<polyline fill="none" stroke="black" points="183,-107.5 299,-107.5 "/>
<text text-anchor="start" x="191" y="-95.5" font-family="Helvetica,sans-Serif" font-size="10.00">+ InputEvents()</text>
<text text-anchor="start" x="191" y="-84.5" font-family="Helvetica,sans-Serif" font-size="10.00">+ Activate()</text>
<text text-anchor="start" x="191" y="-73.5" font-family="Helvetica,sans-Serif" font-size="10.00">+ GetInputUpdate()</text>
<text text-anchor="start" x="191" y="-62.5" font-family="Helvetica,sans-Serif" font-size="10.00">&#45; evnt_Keybrd()</text>
<text text-anchor="start" x="191" y="-51.5" font-family="Helvetica,sans-Serif" font-size="10.00">&#45; evnt_MouseBtn()</text>
<text text-anchor="start" x="191" y="-40.5" font-family="Helvetica,sans-Serif" font-size="10.00">&#45; evnt_MouseMov()</text>
<text text-anchor="start" x="191" y="-29.5" font-family="Helvetica,sans-Serif" font-size="10.00">&#45; _evnt_Keybrd()</text>
<text text-anchor="start" x="191" y="-18.5" font-family="Helvetica,sans-Serif" font-size="10.00">&#45; _evnt_MouseBtn()</text>
<text text-anchor="start" x="191" y="-7.5" font-family="Helvetica,sans-Serif" font-size="10.00">&#45; _evnt_MouseMov()</text>
</g>
<!-- Node1&#45;&gt;Node1 -->
<g id="edge8" class="edge"><title>Node1&#45;&gt;Node1</title>
<path fill="none" stroke="#404040" d="M299.312,-89.9442C309.726,-87.7418 317,-82.0938 317,-73 317,-67.7427 314.569,-63.637 310.505,-60.683"/>
<polygon fill="none" stroke="#404040" points="310.402,-60.6402 303.329,-62.0446 299.312,-56.0558 306.385,-54.6514 310.402,-60.6402"/>
<text text-anchor="middle" x="343" y="-70.5" font-family="Helvetica,sans-Serif" font-size="10.00"> &#45;activeinput</text>
</g>
<!-- Node2 -->
<g id="node2" class="node"><title>Node2</title>
<polygon fill="white" stroke="#bfbfbf" points="-0.5,-194.5 -0.5,-251.5 46.5,-251.5 46.5,-194.5 -0.5,-194.5"/>
<text text-anchor="middle" x="23" y="-239.5" font-family="Helvetica,sans-Serif" font-size="10.00">GLfloat</text>
<polyline fill="none" stroke="#bfbfbf" points="-0.5,-232.5 46.5,-232.5 "/>
<text text-anchor="middle" x="23" y="-220.5" font-family="Helvetica,sans-Serif" font-size="10.00"> </text>
<polyline fill="none" stroke="#bfbfbf" points="-0.5,-213.5 46.5,-213.5 "/>
<text text-anchor="middle" x="23" y="-201.5" font-family="Helvetica,sans-Serif" font-size="10.00"> </text>
</g>
<!-- Node2&#45;&gt;Node1 -->
<g id="edge1" class="edge"><title>Node2&#45;&gt;Node1</title>
<path fill="none" stroke="#404040" d="M17.4246,-194.393C16.8145,-184.071 18.0515,-172.743 24,-164 56.8527,-115.715 120.846,-93.2876 170.865,-82.8983"/>
<polygon fill="none" stroke="#404040" points="171.145,-82.8442 176.277,-77.778 182.927,-80.5662 177.795,-85.6325 171.145,-82.8442"/>
<text text-anchor="middle" x="61" y="-167.5" font-family="Helvetica,sans-Serif" font-size="10.00"> &#45;mouseDivConst</text>
</g>
<!-- Node3 -->
<g id="node3" class="node"><title>Node3</title>
<polygon fill="white" stroke="#bfbfbf" points="111.5,-410.5 111.5,-467.5 146.5,-467.5 146.5,-410.5 111.5,-410.5"/>
<text text-anchor="middle" x="129" y="-455.5" font-family="Helvetica,sans-Serif" font-size="10.00">float</text>
<polyline fill="none" stroke="#bfbfbf" points="111.5,-448.5 146.5,-448.5 "/>
<text text-anchor="middle" x="129" y="-436.5" font-family="Helvetica,sans-Serif" font-size="10.00"> </text>
<polyline fill="none" stroke="#bfbfbf" points="111.5,-429.5 146.5,-429.5 "/>
<text text-anchor="middle" x="129" y="-417.5" font-family="Helvetica,sans-Serif" font-size="10.00"> </text>
</g>
<!-- Node3&#45;&gt;Node1 -->
<g id="edge2" class="edge"><title>Node3&#45;&gt;Node1</title>
<path fill="none" stroke="#404040" d="M120.959,-410.336C108.919,-363.667 90.6693,-267.225 121,-194 132.197,-166.967 152.767,-142.849 173.751,-123.452"/>
<polygon fill="none" stroke="#404040" points="173.787,-123.42 175.603,-116.441 182.744,-115.434 180.928,-122.412 173.787,-123.42"/>
<text text-anchor="middle" x="147" y="-220.5" font-family="Helvetica,sans-Serif" font-size="10.00"> &#45;lastmouse</text>
</g>
<!-- Node6 -->
<g id="node6" class="node"><title>Node6</title>
<g id="a_node6"><a xlink:href="class_omni_o_g_l_1_1_input_update.html" target="_top" xlink:title="Holds input&#45;event&#45;related information which needs to be relayed to the Scene. InputEvents::input_info...">
<polygon fill="white" stroke="black" points="182,-194.5 182,-251.5 300,-251.5 300,-194.5 182,-194.5"/>
<text text-anchor="middle" x="241" y="-239.5" font-family="Helvetica,sans-Serif" font-size="10.00">OmniOGL::InputUpdate</text>
<polyline fill="none" stroke="black" points="182,-232.5 300,-232.5 "/>
<text text-anchor="middle" x="241" y="-220.5" font-family="Helvetica,sans-Serif" font-size="10.00"> </text>
<polyline fill="none" stroke="black" points="182,-213.5 300,-213.5 "/>
<text text-anchor="start" x="190" y="-201.5" font-family="Helvetica,sans-Serif" font-size="10.00">+ InputUpdate()</text>
</a>
</g>
</g>
<!-- Node3&#45;&gt;Node6 -->
<g id="edge6" class="edge"><title>Node3&#45;&gt;Node6</title>
<path fill="none" stroke="#404040" d="M125.472,-410.21C122.444,-374.416 122.45,-311.841 152,-270 157.232,-262.591 164.026,-256.292 171.528,-250.958"/>
<polygon fill="none" stroke="#404040" points="171.593,-250.917 174.517,-244.325 181.727,-244.489 178.802,-251.081 171.593,-250.917"/>
<text text-anchor="middle" x="177" y="-339.5" font-family="Helvetica,sans-Serif" font-size="10.00"> &#45;angle_up</text>
<text text-anchor="middle" x="177" y="-328.5" font-family="Helvetica,sans-Serif" font-size="10.00">&#45;angle_side</text>
<text text-anchor="middle" x="177" y="-317.5" font-family="Helvetica,sans-Serif" font-size="10.00">&#45;direction</text>
</g>
<!-- Node4 -->
<g id="node4" class="node"><title>Node4</title>
<polygon fill="white" stroke="#bfbfbf" points="406.5,-194.5 406.5,-251.5 435.5,-251.5 435.5,-194.5 406.5,-194.5"/>
<text text-anchor="middle" x="421" y="-239.5" font-family="Helvetica,sans-Serif" font-size="10.00">int</text>
<polyline fill="none" stroke="#bfbfbf" points="406.5,-232.5 435.5,-232.5 "/>
<text text-anchor="middle" x="421" y="-220.5" font-family="Helvetica,sans-Serif" font-size="10.00"> </text>
<polyline fill="none" stroke="#bfbfbf" points="406.5,-213.5 435.5,-213.5 "/>
<text text-anchor="middle" x="421" y="-201.5" font-family="Helvetica,sans-Serif" font-size="10.00"> </text>
</g>
<!-- Node4&#45;&gt;Node1 -->
<g id="edge3" class="edge"><title>Node4&#45;&gt;Node1</title>
<path fill="none" stroke="#404040" d="M406.208,-207.186C401.727,-202.845 396.737,-198.152 392,-194 365.424,-170.706 335.096,-146.223 308.627,-125.491"/>
<polygon fill="none" stroke="#404040" points="308.526,-125.412 301.335,-124.876 299.064,-118.031 306.256,-118.568 308.526,-125.412"/>
<text text-anchor="middle" x="410.5" y="-167.5" font-family="Helvetica,sans-Serif" font-size="10.00"> &#45;screenshot_index</text>
</g>
<!-- Node5 -->
<g id="node5" class="node"><title>Node5</title>
<polygon fill="white" stroke="#bfbfbf" points="259.5,-410.5 259.5,-467.5 294.5,-467.5 294.5,-410.5 259.5,-410.5"/>
<text text-anchor="middle" x="277" y="-455.5" font-family="Helvetica,sans-Serif" font-size="10.00">bool</text>
<polyline fill="none" stroke="#bfbfbf" points="259.5,-448.5 294.5,-448.5 "/>
<text text-anchor="middle" x="277" y="-436.5" font-family="Helvetica,sans-Serif" font-size="10.00"> </text>
<polyline fill="none" stroke="#bfbfbf" points="259.5,-429.5 294.5,-429.5 "/>
<text text-anchor="middle" x="277" y="-417.5" font-family="Helvetica,sans-Serif" font-size="10.00"> </text>
</g>
<!-- Node5&#45;&gt;Node1 -->
<g id="edge4" class="edge"><title>Node5&#45;&gt;Node1</title>
<path fill="none" stroke="#404040" d="M294.526,-425.689C304.641,-417.459 316.432,-405.655 322,-392 355.3,-310.339 337.551,-277.44 309,-194 304.683,-181.383 299.026,-168.577 292.817,-156.262"/>
<polygon fill="none" stroke="#404040" points="292.795,-156.218 286.471,-152.752 287.238,-145.582 293.562,-149.048 292.795,-156.218"/>
<text text-anchor="middle" x="355" y="-226" font-family="Helvetica,sans-Serif" font-size="10.00"> &#45;firstMouse</text>
<text text-anchor="middle" x="355" y="-215" font-family="Helvetica,sans-Serif" font-size="10.00">&#45;initialized</text>
</g>
<!-- Node5&#45;&gt;Node6 -->
<g id="edge7" class="edge"><title>Node5&#45;&gt;Node6</title>
<path fill="none" stroke="#404040" d="M259.439,-429.646C245.613,-421.996 227.332,-409.242 219,-392 195.408,-343.179 207.006,-322.879 219,-270 219.493,-267.828 220.101,-265.639 220.797,-263.457"/>
<polygon fill="none" stroke="#404040" points="220.899,-263.193 219.319,-256.157 225.206,-251.992 226.786,-259.028 220.899,-263.193"/>
<text text-anchor="middle" x="270.5" y="-383.5" font-family="Helvetica,sans-Serif" font-size="10.00"> &#45;toggle_bumpmapping</text>
<text text-anchor="middle" x="270.5" y="-372.5" font-family="Helvetica,sans-Serif" font-size="10.00">&#45;trigger_camera_update</text>
<text text-anchor="middle" x="270.5" y="-361.5" font-family="Helvetica,sans-Serif" font-size="10.00">&#45;toggle_diffuse</text>
<text text-anchor="middle" x="270.5" y="-350.5" font-family="Helvetica,sans-Serif" font-size="10.00">&#45;toggle_specular</text>
<text text-anchor="middle" x="270.5" y="-339.5" font-family="Helvetica,sans-Serif" font-size="10.00">&#45;exitbool</text>
<text text-anchor="middle" x="270.5" y="-328.5" font-family="Helvetica,sans-Serif" font-size="10.00">&#45;toggle_texture</text>
<text text-anchor="middle" x="270.5" y="-317.5" font-family="Helvetica,sans-Serif" font-size="10.00">&#45;pending_removal</text>
<text text-anchor="middle" x="270.5" y="-306.5" font-family="Helvetica,sans-Serif" font-size="10.00">&#45;pending_placement</text>
<text text-anchor="middle" x="270.5" y="-295.5" font-family="Helvetica,sans-Serif" font-size="10.00">&#45;free_cam</text>
<text text-anchor="middle" x="270.5" y="-284.5" font-family="Helvetica,sans-Serif" font-size="10.00">&#45;toggle_wireframe</text>
<text text-anchor="middle" x="270.5" y="-273.5" font-family="Helvetica,sans-Serif" font-size="10.00">...</text>
</g>
<!-- Node6&#45;&gt;Node1 -->
<g id="edge5" class="edge"><title>Node6&#45;&gt;Node1</title>
<path fill="none" stroke="#404040" d="M241,-194.162C241,-183.584 241,-170.911 241,-157.82"/>
<polygon fill="none" stroke="#404040" points="241,-157.729 237,-151.729 241,-145.729 245,-151.729 241,-157.729"/>
<text text-anchor="middle" x="265" y="-167.5" font-family="Helvetica,sans-Serif" font-size="10.00"> &#45;input_info</text>
</g>
</g>
</svg>
