<?xml version="1.0" encoding="UTF-8" standalone="no"?>
<!DOCTYPE svg PUBLIC "-//W3C//DTD SVG 1.1//EN"
 "http://www.w3.org/Graphics/SVG/1.1/DTD/svg11.dtd">
<!-- Generated by graphviz version 2.30.1 (20130214.1330)
 -->
<!-- Title: OmniOGL::BlockArray::UpdateVertices Pages: 1 -->
<svg width="384pt" height="104pt"
 viewBox="0.00 0.00 384.00 104.00" xmlns="http://www.w3.org/2000/svg" xmlns:xlink="http://www.w3.org/1999/xlink">
<g id="graph0" class="graph" transform="scale(1 1) rotate(0) translate(4 100)">
<title>OmniOGL::BlockArray::UpdateVertices</title>
<polygon fill="white" stroke="white" points="-4,5 -4,-100 381,-100 381,5 -4,5"/>
<!-- Node1 -->
<g id="node1" class="node"><title>Node1</title>
<polygon fill="#bfbfbf" stroke="black" points="0,-33 0,-63 114,-63 114,-33 0,-33"/>
<text text-anchor="start" x="8" y="-51" font-family="Helvetica,sans-Serif" font-size="10.00">OmniOGL::BlockArray</text>
<text text-anchor="middle" x="57" y="-40" font-family="Helvetica,sans-Serif" font-size="10.00">::UpdateVertices</text>
</g>
<!-- Node2 -->
<g id="node2" class="node"><title>Node2</title>
<g id="a_node2"><a xlink:href="namespace_omni_o_g_l.html#a80cd48382ee4083e78ba3431e570b82c" target="_top" xlink:title="A wrapper around the new[] keyword. Allocates the desired number of elements to the given pointer...">
<polygon fill="white" stroke="black" points="155,-76.5 155,-95.5 245,-95.5 245,-76.5 155,-76.5"/>
<text text-anchor="middle" x="200" y="-83.5" font-family="Helvetica,sans-Serif" font-size="10.00">OmniOGL::_New</text>
</a>
</g>
</g>
<!-- Node1&#45;&gt;Node2 -->
<g id="edge1" class="edge"><title>Node1&#45;&gt;Node2</title>
<path fill="none" stroke="midnightblue" d="M113.727,-63.0186C126.968,-66.5871 140.937,-70.3519 153.651,-73.7781"/>
<polygon fill="midnightblue" stroke="midnightblue" points="152.973,-77.2204 163.539,-76.4432 154.795,-70.4615 152.973,-77.2204"/>
</g>
<!-- Node4 -->
<g id="node4" class="node"><title>Node4</title>
<g id="a_node4"><a xlink:href="namespace_omni_o_g_l.html#abe5ff24d55002e6ebffb4415d994260a" target="_top" xlink:title="Sets the pointer to the value &#45;1.">
<polygon fill="white" stroke="black" points="158,-38.5 158,-57.5 242,-57.5 242,-38.5 158,-38.5"/>
<text text-anchor="middle" x="200" y="-45.5" font-family="Helvetica,sans-Serif" font-size="10.00">OmniOGL::_Init</text>
</a>
</g>
</g>
<!-- Node1&#45;&gt;Node4 -->
<g id="edge3" class="edge"><title>Node1&#45;&gt;Node4</title>
<path fill="none" stroke="midnightblue" d="M114.132,-48C125.19,-48 136.74,-48 147.631,-48"/>
<polygon fill="midnightblue" stroke="midnightblue" points="147.834,-51.5001 157.833,-48 147.833,-44.5001 147.834,-51.5001"/>
</g>
<!-- Node5 -->
<g id="node5" class="node"><title>Node5</title>
<g id="a_node5"><a xlink:href="namespace_omni_o_g_l.html#ab790cf1cdc8d2bcbdbbe06c6d87f1a1d" target="_top" xlink:title="A wrapper for the delete[] keyword. Always uses delete[], and never delete.">
<polygon fill="white" stroke="black" points="150.5,-0.5 150.5,-19.5 249.5,-19.5 249.5,-0.5 150.5,-0.5"/>
<text text-anchor="middle" x="200" y="-7.5" font-family="Helvetica,sans-Serif" font-size="10.00">OmniOGL::_Delete</text>
</a>
</g>
</g>
<!-- Node1&#45;&gt;Node5 -->
<g id="edge4" class="edge"><title>Node1&#45;&gt;Node5</title>
<path fill="none" stroke="midnightblue" d="M113.727,-32.9814C126.968,-29.4129 140.937,-25.6481 153.651,-22.2219"/>
<polygon fill="midnightblue" stroke="midnightblue" points="154.795,-25.5385 163.539,-19.5568 152.973,-18.7796 154.795,-25.5385"/>
</g>
<!-- Node3 -->
<g id="node3" class="node"><title>Node3</title>
<g id="a_node3"><a xlink:href="namespace_omni_o_g_l.html#a8f559408c62db097a1a918d7f58f4183" target="_top" xlink:title="A &quot;clone&quot; of the well&#45;known printf() function, with the debug routed to the OutputDebugString() funct...">
<polygon fill="white" stroke="black" points="286,-38.5 286,-57.5 376,-57.5 376,-38.5 286,-38.5"/>
<text text-anchor="middle" x="331" y="-45.5" font-family="Helvetica,sans-Serif" font-size="10.00">OmniOGL::dprint</text>
</a>
</g>
</g>
<!-- Node2&#45;&gt;Node3 -->
<g id="edge2" class="edge"><title>Node2&#45;&gt;Node3</title>
<path fill="none" stroke="midnightblue" d="M233.552,-76.411C249.899,-71.5956 269.909,-65.7012 287.457,-60.532"/>
<polygon fill="midnightblue" stroke="midnightblue" points="288.855,-63.7691 297.458,-57.5859 286.877,-57.0543 288.855,-63.7691"/>
</g>
<!-- Node5&#45;&gt;Node3 -->
<g id="edge5" class="edge"><title>Node5&#45;&gt;Node3</title>
<path fill="none" stroke="midnightblue" d="M233.552,-19.589C249.899,-24.4044 269.909,-30.2988 287.457,-35.468"/>
<polygon fill="midnightblue" stroke="midnightblue" points="286.877,-38.9457 297.458,-38.4141 288.855,-32.2309 286.877,-38.9457"/>
</g>
</g>
</svg>
