<?xml version="1.0" encoding="UTF-8" standalone="no"?>
<!DOCTYPE svg PUBLIC "-//W3C//DTD SVG 1.1//EN"
 "http://www.w3.org/Graphics/SVG/1.1/DTD/svg11.dtd">
<!-- Generated by graphviz version 2.30.1 (20130214.1330)
 -->
<!-- Title: OmniOGL::OGLAttributes::OGLAttributes Pages: 1 -->
<svg width="484pt" height="91pt"
 viewBox="0.00 0.00 484.00 90.64" xmlns="http://www.w3.org/2000/svg" xmlns:xlink="http://www.w3.org/1999/xlink">
<g id="graph0" class="graph" transform="scale(1 1) rotate(0) translate(4 86.6422)">
<title>OmniOGL::OGLAttributes::OGLAttributes</title>
<polygon fill="white" stroke="white" points="-4,5 -4,-86.6422 481,-86.6422 481,5 -4,5"/>
<!-- Node1 -->
<g id="node1" class="node"><title>Node1</title>
<polygon fill="#bfbfbf" stroke="black" points="0,-8.64221 0,-38.6422 128,-38.6422 128,-8.64221 0,-8.64221"/>
<text text-anchor="start" x="8" y="-26.6422" font-family="Helvetica,sans-Serif" font-size="10.00">OmniOGL::OGLAttributes</text>
<text text-anchor="middle" x="64" y="-15.6422" font-family="Helvetica,sans-Serif" font-size="10.00">::OGLAttributes</text>
</g>
<!-- Node2 -->
<g id="node2" class="node"><title>Node2</title>
<g id="a_node2"><a xlink:href="class_omni_o_g_l_1_1_o_g_l_attributes.html#a1aee50596b3c0ddea40ceccf6241beda" target="_top" xlink:title="OmniOGL::OGLAttributes\l::ConfigureAttribute">
<polygon fill="white" stroke="black" points="169,-52.6422 169,-82.6422 297,-82.6422 297,-52.6422 169,-52.6422"/>
<text text-anchor="start" x="177" y="-70.6422" font-family="Helvetica,sans-Serif" font-size="10.00">OmniOGL::OGLAttributes</text>
<text text-anchor="middle" x="233" y="-59.6422" font-family="Helvetica,sans-Serif" font-size="10.00">::ConfigureAttribute</text>
</a>
</g>
</g>
<!-- Node1&#45;&gt;Node2 -->
<g id="edge1" class="edge"><title>Node1&#45;&gt;Node2</title>
<path fill="none" stroke="midnightblue" d="M122.005,-38.6614C135.901,-42.3226 150.889,-46.2716 165.195,-50.0409"/>
<polygon fill="midnightblue" stroke="midnightblue" points="164.407,-53.4526 174.969,-52.616 166.19,-46.6836 164.407,-53.4526"/>
</g>
<!-- Node4 -->
<g id="node4" class="node"><title>Node4</title>
<g id="a_node4"><a xlink:href="class_omni_o_g_l_1_1_o_g_l_buffers.html#aee0431bf99d4f232db33ad6b10780088" target="_top" xlink:title="OmniOGL::OGLBuffers::vbo">
<polygon fill="white" stroke="black" points="164.5,-14.1422 164.5,-33.1422 301.5,-33.1422 301.5,-14.1422 164.5,-14.1422"/>
<text text-anchor="middle" x="233" y="-21.1422" font-family="Helvetica,sans-Serif" font-size="10.00">OmniOGL::OGLBuffers::vbo</text>
</a>
</g>
</g>
<!-- Node1&#45;&gt;Node4 -->
<g id="edge3" class="edge"><title>Node1&#45;&gt;Node4</title>
<path fill="none" stroke="midnightblue" d="M128.136,-23.6422C136.633,-23.6422 145.431,-23.6422 154.146,-23.6422"/>
<polygon fill="midnightblue" stroke="midnightblue" points="154.315,-27.1423 164.315,-23.6422 154.315,-20.1423 154.315,-27.1423"/>
</g>
<!-- Node3 -->
<g id="node3" class="node"><title>Node3</title>
<g id="a_node3"><a xlink:href="class_omni_o_g_l_1_1_o_g_l_buffers.html#a966449fc915c1e54317bc4189476a83a" target="_top" xlink:title="OmniOGL::OGLBuffers::vao">
<polygon fill="white" stroke="black" points="338.5,-17.1422 338.5,-36.1422 475.5,-36.1422 475.5,-17.1422 338.5,-17.1422"/>
<text text-anchor="middle" x="407" y="-24.1422" font-family="Helvetica,sans-Serif" font-size="10.00">OmniOGL::OGLBuffers::vao</text>
</a>
</g>
</g>
<!-- Node1&#45;&gt;Node3 -->
<g id="edge4" class="edge"><title>Node1&#45;&gt;Node3</title>
<path fill="none" stroke="midnightblue" d="M128.118,-9.68038C139.983,-7.58266 152.327,-5.75223 164,-4.64221 225.058,1.1639 241,1.73915 302,-4.64221 321.269,-6.65799 342.224,-10.7201 360.241,-14.8113"/>
<polygon fill="midnightblue" stroke="midnightblue" points="359.662,-18.2702 370.196,-17.1411 361.257,-11.4544 359.662,-18.2702"/>
</g>
<!-- Node2&#45;&gt;Node3 -->
<g id="edge2" class="edge"><title>Node2&#45;&gt;Node3</title>
<path fill="none" stroke="midnightblue" d="M297.07,-52.6081C316.485,-47.9801 337.582,-42.9512 355.993,-38.5624"/>
<polygon fill="midnightblue" stroke="midnightblue" points="357.002,-41.9201 365.918,-36.1967 355.379,-35.1109 357.002,-41.9201"/>
</g>
</g>
</svg>
