<?xml version="1.0" encoding="UTF-8" standalone="no"?>
<!DOCTYPE svg PUBLIC "-//W3C//DTD SVG 1.1//EN"
 "http://www.w3.org/Graphics/SVG/1.1/DTD/svg11.dtd">
<!-- Generated by graphviz version 2.30.1 (20130214.1330)
 -->
<!-- Title: OmniOGL::SectionCollection::SectionCollection Pages: 1 -->
<svg width="516pt" height="151pt"
 viewBox="0.00 0.00 516.00 151.00" xmlns="http://www.w3.org/2000/svg" xmlns:xlink="http://www.w3.org/1999/xlink">
<g id="graph0" class="graph" transform="scale(1 1) rotate(0) translate(4 147)">
<title>OmniOGL::SectionCollection::SectionCollection</title>
<polygon fill="white" stroke="white" points="-4,5 -4,-147 513,-147 513,5 -4,5"/>
<!-- Node1 -->
<g id="node1" class="node"><title>Node1</title>
<polygon fill="#bfbfbf" stroke="black" points="0,-58 0,-88 142,-88 142,-58 0,-58"/>
<text text-anchor="start" x="8" y="-76" font-family="Helvetica,sans-Serif" font-size="10.00">OmniOGL::SectionCollection</text>
<text text-anchor="middle" x="71" y="-65" font-family="Helvetica,sans-Serif" font-size="10.00">::SectionCollection</text>
</g>
<!-- Node2 -->
<g id="node2" class="node"><title>Node2</title>
<g id="a_node2"><a xlink:href="namespace_omni_o_g_l.html#abe5ff24d55002e6ebffb4415d994260a" target="_top" xlink:title="Sets the pointer to the value &#45;1.">
<polygon fill="white" stroke="black" points="396,-82.5 396,-101.5 480,-101.5 480,-82.5 396,-82.5"/>
<text text-anchor="middle" x="438" y="-89.5" font-family="Helvetica,sans-Serif" font-size="10.00">OmniOGL::_Init</text>
</a>
</g>
</g>
<!-- Node1&#45;&gt;Node2 -->
<g id="edge1" class="edge"><title>Node1&#45;&gt;Node2</title>
<path fill="none" stroke="midnightblue" d="M142.376,-76.6634C213.608,-80.3714 322.05,-86.0163 385.592,-89.324"/>
<polygon fill="midnightblue" stroke="midnightblue" points="385.605,-92.8293 395.773,-89.8539 385.969,-85.8387 385.605,-92.8293"/>
</g>
<!-- Node3 -->
<g id="node3" class="node"><title>Node3</title>
<g id="a_node3"><a xlink:href="namespace_omni_o_g_l.html#a80cd48382ee4083e78ba3431e570b82c" target="_top" xlink:title="A wrapper around the new[] keyword. Allocates the desired number of elements to the given pointer...">
<polygon fill="white" stroke="black" points="210,-123.5 210,-142.5 300,-142.5 300,-123.5 210,-123.5"/>
<text text-anchor="middle" x="255" y="-130.5" font-family="Helvetica,sans-Serif" font-size="10.00">OmniOGL::_New</text>
</a>
</g>
</g>
<!-- Node1&#45;&gt;Node3 -->
<g id="edge2" class="edge"><title>Node1&#45;&gt;Node3</title>
<path fill="none" stroke="midnightblue" d="M115.508,-88.0117C134.644,-94.5534 157.407,-102.252 178,-109 189.492,-112.765 201.995,-116.757 213.48,-120.382"/>
<polygon fill="midnightblue" stroke="midnightblue" points="212.67,-123.796 223.259,-123.458 214.77,-117.118 212.67,-123.796"/>
</g>
<!-- Node5 -->
<g id="node5" class="node"><title>Node5</title>
<g id="a_node5"><a xlink:href="class_omni_o_g_l_1_1_section.html#a048b806e5f535ddbf0dbca0b5111e65a" target="_top" xlink:title="A method used to either set or retrieve the unique ID/index of the Section. This method will always r...">
<polygon fill="white" stroke="black" points="368,-0.5 368,-19.5 508,-19.5 508,-0.5 368,-0.5"/>
<text text-anchor="middle" x="438" y="-7.5" font-family="Helvetica,sans-Serif" font-size="10.00">OmniOGL::Section::QueryID</text>
</a>
</g>
</g>
<!-- Node1&#45;&gt;Node5 -->
<g id="edge4" class="edge"><title>Node1&#45;&gt;Node5</title>
<path fill="none" stroke="midnightblue" d="M98.9439,-57.8323C119.82,-46.8886 149.839,-32.8771 178,-26 237.083,-11.5714 305.877,-7.91097 357.71,-7.67417"/>
<polygon fill="midnightblue" stroke="midnightblue" points="357.844,-11.1742 367.843,-7.67028 357.841,-4.17422 357.844,-11.1742"/>
</g>
<!-- Node6 -->
<g id="node6" class="node"><title>Node6</title>
<g id="a_node6"><a xlink:href="class_omni_o_g_l_1_1_section_collection.html#aa4bab32a8d339d5a1e34d28b283768ff" target="_top" xlink:title="OmniOGL::SectionCollection\l::UpdateAdjacentSectionsArray">
<polygon fill="white" stroke="black" points="178.5,-36 178.5,-66 331.5,-66 331.5,-36 178.5,-36"/>
<text text-anchor="start" x="186.5" y="-54" font-family="Helvetica,sans-Serif" font-size="10.00">OmniOGL::SectionCollection</text>
<text text-anchor="middle" x="255" y="-43" font-family="Helvetica,sans-Serif" font-size="10.00">::UpdateAdjacentSectionsArray</text>
</a>
</g>
</g>
<!-- Node1&#45;&gt;Node6 -->
<g id="edge5" class="edge"><title>Node1&#45;&gt;Node6</title>
<path fill="none" stroke="midnightblue" d="M142.106,-64.5257C150.764,-63.4791 159.688,-62.4003 168.543,-61.33"/>
<polygon fill="midnightblue" stroke="midnightblue" points="168.984,-64.8022 178.492,-60.1274 168.144,-57.8528 168.984,-64.8022"/>
</g>
<!-- Node4 -->
<g id="node4" class="node"><title>Node4</title>
<g id="a_node4"><a xlink:href="namespace_omni_o_g_l.html#a8f559408c62db097a1a918d7f58f4183" target="_top" xlink:title="A &quot;clone&quot; of the well&#45;known printf() function, with the debug routed to the OutputDebugString() funct...">
<polygon fill="white" stroke="black" points="393,-123.5 393,-142.5 483,-142.5 483,-123.5 393,-123.5"/>
<text text-anchor="middle" x="438" y="-130.5" font-family="Helvetica,sans-Serif" font-size="10.00">OmniOGL::dprint</text>
</a>
</g>
</g>
<!-- Node3&#45;&gt;Node4 -->
<g id="edge3" class="edge"><title>Node3&#45;&gt;Node4</title>
<path fill="none" stroke="midnightblue" d="M300.278,-133C325.131,-133 356.343,-133 382.668,-133"/>
<polygon fill="midnightblue" stroke="midnightblue" points="382.866,-136.5 392.866,-133 382.866,-129.5 382.866,-136.5"/>
</g>
<!-- Node6&#45;&gt;Node2 -->
<g id="edge6" class="edge"><title>Node6&#45;&gt;Node2</title>
<path fill="none" stroke="midnightblue" d="M322.37,-66.0341C343.334,-70.7828 366.161,-75.9536 385.887,-80.4218"/>
<polygon fill="midnightblue" stroke="midnightblue" points="385.367,-83.8927 395.893,-82.6885 386.913,-77.0656 385.367,-83.8927"/>
</g>
<!-- Node7 -->
<g id="node7" class="node"><title>Node7</title>
<g id="a_node7"><a xlink:href="namespace_omni_o_g_l.html#ade1ba238a31a1003412522a2769d5945" target="_top" xlink:title="OmniOGL::_Valid">
<polygon fill="white" stroke="black" points="391.5,-41.5 391.5,-60.5 484.5,-60.5 484.5,-41.5 391.5,-41.5"/>
<text text-anchor="middle" x="438" y="-48.5" font-family="Helvetica,sans-Serif" font-size="10.00">OmniOGL::_Valid</text>
</a>
</g>
</g>
<!-- Node6&#45;&gt;Node7 -->
<g id="edge7" class="edge"><title>Node6&#45;&gt;Node7</title>
<path fill="none" stroke="midnightblue" d="M331.712,-51C348.32,-51 365.611,-51 381.266,-51"/>
<polygon fill="midnightblue" stroke="midnightblue" points="381.293,-54.5001 391.293,-51 381.293,-47.5001 381.293,-54.5001"/>
</g>
<!-- Node6&#45;&gt;Node5 -->
<g id="edge8" class="edge"><title>Node6&#45;&gt;Node5</title>
<path fill="none" stroke="midnightblue" d="M322.37,-35.9659C342.99,-31.2951 365.413,-26.2158 384.914,-21.7985"/>
<polygon fill="midnightblue" stroke="midnightblue" points="385.841,-25.1773 394.821,-19.5545 384.294,-18.3503 385.841,-25.1773"/>
</g>
</g>
</svg>
