<?xml version="1.0" encoding="UTF-8" standalone="no"?>
<!DOCTYPE svg PUBLIC "-//W3C//DTD SVG 1.1//EN"
 "http://www.w3.org/Graphics/SVG/1.1/DTD/svg11.dtd">
<!-- Generated by graphviz version 2.30.1 (20130214.1330)
 -->
<!-- Title: OmniOGL::SectionCollection::RemoveObject Pages: 1 -->
<svg width="1060pt" height="77pt"
 viewBox="0.00 0.00 1060.00 77.00" xmlns="http://www.w3.org/2000/svg" xmlns:xlink="http://www.w3.org/1999/xlink">
<g id="graph0" class="graph" transform="scale(1 1) rotate(0) translate(4 73)">
<title>OmniOGL::SectionCollection::RemoveObject</title>
<polygon fill="white" stroke="white" points="-4,5 -4,-73 1057,-73 1057,5 -4,5"/>
<!-- Node1 -->
<g id="node1" class="node"><title>Node1</title>
<polygon fill="#bfbfbf" stroke="black" points="0,-17 0,-47 142,-47 142,-17 0,-17"/>
<text text-anchor="start" x="8" y="-35" font-family="Helvetica,sans-Serif" font-size="10.00">OmniOGL::SectionCollection</text>
<text text-anchor="middle" x="71" y="-24" font-family="Helvetica,sans-Serif" font-size="10.00">::RemoveObject</text>
</g>
<!-- Node2 -->
<g id="node2" class="node"><title>Node2</title>
<g id="a_node2"><a xlink:href="class_omni_o_g_l_1_1_section_collection.html#af49673c003179e600645df9310c23108" target="_top" xlink:title="OmniOGL::SectionCollection\l::RemoveNearObject">
<polygon fill="white" stroke="black" points="189,-39 189,-69 331,-69 331,-39 189,-39"/>
<text text-anchor="start" x="197" y="-57" font-family="Helvetica,sans-Serif" font-size="10.00">OmniOGL::SectionCollection</text>
<text text-anchor="middle" x="260" y="-46" font-family="Helvetica,sans-Serif" font-size="10.00">::RemoveNearObject</text>
</a>
</g>
</g>
<!-- Node1&#45;&gt;Node2 -->
<g id="edge1" class="edge"><title>Node1&#45;&gt;Node2</title>
<path fill="none" stroke="midnightblue" d="M152.27,-41.4435C164.408,-42.8715 176.849,-44.3352 188.754,-45.7358"/>
<polygon fill="midnightblue" stroke="midnightblue" points="152.504,-37.9471 142.164,-40.2546 151.686,-44.8991 152.504,-37.9471"/>
</g>
<!-- Node8 -->
<g id="node8" class="node"><title>Node8</title>
<g id="a_node8"><a xlink:href="class_omni_o_g_l_1_1_scene.html#a0dbdc05458b6c7c905b79dd847bc5e24" target="_top" xlink:title="Removes a RenObj (or one of its derivates) from the Scene, only if the object [pointer] already exist...">
<polygon fill="white" stroke="black" points="178.5,-0.5 178.5,-19.5 341.5,-19.5 341.5,-0.5 178.5,-0.5"/>
<text text-anchor="middle" x="260" y="-7.5" font-family="Helvetica,sans-Serif" font-size="10.00">OmniOGL::Scene::RemoveObject</text>
</a>
</g>
</g>
<!-- Node1&#45;&gt;Node8 -->
<g id="edge7" class="edge"><title>Node1&#45;&gt;Node8</title>
<path fill="none" stroke="midnightblue" d="M152.24,-22.56C160.9,-21.5412 169.714,-20.5042 178.379,-19.4849"/>
<polygon fill="midnightblue" stroke="midnightblue" points="151.686,-19.1009 142.164,-23.7454 152.504,-26.0529 151.686,-19.1009"/>
</g>
<!-- Node3 -->
<g id="node3" class="node"><title>Node3</title>
<g id="a_node3"><a xlink:href="class_omni_o_g_l_1_1_scene.html#a9d8d02ef3d9c0e472ad5866cbbacfdac" target="_top" xlink:title="Iterates through all objects in the Section which the player/user is currently in, as well as all of the persistant objects in the Scene, and attempts to find which object is within closest proximity to the camera CENTER (the point the camera is looking at). Only objects which are within a close&#45;enough proximity will qualify. The nearest qualifying object is removed from the Scene (or from the Section it occupied, if it occupied one). evnt_Keybrd()">
<polygon fill="white" stroke="black" points="378.5,-17 378.5,-47 533.5,-47 533.5,-17 378.5,-17"/>
<text text-anchor="start" x="386.5" y="-35" font-family="Helvetica,sans-Serif" font-size="10.00">OmniOGL::Scene::RemoveNear</text>
<text text-anchor="middle" x="456" y="-24" font-family="Helvetica,sans-Serif" font-size="10.00">Object</text>
</a>
</g>
</g>
<!-- Node2&#45;&gt;Node3 -->
<g id="edge2" class="edge"><title>Node2&#45;&gt;Node3</title>
<path fill="none" stroke="midnightblue" d="M341.203,-44.9048C353.428,-43.5185 366.019,-42.0906 378.169,-40.7128"/>
<polygon fill="midnightblue" stroke="midnightblue" points="340.58,-41.4529 331.038,-46.0575 341.369,-48.4083 340.58,-41.4529"/>
</g>
<!-- Node4 -->
<g id="node4" class="node"><title>Node4</title>
<g id="a_node4"><a xlink:href="class_omni_o_g_l_1_1_scene.html#aaf90a48c617a97b06e8b75320c0271b0" target="_top" xlink:title="OmniOGL::Scene::HandleInput">
<polygon fill="white" stroke="black" points="570.5,-22.5 570.5,-41.5 721.5,-41.5 721.5,-22.5 570.5,-22.5"/>
<text text-anchor="middle" x="646" y="-29.5" font-family="Helvetica,sans-Serif" font-size="10.00">OmniOGL::Scene::HandleInput</text>
</a>
</g>
</g>
<!-- Node3&#45;&gt;Node4 -->
<g id="edge3" class="edge"><title>Node3&#45;&gt;Node4</title>
<path fill="none" stroke="midnightblue" d="M544.007,-32C552.803,-32 561.681,-32 570.331,-32"/>
<polygon fill="midnightblue" stroke="midnightblue" points="543.738,-28.5001 533.738,-32 543.738,-35.5001 543.738,-28.5001"/>
</g>
<!-- Node5 -->
<g id="node5" class="node"><title>Node5</title>
<g id="a_node5"><a xlink:href="class_omni_o_g_l_1_1_scene.html#ac65b18faabaa3d2af9a0a4b2f2fc0fe0" target="_top" xlink:title="The core of the rendering loop! This method iterates through all possible containers of objects&#45;to&#45;be...">
<polygon fill="white" stroke="black" points="758,-22.5 758,-41.5 880,-41.5 880,-22.5 758,-22.5"/>
<text text-anchor="middle" x="819" y="-29.5" font-family="Helvetica,sans-Serif" font-size="10.00">OmniOGL::Scene::Draw</text>
</a>
</g>
</g>
<!-- Node4&#45;&gt;Node5 -->
<g id="edge4" class="edge"><title>Node4&#45;&gt;Node5</title>
<path fill="none" stroke="midnightblue" d="M731.52,-32C740.413,-32 749.32,-32 757.856,-32"/>
<polygon fill="midnightblue" stroke="midnightblue" points="731.506,-28.5001 721.506,-32 731.506,-35.5001 731.506,-28.5001"/>
</g>
<!-- Node6 -->
<g id="node6" class="node"><title>Node6</title>
<g id="a_node6"><a xlink:href="_exec_8cpp.html#a38c5e7def3be6ea702581ee4a92b9cc0" target="_top" xlink:title="render">
<polygon fill="white" stroke="black" points="916,-22.5 916,-41.5 960,-41.5 960,-22.5 916,-22.5"/>
<text text-anchor="middle" x="938" y="-29.5" font-family="Helvetica,sans-Serif" font-size="10.00">render</text>
</a>
</g>
</g>
<!-- Node5&#45;&gt;Node6 -->
<g id="edge5" class="edge"><title>Node5&#45;&gt;Node6</title>
<path fill="none" stroke="midnightblue" d="M890.318,-32C899.524,-32 908.323,-32 915.751,-32"/>
<polygon fill="midnightblue" stroke="midnightblue" points="890.214,-28.5001 880.214,-32 890.214,-35.5001 890.214,-28.5001"/>
</g>
<!-- Node7 -->
<g id="node7" class="node"><title>Node7</title>
<g id="a_node7"><a xlink:href="_exec_8cpp.html#a66e65252a6985e382838442f280f46ba" target="_top" xlink:title="WinMain">
<polygon fill="white" stroke="black" points="996.5,-22.5 996.5,-41.5 1051.5,-41.5 1051.5,-22.5 996.5,-22.5"/>
<text text-anchor="middle" x="1024" y="-29.5" font-family="Helvetica,sans-Serif" font-size="10.00">WinMain</text>
</a>
</g>
</g>
<!-- Node6&#45;&gt;Node7 -->
<g id="edge6" class="edge"><title>Node6&#45;&gt;Node7</title>
<path fill="none" stroke="midnightblue" d="M970.253,-32C978.845,-32 988.081,-32 996.386,-32"/>
<polygon fill="midnightblue" stroke="midnightblue" points="970.197,-28.5001 960.197,-32 970.197,-35.5001 970.197,-28.5001"/>
</g>
<!-- Node8&#45;&gt;Node3 -->
<g id="edge8" class="edge"><title>Node8&#45;&gt;Node3</title>
<path fill="none" stroke="midnightblue" d="M351.643,-20.2791C360.591,-21.2938 369.611,-22.3167 378.397,-23.313"/>
<polygon fill="midnightblue" stroke="midnightblue" points="351.919,-16.788 341.588,-19.1389 351.13,-23.7435 351.919,-16.788"/>
</g>
</g>
</svg>
