<?xml version="1.0" encoding="UTF-8" standalone="no"?>
<!DOCTYPE svg PUBLIC "-//W3C//DTD SVG 1.1//EN"
 "http://www.w3.org/Graphics/SVG/1.1/DTD/svg11.dtd">
<!-- Generated by graphviz version 2.30.1 (20130214.1330)
 -->
<!-- Title: OmniOGL::Scene::Scene Pages: 1 -->
<svg width="682pt" height="545pt"
 viewBox="0.00 0.00 682.00 545.00" xmlns="http://www.w3.org/2000/svg" xmlns:xlink="http://www.w3.org/1999/xlink">
<g id="graph0" class="graph" transform="scale(1 1) rotate(0) translate(4 541)">
<title>OmniOGL::Scene::Scene</title>
<polygon fill="white" stroke="white" points="-4,5 -4,-541 679,-541 679,5 -4,5"/>
<!-- Node1 -->
<g id="node1" class="node"><title>Node1</title>
<polygon fill="#bfbfbf" stroke="black" points="0,-298.5 0,-317.5 128,-317.5 128,-298.5 0,-298.5"/>
<text text-anchor="middle" x="64" y="-305.5" font-family="Helvetica,sans-Serif" font-size="10.00">OmniOGL::Scene::Scene</text>
</g>
<!-- Node2 -->
<g id="node2" class="node"><title>Node2</title>
<g id="a_node2"><a xlink:href="class_omni_o_g_l_1_1_o_g_l_matrices.html#ab7fcaa03f41f75becc4a00a9f2296d57" target="_top" xlink:title="OmniOGL::OGLMatrices\l::SetSRTVbo">
<polygon fill="white" stroke="black" points="187,-507 187,-537 311,-537 311,-507 187,-507"/>
<text text-anchor="start" x="195" y="-525" font-family="Helvetica,sans-Serif" font-size="10.00">OmniOGL::OGLMatrices</text>
<text text-anchor="middle" x="249" y="-514" font-family="Helvetica,sans-Serif" font-size="10.00">::SetSRTVbo</text>
</a>
</g>
</g>
<!-- Node1&#45;&gt;Node2 -->
<g id="edge1" class="edge"><title>Node1&#45;&gt;Node2</title>
<path fill="none" stroke="midnightblue" d="M67.482,-317.567C75.7821,-347.7 105.41,-441.63 164,-492 168.514,-495.88 173.565,-499.272 178.892,-502.234"/>
<polygon fill="midnightblue" stroke="midnightblue" points="177.56,-505.481 188.07,-506.823 180.691,-499.22 177.56,-505.481"/>
</g>
<!-- Node3 -->
<g id="node3" class="node"><title>Node3</title>
<g id="a_node3"><a xlink:href="namespace_omni_o_g_l.html#abe5ff24d55002e6ebffb4415d994260a" target="_top" xlink:title="Sets the pointer to the value &#45;1.">
<polygon fill="white" stroke="black" points="404,-464.5 404,-483.5 488,-483.5 488,-464.5 404,-464.5"/>
<text text-anchor="middle" x="446" y="-471.5" font-family="Helvetica,sans-Serif" font-size="10.00">OmniOGL::_Init</text>
</a>
</g>
</g>
<!-- Node1&#45;&gt;Node3 -->
<g id="edge2" class="edge"><title>Node1&#45;&gt;Node3</title>
<path fill="none" stroke="midnightblue" d="M67.9395,-317.623C76.9715,-345.319 107.207,-425.32 164,-458 235.265,-499.007 334.246,-493.02 393.72,-484.1"/>
<polygon fill="midnightblue" stroke="midnightblue" points="394.303,-487.551 403.633,-482.53 393.208,-480.637 394.303,-487.551"/>
</g>
<!-- Node4 -->
<g id="node4" class="node"><title>Node4</title>
<g id="a_node4"><a xlink:href="namespace_omni_o_g_l.html#a80cd48382ee4083e78ba3431e570b82c" target="_top" xlink:title="A wrapper around the new[] keyword. Allocates the desired number of elements to the given pointer...">
<polygon fill="white" stroke="black" points="401,-383.5 401,-402.5 491,-402.5 491,-383.5 401,-383.5"/>
<text text-anchor="middle" x="446" y="-390.5" font-family="Helvetica,sans-Serif" font-size="10.00">OmniOGL::_New</text>
</a>
</g>
</g>
<!-- Node1&#45;&gt;Node4 -->
<g id="edge3" class="edge"><title>Node1&#45;&gt;Node4</title>
<path fill="none" stroke="midnightblue" d="M77.2738,-317.606C95.1898,-331.041 130.074,-355.025 164,-366 239.943,-390.568 332.988,-394.804 390.638,-394.635"/>
<polygon fill="midnightblue" stroke="midnightblue" points="391.006,-398.132 400.979,-394.556 390.952,-391.132 391.006,-398.132"/>
</g>
<!-- Node6 -->
<g id="node6" class="node"><title>Node6</title>
<g id="a_node6"><a xlink:href="class_omni_o_g_l_1_1_section.html#a048b806e5f535ddbf0dbca0b5111e65a" target="_top" xlink:title="A method used to either set or retrieve the unique ID/index of the Section. This method will always r...">
<polygon fill="white" stroke="black" points="376,-257.5 376,-276.5 516,-276.5 516,-257.5 376,-257.5"/>
<text text-anchor="middle" x="446" y="-264.5" font-family="Helvetica,sans-Serif" font-size="10.00">OmniOGL::Section::QueryID</text>
</a>
</g>
</g>
<!-- Node1&#45;&gt;Node6 -->
<g id="edge5" class="edge"><title>Node1&#45;&gt;Node6</title>
<path fill="none" stroke="midnightblue" d="M96.3419,-298.456C115.66,-292.983 141.046,-286.519 164,-283 231.522,-272.649 309.096,-268.832 365.607,-267.499"/>
<polygon fill="midnightblue" stroke="midnightblue" points="365.984,-270.992 375.907,-267.278 365.834,-263.993 365.984,-270.992"/>
</g>
<!-- Node7 -->
<g id="node7" class="node"><title>Node7</title>
<g id="a_node7"><a xlink:href="class_omni_o_g_l_1_1_scene.html#a7ad1d09b92c04fb221415d8c861e1f48" target="_top" xlink:title="A private method which updates the list of indices which represent all Sections which are in close pr...">
<polygon fill="white" stroke="black" points="164.5,-293 164.5,-323 333.5,-323 333.5,-293 164.5,-293"/>
<text text-anchor="start" x="172.5" y="-311" font-family="Helvetica,sans-Serif" font-size="10.00">OmniOGL::Scene::UpdateAdjacent</text>
<text text-anchor="middle" x="249" y="-300" font-family="Helvetica,sans-Serif" font-size="10.00">SectionsArray</text>
</a>
</g>
</g>
<!-- Node1&#45;&gt;Node7 -->
<g id="edge6" class="edge"><title>Node1&#45;&gt;Node7</title>
<path fill="none" stroke="midnightblue" d="M128.234,-308C136.716,-308 145.558,-308 154.425,-308"/>
<polygon fill="midnightblue" stroke="midnightblue" points="154.43,-311.5 164.43,-308 154.43,-304.5 154.43,-311.5"/>
</g>
<!-- Node5 -->
<g id="node5" class="node"><title>Node5</title>
<g id="a_node5"><a xlink:href="namespace_omni_o_g_l.html#a8f559408c62db097a1a918d7f58f4183" target="_top" xlink:title="A &quot;clone&quot; of the well&#45;known printf() function, with the debug routed to the OutputDebugString() funct...">
<polygon fill="white" stroke="black" points="571,-383.5 571,-402.5 661,-402.5 661,-383.5 571,-383.5"/>
<text text-anchor="middle" x="616" y="-390.5" font-family="Helvetica,sans-Serif" font-size="10.00">OmniOGL::dprint</text>
</a>
</g>
</g>
<!-- Node1&#45;&gt;Node5 -->
<g id="edge8" class="edge"><title>Node1&#45;&gt;Node5</title>
<path fill="none" stroke="midnightblue" d="M100.061,-317.596C118.898,-322.473 142.588,-328.163 164,-332 321.691,-360.257 363.822,-348.61 522,-374 535.096,-376.102 549.149,-378.76 562.264,-381.417"/>
<polygon fill="midnightblue" stroke="midnightblue" points="561.578,-384.849 572.079,-383.44 562.991,-377.994 561.578,-384.849"/>
</g>
<!-- Node8 -->
<g id="node8" class="node"><title>Node8</title>
<g id="a_node8"><a xlink:href="class_omni_o_g_l_1_1_input_events.html#ada44975a5a200ea06939505fddfcf0b2" target="_top" xlink:title="OmniOGL::InputEvents\l::GetInputUpdate">
<polygon fill="white" stroke="black" points="191,-167 191,-197 307,-197 307,-167 191,-167"/>
<text text-anchor="start" x="199" y="-185" font-family="Helvetica,sans-Serif" font-size="10.00">OmniOGL::InputEvents</text>
<text text-anchor="middle" x="249" y="-174" font-family="Helvetica,sans-Serif" font-size="10.00">::GetInputUpdate</text>
</a>
</g>
</g>
<!-- Node1&#45;&gt;Node8 -->
<g id="edge9" class="edge"><title>Node1&#45;&gt;Node8</title>
<path fill="none" stroke="midnightblue" d="M71.7499,-298.357C86.2779,-278.318 122.57,-231.966 164,-207 169.388,-203.753 175.227,-200.903 181.23,-198.406"/>
<polygon fill="midnightblue" stroke="midnightblue" points="182.664,-201.605 190.757,-194.767 180.167,-195.065 182.664,-201.605"/>
</g>
<!-- Node9 -->
<g id="node9" class="node"><title>Node9</title>
<g id="a_node9"><a xlink:href="class_omni_o_g_l_1_1_camera.html#a492000045ad0bb2973fa0590856104b7" target="_top" xlink:title="A comprehensive method which checks to see if camera movement or camera orientation change is pending...">
<polygon fill="white" stroke="black" points="180.5,-216.5 180.5,-235.5 317.5,-235.5 317.5,-216.5 180.5,-216.5"/>
<text text-anchor="middle" x="249" y="-223.5" font-family="Helvetica,sans-Serif" font-size="10.00">OmniOGL::Camera::Update</text>
</a>
</g>
</g>
<!-- Node1&#45;&gt;Node9 -->
<g id="edge10" class="edge"><title>Node1&#45;&gt;Node9</title>
<path fill="none" stroke="midnightblue" d="M78.8352,-298.372C97.4545,-285.778 131.948,-263.708 164,-250 174.356,-245.571 185.773,-241.692 196.764,-238.416"/>
<polygon fill="midnightblue" stroke="midnightblue" points="198.041,-241.692 206.695,-235.579 196.118,-234.961 198.041,-241.692"/>
</g>
<!-- Node11 -->
<g id="node11" class="node"><title>Node11</title>
<g id="a_node11"><a xlink:href="class_omni_o_g_l_1_1_line_strip.html#af64b3e0837c49702b82c3b7a6c4288e4" target="_top" xlink:title="Adds a line segment to the class instance using absolute coordinates for a start and end point (i...">
<polygon fill="white" stroke="black" points="197,-419 197,-449 301,-449 301,-419 197,-419"/>
<text text-anchor="start" x="205" y="-437" font-family="Helvetica,sans-Serif" font-size="10.00">OmniOGL::LineStrip</text>
<text text-anchor="middle" x="249" y="-426" font-family="Helvetica,sans-Serif" font-size="10.00">::AddInstance</text>
</a>
</g>
</g>
<!-- Node1&#45;&gt;Node11 -->
<g id="edge13" class="edge"><title>Node1&#45;&gt;Node11</title>
<path fill="none" stroke="midnightblue" d="M72.4321,-317.554C87.6674,-336.547 124.359,-379.339 164,-404 171.182,-408.468 179.124,-412.396 187.175,-415.809"/>
<polygon fill="midnightblue" stroke="midnightblue" points="186.05,-419.129 196.635,-419.583 188.643,-412.627 186.05,-419.129"/>
</g>
<!-- Node13 -->
<g id="node13" class="node"><title>Node13</title>
<g id="a_node13"><a xlink:href="class_omni_o_g_l_1_1_scene.html#a63db7f91d326ad1a20741b31417b8148" target="_top" xlink:title="A template method which adds an renderable object of type T to the scene. It is assumed that T is a d...">
<polygon fill="white" stroke="black" points="176,-128.5 176,-147.5 322,-147.5 322,-128.5 176,-128.5"/>
<text text-anchor="middle" x="249" y="-135.5" font-family="Helvetica,sans-Serif" font-size="10.00">OmniOGL::Scene::AddObject</text>
</a>
</g>
</g>
<!-- Node1&#45;&gt;Node13 -->
<g id="edge18" class="edge"><title>Node1&#45;&gt;Node13</title>
<path fill="none" stroke="midnightblue" d="M68.3421,-298.376C78.248,-271.356 110.168,-194.342 164,-157 166.764,-155.083 169.691,-153.355 172.732,-151.8"/>
<polygon fill="midnightblue" stroke="midnightblue" points="174.417,-154.881 182.141,-147.63 171.581,-148.482 174.417,-154.881"/>
</g>
<!-- Node15 -->
<g id="node15" class="node"><title>Node15</title>
<g id="a_node15"><a xlink:href="class_omni_o_g_l_1_1_input_events.html#a5e2c671369f0eae88d61e31ec20b6a10" target="_top" xlink:title="OmniOGL::InputEvents\l::Activate">
<polygon fill="white" stroke="black" points="191,-64 191,-94 307,-94 307,-64 191,-64"/>
<text text-anchor="start" x="199" y="-82" font-family="Helvetica,sans-Serif" font-size="10.00">OmniOGL::InputEvents</text>
<text text-anchor="middle" x="249" y="-71" font-family="Helvetica,sans-Serif" font-size="10.00">::Activate</text>
</a>
</g>
</g>
<!-- Node1&#45;&gt;Node15 -->
<g id="edge20" class="edge"><title>Node1&#45;&gt;Node15</title>
<path fill="none" stroke="midnightblue" d="M67.63,-298.426C76.3693,-268.222 107.158,-173.717 164,-119 172.46,-110.856 182.89,-104.111 193.489,-98.6285"/>
<polygon fill="midnightblue" stroke="midnightblue" points="195.318,-101.632 202.8,-94.1314 192.273,-95.3286 195.318,-101.632"/>
</g>
<!-- Node4&#45;&gt;Node5 -->
<g id="edge4" class="edge"><title>Node4&#45;&gt;Node5</title>
<path fill="none" stroke="midnightblue" d="M491.14,-393C512.469,-393 538.263,-393 560.777,-393"/>
<polygon fill="midnightblue" stroke="midnightblue" points="560.863,-396.5 570.863,-393 560.863,-389.5 560.863,-396.5"/>
</g>
<!-- Node7&#45;&gt;Node6 -->
<g id="edge7" class="edge"><title>Node7&#45;&gt;Node6</title>
<path fill="none" stroke="midnightblue" d="M321.504,-292.966C344.024,-288.231 368.541,-283.076 389.751,-278.616"/>
<polygon fill="midnightblue" stroke="midnightblue" points="390.492,-282.037 399.558,-276.554 389.052,-275.187 390.492,-282.037"/>
</g>
<!-- Node10 -->
<g id="node10" class="node"><title>Node10</title>
<g id="a_node10"><a xlink:href="class_omni_o_g_l_1_1_camera.html#a698009762978100380046bf41abd45ea" target="_top" xlink:title="This method rotates a 3D vector (represented by a three element float array) around another 3D vector...">
<polygon fill="white" stroke="black" points="385.5,-208 385.5,-238 506.5,-238 506.5,-208 385.5,-208"/>
<text text-anchor="start" x="393.5" y="-226" font-family="Helvetica,sans-Serif" font-size="10.00">OmniOGL::Camera::raw</text>
<text text-anchor="middle" x="446" y="-215" font-family="Helvetica,sans-Serif" font-size="10.00">_rotate</text>
</a>
</g>
</g>
<!-- Node9&#45;&gt;Node10 -->
<g id="edge11" class="edge"><title>Node9&#45;&gt;Node10</title>
<path fill="none" stroke="midnightblue" d="M317.654,-224.959C336.217,-224.674 356.377,-224.363 375.065,-224.076"/>
<polygon fill="midnightblue" stroke="midnightblue" points="375.331,-227.572 385.276,-223.919 375.224,-220.573 375.331,-227.572"/>
</g>
<!-- Node9&#45;&gt;Node6 -->
<g id="edge12" class="edge"><title>Node9&#45;&gt;Node6</title>
<path fill="none" stroke="midnightblue" d="M295.227,-235.509C323.429,-241.439 359.916,-249.11 389.815,-255.397"/>
<polygon fill="midnightblue" stroke="midnightblue" points="389.175,-258.839 399.681,-257.471 390.615,-251.989 389.175,-258.839"/>
</g>
<!-- Node11&#45;&gt;Node3 -->
<g id="edge14" class="edge"><title>Node11&#45;&gt;Node3</title>
<path fill="none" stroke="midnightblue" d="M301.234,-444.51C329.901,-450.39 365.515,-457.695 394.124,-463.564"/>
<polygon fill="midnightblue" stroke="midnightblue" points="393.429,-466.994 403.928,-465.575 394.836,-460.137 393.429,-466.994"/>
</g>
<!-- Node11&#45;&gt;Node4 -->
<g id="edge15" class="edge"><title>Node11&#45;&gt;Node4</title>
<path fill="none" stroke="midnightblue" d="M301.234,-423.228C328.771,-417.438 362.718,-410.3 390.709,-404.415"/>
<polygon fill="midnightblue" stroke="midnightblue" points="391.663,-407.791 400.729,-402.308 390.222,-400.941 391.663,-407.791"/>
</g>
<!-- Node12 -->
<g id="node12" class="node"><title>Node12</title>
<g id="a_node12"><a xlink:href="namespace_omni_o_g_l.html#ab790cf1cdc8d2bcbdbbe06c6d87f1a1d" target="_top" xlink:title="A wrapper for the delete[] keyword. Always uses delete[], and never delete.">
<polygon fill="white" stroke="black" points="396.5,-423.5 396.5,-442.5 495.5,-442.5 495.5,-423.5 396.5,-423.5"/>
<text text-anchor="middle" x="446" y="-430.5" font-family="Helvetica,sans-Serif" font-size="10.00">OmniOGL::_Delete</text>
</a>
</g>
</g>
<!-- Node11&#45;&gt;Node12 -->
<g id="edge16" class="edge"><title>Node11&#45;&gt;Node12</title>
<path fill="none" stroke="midnightblue" d="M301.234,-433.737C327.349,-433.603 359.23,-433.44 386.328,-433.301"/>
<polygon fill="midnightblue" stroke="midnightblue" points="386.475,-436.8 396.457,-433.249 386.439,-429.8 386.475,-436.8"/>
</g>
<!-- Node12&#45;&gt;Node5 -->
<g id="edge17" class="edge"><title>Node12&#45;&gt;Node5</title>
<path fill="none" stroke="midnightblue" d="M487.24,-423.419C510.617,-417.853 540.268,-410.793 565.119,-404.876"/>
<polygon fill="midnightblue" stroke="midnightblue" points="566.171,-408.224 575.088,-402.503 564.549,-401.414 566.171,-408.224"/>
</g>
<!-- Node14 -->
<g id="node14" class="node"><title>Node14</title>
<g id="a_node14"><a xlink:href="class_omni_o_g_l_1_1_section.html#a20b4cf2c6472d59e9967aa8dbad377a4" target="_top" xlink:title="Adds an object to the Section&#39;s collection (linked list) of objects. This method also increments Sect...">
<polygon fill="white" stroke="black" points="370.5,-147.5 370.5,-166.5 521.5,-166.5 521.5,-147.5 370.5,-147.5"/>
<text text-anchor="middle" x="446" y="-154.5" font-family="Helvetica,sans-Serif" font-size="10.00">OmniOGL::Section::AddObject</text>
</a>
</g>
</g>
<!-- Node13&#45;&gt;Node14 -->
<g id="edge19" class="edge"><title>Node13&#45;&gt;Node14</title>
<path fill="none" stroke="midnightblue" d="M322.057,-145.021C334.47,-146.23 347.475,-147.498 360.187,-148.736"/>
<polygon fill="midnightblue" stroke="midnightblue" points="360.009,-152.235 370.302,-149.722 360.688,-145.268 360.009,-152.235"/>
</g>
<!-- Node16 -->
<g id="node16" class="node"><title>Node16</title>
<g id="a_node16"><a xlink:href="class_omni_o_g_l_1_1_input_events.html#a88d861496c66f76d2dbf4008b547ab8e" target="_top" xlink:title="OmniOGL::InputEvents\l::_evnt_Keybrd">
<polygon fill="white" stroke="black" points="388,-49 388,-79 504,-79 504,-49 388,-49"/>
<text text-anchor="start" x="396" y="-67" font-family="Helvetica,sans-Serif" font-size="10.00">OmniOGL::InputEvents</text>
<text text-anchor="middle" x="446" y="-56" font-family="Helvetica,sans-Serif" font-size="10.00">::_evnt_Keybrd</text>
</a>
</g>
</g>
<!-- Node15&#45;&gt;Node16 -->
<g id="edge21" class="edge"><title>Node15&#45;&gt;Node16</title>
<path fill="none" stroke="midnightblue" d="M307.189,-74.6009C329.313,-72.899 354.798,-70.9386 377.788,-69.1701"/>
<polygon fill="midnightblue" stroke="midnightblue" points="378.11,-72.6558 387.812,-68.3991 377.573,-65.6764 378.11,-72.6558"/>
</g>
<!-- Node18 -->
<g id="node18" class="node"><title>Node18</title>
<g id="a_node18"><a xlink:href="class_omni_o_g_l_1_1_input_events.html#a8004e6c0d7db77de53605fb526761cc9" target="_top" xlink:title="OmniOGL::InputEvents\l::_evnt_MouseMov">
<polygon fill="white" stroke="black" points="388,-0 388,-30 504,-30 504,-0 388,-0"/>
<text text-anchor="start" x="396" y="-18" font-family="Helvetica,sans-Serif" font-size="10.00">OmniOGL::InputEvents</text>
<text text-anchor="middle" x="446" y="-7" font-family="Helvetica,sans-Serif" font-size="10.00">::_evnt_MouseMov</text>
</a>
</g>
</g>
<!-- Node15&#45;&gt;Node18 -->
<g id="edge23" class="edge"><title>Node15&#45;&gt;Node18</title>
<path fill="none" stroke="midnightblue" d="M294.691,-63.9607C317.25,-56.4056 345.055,-47.1485 370,-39 375.885,-37.0778 382.034,-35.0847 388.17,-33.106"/>
<polygon fill="midnightblue" stroke="midnightblue" points="389.314,-36.4146 397.762,-30.0206 387.171,-29.7508 389.314,-36.4146"/>
</g>
<!-- Node20 -->
<g id="node20" class="node"><title>Node20</title>
<g id="a_node20"><a xlink:href="class_omni_o_g_l_1_1_input_events.html#a5bbcc2fa9e488f4e50a4186fed9b0fc4" target="_top" xlink:title="OmniOGL::InputEvents\l::_evnt_MouseBtn">
<polygon fill="white" stroke="black" points="388,-98 388,-128 504,-128 504,-98 388,-98"/>
<text text-anchor="start" x="396" y="-116" font-family="Helvetica,sans-Serif" font-size="10.00">OmniOGL::InputEvents</text>
<text text-anchor="middle" x="446" y="-105" font-family="Helvetica,sans-Serif" font-size="10.00">::_evnt_MouseBtn</text>
</a>
</g>
</g>
<!-- Node15&#45;&gt;Node20 -->
<g id="edge25" class="edge"><title>Node15&#45;&gt;Node20</title>
<path fill="none" stroke="midnightblue" d="M307.189,-88.9714C329.313,-92.8289 354.798,-97.2725 377.788,-101.281"/>
<polygon fill="midnightblue" stroke="midnightblue" points="377.36,-104.759 387.812,-103.029 378.562,-97.8631 377.36,-104.759"/>
</g>
<!-- Node17 -->
<g id="node17" class="node"><title>Node17</title>
<g id="a_node17"><a xlink:href="class_omni_o_g_l_1_1_input_events.html#aa5cdedcae6b267a6c61de670d602f8fa" target="_top" xlink:title="OmniOGL::InputEvents\l::evnt_Keybrd">
<polygon fill="white" stroke="black" points="558,-49 558,-79 674,-79 674,-49 558,-49"/>
<text text-anchor="start" x="566" y="-67" font-family="Helvetica,sans-Serif" font-size="10.00">OmniOGL::InputEvents</text>
<text text-anchor="middle" x="616" y="-56" font-family="Helvetica,sans-Serif" font-size="10.00">::evnt_Keybrd</text>
</a>
</g>
</g>
<!-- Node16&#45;&gt;Node17 -->
<g id="edge22" class="edge"><title>Node16&#45;&gt;Node17</title>
<path fill="none" stroke="midnightblue" d="M504.346,-64C518.267,-64 533.278,-64 547.616,-64"/>
<polygon fill="midnightblue" stroke="midnightblue" points="547.912,-67.5001 557.912,-64 547.912,-60.5001 547.912,-67.5001"/>
</g>
<!-- Node19 -->
<g id="node19" class="node"><title>Node19</title>
<g id="a_node19"><a xlink:href="class_omni_o_g_l_1_1_input_events.html#af6143afa6b73f4a0f9447feaae2ef38c" target="_top" xlink:title="OmniOGL::InputEvents\l::evnt_MouseMov">
<polygon fill="white" stroke="black" points="558,-0 558,-30 674,-30 674,-0 558,-0"/>
<text text-anchor="start" x="566" y="-18" font-family="Helvetica,sans-Serif" font-size="10.00">OmniOGL::InputEvents</text>
<text text-anchor="middle" x="616" y="-7" font-family="Helvetica,sans-Serif" font-size="10.00">::evnt_MouseMov</text>
</a>
</g>
</g>
<!-- Node18&#45;&gt;Node19 -->
<g id="edge24" class="edge"><title>Node18&#45;&gt;Node19</title>
<path fill="none" stroke="midnightblue" d="M504.346,-15C518.267,-15 533.278,-15 547.616,-15"/>
<polygon fill="midnightblue" stroke="midnightblue" points="547.912,-18.5001 557.912,-15 547.912,-11.5001 547.912,-18.5001"/>
</g>
<!-- Node21 -->
<g id="node21" class="node"><title>Node21</title>
<g id="a_node21"><a xlink:href="class_omni_o_g_l_1_1_input_events.html#a09eb909106295408dd28e2e74d11b74f" target="_top" xlink:title="OmniOGL::InputEvents\l::evnt_MouseBtn">
<polygon fill="white" stroke="black" points="558,-98 558,-128 674,-128 674,-98 558,-98"/>
<text text-anchor="start" x="566" y="-116" font-family="Helvetica,sans-Serif" font-size="10.00">OmniOGL::InputEvents</text>
<text text-anchor="middle" x="616" y="-105" font-family="Helvetica,sans-Serif" font-size="10.00">::evnt_MouseBtn</text>
</a>
</g>
</g>
<!-- Node20&#45;&gt;Node21 -->
<g id="edge26" class="edge"><title>Node20&#45;&gt;Node21</title>
<path fill="none" stroke="midnightblue" d="M504.346,-113C518.267,-113 533.278,-113 547.616,-113"/>
<polygon fill="midnightblue" stroke="midnightblue" points="547.912,-116.5 557.912,-113 547.912,-109.5 547.912,-116.5"/>
</g>
</g>
</svg>
