<?xml version="1.0" encoding="UTF-8" standalone="no"?>
<!DOCTYPE svg PUBLIC "-//W3C//DTD SVG 1.1//EN"
 "http://www.w3.org/Graphics/SVG/1.1/DTD/svg11.dtd">
<!-- Generated by graphviz version 2.30.1 (20130214.1330)
 -->
<!-- Title: OmniOGL::VoxelField::FillWithRandom Pages: 1 -->
<!--zoomable 307 -->
<svg id="main" version="1.1" xmlns="http://www.w3.org/2000/svg" xmlns:xlink="http://www.w3.org/1999/xlink" xml:space="preserve" onload="init(evt)">
        <defs>
                <circle id="rim" cx="0" cy="0" r="7"/>
                <circle id="rim2" cx="0" cy="0" r="3.5"/>
                <g id="zoomPlus">
                        <use xlink:href="#rim" fill="#404040">
                                <set attributeName="fill" to="#808080" begin="zoomplus.mouseover" end="zoomplus.mouseout"/>
                        </use>
                        <path d="M-4,0h8M0,-4v8" fill="none" stroke="white" stroke-width="1.5" pointer-events="none"/>
                </g>
                <g id="zoomMin">
                        <use xlink:href="#rim" fill="#404040">
                                <set attributeName="fill" to="#808080" begin="zoomminus.mouseover" end="zoomminus.mouseout"/>
                        </use>
                        <path d="M-4,0h8" fill="none" stroke="white" stroke-width="1.5" pointer-events="none"/>
                </g>
                <g id="dirArrow">
                        <path fill="none" stroke="white" stroke-width="1.5" d="M0,-3.0v7 M-2.5,-0.5L0,-3.0L2.5,-0.5"/>
                </g>
               <g id="resetDef">
                       <use xlink:href="#rim2" fill="#404040">
                               <set attributeName="fill" to="#808080" begin="reset.mouseover" end="reset.mouseout"/>
                       </use>
               </g>
        </defs>

<script type="text/javascript">
var viewWidth = 860;
var viewHeight = 307;
var sectionId = 'dynsection-1';
</script>
<script xlink:href="svgpan.js"/>
<svg id="graph" class="graph">
<g id="viewport">
<title>OmniOGL::VoxelField::FillWithRandom</title>
<polygon fill="white" stroke="white" points="-4,5 -4,-303 857,-303 857,5 -4,5"/>
<!-- Node1 -->
<g id="node1" class="node"><title>Node1</title>
<polygon fill="#bfbfbf" stroke="black" points="0,-110 0,-140 112,-140 112,-110 0,-110"/>
<text text-anchor="start" x="8" y="-128" font-family="Helvetica,sans-Serif" font-size="10.00">OmniOGL::VoxelField</text>
<text text-anchor="middle" x="56" y="-117" font-family="Helvetica,sans-Serif" font-size="10.00">::FillWithRandom</text>
</g>
<!-- Node2 -->
<g id="node2" class="node"><title>Node2</title>
<g id="a_node2"><a xlink:href="class_omni_o_g_l_1_1_voxel.html#aca8321b8573e58db30730a2f7551578b" target="_top" xlink:title="This method directly sets the density values at all eight corners of the voxel, determines the result...">
<polygon fill="white" stroke="black" points="148,-220 148,-250 300,-250 300,-220 148,-220"/>
<text text-anchor="start" x="156" y="-238" font-family="Helvetica,sans-Serif" font-size="10.00">OmniOGL::Voxel::SetMarching</text>
<text text-anchor="middle" x="224" y="-227" font-family="Helvetica,sans-Serif" font-size="10.00">CubesParameters</text>
</a>
</g>
</g>
<!-- Node1&#45;&gt;Node2 -->
<g id="edge1" class="edge"><title>Node1&#45;&gt;Node2</title>
<path fill="none" stroke="midnightblue" d="M71.1914,-140.303C88.1071,-157.83 117.887,-186.503 148,-205 154.408,-208.936 161.422,-212.54 168.508,-215.777"/>
<polygon fill="midnightblue" stroke="midnightblue" points="167.596,-219.197 178.163,-219.962 170.38,-212.774 167.596,-219.197"/>
</g>
<!-- Node7 -->
<g id="node7" class="node"><title>Node7</title>
<g id="a_node7"><a xlink:href="namespace_omni_o_g_l.html#a8f559408c62db097a1a918d7f58f4183" target="_top" xlink:title="A &quot;clone&quot; of the well&#45;known printf() function, with the debug routed to the OutputDebugString() funct...">
<polygon fill="white" stroke="black" points="524,-137.5 524,-156.5 614,-156.5 614,-137.5 524,-137.5"/>
<text text-anchor="middle" x="569" y="-144.5" font-family="Helvetica,sans-Serif" font-size="10.00">OmniOGL::dprint</text>
</a>
</g>
</g>
<!-- Node1&#45;&gt;Node7 -->
<g id="edge6" class="edge"><title>Node1&#45;&gt;Node7</title>
<path fill="none" stroke="midnightblue" d="M106.258,-140.047C119.697,-143.736 134.323,-147.374 148,-150 280.133,-175.367 316.13,-184.476 450,-171 473.613,-168.623 499.488,-163.635 520.975,-158.819"/>
<polygon fill="midnightblue" stroke="midnightblue" points="521.865,-162.205 530.827,-156.554 520.297,-155.383 521.865,-162.205"/>
</g>
<!-- Node8 -->
<g id="node8" class="node"><title>Node8</title>
<g id="a_node8"><a xlink:href="class_omni_o_g_l_1_1_surface_net.html#aba0fe5219d99ab0549427800179449a6" target="_top" xlink:title="Iterates through all NetNodes in this SurfaceNet and adjusts them according to the position of each o...">
<polygon fill="white" stroke="black" points="336,-132 336,-162 450,-162 450,-132 336,-132"/>
<text text-anchor="start" x="344" y="-150" font-family="Helvetica,sans-Serif" font-size="10.00">OmniOGL::SurfaceNet</text>
<text text-anchor="middle" x="393" y="-139" font-family="Helvetica,sans-Serif" font-size="10.00">::RelaxNodes</text>
</a>
</g>
</g>
<!-- Node1&#45;&gt;Node8 -->
<g id="edge7" class="edge"><title>Node1&#45;&gt;Node8</title>
<path fill="none" stroke="midnightblue" d="M112.318,-128.633C170.851,-132.477 263.209,-138.542 325.626,-142.641"/>
<polygon fill="midnightblue" stroke="midnightblue" points="325.552,-146.144 335.76,-143.307 326.011,-139.159 325.552,-146.144"/>
</g>
<!-- Node9 -->
<g id="node9" class="node"><title>Node9</title>
<g id="a_node9"><a xlink:href="class_omni_o_g_l_1_1_surface_net.html#a451aa3478ef94a1709c675b4c83de341" target="_top" xlink:title="OmniOGL::SurfaceNet\l::BlendNormals">
<polygon fill="white" stroke="black" points="167,-88 167,-118 281,-118 281,-88 167,-88"/>
<text text-anchor="start" x="175" y="-106" font-family="Helvetica,sans-Serif" font-size="10.00">OmniOGL::SurfaceNet</text>
<text text-anchor="middle" x="224" y="-95" font-family="Helvetica,sans-Serif" font-size="10.00">::BlendNormals</text>
</a>
</g>
</g>
<!-- Node1&#45;&gt;Node9 -->
<g id="edge9" class="edge"><title>Node1&#45;&gt;Node9</title>
<path fill="none" stroke="midnightblue" d="M112.276,-117.674C126.529,-115.785 142.015,-113.733 156.764,-111.778"/>
<polygon fill="midnightblue" stroke="midnightblue" points="157.379,-115.227 166.833,-110.444 156.459,-108.288 157.379,-115.227"/>
</g>
<!-- Node11 -->
<g id="node11" class="node"><title>Node11</title>
<g id="a_node11"><a xlink:href="class_omni_o_g_l_1_1_block_array.html#acb2c4730f7024c2ab8efbe84911d7f69" target="_top" xlink:title="This method takes various critical parameters and populates its class members with their data...">
<polygon fill="white" stroke="black" points="167,-39 167,-69 281,-69 281,-39 167,-39"/>
<text text-anchor="start" x="175" y="-57" font-family="Helvetica,sans-Serif" font-size="10.00">OmniOGL::BlockArray</text>
<text text-anchor="middle" x="224" y="-46" font-family="Helvetica,sans-Serif" font-size="10.00">::UpdateVertices</text>
</a>
</g>
</g>
<!-- Node1&#45;&gt;Node11 -->
<g id="edge11" class="edge"><title>Node1&#45;&gt;Node11</title>
<path fill="none" stroke="midnightblue" d="M84.3849,-109.834C102.198,-100.301 126.104,-88.1257 148,-79 153.357,-76.7675 158.99,-74.5904 164.662,-72.5115"/>
<polygon fill="midnightblue" stroke="midnightblue" points="165.957,-75.7657 174.202,-69.1128 163.608,-69.1716 165.957,-75.7657"/>
</g>
<!-- Node13 -->
<g id="node13" class="node"><title>Node13</title>
<g id="a_node13"><a xlink:href="class_omni_o_g_l_1_1_ren_obj.html#a57b3b7f832a64b1402d9734e533e58f7" target="_top" xlink:title="A setter which sets the origin of the object in 3D space, to which all vertices are relative...">
<polygon fill="white" stroke="black" points="151.5,-0.5 151.5,-19.5 296.5,-19.5 296.5,-0.5 151.5,-0.5"/>
<text text-anchor="middle" x="224" y="-7.5" font-family="Helvetica,sans-Serif" font-size="10.00">OmniOGL::RenObj::SetOrigin</text>
</a>
</g>
</g>
<!-- Node1&#45;&gt;Node13 -->
<g id="edge14" class="edge"><title>Node1&#45;&gt;Node13</title>
<path fill="none" stroke="midnightblue" d="M67.1203,-109.811C82.1753,-88.4386 112.535,-49.7851 148,-29 151.716,-26.8224 155.677,-24.8922 159.764,-23.1816"/>
<polygon fill="midnightblue" stroke="midnightblue" points="161.317,-26.3384 169.473,-19.5757 158.88,-19.7764 161.317,-26.3384"/>
</g>
<!-- Node3 -->
<g id="node3" class="node"><title>Node3</title>
<g id="a_node3"><a xlink:href="class_omni_o_g_l_1_1_surface_net.html#af5a54cbc22614787f6c7fff05382e15f" target="_top" xlink:title="This method takes three floats as parameters which represent a point in 3D space which is added to th...">
<polygon fill="white" stroke="black" points="336,-269 336,-299 450,-299 450,-269 336,-269"/>
<text text-anchor="start" x="344" y="-287" font-family="Helvetica,sans-Serif" font-size="10.00">OmniOGL::SurfaceNet</text>
<text text-anchor="middle" x="393" y="-276" font-family="Helvetica,sans-Serif" font-size="10.00">::AddNode</text>
</a>
</g>
</g>
<!-- Node2&#45;&gt;Node3 -->
<g id="edge2" class="edge"><title>Node2&#45;&gt;Node3</title>
<path fill="none" stroke="midnightblue" d="M276.468,-250.101C293.692,-255.155 313.059,-260.838 330.942,-266.085"/>
<polygon fill="midnightblue" stroke="midnightblue" points="330.121,-269.491 340.702,-268.948 332.092,-262.774 330.121,-269.491"/>
</g>
<!-- Node4 -->
<g id="node4" class="node"><title>Node4</title>
<g id="a_node4"><a xlink:href="class_omni_o_g_l_1_1_surface_net.html#ae5c27214a80e2852b3db3ff1c9b2ab7e" target="_top" xlink:title="This method adds any number of neighbors to a NetNode at the specified index. All indices passed to t...">
<polygon fill="white" stroke="black" points="336,-220 336,-250 450,-250 450,-220 336,-220"/>
<text text-anchor="start" x="344" y="-238" font-family="Helvetica,sans-Serif" font-size="10.00">OmniOGL::SurfaceNet</text>
<text text-anchor="middle" x="393" y="-227" font-family="Helvetica,sans-Serif" font-size="10.00">::AddNeighbors</text>
</a>
</g>
</g>
<!-- Node2&#45;&gt;Node4 -->
<g id="edge3" class="edge"><title>Node2&#45;&gt;Node4</title>
<path fill="none" stroke="midnightblue" d="M300.195,-235C308.689,-235 317.298,-235 325.667,-235"/>
<polygon fill="midnightblue" stroke="midnightblue" points="325.732,-238.5 335.732,-235 325.732,-231.5 325.732,-238.5"/>
</g>
<!-- Node5 -->
<g id="node5" class="node"><title>Node5</title>
<g id="a_node5"><a xlink:href="class_omni_o_g_l_1_1_net_node.html#a8c7516402f5ac053c6723e512bb7e97e" target="_top" xlink:title="This method should be invoked two times for each triangle that the vertex represented by this NetNode...">
<polygon fill="white" stroke="black" points="486.5,-225.5 486.5,-244.5 651.5,-244.5 651.5,-225.5 486.5,-225.5"/>
<text text-anchor="middle" x="569" y="-232.5" font-family="Helvetica,sans-Serif" font-size="10.00">OmniOGL::NetNode::AddNeighbor</text>
</a>
</g>
</g>
<!-- Node4&#45;&gt;Node5 -->
<g id="edge4" class="edge"><title>Node4&#45;&gt;Node5</title>
<path fill="none" stroke="midnightblue" d="M450.012,-235C458.458,-235 467.351,-235 476.311,-235"/>
<polygon fill="midnightblue" stroke="midnightblue" points="476.435,-238.5 486.435,-235 476.435,-231.5 476.435,-238.5"/>
</g>
<!-- Node6 -->
<g id="node6" class="node"><title>Node6</title>
<g id="a_node6"><a xlink:href="class_omni_o_g_l_1_1_net_node.html#a16bade900879b7301129e0b202fb231c" target="_top" xlink:title="A method which returns a scalar distance between the original vertex represented by this NetNode and ...">
<polygon fill="white" stroke="black" points="688,-225.5 688,-244.5 852,-244.5 852,-225.5 688,-225.5"/>
<text text-anchor="middle" x="770" y="-232.5" font-family="Helvetica,sans-Serif" font-size="10.00">OmniOGL::NetNode::GetDistance</text>
</a>
</g>
</g>
<!-- Node5&#45;&gt;Node6 -->
<g id="edge5" class="edge"><title>Node5&#45;&gt;Node6</title>
<path fill="none" stroke="midnightblue" d="M651.515,-235C660.156,-235 668.984,-235 677.726,-235"/>
<polygon fill="midnightblue" stroke="midnightblue" points="677.934,-238.5 687.934,-235 677.933,-231.5 677.934,-238.5"/>
</g>
<!-- Node8&#45;&gt;Node7 -->
<g id="edge8" class="edge"><title>Node8&#45;&gt;Node7</title>
<path fill="none" stroke="midnightblue" d="M450.012,-147C470.495,-147 493.613,-147 513.923,-147"/>
<polygon fill="midnightblue" stroke="midnightblue" points="513.95,-150.5 523.95,-147 513.95,-143.5 513.95,-150.5"/>
</g>
<!-- Node10 -->
<g id="node10" class="node"><title>Node10</title>
<g id="a_node10"><a xlink:href="class_omni_o_g_l_1_1_surface_net.html#ad2ab5521d5d10e5da796809ae839c609" target="_top" xlink:title="OmniOGL::SurfaceNet\l::AddNormal">
<polygon fill="white" stroke="black" points="336,-83 336,-113 450,-113 450,-83 336,-83"/>
<text text-anchor="start" x="344" y="-101" font-family="Helvetica,sans-Serif" font-size="10.00">OmniOGL::SurfaceNet</text>
<text text-anchor="middle" x="393" y="-90" font-family="Helvetica,sans-Serif" font-size="10.00">::AddNormal</text>
</a>
</g>
</g>
<!-- Node9&#45;&gt;Node10 -->
<g id="edge10" class="edge"><title>Node9&#45;&gt;Node10</title>
<path fill="none" stroke="midnightblue" d="M281.073,-101.321C295.393,-100.892 310.924,-100.427 325.703,-99.9849"/>
<polygon fill="midnightblue" stroke="midnightblue" points="325.9,-103.481 335.791,-99.6829 325.69,-96.4838 325.9,-103.481"/>
</g>
<!-- Node12 -->
<g id="node12" class="node"><title>Node12</title>
<g id="a_node12"><a xlink:href="namespace_omni_o_g_l.html#a80cd48382ee4083e78ba3431e570b82c" target="_top" xlink:title="A wrapper around the new[] keyword. Allocates the desired number of elements to the given pointer...">
<polygon fill="white" stroke="black" points="348,-44.5 348,-63.5 438,-63.5 438,-44.5 348,-44.5"/>
<text text-anchor="middle" x="393" y="-51.5" font-family="Helvetica,sans-Serif" font-size="10.00">OmniOGL::_New</text>
</a>
</g>
</g>
<!-- Node11&#45;&gt;Node12 -->
<g id="edge12" class="edge"><title>Node11&#45;&gt;Node12</title>
<path fill="none" stroke="midnightblue" d="M281.073,-54C299.377,-54 319.658,-54 337.82,-54"/>
<polygon fill="midnightblue" stroke="midnightblue" points="337.95,-57.5001 347.95,-54 337.95,-50.5001 337.95,-57.5001"/>
</g>
<!-- Node12&#45;&gt;Node7 -->
<g id="edge13" class="edge"><title>Node12&#45;&gt;Node7</title>
<path fill="none" stroke="midnightblue" d="M424.412,-63.5484C432.847,-66.5479 441.907,-70.1053 450,-74 485.26,-90.9682 523.282,-115.794 546.365,-131.674"/>
<polygon fill="midnightblue" stroke="midnightblue" points="544.518,-134.652 554.726,-137.486 548.513,-128.904 544.518,-134.652"/>
</g>
</g>
</svg>
        <g id="navigator" transform="translate(0 0)" fill="#404254">
                <rect fill="#f2f5e9" fill-opacity="0.5" stroke="#606060" stroke-width=".5" x="0" y="0" width="60" height="60"/>
                <use id="zoomplus" xlink:href="#zoomPlus" x="17" y="9" onmousedown="handleZoom(evt,'in')"/>
                <use id="zoomminus" xlink:href="#zoomMin" x="42" y="9" onmousedown="handleZoom(evt,'out')"/>
                <use id="reset" xlink:href="#resetDef" x="30" y="36" onmousedown="handleReset()"/>
                <g id="arrowUp" xlink:href="#dirArrow" transform="translate(30 24)" onmousedown="handlePan(0,-1)">
                  <use xlink:href="#rim" fill="#404040">
                        <set attributeName="fill" to="#808080" begin="arrowUp.mouseover" end="arrowUp.mouseout"/>
                  </use>
                  <path fill="none" stroke="white" stroke-width="1.5" d="M0,-3.0v7 M-2.5,-0.5L0,-3.0L2.5,-0.5"/>
                </g>
                <g id="arrowRight" xlink:href="#dirArrow" transform="rotate(90) translate(36 -43)" onmousedown="handlePan(1,0)">
                  <use xlink:href="#rim" fill="#404040">
                        <set attributeName="fill" to="#808080" begin="arrowRight.mouseover" end="arrowRight.mouseout"/>
                  </use>
                  <path fill="none" stroke="white" stroke-width="1.5" d="M0,-3.0v7 M-2.5,-0.5L0,-3.0L2.5,-0.5"/>
                </g>
                <g id="arrowDown" xlink:href="#dirArrow" transform="rotate(180) translate(-30 -48)" onmousedown="handlePan(0,1)">
                  <use xlink:href="#rim" fill="#404040">
                        <set attributeName="fill" to="#808080" begin="arrowDown.mouseover" end="arrowDown.mouseout"/>
                  </use>
                  <path fill="none" stroke="white" stroke-width="1.5" d="M0,-3.0v7 M-2.5,-0.5L0,-3.0L2.5,-0.5"/>
                </g>
                <g id="arrowLeft" xlink:href="#dirArrow" transform="rotate(270) translate(-36 17)" onmousedown="handlePan(-1,0)">
                  <use xlink:href="#rim" fill="#404040">
                        <set attributeName="fill" to="#808080" begin="arrowLeft.mouseover" end="arrowLeft.mouseout"/>
                  </use>
                  <path fill="none" stroke="white" stroke-width="1.5" d="M0,-3.0v7 M-2.5,-0.5L0,-3.0L2.5,-0.5"/>
                </g>
        </g>
        <svg viewBox="0 0 15 15" width="100%" height="30px" preserveAspectRatio="xMaxYMin meet">
         <g id="arrow_out" transform="scale(0.3 0.3)">
          <a xlink:href="class_omni_o_g_l_1_1_voxel_field_af35e1fbb4908ffbe639962bce40c36a4_cgraph_org.svg" target="_base">
           <rect id="button" ry="5" rx="5" y="6" x="6" height="38" width="38"
                fill="#f2f5e9" fill-opacity="0.5" stroke="#606060" stroke-width="1.0"/>
           <path id="arrow"
             d="M 11.500037,31.436501 C 11.940474,20.09759 22.043105,11.32322 32.158766,21.979434 L 37.068811,17.246167 C 37.068811,17.246167 37.088388,32 37.088388,32 L 22.160133,31.978069 C 22.160133,31.978069 26.997745,27.140456 26.997745,27.140456 C 18.528582,18.264221 13.291696,25.230495 11.500037,31.436501 z"
             style="fill:#404040;"/>
          </a>
         </g>
        </svg>
</svg>
