<?xml version="1.0" encoding="UTF-8" standalone="no"?>
<!DOCTYPE svg PUBLIC "-//W3C//DTD SVG 1.1//EN"
 "http://www.w3.org/Graphics/SVG/1.1/DTD/svg11.dtd">
<!-- Generated by graphviz version 2.30.1 (20130214.1330)
 -->
<!-- Title: OmniOGL::RenObj::BindBufferData Pages: 1 -->
<svg width="334pt" height="301pt"
 viewBox="0.00 0.00 334.00 301.00" xmlns="http://www.w3.org/2000/svg" xmlns:xlink="http://www.w3.org/1999/xlink">
<g id="graph0" class="graph" transform="scale(1 1) rotate(0) translate(4 297)">
<title>OmniOGL::RenObj::BindBufferData</title>
<polygon fill="white" stroke="white" points="-4,5 -4,-297 331,-297 331,5 -4,5"/>
<!-- Node1 -->
<g id="node1" class="node"><title>Node1</title>
<polygon fill="#bfbfbf" stroke="black" points="0.5,-142.5 0.5,-161.5 169.5,-161.5 169.5,-142.5 0.5,-142.5"/>
<text text-anchor="middle" x="85" y="-149.5" font-family="Helvetica,sans-Serif" font-size="10.00">OmniOGL::RenObj::BindBufferData</text>
</g>
<!-- Node2 -->
<g id="node2" class="node"><title>Node2</title>
<g id="a_node2"><a xlink:href="class_omni_o_g_l_1_1_blender_obj.html#afd6fd7dc77390ee835b89b75966a5bce" target="_top" xlink:title="The draw method which must be implemented in order for the class to be instantiable. This method is responsible for sending the vertices, normals, etc. necessary to draw the object to the shader program, set all necessary options to their desired state, and finally invoke the desired OpenGL draw call. At the time being this method implementation is fairly rudimentary as it contains no logic to determine whether or not it needs send its data to the graphics card (it sends its data blindly).">
<polygon fill="white" stroke="black" points="209,-263 209,-293 323,-293 323,-263 209,-263"/>
<text text-anchor="start" x="217" y="-281" font-family="Helvetica,sans-Serif" font-size="10.00">OmniOGL::BlenderObj</text>
<text text-anchor="middle" x="266" y="-270" font-family="Helvetica,sans-Serif" font-size="10.00">::Draw</text>
</a>
</g>
</g>
<!-- Node1&#45;&gt;Node2 -->
<g id="edge1" class="edge"><title>Node1&#45;&gt;Node2</title>
<path fill="none" stroke="midnightblue" d="M102.742,-168.946C124.844,-190.612 165.688,-228.273 206,-253 211.879,-256.606 218.372,-259.932 224.835,-262.902"/>
<polygon fill="midnightblue" stroke="midnightblue" points="105.046,-166.302 95.4833,-161.742 100.115,-171.27 105.046,-166.302"/>
</g>
<!-- Node3 -->
<g id="node3" class="node"><title>Node3</title>
<g id="a_node3"><a xlink:href="class_omni_o_g_l_1_1_cube.html#a91ab4ab5c849dcf31ee2f93ba8e38528" target="_top" xlink:title="A method which is called each frame in order to render the object to the screen. This method is respo...">
<polygon fill="white" stroke="black" points="208,-224.5 208,-243.5 324,-243.5 324,-224.5 208,-224.5"/>
<text text-anchor="middle" x="266" y="-231.5" font-family="Helvetica,sans-Serif" font-size="10.00">OmniOGL::Cube::Draw</text>
</a>
</g>
</g>
<!-- Node1&#45;&gt;Node3 -->
<g id="edge2" class="edge"><title>Node1&#45;&gt;Node3</title>
<path fill="none" stroke="midnightblue" d="M111.015,-166.757C134.875,-180.437 172.099,-200.767 206,-215 214.235,-218.458 223.333,-221.67 231.867,-224.434"/>
<polygon fill="midnightblue" stroke="midnightblue" points="112.667,-163.669 102.259,-161.69 109.162,-169.728 112.667,-163.669"/>
</g>
<!-- Node4 -->
<g id="node4" class="node"><title>Node4</title>
<g id="a_node4"><a xlink:href="class_omni_o_g_l_1_1_floor.html#ae6316e71b307d9d2aef6202e49869eb1" target="_top" xlink:title="A method which will be called each frame for each Floor object and is responsible for binding relevan...">
<polygon fill="white" stroke="black" points="208,-186.5 208,-205.5 324,-205.5 324,-186.5 208,-186.5"/>
<text text-anchor="middle" x="266" y="-193.5" font-family="Helvetica,sans-Serif" font-size="10.00">OmniOGL::Floor::Draw</text>
</a>
</g>
</g>
<!-- Node1&#45;&gt;Node4 -->
<g id="edge3" class="edge"><title>Node1&#45;&gt;Node4</title>
<path fill="none" stroke="midnightblue" d="M134.692,-163.969C163.464,-171.041 199.395,-179.874 226.235,-186.471"/>
<polygon fill="midnightblue" stroke="midnightblue" points="135.387,-160.536 124.84,-161.547 133.716,-167.333 135.387,-160.536"/>
</g>
<!-- Node5 -->
<g id="node5" class="node"><title>Node5</title>
<g id="a_node5"><a xlink:href="class_omni_o_g_l_1_1_text_overlay.html#a9740951b45f5c3a05728584f4370fa15" target="_top" xlink:title="A method which will be called each frame for each TextOverlay object and is responsible for binding r...">
<polygon fill="white" stroke="black" points="207.5,-137 207.5,-167 324.5,-167 324.5,-137 207.5,-137"/>
<text text-anchor="start" x="215.5" y="-155" font-family="Helvetica,sans-Serif" font-size="10.00">OmniOGL::TextOverlay</text>
<text text-anchor="middle" x="266" y="-144" font-family="Helvetica,sans-Serif" font-size="10.00">::Draw</text>
</a>
</g>
</g>
<!-- Node1&#45;&gt;Node5 -->
<g id="edge4" class="edge"><title>Node1&#45;&gt;Node5</title>
<path fill="none" stroke="midnightblue" d="M179.9,-152C189.262,-152 198.56,-152 207.382,-152"/>
<polygon fill="midnightblue" stroke="midnightblue" points="179.735,-148.5 169.735,-152 179.735,-155.5 179.735,-148.5"/>
</g>
<!-- Node6 -->
<g id="node6" class="node"><title>Node6</title>
<g id="a_node6"><a xlink:href="class_omni_o_g_l_1_1_line_strip.html#a1ce21f0e6bdf2a8de12c1e1462525df3" target="_top" xlink:title="when commenting, note that we translate to 0,0,0 instead of the object&#39;s origin">
<polygon fill="white" stroke="black" points="214,-88 214,-118 318,-118 318,-88 214,-88"/>
<text text-anchor="start" x="222" y="-106" font-family="Helvetica,sans-Serif" font-size="10.00">OmniOGL::LineStrip</text>
<text text-anchor="middle" x="266" y="-95" font-family="Helvetica,sans-Serif" font-size="10.00">::Draw</text>
</a>
</g>
</g>
<!-- Node1&#45;&gt;Node6 -->
<g id="edge5" class="edge"><title>Node1&#45;&gt;Node6</title>
<path fill="none" stroke="midnightblue" d="M130.634,-139.782C155.905,-132.864 187.614,-124.184 213.882,-116.993"/>
<polygon fill="midnightblue" stroke="midnightblue" points="129.659,-136.42 120.938,-142.436 131.507,-143.171 129.659,-136.42"/>
</g>
<!-- Node7 -->
<g id="node7" class="node"><title>Node7</title>
<g id="a_node7"><a xlink:href="class_omni_o_g_l_1_1_block_array.html#a054e4ddd47c310eb87257ebfa8fbcfd4" target="_top" xlink:title="OmniOGL::BlockArray\l::Draw">
<polygon fill="white" stroke="black" points="209,-39 209,-69 323,-69 323,-39 209,-39"/>
<text text-anchor="start" x="217" y="-57" font-family="Helvetica,sans-Serif" font-size="10.00">OmniOGL::BlockArray</text>
<text text-anchor="middle" x="266" y="-46" font-family="Helvetica,sans-Serif" font-size="10.00">::Draw</text>
</a>
</g>
</g>
<!-- Node1&#45;&gt;Node7 -->
<g id="edge6" class="edge"><title>Node1&#45;&gt;Node7</title>
<path fill="none" stroke="midnightblue" d="M109.022,-136.606C132.763,-121.066 171.133,-96.872 206,-79 212.732,-75.5494 220.05,-72.168 227.169,-69.0625"/>
<polygon fill="midnightblue" stroke="midnightblue" points="106.805,-133.875 100.383,-142.302 110.659,-139.719 106.805,-133.875"/>
</g>
<!-- Node8 -->
<g id="node8" class="node"><title>Node8</title>
<g id="a_node8"><a xlink:href="class_omni_o_g_l_1_1_group.html#aaf432972f4f8726dc86c1127eba77ee3" target="_top" xlink:title="A method which will be called each frame for each LineStrip object and is responsible for binding rel...">
<polygon fill="white" stroke="black" points="206,-0.5 206,-19.5 326,-19.5 326,-0.5 206,-0.5"/>
<text text-anchor="middle" x="266" y="-7.5" font-family="Helvetica,sans-Serif" font-size="10.00">OmniOGL::Group::Draw</text>
</a>
</g>
</g>
<!-- Node1&#45;&gt;Node8 -->
<g id="edge7" class="edge"><title>Node1&#45;&gt;Node8</title>
<path fill="none" stroke="midnightblue" d="M99.2366,-133.946C119.46,-107.565 160.523,-58.527 206,-30 212.78,-25.747 220.57,-22.2816 228.22,-19.5039"/>
<polygon fill="midnightblue" stroke="midnightblue" points="96.1953,-132.167 92.9794,-142.262 101.789,-136.376 96.1953,-132.167"/>
</g>
</g>
</svg>
