<?xml version="1.0" encoding="UTF-8" standalone="no"?>
<!DOCTYPE svg PUBLIC "-//W3C//DTD SVG 1.1//EN"
 "http://www.w3.org/Graphics/SVG/1.1/DTD/svg11.dtd">
<!-- Generated by graphviz version 2.30.1 (20130214.1330)
 -->
<!-- Title: OmniOGL::OGLMatrices::UpdateSRT Pages: 1 -->
<svg width="462pt" height="296pt"
 viewBox="0.00 0.00 462.00 296.00" xmlns="http://www.w3.org/2000/svg" xmlns:xlink="http://www.w3.org/1999/xlink">
<g id="graph0" class="graph" transform="scale(1 1) rotate(0) translate(4 292)">
<title>OmniOGL::OGLMatrices::UpdateSRT</title>
<polygon fill="white" stroke="white" points="-4,5 -4,-292 459,-292 459,5 -4,5"/>
<!-- Node1 -->
<g id="node1" class="node"><title>Node1</title>
<polygon fill="#bfbfbf" stroke="black" points="0,-71 0,-101 124,-101 124,-71 0,-71"/>
<text text-anchor="start" x="8" y="-89" font-family="Helvetica,sans-Serif" font-size="10.00">OmniOGL::OGLMatrices</text>
<text text-anchor="middle" x="62" y="-78" font-family="Helvetica,sans-Serif" font-size="10.00">::UpdateSRT</text>
</g>
<!-- Node2 -->
<g id="node2" class="node"><title>Node2</title>
<g id="a_node2"><a xlink:href="class_omni_o_g_l_1_1_o_g_l_matrices.html#acf36e7ad27e383dfdd30095dd1b97b0a" target="_top" xlink:title="This method is intended to offer a simple way to set the translation matrix via a set of x...">
<polygon fill="white" stroke="black" points="168,-164 168,-194 292,-194 292,-164 168,-164"/>
<text text-anchor="start" x="176" y="-182" font-family="Helvetica,sans-Serif" font-size="10.00">OmniOGL::OGLMatrices</text>
<text text-anchor="middle" x="230" y="-171" font-family="Helvetica,sans-Serif" font-size="10.00">::sTranslate</text>
</a>
</g>
</g>
<!-- Node1&#45;&gt;Node2 -->
<g id="edge1" class="edge"><title>Node1&#45;&gt;Node2</title>
<path fill="none" stroke="midnightblue" d="M89.472,-107.442C108.315,-121.965 134.683,-140.835 160,-154 167.009,-157.644 174.67,-160.99 182.256,-163.968"/>
<polygon fill="midnightblue" stroke="midnightblue" points="91.4086,-104.513 81.3749,-101.111 87.0969,-110.028 91.4086,-104.513"/>
</g>
<!-- Node9 -->
<g id="node9" class="node"><title>Node9</title>
<g id="a_node9"><a xlink:href="class_omni_o_g_l_1_1_text_overlay.html#af5e3a4161598f443b61cf51f4d3209a3" target="_top" xlink:title="This method is called for each &quot;special character&quot; that needs to be adjusted vertically each frame ...">
<polygon fill="white" stroke="black" points="160,-115 160,-145 300,-145 300,-115 160,-115"/>
<text text-anchor="start" x="168" y="-133" font-family="Helvetica,sans-Serif" font-size="10.00">OmniOGL::TextOverlay</text>
<text text-anchor="middle" x="230" y="-122" font-family="Helvetica,sans-Serif" font-size="10.00">::PushVerticalCompensation</text>
</a>
</g>
</g>
<!-- Node1&#45;&gt;Node9 -->
<g id="edge8" class="edge"><title>Node1&#45;&gt;Node9</title>
<path fill="none" stroke="midnightblue" d="M129.378,-103.594C143.598,-107.363 158.496,-111.312 172.31,-114.974"/>
<polygon fill="midnightblue" stroke="midnightblue" points="130.226,-100.198 119.663,-101.019 128.433,-106.965 130.226,-100.198"/>
</g>
<!-- Node6 -->
<g id="node6" class="node"><title>Node6</title>
<g id="a_node6"><a xlink:href="class_omni_o_g_l_1_1_text_overlay.html#aa30ee3a394108270a31eed426e19a4ca" target="_top" xlink:title="A method which will be called each frame for each TextOverlay object and is responsible for binding r...">
<polygon fill="white" stroke="black" points="336.5,-82 336.5,-112 453.5,-112 453.5,-82 336.5,-82"/>
<text text-anchor="start" x="344.5" y="-100" font-family="Helvetica,sans-Serif" font-size="10.00">OmniOGL::TextOverlay</text>
<text text-anchor="middle" x="395" y="-89" font-family="Helvetica,sans-Serif" font-size="10.00">::Draw</text>
</a>
</g>
</g>
<!-- Node1&#45;&gt;Node6 -->
<g id="edge10" class="edge"><title>Node1&#45;&gt;Node6</title>
<path fill="none" stroke="midnightblue" d="M134.314,-88.3699C194.698,-90.3767 280.158,-93.2167 336.308,-95.0828"/>
<polygon fill="midnightblue" stroke="midnightblue" points="134.207,-84.8646 124.096,-88.0304 133.974,-91.8607 134.207,-84.8646"/>
</g>
<!-- Node7 -->
<g id="node7" class="node"><title>Node7</title>
<g id="a_node7"><a xlink:href="class_omni_o_g_l_1_1_line_strip.html#a3ecdafa271dd370a5073a0d6dd2e5bf9" target="_top" xlink:title="when commenting, note that we translate to 0,0,0 instead of the object&#39;s origin">
<polygon fill="white" stroke="black" points="343,-33 343,-63 447,-63 447,-33 343,-33"/>
<text text-anchor="start" x="351" y="-51" font-family="Helvetica,sans-Serif" font-size="10.00">OmniOGL::LineStrip</text>
<text text-anchor="middle" x="395" y="-40" font-family="Helvetica,sans-Serif" font-size="10.00">::Draw</text>
</a>
</g>
</g>
<!-- Node1&#45;&gt;Node7 -->
<g id="edge11" class="edge"><title>Node1&#45;&gt;Node7</title>
<path fill="none" stroke="midnightblue" d="M134.313,-77.813C197.06,-70.6094 286.883,-60.2974 342.76,-53.8825"/>
<polygon fill="midnightblue" stroke="midnightblue" points="133.632,-74.3681 124.096,-78.9859 134.43,-81.3225 133.632,-74.3681"/>
</g>
<!-- Node10 -->
<g id="node10" class="node"><title>Node10</title>
<g id="a_node10"><a xlink:href="class_omni_o_g_l_1_1_group.html#a16851672d0c006abd0f9aafd267713f2" target="_top" xlink:title="A method which will be called each frame for each LineStrip object and is responsible for binding rel...">
<polygon fill="white" stroke="black" points="170,-0.5 170,-19.5 290,-19.5 290,-0.5 170,-0.5"/>
<text text-anchor="middle" x="230" y="-7.5" font-family="Helvetica,sans-Serif" font-size="10.00">OmniOGL::Group::Draw</text>
</a>
</g>
</g>
<!-- Node1&#45;&gt;Node10 -->
<g id="edge12" class="edge"><title>Node1&#45;&gt;Node10</title>
<path fill="none" stroke="midnightblue" d="M97.2121,-65.9546C115.497,-55.6805 138.595,-43.3905 160,-34 172.311,-28.599 186.257,-23.5559 198.374,-19.5004"/>
<polygon fill="midnightblue" stroke="midnightblue" points="95.3553,-62.984 88.3879,-70.9657 98.812,-69.071 95.3553,-62.984"/>
</g>
<!-- Node3 -->
<g id="node3" class="node"><title>Node3</title>
<g id="a_node3"><a xlink:href="class_omni_o_g_l_1_1_blender_obj.html#a3c4dab9041ae8991266d48363dce03ff" target="_top" xlink:title="The draw method which must be implemented in order for the class to be instantiable. This method is responsible for sending the vertices, normals, etc. necessary to draw the object to the shader program, set all necessary options to their desired state, and finally invoke the desired OpenGL draw call. At the time being this method implementation is fairly rudimentary as it contains no logic to determine whether or not it needs send its data to the graphics card (it sends its data blindly).">
<polygon fill="white" stroke="black" points="338,-170 338,-200 452,-200 452,-170 338,-170"/>
<text text-anchor="start" x="346" y="-188" font-family="Helvetica,sans-Serif" font-size="10.00">OmniOGL::BlenderObj</text>
<text text-anchor="middle" x="395" y="-177" font-family="Helvetica,sans-Serif" font-size="10.00">::Draw</text>
</a>
</g>
</g>
<!-- Node2&#45;&gt;Node3 -->
<g id="edge2" class="edge"><title>Node2&#45;&gt;Node3</title>
<path fill="none" stroke="midnightblue" d="M302.477,-181.631C314.331,-182.067 326.473,-182.514 337.878,-182.934"/>
<polygon fill="midnightblue" stroke="midnightblue" points="302.281,-178.122 292.159,-181.251 302.023,-185.117 302.281,-178.122"/>
</g>
<!-- Node4 -->
<g id="node4" class="node"><title>Node4</title>
<g id="a_node4"><a xlink:href="class_omni_o_g_l_1_1_cube.html#a00747eeb6be98f4c9338ec10c2add6b8" target="_top" xlink:title="A method which is called each frame in order to render the object to the screen. This method is respo...">
<polygon fill="white" stroke="black" points="337,-131.5 337,-150.5 453,-150.5 453,-131.5 337,-131.5"/>
<text text-anchor="middle" x="395" y="-138.5" font-family="Helvetica,sans-Serif" font-size="10.00">OmniOGL::Cube::Draw</text>
</a>
</g>
</g>
<!-- Node2&#45;&gt;Node4 -->
<g id="edge3" class="edge"><title>Node2&#45;&gt;Node4</title>
<path fill="none" stroke="midnightblue" d="M302.239,-162.392C319.522,-158.363 337.431,-154.188 352.789,-150.607"/>
<polygon fill="midnightblue" stroke="midnightblue" points="301.103,-159.063 292.159,-164.742 302.692,-165.88 301.103,-159.063"/>
</g>
<!-- Node5 -->
<g id="node5" class="node"><title>Node5</title>
<g id="a_node5"><a xlink:href="class_omni_o_g_l_1_1_floor.html#ac36ccc5c2f1acb80548af20f166b1f77" target="_top" xlink:title="A method which will be called each frame for each Floor object and is responsible for binding relevan...">
<polygon fill="white" stroke="black" points="337,-268.5 337,-287.5 453,-287.5 453,-268.5 337,-268.5"/>
<text text-anchor="middle" x="395" y="-275.5" font-family="Helvetica,sans-Serif" font-size="10.00">OmniOGL::Floor::Draw</text>
</a>
</g>
</g>
<!-- Node2&#45;&gt;Node5 -->
<g id="edge4" class="edge"><title>Node2&#45;&gt;Node5</title>
<path fill="none" stroke="midnightblue" d="M255.519,-200.978C275.893,-218.337 306.256,-242.191 336,-258 343.618,-262.049 352.222,-265.538 360.425,-268.416"/>
<polygon fill="midnightblue" stroke="midnightblue" points="257.548,-198.105 247.695,-194.211 252.969,-203.4 257.548,-198.105"/>
</g>
<!-- Node2&#45;&gt;Node6 -->
<g id="edge5" class="edge"><title>Node2&#45;&gt;Node6</title>
<path fill="none" stroke="midnightblue" d="M289.284,-159.724C292.983,-157.94 296.588,-156.032 300,-154 318.393,-143.047 317.94,-133.494 336,-122 341.735,-118.35 348.094,-115.001 354.439,-112.022"/>
<polygon fill="midnightblue" stroke="midnightblue" points="287.647,-156.622 279.95,-163.903 290.507,-163.011 287.647,-156.622"/>
</g>
<!-- Node2&#45;&gt;Node7 -->
<g id="edge6" class="edge"><title>Node2&#45;&gt;Node7</title>
<path fill="none" stroke="midnightblue" d="M294.722,-158.388C296.57,-157.017 298.337,-155.556 300,-154 329.059,-126.801 307.557,-99.8422 336,-72 339.504,-68.5697 343.569,-65.6037 347.888,-63.0449"/>
<polygon fill="midnightblue" stroke="midnightblue" points="292.716,-155.517 286.165,-163.844 296.479,-161.419 292.716,-155.517"/>
</g>
<!-- Node8 -->
<g id="node8" class="node"><title>Node8</title>
<g id="a_node8"><a xlink:href="class_omni_o_g_l_1_1_block_array.html#a2ffeafa923f1f49001d771ce7e670521" target="_top" xlink:title="OmniOGL::BlockArray\l::Draw">
<polygon fill="white" stroke="black" points="338,-219 338,-249 452,-249 452,-219 338,-219"/>
<text text-anchor="start" x="346" y="-237" font-family="Helvetica,sans-Serif" font-size="10.00">OmniOGL::BlockArray</text>
<text text-anchor="middle" x="395" y="-226" font-family="Helvetica,sans-Serif" font-size="10.00">::Draw</text>
</a>
</g>
</g>
<!-- Node2&#45;&gt;Node8 -->
<g id="edge7" class="edge"><title>Node2&#45;&gt;Node8</title>
<path fill="none" stroke="midnightblue" d="M285.228,-197.298C306.098,-204.34 329.665,-212.292 349.513,-218.989"/>
<polygon fill="midnightblue" stroke="midnightblue" points="286.135,-193.91 275.54,-194.029 283.897,-200.542 286.135,-193.91"/>
</g>
<!-- Node9&#45;&gt;Node6 -->
<g id="edge9" class="edge"><title>Node9&#45;&gt;Node6</title>
<path fill="none" stroke="midnightblue" d="M310.081,-113.99C318.932,-112.198 327.821,-110.398 336.33,-108.676"/>
<polygon fill="midnightblue" stroke="midnightblue" points="309.233,-110.59 300.127,-116.005 310.622,-117.451 309.233,-110.59"/>
</g>
</g>
</svg>
