<?xml version="1.0" encoding="UTF-8" standalone="no"?>
<!DOCTYPE svg PUBLIC "-//W3C//DTD SVG 1.1//EN"
 "http://www.w3.org/Graphics/SVG/1.1/DTD/svg11.dtd">
<!-- Generated by graphviz version 2.30.1 (20130214.1330)
 -->
<!-- Title: OmniOGL::TextOverlay Pages: 1 -->
<!--zoomable 824 -->
<svg id="main" version="1.1" xmlns="http://www.w3.org/2000/svg" xmlns:xlink="http://www.w3.org/1999/xlink" xml:space="preserve" onload="init(evt)">
        <defs>
                <circle id="rim" cx="0" cy="0" r="7"/>
                <circle id="rim2" cx="0" cy="0" r="3.5"/>
                <g id="zoomPlus">
                        <use xlink:href="#rim" fill="#404040">
                                <set attributeName="fill" to="#808080" begin="zoomplus.mouseover" end="zoomplus.mouseout"/>
                        </use>
                        <path d="M-4,0h8M0,-4v8" fill="none" stroke="white" stroke-width="1.5" pointer-events="none"/>
                </g>
                <g id="zoomMin">
                        <use xlink:href="#rim" fill="#404040">
                                <set attributeName="fill" to="#808080" begin="zoomminus.mouseover" end="zoomminus.mouseout"/>
                        </use>
                        <path d="M-4,0h8" fill="none" stroke="white" stroke-width="1.5" pointer-events="none"/>
                </g>
                <g id="dirArrow">
                        <path fill="none" stroke="white" stroke-width="1.5" d="M0,-3.0v7 M-2.5,-0.5L0,-3.0L2.5,-0.5"/>
                </g>
               <g id="resetDef">
                       <use xlink:href="#rim2" fill="#404040">
                               <set attributeName="fill" to="#808080" begin="reset.mouseover" end="reset.mouseout"/>
                       </use>
               </g>
        </defs>

<script type="text/javascript">
var viewWidth = 1079;
var viewHeight = 824;
var sectionId = 'dynsection-1';
</script>
<script xlink:href="svgpan.js"/>
<svg id="graph" class="graph">
<g id="viewport">
<title>OmniOGL::TextOverlay</title>
<polygon fill="white" stroke="white" points="-4,5 -4,-820 1076,-820 1076,5 -4,5"/>
<!-- Node1 -->
<g id="node1" class="node"><title>Node1</title>
<polygon fill="#bfbfbf" stroke="black" points="867,-1 867,-135 1013,-135 1013,-1 867,-1"/>
<text text-anchor="middle" x="940" y="-123" font-family="Helvetica,sans-Serif" font-size="10.00">OmniOGL::TextOverlay</text>
<polyline fill="none" stroke="black" points="867,-116 1013,-116 "/>
<text text-anchor="middle" x="940" y="-104" font-family="Helvetica,sans-Serif" font-size="10.00"> </text>
<polyline fill="none" stroke="black" points="867,-97 1013,-97 "/>
<text text-anchor="start" x="875" y="-85" font-family="Helvetica,sans-Serif" font-size="10.00">+ TextOverlay()</text>
<text text-anchor="start" x="875" y="-74" font-family="Helvetica,sans-Serif" font-size="10.00">+ TextOverlay()</text>
<text text-anchor="start" x="875" y="-63" font-family="Helvetica,sans-Serif" font-size="10.00">+ ~TextOverlay()</text>
<text text-anchor="start" x="875" y="-52" font-family="Helvetica,sans-Serif" font-size="10.00">+ Draw()</text>
<text text-anchor="start" x="875" y="-41" font-family="Helvetica,sans-Serif" font-size="10.00">+ operator=()</text>
<text text-anchor="start" x="875" y="-30" font-family="Helvetica,sans-Serif" font-size="10.00">+ SetText()</text>
<text text-anchor="start" x="875" y="-19" font-family="Helvetica,sans-Serif" font-size="10.00">+ SetTextSize()</text>
<text text-anchor="start" x="875" y="-8" font-family="Helvetica,sans-Serif" font-size="10.00">&#45; PushVerticalCompensation()</text>
</g>
<!-- Node2 -->
<g id="node2" class="node"><title>Node2</title>
<g id="a_node2"><a xlink:href="class_omni_o_g_l_1_1_ren_obj.html" target="_top" xlink:title="The purely virtual base class which is used to represent a single object which will potentially be re...">
<polygon fill="white" stroke="black" points="496,-175 496,-551 618,-551 618,-175 496,-175"/>
<text text-anchor="middle" x="557" y="-539" font-family="Helvetica,sans-Serif" font-size="10.00">OmniOGL::RenObj</text>
<polyline fill="none" stroke="black" points="496,-532 618,-532 "/>
<text text-anchor="middle" x="557" y="-520" font-family="Helvetica,sans-Serif" font-size="10.00"> </text>
<polyline fill="none" stroke="black" points="496,-513 618,-513 "/>
<text text-anchor="start" x="504" y="-501" font-family="Helvetica,sans-Serif" font-size="10.00">+ RenObj()</text>
<text text-anchor="start" x="504" y="-490" font-family="Helvetica,sans-Serif" font-size="10.00">+ RenObj()</text>
<text text-anchor="start" x="504" y="-479" font-family="Helvetica,sans-Serif" font-size="10.00">+ ~RenObj()</text>
<text text-anchor="start" x="504" y="-468" font-family="Helvetica,sans-Serif" font-size="10.00">+ Draw()</text>
<text text-anchor="start" x="504" y="-457" font-family="Helvetica,sans-Serif" font-size="10.00">+ EnableLighting()</text>
<text text-anchor="start" x="504" y="-446" font-family="Helvetica,sans-Serif" font-size="10.00">+ GetForeground()</text>
<text text-anchor="start" x="504" y="-435" font-family="Helvetica,sans-Serif" font-size="10.00">+ GetInternalClipping()</text>
<text text-anchor="start" x="504" y="-424" font-family="Helvetica,sans-Serif" font-size="10.00">+ GetLightingEnable()</text>
<text text-anchor="start" x="504" y="-413" font-family="Helvetica,sans-Serif" font-size="10.00">+ GetOccupiedSection()</text>
<text text-anchor="start" x="504" y="-402" font-family="Helvetica,sans-Serif" font-size="10.00">+ GetOrigin()</text>
<text text-anchor="start" x="504" y="-391" font-family="Helvetica,sans-Serif" font-size="10.00">+ GetRenderID()</text>
<text text-anchor="start" x="504" y="-380" font-family="Helvetica,sans-Serif" font-size="10.00">+ GetSelectionRadius()</text>
<text text-anchor="start" x="504" y="-369" font-family="Helvetica,sans-Serif" font-size="10.00">+ GetTexture()</text>
<text text-anchor="start" x="504" y="-358" font-family="Helvetica,sans-Serif" font-size="10.00">+ operator=()</text>
<text text-anchor="start" x="504" y="-347" font-family="Helvetica,sans-Serif" font-size="10.00">+ SetBumpMap()</text>
<text text-anchor="start" x="504" y="-336" font-family="Helvetica,sans-Serif" font-size="10.00">+ SetBumpMap()</text>
<text text-anchor="start" x="504" y="-325" font-family="Helvetica,sans-Serif" font-size="10.00">+ SetColor()</text>
<text text-anchor="start" x="504" y="-314" font-family="Helvetica,sans-Serif" font-size="10.00">+ SetForeground()</text>
<text text-anchor="start" x="504" y="-303" font-family="Helvetica,sans-Serif" font-size="10.00">+ SetInternalClipping()</text>
<text text-anchor="start" x="504" y="-292" font-family="Helvetica,sans-Serif" font-size="10.00">+ SetLighting()</text>
<text text-anchor="start" x="504" y="-281" font-family="Helvetica,sans-Serif" font-size="10.00">+ SetOccupiedSection()</text>
<text text-anchor="start" x="504" y="-270" font-family="Helvetica,sans-Serif" font-size="10.00">+ SetOrigin()</text>
<text text-anchor="start" x="504" y="-259" font-family="Helvetica,sans-Serif" font-size="10.00">+ SetTexture()</text>
<text text-anchor="start" x="504" y="-248" font-family="Helvetica,sans-Serif" font-size="10.00">+ SetTexture()</text>
<text text-anchor="start" x="504" y="-237" font-family="Helvetica,sans-Serif" font-size="10.00"># BindBufferData()</text>
<text text-anchor="start" x="504" y="-226" font-family="Helvetica,sans-Serif" font-size="10.00"># factor_vec4()</text>
<text text-anchor="start" x="504" y="-215" font-family="Helvetica,sans-Serif" font-size="10.00"># Prepare()</text>
<text text-anchor="start" x="504" y="-204" font-family="Helvetica,sans-Serif" font-size="10.00"># ebo()</text>
<text text-anchor="start" x="504" y="-193" font-family="Helvetica,sans-Serif" font-size="10.00"># vao()</text>
<text text-anchor="start" x="504" y="-182" font-family="Helvetica,sans-Serif" font-size="10.00"># vbo()</text>
</a>
</g>
</g>
<!-- Node2&#45;&gt;Node1 -->
<g id="edge1" class="edge"><title>Node2&#45;&gt;Node1</title>
<path fill="none" stroke="midnightblue" d="M626.215,-309.05C694.14,-257.086 797.353,-178.127 866.663,-125.103"/>
<polygon fill="none" stroke="midnightblue" points="623.927,-306.393 618.111,-315.249 628.18,-311.953 623.927,-306.393"/>
</g>
<!-- Node3 -->
<g id="node3" class="node"><title>Node3</title>
<polygon fill="white" stroke="#bfbfbf" points="812.5,-758.5 812.5,-815.5 859.5,-815.5 859.5,-758.5 812.5,-758.5"/>
<text text-anchor="middle" x="836" y="-803.5" font-family="Helvetica,sans-Serif" font-size="10.00">GLfloat</text>
<polyline fill="none" stroke="#bfbfbf" points="812.5,-796.5 859.5,-796.5 "/>
<text text-anchor="middle" x="836" y="-784.5" font-family="Helvetica,sans-Serif" font-size="10.00"> </text>
<polyline fill="none" stroke="#bfbfbf" points="812.5,-777.5 859.5,-777.5 "/>
<text text-anchor="middle" x="836" y="-765.5" font-family="Helvetica,sans-Serif" font-size="10.00"> </text>
</g>
<!-- Node3&#45;&gt;Node2 -->
<g id="edge2" class="edge"><title>Node3&#45;&gt;Node2</title>
<path fill="none" stroke="#404040" d="M836.414,-758.328C835.84,-724.411 831.276,-666.028 809,-622 766.291,-537.589 686.217,-462.947 627.76,-415.946"/>
<polygon fill="none" stroke="#404040" points="627.603,-415.821 620.417,-415.22 618.208,-408.356 625.394,-408.957 627.603,-415.821"/>
<text text-anchor="middle" x="868" y="-680" font-family="Helvetica,sans-Serif" font-size="10.00"> #colors</text>
<text text-anchor="middle" x="868" y="-669" font-family="Helvetica,sans-Serif" font-size="10.00">#normals</text>
<text text-anchor="middle" x="868" y="-658" font-family="Helvetica,sans-Serif" font-size="10.00">#selection_radius</text>
<text text-anchor="middle" x="868" y="-647" font-family="Helvetica,sans-Serif" font-size="10.00">#vertices</text>
<text text-anchor="middle" x="868" y="-636" font-family="Helvetica,sans-Serif" font-size="10.00">#origin</text>
<text text-anchor="middle" x="868" y="-625" font-family="Helvetica,sans-Serif" font-size="10.00">#texcoords</text>
</g>
<!-- Node4 -->
<g id="node4" class="node"><title>Node4</title>
<g id="a_node4"><a xlink:href="class_omni_o_g_l_1_1_material_lighting.html" target="_top" xlink:title="{OmniOGL::MaterialLighting\n||+ MaterialLighting()\l}">
<polygon fill="white" stroke="black" points="666,-626.5 666,-683.5 800,-683.5 800,-626.5 666,-626.5"/>
<text text-anchor="middle" x="733" y="-671.5" font-family="Helvetica,sans-Serif" font-size="10.00">OmniOGL::MaterialLighting</text>
<polyline fill="none" stroke="black" points="666,-664.5 800,-664.5 "/>
<text text-anchor="middle" x="733" y="-652.5" font-family="Helvetica,sans-Serif" font-size="10.00"> </text>
<polyline fill="none" stroke="black" points="666,-645.5 800,-645.5 "/>
<text text-anchor="start" x="674" y="-633.5" font-family="Helvetica,sans-Serif" font-size="10.00">+ MaterialLighting()</text>
</a>
</g>
</g>
<!-- Node3&#45;&gt;Node4 -->
<g id="edge4" class="edge"><title>Node3&#45;&gt;Node4</title>
<path fill="none" stroke="#404040" d="M812.468,-780.462C791.566,-774.256 761.934,-762.043 746,-740 736.882,-727.387 733.07,-710.909 731.741,-695.891"/>
<polygon fill="none" stroke="#404040" points="731.732,-695.723 727.444,-689.926 731.145,-683.737 735.434,-689.535 731.732,-695.723"/>
<text text-anchor="middle" x="784" y="-731.5" font-family="Helvetica,sans-Serif" font-size="10.00"> +specular_factor</text>
<text text-anchor="middle" x="784" y="-720.5" font-family="Helvetica,sans-Serif" font-size="10.00">+shininess</text>
<text text-anchor="middle" x="784" y="-709.5" font-family="Helvetica,sans-Serif" font-size="10.00">+diffuse_factor</text>
</g>
<!-- Node3&#45;&gt;Node1 -->
<g id="edge18" class="edge"><title>Node3&#45;&gt;Node1</title>
<path fill="none" stroke="#404040" d="M859.714,-777.427C893.309,-763.958 954.003,-734.477 984,-688 1050.95,-584.268 1035.6,-276.723 1006,-174 1003.29,-164.586 999.454,-155.202 994.984,-146.134"/>
<polygon fill="none" stroke="#404040" points="994.842,-145.866 988.506,-142.422 989.248,-135.249 995.584,-138.693 994.842,-145.866"/>
<text text-anchor="middle" x="1046" y="-595.5" font-family="Helvetica,sans-Serif" font-size="10.00"> &#45;vert_letter</text>
<text text-anchor="middle" x="1046" y="-584.5" font-family="Helvetica,sans-Serif" font-size="10.00">&#45;txtur_letter</text>
<text text-anchor="middle" x="1046" y="-573.5" font-family="Helvetica,sans-Serif" font-size="10.00">&#45;size</text>
</g>
<!-- Node4&#45;&gt;Node2 -->
<g id="edge3" class="edge"><title>Node4&#45;&gt;Node2</title>
<path fill="none" stroke="#404040" d="M716.284,-626.456C695.244,-591.789 657.825,-530.133 624.541,-475.289"/>
<polygon fill="none" stroke="#404040" points="624.388,-475.037 617.856,-471.983 618.162,-464.778 624.695,-467.832 624.388,-475.037"/>
<text text-anchor="middle" x="720" y="-584.5" font-family="Helvetica,sans-Serif" font-size="10.00"> #lighting</text>
</g>
<!-- Node5 -->
<g id="node5" class="node"><title>Node5</title>
<polygon fill="white" stroke="#bfbfbf" points="443.5,-758.5 443.5,-815.5 478.5,-815.5 478.5,-758.5 443.5,-758.5"/>
<text text-anchor="middle" x="461" y="-803.5" font-family="Helvetica,sans-Serif" font-size="10.00">bool</text>
<polyline fill="none" stroke="#bfbfbf" points="443.5,-796.5 478.5,-796.5 "/>
<text text-anchor="middle" x="461" y="-784.5" font-family="Helvetica,sans-Serif" font-size="10.00"> </text>
<polyline fill="none" stroke="#bfbfbf" points="443.5,-777.5 478.5,-777.5 "/>
<text text-anchor="middle" x="461" y="-765.5" font-family="Helvetica,sans-Serif" font-size="10.00"> </text>
</g>
<!-- Node5&#45;&gt;Node4 -->
<g id="edge5" class="edge"><title>Node5&#45;&gt;Node4</title>
<path fill="none" stroke="#404040" d="M478.722,-779.111C500.625,-770.477 538.933,-754.988 571,-740 604.742,-724.23 641.657,-705.229 671.716,-689.291"/>
<polygon fill="none" stroke="#404040" points="671.869,-689.209 675.285,-682.858 682.461,-683.569 679.046,-689.919 671.869,-689.209"/>
<text text-anchor="middle" x="665.5" y="-726" font-family="Helvetica,sans-Serif" font-size="10.00"> +enabled</text>
<text text-anchor="middle" x="665.5" y="-715" font-family="Helvetica,sans-Serif" font-size="10.00">+black_only</text>
</g>
<!-- Node7 -->
<g id="node7" class="node"><title>Node7</title>
<g id="a_node7"><a xlink:href="class_omni_o_g_l_1_1_blend_function.html" target="_top" xlink:title="{OmniOGL::BlendFunction\n||+ BlendFunction()\l}">
<polygon fill="white" stroke="black" points="0,-626.5 0,-683.5 128,-683.5 128,-626.5 0,-626.5"/>
<text text-anchor="middle" x="64" y="-671.5" font-family="Helvetica,sans-Serif" font-size="10.00">OmniOGL::BlendFunction</text>
<polyline fill="none" stroke="black" points="0,-664.5 128,-664.5 "/>
<text text-anchor="middle" x="64" y="-652.5" font-family="Helvetica,sans-Serif" font-size="10.00"> </text>
<polyline fill="none" stroke="black" points="0,-645.5 128,-645.5 "/>
<text text-anchor="start" x="8" y="-633.5" font-family="Helvetica,sans-Serif" font-size="10.00">+ BlendFunction()</text>
</a>
</g>
</g>
<!-- Node5&#45;&gt;Node7 -->
<g id="edge9" class="edge"><title>Node5&#45;&gt;Node7</title>
<path fill="none" stroke="#404040" d="M443.276,-784.053C415.428,-780.171 360.998,-769.169 326,-740 312.702,-728.917 321.433,-715.558 307,-706 276.248,-685.635 177.747,-697.089 142,-688 140.914,-687.724 139.823,-687.436 138.729,-687.136"/>
<polygon fill="none" stroke="#404040" points="138.405,-687.038 131.501,-689.119 126.924,-683.547 133.828,-681.465 138.405,-687.038"/>
<text text-anchor="middle" x="347.5" y="-720.5" font-family="Helvetica,sans-Serif" font-size="10.00"> +enabled</text>
</g>
<!-- Node8 -->
<g id="node8" class="node"><title>Node8</title>
<g id="a_node8"><a xlink:href="class_omni_o_g_l_1_1_stencil_function.html" target="_top" xlink:title="{OmniOGL::StencilFunction\n||+ StencilFunction()\l}">
<polygon fill="white" stroke="black" points="387,-626.5 387,-683.5 521,-683.5 521,-626.5 387,-626.5"/>
<text text-anchor="middle" x="454" y="-671.5" font-family="Helvetica,sans-Serif" font-size="10.00">OmniOGL::StencilFunction</text>
<polyline fill="none" stroke="black" points="387,-664.5 521,-664.5 "/>
<text text-anchor="middle" x="454" y="-652.5" font-family="Helvetica,sans-Serif" font-size="10.00"> </text>
<polyline fill="none" stroke="black" points="387,-645.5 521,-645.5 "/>
<text text-anchor="start" x="395" y="-633.5" font-family="Helvetica,sans-Serif" font-size="10.00">+ StencilFunction()</text>
</a>
</g>
</g>
<!-- Node5&#45;&gt;Node8 -->
<g id="edge12" class="edge"><title>Node5&#45;&gt;Node8</title>
<path fill="none" stroke="#404040" d="M459.515,-758.43C458.532,-740.161 457.226,-715.906 456.132,-695.586"/>
<polygon fill="none" stroke="#404040" points="456.128,-695.513 451.811,-689.736 455.482,-683.53 459.799,-689.306 456.128,-695.513"/>
<text text-anchor="middle" x="480.5" y="-720.5" font-family="Helvetica,sans-Serif" font-size="10.00"> +enabled</text>
</g>
<!-- Node5&#45;&gt;Node2 -->
<g id="edge13" class="edge"><title>Node5&#45;&gt;Node2</title>
<path fill="none" stroke="#404040" d="M478.724,-770.609C487.683,-762.196 498.266,-751.223 506,-740 520.444,-719.041 523.511,-712.613 530,-688 540.467,-648.298 547.166,-604.999 551.392,-563.353"/>
<polygon fill="none" stroke="#404040" points="551.396,-563.31 547.99,-556.954 552.547,-551.365 555.953,-557.721 551.396,-563.31"/>
<text text-anchor="middle" x="589.5" y="-663.5" font-family="Helvetica,sans-Serif" font-size="10.00"> #in_foreground</text>
<text text-anchor="middle" x="589.5" y="-652.5" font-family="Helvetica,sans-Serif" font-size="10.00">#en_collision</text>
<text text-anchor="middle" x="589.5" y="-641.5" font-family="Helvetica,sans-Serif" font-size="10.00">#en_internal_clipping</text>
</g>
<!-- Node9 -->
<g id="node9" class="node"><title>Node9</title>
<g id="a_node9"><a xlink:href="class_omni_o_g_l_1_1_depth_function.html" target="_top" xlink:title="{OmniOGL::DepthFunction\n||+ DepthFunction()\l}">
<polygon fill="white" stroke="black" points="239.5,-626.5 239.5,-683.5 368.5,-683.5 368.5,-626.5 239.5,-626.5"/>
<text text-anchor="middle" x="304" y="-671.5" font-family="Helvetica,sans-Serif" font-size="10.00">OmniOGL::DepthFunction</text>
<polyline fill="none" stroke="black" points="239.5,-664.5 368.5,-664.5 "/>
<text text-anchor="middle" x="304" y="-652.5" font-family="Helvetica,sans-Serif" font-size="10.00"> </text>
<polyline fill="none" stroke="black" points="239.5,-645.5 368.5,-645.5 "/>
<text text-anchor="start" x="247.5" y="-633.5" font-family="Helvetica,sans-Serif" font-size="10.00">+ DepthFunction()</text>
</a>
</g>
</g>
<!-- Node5&#45;&gt;Node9 -->
<g id="edge16" class="edge"><title>Node5&#45;&gt;Node9</title>
<path fill="none" stroke="#404040" d="M443.497,-770.285C433.638,-761.416 421.109,-750.114 410,-740 393.486,-724.965 390.293,-720.132 373,-706 366.766,-700.906 360.064,-695.718 353.375,-690.706"/>
<polygon fill="none" stroke="#404040" points="353.295,-690.647 346.092,-690.302 343.64,-683.521 350.843,-683.866 353.295,-690.647"/>
<text text-anchor="middle" x="431.5" y="-720.5" font-family="Helvetica,sans-Serif" font-size="10.00"> +enabled</text>
</g>
<!-- Node6 -->
<g id="node6" class="node"><title>Node6</title>
<polygon fill="white" stroke="#bfbfbf" points="160,-758.5 160,-815.5 200,-815.5 200,-758.5 160,-758.5"/>
<text text-anchor="middle" x="180" y="-803.5" font-family="Helvetica,sans-Serif" font-size="10.00">GLint</text>
<polyline fill="none" stroke="#bfbfbf" points="160,-796.5 200,-796.5 "/>
<text text-anchor="middle" x="180" y="-784.5" font-family="Helvetica,sans-Serif" font-size="10.00"> </text>
<polyline fill="none" stroke="#bfbfbf" points="160,-777.5 200,-777.5 "/>
<text text-anchor="middle" x="180" y="-765.5" font-family="Helvetica,sans-Serif" font-size="10.00"> </text>
</g>
<!-- Node6&#45;&gt;Node2 -->
<g id="edge6" class="edge"><title>Node6&#45;&gt;Node2</title>
<path fill="none" stroke="#404040" d="M170.703,-758.29C160.968,-724.077 150.016,-665.133 173,-622 238.742,-498.628 392.599,-423.752 484.361,-388.459"/>
<polygon fill="none" stroke="#404040" points="484.556,-388.385 488.757,-382.524 495.783,-384.147 491.582,-390.008 484.556,-388.385"/>
<text text-anchor="middle" x="201.5" y="-663.5" font-family="Helvetica,sans-Serif" font-size="10.00"> #texture_sel</text>
<text text-anchor="middle" x="201.5" y="-652.5" font-family="Helvetica,sans-Serif" font-size="10.00">#render_id</text>
<text text-anchor="middle" x="201.5" y="-641.5" font-family="Helvetica,sans-Serif" font-size="10.00">#bump_map</text>
</g>
<!-- Node6&#45;&gt;Node7 -->
<g id="edge8" class="edge"><title>Node6&#45;&gt;Node7</title>
<path fill="none" stroke="#404040" d="M159.974,-777.082C144.023,-769.178 121.963,-756.36 107,-740 95.1053,-726.995 85.6142,-710.086 78.607,-694.851"/>
<polygon fill="none" stroke="#404040" points="78.5103,-694.628 72.4527,-690.716 73.7341,-683.62 79.7917,-687.532 78.5103,-694.628"/>
<text text-anchor="middle" x="128.5" y="-720.5" font-family="Helvetica,sans-Serif" font-size="10.00"> +function</text>
</g>
<!-- Node6&#45;&gt;Node8 -->
<g id="edge11" class="edge"><title>Node6&#45;&gt;Node8</title>
<path fill="none" stroke="#404040" d="M200.066,-772.444C211.863,-763.924 226.642,-752.253 238,-740 250.403,-726.62 245.591,-715.768 261,-706 305.065,-678.066 326.772,-702.112 377,-688 377.719,-687.798 378.44,-687.591 379.162,-687.38"/>
<polygon fill="none" stroke="#404040" points="379.549,-687.256 384.045,-681.619 390.978,-683.6 386.482,-689.238 379.549,-687.256"/>
<text text-anchor="middle" x="284" y="-731.5" font-family="Helvetica,sans-Serif" font-size="10.00"> +mask</text>
<text text-anchor="middle" x="284" y="-720.5" font-family="Helvetica,sans-Serif" font-size="10.00">+operation</text>
<text text-anchor="middle" x="284" y="-709.5" font-family="Helvetica,sans-Serif" font-size="10.00">+function</text>
</g>
<!-- Node6&#45;&gt;Node9 -->
<g id="edge15" class="edge"><title>Node6&#45;&gt;Node9</title>
<path fill="none" stroke="#404040" d="M180.306,-758.195C181.829,-741.474 186.247,-720.663 198,-706 200.688,-702.646 213.151,-696.059 228.642,-688.738"/>
<polygon fill="none" stroke="#404040" points="228.88,-688.628 232.642,-682.476 239.768,-683.583 236.005,-689.735 228.88,-688.628"/>
<text text-anchor="middle" x="218" y="-726" font-family="Helvetica,sans-Serif" font-size="10.00"> +mask</text>
<text text-anchor="middle" x="218" y="-715" font-family="Helvetica,sans-Serif" font-size="10.00">+function</text>
</g>
<!-- Node7&#45;&gt;Node2 -->
<g id="edge7" class="edge"><title>Node7&#45;&gt;Node2</title>
<path fill="none" stroke="#404040" d="M72.017,-626.477C78.4508,-608.477 89.073,-585.511 105,-570 213.68,-464.158 386.428,-406.506 483.877,-380.793"/>
<polygon fill="none" stroke="#404040" points="484.05,-380.748 488.856,-375.372 495.667,-377.741 490.861,-383.117 484.05,-380.748"/>
<text text-anchor="middle" x="127.5" y="-584.5" font-family="Helvetica,sans-Serif" font-size="10.00"> #blending</text>
</g>
<!-- Node8&#45;&gt;Node2 -->
<g id="edge10" class="edge"><title>Node8&#45;&gt;Node2</title>
<path fill="none" stroke="#404040" d="M463.783,-626.456C470.782,-606.749 480.879,-578.322 491.868,-547.382"/>
<polygon fill="none" stroke="#404040" points="491.936,-547.188 490.175,-540.196 495.953,-535.88 497.714,-542.873 491.936,-547.188"/>
<text text-anchor="middle" x="500.5" y="-584.5" font-family="Helvetica,sans-Serif" font-size="10.00"> #stencil</text>
</g>
<!-- Node9&#45;&gt;Node2 -->
<g id="edge14" class="edge"><title>Node9&#45;&gt;Node2</title>
<path fill="none" stroke="#404040" d="M328.03,-626.456C364.341,-584.834 434.593,-504.308 487.751,-443.376"/>
<polygon fill="none" stroke="#404040" points="487.907,-443.198 488.837,-436.047 495.796,-434.155 494.866,-441.306 487.907,-443.198"/>
<text text-anchor="middle" x="388.5" y="-584.5" font-family="Helvetica,sans-Serif" font-size="10.00"> #depth</text>
</g>
<!-- Node10 -->
<g id="node10" class="node"><title>Node10</title>
<polygon fill="white" stroke="#bfbfbf" points="930.5,-626.5 930.5,-683.5 975.5,-683.5 975.5,-626.5 930.5,-626.5"/>
<text text-anchor="middle" x="953" y="-671.5" font-family="Helvetica,sans-Serif" font-size="10.00">GLuint</text>
<polyline fill="none" stroke="#bfbfbf" points="930.5,-664.5 975.5,-664.5 "/>
<text text-anchor="middle" x="953" y="-652.5" font-family="Helvetica,sans-Serif" font-size="10.00"> </text>
<polyline fill="none" stroke="#bfbfbf" points="930.5,-645.5 975.5,-645.5 "/>
<text text-anchor="middle" x="953" y="-633.5" font-family="Helvetica,sans-Serif" font-size="10.00"> </text>
</g>
<!-- Node10&#45;&gt;Node2 -->
<g id="edge17" class="edge"><title>Node10&#45;&gt;Node2</title>
<path fill="none" stroke="#404040" d="M930.444,-632.402C925.873,-628.641 920.944,-624.984 916,-622 897.204,-610.656 887.146,-617.711 870,-604 855.751,-592.606 859.752,-583.047 847,-570 781.201,-502.678 690.942,-442.492 628.681,-404.812"/>
<polygon fill="none" stroke="#404040" points="628.456,-404.677 621.253,-405.019 618.167,-398.502 625.37,-398.16 628.456,-404.677"/>
<text text-anchor="middle" x="898" y="-590" font-family="Helvetica,sans-Serif" font-size="10.00"> #lengths</text>
<text text-anchor="middle" x="898" y="-579" font-family="Helvetica,sans-Serif" font-size="10.00">#my_section</text>
</g>
<!-- Node10&#45;&gt;Node1 -->
<g id="edge19" class="edge"><title>Node10&#45;&gt;Node1</title>
<path fill="none" stroke="#404040" d="M952.382,-626.178C950.483,-540.719 944.685,-279.833 941.747,-147.602"/>
<polygon fill="none" stroke="#404040" points="941.738,-147.214 937.606,-141.305 941.471,-135.217 945.604,-141.127 941.738,-147.214"/>
<text text-anchor="middle" x="977" y="-366" font-family="Helvetica,sans-Serif" font-size="10.00"> &#45;ascii_buf</text>
<text text-anchor="middle" x="977" y="-355" font-family="Helvetica,sans-Serif" font-size="10.00">&#45;num_chars</text>
</g>
</g>
</svg>
        <g id="navigator" transform="translate(0 0)" fill="#404254">
                <rect fill="#f2f5e9" fill-opacity="0.5" stroke="#606060" stroke-width=".5" x="0" y="0" width="60" height="60"/>
                <use id="zoomplus" xlink:href="#zoomPlus" x="17" y="9" onmousedown="handleZoom(evt,'in')"/>
                <use id="zoomminus" xlink:href="#zoomMin" x="42" y="9" onmousedown="handleZoom(evt,'out')"/>
                <use id="reset" xlink:href="#resetDef" x="30" y="36" onmousedown="handleReset()"/>
                <g id="arrowUp" xlink:href="#dirArrow" transform="translate(30 24)" onmousedown="handlePan(0,-1)">
                  <use xlink:href="#rim" fill="#404040">
                        <set attributeName="fill" to="#808080" begin="arrowUp.mouseover" end="arrowUp.mouseout"/>
                  </use>
                  <path fill="none" stroke="white" stroke-width="1.5" d="M0,-3.0v7 M-2.5,-0.5L0,-3.0L2.5,-0.5"/>
                </g>
                <g id="arrowRight" xlink:href="#dirArrow" transform="rotate(90) translate(36 -43)" onmousedown="handlePan(1,0)">
                  <use xlink:href="#rim" fill="#404040">
                        <set attributeName="fill" to="#808080" begin="arrowRight.mouseover" end="arrowRight.mouseout"/>
                  </use>
                  <path fill="none" stroke="white" stroke-width="1.5" d="M0,-3.0v7 M-2.5,-0.5L0,-3.0L2.5,-0.5"/>
                </g>
                <g id="arrowDown" xlink:href="#dirArrow" transform="rotate(180) translate(-30 -48)" onmousedown="handlePan(0,1)">
                  <use xlink:href="#rim" fill="#404040">
                        <set attributeName="fill" to="#808080" begin="arrowDown.mouseover" end="arrowDown.mouseout"/>
                  </use>
                  <path fill="none" stroke="white" stroke-width="1.5" d="M0,-3.0v7 M-2.5,-0.5L0,-3.0L2.5,-0.5"/>
                </g>
                <g id="arrowLeft" xlink:href="#dirArrow" transform="rotate(270) translate(-36 17)" onmousedown="handlePan(-1,0)">
                  <use xlink:href="#rim" fill="#404040">
                        <set attributeName="fill" to="#808080" begin="arrowLeft.mouseover" end="arrowLeft.mouseout"/>
                  </use>
                  <path fill="none" stroke="white" stroke-width="1.5" d="M0,-3.0v7 M-2.5,-0.5L0,-3.0L2.5,-0.5"/>
                </g>
        </g>
        <svg viewBox="0 0 15 15" width="100%" height="30px" preserveAspectRatio="xMaxYMin meet">
         <g id="arrow_out" transform="scale(0.3 0.3)">
          <a xlink:href="class_omni_o_g_l_1_1_text_overlay__coll__graph_org.svg" target="_base">
           <rect id="button" ry="5" rx="5" y="6" x="6" height="38" width="38"
                fill="#f2f5e9" fill-opacity="0.5" stroke="#606060" stroke-width="1.0"/>
           <path id="arrow"
             d="M 11.500037,31.436501 C 11.940474,20.09759 22.043105,11.32322 32.158766,21.979434 L 37.068811,17.246167 C 37.068811,17.246167 37.088388,32 37.088388,32 L 22.160133,31.978069 C 22.160133,31.978069 26.997745,27.140456 26.997745,27.140456 C 18.528582,18.264221 13.291696,25.230495 11.500037,31.436501 z"
             style="fill:#404040;"/>
          </a>
         </g>
        </svg>
</svg>
