<?xml version="1.0" encoding="UTF-8" standalone="no"?>
<!DOCTYPE svg PUBLIC "-//W3C//DTD SVG 1.1//EN"
 "http://www.w3.org/Graphics/SVG/1.1/DTD/svg11.dtd">
<!-- Generated by graphviz version 2.30.1 (20130214.1330)
 -->
<!-- Title: OmniOGL::Group::operator= Pages: 1 -->
<svg width="592pt" height="142pt"
 viewBox="0.00 0.00 592.00 142.00" xmlns="http://www.w3.org/2000/svg" xmlns:xlink="http://www.w3.org/1999/xlink">
<g id="graph0" class="graph" transform="scale(1 1) rotate(0) translate(4 138)">
<title>OmniOGL::Group::operator=</title>
<polygon fill="white" stroke="white" points="-4,5 -4,-138 589,-138 589,5 -4,5"/>
<!-- Node1 -->
<g id="node1" class="node"><title>Node1</title>
<polygon fill="#bfbfbf" stroke="black" points="0,-57.5 0,-76.5 140,-76.5 140,-57.5 0,-57.5"/>
<text text-anchor="middle" x="70" y="-64.5" font-family="Helvetica,sans-Serif" font-size="10.00">OmniOGL::Group::operator=</text>
</g>
<!-- Node2 -->
<g id="node2" class="node"><title>Node2</title>
<g id="a_node2"><a xlink:href="class_omni_o_g_l_1_1_ren_obj.html#a0f76d1a329f2ed1ded9a87b1fdb70d19" target="_top" xlink:title="The &#39;=&#39; operator for the RenObj class. This method is called any time a derived class instance of a R...">
<polygon fill="white" stroke="black" points="176,-38.5 176,-57.5 322,-57.5 322,-38.5 176,-38.5"/>
<text text-anchor="middle" x="249" y="-45.5" font-family="Helvetica,sans-Serif" font-size="10.00">OmniOGL::RenObj::operator=</text>
</a>
</g>
</g>
<!-- Node1&#45;&gt;Node2 -->
<g id="edge1" class="edge"><title>Node1&#45;&gt;Node2</title>
<path fill="none" stroke="midnightblue" d="M140.193,-59.5725C148.626,-58.6673 157.304,-57.7357 165.901,-56.8129"/>
<polygon fill="midnightblue" stroke="midnightblue" points="166.368,-60.283 175.937,-55.7356 165.621,-53.323 166.368,-60.283"/>
</g>
<!-- Node3 -->
<g id="node3" class="node"><title>Node3</title>
<g id="a_node3"><a xlink:href="namespace_omni_o_g_l.html#abe5ff24d55002e6ebffb4415d994260a" target="_top" xlink:title="Sets the pointer to the value &#45;1.">
<polygon fill="white" stroke="black" points="366,-114.5 366,-133.5 450,-133.5 450,-114.5 366,-114.5"/>
<text text-anchor="middle" x="408" y="-121.5" font-family="Helvetica,sans-Serif" font-size="10.00">OmniOGL::_Init</text>
</a>
</g>
</g>
<!-- Node1&#45;&gt;Node3 -->
<g id="edge8" class="edge"><title>Node1&#45;&gt;Node3</title>
<path fill="none" stroke="midnightblue" d="M109.242,-76.5426C129.079,-81.2885 153.753,-86.8757 176,-91 237.473,-102.396 308.779,-112.045 355.722,-117.912"/>
<polygon fill="midnightblue" stroke="midnightblue" points="355.586,-121.421 365.94,-119.177 356.446,-114.474 355.586,-121.421"/>
</g>
<!-- Node4 -->
<g id="node4" class="node"><title>Node4</title>
<g id="a_node4"><a xlink:href="namespace_omni_o_g_l.html#a80cd48382ee4083e78ba3431e570b82c" target="_top" xlink:title="A wrapper around the new[] keyword. Allocates the desired number of elements to the given pointer...">
<polygon fill="white" stroke="black" points="363,-76.5 363,-95.5 453,-95.5 453,-76.5 363,-76.5"/>
<text text-anchor="middle" x="408" y="-83.5" font-family="Helvetica,sans-Serif" font-size="10.00">OmniOGL::_New</text>
</a>
</g>
</g>
<!-- Node1&#45;&gt;Node4 -->
<g id="edge9" class="edge"><title>Node1&#45;&gt;Node4</title>
<path fill="none" stroke="midnightblue" d="M140.212,-70.9138C203.279,-74.4801 295.153,-79.6753 352.964,-82.9444"/>
<polygon fill="midnightblue" stroke="midnightblue" points="352.814,-86.4414 362.996,-83.5117 353.209,-79.4526 352.814,-86.4414"/>
</g>
<!-- Node6 -->
<g id="node6" class="node"><title>Node6</title>
<g id="a_node6"><a xlink:href="namespace_omni_o_g_l.html#ab790cf1cdc8d2bcbdbbe06c6d87f1a1d" target="_top" xlink:title="A wrapper for the delete[] keyword. Always uses delete[], and never delete.">
<polygon fill="white" stroke="black" points="358.5,-0.5 358.5,-19.5 457.5,-19.5 457.5,-0.5 358.5,-0.5"/>
<text text-anchor="middle" x="408" y="-7.5" font-family="Helvetica,sans-Serif" font-size="10.00">OmniOGL::_Delete</text>
</a>
</g>
</g>
<!-- Node1&#45;&gt;Node6 -->
<g id="edge10" class="edge"><title>Node1&#45;&gt;Node6</title>
<path fill="none" stroke="midnightblue" d="M92.2238,-57.4258C113.09,-48.4703 146.073,-35.5245 176,-29 233.69,-16.4229 301.138,-12.0215 348.204,-10.5555"/>
<polygon fill="midnightblue" stroke="midnightblue" points="348.325,-14.0537 358.224,-10.2782 348.131,-7.05633 348.325,-14.0537"/>
</g>
<!-- Node2&#45;&gt;Node3 -->
<g id="edge2" class="edge"><title>Node2&#45;&gt;Node3</title>
<path fill="none" stroke="midnightblue" d="M266.903,-57.7048C287.907,-69.5804 325.013,-89.9605 358,-105 362.224,-106.926 366.704,-108.836 371.172,-110.662"/>
<polygon fill="midnightblue" stroke="midnightblue" points="370.243,-114.059 380.828,-114.495 372.825,-107.553 370.243,-114.059"/>
</g>
<!-- Node2&#45;&gt;Node4 -->
<g id="edge3" class="edge"><title>Node2&#45;&gt;Node4</title>
<path fill="none" stroke="midnightblue" d="M289.618,-57.589C310.336,-62.6035 335.888,-68.7881 357.856,-74.1053"/>
<polygon fill="midnightblue" stroke="midnightblue" points="357.124,-77.5292 367.667,-76.4799 358.771,-70.7256 357.124,-77.5292"/>
</g>
<!-- Node2&#45;&gt;Node6 -->
<g id="edge5" class="edge"><title>Node2&#45;&gt;Node6</title>
<path fill="none" stroke="midnightblue" d="M289.618,-38.411C310.336,-33.3965 335.888,-27.2119 357.856,-21.8947"/>
<polygon fill="midnightblue" stroke="midnightblue" points="358.771,-25.2744 367.667,-19.5201 357.124,-18.4708 358.771,-25.2744"/>
</g>
<!-- Node7 -->
<g id="node7" class="node"><title>Node7</title>
<g id="a_node7"><a xlink:href="namespace_omni_o_g_l.html#ade1ba238a31a1003412522a2769d5945" target="_top" xlink:title="OmniOGL::_Valid">
<polygon fill="white" stroke="black" points="361.5,-38.5 361.5,-57.5 454.5,-57.5 454.5,-38.5 361.5,-38.5"/>
<text text-anchor="middle" x="408" y="-45.5" font-family="Helvetica,sans-Serif" font-size="10.00">OmniOGL::_Valid</text>
</a>
</g>
</g>
<!-- Node2&#45;&gt;Node7 -->
<g id="edge7" class="edge"><title>Node2&#45;&gt;Node7</title>
<path fill="none" stroke="midnightblue" d="M322.067,-48C331.894,-48 341.856,-48 351.332,-48"/>
<polygon fill="midnightblue" stroke="midnightblue" points="351.395,-51.5001 361.395,-48 351.395,-44.5001 351.395,-51.5001"/>
</g>
<!-- Node5 -->
<g id="node5" class="node"><title>Node5</title>
<g id="a_node5"><a xlink:href="namespace_omni_o_g_l.html#a8f559408c62db097a1a918d7f58f4183" target="_top" xlink:title="A &quot;clone&quot; of the well&#45;known printf() function, with the debug routed to the OutputDebugString() funct...">
<polygon fill="white" stroke="black" points="494,-38.5 494,-57.5 584,-57.5 584,-38.5 494,-38.5"/>
<text text-anchor="middle" x="539" y="-45.5" font-family="Helvetica,sans-Serif" font-size="10.00">OmniOGL::dprint</text>
</a>
</g>
</g>
<!-- Node4&#45;&gt;Node5 -->
<g id="edge4" class="edge"><title>Node4&#45;&gt;Node5</title>
<path fill="none" stroke="midnightblue" d="M441.552,-76.411C457.899,-71.5956 477.909,-65.7012 495.457,-60.532"/>
<polygon fill="midnightblue" stroke="midnightblue" points="496.855,-63.7691 505.458,-57.5859 494.877,-57.0543 496.855,-63.7691"/>
</g>
<!-- Node6&#45;&gt;Node5 -->
<g id="edge6" class="edge"><title>Node6&#45;&gt;Node5</title>
<path fill="none" stroke="midnightblue" d="M441.552,-19.589C457.899,-24.4044 477.909,-30.2988 495.457,-35.468"/>
<polygon fill="midnightblue" stroke="midnightblue" points="494.877,-38.9457 505.458,-38.4141 496.855,-32.2309 494.877,-38.9457"/>
</g>
</g>
</svg>
