<?xml version="1.0" encoding="UTF-8" standalone="no"?>
<!DOCTYPE svg PUBLIC "-//W3C//DTD SVG 1.1//EN"
 "http://www.w3.org/Graphics/SVG/1.1/DTD/svg11.dtd">
<!-- Generated by graphviz version 2.30.1 (20130214.1330)
 -->
<!-- Title: OmniOGL::SectionCollection::GetGridlines Pages: 1 -->
<svg width="552pt" height="104pt"
 viewBox="0.00 0.00 552.00 104.00" xmlns="http://www.w3.org/2000/svg" xmlns:xlink="http://www.w3.org/1999/xlink">
<g id="graph0" class="graph" transform="scale(1 1) rotate(0) translate(4 100)">
<title>OmniOGL::SectionCollection::GetGridlines</title>
<polygon fill="white" stroke="white" points="-4,5 -4,-100 549,-100 549,5 -4,5"/>
<!-- Node1 -->
<g id="node1" class="node"><title>Node1</title>
<polygon fill="#bfbfbf" stroke="black" points="0,-33 0,-63 142,-63 142,-33 0,-33"/>
<text text-anchor="start" x="8" y="-51" font-family="Helvetica,sans-Serif" font-size="10.00">OmniOGL::SectionCollection</text>
<text text-anchor="middle" x="71" y="-40" font-family="Helvetica,sans-Serif" font-size="10.00">::GetGridlines</text>
</g>
<!-- Node2 -->
<g id="node2" class="node"><title>Node2</title>
<g id="a_node2"><a xlink:href="class_omni_o_g_l_1_1_line_strip.html#af64b3e0837c49702b82c3b7a6c4288e4" target="_top" xlink:title="Adds a line segment to the class instance using absolute coordinates for a start and end point (i...">
<polygon fill="white" stroke="black" points="178,-33 178,-63 282,-63 282,-33 178,-33"/>
<text text-anchor="start" x="186" y="-51" font-family="Helvetica,sans-Serif" font-size="10.00">OmniOGL::LineStrip</text>
<text text-anchor="middle" x="230" y="-40" font-family="Helvetica,sans-Serif" font-size="10.00">::AddInstance</text>
</a>
</g>
</g>
<!-- Node1&#45;&gt;Node2 -->
<g id="edge1" class="edge"><title>Node1&#45;&gt;Node2</title>
<path fill="none" stroke="midnightblue" d="M142.234,-48C150.709,-48 159.313,-48 167.647,-48"/>
<polygon fill="midnightblue" stroke="midnightblue" points="167.65,-51.5001 177.65,-48 167.65,-44.5001 167.65,-51.5001"/>
</g>
<!-- Node3 -->
<g id="node3" class="node"><title>Node3</title>
<g id="a_node3"><a xlink:href="namespace_omni_o_g_l.html#abe5ff24d55002e6ebffb4415d994260a" target="_top" xlink:title="Sets the pointer to the value &#45;1.">
<polygon fill="white" stroke="black" points="326,-76.5 326,-95.5 410,-95.5 410,-76.5 326,-76.5"/>
<text text-anchor="middle" x="368" y="-83.5" font-family="Helvetica,sans-Serif" font-size="10.00">OmniOGL::_Init</text>
</a>
</g>
</g>
<!-- Node2&#45;&gt;Node3 -->
<g id="edge2" class="edge"><title>Node2&#45;&gt;Node3</title>
<path fill="none" stroke="midnightblue" d="M282.028,-62.2579C295.482,-66.0171 309.883,-70.0409 322.935,-73.6878"/>
<polygon fill="midnightblue" stroke="midnightblue" points="322.043,-77.0724 332.616,-76.3926 323.926,-70.3306 322.043,-77.0724"/>
</g>
<!-- Node4 -->
<g id="node4" class="node"><title>Node4</title>
<g id="a_node4"><a xlink:href="namespace_omni_o_g_l.html#a80cd48382ee4083e78ba3431e570b82c" target="_top" xlink:title="A wrapper around the new[] keyword. Allocates the desired number of elements to the given pointer...">
<polygon fill="white" stroke="black" points="323,-38.5 323,-57.5 413,-57.5 413,-38.5 323,-38.5"/>
<text text-anchor="middle" x="368" y="-45.5" font-family="Helvetica,sans-Serif" font-size="10.00">OmniOGL::_New</text>
</a>
</g>
</g>
<!-- Node2&#45;&gt;Node4 -->
<g id="edge3" class="edge"><title>Node2&#45;&gt;Node4</title>
<path fill="none" stroke="midnightblue" d="M282.028,-48C291.986,-48 302.462,-48 312.526,-48"/>
<polygon fill="midnightblue" stroke="midnightblue" points="312.826,-51.5001 322.826,-48 312.826,-44.5001 312.826,-51.5001"/>
</g>
<!-- Node6 -->
<g id="node6" class="node"><title>Node6</title>
<g id="a_node6"><a xlink:href="namespace_omni_o_g_l.html#ab790cf1cdc8d2bcbdbbe06c6d87f1a1d" target="_top" xlink:title="A wrapper for the delete[] keyword. Always uses delete[], and never delete.">
<polygon fill="white" stroke="black" points="318.5,-0.5 318.5,-19.5 417.5,-19.5 417.5,-0.5 318.5,-0.5"/>
<text text-anchor="middle" x="368" y="-7.5" font-family="Helvetica,sans-Serif" font-size="10.00">OmniOGL::_Delete</text>
</a>
</g>
</g>
<!-- Node2&#45;&gt;Node6 -->
<g id="edge5" class="edge"><title>Node2&#45;&gt;Node6</title>
<path fill="none" stroke="midnightblue" d="M282.028,-33.7421C295.482,-29.9829 309.883,-25.9591 322.935,-22.3122"/>
<polygon fill="midnightblue" stroke="midnightblue" points="323.926,-25.6694 332.616,-19.6074 322.043,-18.9276 323.926,-25.6694"/>
</g>
<!-- Node5 -->
<g id="node5" class="node"><title>Node5</title>
<g id="a_node5"><a xlink:href="namespace_omni_o_g_l.html#a8f559408c62db097a1a918d7f58f4183" target="_top" xlink:title="A &quot;clone&quot; of the well&#45;known printf() function, with the debug routed to the OutputDebugString() funct...">
<polygon fill="white" stroke="black" points="454,-19.5 454,-38.5 544,-38.5 544,-19.5 454,-19.5"/>
<text text-anchor="middle" x="499" y="-26.5" font-family="Helvetica,sans-Serif" font-size="10.00">OmniOGL::dprint</text>
</a>
</g>
</g>
<!-- Node4&#45;&gt;Node5 -->
<g id="edge4" class="edge"><title>Node4&#45;&gt;Node5</title>
<path fill="none" stroke="midnightblue" d="M413.034,-41.5144C422.887,-40.0631 433.452,-38.5071 443.667,-37.0025"/>
<polygon fill="midnightblue" stroke="midnightblue" points="444.344,-40.4407 453.727,-35.5209 443.323,-33.5154 444.344,-40.4407"/>
</g>
<!-- Node6&#45;&gt;Node5 -->
<g id="edge6" class="edge"><title>Node6&#45;&gt;Node5</title>
<path fill="none" stroke="midnightblue" d="M417.769,-17.1831C426.282,-18.4369 435.184,-19.7481 443.832,-21.0218"/>
<polygon fill="midnightblue" stroke="midnightblue" points="443.425,-24.4995 453.828,-22.4941 444.445,-17.5742 443.425,-24.4995"/>
</g>
</g>
</svg>
