<?xml version="1.0" encoding="UTF-8" standalone="no"?>
<!DOCTYPE svg PUBLIC "-//W3C//DTD SVG 1.1//EN"
 "http://www.w3.org/Graphics/SVG/1.1/DTD/svg11.dtd">
<!-- Generated by graphviz version 2.30.1 (20130214.1330)
 -->
<!-- Title: OmniOGL::NetNode::AddNeighbor Pages: 1 -->
<!--zoomable 38 -->
<svg id="main" version="1.1" xmlns="http://www.w3.org/2000/svg" xmlns:xlink="http://www.w3.org/1999/xlink" xml:space="preserve" onload="init(evt)">
        <defs>
                <circle id="rim" cx="0" cy="0" r="7"/>
                <circle id="rim2" cx="0" cy="0" r="3.5"/>
                <g id="zoomPlus">
                        <use xlink:href="#rim" fill="#404040">
                                <set attributeName="fill" to="#808080" begin="zoomplus.mouseover" end="zoomplus.mouseout"/>
                        </use>
                        <path d="M-4,0h8M0,-4v8" fill="none" stroke="white" stroke-width="1.5" pointer-events="none"/>
                </g>
                <g id="zoomMin">
                        <use xlink:href="#rim" fill="#404040">
                                <set attributeName="fill" to="#808080" begin="zoomminus.mouseover" end="zoomminus.mouseout"/>
                        </use>
                        <path d="M-4,0h8" fill="none" stroke="white" stroke-width="1.5" pointer-events="none"/>
                </g>
                <g id="dirArrow">
                        <path fill="none" stroke="white" stroke-width="1.5" d="M0,-3.0v7 M-2.5,-0.5L0,-3.0L2.5,-0.5"/>
                </g>
               <g id="resetDef">
                       <use xlink:href="#rim2" fill="#404040">
                               <set attributeName="fill" to="#808080" begin="reset.mouseover" end="reset.mouseout"/>
                       </use>
               </g>
        </defs>

<script type="text/javascript">
var viewWidth = 832;
var viewHeight = 38;
var sectionId = 'dynsection-2';
</script>
<script xlink:href="svgpan.js"/>
<svg id="graph" class="graph">
<g id="viewport">
<title>OmniOGL::NetNode::AddNeighbor</title>
<polygon fill="white" stroke="white" points="-4,5 -4,-34 829,-34 829,5 -4,5"/>
<!-- Node1 -->
<g id="node1" class="node"><title>Node1</title>
<polygon fill="#bfbfbf" stroke="black" points="0.5,-5.5 0.5,-24.5 165.5,-24.5 165.5,-5.5 0.5,-5.5"/>
<text text-anchor="middle" x="83" y="-12.5" font-family="Helvetica,sans-Serif" font-size="10.00">OmniOGL::NetNode::AddNeighbor</text>
</g>
<!-- Node2 -->
<g id="node2" class="node"><title>Node2</title>
<g id="a_node2"><a xlink:href="class_omni_o_g_l_1_1_surface_net.html#ae5c27214a80e2852b3db3ff1c9b2ab7e" target="_top" xlink:title="This method adds any number of neighbors to a NetNode at the specified index. All indices passed to t...">
<polygon fill="white" stroke="black" points="202,-0 202,-30 316,-30 316,-0 202,-0"/>
<text text-anchor="start" x="210" y="-18" font-family="Helvetica,sans-Serif" font-size="10.00">OmniOGL::SurfaceNet</text>
<text text-anchor="middle" x="259" y="-7" font-family="Helvetica,sans-Serif" font-size="10.00">::AddNeighbors</text>
</a>
</g>
</g>
<!-- Node1&#45;&gt;Node2 -->
<g id="edge1" class="edge"><title>Node1&#45;&gt;Node2</title>
<path fill="none" stroke="midnightblue" d="M175.658,-15C184.515,-15 193.307,-15 201.666,-15"/>
<polygon fill="midnightblue" stroke="midnightblue" points="175.65,-11.5001 165.65,-15 175.65,-18.5001 175.65,-11.5001"/>
</g>
<!-- Node3 -->
<g id="node3" class="node"><title>Node3</title>
<g id="a_node3"><a xlink:href="class_omni_o_g_l_1_1_voxel.html#aca8321b8573e58db30730a2f7551578b" target="_top" xlink:title="This method directly sets the density values at all eight corners of the voxel, determines the result...">
<polygon fill="white" stroke="black" points="352,-0 352,-30 504,-30 504,-0 352,-0"/>
<text text-anchor="start" x="360" y="-18" font-family="Helvetica,sans-Serif" font-size="10.00">OmniOGL::Voxel::SetMarching</text>
<text text-anchor="middle" x="428" y="-7" font-family="Helvetica,sans-Serif" font-size="10.00">CubesParameters</text>
</a>
</g>
</g>
<!-- Node2&#45;&gt;Node3 -->
<g id="edge2" class="edge"><title>Node2&#45;&gt;Node3</title>
<path fill="none" stroke="midnightblue" d="M326.186,-15C334.597,-15 343.252,-15 351.791,-15"/>
<polygon fill="midnightblue" stroke="midnightblue" points="326.073,-11.5001 316.073,-15 326.073,-18.5001 326.073,-11.5001"/>
</g>
<!-- Node4 -->
<g id="node4" class="node"><title>Node4</title>
<g id="a_node4"><a xlink:href="class_omni_o_g_l_1_1_voxel_field.html#af35e1fbb4908ffbe639962bce40c36a4" target="_top" xlink:title="The core method of this class which initializes all voxels and populates a given BlockArray with the ...">
<polygon fill="white" stroke="black" points="540,-0 540,-30 652,-30 652,-0 540,-0"/>
<text text-anchor="start" x="548" y="-18" font-family="Helvetica,sans-Serif" font-size="10.00">OmniOGL::VoxelField</text>
<text text-anchor="middle" x="596" y="-7" font-family="Helvetica,sans-Serif" font-size="10.00">::FillWithRandom</text>
</a>
</g>
</g>
<!-- Node3&#45;&gt;Node4 -->
<g id="edge3" class="edge"><title>Node3&#45;&gt;Node4</title>
<path fill="none" stroke="midnightblue" d="M514.391,-15C523.054,-15 531.682,-15 539.897,-15"/>
<polygon fill="midnightblue" stroke="midnightblue" points="514.229,-11.5001 504.229,-15 514.229,-18.5001 514.229,-11.5001"/>
</g>
<!-- Node5 -->
<g id="node5" class="node"><title>Node5</title>
<g id="a_node5"><a xlink:href="_exec_8cpp.html#a38c5e7def3be6ea702581ee4a92b9cc0" target="_top" xlink:title="render">
<polygon fill="white" stroke="black" points="688,-5.5 688,-24.5 732,-24.5 732,-5.5 688,-5.5"/>
<text text-anchor="middle" x="710" y="-12.5" font-family="Helvetica,sans-Serif" font-size="10.00">render</text>
</a>
</g>
</g>
<!-- Node4&#45;&gt;Node5 -->
<g id="edge4" class="edge"><title>Node4&#45;&gt;Node5</title>
<path fill="none" stroke="midnightblue" d="M662.12,-15C671.354,-15 680.249,-15 687.762,-15"/>
<polygon fill="midnightblue" stroke="midnightblue" points="662.016,-11.5001 652.016,-15 662.016,-18.5001 662.016,-11.5001"/>
</g>
<!-- Node6 -->
<g id="node6" class="node"><title>Node6</title>
<g id="a_node6"><a xlink:href="_exec_8cpp.html#a66e65252a6985e382838442f280f46ba" target="_top" xlink:title="WinMain">
<polygon fill="white" stroke="black" points="768.5,-5.5 768.5,-24.5 823.5,-24.5 823.5,-5.5 768.5,-5.5"/>
<text text-anchor="middle" x="796" y="-12.5" font-family="Helvetica,sans-Serif" font-size="10.00">WinMain</text>
</a>
</g>
</g>
<!-- Node5&#45;&gt;Node6 -->
<g id="edge5" class="edge"><title>Node5&#45;&gt;Node6</title>
<path fill="none" stroke="midnightblue" d="M742.253,-15C750.845,-15 760.081,-15 768.386,-15"/>
<polygon fill="midnightblue" stroke="midnightblue" points="742.197,-11.5001 732.197,-15 742.197,-18.5001 742.197,-11.5001"/>
</g>
</g>
</svg>
        <g id="navigator" transform="translate(0 0)" fill="#404254">
                <rect fill="#f2f5e9" fill-opacity="0.5" stroke="#606060" stroke-width=".5" x="0" y="0" width="60" height="60"/>
                <use id="zoomplus" xlink:href="#zoomPlus" x="17" y="9" onmousedown="handleZoom(evt,'in')"/>
                <use id="zoomminus" xlink:href="#zoomMin" x="42" y="9" onmousedown="handleZoom(evt,'out')"/>
                <use id="reset" xlink:href="#resetDef" x="30" y="36" onmousedown="handleReset()"/>
                <g id="arrowUp" xlink:href="#dirArrow" transform="translate(30 24)" onmousedown="handlePan(0,-1)">
                  <use xlink:href="#rim" fill="#404040">
                        <set attributeName="fill" to="#808080" begin="arrowUp.mouseover" end="arrowUp.mouseout"/>
                  </use>
                  <path fill="none" stroke="white" stroke-width="1.5" d="M0,-3.0v7 M-2.5,-0.5L0,-3.0L2.5,-0.5"/>
                </g>
                <g id="arrowRight" xlink:href="#dirArrow" transform="rotate(90) translate(36 -43)" onmousedown="handlePan(1,0)">
                  <use xlink:href="#rim" fill="#404040">
                        <set attributeName="fill" to="#808080" begin="arrowRight.mouseover" end="arrowRight.mouseout"/>
                  </use>
                  <path fill="none" stroke="white" stroke-width="1.5" d="M0,-3.0v7 M-2.5,-0.5L0,-3.0L2.5,-0.5"/>
                </g>
                <g id="arrowDown" xlink:href="#dirArrow" transform="rotate(180) translate(-30 -48)" onmousedown="handlePan(0,1)">
                  <use xlink:href="#rim" fill="#404040">
                        <set attributeName="fill" to="#808080" begin="arrowDown.mouseover" end="arrowDown.mouseout"/>
                  </use>
                  <path fill="none" stroke="white" stroke-width="1.5" d="M0,-3.0v7 M-2.5,-0.5L0,-3.0L2.5,-0.5"/>
                </g>
                <g id="arrowLeft" xlink:href="#dirArrow" transform="rotate(270) translate(-36 17)" onmousedown="handlePan(-1,0)">
                  <use xlink:href="#rim" fill="#404040">
                        <set attributeName="fill" to="#808080" begin="arrowLeft.mouseover" end="arrowLeft.mouseout"/>
                  </use>
                  <path fill="none" stroke="white" stroke-width="1.5" d="M0,-3.0v7 M-2.5,-0.5L0,-3.0L2.5,-0.5"/>
                </g>
        </g>
        <svg viewBox="0 0 15 15" width="100%" height="30px" preserveAspectRatio="xMaxYMin meet">
         <g id="arrow_out" transform="scale(0.3 0.3)">
          <a xlink:href="class_omni_o_g_l_1_1_net_node_a8c7516402f5ac053c6723e512bb7e97e_icgraph_org.svg" target="_base">
           <rect id="button" ry="5" rx="5" y="6" x="6" height="38" width="38"
                fill="#f2f5e9" fill-opacity="0.5" stroke="#606060" stroke-width="1.0"/>
           <path id="arrow"
             d="M 11.500037,31.436501 C 11.940474,20.09759 22.043105,11.32322 32.158766,21.979434 L 37.068811,17.246167 C 37.068811,17.246167 37.088388,32 37.088388,32 L 22.160133,31.978069 C 22.160133,31.978069 26.997745,27.140456 26.997745,27.140456 C 18.528582,18.264221 13.291696,25.230495 11.500037,31.436501 z"
             style="fill:#404040;"/>
          </a>
         </g>
        </svg>
</svg>
