<?xml version="1.0" encoding="UTF-8" standalone="no"?>
<!DOCTYPE svg PUBLIC "-//W3C//DTD SVG 1.1//EN"
 "http://www.w3.org/Graphics/SVG/1.1/DTD/svg11.dtd">
<!-- Generated by graphviz version 2.30.1 (20130214.1330)
 -->
<!-- Title: OmniOGL::SectionCollection::AddObject Pages: 1 -->
<!--zoomable 124 -->
<svg id="main" version="1.1" xmlns="http://www.w3.org/2000/svg" xmlns:xlink="http://www.w3.org/1999/xlink" xml:space="preserve" onload="init(evt)">
        <defs>
                <circle id="rim" cx="0" cy="0" r="7"/>
                <circle id="rim2" cx="0" cy="0" r="3.5"/>
                <g id="zoomPlus">
                        <use xlink:href="#rim" fill="#404040">
                                <set attributeName="fill" to="#808080" begin="zoomplus.mouseover" end="zoomplus.mouseout"/>
                        </use>
                        <path d="M-4,0h8M0,-4v8" fill="none" stroke="white" stroke-width="1.5" pointer-events="none"/>
                </g>
                <g id="zoomMin">
                        <use xlink:href="#rim" fill="#404040">
                                <set attributeName="fill" to="#808080" begin="zoomminus.mouseover" end="zoomminus.mouseout"/>
                        </use>
                        <path d="M-4,0h8" fill="none" stroke="white" stroke-width="1.5" pointer-events="none"/>
                </g>
                <g id="dirArrow">
                        <path fill="none" stroke="white" stroke-width="1.5" d="M0,-3.0v7 M-2.5,-0.5L0,-3.0L2.5,-0.5"/>
                </g>
               <g id="resetDef">
                       <use xlink:href="#rim2" fill="#404040">
                               <set attributeName="fill" to="#808080" begin="reset.mouseover" end="reset.mouseout"/>
                       </use>
               </g>
        </defs>

<script type="text/javascript">
var viewWidth = 1050;
var viewHeight = 124;
var sectionId = 'dynsection-4';
</script>
<script xlink:href="svgpan.js"/>
<svg id="graph" class="graph">
<g id="viewport">
<title>OmniOGL::SectionCollection::AddObject</title>
<polygon fill="white" stroke="white" points="-4,5 -4,-119.961 1047,-119.961 1047,5 -4,5"/>
<!-- Node1 -->
<g id="node1" class="node"><title>Node1</title>
<polygon fill="#bfbfbf" stroke="black" points="0,-52 0,-82 142,-82 142,-52 0,-52"/>
<text text-anchor="start" x="8" y="-70" font-family="Helvetica,sans-Serif" font-size="10.00">OmniOGL::SectionCollection</text>
<text text-anchor="middle" x="71" y="-59" font-family="Helvetica,sans-Serif" font-size="10.00">::AddObject</text>
</g>
<!-- Node2 -->
<g id="node2" class="node"><title>Node2</title>
<g id="a_node2"><a xlink:href="class_omni_o_g_l_1_1_scene.html#a63db7f91d326ad1a20741b31417b8148" target="_top" xlink:title="A template method which adds an renderable object of type T to the scene. It is assumed that T is a d...">
<polygon fill="white" stroke="black" points="178,-57.5 178,-76.5 324,-76.5 324,-57.5 178,-57.5"/>
<text text-anchor="middle" x="251" y="-64.5" font-family="Helvetica,sans-Serif" font-size="10.00">OmniOGL::Scene::AddObject</text>
</a>
</g>
</g>
<!-- Node1&#45;&gt;Node2 -->
<g id="edge1" class="edge"><title>Node1&#45;&gt;Node2</title>
<path fill="none" stroke="midnightblue" d="M152.118,-67C160.716,-67 169.426,-67 177.922,-67"/>
<polygon fill="midnightblue" stroke="midnightblue" points="152.095,-63.5001 142.095,-67 152.095,-70.5001 152.095,-63.5001"/>
</g>
<!-- Node3 -->
<g id="node3" class="node"><title>Node3</title>
<g id="a_node3"><a xlink:href="_exec_8cpp.html#a38c5e7def3be6ea702581ee4a92b9cc0" target="_top" xlink:title="render">
<polygon fill="white" stroke="black" points="906,-38.5 906,-57.5 950,-57.5 950,-38.5 906,-38.5"/>
<text text-anchor="middle" x="928" y="-45.5" font-family="Helvetica,sans-Serif" font-size="10.00">render</text>
</a>
</g>
</g>
<!-- Node2&#45;&gt;Node3 -->
<g id="edge2" class="edge"><title>Node2&#45;&gt;Node3</title>
<path fill="none" stroke="midnightblue" d="M281.996,-80.6443C303.271,-89.5471 332.768,-100.349 360,-105 571.134,-141.06 830.681,-75.3608 905.749,-54.2278"/>
<polygon fill="midnightblue" stroke="midnightblue" points="283.118,-77.3171 272.548,-76.5893 280.357,-83.7497 283.118,-77.3171"/>
</g>
<!-- Node5 -->
<g id="node5" class="node"><title>Node5</title>
<g id="a_node5"><a xlink:href="class_omni_o_g_l_1_1_scene.html#a8601c13e69f3269928209f1ffdf2584a" target="_top" xlink:title="The constructor for the Scene class. This is a fairly busy constructor since it&#39;s responsible for ini...">
<polygon fill="white" stroke="black" points="378,-76.5 378,-95.5 506,-95.5 506,-76.5 378,-76.5"/>
<text text-anchor="middle" x="442" y="-83.5" font-family="Helvetica,sans-Serif" font-size="10.00">OmniOGL::Scene::Scene</text>
</a>
</g>
</g>
<!-- Node2&#45;&gt;Node5 -->
<g id="edge4" class="edge"><title>Node2&#45;&gt;Node5</title>
<path fill="none" stroke="midnightblue" d="M334.266,-75.2701C348.833,-76.7345 363.794,-78.2386 377.734,-79.6399"/>
<polygon fill="midnightblue" stroke="midnightblue" points="334.562,-71.7823 324.262,-74.2644 333.862,-78.7472 334.562,-71.7823"/>
</g>
<!-- Node6 -->
<g id="node6" class="node"><title>Node6</title>
<g id="a_node6"><a xlink:href="class_omni_o_g_l_1_1_scene.html#ad03a14cbdf1446c4e9300db0a18a8ebf" target="_top" xlink:title="Configures lighting parameters for the Scene including the sole light&#39;s position and color...">
<polygon fill="white" stroke="black" points="567,-38.5 567,-57.5 705,-57.5 705,-38.5 567,-38.5"/>
<text text-anchor="middle" x="636" y="-45.5" font-family="Helvetica,sans-Serif" font-size="10.00">OmniOGL::Scene::AddLight</text>
</a>
</g>
</g>
<!-- Node2&#45;&gt;Node6 -->
<g id="edge5" class="edge"><title>Node2&#45;&gt;Node6</title>
<path fill="none" stroke="midnightblue" d="M334.06,-62.9291C403.449,-59.4869 501.694,-54.6131 566.822,-51.3822"/>
<polygon fill="midnightblue" stroke="midnightblue" points="333.854,-59.435 324.039,-63.4262 334.201,-66.4264 333.854,-59.435"/>
</g>
<!-- Node7 -->
<g id="node7" class="node"><title>Node7</title>
<g id="a_node7"><a xlink:href="class_omni_o_g_l_1_1_scene.html#ad54723f8249185236e8bc77315b3622c" target="_top" xlink:title="In the current implementation this function must determine the derived type of the shared pointer pas...">
<polygon fill="white" stroke="black" points="360,-0.5 360,-19.5 524,-19.5 524,-0.5 360,-0.5"/>
<text text-anchor="middle" x="442" y="-7.5" font-family="Helvetica,sans-Serif" font-size="10.00">OmniOGL::Scene::AddDerivedObj</text>
</a>
</g>
</g>
<!-- Node2&#45;&gt;Node7 -->
<g id="edge7" class="edge"><title>Node2&#45;&gt;Node7</title>
<path fill="none" stroke="midnightblue" d="M292.975,-54.3905C313.147,-48.2055 337.836,-40.6695 360,-34 376.011,-29.182 393.825,-23.8957 408.661,-19.5137"/>
<polygon fill="midnightblue" stroke="midnightblue" points="291.704,-51.1192 283.171,-57.399 293.758,-57.8112 291.704,-51.1192"/>
</g>
<!-- Node4 -->
<g id="node4" class="node"><title>Node4</title>
<g id="a_node4"><a xlink:href="_exec_8cpp.html#a66e65252a6985e382838442f280f46ba" target="_top" xlink:title="WinMain">
<polygon fill="white" stroke="black" points="986.5,-38.5 986.5,-57.5 1041.5,-57.5 1041.5,-38.5 986.5,-38.5"/>
<text text-anchor="middle" x="1014" y="-45.5" font-family="Helvetica,sans-Serif" font-size="10.00">WinMain</text>
</a>
</g>
</g>
<!-- Node3&#45;&gt;Node4 -->
<g id="edge3" class="edge"><title>Node3&#45;&gt;Node4</title>
<path fill="none" stroke="midnightblue" d="M960.253,-48C968.845,-48 978.081,-48 986.386,-48"/>
<polygon fill="midnightblue" stroke="midnightblue" points="960.197,-44.5001 950.197,-48 960.197,-51.5001 960.197,-44.5001"/>
</g>
<!-- Node6&#45;&gt;Node3 -->
<g id="edge6" class="edge"><title>Node6&#45;&gt;Node3</title>
<path fill="none" stroke="midnightblue" d="M715.469,-48C779.721,-48 866.227,-48 905.729,-48"/>
<polygon fill="midnightblue" stroke="midnightblue" points="715.359,-44.5001 705.359,-48 715.359,-51.5001 715.359,-44.5001"/>
</g>
<!-- Node8 -->
<g id="node8" class="node"><title>Node8</title>
<g id="a_node8"><a xlink:href="class_omni_o_g_l_1_1_scene.html#aaf90a48c617a97b06e8b75320c0271b0" target="_top" xlink:title="OmniOGL::Scene::HandleInput">
<polygon fill="white" stroke="black" points="560.5,-0.5 560.5,-19.5 711.5,-19.5 711.5,-0.5 560.5,-0.5"/>
<text text-anchor="middle" x="636" y="-7.5" font-family="Helvetica,sans-Serif" font-size="10.00">OmniOGL::Scene::HandleInput</text>
</a>
</g>
</g>
<!-- Node7&#45;&gt;Node8 -->
<g id="edge8" class="edge"><title>Node7&#45;&gt;Node8</title>
<path fill="none" stroke="midnightblue" d="M534.308,-10C542.999,-10 551.741,-10 560.249,-10"/>
<polygon fill="midnightblue" stroke="midnightblue" points="534.147,-6.5001 524.147,-10 534.147,-13.5001 534.147,-6.5001"/>
</g>
<!-- Node9 -->
<g id="node9" class="node"><title>Node9</title>
<g id="a_node9"><a xlink:href="class_omni_o_g_l_1_1_scene.html#ac65b18faabaa3d2af9a0a4b2f2fc0fe0" target="_top" xlink:title="The core of the rendering loop! This method iterates through all possible containers of objects&#45;to&#45;be...">
<polygon fill="white" stroke="black" points="748,-0.5 748,-19.5 870,-19.5 870,-0.5 748,-0.5"/>
<text text-anchor="middle" x="809" y="-7.5" font-family="Helvetica,sans-Serif" font-size="10.00">OmniOGL::Scene::Draw</text>
</a>
</g>
</g>
<!-- Node8&#45;&gt;Node9 -->
<g id="edge9" class="edge"><title>Node8&#45;&gt;Node9</title>
<path fill="none" stroke="midnightblue" d="M721.52,-10C730.413,-10 739.32,-10 747.856,-10"/>
<polygon fill="midnightblue" stroke="midnightblue" points="721.506,-6.5001 711.506,-10 721.506,-13.5001 721.506,-6.5001"/>
</g>
<!-- Node9&#45;&gt;Node3 -->
<g id="edge10" class="edge"><title>Node9&#45;&gt;Node3</title>
<path fill="none" stroke="midnightblue" d="M849.128,-22.7082C868.123,-28.8776 890.19,-36.0446 905.973,-41.1707"/>
<polygon fill="midnightblue" stroke="midnightblue" points="850.116,-19.3493 839.524,-19.589 847.954,-26.0069 850.116,-19.3493"/>
</g>
</g>
</svg>
        <g id="navigator" transform="translate(0 0)" fill="#404254">
                <rect fill="#f2f5e9" fill-opacity="0.5" stroke="#606060" stroke-width=".5" x="0" y="0" width="60" height="60"/>
                <use id="zoomplus" xlink:href="#zoomPlus" x="17" y="9" onmousedown="handleZoom(evt,'in')"/>
                <use id="zoomminus" xlink:href="#zoomMin" x="42" y="9" onmousedown="handleZoom(evt,'out')"/>
                <use id="reset" xlink:href="#resetDef" x="30" y="36" onmousedown="handleReset()"/>
                <g id="arrowUp" xlink:href="#dirArrow" transform="translate(30 24)" onmousedown="handlePan(0,-1)">
                  <use xlink:href="#rim" fill="#404040">
                        <set attributeName="fill" to="#808080" begin="arrowUp.mouseover" end="arrowUp.mouseout"/>
                  </use>
                  <path fill="none" stroke="white" stroke-width="1.5" d="M0,-3.0v7 M-2.5,-0.5L0,-3.0L2.5,-0.5"/>
                </g>
                <g id="arrowRight" xlink:href="#dirArrow" transform="rotate(90) translate(36 -43)" onmousedown="handlePan(1,0)">
                  <use xlink:href="#rim" fill="#404040">
                        <set attributeName="fill" to="#808080" begin="arrowRight.mouseover" end="arrowRight.mouseout"/>
                  </use>
                  <path fill="none" stroke="white" stroke-width="1.5" d="M0,-3.0v7 M-2.5,-0.5L0,-3.0L2.5,-0.5"/>
                </g>
                <g id="arrowDown" xlink:href="#dirArrow" transform="rotate(180) translate(-30 -48)" onmousedown="handlePan(0,1)">
                  <use xlink:href="#rim" fill="#404040">
                        <set attributeName="fill" to="#808080" begin="arrowDown.mouseover" end="arrowDown.mouseout"/>
                  </use>
                  <path fill="none" stroke="white" stroke-width="1.5" d="M0,-3.0v7 M-2.5,-0.5L0,-3.0L2.5,-0.5"/>
                </g>
                <g id="arrowLeft" xlink:href="#dirArrow" transform="rotate(270) translate(-36 17)" onmousedown="handlePan(-1,0)">
                  <use xlink:href="#rim" fill="#404040">
                        <set attributeName="fill" to="#808080" begin="arrowLeft.mouseover" end="arrowLeft.mouseout"/>
                  </use>
                  <path fill="none" stroke="white" stroke-width="1.5" d="M0,-3.0v7 M-2.5,-0.5L0,-3.0L2.5,-0.5"/>
                </g>
        </g>
        <svg viewBox="0 0 15 15" width="100%" height="30px" preserveAspectRatio="xMaxYMin meet">
         <g id="arrow_out" transform="scale(0.3 0.3)">
          <a xlink:href="class_omni_o_g_l_1_1_section_collection_a07c937297ecc115e498cac570d6910bd_icgraph_org.svg" target="_base">
           <rect id="button" ry="5" rx="5" y="6" x="6" height="38" width="38"
                fill="#f2f5e9" fill-opacity="0.5" stroke="#606060" stroke-width="1.0"/>
           <path id="arrow"
             d="M 11.500037,31.436501 C 11.940474,20.09759 22.043105,11.32322 32.158766,21.979434 L 37.068811,17.246167 C 37.068811,17.246167 37.088388,32 37.088388,32 L 22.160133,31.978069 C 22.160133,31.978069 26.997745,27.140456 26.997745,27.140456 C 18.528582,18.264221 13.291696,25.230495 11.500037,31.436501 z"
             style="fill:#404040;"/>
          </a>
         </g>
        </svg>
</svg>
