<?xml version="1.0" encoding="UTF-8" standalone="no"?>
<!DOCTYPE svg PUBLIC "-//W3C//DTD SVG 1.1//EN"
 "http://www.w3.org/Graphics/SVG/1.1/DTD/svg11.dtd">
<!-- Generated by graphviz version 2.30.1 (20130214.1330)
 -->
<!-- Title: OmniOGL::BlendFunction Pages: 1 -->
<svg width="136pt" height="172pt"
 viewBox="0.00 0.00 136.00 172.00" xmlns="http://www.w3.org/2000/svg" xmlns:xlink="http://www.w3.org/1999/xlink">
<g id="graph0" class="graph" transform="scale(1 1) rotate(0) translate(4 168)">
<title>OmniOGL::BlendFunction</title>
<polygon fill="white" stroke="white" points="-4,5 -4,-168 133,-168 133,5 -4,5"/>
<!-- Node1 -->
<g id="node1" class="node"><title>Node1</title>
<polygon fill="#bfbfbf" stroke="black" points="0,-0.5 0,-57.5 128,-57.5 128,-0.5 0,-0.5"/>
<text text-anchor="middle" x="64" y="-45.5" font-family="Helvetica,sans-Serif" font-size="10.00">OmniOGL::BlendFunction</text>
<polyline fill="none" stroke="black" points="0,-38.5 128,-38.5 "/>
<text text-anchor="middle" x="64" y="-26.5" font-family="Helvetica,sans-Serif" font-size="10.00"> </text>
<polyline fill="none" stroke="black" points="0,-19.5 128,-19.5 "/>
<text text-anchor="start" x="8" y="-7.5" font-family="Helvetica,sans-Serif" font-size="10.00">+ BlendFunction()</text>
</g>
<!-- Node2 -->
<g id="node2" class="node"><title>Node2</title>
<polygon fill="white" stroke="#bfbfbf" points="11,-106.5 11,-163.5 51,-163.5 51,-106.5 11,-106.5"/>
<text text-anchor="middle" x="31" y="-151.5" font-family="Helvetica,sans-Serif" font-size="10.00">GLint</text>
<polyline fill="none" stroke="#bfbfbf" points="11,-144.5 51,-144.5 "/>
<text text-anchor="middle" x="31" y="-132.5" font-family="Helvetica,sans-Serif" font-size="10.00"> </text>
<polyline fill="none" stroke="#bfbfbf" points="11,-125.5 51,-125.5 "/>
<text text-anchor="middle" x="31" y="-113.5" font-family="Helvetica,sans-Serif" font-size="10.00"> </text>
</g>
<!-- Node2&#45;&gt;Node1 -->
<g id="edge1" class="edge"><title>Node2&#45;&gt;Node1</title>
<path fill="none" stroke="#404040" d="M28.212,-106.312C28.0737,-96.5295 28.9036,-85.5831 32,-76 32.8384,-73.4051 33.8769,-70.8269 35.0616,-68.293"/>
<polygon fill="none" stroke="#404040" points="35.2003,-68.0431 34.6152,-60.8558 41.0247,-57.5514 41.6097,-64.7387 35.2003,-68.0431"/>
<text text-anchor="middle" x="53.5" y="-79.5" font-family="Helvetica,sans-Serif" font-size="10.00"> +function</text>
</g>
<!-- Node3 -->
<g id="node3" class="node"><title>Node3</title>
<polygon fill="white" stroke="#bfbfbf" points="79.5,-106.5 79.5,-163.5 114.5,-163.5 114.5,-106.5 79.5,-106.5"/>
<text text-anchor="middle" x="97" y="-151.5" font-family="Helvetica,sans-Serif" font-size="10.00">bool</text>
<polyline fill="none" stroke="#bfbfbf" points="79.5,-144.5 114.5,-144.5 "/>
<text text-anchor="middle" x="97" y="-132.5" font-family="Helvetica,sans-Serif" font-size="10.00"> </text>
<polyline fill="none" stroke="#bfbfbf" points="79.5,-125.5 114.5,-125.5 "/>
<text text-anchor="middle" x="97" y="-113.5" font-family="Helvetica,sans-Serif" font-size="10.00"> </text>
</g>
<!-- Node3&#45;&gt;Node1 -->
<g id="edge2" class="edge"><title>Node3&#45;&gt;Node1</title>
<path fill="none" stroke="#404040" d="M88.2432,-106.403C84.6257,-95.0023 80.366,-81.5777 76.4346,-69.1879"/>
<polygon fill="none" stroke="#404040" points="76.4271,-69.164 70.7997,-64.6548 72.7977,-57.726 78.4251,-62.2352 76.4271,-69.164"/>
<text text-anchor="middle" x="103.5" y="-79.5" font-family="Helvetica,sans-Serif" font-size="10.00"> +enabled</text>
</g>
</g>
</svg>
