<?xml version="1.0" encoding="UTF-8" standalone="no"?>
<!DOCTYPE svg PUBLIC "-//W3C//DTD SVG 1.1//EN"
 "http://www.w3.org/Graphics/SVG/1.1/DTD/svg11.dtd">
<!-- Generated by graphviz version 2.30.1 (20130214.1330)
 -->
<!-- Title: OmniOGL::Scene::Scene Pages: 1 -->
<svg width="866pt" height="696pt"
 viewBox="0.00 0.00 866.00 695.84" xmlns="http://www.w3.org/2000/svg" xmlns:xlink="http://www.w3.org/1999/xlink">
<g id="graph0" class="graph" transform="scale(1 1) rotate(0) translate(4 691.839)">
<title>OmniOGL::Scene::Scene</title>
<polygon fill="white" stroke="white" points="-4,5 -4,-691.839 863,-691.839 863,5 -4,5"/>
<!-- Node1 -->
<g id="node1" class="node"><title>Node1</title>
<polygon fill="#bfbfbf" stroke="black" points="0,-409.5 0,-428.5 128,-428.5 128,-409.5 0,-409.5"/>
<text text-anchor="middle" x="64" y="-416.5" font-family="Helvetica,sans-Serif" font-size="10.00">OmniOGL::Scene::Scene</text>
</g>
<!-- Node2 -->
<g id="node2" class="node"><title>Node2</title>
<g id="a_node2"><a xlink:href="class_omni_o_g_l_1_1_scene.html#a199b6195ca00c1ca4a50e3d0b9c312a3" target="_top" xlink:title="OmniOGL::Scene::GlobalInitialization">
<polygon fill="white" stroke="black" points="164.5,-588.5 164.5,-607.5 343.5,-607.5 343.5,-588.5 164.5,-588.5"/>
<text text-anchor="middle" x="254" y="-595.5" font-family="Helvetica,sans-Serif" font-size="10.00">OmniOGL::Scene::GlobalInitialization</text>
</a>
</g>
</g>
<!-- Node1&#45;&gt;Node2 -->
<g id="edge1" class="edge"><title>Node1&#45;&gt;Node2</title>
<path fill="none" stroke="midnightblue" d="M68.3043,-428.855C78.1109,-456.538 109.794,-535.552 164,-575 169.25,-578.821 175.08,-582.008 181.172,-584.667"/>
<polygon fill="midnightblue" stroke="midnightblue" points="180.326,-588.092 190.916,-588.424 182.845,-581.561 180.326,-588.092"/>
</g>
<!-- Node8 -->
<g id="node8" class="node"><title>Node8</title>
<g id="a_node8"><a xlink:href="class_omni_o_g_l_1_1_o_g_l_matrices.html#ab7fcaa03f41f75becc4a00a9f2296d57" target="_top" xlink:title="OmniOGL::OGLMatrices\l::SetSRTVbo">
<polygon fill="white" stroke="black" points="192,-536 192,-566 316,-566 316,-536 192,-536"/>
<text text-anchor="start" x="200" y="-554" font-family="Helvetica,sans-Serif" font-size="10.00">OmniOGL::OGLMatrices</text>
<text text-anchor="middle" x="254" y="-543" font-family="Helvetica,sans-Serif" font-size="10.00">::SetSRTVbo</text>
</a>
</g>
</g>
<!-- Node1&#45;&gt;Node8 -->
<g id="edge8" class="edge"><title>Node1&#45;&gt;Node8</title>
<path fill="none" stroke="midnightblue" d="M71.7993,-428.623C86.421,-448.643 122.881,-495.064 164,-521 170.765,-525.267 178.206,-529.001 185.814,-532.248"/>
<polygon fill="midnightblue" stroke="midnightblue" points="184.559,-535.516 195.144,-535.971 187.154,-529.014 184.559,-535.516"/>
</g>
<!-- Node6 -->
<g id="node6" class="node"><title>Node6</title>
<g id="a_node6"><a xlink:href="class_omni_o_g_l_1_1_o_g_l_buffers.html#aee0431bf99d4f232db33ad6b10780088" target="_top" xlink:title="OmniOGL::OGLBuffers::vbo">
<polygon fill="white" stroke="black" points="587.5,-639.5 587.5,-658.5 724.5,-658.5 724.5,-639.5 587.5,-639.5"/>
<text text-anchor="middle" x="656" y="-646.5" font-family="Helvetica,sans-Serif" font-size="10.00">OmniOGL::OGLBuffers::vbo</text>
</a>
</g>
</g>
<!-- Node1&#45;&gt;Node6 -->
<g id="edge9" class="edge"><title>Node1&#45;&gt;Node6</title>
<path fill="none" stroke="midnightblue" d="M66.8622,-428.609C73.5982,-460.692 99.7708,-565.017 164,-617 295.684,-723.577 518.001,-684.234 611.504,-661.092"/>
<polygon fill="midnightblue" stroke="midnightblue" points="612.632,-664.417 621.465,-658.566 610.911,-657.631 612.632,-664.417"/>
</g>
<!-- Node9 -->
<g id="node9" class="node"><title>Node9</title>
<g id="a_node9"><a xlink:href="namespace_omni_o_g_l.html#a8f559408c62db097a1a918d7f58f4183" target="_top" xlink:title="A &quot;clone&quot; of the well&#45;known printf() function, with the debug routed to the OutputDebugString() funct...">
<polygon fill="white" stroke="black" points="768,-459.5 768,-478.5 858,-478.5 858,-459.5 768,-459.5"/>
<text text-anchor="middle" x="813" y="-466.5" font-family="Helvetica,sans-Serif" font-size="10.00">OmniOGL::dprint</text>
</a>
</g>
</g>
<!-- Node1&#45;&gt;Node9 -->
<g id="edge10" class="edge"><title>Node1&#45;&gt;Node9</title>
<path fill="none" stroke="midnightblue" d="M74.5861,-428.628C91.108,-444.462 126.774,-475.398 164,-487 340.515,-542.015 395.111,-487.778 580,-488 647.556,-488.081 664.903,-495.858 732,-488 744.406,-486.547 757.677,-483.868 769.773,-480.97"/>
<polygon fill="midnightblue" stroke="midnightblue" points="770.762,-484.33 779.612,-478.507 769.062,-477.54 770.762,-484.33"/>
</g>
<!-- Node10 -->
<g id="node10" class="node"><title>Node10</title>
<g id="a_node10"><a xlink:href="namespace_omni_o_g_l.html#abe5ff24d55002e6ebffb4415d994260a" target="_top" xlink:title="Sets the pointer to the value &#45;1.">
<polygon fill="white" stroke="black" points="614,-383.5 614,-402.5 698,-402.5 698,-383.5 614,-383.5"/>
<text text-anchor="middle" x="656" y="-390.5" font-family="Helvetica,sans-Serif" font-size="10.00">OmniOGL::_Init</text>
</a>
</g>
</g>
<!-- Node1&#45;&gt;Node10 -->
<g id="edge11" class="edge"><title>Node1&#45;&gt;Node10</title>
<path fill="none" stroke="midnightblue" d="M128.162,-416.61C219.804,-413.086 394.977,-406.138 544,-399 563.518,-398.065 584.96,-396.931 603.751,-395.902"/>
<polygon fill="midnightblue" stroke="midnightblue" points="604.097,-399.388 613.889,-395.343 603.712,-392.399 604.097,-399.388"/>
</g>
<!-- Node11 -->
<g id="node11" class="node"><title>Node11</title>
<g id="a_node11"><a xlink:href="class_omni_o_g_l_1_1_input_events.html#ada44975a5a200ea06939505fddfcf0b2" target="_top" xlink:title="OmniOGL::InputEvents\l::GetInputUpdate">
<polygon fill="white" stroke="black" points="196,-293 196,-323 312,-323 312,-293 196,-293"/>
<text text-anchor="start" x="204" y="-311" font-family="Helvetica,sans-Serif" font-size="10.00">OmniOGL::InputEvents</text>
<text text-anchor="middle" x="254" y="-300" font-family="Helvetica,sans-Serif" font-size="10.00">::GetInputUpdate</text>
</a>
</g>
</g>
<!-- Node1&#45;&gt;Node11 -->
<g id="edge12" class="edge"><title>Node1&#45;&gt;Node11</title>
<path fill="none" stroke="midnightblue" d="M73.2093,-409.299C88.9539,-391.318 125.283,-352.76 164,-332 171.019,-328.237 178.672,-325.029 186.448,-322.304"/>
<polygon fill="midnightblue" stroke="midnightblue" points="187.53,-325.633 195.959,-319.215 185.367,-318.975 187.53,-325.633"/>
</g>
<!-- Node12 -->
<g id="node12" class="node"><title>Node12</title>
<g id="a_node12"><a xlink:href="class_omni_o_g_l_1_1_camera.html#a909a3939c41861fe1a4c11d965660c28" target="_top" xlink:title="A comprehensive method which checks to see if camera movement or camera orientation change is pending...">
<polygon fill="white" stroke="black" points="185.5,-219.5 185.5,-238.5 322.5,-238.5 322.5,-219.5 185.5,-219.5"/>
<text text-anchor="middle" x="254" y="-226.5" font-family="Helvetica,sans-Serif" font-size="10.00">OmniOGL::Camera::Update</text>
</a>
</g>
</g>
<!-- Node1&#45;&gt;Node12 -->
<g id="edge13" class="edge"><title>Node1&#45;&gt;Node12</title>
<path fill="none" stroke="midnightblue" d="M70.1662,-409.437C83.3174,-385.743 120.144,-323.324 164,-283 181.674,-266.75 204.971,-252.824 223.296,-243.185"/>
<polygon fill="midnightblue" stroke="midnightblue" points="225.059,-246.215 232.369,-238.547 221.872,-239.982 225.059,-246.215"/>
</g>
<!-- Node14 -->
<g id="node14" class="node"><title>Node14</title>
<g id="a_node14"><a xlink:href="class_omni_o_g_l_1_1_section_collection.html#a8eb741628a5957199c4c511be6e4f599" target="_top" xlink:title="OmniOGL::SectionCollection\l::UpdateCurrentSection">
<polygon fill="white" stroke="black" points="183,-342 183,-372 325,-372 325,-342 183,-342"/>
<text text-anchor="start" x="191" y="-360" font-family="Helvetica,sans-Serif" font-size="10.00">OmniOGL::SectionCollection</text>
<text text-anchor="middle" x="254" y="-349" font-family="Helvetica,sans-Serif" font-size="10.00">::UpdateCurrentSection</text>
</a>
</g>
</g>
<!-- Node1&#45;&gt;Node14 -->
<g id="edge15" class="edge"><title>Node1&#45;&gt;Node14</title>
<path fill="none" stroke="midnightblue" d="M93.963,-409.448C121.43,-400.39 163.429,-386.539 197.371,-375.346"/>
<polygon fill="midnightblue" stroke="midnightblue" points="198.764,-378.572 207.165,-372.116 196.572,-371.924 198.764,-378.572"/>
</g>
<!-- Node19 -->
<g id="node19" class="node"><title>Node19</title>
<g id="a_node19"><a xlink:href="class_omni_o_g_l_1_1_input_events.html#a5e2c671369f0eae88d61e31ec20b6a10" target="_top" xlink:title="OmniOGL::InputEvents\l::Activate">
<polygon fill="white" stroke="black" points="196,-123 196,-153 312,-153 312,-123 196,-123"/>
<text text-anchor="start" x="204" y="-141" font-family="Helvetica,sans-Serif" font-size="10.00">OmniOGL::InputEvents</text>
<text text-anchor="middle" x="254" y="-130" font-family="Helvetica,sans-Serif" font-size="10.00">::Activate</text>
</a>
</g>
</g>
<!-- Node1&#45;&gt;Node19 -->
<g id="edge23" class="edge"><title>Node1&#45;&gt;Node19</title>
<path fill="none" stroke="midnightblue" d="M67.8306,-409.423C77.3902,-378.207 110.882,-277.533 164,-210 179.733,-189.997 201.994,-171.992 220.316,-158.989"/>
<polygon fill="midnightblue" stroke="midnightblue" points="222.713,-161.587 228.948,-153.021 218.732,-155.829 222.713,-161.587"/>
</g>
<!-- Node26 -->
<g id="node26" class="node"><title>Node26</title>
<g id="a_node26"><a xlink:href="class_omni_o_g_l_1_1_scene.html#a63db7f91d326ad1a20741b31417b8148" target="_top" xlink:title="A template method which adds an renderable object of type T to the scene. It is assumed that T is a d...">
<polygon fill="white" stroke="black" points="181,-33.5 181,-52.5 327,-52.5 327,-33.5 181,-33.5"/>
<text text-anchor="middle" x="254" y="-40.5" font-family="Helvetica,sans-Serif" font-size="10.00">OmniOGL::Scene::AddObject</text>
</a>
</g>
</g>
<!-- Node1&#45;&gt;Node26 -->
<g id="edge30" class="edge"><title>Node1&#45;&gt;Node26</title>
<path fill="none" stroke="midnightblue" d="M66.0568,-409.354C70.827,-369.43 93.2898,-214.47 164,-113 180.374,-89.5033 206.935,-70.0795 226.786,-57.7028"/>
<polygon fill="midnightblue" stroke="midnightblue" points="228.619,-60.6848 235.374,-52.5227 225.003,-54.6908 228.619,-60.6848"/>
</g>
<!-- Node29 -->
<g id="node29" class="node"><title>Node29</title>
<g id="a_node29"><a xlink:href="class_omni_o_g_l_1_1_section_collection.html#abe45275bef4b3ae221ccba89da393359" target="_top" xlink:title="OmniOGL::SectionCollection\l::GetGridlines">
<polygon fill="white" stroke="black" points="183,-448 183,-478 325,-478 325,-448 183,-448"/>
<text text-anchor="start" x="191" y="-466" font-family="Helvetica,sans-Serif" font-size="10.00">OmniOGL::SectionCollection</text>
<text text-anchor="middle" x="254" y="-455" font-family="Helvetica,sans-Serif" font-size="10.00">::GetGridlines</text>
</a>
</g>
</g>
<!-- Node1&#45;&gt;Node29 -->
<g id="edge33" class="edge"><title>Node1&#45;&gt;Node29</title>
<path fill="none" stroke="midnightblue" d="M105.793,-428.547C127.149,-433.545 153.967,-439.822 178.843,-445.644"/>
<polygon fill="midnightblue" stroke="midnightblue" points="178.095,-449.064 188.63,-447.935 179.691,-442.248 178.095,-449.064"/>
</g>
<!-- Node3 -->
<g id="node3" class="node"><title>Node3</title>
<g id="a_node3"><a xlink:href="class_omni_o_g_l_1_1_o_g_l_buffers.html#aced7928dd8f160dffc9f6476ed46ccc7" target="_top" xlink:title="OmniOGL::OGLBuffers\l::CreateVAO">
<polygon fill="white" stroke="black" points="404,-536 404,-566 520,-566 520,-536 404,-536"/>
<text text-anchor="start" x="412" y="-554" font-family="Helvetica,sans-Serif" font-size="10.00">OmniOGL::OGLBuffers</text>
<text text-anchor="middle" x="462" y="-543" font-family="Helvetica,sans-Serif" font-size="10.00">::CreateVAO</text>
</a>
</g>
</g>
<!-- Node2&#45;&gt;Node3 -->
<g id="edge2" class="edge"><title>Node2&#45;&gt;Node3</title>
<path fill="none" stroke="midnightblue" d="M296.687,-588.489C324.602,-582.12 361.963,-573.596 394.006,-566.285"/>
<polygon fill="midnightblue" stroke="midnightblue" points="394.792,-569.696 403.763,-564.059 393.235,-562.871 394.792,-569.696"/>
</g>
<!-- Node5 -->
<g id="node5" class="node"><title>Node5</title>
<g id="a_node5"><a xlink:href="class_omni_o_g_l_1_1_o_g_l_buffers.html#a3cd416254327ba7bfe8dd27bf1758ea8" target="_top" xlink:title="A simple wrapper around glGenBuffers() which also increments a global counter keeping track of how ma...">
<polygon fill="white" stroke="black" points="404,-634 404,-664 520,-664 520,-634 404,-634"/>
<text text-anchor="start" x="412" y="-652" font-family="Helvetica,sans-Serif" font-size="10.00">OmniOGL::OGLBuffers</text>
<text text-anchor="middle" x="462" y="-641" font-family="Helvetica,sans-Serif" font-size="10.00">::CreateVBO</text>
</a>
</g>
</g>
<!-- Node2&#45;&gt;Node5 -->
<g id="edge4" class="edge"><title>Node2&#45;&gt;Node5</title>
<path fill="none" stroke="midnightblue" d="M293.747,-607.593C321.843,-614.548 360.558,-624.133 393.665,-632.33"/>
<polygon fill="midnightblue" stroke="midnightblue" points="393.193,-635.819 403.742,-634.824 394.876,-629.024 393.193,-635.819"/>
</g>
<!-- Node7 -->
<g id="node7" class="node"><title>Node7</title>
<g id="a_node7"><a xlink:href="class_omni_o_g_l_1_1_o_g_l_buffers.html#aab5c455cf9fec77c007a9b69b1c5339a" target="_top" xlink:title="A simple wrapper around glGenBuffers() which also increments a global counter keeping track of how ma...">
<polygon fill="white" stroke="black" points="404,-585 404,-615 520,-615 520,-585 404,-585"/>
<text text-anchor="start" x="412" y="-603" font-family="Helvetica,sans-Serif" font-size="10.00">OmniOGL::OGLBuffers</text>
<text text-anchor="middle" x="462" y="-592" font-family="Helvetica,sans-Serif" font-size="10.00">::CreateEBO</text>
</a>
</g>
</g>
<!-- Node2&#45;&gt;Node7 -->
<g id="edge6" class="edge"><title>Node2&#45;&gt;Node7</title>
<path fill="none" stroke="midnightblue" d="M343.558,-598.86C360.286,-599.022 377.532,-599.19 393.485,-599.345"/>
<polygon fill="midnightblue" stroke="midnightblue" points="393.729,-602.847 403.763,-599.444 393.797,-595.847 393.729,-602.847"/>
</g>
<!-- Node4 -->
<g id="node4" class="node"><title>Node4</title>
<g id="a_node4"><a xlink:href="class_omni_o_g_l_1_1_o_g_l_buffers.html#a966449fc915c1e54317bc4189476a83a" target="_top" xlink:title="OmniOGL::OGLBuffers::vao">
<polygon fill="white" stroke="black" points="587.5,-541.5 587.5,-560.5 724.5,-560.5 724.5,-541.5 587.5,-541.5"/>
<text text-anchor="middle" x="656" y="-548.5" font-family="Helvetica,sans-Serif" font-size="10.00">OmniOGL::OGLBuffers::vao</text>
</a>
</g>
</g>
<!-- Node3&#45;&gt;Node4 -->
<g id="edge3" class="edge"><title>Node3&#45;&gt;Node4</title>
<path fill="none" stroke="midnightblue" d="M520.086,-551C537.983,-551 558.052,-551 577.129,-551"/>
<polygon fill="midnightblue" stroke="midnightblue" points="577.301,-554.5 587.301,-551 577.301,-547.5 577.301,-554.5"/>
</g>
<!-- Node5&#45;&gt;Node6 -->
<g id="edge5" class="edge"><title>Node5&#45;&gt;Node6</title>
<path fill="none" stroke="midnightblue" d="M520.086,-649C537.983,-649 558.052,-649 577.129,-649"/>
<polygon fill="midnightblue" stroke="midnightblue" points="577.301,-652.5 587.301,-649 577.301,-645.5 577.301,-652.5"/>
</g>
<!-- Node7&#45;&gt;Node6 -->
<g id="edge7" class="edge"><title>Node7&#45;&gt;Node6</title>
<path fill="none" stroke="midnightblue" d="M520.086,-614.569C548.022,-621.698 581.248,-630.178 607.737,-636.938"/>
<polygon fill="midnightblue" stroke="midnightblue" points="606.98,-640.357 617.534,-639.438 608.711,-633.574 606.98,-640.357"/>
</g>
<!-- Node13 -->
<g id="node13" class="node"><title>Node13</title>
<g id="a_node13"><a xlink:href="class_omni_o_g_l_1_1_camera.html#a698009762978100380046bf41abd45ea" target="_top" xlink:title="This method rotates a 3D vector (represented by a three element float array) around another 3D vector...">
<polygon fill="white" stroke="black" points="401.5,-196 401.5,-226 522.5,-226 522.5,-196 401.5,-196"/>
<text text-anchor="start" x="409.5" y="-214" font-family="Helvetica,sans-Serif" font-size="10.00">OmniOGL::Camera::raw</text>
<text text-anchor="middle" x="462" y="-203" font-family="Helvetica,sans-Serif" font-size="10.00">_rotate</text>
</a>
</g>
</g>
<!-- Node12&#45;&gt;Node13 -->
<g id="edge14" class="edge"><title>Node12&#45;&gt;Node13</title>
<path fill="none" stroke="midnightblue" d="M322.737,-223.081C344.703,-221.162 369.102,-219.03 391.214,-217.098"/>
<polygon fill="midnightblue" stroke="midnightblue" points="391.538,-220.583 401.196,-216.226 390.929,-213.609 391.538,-220.583"/>
</g>
<!-- Node15 -->
<g id="node15" class="node"><title>Node15</title>
<g id="a_node15"><a xlink:href="class_omni_o_g_l_1_1_section_collection.html#a2f0e17b0f75e99116daca045854d656a" target="_top" xlink:title="OmniOGL::SectionCollection::Get">
<polygon fill="white" stroke="black" points="380,-283.5 380,-302.5 544,-302.5 544,-283.5 380,-283.5"/>
<text text-anchor="middle" x="462" y="-290.5" font-family="Helvetica,sans-Serif" font-size="10.00">OmniOGL::SectionCollection::Get</text>
</a>
</g>
</g>
<!-- Node14&#45;&gt;Node15 -->
<g id="edge16" class="edge"><title>Node14&#45;&gt;Node15</title>
<path fill="none" stroke="midnightblue" d="M312.768,-341.872C323.232,-338.821 333.994,-335.476 344,-332 360.374,-326.313 363.667,-322.804 380,-317 391.553,-312.895 404.198,-308.912 415.989,-305.408"/>
<polygon fill="midnightblue" stroke="midnightblue" points="417.033,-308.75 425.651,-302.586 415.071,-302.03 417.033,-308.75"/>
</g>
<!-- Node16 -->
<g id="node16" class="node"><title>Node16</title>
<g id="a_node16"><a xlink:href="namespace_omni_o_g_l.html#ade1ba238a31a1003412522a2769d5945" target="_top" xlink:title="OmniOGL::_Valid">
<polygon fill="white" stroke="black" points="609.5,-333.5 609.5,-352.5 702.5,-352.5 702.5,-333.5 609.5,-333.5"/>
<text text-anchor="middle" x="656" y="-340.5" font-family="Helvetica,sans-Serif" font-size="10.00">OmniOGL::_Valid</text>
</a>
</g>
</g>
<!-- Node14&#45;&gt;Node16 -->
<g id="edge17" class="edge"><title>Node14&#45;&gt;Node16</title>
<path fill="none" stroke="midnightblue" d="M325.06,-352.699C342.967,-351.704 362.192,-350.725 380,-350 455.762,-346.915 543.325,-344.964 598.91,-343.927"/>
<polygon fill="midnightblue" stroke="midnightblue" points="599.313,-347.421 609.247,-343.738 599.185,-340.422 599.313,-347.421"/>
</g>
<!-- Node17 -->
<g id="node17" class="node"><title>Node17</title>
<g id="a_node17"><a xlink:href="class_omni_o_g_l_1_1_section.html#a048b806e5f535ddbf0dbca0b5111e65a" target="_top" xlink:title="A method used to either set or retrieve the unique ID/index of the Section. This method will always r...">
<polygon fill="white" stroke="black" points="586,-270.5 586,-289.5 726,-289.5 726,-270.5 586,-270.5"/>
<text text-anchor="middle" x="656" y="-277.5" font-family="Helvetica,sans-Serif" font-size="10.00">OmniOGL::Section::QueryID</text>
</a>
</g>
</g>
<!-- Node14&#45;&gt;Node17 -->
<g id="edge18" class="edge"><title>Node14&#45;&gt;Node17</title>
<path fill="none" stroke="midnightblue" d="M325.403,-342.691C332.022,-339.766 338.355,-336.243 344,-332 368.252,-313.77 353.487,-288.749 380,-274 455.038,-232.258 560.333,-252.113 616.362,-267.63"/>
<polygon fill="midnightblue" stroke="midnightblue" points="615.655,-271.068 626.232,-270.46 617.585,-264.339 615.655,-271.068"/>
</g>
<!-- Node18 -->
<g id="node18" class="node"><title>Node18</title>
<g id="a_node18"><a xlink:href="class_omni_o_g_l_1_1_section_collection.html#aa4bab32a8d339d5a1e34d28b283768ff" target="_top" xlink:title="OmniOGL::SectionCollection\l::UpdateAdjacentSectionsArray">
<polygon fill="white" stroke="black" points="385.5,-360 385.5,-390 538.5,-390 538.5,-360 385.5,-360"/>
<text text-anchor="start" x="393.5" y="-378" font-family="Helvetica,sans-Serif" font-size="10.00">OmniOGL::SectionCollection</text>
<text text-anchor="middle" x="462" y="-367" font-family="Helvetica,sans-Serif" font-size="10.00">::UpdateAdjacentSectionsArray</text>
</a>
</g>
</g>
<!-- Node14&#45;&gt;Node18 -->
<g id="edge19" class="edge"><title>Node14&#45;&gt;Node18</title>
<path fill="none" stroke="midnightblue" d="M325.03,-363.119C341.064,-364.52 358.29,-366.025 374.912,-367.478"/>
<polygon fill="midnightblue" stroke="midnightblue" points="374.901,-370.99 385.167,-368.374 375.51,-364.017 374.901,-370.99"/>
</g>
<!-- Node18&#45;&gt;Node10 -->
<g id="edge20" class="edge"><title>Node18&#45;&gt;Node10</title>
<path fill="none" stroke="midnightblue" d="M538.608,-382.088C560.412,-384.132 583.688,-386.315 603.65,-388.186"/>
<polygon fill="midnightblue" stroke="midnightblue" points="603.478,-391.685 613.761,-389.134 604.132,-384.716 603.478,-391.685"/>
</g>
<!-- Node18&#45;&gt;Node16 -->
<g id="edge21" class="edge"><title>Node18&#45;&gt;Node16</title>
<path fill="none" stroke="midnightblue" d="M538.608,-362.399C558.889,-359.018 580.443,-355.426 599.42,-352.263"/>
<polygon fill="midnightblue" stroke="midnightblue" points="600.09,-355.7 609.379,-350.604 598.94,-348.795 600.09,-355.7"/>
</g>
<!-- Node18&#45;&gt;Node17 -->
<g id="edge22" class="edge"><title>Node18&#45;&gt;Node17</title>
<path fill="none" stroke="midnightblue" d="M493.423,-359.947C529.861,-341.918 590.444,-311.942 626.163,-294.268"/>
<polygon fill="midnightblue" stroke="midnightblue" points="628.128,-297.201 635.538,-289.629 625.023,-290.927 628.128,-297.201"/>
</g>
<!-- Node20 -->
<g id="node20" class="node"><title>Node20</title>
<g id="a_node20"><a xlink:href="class_omni_o_g_l_1_1_input_events.html#a88d861496c66f76d2dbf4008b547ab8e" target="_top" xlink:title="OmniOGL::InputEvents\l::_evnt_Keybrd">
<polygon fill="white" stroke="black" points="404,-98 404,-128 520,-128 520,-98 404,-98"/>
<text text-anchor="start" x="412" y="-116" font-family="Helvetica,sans-Serif" font-size="10.00">OmniOGL::InputEvents</text>
<text text-anchor="middle" x="462" y="-105" font-family="Helvetica,sans-Serif" font-size="10.00">::_evnt_Keybrd</text>
</a>
</g>
</g>
<!-- Node19&#45;&gt;Node20 -->
<g id="edge24" class="edge"><title>Node19&#45;&gt;Node20</title>
<path fill="none" stroke="midnightblue" d="M312.109,-131.069C337.449,-127.994 367.447,-124.354 393.853,-121.149"/>
<polygon fill="midnightblue" stroke="midnightblue" points="394.275,-124.624 403.78,-119.944 393.431,-117.675 394.275,-124.624"/>
</g>
<!-- Node22 -->
<g id="node22" class="node"><title>Node22</title>
<g id="a_node22"><a xlink:href="class_omni_o_g_l_1_1_input_events.html#a8004e6c0d7db77de53605fb526761cc9" target="_top" xlink:title="OmniOGL::InputEvents\l::_evnt_MouseMov">
<polygon fill="white" stroke="black" points="404,-49 404,-79 520,-79 520,-49 404,-49"/>
<text text-anchor="start" x="412" y="-67" font-family="Helvetica,sans-Serif" font-size="10.00">OmniOGL::InputEvents</text>
<text text-anchor="middle" x="462" y="-56" font-family="Helvetica,sans-Serif" font-size="10.00">::_evnt_MouseMov</text>
</a>
</g>
</g>
<!-- Node19&#45;&gt;Node22 -->
<g id="edge26" class="edge"><title>Node19&#45;&gt;Node22</title>
<path fill="none" stroke="midnightblue" d="M290.232,-122.894C315.095,-112.484 349.31,-98.6592 380,-88 385.819,-85.9789 391.909,-83.9751 398.024,-82.0371"/>
<polygon fill="midnightblue" stroke="midnightblue" points="399.11,-85.3648 407.62,-79.053 397.031,-78.6806 399.11,-85.3648"/>
</g>
<!-- Node24 -->
<g id="node24" class="node"><title>Node24</title>
<g id="a_node24"><a xlink:href="class_omni_o_g_l_1_1_input_events.html#a5bbcc2fa9e488f4e50a4186fed9b0fc4" target="_top" xlink:title="OmniOGL::InputEvents\l::_evnt_MouseBtn">
<polygon fill="white" stroke="black" points="404,-147 404,-177 520,-177 520,-147 404,-147"/>
<text text-anchor="start" x="412" y="-165" font-family="Helvetica,sans-Serif" font-size="10.00">OmniOGL::InputEvents</text>
<text text-anchor="middle" x="462" y="-154" font-family="Helvetica,sans-Serif" font-size="10.00">::_evnt_MouseBtn</text>
</a>
</g>
</g>
<!-- Node19&#45;&gt;Node24 -->
<g id="edge28" class="edge"><title>Node19&#45;&gt;Node24</title>
<path fill="none" stroke="midnightblue" d="M312.109,-144.653C337.337,-147.593 367.183,-151.07 393.504,-154.136"/>
<polygon fill="midnightblue" stroke="midnightblue" points="393.442,-157.653 403.78,-155.334 394.252,-150.7 393.442,-157.653"/>
</g>
<!-- Node21 -->
<g id="node21" class="node"><title>Node21</title>
<g id="a_node21"><a xlink:href="class_omni_o_g_l_1_1_input_events.html#aa5cdedcae6b267a6c61de670d602f8fa" target="_top" xlink:title="OmniOGL::InputEvents\l::evnt_Keybrd">
<polygon fill="white" stroke="black" points="598,-98 598,-128 714,-128 714,-98 598,-98"/>
<text text-anchor="start" x="606" y="-116" font-family="Helvetica,sans-Serif" font-size="10.00">OmniOGL::InputEvents</text>
<text text-anchor="middle" x="656" y="-105" font-family="Helvetica,sans-Serif" font-size="10.00">::evnt_Keybrd</text>
</a>
</g>
</g>
<!-- Node20&#45;&gt;Node21 -->
<g id="edge25" class="edge"><title>Node20&#45;&gt;Node21</title>
<path fill="none" stroke="midnightblue" d="M520.086,-113C541.271,-113 565.499,-113 587.524,-113"/>
<polygon fill="midnightblue" stroke="midnightblue" points="587.802,-116.5 597.802,-113 587.802,-109.5 587.802,-116.5"/>
</g>
<!-- Node23 -->
<g id="node23" class="node"><title>Node23</title>
<g id="a_node23"><a xlink:href="class_omni_o_g_l_1_1_input_events.html#af6143afa6b73f4a0f9447feaae2ef38c" target="_top" xlink:title="OmniOGL::InputEvents\l::evnt_MouseMov">
<polygon fill="white" stroke="black" points="598,-49 598,-79 714,-79 714,-49 598,-49"/>
<text text-anchor="start" x="606" y="-67" font-family="Helvetica,sans-Serif" font-size="10.00">OmniOGL::InputEvents</text>
<text text-anchor="middle" x="656" y="-56" font-family="Helvetica,sans-Serif" font-size="10.00">::evnt_MouseMov</text>
</a>
</g>
</g>
<!-- Node22&#45;&gt;Node23 -->
<g id="edge27" class="edge"><title>Node22&#45;&gt;Node23</title>
<path fill="none" stroke="midnightblue" d="M520.086,-64C541.271,-64 565.499,-64 587.524,-64"/>
<polygon fill="midnightblue" stroke="midnightblue" points="587.802,-67.5001 597.802,-64 587.802,-60.5001 587.802,-67.5001"/>
</g>
<!-- Node25 -->
<g id="node25" class="node"><title>Node25</title>
<g id="a_node25"><a xlink:href="class_omni_o_g_l_1_1_input_events.html#a09eb909106295408dd28e2e74d11b74f" target="_top" xlink:title="OmniOGL::InputEvents\l::evnt_MouseBtn">
<polygon fill="white" stroke="black" points="598,-147 598,-177 714,-177 714,-147 598,-147"/>
<text text-anchor="start" x="606" y="-165" font-family="Helvetica,sans-Serif" font-size="10.00">OmniOGL::InputEvents</text>
<text text-anchor="middle" x="656" y="-154" font-family="Helvetica,sans-Serif" font-size="10.00">::evnt_MouseBtn</text>
</a>
</g>
</g>
<!-- Node24&#45;&gt;Node25 -->
<g id="edge29" class="edge"><title>Node24&#45;&gt;Node25</title>
<path fill="none" stroke="midnightblue" d="M520.086,-162C541.271,-162 565.499,-162 587.524,-162"/>
<polygon fill="midnightblue" stroke="midnightblue" points="587.802,-165.5 597.802,-162 587.802,-158.5 587.802,-165.5"/>
</g>
<!-- Node27 -->
<g id="node27" class="node"><title>Node27</title>
<g id="a_node27"><a xlink:href="class_omni_o_g_l_1_1_section_collection.html#a07c937297ecc115e498cac570d6910bd" target="_top" xlink:title="OmniOGL::SectionCollection\l::AddObject">
<polygon fill="white" stroke="black" points="391,-0 391,-30 533,-30 533,-0 391,-0"/>
<text text-anchor="start" x="399" y="-18" font-family="Helvetica,sans-Serif" font-size="10.00">OmniOGL::SectionCollection</text>
<text text-anchor="middle" x="462" y="-7" font-family="Helvetica,sans-Serif" font-size="10.00">::AddObject</text>
</a>
</g>
</g>
<!-- Node26&#45;&gt;Node27 -->
<g id="edge31" class="edge"><title>Node26&#45;&gt;Node27</title>
<path fill="none" stroke="midnightblue" d="M325.03,-33.4814C342.941,-31.0468 362.34,-28.4101 380.722,-25.9115"/>
<polygon fill="midnightblue" stroke="midnightblue" points="381.377,-29.3549 390.814,-24.5398 380.434,-22.4186 381.377,-29.3549"/>
</g>
<!-- Node28 -->
<g id="node28" class="node"><title>Node28</title>
<g id="a_node28"><a xlink:href="class_omni_o_g_l_1_1_section.html#a20b4cf2c6472d59e9967aa8dbad377a4" target="_top" xlink:title="Adds an object to the Section&#39;s collection (linked list) of objects. This method also increments Sect...">
<polygon fill="white" stroke="black" points="580.5,-5.5 580.5,-24.5 731.5,-24.5 731.5,-5.5 580.5,-5.5"/>
<text text-anchor="middle" x="656" y="-12.5" font-family="Helvetica,sans-Serif" font-size="10.00">OmniOGL::Section::AddObject</text>
</a>
</g>
</g>
<!-- Node27&#45;&gt;Node28 -->
<g id="edge32" class="edge"><title>Node27&#45;&gt;Node28</title>
<path fill="none" stroke="midnightblue" d="M533.131,-15C545.099,-15 557.647,-15 569.951,-15"/>
<polygon fill="midnightblue" stroke="midnightblue" points="570.211,-18.5001 580.211,-15 570.211,-11.5001 570.211,-18.5001"/>
</g>
<!-- Node30 -->
<g id="node30" class="node"><title>Node30</title>
<g id="a_node30"><a xlink:href="class_omni_o_g_l_1_1_line_strip.html#af64b3e0837c49702b82c3b7a6c4288e4" target="_top" xlink:title="Adds a line segment to the class instance using absolute coordinates for a start and end point (i...">
<polygon fill="white" stroke="black" points="410,-448 410,-478 514,-478 514,-448 410,-448"/>
<text text-anchor="start" x="418" y="-466" font-family="Helvetica,sans-Serif" font-size="10.00">OmniOGL::LineStrip</text>
<text text-anchor="middle" x="462" y="-455" font-family="Helvetica,sans-Serif" font-size="10.00">::AddInstance</text>
</a>
</g>
</g>
<!-- Node29&#45;&gt;Node30 -->
<g id="edge34" class="edge"><title>Node29&#45;&gt;Node30</title>
<path fill="none" stroke="midnightblue" d="M325.03,-463C349.212,-463 376.104,-463 399.547,-463"/>
<polygon fill="midnightblue" stroke="midnightblue" points="399.707,-466.5 409.707,-463 399.707,-459.5 399.707,-466.5"/>
</g>
<!-- Node30&#45;&gt;Node10 -->
<g id="edge35" class="edge"><title>Node30&#45;&gt;Node10</title>
<path fill="none" stroke="midnightblue" d="M508.136,-447.858C519.975,-443.461 532.611,-438.381 544,-433 560.748,-425.087 562.854,-419.01 580,-412 587.602,-408.892 595.85,-406.185 604.003,-403.865"/>
<polygon fill="midnightblue" stroke="midnightblue" points="605.098,-407.195 613.851,-401.225 603.286,-400.433 605.098,-407.195"/>
</g>
<!-- Node31 -->
<g id="node31" class="node"><title>Node31</title>
<g id="a_node31"><a xlink:href="namespace_omni_o_g_l.html#a80cd48382ee4083e78ba3431e570b82c" target="_top" xlink:title="A wrapper around the new[] keyword. Allocates the desired number of elements to the given pointer...">
<polygon fill="white" stroke="black" points="611,-459.5 611,-478.5 701,-478.5 701,-459.5 611,-459.5"/>
<text text-anchor="middle" x="656" y="-466.5" font-family="Helvetica,sans-Serif" font-size="10.00">OmniOGL::_New</text>
</a>
</g>
</g>
<!-- Node30&#45;&gt;Node31 -->
<g id="edge36" class="edge"><title>Node30&#45;&gt;Node31</title>
<path fill="none" stroke="midnightblue" d="M514.2,-464.6C540.895,-465.434 573.547,-466.455 600.684,-467.303"/>
<polygon fill="midnightblue" stroke="midnightblue" points="600.686,-470.804 610.791,-467.618 600.905,-463.808 600.686,-470.804"/>
</g>
<!-- Node32 -->
<g id="node32" class="node"><title>Node32</title>
<g id="a_node32"><a xlink:href="namespace_omni_o_g_l.html#ab790cf1cdc8d2bcbdbbe06c6d87f1a1d" target="_top" xlink:title="A wrapper for the delete[] keyword. Always uses delete[], and never delete.">
<polygon fill="white" stroke="black" points="606.5,-421.5 606.5,-440.5 705.5,-440.5 705.5,-421.5 606.5,-421.5"/>
<text text-anchor="middle" x="656" y="-428.5" font-family="Helvetica,sans-Serif" font-size="10.00">OmniOGL::_Delete</text>
</a>
</g>
</g>
<!-- Node30&#45;&gt;Node32 -->
<g id="edge38" class="edge"><title>Node30&#45;&gt;Node32</title>
<path fill="none" stroke="midnightblue" d="M514.2,-454.467C539.404,-450.266 569.919,-445.18 596.089,-440.819"/>
<polygon fill="midnightblue" stroke="midnightblue" points="596.969,-444.22 606.258,-439.124 595.819,-437.315 596.969,-444.22"/>
</g>
<!-- Node31&#45;&gt;Node9 -->
<g id="edge37" class="edge"><title>Node31&#45;&gt;Node9</title>
<path fill="none" stroke="midnightblue" d="M701.002,-469C718.673,-469 739.221,-469 757.8,-469"/>
<polygon fill="midnightblue" stroke="midnightblue" points="757.888,-472.5 767.888,-469 757.888,-465.5 757.888,-472.5"/>
</g>
<!-- Node32&#45;&gt;Node9 -->
<g id="edge39" class="edge"><title>Node32&#45;&gt;Node9</title>
<path fill="none" stroke="midnightblue" d="M696.113,-440.589C716.475,-445.581 741.566,-451.732 763.189,-457.033"/>
<polygon fill="midnightblue" stroke="midnightblue" points="762.622,-460.498 773.168,-459.48 764.289,-453.699 762.622,-460.498"/>
</g>
</g>
</svg>
