<?xml version="1.0" encoding="UTF-8" standalone="no"?>
<!DOCTYPE svg PUBLIC "-//W3C//DTD SVG 1.1//EN"
 "http://www.w3.org/Graphics/SVG/1.1/DTD/svg11.dtd">
<!-- Generated by graphviz version 2.30.1 (20130214.1330)
 -->
<!-- Title: OmniOGL::InputEvents::GetInputUpdate Pages: 1 -->
<svg width="642pt" height="66pt"
 viewBox="0.00 0.00 642.00 66.00" xmlns="http://www.w3.org/2000/svg" xmlns:xlink="http://www.w3.org/1999/xlink">
<g id="graph0" class="graph" transform="scale(1 1) rotate(0) translate(4 62)">
<title>OmniOGL::InputEvents::GetInputUpdate</title>
<polygon fill="white" stroke="white" points="-4,5 -4,-62 639,-62 639,5 -4,5"/>
<!-- Node1 -->
<g id="node1" class="node"><title>Node1</title>
<polygon fill="#bfbfbf" stroke="black" points="0,-14 0,-44 116,-44 116,-14 0,-14"/>
<text text-anchor="start" x="8" y="-32" font-family="Helvetica,sans-Serif" font-size="10.00">OmniOGL::InputEvents</text>
<text text-anchor="middle" x="58" y="-21" font-family="Helvetica,sans-Serif" font-size="10.00">::GetInputUpdate</text>
</g>
<!-- Node2 -->
<g id="node2" class="node"><title>Node2</title>
<g id="a_node2"><a xlink:href="class_omni_o_g_l_1_1_scene.html#a8601c13e69f3269928209f1ffdf2584a" target="_top" xlink:title="The constructor for the Scene class. This is a fairly busy constructor since it&#39;s responsible for ini...">
<polygon fill="white" stroke="black" points="164,-38.5 164,-57.5 292,-57.5 292,-38.5 164,-38.5"/>
<text text-anchor="middle" x="228" y="-45.5" font-family="Helvetica,sans-Serif" font-size="10.00">OmniOGL::Scene::Scene</text>
</a>
</g>
</g>
<!-- Node1&#45;&gt;Node2 -->
<g id="edge1" class="edge"><title>Node1&#45;&gt;Node2</title>
<path fill="none" stroke="midnightblue" d="M126.554,-36.64C138.873,-38.0332 151.682,-39.4819 163.867,-40.8599"/>
<polygon fill="midnightblue" stroke="midnightblue" points="126.676,-33.1316 116.346,-35.4856 125.889,-40.0873 126.676,-33.1316"/>
</g>
<!-- Node3 -->
<g id="node3" class="node"><title>Node3</title>
<g id="a_node3"><a xlink:href="class_omni_o_g_l_1_1_scene.html#aaf90a48c617a97b06e8b75320c0271b0" target="_top" xlink:title="OmniOGL::Scene::HandleInput">
<polygon fill="white" stroke="black" points="152.5,-0.5 152.5,-19.5 303.5,-19.5 303.5,-0.5 152.5,-0.5"/>
<text text-anchor="middle" x="228" y="-7.5" font-family="Helvetica,sans-Serif" font-size="10.00">OmniOGL::Scene::HandleInput</text>
</a>
</g>
</g>
<!-- Node1&#45;&gt;Node3 -->
<g id="edge2" class="edge"><title>Node1&#45;&gt;Node3</title>
<path fill="none" stroke="midnightblue" d="M126.288,-21.3901C134.871,-20.4194 143.696,-19.4213 152.386,-18.4385"/>
<polygon fill="midnightblue" stroke="midnightblue" points="125.889,-17.9127 116.346,-22.5144 126.676,-24.8684 125.889,-17.9127"/>
</g>
<!-- Node4 -->
<g id="node4" class="node"><title>Node4</title>
<g id="a_node4"><a xlink:href="class_omni_o_g_l_1_1_scene.html#ac65b18faabaa3d2af9a0a4b2f2fc0fe0" target="_top" xlink:title="The core of the rendering loop! This method iterates through all possible containers of objects&#45;to&#45;be...">
<polygon fill="white" stroke="black" points="340,-0.5 340,-19.5 462,-19.5 462,-0.5 340,-0.5"/>
<text text-anchor="middle" x="401" y="-7.5" font-family="Helvetica,sans-Serif" font-size="10.00">OmniOGL::Scene::Draw</text>
</a>
</g>
</g>
<!-- Node3&#45;&gt;Node4 -->
<g id="edge3" class="edge"><title>Node3&#45;&gt;Node4</title>
<path fill="none" stroke="midnightblue" d="M313.52,-10C322.413,-10 331.32,-10 339.856,-10"/>
<polygon fill="midnightblue" stroke="midnightblue" points="313.506,-6.5001 303.506,-10 313.506,-13.5001 313.506,-6.5001"/>
</g>
<!-- Node5 -->
<g id="node5" class="node"><title>Node5</title>
<g id="a_node5"><a xlink:href="_exec_8cpp.html#a38c5e7def3be6ea702581ee4a92b9cc0" target="_top" xlink:title="render">
<polygon fill="white" stroke="black" points="498,-0.5 498,-19.5 542,-19.5 542,-0.5 498,-0.5"/>
<text text-anchor="middle" x="520" y="-7.5" font-family="Helvetica,sans-Serif" font-size="10.00">render</text>
</a>
</g>
</g>
<!-- Node4&#45;&gt;Node5 -->
<g id="edge4" class="edge"><title>Node4&#45;&gt;Node5</title>
<path fill="none" stroke="midnightblue" d="M472.318,-10C481.524,-10 490.323,-10 497.751,-10"/>
<polygon fill="midnightblue" stroke="midnightblue" points="472.214,-6.5001 462.214,-10 472.214,-13.5001 472.214,-6.5001"/>
</g>
<!-- Node6 -->
<g id="node6" class="node"><title>Node6</title>
<g id="a_node6"><a xlink:href="_exec_8cpp.html#a66e65252a6985e382838442f280f46ba" target="_top" xlink:title="WinMain">
<polygon fill="white" stroke="black" points="578.5,-0.5 578.5,-19.5 633.5,-19.5 633.5,-0.5 578.5,-0.5"/>
<text text-anchor="middle" x="606" y="-7.5" font-family="Helvetica,sans-Serif" font-size="10.00">WinMain</text>
</a>
</g>
</g>
<!-- Node5&#45;&gt;Node6 -->
<g id="edge5" class="edge"><title>Node5&#45;&gt;Node6</title>
<path fill="none" stroke="midnightblue" d="M552.253,-10C560.845,-10 570.081,-10 578.386,-10"/>
<polygon fill="midnightblue" stroke="midnightblue" points="552.197,-6.5001 542.197,-10 552.197,-13.5001 552.197,-6.5001"/>
</g>
</g>
</svg>
