<?xml version="1.0" encoding="UTF-8" standalone="no"?>
<!DOCTYPE svg PUBLIC "-//W3C//DTD SVG 1.1//EN"
 "http://www.w3.org/Graphics/SVG/1.1/DTD/svg11.dtd">
<!-- Generated by graphviz version 2.30.1 (20130214.1330)
 -->
<!-- Title: OmniOGL::Scene::HandleInput Pages: 1 -->
<svg width="1062pt" height="514pt"
 viewBox="0.00 0.00 1062.00 514.00" xmlns="http://www.w3.org/2000/svg" xmlns:xlink="http://www.w3.org/1999/xlink">
<g id="graph0" class="graph" transform="scale(1 1) rotate(0) translate(4 510)">
<title>OmniOGL::Scene::HandleInput</title>
<polygon fill="white" stroke="white" points="-4,5 -4,-510 1059,-510 1059,5 -4,5"/>
<!-- Node1 -->
<g id="node1" class="node"><title>Node1</title>
<polygon fill="#bfbfbf" stroke="black" points="0.5,-281.5 0.5,-300.5 151.5,-300.5 151.5,-281.5 0.5,-281.5"/>
<text text-anchor="middle" x="76" y="-288.5" font-family="Helvetica,sans-Serif" font-size="10.00">OmniOGL::Scene::HandleInput</text>
</g>
<!-- Node2 -->
<g id="node2" class="node"><title>Node2</title>
<g id="a_node2"><a xlink:href="class_omni_o_g_l_1_1_input_events.html#ada44975a5a200ea06939505fddfcf0b2" target="_top" xlink:title="OmniOGL::InputEvents\l::GetInputUpdate">
<polygon fill="white" stroke="black" points="217,-476 217,-506 333,-506 333,-476 217,-476"/>
<text text-anchor="start" x="225" y="-494" font-family="Helvetica,sans-Serif" font-size="10.00">OmniOGL::InputEvents</text>
<text text-anchor="middle" x="275" y="-483" font-family="Helvetica,sans-Serif" font-size="10.00">::GetInputUpdate</text>
</a>
</g>
</g>
<!-- Node1&#45;&gt;Node2 -->
<g id="edge1" class="edge"><title>Node1&#45;&gt;Node2</title>
<path fill="none" stroke="midnightblue" d="M80.3052,-300.672C90.9133,-330.24 127.014,-420.192 188,-466 193.812,-470.366 200.369,-473.97 207.206,-476.947"/>
<polygon fill="midnightblue" stroke="midnightblue" points="206.069,-480.26 216.658,-480.628 208.61,-473.738 206.069,-480.26"/>
</g>
<!-- Node3 -->
<g id="node3" class="node"><title>Node3</title>
<g id="a_node3"><a xlink:href="class_omni_o_g_l_1_1_scene.html#ad54723f8249185236e8bc77315b3622c" target="_top" xlink:title="In the current implementation this function must determine the derived type of the shared pointer pas...">
<polygon fill="white" stroke="black" points="193,-437.5 193,-456.5 357,-456.5 357,-437.5 193,-437.5"/>
<text text-anchor="middle" x="275" y="-444.5" font-family="Helvetica,sans-Serif" font-size="10.00">OmniOGL::Scene::AddDerivedObj</text>
</a>
</g>
</g>
<!-- Node1&#45;&gt;Node3 -->
<g id="edge2" class="edge"><title>Node1&#45;&gt;Node3</title>
<path fill="none" stroke="midnightblue" d="M81.9515,-300.737C95.3125,-325.964 134.72,-393.79 188,-427 192.171,-429.6 196.646,-431.862 201.284,-433.831"/>
<polygon fill="midnightblue" stroke="midnightblue" points="200.394,-437.235 210.987,-437.473 202.855,-430.682 200.394,-437.235"/>
</g>
<!-- Node7 -->
<g id="node7" class="node"><title>Node7</title>
<g id="a_node7"><a xlink:href="class_omni_o_g_l_1_1_scene.html#a9d8d02ef3d9c0e472ad5866cbbacfdac" target="_top" xlink:title="Iterates through all objects in the Section which the player/user is currently in, as well as all of the persistant objects in the Scene, and attempts to find which object is within closest proximity to the camera CENTER (the point the camera is looking at). Only objects which are within a close&#45;enough proximity will qualify. The nearest qualifying object is removed from the Scene (or from the Section it occupied, if it occupied one). evnt_Keybrd()">
<polygon fill="white" stroke="black" points="197.5,-388 197.5,-418 352.5,-418 352.5,-388 197.5,-388"/>
<text text-anchor="start" x="205.5" y="-406" font-family="Helvetica,sans-Serif" font-size="10.00">OmniOGL::Scene::RemoveNear</text>
<text text-anchor="middle" x="275" y="-395" font-family="Helvetica,sans-Serif" font-size="10.00">Object</text>
</a>
</g>
</g>
<!-- Node1&#45;&gt;Node7 -->
<g id="edge6" class="edge"><title>Node1&#45;&gt;Node7</title>
<path fill="none" stroke="midnightblue" d="M86.5004,-300.572C104.647,-318.337 146.169,-356.549 188,-378 192.468,-380.291 197.178,-382.403 201.997,-384.343"/>
<polygon fill="midnightblue" stroke="midnightblue" points="200.773,-387.621 211.365,-387.864 203.236,-381.069 200.773,-387.621"/>
</g>
<!-- Node13 -->
<g id="node13" class="node"><title>Node13</title>
<g id="a_node13"><a xlink:href="class_omni_o_g_l_1_1_scene.html#a452adda2e655d6702fa23361ab9a4651" target="_top" xlink:title="Toggles bump mapping via [specially formatted] textures on/off. Primarily used for debugging purposes...">
<polygon fill="white" stroke="black" points="198,-339 198,-369 352,-369 352,-339 198,-339"/>
<text text-anchor="start" x="206" y="-357" font-family="Helvetica,sans-Serif" font-size="10.00">OmniOGL::Scene::ToggleBump</text>
<text text-anchor="middle" x="275" y="-346" font-family="Helvetica,sans-Serif" font-size="10.00">Mapping</text>
</a>
</g>
</g>
<!-- Node1&#45;&gt;Node13 -->
<g id="edge13" class="edge"><title>Node1&#45;&gt;Node13</title>
<path fill="none" stroke="midnightblue" d="M103.799,-300.569C126.209,-308.475 159.064,-319.847 188,-329 195.401,-331.341 203.185,-333.72 210.923,-336.032"/>
<polygon fill="midnightblue" stroke="midnightblue" points="210.084,-339.434 220.666,-338.919 212.072,-332.722 210.084,-339.434"/>
</g>
<!-- Node14 -->
<g id="node14" class="node"><title>Node14</title>
<g id="a_node14"><a xlink:href="class_omni_o_g_l_1_1_scene.html#ac22c153e30b6ec0826789b499c500b0d" target="_top" xlink:title="Toggles lambertian reflectance (a.k.a. diffuse highlights) on/off. Primarily used for debugging purpo...">
<polygon fill="white" stroke="black" points="193,-300.5 193,-319.5 357,-319.5 357,-300.5 193,-300.5"/>
<text text-anchor="middle" x="275" y="-307.5" font-family="Helvetica,sans-Serif" font-size="10.00">OmniOGL::Scene::ToggleLambert</text>
</a>
</g>
</g>
<!-- Node1&#45;&gt;Node14 -->
<g id="edge14" class="edge"><title>Node1&#45;&gt;Node14</title>
<path fill="none" stroke="midnightblue" d="M151.758,-298.21C161.799,-299.179 172.191,-300.181 182.48,-301.173"/>
<polygon fill="midnightblue" stroke="midnightblue" points="182.428,-304.684 192.718,-302.161 183.1,-297.717 182.428,-304.684"/>
</g>
<!-- Node15 -->
<g id="node15" class="node"><title>Node15</title>
<g id="a_node15"><a xlink:href="class_omni_o_g_l_1_1_scene.html#ab13174444217c90a47b511f43aa7683e" target="_top" xlink:title="Toggles phong shading (a.k.a. specular highlights) on/off. Primarily used for debugging purposes...">
<polygon fill="white" stroke="black" points="197,-262.5 197,-281.5 353,-281.5 353,-262.5 197,-262.5"/>
<text text-anchor="middle" x="275" y="-269.5" font-family="Helvetica,sans-Serif" font-size="10.00">OmniOGL::Scene::TogglePhong</text>
</a>
</g>
</g>
<!-- Node1&#45;&gt;Node15 -->
<g id="edge15" class="edge"><title>Node1&#45;&gt;Node15</title>
<path fill="none" stroke="midnightblue" d="M151.758,-283.79C163.123,-282.694 174.937,-281.554 186.543,-280.435"/>
<polygon fill="midnightblue" stroke="midnightblue" points="187.055,-283.902 196.673,-279.458 186.383,-276.934 187.055,-283.902"/>
</g>
<!-- Node16 -->
<g id="node16" class="node"><title>Node16</title>
<g id="a_node16"><a xlink:href="class_omni_o_g_l_1_1_scene.html#a87c0724c8678835982e0fd9774e5ebb3" target="_top" xlink:title="Toggles texture mapping on/off. Does not affect textures used for bump mapping. Primarily used for de...">
<polygon fill="white" stroke="black" points="192,-224.5 192,-243.5 358,-243.5 358,-224.5 192,-224.5"/>
<text text-anchor="middle" x="275" y="-231.5" font-family="Helvetica,sans-Serif" font-size="10.00">OmniOGL::Scene::ToggleTextures</text>
</a>
</g>
</g>
<!-- Node1&#45;&gt;Node16 -->
<g id="edge16" class="edge"><title>Node1&#45;&gt;Node16</title>
<path fill="none" stroke="midnightblue" d="M102.315,-281.424C124.649,-273.194 158.191,-261.367 188,-253 197.178,-250.424 206.986,-247.976 216.573,-245.746"/>
<polygon fill="midnightblue" stroke="midnightblue" points="217.471,-249.131 226.448,-243.505 215.922,-242.305 217.471,-249.131"/>
</g>
<!-- Node17 -->
<g id="node17" class="node"><title>Node17</title>
<g id="a_node17"><a xlink:href="class_omni_o_g_l_1_1_scene.html#a49cec0453c714f408b2a153f5cfacccf" target="_top" xlink:title="OmniOGL::Scene::ToggleWireframe">
<polygon fill="white" stroke="black" points="188.5,-186.5 188.5,-205.5 361.5,-205.5 361.5,-186.5 188.5,-186.5"/>
<text text-anchor="middle" x="275" y="-193.5" font-family="Helvetica,sans-Serif" font-size="10.00">OmniOGL::Scene::ToggleWireframe</text>
</a>
</g>
</g>
<!-- Node1&#45;&gt;Node17 -->
<g id="edge17" class="edge"><title>Node1&#45;&gt;Node17</title>
<path fill="none" stroke="midnightblue" d="M87.807,-281.457C106.734,-265.262 147.712,-232.458 188,-215 193.801,-212.486 199.971,-210.289 206.239,-208.372"/>
<polygon fill="midnightblue" stroke="midnightblue" points="207.457,-211.665 216.133,-205.583 205.558,-204.927 207.457,-211.665"/>
</g>
<!-- Node18 -->
<g id="node18" class="node"><title>Node18</title>
<g id="a_node18"><a xlink:href="class_omni_o_g_l_1_1_camera.html#a909a3939c41861fe1a4c11d965660c28" target="_top" xlink:title="A comprehensive method which checks to see if camera movement or camera orientation change is pending...">
<polygon fill="white" stroke="black" points="206.5,-148.5 206.5,-167.5 343.5,-167.5 343.5,-148.5 206.5,-148.5"/>
<text text-anchor="middle" x="275" y="-155.5" font-family="Helvetica,sans-Serif" font-size="10.00">OmniOGL::Camera::Update</text>
</a>
</g>
</g>
<!-- Node1&#45;&gt;Node18 -->
<g id="edge18" class="edge"><title>Node1&#45;&gt;Node18</title>
<path fill="none" stroke="midnightblue" d="M83.4517,-281.216C98.7277,-258.885 139.49,-204.013 188,-177 192.016,-174.764 196.275,-172.791 200.664,-171.05"/>
<polygon fill="midnightblue" stroke="midnightblue" points="202.174,-174.228 210.437,-167.598 199.842,-167.628 202.174,-174.228"/>
</g>
<!-- Node20 -->
<g id="node20" class="node"><title>Node20</title>
<g id="a_node20"><a xlink:href="class_omni_o_g_l_1_1_section_collection.html#a8eb741628a5957199c4c511be6e4f599" target="_top" xlink:title="OmniOGL::SectionCollection\l::UpdateCurrentSection">
<polygon fill="white" stroke="black" points="204,-80 204,-110 346,-110 346,-80 204,-80"/>
<text text-anchor="start" x="212" y="-98" font-family="Helvetica,sans-Serif" font-size="10.00">OmniOGL::SectionCollection</text>
<text text-anchor="middle" x="275" y="-87" font-family="Helvetica,sans-Serif" font-size="10.00">::UpdateCurrentSection</text>
</a>
</g>
</g>
<!-- Node1&#45;&gt;Node20 -->
<g id="edge20" class="edge"><title>Node1&#45;&gt;Node20</title>
<path fill="none" stroke="midnightblue" d="M81.9883,-281.252C95.7296,-255.19 136.549,-182.909 188,-139 199.189,-129.451 212.807,-121.28 225.875,-114.664"/>
<polygon fill="midnightblue" stroke="midnightblue" points="227.776,-117.632 235.251,-110.124 224.725,-111.332 227.776,-117.632"/>
</g>
<!-- Node4 -->
<g id="node4" class="node"><title>Node4</title>
<g id="a_node4"><a xlink:href="class_omni_o_g_l_1_1_scene.html#a63db7f91d326ad1a20741b31417b8148" target="_top" xlink:title="A template method which adds an renderable object of type T to the scene. It is assumed that T is a d...">
<polygon fill="white" stroke="black" points="407,-437.5 407,-456.5 553,-456.5 553,-437.5 407,-437.5"/>
<text text-anchor="middle" x="480" y="-444.5" font-family="Helvetica,sans-Serif" font-size="10.00">OmniOGL::Scene::AddObject</text>
</a>
</g>
</g>
<!-- Node3&#45;&gt;Node4 -->
<g id="edge3" class="edge"><title>Node3&#45;&gt;Node4</title>
<path fill="none" stroke="midnightblue" d="M357.106,-447C370.09,-447 383.539,-447 396.554,-447"/>
<polygon fill="midnightblue" stroke="midnightblue" points="396.881,-450.5 406.881,-447 396.881,-443.5 396.881,-450.5"/>
</g>
<!-- Node5 -->
<g id="node5" class="node"><title>Node5</title>
<g id="a_node5"><a xlink:href="class_omni_o_g_l_1_1_section_collection.html#a07c937297ecc115e498cac570d6910bd" target="_top" xlink:title="OmniOGL::SectionCollection\l::AddObject">
<polygon fill="white" stroke="black" points="598,-432 598,-462 740,-462 740,-432 598,-432"/>
<text text-anchor="start" x="606" y="-450" font-family="Helvetica,sans-Serif" font-size="10.00">OmniOGL::SectionCollection</text>
<text text-anchor="middle" x="669" y="-439" font-family="Helvetica,sans-Serif" font-size="10.00">::AddObject</text>
</a>
</g>
</g>
<!-- Node4&#45;&gt;Node5 -->
<g id="edge4" class="edge"><title>Node4&#45;&gt;Node5</title>
<path fill="none" stroke="midnightblue" d="M553.032,-447C564.411,-447 576.239,-447 587.791,-447"/>
<polygon fill="midnightblue" stroke="midnightblue" points="587.853,-450.5 597.853,-447 587.853,-443.5 587.853,-450.5"/>
</g>
<!-- Node6 -->
<g id="node6" class="node"><title>Node6</title>
<g id="a_node6"><a xlink:href="class_omni_o_g_l_1_1_section.html#a20b4cf2c6472d59e9967aa8dbad377a4" target="_top" xlink:title="Adds an object to the Section&#39;s collection (linked list) of objects. This method also increments Sect...">
<polygon fill="white" stroke="black" points="776.5,-437.5 776.5,-456.5 927.5,-456.5 927.5,-437.5 776.5,-437.5"/>
<text text-anchor="middle" x="852" y="-444.5" font-family="Helvetica,sans-Serif" font-size="10.00">OmniOGL::Section::AddObject</text>
</a>
</g>
</g>
<!-- Node5&#45;&gt;Node6 -->
<g id="edge5" class="edge"><title>Node5&#45;&gt;Node6</title>
<path fill="none" stroke="midnightblue" d="M740.238,-447C748.738,-447 757.488,-447 766.169,-447"/>
<polygon fill="midnightblue" stroke="midnightblue" points="766.308,-450.5 776.308,-447 766.308,-443.5 766.308,-450.5"/>
</g>
<!-- Node8 -->
<g id="node8" class="node"><title>Node8</title>
<g id="a_node8"><a xlink:href="class_omni_o_g_l_1_1_section_collection.html#af49673c003179e600645df9310c23108" target="_top" xlink:title="OmniOGL::SectionCollection\l::RemoveNearObject">
<polygon fill="white" stroke="black" points="409,-388 409,-418 551,-418 551,-388 409,-388"/>
<text text-anchor="start" x="417" y="-406" font-family="Helvetica,sans-Serif" font-size="10.00">OmniOGL::SectionCollection</text>
<text text-anchor="middle" x="480" y="-395" font-family="Helvetica,sans-Serif" font-size="10.00">::RemoveNearObject</text>
</a>
</g>
</g>
<!-- Node7&#45;&gt;Node8 -->
<g id="edge7" class="edge"><title>Node7&#45;&gt;Node8</title>
<path fill="none" stroke="midnightblue" d="M352.746,-403C367.707,-403 383.432,-403 398.51,-403"/>
<polygon fill="midnightblue" stroke="midnightblue" points="398.828,-406.5 408.828,-403 398.828,-399.5 398.828,-406.5"/>
</g>
<!-- Node12 -->
<g id="node12" class="node"><title>Node12</title>
<g id="a_node12"><a xlink:href="class_omni_o_g_l_1_1_scene.html#a0dbdc05458b6c7c905b79dd847bc5e24" target="_top" xlink:title="Removes a RenObj (or one of its derivates) from the Scene, only if the object [pointer] already exist...">
<polygon fill="white" stroke="black" points="398.5,-349.5 398.5,-368.5 561.5,-368.5 561.5,-349.5 398.5,-349.5"/>
<text text-anchor="middle" x="480" y="-356.5" font-family="Helvetica,sans-Serif" font-size="10.00">OmniOGL::Scene::RemoveObject</text>
</a>
</g>
</g>
<!-- Node7&#45;&gt;Node12 -->
<g id="edge11" class="edge"><title>Node7&#45;&gt;Node12</title>
<path fill="none" stroke="midnightblue" d="M345.293,-387.981C371.439,-382.314 400.766,-375.957 425.277,-370.644"/>
<polygon fill="midnightblue" stroke="midnightblue" points="426.082,-374.051 435.113,-368.512 424.599,-367.21 426.082,-374.051"/>
</g>
<!-- Node9 -->
<g id="node9" class="node"><title>Node9</title>
<g id="a_node9"><a xlink:href="class_omni_o_g_l_1_1_section_collection.html#a48c15326a3435fbc853671efde647d6f" target="_top" xlink:title="OmniOGL::SectionCollection\l::RemoveObject">
<polygon fill="white" stroke="black" points="598,-363 598,-393 740,-393 740,-363 598,-363"/>
<text text-anchor="start" x="606" y="-381" font-family="Helvetica,sans-Serif" font-size="10.00">OmniOGL::SectionCollection</text>
<text text-anchor="middle" x="669" y="-370" font-family="Helvetica,sans-Serif" font-size="10.00">::RemoveObject</text>
</a>
</g>
</g>
<!-- Node8&#45;&gt;Node9 -->
<g id="edge8" class="edge"><title>Node8&#45;&gt;Node9</title>
<path fill="none" stroke="midnightblue" d="M551.164,-393.62C563.066,-392.029 575.507,-390.365 587.646,-388.742"/>
<polygon fill="midnightblue" stroke="midnightblue" points="588.306,-392.186 597.754,-387.391 587.378,-385.247 588.306,-392.186"/>
</g>
<!-- Node10 -->
<g id="node10" class="node"><title>Node10</title>
<g id="a_node10"><a xlink:href="class_omni_o_g_l_1_1_section.html#ac8ecd65a9d61f632f44d18df9174cf8d" target="_top" xlink:title="Removes an object from the Section&#39;s collection (linked list) of objects. This method also decrements...">
<polygon fill="white" stroke="black" points="782,-363 782,-393 922,-393 922,-363 782,-363"/>
<text text-anchor="start" x="790" y="-381" font-family="Helvetica,sans-Serif" font-size="10.00">OmniOGL::Section::Remove</text>
<text text-anchor="middle" x="852" y="-370" font-family="Helvetica,sans-Serif" font-size="10.00">Object</text>
</a>
</g>
</g>
<!-- Node9&#45;&gt;Node10 -->
<g id="edge9" class="edge"><title>Node9&#45;&gt;Node10</title>
<path fill="none" stroke="midnightblue" d="M740.238,-378C750.63,-378 761.398,-378 771.955,-378"/>
<polygon fill="midnightblue" stroke="midnightblue" points="771.992,-381.5 781.992,-378 771.992,-374.5 771.992,-381.5"/>
</g>
<!-- Node11 -->
<g id="node11" class="node"><title>Node11</title>
<g id="a_node11"><a xlink:href="namespace_omni_o_g_l.html#a8f559408c62db097a1a918d7f58f4183" target="_top" xlink:title="A &quot;clone&quot; of the well&#45;known printf() function, with the debug routed to the OutputDebugString() funct...">
<polygon fill="white" stroke="black" points="964,-368.5 964,-387.5 1054,-387.5 1054,-368.5 964,-368.5"/>
<text text-anchor="middle" x="1009" y="-375.5" font-family="Helvetica,sans-Serif" font-size="10.00">OmniOGL::dprint</text>
</a>
</g>
</g>
<!-- Node10&#45;&gt;Node11 -->
<g id="edge10" class="edge"><title>Node10&#45;&gt;Node11</title>
<path fill="none" stroke="midnightblue" d="M922.34,-378C932.749,-378 943.357,-378 953.401,-378"/>
<polygon fill="midnightblue" stroke="midnightblue" points="953.632,-381.5 963.632,-378 953.632,-374.5 953.632,-381.5"/>
</g>
<!-- Node12&#45;&gt;Node9 -->
<g id="edge12" class="edge"><title>Node12&#45;&gt;Node9</title>
<path fill="none" stroke="midnightblue" d="M561.662,-367.196C570.33,-368.076 579.148,-368.972 587.81,-369.852"/>
<polygon fill="midnightblue" stroke="midnightblue" points="587.586,-373.348 597.889,-370.876 588.294,-366.383 587.586,-373.348"/>
</g>
<!-- Node19 -->
<g id="node19" class="node"><title>Node19</title>
<g id="a_node19"><a xlink:href="class_omni_o_g_l_1_1_camera.html#a698009762978100380046bf41abd45ea" target="_top" xlink:title="This method rotates a 3D vector (represented by a three element float array) around another 3D vector...">
<polygon fill="white" stroke="black" points="419.5,-162 419.5,-192 540.5,-192 540.5,-162 419.5,-162"/>
<text text-anchor="start" x="427.5" y="-180" font-family="Helvetica,sans-Serif" font-size="10.00">OmniOGL::Camera::raw</text>
<text text-anchor="middle" x="480" y="-169" font-family="Helvetica,sans-Serif" font-size="10.00">_rotate</text>
</a>
</g>
</g>
<!-- Node18&#45;&gt;Node19 -->
<g id="edge19" class="edge"><title>Node18&#45;&gt;Node19</title>
<path fill="none" stroke="midnightblue" d="M343.596,-164.327C364.609,-166.293 387.812,-168.465 408.987,-170.447"/>
<polygon fill="midnightblue" stroke="midnightblue" points="408.917,-173.956 419.2,-171.403 409.57,-166.986 408.917,-173.956"/>
</g>
<!-- Node21 -->
<g id="node21" class="node"><title>Node21</title>
<g id="a_node21"><a xlink:href="class_omni_o_g_l_1_1_section_collection.html#a2f0e17b0f75e99116daca045854d656a" target="_top" xlink:title="OmniOGL::SectionCollection::Get">
<polygon fill="white" stroke="black" points="398,-123.5 398,-142.5 562,-142.5 562,-123.5 398,-123.5"/>
<text text-anchor="middle" x="480" y="-130.5" font-family="Helvetica,sans-Serif" font-size="10.00">OmniOGL::SectionCollection::Get</text>
</a>
</g>
</g>
<!-- Node20&#45;&gt;Node21 -->
<g id="edge21" class="edge"><title>Node20&#45;&gt;Node21</title>
<path fill="none" stroke="midnightblue" d="M346.145,-108.131C369.605,-112.522 395.543,-117.378 418.227,-121.624"/>
<polygon fill="midnightblue" stroke="midnightblue" points="417.592,-125.066 428.066,-123.466 418.88,-118.185 417.592,-125.066"/>
</g>
<!-- Node22 -->
<g id="node22" class="node"><title>Node22</title>
<g id="a_node22"><a xlink:href="namespace_omni_o_g_l.html#ade1ba238a31a1003412522a2769d5945" target="_top" xlink:title="OmniOGL::_Valid">
<polygon fill="white" stroke="black" points="622.5,-82.5 622.5,-101.5 715.5,-101.5 715.5,-82.5 622.5,-82.5"/>
<text text-anchor="middle" x="669" y="-89.5" font-family="Helvetica,sans-Serif" font-size="10.00">OmniOGL::_Valid</text>
</a>
</g>
</g>
<!-- Node20&#45;&gt;Node22 -->
<g id="edge22" class="edge"><title>Node20&#45;&gt;Node22</title>
<path fill="none" stroke="midnightblue" d="M346.082,-94.4637C422.119,-93.8817 542.001,-92.9643 612.013,-92.4285"/>
<polygon fill="midnightblue" stroke="midnightblue" points="612.416,-95.9256 622.389,-92.3491 612.362,-88.9258 612.416,-95.9256"/>
</g>
<!-- Node23 -->
<g id="node23" class="node"><title>Node23</title>
<g id="a_node23"><a xlink:href="class_omni_o_g_l_1_1_section.html#a048b806e5f535ddbf0dbca0b5111e65a" target="_top" xlink:title="A method used to either set or retrieve the unique ID/index of the Section. This method will always r...">
<polygon fill="white" stroke="black" points="599,-0.5 599,-19.5 739,-19.5 739,-0.5 599,-0.5"/>
<text text-anchor="middle" x="669" y="-7.5" font-family="Helvetica,sans-Serif" font-size="10.00">OmniOGL::Section::QueryID</text>
</a>
</g>
</g>
<!-- Node20&#45;&gt;Node23 -->
<g id="edge23" class="edge"><title>Node20&#45;&gt;Node23</title>
<path fill="none" stroke="midnightblue" d="M295.852,-79.9501C318.983,-63.3603 359.025,-37.5016 398,-26 460.196,-7.6459 533.861,-4.43797 588.521,-5.37615"/>
<polygon fill="midnightblue" stroke="midnightblue" points="588.769,-8.88245 598.844,-5.60626 588.925,-1.88419 588.769,-8.88245"/>
</g>
<!-- Node24 -->
<g id="node24" class="node"><title>Node24</title>
<g id="a_node24"><a xlink:href="class_omni_o_g_l_1_1_section_collection.html#aa4bab32a8d339d5a1e34d28b283768ff" target="_top" xlink:title="OmniOGL::SectionCollection\l::UpdateAdjacentSectionsArray">
<polygon fill="white" stroke="black" points="403.5,-36 403.5,-66 556.5,-66 556.5,-36 403.5,-36"/>
<text text-anchor="start" x="411.5" y="-54" font-family="Helvetica,sans-Serif" font-size="10.00">OmniOGL::SectionCollection</text>
<text text-anchor="middle" x="480" y="-43" font-family="Helvetica,sans-Serif" font-size="10.00">::UpdateAdjacentSectionsArray</text>
</a>
</g>
</g>
<!-- Node20&#45;&gt;Node24 -->
<g id="edge24" class="edge"><title>Node20&#45;&gt;Node24</title>
<path fill="none" stroke="midnightblue" d="M345.293,-79.9808C362.834,-76.1788 381.807,-72.0664 399.797,-68.1672"/>
<polygon fill="midnightblue" stroke="midnightblue" points="400.643,-71.5652 409.675,-66.0262 399.16,-64.724 400.643,-71.5652"/>
</g>
<!-- Node25 -->
<g id="node25" class="node"><title>Node25</title>
<g id="a_node25"><a xlink:href="namespace_omni_o_g_l.html#abe5ff24d55002e6ebffb4415d994260a" target="_top" xlink:title="Sets the pointer to the value &#45;1.">
<polygon fill="white" stroke="black" points="627,-41.5 627,-60.5 711,-60.5 711,-41.5 627,-41.5"/>
<text text-anchor="middle" x="669" y="-48.5" font-family="Helvetica,sans-Serif" font-size="10.00">OmniOGL::_Init</text>
</a>
</g>
</g>
<!-- Node24&#45;&gt;Node25 -->
<g id="edge25" class="edge"><title>Node24&#45;&gt;Node25</title>
<path fill="none" stroke="midnightblue" d="M556.521,-51C576.791,-51 598.233,-51 616.839,-51"/>
<polygon fill="midnightblue" stroke="midnightblue" points="616.858,-54.5001 626.858,-51 616.858,-47.5001 616.858,-54.5001"/>
</g>
<!-- Node24&#45;&gt;Node22 -->
<g id="edge26" class="edge"><title>Node24&#45;&gt;Node22</title>
<path fill="none" stroke="midnightblue" d="M549.57,-66.0341C570.971,-70.7263 594.253,-75.8308 614.465,-80.2623"/>
<polygon fill="midnightblue" stroke="midnightblue" points="613.905,-83.7226 624.422,-82.4455 615.404,-76.885 613.905,-83.7226"/>
</g>
<!-- Node24&#45;&gt;Node23 -->
<g id="edge27" class="edge"><title>Node24&#45;&gt;Node23</title>
<path fill="none" stroke="midnightblue" d="M549.57,-35.9659C570.971,-31.2737 594.253,-26.1692 614.465,-21.7377"/>
<polygon fill="midnightblue" stroke="midnightblue" points="615.404,-25.115 624.422,-19.5545 613.905,-18.2774 615.404,-25.115"/>
</g>
</g>
</svg>
