<?xml version="1.0" encoding="UTF-8" standalone="no"?>
<!DOCTYPE svg PUBLIC "-//W3C//DTD SVG 1.1//EN"
 "http://www.w3.org/Graphics/SVG/1.1/DTD/svg11.dtd">
<!-- Generated by graphviz version 2.30.1 (20130214.1330)
 -->
<!-- Title: OmniOGL::OGLBuffers_Data Pages: 1 -->
<svg width="181pt" height="418pt"
 viewBox="0.00 0.00 181.00 418.00" xmlns="http://www.w3.org/2000/svg" xmlns:xlink="http://www.w3.org/1999/xlink">
<g id="graph0" class="graph" transform="scale(1 1) rotate(0) translate(4 414)">
<title>OmniOGL::OGLBuffers_Data</title>
<polygon fill="white" stroke="white" points="-4,5 -4,-414 178,-414 178,5 -4,5"/>
<!-- Node1 -->
<g id="node1" class="node"><title>Node1</title>
<polygon fill="#bfbfbf" stroke="black" points="0,-0.5 0,-57.5 142,-57.5 142,-0.5 0,-0.5"/>
<text text-anchor="middle" x="71" y="-45.5" font-family="Helvetica,sans-Serif" font-size="10.00">OmniOGL::OGLBuffers_Data</text>
<polyline fill="none" stroke="black" points="0,-38.5 142,-38.5 "/>
<text text-anchor="middle" x="71" y="-26.5" font-family="Helvetica,sans-Serif" font-size="10.00"> </text>
<polyline fill="none" stroke="black" points="0,-19.5 142,-19.5 "/>
<text text-anchor="middle" x="71" y="-7.5" font-family="Helvetica,sans-Serif" font-size="10.00"> </text>
</g>
<!-- Node2 -->
<g id="node2" class="node"><title>Node2</title>
<polygon fill="white" stroke="#bfbfbf" points="23.5,-129 23.5,-197 118.5,-197 118.5,-129 23.5,-129"/>
<text text-anchor="start" x="31.5" y="-185" font-family="Helvetica,sans-Serif" font-size="10.00">std::vector&lt; const</text>
<text text-anchor="middle" x="71" y="-174" font-family="Helvetica,sans-Serif" font-size="10.00"> GLuint &gt;</text>
<polyline fill="none" stroke="#bfbfbf" points="23.5,-167 118.5,-167 "/>
<text text-anchor="middle" x="71" y="-155" font-family="Helvetica,sans-Serif" font-size="10.00"> </text>
<polyline fill="none" stroke="#bfbfbf" points="23.5,-148 118.5,-148 "/>
<text text-anchor="middle" x="71" y="-136" font-family="Helvetica,sans-Serif" font-size="10.00"> </text>
</g>
<!-- Node2&#45;&gt;Node1 -->
<g id="edge1" class="edge"><title>Node2&#45;&gt;Node1</title>
<path fill="none" stroke="#404040" d="M71,-128.691C71,-110.733 71,-88.4559 71,-69.6134"/>
<polygon fill="none" stroke="#404040" points="71.0001,-69.5108 67,-63.5109 71,-57.5108 75,-63.5108 71.0001,-69.5108"/>
<text text-anchor="middle" x="82" y="-101.5" font-family="Helvetica,sans-Serif" font-size="10.00"> &#45;ebo</text>
<text text-anchor="middle" x="82" y="-90.5" font-family="Helvetica,sans-Serif" font-size="10.00">&#45;vbo</text>
<text text-anchor="middle" x="82" y="-79.5" font-family="Helvetica,sans-Serif" font-size="10.00">&#45;vao</text>
</g>
<!-- Node3 -->
<g id="node3" class="node"><title>Node3</title>
<polygon fill="white" stroke="#bfbfbf" points="10.5,-246.5 10.5,-303.5 55.5,-303.5 55.5,-246.5 10.5,-246.5"/>
<text text-anchor="middle" x="33" y="-291.5" font-family="Helvetica,sans-Serif" font-size="10.00">GLuint</text>
<polyline fill="none" stroke="#bfbfbf" points="10.5,-284.5 55.5,-284.5 "/>
<text text-anchor="middle" x="33" y="-272.5" font-family="Helvetica,sans-Serif" font-size="10.00"> </text>
<polyline fill="none" stroke="#bfbfbf" points="10.5,-265.5 55.5,-265.5 "/>
<text text-anchor="middle" x="33" y="-253.5" font-family="Helvetica,sans-Serif" font-size="10.00"> </text>
</g>
<!-- Node3&#45;&gt;Node2 -->
<g id="edge2" class="edge"><title>Node3&#45;&gt;Node2</title>
<path fill="none" stroke="#404040" d="M33.3424,-246.315C34.1173,-236.532 35.7449,-225.586 39,-216 39.9203,-213.29 41.0024,-210.573 42.202,-207.881"/>
<polygon fill="none" stroke="#404040" points="42.2704,-207.746 41.4055,-200.587 47.6812,-197.035 48.5461,-204.194 42.2704,-207.746"/>
<text text-anchor="middle" x="63.5" y="-219.5" font-family="Helvetica,sans-Serif" font-size="10.00"> +elements</text>
</g>
<!-- Node4 -->
<g id="node4" class="node"><title>Node4</title>
<g id="a_node4"><a xlink:title="STL class.">
<polygon fill="white" stroke="#bfbfbf" points="73.5,-246.5 73.5,-303.5 158.5,-303.5 158.5,-246.5 73.5,-246.5"/>
<text text-anchor="middle" x="116" y="-291.5" font-family="Helvetica,sans-Serif" font-size="10.00">std::vector&lt; T &gt;</text>
<polyline fill="none" stroke="#bfbfbf" points="73.5,-284.5 158.5,-284.5 "/>
<text text-anchor="middle" x="116" y="-272.5" font-family="Helvetica,sans-Serif" font-size="10.00"> </text>
<polyline fill="none" stroke="#bfbfbf" points="73.5,-265.5 158.5,-265.5 "/>
<text text-anchor="middle" x="116" y="-253.5" font-family="Helvetica,sans-Serif" font-size="10.00"> </text>
</a>
</g>
</g>
<!-- Node4&#45;&gt;Node2 -->
<g id="edge3" class="edge"><title>Node4&#45;&gt;Node2</title>
<path fill="none" stroke="orange" d="M100.773,-236.779C95.5316,-223.966 89.7,-209.711 84.5969,-197.237"/>
<polygon fill="orange" stroke="orange" points="97.6188,-238.312 104.645,-246.242 104.098,-235.662 97.6188,-238.312"/>
<text text-anchor="middle" x="134.5" y="-219.5" font-family="Helvetica,sans-Serif" font-size="10.00"> &lt; const GLuint &gt;</text>
</g>
<!-- Node5 -->
<g id="node5" class="node"><title>Node5</title>
<polygon fill="white" stroke="#bfbfbf" points="101.5,-352.5 101.5,-409.5 130.5,-409.5 130.5,-352.5 101.5,-352.5"/>
<text text-anchor="middle" x="116" y="-397.5" font-family="Helvetica,sans-Serif" font-size="10.00">T</text>
<polyline fill="none" stroke="#bfbfbf" points="101.5,-390.5 130.5,-390.5 "/>
<text text-anchor="middle" x="116" y="-378.5" font-family="Helvetica,sans-Serif" font-size="10.00"> </text>
<polyline fill="none" stroke="#bfbfbf" points="101.5,-371.5 130.5,-371.5 "/>
<text text-anchor="middle" x="116" y="-359.5" font-family="Helvetica,sans-Serif" font-size="10.00"> </text>
</g>
<!-- Node5&#45;&gt;Node4 -->
<g id="edge4" class="edge"><title>Node5&#45;&gt;Node4</title>
<path fill="none" stroke="#404040" d="M116,-352.403C116,-341.237 116,-328.13 116,-315.956"/>
<polygon fill="none" stroke="#404040" points="116,-315.726 112,-309.726 116,-303.726 120,-309.726 116,-315.726"/>
<text text-anchor="middle" x="140.5" y="-325.5" font-family="Helvetica,sans-Serif" font-size="10.00"> +elements</text>
</g>
</g>
</svg>
