<?xml version="1.0" encoding="UTF-8" standalone="no"?>
<!DOCTYPE svg PUBLIC "-//W3C//DTD SVG 1.1//EN"
 "http://www.w3.org/Graphics/SVG/1.1/DTD/svg11.dtd">
<!-- Generated by graphviz version 2.30.1 (20130214.1330)
 -->
<!-- Title: OmniOGL::RenObj::Prepare Pages: 1 -->
<svg width="302pt" height="301pt"
 viewBox="0.00 0.00 302.00 301.00" xmlns="http://www.w3.org/2000/svg" xmlns:xlink="http://www.w3.org/1999/xlink">
<g id="graph0" class="graph" transform="scale(1 1) rotate(0) translate(4 297)">
<title>OmniOGL::RenObj::Prepare</title>
<polygon fill="white" stroke="white" points="-4,5 -4,-297 299,-297 299,5 -4,5"/>
<!-- Node1 -->
<g id="node1" class="node"><title>Node1</title>
<polygon fill="#bfbfbf" stroke="black" points="0,-142.5 0,-161.5 138,-161.5 138,-142.5 0,-142.5"/>
<text text-anchor="middle" x="69" y="-149.5" font-family="Helvetica,sans-Serif" font-size="10.00">OmniOGL::RenObj::Prepare</text>
</g>
<!-- Node2 -->
<g id="node2" class="node"><title>Node2</title>
<g id="a_node2"><a xlink:href="class_omni_o_g_l_1_1_blender_obj.html#a3c4dab9041ae8991266d48363dce03ff" target="_top" xlink:title="The draw method which must be implemented in order for the class to be instantiable. This method is responsible for sending the vertices, normals, etc. necessary to draw the object to the shader program, set all necessary options to their desired state, and finally invoke the desired OpenGL draw call. At the time being this method implementation is fairly rudimentary as it contains no logic to determine whether or not it needs send its data to the graphics card (it sends its data blindly).">
<polygon fill="white" stroke="black" points="177,-263 177,-293 291,-293 291,-263 177,-263"/>
<text text-anchor="start" x="185" y="-281" font-family="Helvetica,sans-Serif" font-size="10.00">OmniOGL::BlenderObj</text>
<text text-anchor="middle" x="234" y="-270" font-family="Helvetica,sans-Serif" font-size="10.00">::Draw</text>
</a>
</g>
</g>
<!-- Node1&#45;&gt;Node2 -->
<g id="edge1" class="edge"><title>Node1&#45;&gt;Node2</title>
<path fill="none" stroke="midnightblue" d="M84.2558,-169.363C102.966,-191.252 137.711,-228.923 174,-253 179.562,-256.69 185.758,-260.024 191.985,-262.965"/>
<polygon fill="midnightblue" stroke="midnightblue" points="86.8008,-166.951 77.6866,-161.549 81.4427,-171.456 86.8008,-166.951"/>
</g>
<!-- Node3 -->
<g id="node3" class="node"><title>Node3</title>
<g id="a_node3"><a xlink:href="class_omni_o_g_l_1_1_cube.html#a00747eeb6be98f4c9338ec10c2add6b8" target="_top" xlink:title="A method which is called each frame in order to render the object to the screen. This method is respo...">
<polygon fill="white" stroke="black" points="176,-224.5 176,-243.5 292,-243.5 292,-224.5 176,-224.5"/>
<text text-anchor="middle" x="234" y="-231.5" font-family="Helvetica,sans-Serif" font-size="10.00">OmniOGL::Cube::Draw</text>
</a>
</g>
</g>
<!-- Node1&#45;&gt;Node3 -->
<g id="edge2" class="edge"><title>Node1&#45;&gt;Node3</title>
<path fill="none" stroke="midnightblue" d="M91.8688,-167.323C112.363,-181.172 144.222,-201.412 174,-215 181.832,-218.574 190.531,-221.77 198.79,-224.474"/>
<polygon fill="midnightblue" stroke="midnightblue" points="93.7896,-164.397 83.5604,-161.637 89.8361,-170.173 93.7896,-164.397"/>
</g>
<!-- Node4 -->
<g id="node4" class="node"><title>Node4</title>
<g id="a_node4"><a xlink:href="class_omni_o_g_l_1_1_floor.html#ac36ccc5c2f1acb80548af20f166b1f77" target="_top" xlink:title="A method which will be called each frame for each Floor object and is responsible for binding relevan...">
<polygon fill="white" stroke="black" points="176,-186.5 176,-205.5 292,-205.5 292,-186.5 176,-186.5"/>
<text text-anchor="middle" x="234" y="-193.5" font-family="Helvetica,sans-Serif" font-size="10.00">OmniOGL::Floor::Draw</text>
</a>
</g>
</g>
<!-- Node1&#45;&gt;Node4 -->
<g id="edge3" class="edge"><title>Node1&#45;&gt;Node4</title>
<path fill="none" stroke="midnightblue" d="M115.028,-164.155C141.111,-171.195 173.472,-179.931 197.7,-186.471"/>
<polygon fill="midnightblue" stroke="midnightblue" points="115.935,-160.774 105.369,-161.547 114.111,-167.533 115.935,-160.774"/>
</g>
<!-- Node5 -->
<g id="node5" class="node"><title>Node5</title>
<g id="a_node5"><a xlink:href="class_omni_o_g_l_1_1_text_overlay.html#aa30ee3a394108270a31eed426e19a4ca" target="_top" xlink:title="A method which will be called each frame for each TextOverlay object and is responsible for binding r...">
<polygon fill="white" stroke="black" points="175.5,-137 175.5,-167 292.5,-167 292.5,-137 175.5,-137"/>
<text text-anchor="start" x="183.5" y="-155" font-family="Helvetica,sans-Serif" font-size="10.00">OmniOGL::TextOverlay</text>
<text text-anchor="middle" x="234" y="-144" font-family="Helvetica,sans-Serif" font-size="10.00">::Draw</text>
</a>
</g>
</g>
<!-- Node1&#45;&gt;Node5 -->
<g id="edge4" class="edge"><title>Node1&#45;&gt;Node5</title>
<path fill="none" stroke="midnightblue" d="M148.415,-152C157.518,-152 166.673,-152 175.425,-152"/>
<polygon fill="midnightblue" stroke="midnightblue" points="148.182,-148.5 138.182,-152 148.182,-155.5 148.182,-148.5"/>
</g>
<!-- Node6 -->
<g id="node6" class="node"><title>Node6</title>
<g id="a_node6"><a xlink:href="class_omni_o_g_l_1_1_line_strip.html#a3ecdafa271dd370a5073a0d6dd2e5bf9" target="_top" xlink:title="when commenting, note that we translate to 0,0,0 instead of the object&#39;s origin">
<polygon fill="white" stroke="black" points="182,-88 182,-118 286,-118 286,-88 182,-88"/>
<text text-anchor="start" x="190" y="-106" font-family="Helvetica,sans-Serif" font-size="10.00">OmniOGL::LineStrip</text>
<text text-anchor="middle" x="234" y="-95" font-family="Helvetica,sans-Serif" font-size="10.00">::Draw</text>
</a>
</g>
</g>
<!-- Node1&#45;&gt;Node6 -->
<g id="edge5" class="edge"><title>Node1&#45;&gt;Node6</title>
<path fill="none" stroke="midnightblue" d="M111.429,-139.546C133.202,-133.001 160.054,-124.929 182.979,-118.037"/>
<polygon fill="midnightblue" stroke="midnightblue" points="110.384,-136.205 101.815,-142.436 112.399,-142.909 110.384,-136.205"/>
</g>
<!-- Node7 -->
<g id="node7" class="node"><title>Node7</title>
<g id="a_node7"><a xlink:href="class_omni_o_g_l_1_1_block_array.html#a2ffeafa923f1f49001d771ce7e670521" target="_top" xlink:title="OmniOGL::BlockArray\l::Draw">
<polygon fill="white" stroke="black" points="177,-39 177,-69 291,-69 291,-39 177,-39"/>
<text text-anchor="start" x="185" y="-57" font-family="Helvetica,sans-Serif" font-size="10.00">OmniOGL::BlockArray</text>
<text text-anchor="middle" x="234" y="-46" font-family="Helvetica,sans-Serif" font-size="10.00">::Draw</text>
</a>
</g>
</g>
<!-- Node1&#45;&gt;Node7 -->
<g id="edge6" class="edge"><title>Node1&#45;&gt;Node7</title>
<path fill="none" stroke="midnightblue" d="M89.8372,-136.162C110.174,-120.393 143.11,-96.1329 174,-79 180.323,-75.4927 187.239,-72.1547 194.039,-69.1262"/>
<polygon fill="midnightblue" stroke="midnightblue" points="87.6474,-133.431 81.9353,-142.354 91.9652,-138.941 87.6474,-133.431"/>
</g>
<!-- Node8 -->
<g id="node8" class="node"><title>Node8</title>
<g id="a_node8"><a xlink:href="class_omni_o_g_l_1_1_group.html#a16851672d0c006abd0f9aafd267713f2" target="_top" xlink:title="A method which will be called each frame for each LineStrip object and is responsible for binding rel...">
<polygon fill="white" stroke="black" points="174,-0.5 174,-19.5 294,-19.5 294,-0.5 174,-0.5"/>
<text text-anchor="middle" x="234" y="-7.5" font-family="Helvetica,sans-Serif" font-size="10.00">OmniOGL::Group::Draw</text>
</a>
</g>
</g>
<!-- Node1&#45;&gt;Node8 -->
<g id="edge7" class="edge"><title>Node1&#45;&gt;Node8</title>
<path fill="none" stroke="midnightblue" d="M81.1188,-133.519C98.0006,-106.958 132.557,-58.1008 174,-30 180.266,-25.7511 187.517,-22.3305 194.745,-19.6028"/>
<polygon fill="midnightblue" stroke="midnightblue" points="78.0201,-131.875 75.7188,-142.217 83.9671,-135.567 78.0201,-131.875"/>
</g>
</g>
</svg>
