<?xml version="1.0" encoding="UTF-8" standalone="no"?>
<!DOCTYPE svg PUBLIC "-//W3C//DTD SVG 1.1//EN"
 "http://www.w3.org/Graphics/SVG/1.1/DTD/svg11.dtd">
<!-- Generated by graphviz version 2.30.1 (20130214.1330)
 -->
<!-- Title: OmniOGL::OGLUniforms Pages: 1 -->
<svg width="173pt" height="348pt"
 viewBox="0.00 0.00 173.00 348.00" xmlns="http://www.w3.org/2000/svg" xmlns:xlink="http://www.w3.org/1999/xlink">
<g id="graph0" class="graph" transform="scale(1 1) rotate(0) translate(4 344)">
<title>OmniOGL::OGLUniforms</title>
<polygon fill="white" stroke="white" points="-4,5 -4,-344 170,-344 170,5 -4,5"/>
<!-- Node1 -->
<g id="node1" class="node"><title>Node1</title>
<polygon fill="#bfbfbf" stroke="black" points="-0.5,-0.5 -0.5,-123.5 124.5,-123.5 124.5,-0.5 -0.5,-0.5"/>
<text text-anchor="middle" x="62" y="-111.5" font-family="Helvetica,sans-Serif" font-size="10.00">OmniOGL::OGLUniforms</text>
<polyline fill="none" stroke="black" points="-0.5,-104.5 124.5,-104.5 "/>
<text text-anchor="start" x="7.5" y="-92.5" font-family="Helvetica,sans-Serif" font-size="10.00">&#45; light_position</text>
<text text-anchor="start" x="7.5" y="-81.5" font-family="Helvetica,sans-Serif" font-size="10.00">&#45; lighting_enabled</text>
<text text-anchor="start" x="7.5" y="-70.5" font-family="Helvetica,sans-Serif" font-size="10.00">&#45; projection_view_matrix</text>
<text text-anchor="start" x="7.5" y="-59.5" font-family="Helvetica,sans-Serif" font-size="10.00">&#45; shine</text>
<text text-anchor="start" x="7.5" y="-48.5" font-family="Helvetica,sans-Serif" font-size="10.00">&#45; specular_color</text>
<text text-anchor="start" x="7.5" y="-37.5" font-family="Helvetica,sans-Serif" font-size="10.00">&#45; specular_enabled</text>
<text text-anchor="start" x="7.5" y="-26.5" font-family="Helvetica,sans-Serif" font-size="10.00">&#45; textures_enabled</text>
<polyline fill="none" stroke="black" points="-0.5,-19.5 124.5,-19.5 "/>
<text text-anchor="start" x="7.5" y="-7.5" font-family="Helvetica,sans-Serif" font-size="10.00">&#45; OGLUniforms()</text>
</g>
<!-- Node2 -->
<g id="node2" class="node"><title>Node2</title>
<polygon fill="white" stroke="#bfbfbf" points="42,-282.5 42,-339.5 82,-339.5 82,-282.5 42,-282.5"/>
<text text-anchor="middle" x="62" y="-327.5" font-family="Helvetica,sans-Serif" font-size="10.00">GLint</text>
<polyline fill="none" stroke="#bfbfbf" points="42,-320.5 82,-320.5 "/>
<text text-anchor="middle" x="62" y="-308.5" font-family="Helvetica,sans-Serif" font-size="10.00"> </text>
<polyline fill="none" stroke="#bfbfbf" points="42,-301.5 82,-301.5 "/>
<text text-anchor="middle" x="62" y="-289.5" font-family="Helvetica,sans-Serif" font-size="10.00"> </text>
</g>
<!-- Node2&#45;&gt;Node1 -->
<g id="edge1" class="edge"><title>Node2&#45;&gt;Node1</title>
<path fill="none" stroke="#404040" d="M62,-282.146C62,-246.904 62,-184.89 62,-135.804"/>
<polygon fill="none" stroke="#404040" points="62.0001,-135.627 58,-129.627 62,-123.627 66,-129.627 62.0001,-135.627"/>
<text text-anchor="middle" x="113.5" y="-255.5" font-family="Helvetica,sans-Serif" font-size="10.00"> &#45;eye_position</text>
<text text-anchor="middle" x="113.5" y="-244.5" font-family="Helvetica,sans-Serif" font-size="10.00">&#45;bumpmap</text>
<text text-anchor="middle" x="113.5" y="-233.5" font-family="Helvetica,sans-Serif" font-size="10.00">&#45;ambient_color</text>
<text text-anchor="middle" x="113.5" y="-222.5" font-family="Helvetica,sans-Serif" font-size="10.00">&#45;cast_all_black</text>
<text text-anchor="middle" x="113.5" y="-211.5" font-family="Helvetica,sans-Serif" font-size="10.00">&#45;light_color</text>
<text text-anchor="middle" x="113.5" y="-200.5" font-family="Helvetica,sans-Serif" font-size="10.00">&#45;bumpmapping_enabled</text>
<text text-anchor="middle" x="113.5" y="-189.5" font-family="Helvetica,sans-Serif" font-size="10.00">&#45;diffuse_color</text>
<text text-anchor="middle" x="113.5" y="-178.5" font-family="Helvetica,sans-Serif" font-size="10.00">&#45;diffuse_enabled</text>
<text text-anchor="middle" x="113.5" y="-167.5" font-family="Helvetica,sans-Serif" font-size="10.00">&#45;texture</text>
<text text-anchor="middle" x="113.5" y="-156.5" font-family="Helvetica,sans-Serif" font-size="10.00">&#45;is_a_voxel</text>
<text text-anchor="middle" x="113.5" y="-145.5" font-family="Helvetica,sans-Serif" font-size="10.00">...</text>
</g>
</g>
</svg>
