<?xml version="1.0" encoding="UTF-8" standalone="no"?>
<!DOCTYPE svg PUBLIC "-//W3C//DTD SVG 1.1//EN"
 "http://www.w3.org/Graphics/SVG/1.1/DTD/svg11.dtd">
<!-- Generated by graphviz version 2.30.1 (20130214.1330)
 -->
<!-- Title: OmniOGL::OGLBuffers Pages: 1 -->
<svg width="181pt" height="590pt"
 viewBox="0.00 0.00 181.00 590.00" xmlns="http://www.w3.org/2000/svg" xmlns:xlink="http://www.w3.org/1999/xlink">
<g id="graph0" class="graph" transform="scale(1 1) rotate(0) translate(4 586)">
<title>OmniOGL::OGLBuffers</title>
<polygon fill="white" stroke="white" points="-4,5 -4,-586 178,-586 178,5 -4,5"/>
<!-- Node1 -->
<g id="node1" class="node"><title>Node1</title>
<polygon fill="#bfbfbf" stroke="black" points="13,-0.5 13,-123.5 129,-123.5 129,-0.5 13,-0.5"/>
<text text-anchor="middle" x="71" y="-111.5" font-family="Helvetica,sans-Serif" font-size="10.00">OmniOGL::OGLBuffers</text>
<polyline fill="none" stroke="black" points="13,-104.5 129,-104.5 "/>
<text text-anchor="middle" x="71" y="-92.5" font-family="Helvetica,sans-Serif" font-size="10.00"> </text>
<polyline fill="none" stroke="black" points="13,-85.5 129,-85.5 "/>
<text text-anchor="start" x="21" y="-73.5" font-family="Helvetica,sans-Serif" font-size="10.00"># Cleanup()</text>
<text text-anchor="start" x="21" y="-62.5" font-family="Helvetica,sans-Serif" font-size="10.00"># CreateEBO()</text>
<text text-anchor="start" x="21" y="-51.5" font-family="Helvetica,sans-Serif" font-size="10.00"># CreateVAO()</text>
<text text-anchor="start" x="21" y="-40.5" font-family="Helvetica,sans-Serif" font-size="10.00"># CreateVBO()</text>
<text text-anchor="start" x="21" y="-29.5" font-family="Helvetica,sans-Serif" font-size="10.00"># ebo()</text>
<text text-anchor="start" x="21" y="-18.5" font-family="Helvetica,sans-Serif" font-size="10.00"># vao()</text>
<text text-anchor="start" x="21" y="-7.5" font-family="Helvetica,sans-Serif" font-size="10.00"># vbo()</text>
</g>
<!-- Node2 -->
<g id="node2" class="node"><title>Node2</title>
<g id="a_node2"><a xlink:href="class_omni_o_g_l_1_1_o_g_l_buffers___data.html" target="_top" xlink:title="{OmniOGL::OGLBuffers_Data\n||}">
<polygon fill="white" stroke="black" points="0,-172.5 0,-229.5 142,-229.5 142,-172.5 0,-172.5"/>
<text text-anchor="middle" x="71" y="-217.5" font-family="Helvetica,sans-Serif" font-size="10.00">OmniOGL::OGLBuffers_Data</text>
<polyline fill="none" stroke="black" points="0,-210.5 142,-210.5 "/>
<text text-anchor="middle" x="71" y="-198.5" font-family="Helvetica,sans-Serif" font-size="10.00"> </text>
<polyline fill="none" stroke="black" points="0,-191.5 142,-191.5 "/>
<text text-anchor="middle" x="71" y="-179.5" font-family="Helvetica,sans-Serif" font-size="10.00"> </text>
</a>
</g>
</g>
<!-- Node2&#45;&gt;Node1 -->
<g id="edge1" class="edge"><title>Node2&#45;&gt;Node1</title>
<path fill="none" stroke="#404040" d="M71,-172.276C71,-161.501 71,-148.609 71,-135.521"/>
<polygon fill="none" stroke="#404040" points="71.0001,-135.501 67,-129.501 71,-123.501 75,-129.501 71.0001,-135.501"/>
<text text-anchor="middle" x="83.5" y="-145.5" font-family="Helvetica,sans-Serif" font-size="10.00"> &#45;data</text>
</g>
<!-- Node3 -->
<g id="node3" class="node"><title>Node3</title>
<polygon fill="white" stroke="#bfbfbf" points="23.5,-301 23.5,-369 118.5,-369 118.5,-301 23.5,-301"/>
<text text-anchor="start" x="31.5" y="-357" font-family="Helvetica,sans-Serif" font-size="10.00">std::vector&lt; const</text>
<text text-anchor="middle" x="71" y="-346" font-family="Helvetica,sans-Serif" font-size="10.00"> GLuint &gt;</text>
<polyline fill="none" stroke="#bfbfbf" points="23.5,-339 118.5,-339 "/>
<text text-anchor="middle" x="71" y="-327" font-family="Helvetica,sans-Serif" font-size="10.00"> </text>
<polyline fill="none" stroke="#bfbfbf" points="23.5,-320 118.5,-320 "/>
<text text-anchor="middle" x="71" y="-308" font-family="Helvetica,sans-Serif" font-size="10.00"> </text>
</g>
<!-- Node3&#45;&gt;Node2 -->
<g id="edge2" class="edge"><title>Node3&#45;&gt;Node2</title>
<path fill="none" stroke="#404040" d="M71,-300.691C71,-282.733 71,-260.456 71,-241.613"/>
<polygon fill="none" stroke="#404040" points="71.0001,-241.511 67,-235.511 71,-229.511 75,-235.511 71.0001,-241.511"/>
<text text-anchor="middle" x="82" y="-273.5" font-family="Helvetica,sans-Serif" font-size="10.00"> &#45;ebo</text>
<text text-anchor="middle" x="82" y="-262.5" font-family="Helvetica,sans-Serif" font-size="10.00">&#45;vbo</text>
<text text-anchor="middle" x="82" y="-251.5" font-family="Helvetica,sans-Serif" font-size="10.00">&#45;vao</text>
</g>
<!-- Node4 -->
<g id="node4" class="node"><title>Node4</title>
<polygon fill="white" stroke="#bfbfbf" points="10.5,-418.5 10.5,-475.5 55.5,-475.5 55.5,-418.5 10.5,-418.5"/>
<text text-anchor="middle" x="33" y="-463.5" font-family="Helvetica,sans-Serif" font-size="10.00">GLuint</text>
<polyline fill="none" stroke="#bfbfbf" points="10.5,-456.5 55.5,-456.5 "/>
<text text-anchor="middle" x="33" y="-444.5" font-family="Helvetica,sans-Serif" font-size="10.00"> </text>
<polyline fill="none" stroke="#bfbfbf" points="10.5,-437.5 55.5,-437.5 "/>
<text text-anchor="middle" x="33" y="-425.5" font-family="Helvetica,sans-Serif" font-size="10.00"> </text>
</g>
<!-- Node4&#45;&gt;Node3 -->
<g id="edge3" class="edge"><title>Node4&#45;&gt;Node3</title>
<path fill="none" stroke="#404040" d="M33.3424,-418.315C34.1173,-408.532 35.7449,-397.586 39,-388 39.9203,-385.29 41.0024,-382.573 42.202,-379.881"/>
<polygon fill="none" stroke="#404040" points="42.2704,-379.746 41.4055,-372.587 47.6812,-369.035 48.5461,-376.194 42.2704,-379.746"/>
<text text-anchor="middle" x="63.5" y="-391.5" font-family="Helvetica,sans-Serif" font-size="10.00"> +elements</text>
</g>
<!-- Node5 -->
<g id="node5" class="node"><title>Node5</title>
<g id="a_node5"><a xlink:title="STL class.">
<polygon fill="white" stroke="#bfbfbf" points="73.5,-418.5 73.5,-475.5 158.5,-475.5 158.5,-418.5 73.5,-418.5"/>
<text text-anchor="middle" x="116" y="-463.5" font-family="Helvetica,sans-Serif" font-size="10.00">std::vector&lt; T &gt;</text>
<polyline fill="none" stroke="#bfbfbf" points="73.5,-456.5 158.5,-456.5 "/>
<text text-anchor="middle" x="116" y="-444.5" font-family="Helvetica,sans-Serif" font-size="10.00"> </text>
<polyline fill="none" stroke="#bfbfbf" points="73.5,-437.5 158.5,-437.5 "/>
<text text-anchor="middle" x="116" y="-425.5" font-family="Helvetica,sans-Serif" font-size="10.00"> </text>
</a>
</g>
</g>
<!-- Node5&#45;&gt;Node3 -->
<g id="edge4" class="edge"><title>Node5&#45;&gt;Node3</title>
<path fill="none" stroke="orange" d="M100.773,-408.779C95.5316,-395.966 89.7,-381.711 84.5969,-369.237"/>
<polygon fill="orange" stroke="orange" points="97.6188,-410.312 104.645,-418.242 104.098,-407.662 97.6188,-410.312"/>
<text text-anchor="middle" x="134.5" y="-391.5" font-family="Helvetica,sans-Serif" font-size="10.00"> &lt; const GLuint &gt;</text>
</g>
<!-- Node6 -->
<g id="node6" class="node"><title>Node6</title>
<polygon fill="white" stroke="#bfbfbf" points="101.5,-524.5 101.5,-581.5 130.5,-581.5 130.5,-524.5 101.5,-524.5"/>
<text text-anchor="middle" x="116" y="-569.5" font-family="Helvetica,sans-Serif" font-size="10.00">T</text>
<polyline fill="none" stroke="#bfbfbf" points="101.5,-562.5 130.5,-562.5 "/>
<text text-anchor="middle" x="116" y="-550.5" font-family="Helvetica,sans-Serif" font-size="10.00"> </text>
<polyline fill="none" stroke="#bfbfbf" points="101.5,-543.5 130.5,-543.5 "/>
<text text-anchor="middle" x="116" y="-531.5" font-family="Helvetica,sans-Serif" font-size="10.00"> </text>
</g>
<!-- Node6&#45;&gt;Node5 -->
<g id="edge5" class="edge"><title>Node6&#45;&gt;Node5</title>
<path fill="none" stroke="#404040" d="M116,-524.403C116,-513.237 116,-500.13 116,-487.956"/>
<polygon fill="none" stroke="#404040" points="116,-487.726 112,-481.726 116,-475.726 120,-481.726 116,-487.726"/>
<text text-anchor="middle" x="140.5" y="-497.5" font-family="Helvetica,sans-Serif" font-size="10.00"> +elements</text>
</g>
</g>
</svg>
