<?xml version="1.0" encoding="UTF-8" standalone="no"?>
<!DOCTYPE svg PUBLIC "-//W3C//DTD SVG 1.1//EN"
 "http://www.w3.org/Graphics/SVG/1.1/DTD/svg11.dtd">
<!-- Generated by graphviz version 2.30.1 (20130214.1330)
 -->
<!-- Title: OmniOGL::OGLMatrices Pages: 1 -->
<svg width="161pt" height="282pt"
 viewBox="0.00 0.00 161.00 282.00" xmlns="http://www.w3.org/2000/svg" xmlns:xlink="http://www.w3.org/1999/xlink">
<g id="graph0" class="graph" transform="scale(1 1) rotate(0) translate(4 278)">
<title>OmniOGL::OGLMatrices</title>
<polygon fill="white" stroke="white" points="-4,5 -4,-278 158,-278 158,5 -4,5"/>
<!-- Node1 -->
<g id="node1" class="node"><title>Node1</title>
<polygon fill="#bfbfbf" stroke="black" points="13,-1 13,-91 137,-91 137,-1 13,-1"/>
<text text-anchor="middle" x="75" y="-79" font-family="Helvetica,sans-Serif" font-size="10.00">OmniOGL::OGLMatrices</text>
<polyline fill="none" stroke="black" points="13,-72 137,-72 "/>
<text text-anchor="middle" x="75" y="-60" font-family="Helvetica,sans-Serif" font-size="10.00"> </text>
<polyline fill="none" stroke="black" points="13,-53 137,-53 "/>
<text text-anchor="start" x="21" y="-41" font-family="Helvetica,sans-Serif" font-size="10.00">+ OGLMatrices()</text>
<text text-anchor="start" x="21" y="-30" font-family="Helvetica,sans-Serif" font-size="10.00">+ SetSRTVbo()</text>
<text text-anchor="start" x="21" y="-19" font-family="Helvetica,sans-Serif" font-size="10.00">+ sTranslate()</text>
<text text-anchor="start" x="21" y="-8" font-family="Helvetica,sans-Serif" font-size="10.00">+ UpdateSRT()</text>
</g>
<!-- Node2 -->
<g id="node2" class="node"><title>Node2</title>
<polygon fill="white" stroke="#bfbfbf" points="0,-216.5 0,-273.5 38,-273.5 38,-216.5 0,-216.5"/>
<text text-anchor="middle" x="19" y="-261.5" font-family="Helvetica,sans-Serif" font-size="10.00">mat4</text>
<polyline fill="none" stroke="#bfbfbf" points="0,-254.5 38,-254.5 "/>
<text text-anchor="middle" x="19" y="-242.5" font-family="Helvetica,sans-Serif" font-size="10.00"> </text>
<polyline fill="none" stroke="#bfbfbf" points="0,-235.5 38,-235.5 "/>
<text text-anchor="middle" x="19" y="-223.5" font-family="Helvetica,sans-Serif" font-size="10.00"> </text>
</g>
<!-- Node2&#45;&gt;Node1 -->
<g id="edge1" class="edge"><title>Node2&#45;&gt;Node1</title>
<path fill="none" stroke="#404040" d="M13.7465,-216.284C9.7073,-188.446 6.79724,-144.803 20,-110 21.0815,-107.149 22.3556,-104.342 23.7835,-101.591"/>
<polygon fill="none" stroke="#404040" points="23.7959,-101.57 23.4538,-94.3673 29.9712,-91.2812 30.3133,-98.4842 23.7959,-101.57"/>
<text text-anchor="middle" x="64.5" y="-190" font-family="Helvetica,sans-Serif" font-size="10.00"> +translation</text>
<text text-anchor="middle" x="64.5" y="-179" font-family="Helvetica,sans-Serif" font-size="10.00">+projection</text>
<text text-anchor="start" x="20" y="-168" font-family="Helvetica,sans-Serif" font-size="10.00">+translation_rotation</text>
<text text-anchor="middle" x="64.5" y="-157" font-family="Helvetica,sans-Serif" font-size="10.00">_scale</text>
<text text-anchor="middle" x="64.5" y="-146" font-family="Helvetica,sans-Serif" font-size="10.00">+projection_view</text>
<text text-anchor="middle" x="64.5" y="-135" font-family="Helvetica,sans-Serif" font-size="10.00">+rotation</text>
<text text-anchor="middle" x="64.5" y="-124" font-family="Helvetica,sans-Serif" font-size="10.00">+scale</text>
<text text-anchor="middle" x="64.5" y="-113" font-family="Helvetica,sans-Serif" font-size="10.00">+view</text>
</g>
<!-- Node3 -->
<g id="node3" class="node"><title>Node3</title>
<polygon fill="white" stroke="#bfbfbf" points="108.5,-216.5 108.5,-273.5 153.5,-273.5 153.5,-216.5 108.5,-216.5"/>
<text text-anchor="middle" x="131" y="-261.5" font-family="Helvetica,sans-Serif" font-size="10.00">GLuint</text>
<polyline fill="none" stroke="#bfbfbf" points="108.5,-254.5 153.5,-254.5 "/>
<text text-anchor="middle" x="131" y="-242.5" font-family="Helvetica,sans-Serif" font-size="10.00"> </text>
<polyline fill="none" stroke="#bfbfbf" points="108.5,-235.5 153.5,-235.5 "/>
<text text-anchor="middle" x="131" y="-223.5" font-family="Helvetica,sans-Serif" font-size="10.00"> </text>
</g>
<!-- Node3&#45;&gt;Node1 -->
<g id="edge2" class="edge"><title>Node3&#45;&gt;Node1</title>
<path fill="none" stroke="#404040" d="M129.155,-216.404C126.694,-188.847 121.142,-145.588 109,-110 108.136,-107.467 107.177,-104.915 106.144,-102.364"/>
<polygon fill="none" stroke="#404040" points="106.083,-102.227 99.9945,-98.3632 101.219,-91.2568 107.308,-95.1203 106.083,-102.227"/>
<text text-anchor="middle" x="137.5" y="-151.5" font-family="Helvetica,sans-Serif" font-size="10.00"> &#45;vbo</text>
</g>
</g>
</svg>
