<?xml version="1.0" encoding="UTF-8" standalone="no"?>
<!DOCTYPE svg PUBLIC "-//W3C//DTD SVG 1.1//EN"
 "http://www.w3.org/Graphics/SVG/1.1/DTD/svg11.dtd">
<!-- Generated by graphviz version 2.30.1 (20130214.1330)
 -->
<!-- Title: OmniOGL::Voxel Pages: 1 -->
<!--zoomable 238 -->
<svg id="main" version="1.1" xmlns="http://www.w3.org/2000/svg" xmlns:xlink="http://www.w3.org/1999/xlink" xml:space="preserve" onload="init(evt)">
        <defs>
                <circle id="rim" cx="0" cy="0" r="7"/>
                <circle id="rim2" cx="0" cy="0" r="3.5"/>
                <g id="zoomPlus">
                        <use xlink:href="#rim" fill="#404040">
                                <set attributeName="fill" to="#808080" begin="zoomplus.mouseover" end="zoomplus.mouseout"/>
                        </use>
                        <path d="M-4,0h8M0,-4v8" fill="none" stroke="white" stroke-width="1.5" pointer-events="none"/>
                </g>
                <g id="zoomMin">
                        <use xlink:href="#rim" fill="#404040">
                                <set attributeName="fill" to="#808080" begin="zoomminus.mouseover" end="zoomminus.mouseout"/>
                        </use>
                        <path d="M-4,0h8" fill="none" stroke="white" stroke-width="1.5" pointer-events="none"/>
                </g>
                <g id="dirArrow">
                        <path fill="none" stroke="white" stroke-width="1.5" d="M0,-3.0v7 M-2.5,-0.5L0,-3.0L2.5,-0.5"/>
                </g>
               <g id="resetDef">
                       <use xlink:href="#rim2" fill="#404040">
                               <set attributeName="fill" to="#808080" begin="reset.mouseover" end="reset.mouseout"/>
                       </use>
               </g>
        </defs>

<script type="text/javascript">
var viewWidth = 513;
var viewHeight = 238;
var sectionId = 'dynsection-0';
</script>
<script xlink:href="svgpan.js"/>
<svg id="graph" class="graph">
<g id="viewport">
<title>OmniOGL::Voxel</title>
<polygon fill="white" stroke="white" points="-4,5 -4,-234 510,-234 510,5 -4,5"/>
<!-- Node1 -->
<g id="node1" class="node"><title>Node1</title>
<polygon fill="#bfbfbf" stroke="black" points="129,-0.5 129,-101.5 293,-101.5 293,-0.5 129,-0.5"/>
<text text-anchor="middle" x="211" y="-89.5" font-family="Helvetica,sans-Serif" font-size="10.00">OmniOGL::Voxel</text>
<polyline fill="none" stroke="black" points="129,-82.5 293,-82.5 "/>
<text text-anchor="middle" x="211" y="-70.5" font-family="Helvetica,sans-Serif" font-size="10.00"> </text>
<polyline fill="none" stroke="black" points="129,-63.5 293,-63.5 "/>
<text text-anchor="start" x="137" y="-51.5" font-family="Helvetica,sans-Serif" font-size="10.00">+ Voxel()</text>
<text text-anchor="start" x="137" y="-40.5" font-family="Helvetica,sans-Serif" font-size="10.00">+ ~Voxel()</text>
<text text-anchor="start" x="137" y="-29.5" font-family="Helvetica,sans-Serif" font-size="10.00">+ AddCubeMesh()</text>
<text text-anchor="start" x="137" y="-18.5" font-family="Helvetica,sans-Serif" font-size="10.00">+ operator=()</text>
<text text-anchor="start" x="137" y="-7.5" font-family="Helvetica,sans-Serif" font-size="10.00">+ SetMarchingCubesParameters()</text>
</g>
<!-- Node2 -->
<g id="node2" class="node"><title>Node2</title>
<polygon fill="white" stroke="#bfbfbf" points="-0.5,-172.5 -0.5,-229.5 50.5,-229.5 50.5,-172.5 -0.5,-172.5"/>
<text text-anchor="middle" x="25" y="-217.5" font-family="Helvetica,sans-Serif" font-size="10.00">GLshort</text>
<polyline fill="none" stroke="#bfbfbf" points="-0.5,-210.5 50.5,-210.5 "/>
<text text-anchor="middle" x="25" y="-198.5" font-family="Helvetica,sans-Serif" font-size="10.00"> </text>
<polyline fill="none" stroke="#bfbfbf" points="-0.5,-191.5 50.5,-191.5 "/>
<text text-anchor="middle" x="25" y="-179.5" font-family="Helvetica,sans-Serif" font-size="10.00"> </text>
</g>
<!-- Node2&#45;&gt;Node1 -->
<g id="edge1" class="edge"><title>Node2&#45;&gt;Node1</title>
<path fill="none" stroke="#404040" d="M26.9719,-172.282C29.506,-155.384 35.2146,-134.351 48,-120 66.3892,-99.3587 92.0428,-84.8222 117.563,-74.6507"/>
<polygon fill="none" stroke="#404040" points="117.624,-74.6281 121.838,-68.7766 128.86,-70.4162 124.646,-76.2676 117.624,-74.6281"/>
<text text-anchor="middle" x="73.5" y="-134.5" font-family="Helvetica,sans-Serif" font-size="10.00"> #mc_index</text>
</g>
<!-- Node3 -->
<g id="node3" class="node"><title>Node3</title>
<polygon fill="white" stroke="#bfbfbf" points="71.5,-172.5 71.5,-229.5 118.5,-229.5 118.5,-172.5 71.5,-172.5"/>
<text text-anchor="middle" x="95" y="-217.5" font-family="Helvetica,sans-Serif" font-size="10.00">GLfloat</text>
<polyline fill="none" stroke="#bfbfbf" points="71.5,-210.5 118.5,-210.5 "/>
<text text-anchor="middle" x="95" y="-198.5" font-family="Helvetica,sans-Serif" font-size="10.00"> </text>
<polyline fill="none" stroke="#bfbfbf" points="71.5,-191.5 118.5,-191.5 "/>
<text text-anchor="middle" x="95" y="-179.5" font-family="Helvetica,sans-Serif" font-size="10.00"> </text>
</g>
<!-- Node3&#45;&gt;Node1 -->
<g id="edge2" class="edge"><title>Node3&#45;&gt;Node1</title>
<path fill="none" stroke="#404040" d="M97.9208,-172.496C100.736,-156.09 106.245,-135.505 117,-120 119.239,-116.773 121.682,-113.643 124.285,-110.613"/>
<polygon fill="none" stroke="#404040" points="124.316,-110.58 125.508,-103.468 132.531,-101.833 131.339,-108.945 124.316,-110.58"/>
<text text-anchor="middle" x="136" y="-145.5" font-family="Helvetica,sans-Serif" font-size="10.00"> #radius</text>
<text text-anchor="middle" x="136" y="-134.5" font-family="Helvetica,sans-Serif" font-size="10.00">#corners</text>
<text text-anchor="middle" x="136" y="-123.5" font-family="Helvetica,sans-Serif" font-size="10.00">#origin</text>
</g>
<!-- Node4 -->
<g id="node4" class="node"><title>Node4</title>
<polygon fill="white" stroke="#bfbfbf" points="137,-172.5 137,-229.5 193,-229.5 193,-172.5 137,-172.5"/>
<text text-anchor="middle" x="165" y="-217.5" font-family="Helvetica,sans-Serif" font-size="10.00">GLushort</text>
<polyline fill="none" stroke="#bfbfbf" points="137,-210.5 193,-210.5 "/>
<text text-anchor="middle" x="165" y="-198.5" font-family="Helvetica,sans-Serif" font-size="10.00"> </text>
<polyline fill="none" stroke="#bfbfbf" points="137,-191.5 193,-191.5 "/>
<text text-anchor="middle" x="165" y="-179.5" font-family="Helvetica,sans-Serif" font-size="10.00"> </text>
</g>
<!-- Node4&#45;&gt;Node1 -->
<g id="edge3" class="edge"><title>Node4&#45;&gt;Node1</title>
<path fill="none" stroke="#404040" d="M159.922,-172.342C158.113,-156.638 157.662,-136.818 163,-120 163.768,-117.579 164.658,-115.17 165.647,-112.782"/>
<polygon fill="none" stroke="#404040" points="165.728,-112.614 164.729,-105.473 170.937,-101.804 171.936,-108.945 165.728,-112.614"/>
<text text-anchor="middle" x="200.5" y="-140" font-family="Helvetica,sans-Serif" font-size="10.00"> #CornersOfEdge</text>
<text text-anchor="middle" x="200.5" y="-129" font-family="Helvetica,sans-Serif" font-size="10.00">#EdgesByAxis</text>
</g>
<!-- Node5 -->
<g id="node5" class="node"><title>Node5</title>
<polygon fill="white" stroke="#bfbfbf" points="236,-172.5 236,-229.5 284,-229.5 284,-172.5 236,-172.5"/>
<text text-anchor="middle" x="260" y="-217.5" font-family="Helvetica,sans-Serif" font-size="10.00">GLchar</text>
<polyline fill="none" stroke="#bfbfbf" points="236,-210.5 284,-210.5 "/>
<text text-anchor="middle" x="260" y="-198.5" font-family="Helvetica,sans-Serif" font-size="10.00"> </text>
<polyline fill="none" stroke="#bfbfbf" points="236,-191.5 284,-191.5 "/>
<text text-anchor="middle" x="260" y="-179.5" font-family="Helvetica,sans-Serif" font-size="10.00"> </text>
</g>
<!-- Node5&#45;&gt;Node1 -->
<g id="edge4" class="edge"><title>Node5&#45;&gt;Node1</title>
<path fill="none" stroke="#404040" d="M253.201,-172.377C249.183,-156.859 243.764,-137.21 238,-120 237.212,-117.648 236.387,-115.258 235.536,-112.851"/>
<polygon fill="none" stroke="#404040" points="235.518,-112.802 229.7,-108.542 231.394,-101.533 237.213,-105.793 235.518,-112.802"/>
<text text-anchor="middle" x="281" y="-134.5" font-family="Helvetica,sans-Serif" font-size="10.00"> #num_vertices</text>
</g>
<!-- Node6 -->
<g id="node6" class="node"><title>Node6</title>
<polygon fill="white" stroke="#bfbfbf" points="309,-172.5 309,-229.5 389,-229.5 389,-172.5 309,-172.5"/>
<text text-anchor="middle" x="349" y="-217.5" font-family="Helvetica,sans-Serif" font-size="10.00">static GLuchar</text>
<polyline fill="none" stroke="#bfbfbf" points="309,-210.5 389,-210.5 "/>
<text text-anchor="middle" x="349" y="-198.5" font-family="Helvetica,sans-Serif" font-size="10.00"> </text>
<polyline fill="none" stroke="#bfbfbf" points="309,-191.5 389,-191.5 "/>
<text text-anchor="middle" x="349" y="-179.5" font-family="Helvetica,sans-Serif" font-size="10.00"> </text>
</g>
<!-- Node6&#45;&gt;Node1 -->
<g id="edge5" class="edge"><title>Node6&#45;&gt;Node1</title>
<path fill="none" stroke="#404040" d="M342.898,-172.195C338.205,-155.679 330.378,-135.084 318,-120 313.438,-114.441 308.298,-109.193 302.801,-104.268"/>
<polygon fill="none" stroke="#404040" points="302.46,-103.982 295.291,-103.203 293.253,-96.2855 300.422,-97.0652 302.46,-103.982"/>
<text text-anchor="middle" x="373.5" y="-134.5" font-family="Helvetica,sans-Serif" font-size="10.00"> #InvertedIndices</text>
</g>
<!-- Node7 -->
<g id="node7" class="node"><title>Node7</title>
<polygon fill="white" stroke="#bfbfbf" points="407.5,-172.5 407.5,-229.5 482.5,-229.5 482.5,-172.5 407.5,-172.5"/>
<text text-anchor="middle" x="445" y="-217.5" font-family="Helvetica,sans-Serif" font-size="10.00">static GLchar</text>
<polyline fill="none" stroke="#bfbfbf" points="407.5,-210.5 482.5,-210.5 "/>
<text text-anchor="middle" x="445" y="-198.5" font-family="Helvetica,sans-Serif" font-size="10.00"> </text>
<polyline fill="none" stroke="#bfbfbf" points="407.5,-191.5 482.5,-191.5 "/>
<text text-anchor="middle" x="445" y="-179.5" font-family="Helvetica,sans-Serif" font-size="10.00"> </text>
</g>
<!-- Node7&#45;&gt;Node1 -->
<g id="edge6" class="edge"><title>Node7&#45;&gt;Node1</title>
<path fill="none" stroke="#404040" d="M440.426,-172.201C436.254,-155.055 428.438,-133.782 414,-120 384.525,-91.8632 343.064,-75.3545 305.29,-65.6747"/>
<polygon fill="none" stroke="#404040" points="304.843,-65.5675 298.075,-68.0561 293.175,-62.7657 299.943,-60.2772 304.843,-65.5675"/>
<text text-anchor="middle" x="470" y="-140" font-family="Helvetica,sans-Serif" font-size="10.00"> #EdgesOfIndex</text>
<text text-anchor="middle" x="470" y="-129" font-family="Helvetica,sans-Serif" font-size="10.00">#VerticeCount</text>
</g>
</g>
</svg>
        <g id="navigator" transform="translate(0 0)" fill="#404254">
                <rect fill="#f2f5e9" fill-opacity="0.5" stroke="#606060" stroke-width=".5" x="0" y="0" width="60" height="60"/>
                <use id="zoomplus" xlink:href="#zoomPlus" x="17" y="9" onmousedown="handleZoom(evt,'in')"/>
                <use id="zoomminus" xlink:href="#zoomMin" x="42" y="9" onmousedown="handleZoom(evt,'out')"/>
                <use id="reset" xlink:href="#resetDef" x="30" y="36" onmousedown="handleReset()"/>
                <g id="arrowUp" xlink:href="#dirArrow" transform="translate(30 24)" onmousedown="handlePan(0,-1)">
                  <use xlink:href="#rim" fill="#404040">
                        <set attributeName="fill" to="#808080" begin="arrowUp.mouseover" end="arrowUp.mouseout"/>
                  </use>
                  <path fill="none" stroke="white" stroke-width="1.5" d="M0,-3.0v7 M-2.5,-0.5L0,-3.0L2.5,-0.5"/>
                </g>
                <g id="arrowRight" xlink:href="#dirArrow" transform="rotate(90) translate(36 -43)" onmousedown="handlePan(1,0)">
                  <use xlink:href="#rim" fill="#404040">
                        <set attributeName="fill" to="#808080" begin="arrowRight.mouseover" end="arrowRight.mouseout"/>
                  </use>
                  <path fill="none" stroke="white" stroke-width="1.5" d="M0,-3.0v7 M-2.5,-0.5L0,-3.0L2.5,-0.5"/>
                </g>
                <g id="arrowDown" xlink:href="#dirArrow" transform="rotate(180) translate(-30 -48)" onmousedown="handlePan(0,1)">
                  <use xlink:href="#rim" fill="#404040">
                        <set attributeName="fill" to="#808080" begin="arrowDown.mouseover" end="arrowDown.mouseout"/>
                  </use>
                  <path fill="none" stroke="white" stroke-width="1.5" d="M0,-3.0v7 M-2.5,-0.5L0,-3.0L2.5,-0.5"/>
                </g>
                <g id="arrowLeft" xlink:href="#dirArrow" transform="rotate(270) translate(-36 17)" onmousedown="handlePan(-1,0)">
                  <use xlink:href="#rim" fill="#404040">
                        <set attributeName="fill" to="#808080" begin="arrowLeft.mouseover" end="arrowLeft.mouseout"/>
                  </use>
                  <path fill="none" stroke="white" stroke-width="1.5" d="M0,-3.0v7 M-2.5,-0.5L0,-3.0L2.5,-0.5"/>
                </g>
        </g>
        <svg viewBox="0 0 15 15" width="100%" height="30px" preserveAspectRatio="xMaxYMin meet">
         <g id="arrow_out" transform="scale(0.3 0.3)">
          <a xlink:href="class_omni_o_g_l_1_1_voxel__coll__graph_org.svg" target="_base">
           <rect id="button" ry="5" rx="5" y="6" x="6" height="38" width="38"
                fill="#f2f5e9" fill-opacity="0.5" stroke="#606060" stroke-width="1.0"/>
           <path id="arrow"
             d="M 11.500037,31.436501 C 11.940474,20.09759 22.043105,11.32322 32.158766,21.979434 L 37.068811,17.246167 C 37.068811,17.246167 37.088388,32 37.088388,32 L 22.160133,31.978069 C 22.160133,31.978069 26.997745,27.140456 26.997745,27.140456 C 18.528582,18.264221 13.291696,25.230495 11.500037,31.436501 z"
             style="fill:#404040;"/>
          </a>
         </g>
        </svg>
</svg>
