<?xml version="1.0" encoding="UTF-8" standalone="no"?>
<!DOCTYPE svg PUBLIC "-//W3C//DTD SVG 1.1//EN"
 "http://www.w3.org/Graphics/SVG/1.1/DTD/svg11.dtd">
<!-- Generated by graphviz version 2.30.1 (20130214.1330)
 -->
<!-- Title: OmniOGL::Floor::Draw Pages: 1 -->
<svg width="538pt" height="104pt"
 viewBox="0.00 0.00 538.00 104.00" xmlns="http://www.w3.org/2000/svg" xmlns:xlink="http://www.w3.org/1999/xlink">
<g id="graph0" class="graph" transform="scale(1 1) rotate(0) translate(4 100)">
<title>OmniOGL::Floor::Draw</title>
<polygon fill="white" stroke="white" points="-4,5 -4,-100 535,-100 535,5 -4,5"/>
<!-- Node1 -->
<g id="node1" class="node"><title>Node1</title>
<polygon fill="#bfbfbf" stroke="black" points="0,-38.5 0,-57.5 116,-57.5 116,-38.5 0,-38.5"/>
<text text-anchor="middle" x="58" y="-45.5" font-family="Helvetica,sans-Serif" font-size="10.00">OmniOGL::Floor::Draw</text>
</g>
<!-- Node2 -->
<g id="node2" class="node"><title>Node2</title>
<g id="a_node2"><a xlink:href="class_omni_o_g_l_1_1_ren_obj.html#a25e6e5b1ba07d42f125c7bdd19a2e609" target="_top" xlink:title="This method lies at the heart of the rendering process, as it binds the object&#39;s relevant data to the...">
<polygon fill="white" stroke="black" points="152.5,-76.5 152.5,-95.5 321.5,-95.5 321.5,-76.5 152.5,-76.5"/>
<text text-anchor="middle" x="237" y="-83.5" font-family="Helvetica,sans-Serif" font-size="10.00">OmniOGL::RenObj::BindBufferData</text>
</a>
</g>
</g>
<!-- Node1&#45;&gt;Node2 -->
<g id="edge1" class="edge"><title>Node1&#45;&gt;Node2</title>
<path fill="none" stroke="midnightblue" d="M103.665,-57.589C127.337,-62.6713 156.608,-68.9554 181.597,-74.3203"/>
<polygon fill="midnightblue" stroke="midnightblue" points="181.145,-77.8028 191.657,-76.4799 182.614,-70.9588 181.145,-77.8028"/>
</g>
<!-- Node3 -->
<g id="node3" class="node"><title>Node3</title>
<g id="a_node3"><a xlink:href="class_omni_o_g_l_1_1_ren_obj.html#a8a386f32d8e09e00a1ef45c55fd4c301" target="_top" xlink:title="This method attempts to handle all of the necessary OpenGL state changes in one place. The desired value of various states are stored as a local variable owned by the object. This method is called for each object each frame and simply sets each state to the position specified by the object.">
<polygon fill="white" stroke="black" points="168,-38.5 168,-57.5 306,-57.5 306,-38.5 168,-38.5"/>
<text text-anchor="middle" x="237" y="-45.5" font-family="Helvetica,sans-Serif" font-size="10.00">OmniOGL::RenObj::Prepare</text>
</a>
</g>
</g>
<!-- Node1&#45;&gt;Node3 -->
<g id="edge2" class="edge"><title>Node1&#45;&gt;Node3</title>
<path fill="none" stroke="midnightblue" d="M116.467,-48C129.626,-48 143.833,-48 157.701,-48"/>
<polygon fill="midnightblue" stroke="midnightblue" points="157.72,-51.5001 167.72,-48 157.719,-44.5001 157.72,-51.5001"/>
</g>
<!-- Node6 -->
<g id="node6" class="node"><title>Node6</title>
<g id="a_node6"><a xlink:href="class_omni_o_g_l_1_1_scene.html#a7158f7aa2b63737ffc2d93f20f39fc85" target="_top" xlink:title="This method is intended to offer a simple way to set the translation matrix via a set of x...">
<polygon fill="white" stroke="black" points="164.5,-0.5 164.5,-19.5 309.5,-19.5 309.5,-0.5 164.5,-0.5"/>
<text text-anchor="middle" x="237" y="-7.5" font-family="Helvetica,sans-Serif" font-size="10.00">OmniOGL::Scene::sTranslate</text>
</a>
</g>
</g>
<!-- Node1&#45;&gt;Node6 -->
<g id="edge5" class="edge"><title>Node1&#45;&gt;Node6</title>
<path fill="none" stroke="midnightblue" d="M103.665,-38.411C127.337,-33.3287 156.608,-27.0446 181.597,-21.6797"/>
<polygon fill="midnightblue" stroke="midnightblue" points="182.614,-25.0412 191.657,-19.5201 181.145,-18.1972 182.614,-25.0412"/>
</g>
<!-- Node4 -->
<g id="node4" class="node"><title>Node4</title>
<g id="a_node4"><a xlink:href="class_omni_o_g_l_1_1_scene.html#a0d76d3bd0b63be254c1b808e58c91aba" target="_top" xlink:title="A getter which retrieves a boolean value representing whether or not [regular] textures are enabled...">
<polygon fill="white" stroke="black" points="358,-76.5 358,-95.5 530,-95.5 530,-76.5 358,-76.5"/>
<text text-anchor="middle" x="444" y="-83.5" font-family="Helvetica,sans-Serif" font-size="10.00">OmniOGL::Scene::GlobalTextureEn</text>
</a>
</g>
</g>
<!-- Node3&#45;&gt;Node4 -->
<g id="edge3" class="edge"><title>Node3&#45;&gt;Node4</title>
<path fill="none" stroke="midnightblue" d="M289.466,-57.54C317.368,-62.7122 352.045,-69.1401 381.38,-74.5778"/>
<polygon fill="midnightblue" stroke="midnightblue" points="381.043,-78.0748 391.513,-76.4561 382.319,-71.1921 381.043,-78.0748"/>
</g>
<!-- Node5 -->
<g id="node5" class="node"><title>Node5</title>
<g id="a_node5"><a xlink:href="class_omni_o_g_l_1_1_scene.html#ad5369cbf93989073466f9b03d8dd8233" target="_top" xlink:title="A getter which retrieves a boolean value representing whether or not bump mapping is enabled...">
<polygon fill="white" stroke="black" points="366,-38.5 366,-57.5 522,-57.5 522,-38.5 366,-38.5"/>
<text text-anchor="middle" x="444" y="-45.5" font-family="Helvetica,sans-Serif" font-size="10.00">OmniOGL::Scene::BumpMapEn</text>
</a>
</g>
</g>
<!-- Node3&#45;&gt;Node5 -->
<g id="edge4" class="edge"><title>Node3&#45;&gt;Node5</title>
<path fill="none" stroke="midnightblue" d="M306.262,-48C322.081,-48 339.128,-48 355.64,-48"/>
<polygon fill="midnightblue" stroke="midnightblue" points="355.836,-51.5001 365.836,-48 355.836,-44.5001 355.836,-51.5001"/>
</g>
<!-- Node7 -->
<g id="node7" class="node"><title>Node7</title>
<g id="a_node7"><a xlink:href="class_omni_o_g_l_1_1_scene.html#a3e40078b453c8199045775feb1ab18d1" target="_top" xlink:title="This method sends a combined translation*rotation*scale 4x4 matrix to the shader program, effectively configuring the size, orientation, and position of each vertex which is a candidate for rendering. The combined &quot;srt&quot; matrix is an attribute in the shader program, so it is sent via a vertex buffer object. Note that this method is capable of taking an array of matrices if a count is specified (second parameter), in order to accomodate instanced rendering. If no second parameter is passed, it is assumed that the first parameter only points to a single matrix. Scene::info.vbo">
<polygon fill="white" stroke="black" points="369.5,-0.5 369.5,-19.5 518.5,-19.5 518.5,-0.5 369.5,-0.5"/>
<text text-anchor="middle" x="444" y="-7.5" font-family="Helvetica,sans-Serif" font-size="10.00">OmniOGL::Scene::UpdateSRT</text>
</a>
</g>
</g>
<!-- Node6&#45;&gt;Node7 -->
<g id="edge6" class="edge"><title>Node6&#45;&gt;Node7</title>
<path fill="none" stroke="midnightblue" d="M309.699,-10C325.667,-10 342.734,-10 359.142,-10"/>
<polygon fill="midnightblue" stroke="midnightblue" points="359.257,-13.5001 369.257,-10 359.257,-6.5001 359.257,-13.5001"/>
</g>
</g>
</svg>
