<?xml version="1.0" encoding="UTF-8" standalone="no"?>
<!DOCTYPE svg PUBLIC "-//W3C//DTD SVG 1.1//EN"
 "http://www.w3.org/Graphics/SVG/1.1/DTD/svg11.dtd">
<!-- Generated by graphviz version 2.30.1 (20130214.1330)
 -->
<!-- Title: OmniOGL::RenObj::SetOrigin Pages: 1 -->
<svg width="520pt" height="153pt"
 viewBox="0.00 0.00 520.00 153.00" xmlns="http://www.w3.org/2000/svg" xmlns:xlink="http://www.w3.org/1999/xlink">
<g id="graph0" class="graph" transform="scale(1 1) rotate(0) translate(4 149)">
<title>OmniOGL::RenObj::SetOrigin</title>
<polygon fill="white" stroke="white" points="-4,5 -4,-149 517,-149 517,5 -4,5"/>
<!-- Node1 -->
<g id="node1" class="node"><title>Node1</title>
<polygon fill="#bfbfbf" stroke="black" points="0.5,-57.5 0.5,-76.5 145.5,-76.5 145.5,-57.5 0.5,-57.5"/>
<text text-anchor="middle" x="73" y="-64.5" font-family="Helvetica,sans-Serif" font-size="10.00">OmniOGL::RenObj::SetOrigin</text>
</g>
<!-- Node2 -->
<g id="node2" class="node"><title>Node2</title>
<g id="a_node2"><a xlink:href="class_omni_o_g_l_1_1_voxel_field.html#af35e1fbb4908ffbe639962bce40c36a4" target="_top" xlink:title="The core method of this class which initializes all voxels and populates a given BlockArray with the ...">
<polygon fill="white" stroke="black" points="205,-115 205,-145 317,-145 317,-115 205,-115"/>
<text text-anchor="start" x="213" y="-133" font-family="Helvetica,sans-Serif" font-size="10.00">OmniOGL::VoxelField</text>
<text text-anchor="middle" x="261" y="-122" font-family="Helvetica,sans-Serif" font-size="10.00">::FillWithRandom</text>
</a>
</g>
</g>
<!-- Node1&#45;&gt;Node2 -->
<g id="edge1" class="edge"><title>Node1&#45;&gt;Node2</title>
<path fill="none" stroke="midnightblue" d="M111.938,-79.8499C141.953,-90.0164 183.927,-104.233 215.522,-114.935"/>
<polygon fill="midnightblue" stroke="midnightblue" points="112.844,-76.4615 102.249,-76.5683 110.598,-83.0915 112.844,-76.4615"/>
</g>
<!-- Node3 -->
<g id="node3" class="node"><title>Node3</title>
<g id="a_node3"><a xlink:href="_exec_8cpp.html#a133aba9fe60f6d354d05d69e0bbd31a7" target="_top" xlink:title="render">
<polygon fill="white" stroke="black" points="376,-76.5 376,-95.5 420,-95.5 420,-76.5 376,-76.5"/>
<text text-anchor="middle" x="398" y="-83.5" font-family="Helvetica,sans-Serif" font-size="10.00">render</text>
</a>
</g>
</g>
<!-- Node1&#45;&gt;Node3 -->
<g id="edge4" class="edge"><title>Node1&#45;&gt;Node3</title>
<path fill="none" stroke="midnightblue" d="M155.841,-71.8142C229.263,-76.1331 331.99,-82.1759 375.827,-84.7545"/>
<polygon fill="midnightblue" stroke="midnightblue" points="155.872,-68.3101 145.684,-71.2167 155.461,-75.298 155.872,-68.3101"/>
</g>
<!-- Node5 -->
<g id="node5" class="node"><title>Node5</title>
<g id="a_node5"><a xlink:href="class_omni_o_g_l_1_1_floor.html#a636158345b20717527b337fb3e5e2924" target="_top" xlink:title="Default constructor for the Floor class &#45; responsible for initializing any members owned by this clas...">
<polygon fill="white" stroke="black" points="203,-38.5 203,-57.5 319,-57.5 319,-38.5 203,-38.5"/>
<text text-anchor="middle" x="261" y="-45.5" font-family="Helvetica,sans-Serif" font-size="10.00">OmniOGL::Floor::Floor</text>
</a>
</g>
</g>
<!-- Node1&#45;&gt;Node5 -->
<g id="edge5" class="edge"><title>Node1&#45;&gt;Node5</title>
<path fill="none" stroke="midnightblue" d="M155.954,-58.6284C171.763,-57.0135 188.004,-55.3545 202.814,-53.8415"/>
<polygon fill="midnightblue" stroke="midnightblue" points="155.239,-55.1831 145.646,-59.6813 155.95,-62.1469 155.239,-55.1831"/>
</g>
<!-- Node6 -->
<g id="node6" class="node"><title>Node6</title>
<g id="a_node6"><a xlink:href="class_omni_o_g_l_1_1_scene.html#aae08df1c53cc88c0e8f7ec3f45b87f4b" target="_top" xlink:title="Configures lighting parameters for the Scene including the sole light&#39;s position and color...">
<polygon fill="white" stroke="black" points="182,-0.5 182,-19.5 340,-19.5 340,-0.5 182,-0.5"/>
<text text-anchor="middle" x="261" y="-7.5" font-family="Helvetica,sans-Serif" font-size="10.00">OmniOGL::Scene::ApplyLighting</text>
</a>
</g>
</g>
<!-- Node1&#45;&gt;Node6 -->
<g id="edge6" class="edge"><title>Node1&#45;&gt;Node6</title>
<path fill="none" stroke="midnightblue" d="M108.56,-53.854C129.616,-46.0923 157.161,-36.3751 182,-29 193.357,-25.6279 205.771,-22.4004 217.289,-19.5933"/>
<polygon fill="midnightblue" stroke="midnightblue" points="107.235,-50.6125 99.081,-57.3776 109.674,-57.1739 107.235,-50.6125"/>
</g>
<!-- Node2&#45;&gt;Node3 -->
<g id="edge2" class="edge"><title>Node2&#45;&gt;Node3</title>
<path fill="none" stroke="midnightblue" d="M317.655,-111.86C338.108,-105.194 360.059,-98.0399 375.676,-92.9499"/>
<polygon fill="midnightblue" stroke="midnightblue" points="316.505,-108.554 308.082,-114.981 318.674,-115.21 316.505,-108.554"/>
</g>
<!-- Node4 -->
<g id="node4" class="node"><title>Node4</title>
<g id="a_node4"><a xlink:href="_exec_8cpp.html#a66e65252a6985e382838442f280f46ba" target="_top" xlink:title="WinMain">
<polygon fill="white" stroke="black" points="456.5,-76.5 456.5,-95.5 511.5,-95.5 511.5,-76.5 456.5,-76.5"/>
<text text-anchor="middle" x="484" y="-83.5" font-family="Helvetica,sans-Serif" font-size="10.00">WinMain</text>
</a>
</g>
</g>
<!-- Node3&#45;&gt;Node4 -->
<g id="edge3" class="edge"><title>Node3&#45;&gt;Node4</title>
<path fill="none" stroke="midnightblue" d="M430.253,-86C438.845,-86 448.081,-86 456.386,-86"/>
<polygon fill="midnightblue" stroke="midnightblue" points="430.197,-82.5001 420.197,-86 430.197,-89.5001 430.197,-82.5001"/>
</g>
<!-- Node6&#45;&gt;Node3 -->
<g id="edge7" class="edge"><title>Node6&#45;&gt;Node3</title>
<path fill="none" stroke="midnightblue" d="M327.338,-23.0106C331.731,-24.763 335.996,-26.7492 340,-29 361.47,-41.0708 380.36,-63.4857 390.07,-76.3162"/>
<polygon fill="midnightblue" stroke="midnightblue" points="328.162,-19.5891 317.568,-19.5359 325.817,-26.1844 328.162,-19.5891"/>
</g>
</g>
</svg>
