<?xml version="1.0" encoding="UTF-8" standalone="no"?>
<!DOCTYPE svg PUBLIC "-//W3C//DTD SVG 1.1//EN"
 "http://www.w3.org/Graphics/SVG/1.1/DTD/svg11.dtd">
<!-- Generated by graphviz version 2.30.1 (20130214.1330)
 -->
<!-- Title: OmniOGL::Scene::GetOccupiedSection Pages: 1 -->
<svg width="762pt" height="38pt"
 viewBox="0.00 0.00 762.00 38.00" xmlns="http://www.w3.org/2000/svg" xmlns:xlink="http://www.w3.org/1999/xlink">
<g id="graph0" class="graph" transform="scale(1 1) rotate(0) translate(4 34)">
<title>OmniOGL::Scene::GetOccupiedSection</title>
<polygon fill="white" stroke="white" points="-4,5 -4,-34 759,-34 759,5 -4,5"/>
<!-- Node1 -->
<g id="node1" class="node"><title>Node1</title>
<polygon fill="#bfbfbf" stroke="black" points="0.5,-0 0.5,-30 157.5,-30 157.5,-0 0.5,-0"/>
<text text-anchor="start" x="8.5" y="-18" font-family="Helvetica,sans-Serif" font-size="10.00">OmniOGL::Scene::GetOccupied</text>
<text text-anchor="middle" x="79" y="-7" font-family="Helvetica,sans-Serif" font-size="10.00">Section</text>
</g>
<!-- Node2 -->
<g id="node2" class="node"><title>Node2</title>
<g id="a_node2"><a xlink:href="namespace_omni_o_g_l.html#a6630146f2a7cfde12d20ac50fe2f01df" target="_top" xlink:title="Iterates through all objects in the Section which the player/user is currently in, as well as all of the persistant objects in the Scene, and attempts to find which object is within closest proximity to the camera CENTER (the point the camera is looking at). Only objects which are within a close&#45;enough proximity will qualify. The nearest qualifying object is removed from the Scene (or from the Section it occupied, if it occupied one). evnt_Keybrd()">
<polygon fill="white" stroke="black" points="194.5,-5.5 194.5,-24.5 343.5,-24.5 343.5,-5.5 194.5,-5.5"/>
<text text-anchor="middle" x="269" y="-12.5" font-family="Helvetica,sans-Serif" font-size="10.00">OmniOGL::RemoveNearObject</text>
</a>
</g>
</g>
<!-- Node1&#45;&gt;Node2 -->
<g id="edge1" class="edge"><title>Node1&#45;&gt;Node2</title>
<path fill="none" stroke="midnightblue" d="M167.576,-15C176.499,-15 185.499,-15 194.254,-15"/>
<polygon fill="midnightblue" stroke="midnightblue" points="167.552,-11.5001 157.552,-15 167.552,-18.5001 167.552,-11.5001"/>
</g>
<!-- Node3 -->
<g id="node3" class="node"><title>Node3</title>
<g id="a_node3"><a xlink:href="namespace_omni_o_g_l.html#a9a2525b1056458096e98c5608ed2f904" target="_top" xlink:title="An event handler for keyboard events which is passed to glfwSetKeyCallback() as a means of handling k...">
<polygon fill="white" stroke="black" points="380.5,-5.5 380.5,-24.5 499.5,-24.5 499.5,-5.5 380.5,-5.5"/>
<text text-anchor="middle" x="440" y="-12.5" font-family="Helvetica,sans-Serif" font-size="10.00">OmniOGL::evnt_Keybrd</text>
</a>
</g>
</g>
<!-- Node2&#45;&gt;Node3 -->
<g id="edge2" class="edge"><title>Node2&#45;&gt;Node3</title>
<path fill="none" stroke="midnightblue" d="M353.752,-15C362.736,-15 371.732,-15 380.333,-15"/>
<polygon fill="midnightblue" stroke="midnightblue" points="353.634,-11.5001 343.634,-15 353.634,-18.5001 353.634,-11.5001"/>
</g>
<!-- Node4 -->
<g id="node4" class="node"><title>Node4</title>
<g id="a_node4"><a xlink:href="namespace_omni_o_g_l.html#a03177ea10e60c8e0edb883425d0f84a4" target="_top" xlink:title="OmniOGL::MakeWindow">
<polygon fill="white" stroke="black" points="536.5,-5.5 536.5,-24.5 661.5,-24.5 661.5,-5.5 536.5,-5.5"/>
<text text-anchor="middle" x="599" y="-12.5" font-family="Helvetica,sans-Serif" font-size="10.00">OmniOGL::MakeWindow</text>
</a>
</g>
</g>
<!-- Node3&#45;&gt;Node4 -->
<g id="edge3" class="edge"><title>Node3&#45;&gt;Node4</title>
<path fill="none" stroke="midnightblue" d="M510.092,-15C518.852,-15 527.77,-15 536.403,-15"/>
<polygon fill="midnightblue" stroke="midnightblue" points="509.908,-11.5001 499.908,-15 509.908,-18.5001 509.908,-11.5001"/>
</g>
<!-- Node5 -->
<g id="node5" class="node"><title>Node5</title>
<g id="a_node5"><a xlink:href="_exec_8cpp.html#a66e65252a6985e382838442f280f46ba" target="_top" xlink:title="WinMain">
<polygon fill="white" stroke="black" points="698.5,-5.5 698.5,-24.5 753.5,-24.5 753.5,-5.5 698.5,-5.5"/>
<text text-anchor="middle" x="726" y="-12.5" font-family="Helvetica,sans-Serif" font-size="10.00">WinMain</text>
</a>
</g>
</g>
<!-- Node4&#45;&gt;Node5 -->
<g id="edge4" class="edge"><title>Node4&#45;&gt;Node5</title>
<path fill="none" stroke="midnightblue" d="M672.028,-15C681.416,-15 690.51,-15 698.436,-15"/>
<polygon fill="midnightblue" stroke="midnightblue" points="671.768,-11.5001 661.768,-15 671.768,-18.5001 671.768,-11.5001"/>
</g>
</g>
</svg>
