<?xml version="1.0" encoding="UTF-8" standalone="no"?>
<!DOCTYPE svg PUBLIC "-//W3C//DTD SVG 1.1//EN"
 "http://www.w3.org/Graphics/SVG/1.1/DTD/svg11.dtd">
<!-- Generated by graphviz version 2.30.1 (20130214.1330)
 -->
<!-- Title: OmniOGL::Scene::IncrementTotal Pages: 1 -->
<svg width="340pt" height="38pt"
 viewBox="0.00 0.00 340.00 38.00" xmlns="http://www.w3.org/2000/svg" xmlns:xlink="http://www.w3.org/1999/xlink">
<g id="graph0" class="graph" transform="scale(1 1) rotate(0) translate(4 34)">
<title>OmniOGL::Scene::IncrementTotal</title>
<polygon fill="white" stroke="white" points="-4,5 -4,-34 337,-34 337,5 -4,5"/>
<!-- Node1 -->
<g id="node1" class="node"><title>Node1</title>
<polygon fill="#bfbfbf" stroke="black" points="0.5,-0 0.5,-30 143.5,-30 143.5,-0 0.5,-0"/>
<text text-anchor="start" x="8.5" y="-18" font-family="Helvetica,sans-Serif" font-size="10.00">OmniOGL::Scene::Increment</text>
<text text-anchor="middle" x="72" y="-7" font-family="Helvetica,sans-Serif" font-size="10.00">Total</text>
</g>
<!-- Node2 -->
<g id="node2" class="node"><title>Node2</title>
<g id="a_node2"><a xlink:href="class_omni_o_g_l_1_1_group.html#a9dcdbfb8c49117647880ae13d8e051bc" target="_top" xlink:title="Adds a specified number of &quot;cloned&quot; objects to the Group which will be differ by scale, rotation, and translation/location. The scale, rotation, and translation for each object is determined randomly but within a range specified by members of this class. If no parameter is passed to this method then it will generate one object by default. Group::SetScaleRanges(), Group::SetRotationRanges(), Group::SetTranslationRanges(), Group::AddInstance()">
<polygon fill="white" stroke="black" points="180,-0 180,-30 332,-30 332,-0 180,-0"/>
<text text-anchor="start" x="188" y="-18" font-family="Helvetica,sans-Serif" font-size="10.00">OmniOGL::Group::AddRandom</text>
<text text-anchor="middle" x="256" y="-7" font-family="Helvetica,sans-Serif" font-size="10.00">Instances</text>
</a>
</g>
</g>
<!-- Node1&#45;&gt;Node2 -->
<g id="edge1" class="edge"><title>Node1&#45;&gt;Node2</title>
<path fill="none" stroke="midnightblue" d="M153.756,-15C162.45,-15 171.271,-15 179.896,-15"/>
<polygon fill="midnightblue" stroke="midnightblue" points="153.626,-11.5001 143.626,-15 153.626,-18.5001 153.626,-11.5001"/>
</g>
</g>
</svg>
