<?xml version="1.0" encoding="UTF-8" standalone="no"?>
<!DOCTYPE svg PUBLIC "-//W3C//DTD SVG 1.1//EN"
 "http://www.w3.org/Graphics/SVG/1.1/DTD/svg11.dtd">
<!-- Generated by graphviz version 2.30.1 (20130214.1330)
 -->
<!-- Title: OmniOGL::BlockArray::BlockArray Pages: 1 -->
<svg width="374pt" height="66pt"
 viewBox="0.00 0.00 374.00 66.00" xmlns="http://www.w3.org/2000/svg" xmlns:xlink="http://www.w3.org/1999/xlink">
<g id="graph0" class="graph" transform="scale(1 1) rotate(0) translate(4 62)">
<title>OmniOGL::BlockArray::BlockArray</title>
<polygon fill="white" stroke="white" points="-4,5 -4,-62 371,-62 371,5 -4,5"/>
<!-- Node1 -->
<g id="node1" class="node"><title>Node1</title>
<polygon fill="#bfbfbf" stroke="black" points="0,-14 0,-44 114,-44 114,-14 0,-14"/>
<text text-anchor="start" x="8" y="-32" font-family="Helvetica,sans-Serif" font-size="10.00">OmniOGL::BlockArray</text>
<text text-anchor="middle" x="57" y="-21" font-family="Helvetica,sans-Serif" font-size="10.00">::BlockArray</text>
</g>
<!-- Node2 -->
<g id="node2" class="node"><title>Node2</title>
<g id="a_node2"><a xlink:href="namespace_omni_o_g_l.html#abe5ff24d55002e6ebffb4415d994260a" target="_top" xlink:title="Sets the pointer to the value &#45;1.">
<polygon fill="white" stroke="black" points="153,-38.5 153,-57.5 237,-57.5 237,-38.5 153,-38.5"/>
<text text-anchor="middle" x="195" y="-45.5" font-family="Helvetica,sans-Serif" font-size="10.00">OmniOGL::_Init</text>
</a>
</g>
</g>
<!-- Node1&#45;&gt;Node2 -->
<g id="edge1" class="edge"><title>Node1&#45;&gt;Node2</title>
<path fill="none" stroke="midnightblue" d="M114.102,-36.8377C123.666,-38.174 133.555,-39.5555 142.979,-40.8721"/>
<polygon fill="midnightblue" stroke="midnightblue" points="142.597,-44.3526 152.985,-42.27 143.566,-37.4199 142.597,-44.3526"/>
</g>
<!-- Node3 -->
<g id="node3" class="node"><title>Node3</title>
<g id="a_node3"><a xlink:href="namespace_omni_o_g_l.html#a80cd48382ee4083e78ba3431e570b82c" target="_top" xlink:title="A wrapper around the new[] keyword. Allocates the desired number of elements to the given pointer...">
<polygon fill="white" stroke="black" points="150,-0.5 150,-19.5 240,-19.5 240,-0.5 150,-0.5"/>
<text text-anchor="middle" x="195" y="-7.5" font-family="Helvetica,sans-Serif" font-size="10.00">OmniOGL::_New</text>
</a>
</g>
</g>
<!-- Node1&#45;&gt;Node3 -->
<g id="edge2" class="edge"><title>Node1&#45;&gt;Node3</title>
<path fill="none" stroke="midnightblue" d="M114.102,-21.1623C122.529,-19.985 131.207,-18.7725 139.598,-17.6003"/>
<polygon fill="midnightblue" stroke="midnightblue" points="140.234,-21.0455 149.654,-16.1954 139.266,-14.1128 140.234,-21.0455"/>
</g>
<!-- Node4 -->
<g id="node4" class="node"><title>Node4</title>
<g id="a_node4"><a xlink:href="namespace_omni_o_g_l.html#a8f559408c62db097a1a918d7f58f4183" target="_top" xlink:title="A &quot;clone&quot; of the well&#45;known printf() function, with the debug routed to the OutputDebugString() funct...">
<polygon fill="white" stroke="black" points="276,-0.5 276,-19.5 366,-19.5 366,-0.5 276,-0.5"/>
<text text-anchor="middle" x="321" y="-7.5" font-family="Helvetica,sans-Serif" font-size="10.00">OmniOGL::dprint</text>
</a>
</g>
</g>
<!-- Node3&#45;&gt;Node4 -->
<g id="edge3" class="edge"><title>Node3&#45;&gt;Node4</title>
<path fill="none" stroke="midnightblue" d="M240.067,-10C248.282,-10 256.957,-10 265.443,-10"/>
<polygon fill="midnightblue" stroke="midnightblue" points="265.657,-13.5001 275.657,-10 265.657,-6.5001 265.657,-13.5001"/>
</g>
</g>
</svg>
