<?xml version="1.0" encoding="UTF-8" standalone="no"?>
<!DOCTYPE svg PUBLIC "-//W3C//DTD SVG 1.1//EN"
 "http://www.w3.org/Graphics/SVG/1.1/DTD/svg11.dtd">
<!-- Generated by graphviz version 2.30.1 (20130214.1330)
 -->
<!-- Title: OmniOGL::TextOverlay::Draw Pages: 1 -->
<svg width="540pt" height="191pt"
 viewBox="0.00 0.00 540.00 191.00" xmlns="http://www.w3.org/2000/svg" xmlns:xlink="http://www.w3.org/1999/xlink">
<g id="graph0" class="graph" transform="scale(1 1) rotate(0) translate(4 187)">
<title>OmniOGL::TextOverlay::Draw</title>
<polygon fill="white" stroke="white" points="-4,5 -4,-187 537,-187 537,5 -4,5"/>
<!-- Node1 -->
<g id="node1" class="node"><title>Node1</title>
<polygon fill="#bfbfbf" stroke="black" points="0.5,-82 0.5,-112 117.5,-112 117.5,-82 0.5,-82"/>
<text text-anchor="start" x="8.5" y="-100" font-family="Helvetica,sans-Serif" font-size="10.00">OmniOGL::TextOverlay</text>
<text text-anchor="middle" x="59" y="-89" font-family="Helvetica,sans-Serif" font-size="10.00">::Draw</text>
</g>
<!-- Node2 -->
<g id="node2" class="node"><title>Node2</title>
<g id="a_node2"><a xlink:href="class_omni_o_g_l_1_1_ren_obj.html#a25e6e5b1ba07d42f125c7bdd19a2e609" target="_top" xlink:title="This method lies at the heart of the rendering process, as it binds the object&#39;s relevant data to the...">
<polygon fill="white" stroke="black" points="154.5,-163.5 154.5,-182.5 323.5,-182.5 323.5,-163.5 154.5,-163.5"/>
<text text-anchor="middle" x="239" y="-170.5" font-family="Helvetica,sans-Serif" font-size="10.00">OmniOGL::RenObj::BindBufferData</text>
</a>
</g>
</g>
<!-- Node1&#45;&gt;Node2 -->
<g id="edge1" class="edge"><title>Node1&#45;&gt;Node2</title>
<path fill="none" stroke="midnightblue" d="M80.6177,-112.2C99.0054,-125.08 127.1,-143.138 154,-154 160.334,-156.558 167.083,-158.808 173.896,-160.778"/>
<polygon fill="midnightblue" stroke="midnightblue" points="173.319,-164.247 183.885,-163.469 175.139,-157.488 173.319,-164.247"/>
</g>
<!-- Node3 -->
<g id="node3" class="node"><title>Node3</title>
<g id="a_node3"><a xlink:href="class_omni_o_g_l_1_1_ren_obj.html#a8a386f32d8e09e00a1ef45c55fd4c301" target="_top" xlink:title="This method attempts to handle all of the necessary OpenGL state changes in one place. The desired value of various states are stored as a local variable owned by the object. This method is called for each object each frame and simply sets each state to the position specified by the object.">
<polygon fill="white" stroke="black" points="170,-125.5 170,-144.5 308,-144.5 308,-125.5 170,-125.5"/>
<text text-anchor="middle" x="239" y="-132.5" font-family="Helvetica,sans-Serif" font-size="10.00">OmniOGL::RenObj::Prepare</text>
</a>
</g>
</g>
<!-- Node1&#45;&gt;Node3 -->
<g id="edge2" class="edge"><title>Node1&#45;&gt;Node3</title>
<path fill="none" stroke="midnightblue" d="M117.791,-109.338C138.903,-113.844 162.697,-118.924 183.512,-123.368"/>
<polygon fill="midnightblue" stroke="midnightblue" points="182.955,-126.828 193.465,-125.493 184.416,-119.982 182.955,-126.828"/>
</g>
<!-- Node6 -->
<g id="node6" class="node"><title>Node6</title>
<g id="a_node6"><a xlink:href="class_omni_o_g_l_1_1_scene.html#a7158f7aa2b63737ffc2d93f20f39fc85" target="_top" xlink:title="This method is intended to offer a simple way to set the translation matrix via a set of x...">
<polygon fill="white" stroke="black" points="166.5,-87.5 166.5,-106.5 311.5,-106.5 311.5,-87.5 166.5,-87.5"/>
<text text-anchor="middle" x="239" y="-94.5" font-family="Helvetica,sans-Serif" font-size="10.00">OmniOGL::Scene::sTranslate</text>
</a>
</g>
</g>
<!-- Node1&#45;&gt;Node6 -->
<g id="edge5" class="edge"><title>Node1&#45;&gt;Node6</title>
<path fill="none" stroke="midnightblue" d="M117.791,-97C130.047,-97 143.206,-97 156.162,-97"/>
<polygon fill="midnightblue" stroke="midnightblue" points="156.487,-100.5 166.487,-97 156.487,-93.5001 156.487,-100.5"/>
</g>
<!-- Node7 -->
<g id="node7" class="node"><title>Node7</title>
<g id="a_node7"><a xlink:href="class_omni_o_g_l_1_1_scene.html#a3e40078b453c8199045775feb1ab18d1" target="_top" xlink:title="This method sends a combined translation*rotation*scale 4x4 matrix to the shader program, effectively configuring the size, orientation, and position of each vertex which is a candidate for rendering. The combined &quot;srt&quot; matrix is an attribute in the shader program, so it is sent via a vertex buffer object. Note that this method is capable of taking an array of matrices if a count is specified (second parameter), in order to accomodate instanced rendering. If no second parameter is passed, it is assumed that the first parameter only points to a single matrix. Scene::info.vbo">
<polygon fill="white" stroke="black" points="371.5,-49.5 371.5,-68.5 520.5,-68.5 520.5,-49.5 371.5,-49.5"/>
<text text-anchor="middle" x="446" y="-56.5" font-family="Helvetica,sans-Serif" font-size="10.00">OmniOGL::Scene::UpdateSRT</text>
</a>
</g>
</g>
<!-- Node1&#45;&gt;Node7 -->
<g id="edge7" class="edge"><title>Node1&#45;&gt;Node7</title>
<path fill="none" stroke="midnightblue" d="M117.71,-84.0658C129.658,-81.746 142.2,-79.5706 154,-78 223.476,-68.7529 302.91,-63.9507 361.213,-61.4902"/>
<polygon fill="midnightblue" stroke="midnightblue" points="361.631,-64.9762 371.48,-61.0719 361.346,-57.982 361.631,-64.9762"/>
</g>
<!-- Node8 -->
<g id="node8" class="node"><title>Node8</title>
<g id="a_node8"><a xlink:href="class_omni_o_g_l_1_1_text_overlay.html#a5b8a3a49e93e8e1c08daf809af737c22" target="_top" xlink:title="This method is called for each &quot;special character&quot; that needs to be adjusted vertically each frame ...">
<polygon fill="white" stroke="black" points="169,-0 169,-30 309,-30 309,-0 169,-0"/>
<text text-anchor="start" x="177" y="-18" font-family="Helvetica,sans-Serif" font-size="10.00">OmniOGL::TextOverlay</text>
<text text-anchor="middle" x="239" y="-7" font-family="Helvetica,sans-Serif" font-size="10.00">::PushVerticalCompensation</text>
</a>
</g>
</g>
<!-- Node1&#45;&gt;Node8 -->
<g id="edge8" class="edge"><title>Node1&#45;&gt;Node8</title>
<path fill="none" stroke="midnightblue" d="M84.5686,-81.965C103.212,-70.9151 129.694,-55.9759 154,-45 162.997,-40.9372 172.722,-37.0374 182.255,-33.4715"/>
<polygon fill="midnightblue" stroke="midnightblue" points="183.499,-36.7434 191.69,-30.0232 181.096,-30.1688 183.499,-36.7434"/>
</g>
<!-- Node4 -->
<g id="node4" class="node"><title>Node4</title>
<g id="a_node4"><a xlink:href="class_omni_o_g_l_1_1_scene.html#a0d76d3bd0b63be254c1b808e58c91aba" target="_top" xlink:title="A getter which retrieves a boolean value representing whether or not [regular] textures are enabled...">
<polygon fill="white" stroke="black" points="360,-144.5 360,-163.5 532,-163.5 532,-144.5 360,-144.5"/>
<text text-anchor="middle" x="446" y="-151.5" font-family="Helvetica,sans-Serif" font-size="10.00">OmniOGL::Scene::GlobalTextureEn</text>
</a>
</g>
</g>
<!-- Node3&#45;&gt;Node4 -->
<g id="edge3" class="edge"><title>Node3&#45;&gt;Node4</title>
<path fill="none" stroke="midnightblue" d="M308.262,-141.327C321.571,-142.56 335.75,-143.874 349.748,-145.172"/>
<polygon fill="midnightblue" stroke="midnightblue" points="349.613,-148.674 359.893,-146.112 350.259,-141.704 349.613,-148.674"/>
</g>
<!-- Node5 -->
<g id="node5" class="node"><title>Node5</title>
<g id="a_node5"><a xlink:href="class_omni_o_g_l_1_1_scene.html#ad5369cbf93989073466f9b03d8dd8233" target="_top" xlink:title="A getter which retrieves a boolean value representing whether or not bump mapping is enabled...">
<polygon fill="white" stroke="black" points="368,-106.5 368,-125.5 524,-125.5 524,-106.5 368,-106.5"/>
<text text-anchor="middle" x="446" y="-113.5" font-family="Helvetica,sans-Serif" font-size="10.00">OmniOGL::Scene::BumpMapEn</text>
</a>
</g>
</g>
<!-- Node3&#45;&gt;Node5 -->
<g id="edge4" class="edge"><title>Node3&#45;&gt;Node5</title>
<path fill="none" stroke="midnightblue" d="M308.262,-128.673C324.081,-127.207 341.128,-125.627 357.64,-124.097"/>
<polygon fill="midnightblue" stroke="midnightblue" points="358.202,-127.56 367.836,-123.152 357.556,-120.59 358.202,-127.56"/>
</g>
<!-- Node6&#45;&gt;Node7 -->
<g id="edge6" class="edge"><title>Node6&#45;&gt;Node7</title>
<path fill="none" stroke="midnightblue" d="M291.466,-87.46C319.368,-82.2878 354.045,-75.8599 383.38,-70.4222"/>
<polygon fill="midnightblue" stroke="midnightblue" points="384.319,-73.8079 393.513,-68.5439 383.043,-66.9252 384.319,-73.8079"/>
</g>
<!-- Node8&#45;&gt;Node7 -->
<g id="edge9" class="edge"><title>Node8&#45;&gt;Node7</title>
<path fill="none" stroke="midnightblue" d="M309.118,-29.8351C335.68,-35.5362 365.6,-41.958 390.588,-47.3214"/>
<polygon fill="midnightblue" stroke="midnightblue" points="390.103,-50.7968 400.615,-49.4734 391.572,-43.9527 390.103,-50.7968"/>
</g>
</g>
</svg>
