<?xml version="1.0" encoding="UTF-8" standalone="no"?>
<!DOCTYPE svg PUBLIC "-//W3C//DTD SVG 1.1//EN"
 "http://www.w3.org/Graphics/SVG/1.1/DTD/svg11.dtd">
<!-- Generated by graphviz version 2.30.1 (20130214.1330)
 -->
<!-- Title: OmniOGL::LineStrip::Draw Pages: 1 -->
<svg width="478pt" height="138pt"
 viewBox="0.00 0.00 478.00 138.00" xmlns="http://www.w3.org/2000/svg" xmlns:xlink="http://www.w3.org/1999/xlink">
<g id="graph0" class="graph" transform="scale(1 1) rotate(0) translate(4 134)">
<title>OmniOGL::LineStrip::Draw</title>
<polygon fill="white" stroke="white" points="-4,5 -4,-134 475,-134 475,5 -4,5"/>
<!-- Node1 -->
<g id="node1" class="node"><title>Node1</title>
<polygon fill="#bfbfbf" stroke="black" points="0,-45 0,-75 104,-75 104,-45 0,-45"/>
<text text-anchor="start" x="8" y="-63" font-family="Helvetica,sans-Serif" font-size="10.00">OmniOGL::LineStrip</text>
<text text-anchor="middle" x="52" y="-52" font-family="Helvetica,sans-Serif" font-size="10.00">::Draw</text>
</g>
<!-- Node2 -->
<g id="node2" class="node"><title>Node2</title>
<g id="a_node2"><a xlink:href="class_omni_o_g_l_1_1_ren_obj.html#af0c2ce990c74a67459352d89a02c757e" target="_top" xlink:title="This method lies at the heart of the rendering process, as it binds the object&#39;s relevant data to the...">
<polygon fill="white" stroke="black" points="140.5,-110.5 140.5,-129.5 309.5,-129.5 309.5,-110.5 140.5,-110.5"/>
<text text-anchor="middle" x="225" y="-117.5" font-family="Helvetica,sans-Serif" font-size="10.00">OmniOGL::RenObj::BindBufferData</text>
</a>
</g>
</g>
<!-- Node1&#45;&gt;Node2 -->
<g id="edge1" class="edge"><title>Node1&#45;&gt;Node2</title>
<path fill="none" stroke="midnightblue" d="M80.9524,-75.085C97.7005,-83.6352 119.633,-93.9913 140,-101 147.538,-103.594 155.581,-105.932 163.59,-108.007"/>
<polygon fill="midnightblue" stroke="midnightblue" points="162.759,-111.407 173.307,-110.409 164.439,-104.612 162.759,-111.407"/>
</g>
<!-- Node3 -->
<g id="node3" class="node"><title>Node3</title>
<g id="a_node3"><a xlink:href="class_omni_o_g_l_1_1_ren_obj.html#a0a4218e288329f8e7b17081670948c9d" target="_top" xlink:title="This method attempts to handle all of the necessary OpenGL state changes in one place. The desired value of various states are stored as a local variable owned by the object. This method is called for each object each frame and simply sets each state to the position specified by the object.">
<polygon fill="white" stroke="black" points="156,-72.5 156,-91.5 294,-91.5 294,-72.5 156,-72.5"/>
<text text-anchor="middle" x="225" y="-79.5" font-family="Helvetica,sans-Serif" font-size="10.00">OmniOGL::RenObj::Prepare</text>
</a>
</g>
</g>
<!-- Node1&#45;&gt;Node3 -->
<g id="edge2" class="edge"><title>Node1&#45;&gt;Node3</title>
<path fill="none" stroke="midnightblue" d="M104.306,-66.6007C117.368,-68.2812 131.704,-70.1257 145.776,-71.9361"/>
<polygon fill="midnightblue" stroke="midnightblue" points="145.589,-75.4408 155.954,-73.2455 146.482,-68.498 145.589,-75.4408"/>
</g>
<!-- Node4 -->
<g id="node4" class="node"><title>Node4</title>
<g id="a_node4"><a xlink:href="class_omni_o_g_l_1_1_o_g_l_matrices.html#acf36e7ad27e383dfdd30095dd1b97b0a" target="_top" xlink:title="This method is intended to offer a simple way to set the translation matrix via a set of x...">
<polygon fill="white" stroke="black" points="163,-23 163,-53 287,-53 287,-23 163,-23"/>
<text text-anchor="start" x="171" y="-41" font-family="Helvetica,sans-Serif" font-size="10.00">OmniOGL::OGLMatrices</text>
<text text-anchor="middle" x="225" y="-30" font-family="Helvetica,sans-Serif" font-size="10.00">::sTranslate</text>
</a>
</g>
</g>
<!-- Node1&#45;&gt;Node4 -->
<g id="edge3" class="edge"><title>Node1&#45;&gt;Node4</title>
<path fill="none" stroke="midnightblue" d="M104.306,-53.3993C119.54,-51.4393 136.509,-49.2561 152.769,-47.1642"/>
<polygon fill="midnightblue" stroke="midnightblue" points="153.309,-50.6237 162.78,-45.8762 152.415,-43.681 153.309,-50.6237"/>
</g>
<!-- Node5 -->
<g id="node5" class="node"><title>Node5</title>
<g id="a_node5"><a xlink:href="class_omni_o_g_l_1_1_o_g_l_matrices.html#aacb4830605589d383ded70ceec9b40bf" target="_top" xlink:title="This method sends a combined translation*rotation*scale 4x4 matrix to the shader program, effectively configuring the size, orientation, and position of each vertex which is a candidate for rendering. The combined &quot;srt&quot; matrix is an attribute in the shader program, so it is sent via a vertex buffer object. Note that this method is capable of taking an array of matrices if a count is specified (second parameter), in order to accomodate instanced rendering. If no second parameter is passed, it is assumed that the first parameter only points to a single matrix. Scene::info.vbo">
<polygon fill="white" stroke="black" points="346,-1 346,-31 470,-31 470,-1 346,-1"/>
<text text-anchor="start" x="354" y="-19" font-family="Helvetica,sans-Serif" font-size="10.00">OmniOGL::OGLMatrices</text>
<text text-anchor="middle" x="408" y="-8" font-family="Helvetica,sans-Serif" font-size="10.00">::UpdateSRT</text>
</a>
</g>
</g>
<!-- Node1&#45;&gt;Node5 -->
<g id="edge5" class="edge"><title>Node1&#45;&gt;Node5</title>
<path fill="none" stroke="midnightblue" d="M74.3233,-44.9197C91.2375,-33.9307 115.955,-19.9655 140,-14 204.775,2.07034 281.139,-0.567394 335.571,-5.95355"/>
<polygon fill="midnightblue" stroke="midnightblue" points="335.503,-9.46545 345.812,-7.02493 336.231,-2.50344 335.503,-9.46545"/>
</g>
<!-- Node4&#45;&gt;Node5 -->
<g id="edge4" class="edge"><title>Node4&#45;&gt;Node5</title>
<path fill="none" stroke="midnightblue" d="M287.026,-30.5825C302.749,-28.6714 319.805,-26.5983 335.988,-24.6313"/>
<polygon fill="midnightblue" stroke="midnightblue" points="336.427,-28.1038 345.931,-23.4227 335.582,-21.155 336.427,-28.1038"/>
</g>
</g>
</svg>
