<?xml version="1.0" encoding="UTF-8" standalone="no"?>
<!DOCTYPE svg PUBLIC "-//W3C//DTD SVG 1.1//EN"
 "http://www.w3.org/Graphics/SVG/1.1/DTD/svg11.dtd">
<!-- Generated by graphviz version 2.30.1 (20130214.1330)
 -->
<!-- Title: OmniOGL::LineStrip::Draw Pages: 1 -->
<svg width="526pt" height="132pt"
 viewBox="0.00 0.00 526.00 132.00" xmlns="http://www.w3.org/2000/svg" xmlns:xlink="http://www.w3.org/1999/xlink">
<g id="graph0" class="graph" transform="scale(1 1) rotate(0) translate(4 128)">
<title>OmniOGL::LineStrip::Draw</title>
<polygon fill="white" stroke="white" points="-4,5 -4,-128 523,-128 523,5 -4,5"/>
<!-- Node1 -->
<g id="node1" class="node"><title>Node1</title>
<polygon fill="#bfbfbf" stroke="black" points="0,-42 0,-72 104,-72 104,-42 0,-42"/>
<text text-anchor="start" x="8" y="-60" font-family="Helvetica,sans-Serif" font-size="10.00">OmniOGL::LineStrip</text>
<text text-anchor="middle" x="52" y="-49" font-family="Helvetica,sans-Serif" font-size="10.00">::Draw</text>
</g>
<!-- Node2 -->
<g id="node2" class="node"><title>Node2</title>
<g id="a_node2"><a xlink:href="class_omni_o_g_l_1_1_ren_obj.html#a25e6e5b1ba07d42f125c7bdd19a2e609" target="_top" xlink:title="This method lies at the heart of the rendering process, as it binds the object&#39;s relevant data to the...">
<polygon fill="white" stroke="black" points="140.5,-104.5 140.5,-123.5 309.5,-123.5 309.5,-104.5 140.5,-104.5"/>
<text text-anchor="middle" x="225" y="-111.5" font-family="Helvetica,sans-Serif" font-size="10.00">OmniOGL::RenObj::BindBufferData</text>
</a>
</g>
</g>
<!-- Node1&#45;&gt;Node2 -->
<g id="edge1" class="edge"><title>Node1&#45;&gt;Node2</title>
<path fill="none" stroke="midnightblue" d="M83.8524,-72.1809C100.24,-79.8053 120.895,-88.7295 140,-95 147.964,-97.6139 156.469,-99.9942 164.895,-102.118"/>
<polygon fill="midnightblue" stroke="midnightblue" points="164.171,-105.544 174.714,-104.491 165.816,-98.7395 164.171,-105.544"/>
</g>
<!-- Node3 -->
<g id="node3" class="node"><title>Node3</title>
<g id="a_node3"><a xlink:href="class_omni_o_g_l_1_1_ren_obj.html#a8a386f32d8e09e00a1ef45c55fd4c301" target="_top" xlink:title="This method attempts to handle all of the necessary OpenGL state changes in one place. The desired value of various states are stored as a local variable owned by the object. This method is called for each object each frame and simply sets each state to the position specified by the object.">
<polygon fill="white" stroke="black" points="156,-66.5 156,-85.5 294,-85.5 294,-66.5 156,-66.5"/>
<text text-anchor="middle" x="225" y="-73.5" font-family="Helvetica,sans-Serif" font-size="10.00">OmniOGL::RenObj::Prepare</text>
</a>
</g>
</g>
<!-- Node1&#45;&gt;Node3 -->
<g id="edge2" class="edge"><title>Node1&#45;&gt;Node3</title>
<path fill="none" stroke="midnightblue" d="M104.306,-62.7006C117.368,-64.1519 131.704,-65.7449 145.776,-67.3084"/>
<polygon fill="midnightblue" stroke="midnightblue" points="145.628,-70.8135 155.954,-68.4393 146.401,-63.8563 145.628,-70.8135"/>
</g>
<!-- Node6 -->
<g id="node6" class="node"><title>Node6</title>
<g id="a_node6"><a xlink:href="class_omni_o_g_l_1_1_scene.html#a7158f7aa2b63737ffc2d93f20f39fc85" target="_top" xlink:title="This method is intended to offer a simple way to set the translation matrix via a set of x...">
<polygon fill="white" stroke="black" points="152.5,-28.5 152.5,-47.5 297.5,-47.5 297.5,-28.5 152.5,-28.5"/>
<text text-anchor="middle" x="225" y="-35.5" font-family="Helvetica,sans-Serif" font-size="10.00">OmniOGL::Scene::sTranslate</text>
</a>
</g>
</g>
<!-- Node1&#45;&gt;Node6 -->
<g id="edge5" class="edge"><title>Node1&#45;&gt;Node6</title>
<path fill="none" stroke="midnightblue" d="M104.306,-51.2994C116.26,-49.9711 129.282,-48.5242 142.192,-47.0898"/>
<polygon fill="midnightblue" stroke="midnightblue" points="142.946,-50.5276 152.498,-45.9446 142.173,-43.5704 142.946,-50.5276"/>
</g>
<!-- Node7 -->
<g id="node7" class="node"><title>Node7</title>
<g id="a_node7"><a xlink:href="class_omni_o_g_l_1_1_scene.html#a3e40078b453c8199045775feb1ab18d1" target="_top" xlink:title="This method sends a combined translation*rotation*scale 4x4 matrix to the shader program, effectively configuring the size, orientation, and position of each vertex which is a candidate for rendering. The combined &quot;srt&quot; matrix is an attribute in the shader program, so it is sent via a vertex buffer object. Note that this method is capable of taking an array of matrices if a count is specified (second parameter), in order to accomodate instanced rendering. If no second parameter is passed, it is assumed that the first parameter only points to a single matrix. Scene::info.vbo">
<polygon fill="white" stroke="black" points="357.5,-0.5 357.5,-19.5 506.5,-19.5 506.5,-0.5 357.5,-0.5"/>
<text text-anchor="middle" x="432" y="-7.5" font-family="Helvetica,sans-Serif" font-size="10.00">OmniOGL::Scene::UpdateSRT</text>
</a>
</g>
</g>
<!-- Node1&#45;&gt;Node7 -->
<g id="edge7" class="edge"><title>Node1&#45;&gt;Node7</title>
<path fill="none" stroke="midnightblue" d="M80.2887,-41.8642C96.9877,-33.4301 119.096,-23.7044 140,-19 208.499,-3.58433 288.34,-2.24835 347.047,-4.2512"/>
<polygon fill="midnightblue" stroke="midnightblue" points="347.259,-7.76177 357.385,-4.64574 347.526,-0.766858 347.259,-7.76177"/>
</g>
<!-- Node4 -->
<g id="node4" class="node"><title>Node4</title>
<g id="a_node4"><a xlink:href="class_omni_o_g_l_1_1_scene.html#a0d76d3bd0b63be254c1b808e58c91aba" target="_top" xlink:title="A getter which retrieves a boolean value representing whether or not [regular] textures are enabled...">
<polygon fill="white" stroke="black" points="346,-85.5 346,-104.5 518,-104.5 518,-85.5 346,-85.5"/>
<text text-anchor="middle" x="432" y="-92.5" font-family="Helvetica,sans-Serif" font-size="10.00">OmniOGL::Scene::GlobalTextureEn</text>
</a>
</g>
</g>
<!-- Node3&#45;&gt;Node4 -->
<g id="edge3" class="edge"><title>Node3&#45;&gt;Node4</title>
<path fill="none" stroke="midnightblue" d="M294.262,-82.3267C307.571,-83.5602 321.75,-84.8744 335.748,-86.1718"/>
<polygon fill="midnightblue" stroke="midnightblue" points="335.613,-89.6742 345.893,-87.1121 336.259,-82.704 335.613,-89.6742"/>
</g>
<!-- Node5 -->
<g id="node5" class="node"><title>Node5</title>
<g id="a_node5"><a xlink:href="class_omni_o_g_l_1_1_scene.html#ad5369cbf93989073466f9b03d8dd8233" target="_top" xlink:title="A getter which retrieves a boolean value representing whether or not bump mapping is enabled...">
<polygon fill="white" stroke="black" points="354,-47.5 354,-66.5 510,-66.5 510,-47.5 354,-47.5"/>
<text text-anchor="middle" x="432" y="-54.5" font-family="Helvetica,sans-Serif" font-size="10.00">OmniOGL::Scene::BumpMapEn</text>
</a>
</g>
</g>
<!-- Node3&#45;&gt;Node5 -->
<g id="edge4" class="edge"><title>Node3&#45;&gt;Node5</title>
<path fill="none" stroke="midnightblue" d="M294.262,-69.6733C310.081,-68.2072 327.128,-66.6271 343.64,-65.0968"/>
<polygon fill="midnightblue" stroke="midnightblue" points="344.202,-68.5598 353.836,-64.1518 343.556,-61.5897 344.202,-68.5598"/>
</g>
<!-- Node6&#45;&gt;Node7 -->
<g id="edge6" class="edge"><title>Node6&#45;&gt;Node7</title>
<path fill="none" stroke="midnightblue" d="M295.69,-28.4814C313.514,-26.0468 332.819,-23.4101 351.112,-20.9115"/>
<polygon fill="midnightblue" stroke="midnightblue" points="351.721,-24.361 361.155,-19.5398 350.773,-17.4254 351.721,-24.361"/>
</g>
</g>
</svg>
