<?xml version="1.0" encoding="UTF-8" standalone="no"?>
<!DOCTYPE svg PUBLIC "-//W3C//DTD SVG 1.1//EN"
 "http://www.w3.org/Graphics/SVG/1.1/DTD/svg11.dtd">
<!-- Generated by graphviz version 2.30.1 (20130214.1330)
 -->
<!-- Title: OmniOGL::TextureMaster::MakeTexture Pages: 1 -->
<svg width="508pt" height="66pt"
 viewBox="0.00 0.00 508.00 66.00" xmlns="http://www.w3.org/2000/svg" xmlns:xlink="http://www.w3.org/1999/xlink">
<g id="graph0" class="graph" transform="scale(1 1) rotate(0) translate(4 62)">
<title>OmniOGL::TextureMaster::MakeTexture</title>
<polygon fill="white" stroke="white" points="-4,5 -4,-62 505,-62 505,5 -4,5"/>
<!-- Node1 -->
<g id="node1" class="node"><title>Node1</title>
<polygon fill="#bfbfbf" stroke="black" points="0,-14 0,-44 128,-44 128,-14 0,-14"/>
<text text-anchor="start" x="8" y="-32" font-family="Helvetica,sans-Serif" font-size="10.00">OmniOGL::TextureMaster</text>
<text text-anchor="middle" x="64" y="-21" font-family="Helvetica,sans-Serif" font-size="10.00">::MakeTexture</text>
</g>
<!-- Node2 -->
<g id="node2" class="node"><title>Node2</title>
<g id="a_node2"><a xlink:href="class_omni_o_g_l_1_1_ren_obj.html#af3c38be2a56405acab4dd354904f8576" target="_top" xlink:title="A setter which is more&#45;or&#45;less just a wrapper around the static function RenObj::MakeTexture(). This method sets the appropriate member with the value returned by MakeTexture(). The texture of an object is the image that is used to color the object&#39;s face(s). RenObj::SetTexture(std::string,bool), RenObj::MakeTexture(), RenObj::texture_sel">
<polygon fill="white" stroke="black" points="170,-38.5 170,-57.5 322,-57.5 322,-38.5 170,-38.5"/>
<text text-anchor="middle" x="246" y="-45.5" font-family="Helvetica,sans-Serif" font-size="10.00">OmniOGL::RenObj::SetTexture</text>
</a>
</g>
</g>
<!-- Node1&#45;&gt;Node2 -->
<g id="edge1" class="edge"><title>Node1&#45;&gt;Node2</title>
<path fill="none" stroke="midnightblue" d="M138.457,-36.7538C148.828,-37.8485 159.502,-38.9752 169.904,-40.0732"/>
<polygon fill="midnightblue" stroke="midnightblue" points="138.52,-33.2411 128.208,-35.672 137.785,-40.2024 138.52,-33.2411"/>
</g>
<!-- Node5 -->
<g id="node5" class="node"><title>Node5</title>
<g id="a_node5"><a xlink:href="class_omni_o_g_l_1_1_ren_obj.html#a3e92b18f8431eadeedd525dfd5f7f45c" target="_top" xlink:title="A setter which is more&#45;or&#45;less just a wrapper around the static function RenObj::MakeTexture(). This method sets the appropriate member with the value returned by MakeTexture(). The bump map is an image whose color components are used to alter the normals of each object to simulate small differences in lighting.RenObj::SetBumpMap(GLint), RenObj::MakeTexture(), RenObj::bump_map">
<polygon fill="white" stroke="black" points="164,-0.5 164,-19.5 328,-19.5 328,-0.5 164,-0.5"/>
<text text-anchor="middle" x="246" y="-7.5" font-family="Helvetica,sans-Serif" font-size="10.00">OmniOGL::RenObj::SetBumpMap</text>
</a>
</g>
</g>
<!-- Node1&#45;&gt;Node5 -->
<g id="edge4" class="edge"><title>Node1&#45;&gt;Node5</title>
<path fill="none" stroke="midnightblue" d="M138.364,-21.256C146.789,-20.3667 155.416,-19.4561 163.934,-18.5569"/>
<polygon fill="midnightblue" stroke="midnightblue" points="137.785,-17.7976 128.208,-22.328 138.52,-24.7589 137.785,-17.7976"/>
</g>
<!-- Node3 -->
<g id="node3" class="node"><title>Node3</title>
<g id="a_node3"><a xlink:href="_exec_8cpp.html#a38c5e7def3be6ea702581ee4a92b9cc0" target="_top" xlink:title="render">
<polygon fill="white" stroke="black" points="364,-19.5 364,-38.5 408,-38.5 408,-19.5 364,-19.5"/>
<text text-anchor="middle" x="386" y="-26.5" font-family="Helvetica,sans-Serif" font-size="10.00">render</text>
</a>
</g>
</g>
<!-- Node2&#45;&gt;Node3 -->
<g id="edge2" class="edge"><title>Node2&#45;&gt;Node3</title>
<path fill="none" stroke="midnightblue" d="M326.514,-37.0524C340.304,-35.1538 353.52,-33.3342 363.889,-31.9065"/>
<polygon fill="midnightblue" stroke="midnightblue" points="325.833,-33.613 316.404,-38.4443 326.788,-40.5476 325.833,-33.613"/>
</g>
<!-- Node4 -->
<g id="node4" class="node"><title>Node4</title>
<g id="a_node4"><a xlink:href="_exec_8cpp.html#a66e65252a6985e382838442f280f46ba" target="_top" xlink:title="WinMain">
<polygon fill="white" stroke="black" points="444.5,-19.5 444.5,-38.5 499.5,-38.5 499.5,-19.5 444.5,-19.5"/>
<text text-anchor="middle" x="472" y="-26.5" font-family="Helvetica,sans-Serif" font-size="10.00">WinMain</text>
</a>
</g>
</g>
<!-- Node3&#45;&gt;Node4 -->
<g id="edge3" class="edge"><title>Node3&#45;&gt;Node4</title>
<path fill="none" stroke="midnightblue" d="M418.253,-29C426.845,-29 436.081,-29 444.386,-29"/>
<polygon fill="midnightblue" stroke="midnightblue" points="418.197,-25.5001 408.197,-29 418.197,-32.5001 418.197,-25.5001"/>
</g>
<!-- Node5&#45;&gt;Node3 -->
<g id="edge5" class="edge"><title>Node5&#45;&gt;Node3</title>
<path fill="none" stroke="midnightblue" d="M326.514,-20.9476C340.304,-22.8462 353.52,-24.6658 363.889,-26.0935"/>
<polygon fill="midnightblue" stroke="midnightblue" points="326.788,-17.4524 316.404,-19.5557 325.833,-24.387 326.788,-17.4524"/>
</g>
</g>
</svg>
