<?xml version="1.0" encoding="UTF-8" standalone="no"?>
<!DOCTYPE svg PUBLIC "-//W3C//DTD SVG 1.1//EN"
 "http://www.w3.org/Graphics/SVG/1.1/DTD/svg11.dtd">
<!-- Generated by graphviz version 2.30.1 (20130214.1330)
 -->
<!-- Title: OmniOGL::Scene::AddLight Pages: 1 -->
<svg width="694pt" height="71pt"
 viewBox="0.00 0.00 694.00 71.00" xmlns="http://www.w3.org/2000/svg" xmlns:xlink="http://www.w3.org/1999/xlink">
<g id="graph0" class="graph" transform="scale(1 1) rotate(0) translate(4 67)">
<title>OmniOGL::Scene::AddLight</title>
<polygon fill="white" stroke="white" points="-4,5 -4,-67 691,-67 691,5 -4,5"/>
<!-- Node1 -->
<g id="node1" class="node"><title>Node1</title>
<polygon fill="#bfbfbf" stroke="black" points="0,-24.5 0,-43.5 138,-43.5 138,-24.5 0,-24.5"/>
<text text-anchor="middle" x="69" y="-31.5" font-family="Helvetica,sans-Serif" font-size="10.00">OmniOGL::Scene::AddLight</text>
</g>
<!-- Node2 -->
<g id="node2" class="node"><title>Node2</title>
<g id="a_node2"><a xlink:href="class_omni_o_g_l_1_1_ren_obj.html#a57b3b7f832a64b1402d9734e533e58f7" target="_top" xlink:title="A setter which sets the origin of the object in 3D space, to which all vertices are relative...">
<polygon fill="white" stroke="black" points="174.5,-43.5 174.5,-62.5 319.5,-62.5 319.5,-43.5 174.5,-43.5"/>
<text text-anchor="middle" x="247" y="-50.5" font-family="Helvetica,sans-Serif" font-size="10.00">OmniOGL::RenObj::SetOrigin</text>
</a>
</g>
</g>
<!-- Node1&#45;&gt;Node2 -->
<g id="edge1" class="edge"><title>Node1&#45;&gt;Node2</title>
<path fill="none" stroke="midnightblue" d="M138.046,-41.3459C146.598,-42.2691 155.415,-43.2209 164.151,-44.164"/>
<polygon fill="midnightblue" stroke="midnightblue" points="164.03,-47.6712 174.348,-45.2648 164.781,-40.7116 164.03,-47.6712"/>
</g>
<!-- Node3 -->
<g id="node3" class="node"><title>Node3</title>
<g id="a_node3"><a xlink:href="class_omni_o_g_l_1_1_scene.html#a63db7f91d326ad1a20741b31417b8148" target="_top" xlink:title="A template method which adds an renderable object of type T to the scene. It is assumed that T is a d...">
<polygon fill="white" stroke="black" points="174,-5.5 174,-24.5 320,-24.5 320,-5.5 174,-5.5"/>
<text text-anchor="middle" x="247" y="-12.5" font-family="Helvetica,sans-Serif" font-size="10.00">OmniOGL::Scene::AddObject</text>
</a>
</g>
</g>
<!-- Node1&#45;&gt;Node3 -->
<g id="edge2" class="edge"><title>Node1&#45;&gt;Node3</title>
<path fill="none" stroke="midnightblue" d="M138.046,-26.6541C146.459,-25.7459 155.128,-24.81 163.724,-23.882"/>
<polygon fill="midnightblue" stroke="midnightblue" points="164.196,-27.3516 173.762,-22.7984 163.444,-20.392 164.196,-27.3516"/>
</g>
<!-- Node4 -->
<g id="node4" class="node"><title>Node4</title>
<g id="a_node4"><a xlink:href="class_omni_o_g_l_1_1_section_collection.html#a07c937297ecc115e498cac570d6910bd" target="_top" xlink:title="OmniOGL::SectionCollection\l::AddObject">
<polygon fill="white" stroke="black" points="356,-0 356,-30 498,-30 498,-0 356,-0"/>
<text text-anchor="start" x="364" y="-18" font-family="Helvetica,sans-Serif" font-size="10.00">OmniOGL::SectionCollection</text>
<text text-anchor="middle" x="427" y="-7" font-family="Helvetica,sans-Serif" font-size="10.00">::AddObject</text>
</a>
</g>
</g>
<!-- Node3&#45;&gt;Node4 -->
<g id="edge3" class="edge"><title>Node3&#45;&gt;Node4</title>
<path fill="none" stroke="midnightblue" d="M320.143,-15C328.501,-15 337.066,-15 345.527,-15"/>
<polygon fill="midnightblue" stroke="midnightblue" points="345.775,-18.5001 355.774,-15 345.774,-11.5001 345.775,-18.5001"/>
</g>
<!-- Node5 -->
<g id="node5" class="node"><title>Node5</title>
<g id="a_node5"><a xlink:href="class_omni_o_g_l_1_1_section.html#a20b4cf2c6472d59e9967aa8dbad377a4" target="_top" xlink:title="Adds an object to the Section&#39;s collection (linked list) of objects. This method also increments Sect...">
<polygon fill="white" stroke="black" points="534.5,-5.5 534.5,-24.5 685.5,-24.5 685.5,-5.5 534.5,-5.5"/>
<text text-anchor="middle" x="610" y="-12.5" font-family="Helvetica,sans-Serif" font-size="10.00">OmniOGL::Section::AddObject</text>
</a>
</g>
</g>
<!-- Node4&#45;&gt;Node5 -->
<g id="edge4" class="edge"><title>Node4&#45;&gt;Node5</title>
<path fill="none" stroke="midnightblue" d="M498.238,-15C506.738,-15 515.488,-15 524.169,-15"/>
<polygon fill="midnightblue" stroke="midnightblue" points="524.308,-18.5001 534.308,-15 524.308,-11.5001 524.308,-18.5001"/>
</g>
</g>
</svg>
