<?xml version="1.0" encoding="UTF-8" standalone="no"?>
<!DOCTYPE svg PUBLIC "-//W3C//DTD SVG 1.1//EN"
 "http://www.w3.org/Graphics/SVG/1.1/DTD/svg11.dtd">
<!-- Generated by graphviz version 2.30.1 (20130214.1330)
 -->
<!-- Title: OmniOGL::LineStrip Pages: 1 -->
<svg width="971pt" height="800pt"
 viewBox="0.00 0.00 971.15 800.00" xmlns="http://www.w3.org/2000/svg" xmlns:xlink="http://www.w3.org/1999/xlink">
<g id="graph0" class="graph" transform="scale(1 1) rotate(0) translate(4 796)">
<title>OmniOGL::LineStrip</title>
<polygon fill="white" stroke="white" points="-4,5 -4,-796 968.147,-796 968.147,5 -4,5"/>
<!-- Node1 -->
<g id="node1" class="node"><title>Node1</title>
<polygon fill="#bfbfbf" stroke="black" points="533.147,-1 533.147,-113 637.147,-113 637.147,-1 533.147,-1"/>
<text text-anchor="middle" x="585.147" y="-101" font-family="Helvetica,sans-Serif" font-size="10.00">OmniOGL::LineStrip</text>
<polyline fill="none" stroke="black" points="533.147,-94 637.147,-94 "/>
<text text-anchor="middle" x="585.147" y="-82" font-family="Helvetica,sans-Serif" font-size="10.00"> </text>
<polyline fill="none" stroke="black" points="533.147,-75 637.147,-75 "/>
<text text-anchor="start" x="541.147" y="-63" font-family="Helvetica,sans-Serif" font-size="10.00">+ LineStrip()</text>
<text text-anchor="start" x="541.147" y="-52" font-family="Helvetica,sans-Serif" font-size="10.00">+ LineStrip()</text>
<text text-anchor="start" x="541.147" y="-41" font-family="Helvetica,sans-Serif" font-size="10.00">+ ~LineStrip()</text>
<text text-anchor="start" x="541.147" y="-30" font-family="Helvetica,sans-Serif" font-size="10.00">+ AddInstance()</text>
<text text-anchor="start" x="541.147" y="-19" font-family="Helvetica,sans-Serif" font-size="10.00">+ Draw()</text>
<text text-anchor="start" x="541.147" y="-8" font-family="Helvetica,sans-Serif" font-size="10.00">+ operator=()</text>
</g>
<!-- Node2 -->
<g id="node2" class="node"><title>Node2</title>
<g id="a_node2"><a xlink:href="class_omni_o_g_l_1_1_ren_obj.html" target="_top" xlink:title="The purely virtual base class which is used to represent a single object which will potentially be re...">
<polygon fill="white" stroke="black" points="444.147,-163 444.147,-539 566.147,-539 566.147,-163 444.147,-163"/>
<text text-anchor="middle" x="505.147" y="-527" font-family="Helvetica,sans-Serif" font-size="10.00">OmniOGL::RenObj</text>
<polyline fill="none" stroke="black" points="444.147,-520 566.147,-520 "/>
<text text-anchor="middle" x="505.147" y="-508" font-family="Helvetica,sans-Serif" font-size="10.00"> </text>
<polyline fill="none" stroke="black" points="444.147,-501 566.147,-501 "/>
<text text-anchor="start" x="452.147" y="-489" font-family="Helvetica,sans-Serif" font-size="10.00">+ RenObj()</text>
<text text-anchor="start" x="452.147" y="-478" font-family="Helvetica,sans-Serif" font-size="10.00">+ RenObj()</text>
<text text-anchor="start" x="452.147" y="-467" font-family="Helvetica,sans-Serif" font-size="10.00">+ ~RenObj()</text>
<text text-anchor="start" x="452.147" y="-456" font-family="Helvetica,sans-Serif" font-size="10.00">+ Draw()</text>
<text text-anchor="start" x="452.147" y="-445" font-family="Helvetica,sans-Serif" font-size="10.00">+ EnableLighting()</text>
<text text-anchor="start" x="452.147" y="-434" font-family="Helvetica,sans-Serif" font-size="10.00">+ GetForeground()</text>
<text text-anchor="start" x="452.147" y="-423" font-family="Helvetica,sans-Serif" font-size="10.00">+ GetInternalClipping()</text>
<text text-anchor="start" x="452.147" y="-412" font-family="Helvetica,sans-Serif" font-size="10.00">+ GetLightingEnable()</text>
<text text-anchor="start" x="452.147" y="-401" font-family="Helvetica,sans-Serif" font-size="10.00">+ GetOccupiedSection()</text>
<text text-anchor="start" x="452.147" y="-390" font-family="Helvetica,sans-Serif" font-size="10.00">+ GetOrigin()</text>
<text text-anchor="start" x="452.147" y="-379" font-family="Helvetica,sans-Serif" font-size="10.00">+ GetRenderID()</text>
<text text-anchor="start" x="452.147" y="-368" font-family="Helvetica,sans-Serif" font-size="10.00">+ GetSelectionRadius()</text>
<text text-anchor="start" x="452.147" y="-357" font-family="Helvetica,sans-Serif" font-size="10.00">+ GetTexture()</text>
<text text-anchor="start" x="452.147" y="-346" font-family="Helvetica,sans-Serif" font-size="10.00">+ operator=()</text>
<text text-anchor="start" x="452.147" y="-335" font-family="Helvetica,sans-Serif" font-size="10.00">+ SetBumpMap()</text>
<text text-anchor="start" x="452.147" y="-324" font-family="Helvetica,sans-Serif" font-size="10.00">+ SetBumpMap()</text>
<text text-anchor="start" x="452.147" y="-313" font-family="Helvetica,sans-Serif" font-size="10.00">+ SetColor()</text>
<text text-anchor="start" x="452.147" y="-302" font-family="Helvetica,sans-Serif" font-size="10.00">+ SetForeground()</text>
<text text-anchor="start" x="452.147" y="-291" font-family="Helvetica,sans-Serif" font-size="10.00">+ SetInternalClipping()</text>
<text text-anchor="start" x="452.147" y="-280" font-family="Helvetica,sans-Serif" font-size="10.00">+ SetLighting()</text>
<text text-anchor="start" x="452.147" y="-269" font-family="Helvetica,sans-Serif" font-size="10.00">+ SetOccupiedSection()</text>
<text text-anchor="start" x="452.147" y="-258" font-family="Helvetica,sans-Serif" font-size="10.00">+ SetOrigin()</text>
<text text-anchor="start" x="452.147" y="-247" font-family="Helvetica,sans-Serif" font-size="10.00">+ SetTexture()</text>
<text text-anchor="start" x="452.147" y="-236" font-family="Helvetica,sans-Serif" font-size="10.00">+ SetTexture()</text>
<text text-anchor="start" x="452.147" y="-225" font-family="Helvetica,sans-Serif" font-size="10.00"># BindBufferData()</text>
<text text-anchor="start" x="452.147" y="-214" font-family="Helvetica,sans-Serif" font-size="10.00"># factor_vec4()</text>
<text text-anchor="start" x="452.147" y="-203" font-family="Helvetica,sans-Serif" font-size="10.00"># Prepare()</text>
<text text-anchor="start" x="452.147" y="-192" font-family="Helvetica,sans-Serif" font-size="10.00"># ebo()</text>
<text text-anchor="start" x="452.147" y="-181" font-family="Helvetica,sans-Serif" font-size="10.00"># vao()</text>
<text text-anchor="start" x="452.147" y="-170" font-family="Helvetica,sans-Serif" font-size="10.00"># vbo()</text>
</a>
</g>
</g>
<!-- Node2&#45;&gt;Node1 -->
<g id="edge1" class="edge"><title>Node2&#45;&gt;Node1</title>
<path fill="none" stroke="midnightblue" d="M559.202,-152.7C563.074,-138.567 566.745,-125.169 570.041,-113.137"/>
<polygon fill="none" stroke="midnightblue" points="555.758,-152.025 556.491,-162.594 562.509,-153.874 555.758,-152.025"/>
</g>
<!-- Node3 -->
<g id="node3" class="node"><title>Node3</title>
<polygon fill="white" stroke="#bfbfbf" points="6.64712,-734.5 6.64712,-791.5 53.6471,-791.5 53.6471,-734.5 6.64712,-734.5"/>
<text text-anchor="middle" x="30.1471" y="-779.5" font-family="Helvetica,sans-Serif" font-size="10.00">GLfloat</text>
<polyline fill="none" stroke="#bfbfbf" points="6.64712,-772.5 53.6471,-772.5 "/>
<text text-anchor="middle" x="30.1471" y="-760.5" font-family="Helvetica,sans-Serif" font-size="10.00"> </text>
<polyline fill="none" stroke="#bfbfbf" points="6.64712,-753.5 53.6471,-753.5 "/>
<text text-anchor="middle" x="30.1471" y="-741.5" font-family="Helvetica,sans-Serif" font-size="10.00"> </text>
</g>
<!-- Node3&#45;&gt;Node2 -->
<g id="edge2" class="edge"><title>Node3&#45;&gt;Node2</title>
<path fill="none" stroke="#404040" d="M17.8761,-734.44C4.49879,-699.854 -11.7794,-639.988 14.1471,-598 106.218,-448.891 319.186,-387.085 431.987,-364.083"/>
<polygon fill="none" stroke="#404040" points="432.136,-364.053 437.244,-358.963 443.907,-361.721 438.799,-366.811 432.136,-364.053"/>
<text text-anchor="middle" x="52.1471" y="-656" font-family="Helvetica,sans-Serif" font-size="10.00"> #colors</text>
<text text-anchor="middle" x="52.1471" y="-645" font-family="Helvetica,sans-Serif" font-size="10.00">#normals</text>
<text text-anchor="middle" x="52.1471" y="-634" font-family="Helvetica,sans-Serif" font-size="10.00">#selection_radius</text>
<text text-anchor="middle" x="52.1471" y="-623" font-family="Helvetica,sans-Serif" font-size="10.00">#vertices</text>
<text text-anchor="middle" x="52.1471" y="-612" font-family="Helvetica,sans-Serif" font-size="10.00">#origin</text>
<text text-anchor="middle" x="52.1471" y="-601" font-family="Helvetica,sans-Serif" font-size="10.00">#texcoords</text>
</g>
<!-- Node4 -->
<g id="node4" class="node"><title>Node4</title>
<g id="a_node4"><a xlink:href="class_omni_o_g_l_1_1_material_lighting.html" target="_top" xlink:title="{OmniOGL::MaterialLighting\n||+ MaterialLighting()\l}">
<polygon fill="white" stroke="black" points="99.1471,-602.5 99.1471,-659.5 233.147,-659.5 233.147,-602.5 99.1471,-602.5"/>
<text text-anchor="middle" x="166.147" y="-647.5" font-family="Helvetica,sans-Serif" font-size="10.00">OmniOGL::MaterialLighting</text>
<polyline fill="none" stroke="black" points="99.1471,-640.5 233.147,-640.5 "/>
<text text-anchor="middle" x="166.147" y="-628.5" font-family="Helvetica,sans-Serif" font-size="10.00"> </text>
<polyline fill="none" stroke="black" points="99.1471,-621.5 233.147,-621.5 "/>
<text text-anchor="start" x="107.147" y="-609.5" font-family="Helvetica,sans-Serif" font-size="10.00">+ MaterialLighting()</text>
</a>
</g>
</g>
<!-- Node3&#45;&gt;Node4 -->
<g id="edge4" class="edge"><title>Node3&#45;&gt;Node4</title>
<path fill="none" stroke="#404040" d="M46.0411,-734.391C56.3777,-717.947 70.9233,-697.358 87.1471,-682 92.9285,-676.527 99.3944,-671.316 106.07,-666.467"/>
<polygon fill="none" stroke="#404040" points="106.078,-666.462 108.736,-659.758 115.946,-659.634 113.288,-666.337 106.078,-666.462"/>
<text text-anchor="middle" x="125.147" y="-707.5" font-family="Helvetica,sans-Serif" font-size="10.00"> +specular_factor</text>
<text text-anchor="middle" x="125.147" y="-696.5" font-family="Helvetica,sans-Serif" font-size="10.00">+shininess</text>
<text text-anchor="middle" x="125.147" y="-685.5" font-family="Helvetica,sans-Serif" font-size="10.00">+diffuse_factor</text>
</g>
<!-- Node4&#45;&gt;Node2 -->
<g id="edge3" class="edge"><title>Node4&#45;&gt;Node2</title>
<path fill="none" stroke="#404040" d="M181.755,-602.299C190.501,-588.144 202.235,-571.174 215.147,-558 281.04,-490.77 371.281,-430.566 433.512,-392.858"/>
<polygon fill="none" stroke="#404040" points="433.736,-392.723 436.818,-386.204 444.021,-386.542 440.939,-393.061 433.736,-392.723"/>
<text text-anchor="middle" x="235.147" y="-566.5" font-family="Helvetica,sans-Serif" font-size="10.00"> #lighting</text>
</g>
<!-- Node5 -->
<g id="node5" class="node"><title>Node5</title>
<polygon fill="white" stroke="#bfbfbf" points="394.647,-734.5 394.647,-791.5 429.647,-791.5 429.647,-734.5 394.647,-734.5"/>
<text text-anchor="middle" x="412.147" y="-779.5" font-family="Helvetica,sans-Serif" font-size="10.00">bool</text>
<polyline fill="none" stroke="#bfbfbf" points="394.647,-772.5 429.647,-772.5 "/>
<text text-anchor="middle" x="412.147" y="-760.5" font-family="Helvetica,sans-Serif" font-size="10.00"> </text>
<polyline fill="none" stroke="#bfbfbf" points="394.647,-753.5 429.647,-753.5 "/>
<text text-anchor="middle" x="412.147" y="-741.5" font-family="Helvetica,sans-Serif" font-size="10.00"> </text>
</g>
<!-- Node5&#45;&gt;Node4 -->
<g id="edge5" class="edge"><title>Node5&#45;&gt;Node4</title>
<path fill="none" stroke="#404040" d="M394.635,-760.224C349.701,-755.354 231.777,-740.493 202.147,-716 188.602,-704.803 180.038,-687.57 174.682,-671.62"/>
<polygon fill="none" stroke="#404040" points="174.587,-671.301 169.049,-666.683 171.181,-659.794 176.72,-664.412 174.587,-671.301"/>
<text text-anchor="middle" x="228.647" y="-702" font-family="Helvetica,sans-Serif" font-size="10.00"> +enabled</text>
<text text-anchor="middle" x="228.647" y="-691" font-family="Helvetica,sans-Serif" font-size="10.00">+black_only</text>
</g>
<!-- Node7 -->
<g id="node7" class="node"><title>Node7</title>
<g id="a_node7"><a xlink:href="class_omni_o_g_l_1_1_blend_function.html" target="_top" xlink:title="{OmniOGL::BlendFunction\n||+ BlendFunction()\l}">
<polygon fill="white" stroke="black" points="526.147,-602.5 526.147,-659.5 654.147,-659.5 654.147,-602.5 526.147,-602.5"/>
<text text-anchor="middle" x="590.147" y="-647.5" font-family="Helvetica,sans-Serif" font-size="10.00">OmniOGL::BlendFunction</text>
<polyline fill="none" stroke="black" points="526.147,-640.5 654.147,-640.5 "/>
<text text-anchor="middle" x="590.147" y="-628.5" font-family="Helvetica,sans-Serif" font-size="10.00"> </text>
<polyline fill="none" stroke="black" points="526.147,-621.5 654.147,-621.5 "/>
<text text-anchor="start" x="534.147" y="-609.5" font-family="Helvetica,sans-Serif" font-size="10.00">+ BlendFunction()</text>
</a>
</g>
</g>
<!-- Node5&#45;&gt;Node7 -->
<g id="edge9" class="edge"><title>Node5&#45;&gt;Node7</title>
<path fill="none" stroke="#404040" d="M430.009,-744.726C438.308,-736.356 448.097,-725.976 456.147,-716 467.604,-701.802 465.189,-693.748 479.147,-682 481.065,-680.385 496.816,-673.097 515.879,-664.562"/>
<polygon fill="none" stroke="#404040" points="516.113,-664.459 519.965,-658.363 527.074,-659.575 523.221,-665.67 516.113,-664.459"/>
<text text-anchor="middle" x="500.647" y="-696.5" font-family="Helvetica,sans-Serif" font-size="10.00"> +enabled</text>
</g>
<!-- Node8 -->
<g id="node8" class="node"><title>Node8</title>
<g id="a_node8"><a xlink:href="class_omni_o_g_l_1_1_stencil_function.html" target="_top" xlink:title="{OmniOGL::StencilFunction\n||+ StencilFunction()\l}">
<polygon fill="white" stroke="black" points="672.147,-602.5 672.147,-659.5 806.147,-659.5 806.147,-602.5 672.147,-602.5"/>
<text text-anchor="middle" x="739.147" y="-647.5" font-family="Helvetica,sans-Serif" font-size="10.00">OmniOGL::StencilFunction</text>
<polyline fill="none" stroke="black" points="672.147,-640.5 806.147,-640.5 "/>
<text text-anchor="middle" x="739.147" y="-628.5" font-family="Helvetica,sans-Serif" font-size="10.00"> </text>
<polyline fill="none" stroke="black" points="672.147,-621.5 806.147,-621.5 "/>
<text text-anchor="start" x="680.147" y="-609.5" font-family="Helvetica,sans-Serif" font-size="10.00">+ StencilFunction()</text>
</a>
</g>
</g>
<!-- Node5&#45;&gt;Node8 -->
<g id="edge12" class="edge"><title>Node5&#45;&gt;Node8</title>
<path fill="none" stroke="#404040" d="M429.817,-761.7C463.506,-760.258 537.782,-752.801 585.147,-716 598.817,-705.379 590.672,-692.867 604.147,-682 625.488,-664.79 637.369,-673.332 663.147,-664 663.269,-663.956 663.391,-663.912 663.513,-663.867"/>
<polygon fill="none" stroke="#404040" points="663.827,-663.749 668.037,-657.894 675.06,-659.528 670.851,-665.383 663.827,-663.749"/>
<text text-anchor="middle" x="625.647" y="-696.5" font-family="Helvetica,sans-Serif" font-size="10.00"> +enabled</text>
</g>
<!-- Node5&#45;&gt;Node2 -->
<g id="edge13" class="edge"><title>Node5&#45;&gt;Node2</title>
<path fill="none" stroke="#404040" d="M394.482,-755.357C364.09,-742.841 302.801,-712.574 278.147,-664 264.871,-637.843 267.468,-625.32 278.147,-598 309.382,-518.092 380.087,-448.534 434.349,-403.965"/>
<polygon fill="none" stroke="#404040" points="434.605,-403.759 436.753,-396.875 443.933,-396.21 441.785,-403.094 434.605,-403.759"/>
<text text-anchor="middle" x="323.647" y="-639.5" font-family="Helvetica,sans-Serif" font-size="10.00"> #in_foreground</text>
<text text-anchor="middle" x="323.647" y="-628.5" font-family="Helvetica,sans-Serif" font-size="10.00">#en_collision</text>
<text text-anchor="middle" x="323.647" y="-617.5" font-family="Helvetica,sans-Serif" font-size="10.00">#en_internal_clipping</text>
</g>
<!-- Node9 -->
<g id="node9" class="node"><title>Node9</title>
<g id="a_node9"><a xlink:href="class_omni_o_g_l_1_1_depth_function.html" target="_top" xlink:title="{OmniOGL::DepthFunction\n||+ DepthFunction()\l}">
<polygon fill="white" stroke="black" points="378.647,-602.5 378.647,-659.5 507.647,-659.5 507.647,-602.5 378.647,-602.5"/>
<text text-anchor="middle" x="443.147" y="-647.5" font-family="Helvetica,sans-Serif" font-size="10.00">OmniOGL::DepthFunction</text>
<polyline fill="none" stroke="black" points="378.647,-640.5 507.647,-640.5 "/>
<text text-anchor="middle" x="443.147" y="-628.5" font-family="Helvetica,sans-Serif" font-size="10.00"> </text>
<polyline fill="none" stroke="black" points="378.647,-621.5 507.647,-621.5 "/>
<text text-anchor="start" x="386.647" y="-609.5" font-family="Helvetica,sans-Serif" font-size="10.00">+ DepthFunction()</text>
</a>
</g>
</g>
<!-- Node5&#45;&gt;Node9 -->
<g id="edge16" class="edge"><title>Node5&#45;&gt;Node9</title>
<path fill="none" stroke="#404040" d="M408.985,-734.459C408.048,-718.792 408.332,-698.97 413.147,-682 414.239,-678.153 415.707,-674.303 417.411,-670.542"/>
<polygon fill="none" stroke="#404040" points="417.553,-670.269 416.769,-663.101 423.085,-659.621 423.869,-666.789 417.553,-670.269"/>
<text text-anchor="middle" x="434.647" y="-696.5" font-family="Helvetica,sans-Serif" font-size="10.00"> +enabled</text>
</g>
<!-- Node6 -->
<g id="node6" class="node"><title>Node6</title>
<polygon fill="white" stroke="#bfbfbf" points="686.147,-734.5 686.147,-791.5 726.147,-791.5 726.147,-734.5 686.147,-734.5"/>
<text text-anchor="middle" x="706.147" y="-779.5" font-family="Helvetica,sans-Serif" font-size="10.00">GLint</text>
<polyline fill="none" stroke="#bfbfbf" points="686.147,-772.5 726.147,-772.5 "/>
<text text-anchor="middle" x="706.147" y="-760.5" font-family="Helvetica,sans-Serif" font-size="10.00"> </text>
<polyline fill="none" stroke="#bfbfbf" points="686.147,-753.5 726.147,-753.5 "/>
<text text-anchor="middle" x="706.147" y="-741.5" font-family="Helvetica,sans-Serif" font-size="10.00"> </text>
</g>
<!-- Node6&#45;&gt;Node2 -->
<g id="edge6" class="edge"><title>Node6&#45;&gt;Node2</title>
<path fill="none" stroke="#404040" d="M726.165,-751.348C740.927,-742.925 760.993,-730.241 776.147,-716 816.398,-678.175 846.901,-643.195 815.147,-598 785.001,-555.093 755.055,-570.58 704.147,-558 651.461,-544.981 623.856,-572.406 576.036,-539.458"/>
<polygon fill="none" stroke="#404040" points="575.771,-539.258 568.572,-538.84 566.189,-532.034 573.388,-532.452 575.771,-539.258"/>
<text text-anchor="middle" x="857.647" y="-639.5" font-family="Helvetica,sans-Serif" font-size="10.00"> #texture_sel</text>
<text text-anchor="middle" x="857.647" y="-628.5" font-family="Helvetica,sans-Serif" font-size="10.00">#render_id</text>
<text text-anchor="middle" x="857.647" y="-617.5" font-family="Helvetica,sans-Serif" font-size="10.00">#bump_map</text>
</g>
<!-- Node6&#45;&gt;Node7 -->
<g id="edge8" class="edge"><title>Node6&#45;&gt;Node7</title>
<path fill="none" stroke="#404040" d="M685.989,-735.513C681.34,-729.192 676.488,-722.415 672.147,-716 662.193,-701.29 662.842,-695.368 651.147,-682 646.808,-677.04 641.945,-672.178 636.908,-667.552"/>
<polygon fill="none" stroke="#404040" points="636.755,-667.419 629.606,-666.474 627.728,-659.511 634.877,-660.456 636.755,-667.419"/>
<text text-anchor="middle" x="693.647" y="-696.5" font-family="Helvetica,sans-Serif" font-size="10.00"> +function</text>
</g>
<!-- Node6&#45;&gt;Node8 -->
<g id="edge11" class="edge"><title>Node6&#45;&gt;Node8</title>
<path fill="none" stroke="#404040" d="M713.146,-734.43C717.805,-716.075 723.998,-691.678 729.171,-671.298"/>
<polygon fill="none" stroke="#404040" points="729.206,-671.161 726.805,-664.361 732.159,-659.53 734.559,-666.33 729.206,-671.161"/>
<text text-anchor="middle" x="749.147" y="-707.5" font-family="Helvetica,sans-Serif" font-size="10.00"> +mask</text>
<text text-anchor="middle" x="749.147" y="-696.5" font-family="Helvetica,sans-Serif" font-size="10.00">+operation</text>
<text text-anchor="middle" x="749.147" y="-685.5" font-family="Helvetica,sans-Serif" font-size="10.00">+function</text>
</g>
<!-- Node6&#45;&gt;Node9 -->
<g id="edge15" class="edge"><title>Node6&#45;&gt;Node9</title>
<path fill="none" stroke="#404040" d="M685.913,-760.631C653.38,-757.529 588.692,-747.561 545.147,-716 530.375,-705.293 535.243,-694.702 522.147,-682 516.642,-676.66 510.478,-671.588 504.085,-666.867"/>
<polygon fill="none" stroke="#404040" points="503.746,-666.63 496.537,-666.467 493.914,-659.749 501.123,-659.912 503.746,-666.63"/>
<text text-anchor="middle" x="565.147" y="-702" font-family="Helvetica,sans-Serif" font-size="10.00"> +mask</text>
<text text-anchor="middle" x="565.147" y="-691" font-family="Helvetica,sans-Serif" font-size="10.00">+function</text>
</g>
<!-- Node7&#45;&gt;Node2 -->
<g id="edge7" class="edge"><title>Node7&#45;&gt;Node2</title>
<path fill="none" stroke="#404040" d="M581.686,-602.328C577.49,-588.602 572.015,-570.697 565.921,-550.767"/>
<polygon fill="none" stroke="#404040" points="565.881,-550.634 560.301,-546.066 562.372,-539.159 567.952,-543.727 565.881,-550.634"/>
<text text-anchor="middle" x="596.647" y="-566.5" font-family="Helvetica,sans-Serif" font-size="10.00"> #blending</text>
</g>
<!-- Node8&#45;&gt;Node2 -->
<g id="edge10" class="edge"><title>Node8&#45;&gt;Node2</title>
<path fill="none" stroke="#404040" d="M699.2,-602.486C677.335,-588.131 649.414,-570.92 623.147,-558 602.703,-547.944 591.239,-556.13 575.147,-540 574.955,-539.807 574.763,-539.614 574.572,-539.42"/>
<polygon fill="none" stroke="#404040" points="574.386,-539.216 567.391,-537.465 566.317,-530.334 573.312,-532.085 574.386,-539.216"/>
<text text-anchor="middle" x="681.647" y="-566.5" font-family="Helvetica,sans-Serif" font-size="10.00"> #stencil</text>
</g>
<!-- Node9&#45;&gt;Node2 -->
<g id="edge14" class="edge"><title>Node9&#45;&gt;Node2</title>
<path fill="none" stroke="#404040" d="M449.319,-602.328C452.365,-588.666 456.336,-570.863 460.756,-551.045"/>
<polygon fill="none" stroke="#404040" points="460.795,-550.871 458.197,-544.144 463.407,-539.159 466.005,-545.886 460.795,-550.871"/>
<text text-anchor="middle" x="474.647" y="-566.5" font-family="Helvetica,sans-Serif" font-size="10.00"> #depth</text>
</g>
<!-- Node10 -->
<g id="node10" class="node"><title>Node10</title>
<polygon fill="white" stroke="#bfbfbf" points="917.647,-602.5 917.647,-659.5 962.647,-659.5 962.647,-602.5 917.647,-602.5"/>
<text text-anchor="middle" x="940.147" y="-647.5" font-family="Helvetica,sans-Serif" font-size="10.00">GLuint</text>
<polyline fill="none" stroke="#bfbfbf" points="917.647,-640.5 962.647,-640.5 "/>
<text text-anchor="middle" x="940.147" y="-628.5" font-family="Helvetica,sans-Serif" font-size="10.00"> </text>
<polyline fill="none" stroke="#bfbfbf" points="917.647,-621.5 962.647,-621.5 "/>
<text text-anchor="middle" x="940.147" y="-609.5" font-family="Helvetica,sans-Serif" font-size="10.00"> </text>
</g>
<!-- Node10&#45;&gt;Node2 -->
<g id="edge17" class="edge"><title>Node10&#45;&gt;Node2</title>
<path fill="none" stroke="#404040" d="M917.354,-603.108C901.902,-586.93 880.005,-567.655 856.147,-558 801.203,-535.765 643.271,-572.996 576.578,-539.061"/>
<polygon fill="none" stroke="#404040" points="576.524,-539.027 569.317,-539.269 566.322,-532.709 573.529,-532.467 576.524,-539.027"/>
<text text-anchor="middle" x="920.147" y="-572" font-family="Helvetica,sans-Serif" font-size="10.00"> #lengths</text>
<text text-anchor="middle" x="920.147" y="-561" font-family="Helvetica,sans-Serif" font-size="10.00">#my_section</text>
</g>
<!-- Node11 -->
<g id="node11" class="node"><title>Node11</title>
<polygon fill="white" stroke="#bfbfbf" points="584.147,-322.5 584.147,-379.5 640.147,-379.5 640.147,-322.5 584.147,-322.5"/>
<text text-anchor="middle" x="612.147" y="-367.5" font-family="Helvetica,sans-Serif" font-size="10.00">GLushort</text>
<polyline fill="none" stroke="#bfbfbf" points="584.147,-360.5 640.147,-360.5 "/>
<text text-anchor="middle" x="612.147" y="-348.5" font-family="Helvetica,sans-Serif" font-size="10.00"> </text>
<polyline fill="none" stroke="#bfbfbf" points="584.147,-341.5 640.147,-341.5 "/>
<text text-anchor="middle" x="612.147" y="-329.5" font-family="Helvetica,sans-Serif" font-size="10.00"> </text>
</g>
<!-- Node11&#45;&gt;Node1 -->
<g id="edge18" class="edge"><title>Node11&#45;&gt;Node1</title>
<path fill="none" stroke="#404040" d="M609.583,-322.266C605.436,-277.423 597.143,-187.73 591.374,-125.347"/>
<polygon fill="none" stroke="#404040" points="591.361,-125.205 586.826,-119.598 590.256,-113.256 594.792,-118.862 591.361,-125.205"/>
<text text-anchor="middle" x="625.147" y="-135.5" font-family="Helvetica,sans-Serif" font-size="10.00"> #num_chunks</text>
</g>
</g>
</svg>
