<?xml version="1.0" encoding="UTF-8" standalone="no"?>
<!DOCTYPE svg PUBLIC "-//W3C//DTD SVG 1.1//EN"
 "http://www.w3.org/Graphics/SVG/1.1/DTD/svg11.dtd">
<!-- Generated by graphviz version 2.30.1 (20130214.1330)
 -->
<!-- Title: OmniOGL::RenObj Pages: 1 -->
<!--zoomable 638 -->
<svg id="main" version="1.1" xmlns="http://www.w3.org/2000/svg" xmlns:xlink="http://www.w3.org/1999/xlink" xml:space="preserve" onload="init(evt)">
        <defs>
                <circle id="rim" cx="0" cy="0" r="7"/>
                <circle id="rim2" cx="0" cy="0" r="3.5"/>
                <g id="zoomPlus">
                        <use xlink:href="#rim" fill="#404040">
                                <set attributeName="fill" to="#808080" begin="zoomplus.mouseover" end="zoomplus.mouseout"/>
                        </use>
                        <path d="M-4,0h8M0,-4v8" fill="none" stroke="white" stroke-width="1.5" pointer-events="none"/>
                </g>
                <g id="zoomMin">
                        <use xlink:href="#rim" fill="#404040">
                                <set attributeName="fill" to="#808080" begin="zoomminus.mouseover" end="zoomminus.mouseout"/>
                        </use>
                        <path d="M-4,0h8" fill="none" stroke="white" stroke-width="1.5" pointer-events="none"/>
                </g>
                <g id="dirArrow">
                        <path fill="none" stroke="white" stroke-width="1.5" d="M0,-3.0v7 M-2.5,-0.5L0,-3.0L2.5,-0.5"/>
                </g>
               <g id="resetDef">
                       <use xlink:href="#rim2" fill="#404040">
                               <set attributeName="fill" to="#808080" begin="reset.mouseover" end="reset.mouseout"/>
                       </use>
               </g>
        </defs>

<script type="text/javascript">
var viewWidth = 971;
var viewHeight = 638;
var sectionId = 'dynsection-1';
</script>
<script xlink:href="svgpan.js"/>
<svg id="graph" class="graph">
<g id="viewport">
<title>OmniOGL::RenObj</title>
<polygon fill="white" stroke="white" points="-4,5 -4,-634 968.231,-634 968.231,5 -4,5"/>
<!-- Node1 -->
<g id="node1" class="node"><title>Node1</title>
<polygon fill="#bfbfbf" stroke="black" points="452.231,-1 452.231,-377 574.231,-377 574.231,-1 452.231,-1"/>
<text text-anchor="middle" x="513.231" y="-365" font-family="Helvetica,sans-Serif" font-size="10.00">OmniOGL::RenObj</text>
<polyline fill="none" stroke="black" points="452.231,-358 574.231,-358 "/>
<text text-anchor="middle" x="513.231" y="-346" font-family="Helvetica,sans-Serif" font-size="10.00"> </text>
<polyline fill="none" stroke="black" points="452.231,-339 574.231,-339 "/>
<text text-anchor="start" x="460.231" y="-327" font-family="Helvetica,sans-Serif" font-size="10.00">+ RenObj()</text>
<text text-anchor="start" x="460.231" y="-316" font-family="Helvetica,sans-Serif" font-size="10.00">+ RenObj()</text>
<text text-anchor="start" x="460.231" y="-305" font-family="Helvetica,sans-Serif" font-size="10.00">+ ~RenObj()</text>
<text text-anchor="start" x="460.231" y="-294" font-family="Helvetica,sans-Serif" font-size="10.00">+ Draw()</text>
<text text-anchor="start" x="460.231" y="-283" font-family="Helvetica,sans-Serif" font-size="10.00">+ EnableLighting()</text>
<text text-anchor="start" x="460.231" y="-272" font-family="Helvetica,sans-Serif" font-size="10.00">+ GetForeground()</text>
<text text-anchor="start" x="460.231" y="-261" font-family="Helvetica,sans-Serif" font-size="10.00">+ GetInternalClipping()</text>
<text text-anchor="start" x="460.231" y="-250" font-family="Helvetica,sans-Serif" font-size="10.00">+ GetLightingEnable()</text>
<text text-anchor="start" x="460.231" y="-239" font-family="Helvetica,sans-Serif" font-size="10.00">+ GetOccupiedSection()</text>
<text text-anchor="start" x="460.231" y="-228" font-family="Helvetica,sans-Serif" font-size="10.00">+ GetOrigin()</text>
<text text-anchor="start" x="460.231" y="-217" font-family="Helvetica,sans-Serif" font-size="10.00">+ GetRenderID()</text>
<text text-anchor="start" x="460.231" y="-206" font-family="Helvetica,sans-Serif" font-size="10.00">+ GetSelectionRadius()</text>
<text text-anchor="start" x="460.231" y="-195" font-family="Helvetica,sans-Serif" font-size="10.00">+ GetTexture()</text>
<text text-anchor="start" x="460.231" y="-184" font-family="Helvetica,sans-Serif" font-size="10.00">+ operator=()</text>
<text text-anchor="start" x="460.231" y="-173" font-family="Helvetica,sans-Serif" font-size="10.00">+ SetBumpMap()</text>
<text text-anchor="start" x="460.231" y="-162" font-family="Helvetica,sans-Serif" font-size="10.00">+ SetBumpMap()</text>
<text text-anchor="start" x="460.231" y="-151" font-family="Helvetica,sans-Serif" font-size="10.00">+ SetColor()</text>
<text text-anchor="start" x="460.231" y="-140" font-family="Helvetica,sans-Serif" font-size="10.00">+ SetForeground()</text>
<text text-anchor="start" x="460.231" y="-129" font-family="Helvetica,sans-Serif" font-size="10.00">+ SetInternalClipping()</text>
<text text-anchor="start" x="460.231" y="-118" font-family="Helvetica,sans-Serif" font-size="10.00">+ SetLighting()</text>
<text text-anchor="start" x="460.231" y="-107" font-family="Helvetica,sans-Serif" font-size="10.00">+ SetOccupiedSection()</text>
<text text-anchor="start" x="460.231" y="-96" font-family="Helvetica,sans-Serif" font-size="10.00">+ SetOrigin()</text>
<text text-anchor="start" x="460.231" y="-85" font-family="Helvetica,sans-Serif" font-size="10.00">+ SetTexture()</text>
<text text-anchor="start" x="460.231" y="-74" font-family="Helvetica,sans-Serif" font-size="10.00">+ SetTexture()</text>
<text text-anchor="start" x="460.231" y="-63" font-family="Helvetica,sans-Serif" font-size="10.00"># BindBufferData()</text>
<text text-anchor="start" x="460.231" y="-52" font-family="Helvetica,sans-Serif" font-size="10.00"># factor_vec4()</text>
<text text-anchor="start" x="460.231" y="-41" font-family="Helvetica,sans-Serif" font-size="10.00"># Prepare()</text>
<text text-anchor="start" x="460.231" y="-30" font-family="Helvetica,sans-Serif" font-size="10.00"># ebo()</text>
<text text-anchor="start" x="460.231" y="-19" font-family="Helvetica,sans-Serif" font-size="10.00"># vao()</text>
<text text-anchor="start" x="460.231" y="-8" font-family="Helvetica,sans-Serif" font-size="10.00"># vbo()</text>
</g>
<!-- Node2 -->
<g id="node2" class="node"><title>Node2</title>
<polygon fill="white" stroke="#bfbfbf" points="6.73107,-572.5 6.73107,-629.5 53.7311,-629.5 53.7311,-572.5 6.73107,-572.5"/>
<text text-anchor="middle" x="30.2311" y="-617.5" font-family="Helvetica,sans-Serif" font-size="10.00">GLfloat</text>
<polyline fill="none" stroke="#bfbfbf" points="6.73107,-610.5 53.7311,-610.5 "/>
<text text-anchor="middle" x="30.2311" y="-598.5" font-family="Helvetica,sans-Serif" font-size="10.00"> </text>
<polyline fill="none" stroke="#bfbfbf" points="6.73107,-591.5 53.7311,-591.5 "/>
<text text-anchor="middle" x="30.2311" y="-579.5" font-family="Helvetica,sans-Serif" font-size="10.00"> </text>
</g>
<!-- Node2&#45;&gt;Node1 -->
<g id="edge1" class="edge"><title>Node2&#45;&gt;Node1</title>
<path fill="none" stroke="#404040" d="M17.9169,-572.413C4.49462,-537.799 -11.8306,-477.905 14.2311,-436 108.235,-284.851 325.482,-223.837 439.823,-201.515"/>
<polygon fill="none" stroke="#404040" points="440.111,-201.46 445.262,-196.413 451.901,-199.226 446.751,-204.273 440.111,-201.46"/>
<text text-anchor="middle" x="52.2311" y="-494" font-family="Helvetica,sans-Serif" font-size="10.00"> #colors</text>
<text text-anchor="middle" x="52.2311" y="-483" font-family="Helvetica,sans-Serif" font-size="10.00">#normals</text>
<text text-anchor="middle" x="52.2311" y="-472" font-family="Helvetica,sans-Serif" font-size="10.00">#selection_radius</text>
<text text-anchor="middle" x="52.2311" y="-461" font-family="Helvetica,sans-Serif" font-size="10.00">#vertices</text>
<text text-anchor="middle" x="52.2311" y="-450" font-family="Helvetica,sans-Serif" font-size="10.00">#origin</text>
<text text-anchor="middle" x="52.2311" y="-439" font-family="Helvetica,sans-Serif" font-size="10.00">#texcoords</text>
</g>
<!-- Node3 -->
<g id="node3" class="node"><title>Node3</title>
<g id="a_node3"><a xlink:href="class_omni_o_g_l_1_1_material_lighting.html" target="_top" xlink:title="{OmniOGL::MaterialLighting\n||+ MaterialLighting()\l}">
<polygon fill="white" stroke="black" points="99.2311,-440.5 99.2311,-497.5 233.231,-497.5 233.231,-440.5 99.2311,-440.5"/>
<text text-anchor="middle" x="166.231" y="-485.5" font-family="Helvetica,sans-Serif" font-size="10.00">OmniOGL::MaterialLighting</text>
<polyline fill="none" stroke="black" points="99.2311,-478.5 233.231,-478.5 "/>
<text text-anchor="middle" x="166.231" y="-466.5" font-family="Helvetica,sans-Serif" font-size="10.00"> </text>
<polyline fill="none" stroke="black" points="99.2311,-459.5 233.231,-459.5 "/>
<text text-anchor="start" x="107.231" y="-447.5" font-family="Helvetica,sans-Serif" font-size="10.00">+ MaterialLighting()</text>
</a>
</g>
</g>
<!-- Node2&#45;&gt;Node3 -->
<g id="edge3" class="edge"><title>Node2&#45;&gt;Node3</title>
<path fill="none" stroke="#404040" d="M46.1251,-572.391C56.4617,-555.947 71.0072,-535.358 87.2311,-520 93.0125,-514.527 99.4784,-509.316 106.154,-504.467"/>
<polygon fill="none" stroke="#404040" points="106.162,-504.462 108.82,-497.758 116.03,-497.634 113.372,-504.337 106.162,-504.462"/>
<text text-anchor="middle" x="125.231" y="-545.5" font-family="Helvetica,sans-Serif" font-size="10.00"> +specular_factor</text>
<text text-anchor="middle" x="125.231" y="-534.5" font-family="Helvetica,sans-Serif" font-size="10.00">+shininess</text>
<text text-anchor="middle" x="125.231" y="-523.5" font-family="Helvetica,sans-Serif" font-size="10.00">+diffuse_factor</text>
</g>
<!-- Node3&#45;&gt;Node1 -->
<g id="edge2" class="edge"><title>Node3&#45;&gt;Node1</title>
<path fill="none" stroke="#404040" d="M181.77,-440.231C190.497,-426.057 202.235,-409.091 215.231,-396 283.543,-327.188 377.652,-266.546 441.713,-229.19"/>
<polygon fill="none" stroke="#404040" points="441.735,-229.178 444.926,-222.711 452.123,-223.171 448.931,-229.637 441.735,-229.178"/>
<text text-anchor="middle" x="235.231" y="-404.5" font-family="Helvetica,sans-Serif" font-size="10.00"> #lighting</text>
</g>
<!-- Node4 -->
<g id="node4" class="node"><title>Node4</title>
<polygon fill="white" stroke="#bfbfbf" points="394.731,-572.5 394.731,-629.5 429.731,-629.5 429.731,-572.5 394.731,-572.5"/>
<text text-anchor="middle" x="412.231" y="-617.5" font-family="Helvetica,sans-Serif" font-size="10.00">bool</text>
<polyline fill="none" stroke="#bfbfbf" points="394.731,-610.5 429.731,-610.5 "/>
<text text-anchor="middle" x="412.231" y="-598.5" font-family="Helvetica,sans-Serif" font-size="10.00"> </text>
<polyline fill="none" stroke="#bfbfbf" points="394.731,-591.5 429.731,-591.5 "/>
<text text-anchor="middle" x="412.231" y="-579.5" font-family="Helvetica,sans-Serif" font-size="10.00"> </text>
</g>
<!-- Node4&#45;&gt;Node3 -->
<g id="edge4" class="edge"><title>Node4&#45;&gt;Node3</title>
<path fill="none" stroke="#404040" d="M394.719,-598.224C349.785,-593.354 231.861,-578.493 202.231,-554 188.686,-542.803 180.122,-525.57 174.766,-509.62"/>
<polygon fill="none" stroke="#404040" points="174.671,-509.301 169.133,-504.683 171.265,-497.794 176.803,-502.412 174.671,-509.301"/>
<text text-anchor="middle" x="228.731" y="-540" font-family="Helvetica,sans-Serif" font-size="10.00"> +enabled</text>
<text text-anchor="middle" x="228.731" y="-529" font-family="Helvetica,sans-Serif" font-size="10.00">+black_only</text>
</g>
<!-- Node6 -->
<g id="node6" class="node"><title>Node6</title>
<g id="a_node6"><a xlink:href="class_omni_o_g_l_1_1_blend_function.html" target="_top" xlink:title="{OmniOGL::BlendFunction\n||+ BlendFunction()\l}">
<polygon fill="white" stroke="black" points="526.231,-440.5 526.231,-497.5 654.231,-497.5 654.231,-440.5 526.231,-440.5"/>
<text text-anchor="middle" x="590.231" y="-485.5" font-family="Helvetica,sans-Serif" font-size="10.00">OmniOGL::BlendFunction</text>
<polyline fill="none" stroke="black" points="526.231,-478.5 654.231,-478.5 "/>
<text text-anchor="middle" x="590.231" y="-466.5" font-family="Helvetica,sans-Serif" font-size="10.00"> </text>
<polyline fill="none" stroke="black" points="526.231,-459.5 654.231,-459.5 "/>
<text text-anchor="start" x="534.231" y="-447.5" font-family="Helvetica,sans-Serif" font-size="10.00">+ BlendFunction()</text>
</a>
</g>
</g>
<!-- Node4&#45;&gt;Node6 -->
<g id="edge8" class="edge"><title>Node4&#45;&gt;Node6</title>
<path fill="none" stroke="#404040" d="M430.093,-582.726C438.392,-574.356 448.181,-563.976 456.231,-554 467.688,-539.802 465.273,-531.748 479.231,-520 481.149,-518.385 496.9,-511.097 515.963,-502.562"/>
<polygon fill="none" stroke="#404040" points="516.197,-502.459 520.049,-496.363 527.158,-497.575 523.305,-503.67 516.197,-502.459"/>
<text text-anchor="middle" x="500.731" y="-534.5" font-family="Helvetica,sans-Serif" font-size="10.00"> +enabled</text>
</g>
<!-- Node7 -->
<g id="node7" class="node"><title>Node7</title>
<g id="a_node7"><a xlink:href="class_omni_o_g_l_1_1_stencil_function.html" target="_top" xlink:title="{OmniOGL::StencilFunction\n||+ StencilFunction()\l}">
<polygon fill="white" stroke="black" points="672.231,-440.5 672.231,-497.5 806.231,-497.5 806.231,-440.5 672.231,-440.5"/>
<text text-anchor="middle" x="739.231" y="-485.5" font-family="Helvetica,sans-Serif" font-size="10.00">OmniOGL::StencilFunction</text>
<polyline fill="none" stroke="black" points="672.231,-478.5 806.231,-478.5 "/>
<text text-anchor="middle" x="739.231" y="-466.5" font-family="Helvetica,sans-Serif" font-size="10.00"> </text>
<polyline fill="none" stroke="black" points="672.231,-459.5 806.231,-459.5 "/>
<text text-anchor="start" x="680.231" y="-447.5" font-family="Helvetica,sans-Serif" font-size="10.00">+ StencilFunction()</text>
</a>
</g>
</g>
<!-- Node4&#45;&gt;Node7 -->
<g id="edge11" class="edge"><title>Node4&#45;&gt;Node7</title>
<path fill="none" stroke="#404040" d="M429.901,-599.7C463.59,-598.258 537.866,-590.801 585.231,-554 598.9,-543.379 590.756,-530.867 604.231,-520 625.572,-502.79 637.453,-511.332 663.231,-502 663.353,-501.956 663.475,-501.912 663.597,-501.867"/>
<polygon fill="none" stroke="#404040" points="663.911,-501.749 668.121,-495.894 675.144,-497.528 670.935,-503.383 663.911,-501.749"/>
<text text-anchor="middle" x="625.731" y="-534.5" font-family="Helvetica,sans-Serif" font-size="10.00"> +enabled</text>
</g>
<!-- Node4&#45;&gt;Node1 -->
<g id="edge12" class="edge"><title>Node4&#45;&gt;Node1</title>
<path fill="none" stroke="#404040" d="M394.566,-593.357C364.174,-580.841 302.885,-550.574 278.231,-502 264.955,-475.843 267.316,-463.227 278.231,-436 311.16,-353.858 386.044,-283.6 442.492,-239.453"/>
<polygon fill="none" stroke="#404040" points="442.586,-239.381 444.898,-232.55 452.092,-232.056 449.78,-238.887 442.586,-239.381"/>
<text text-anchor="middle" x="323.731" y="-477.5" font-family="Helvetica,sans-Serif" font-size="10.00"> #in_foreground</text>
<text text-anchor="middle" x="323.731" y="-466.5" font-family="Helvetica,sans-Serif" font-size="10.00">#en_collision</text>
<text text-anchor="middle" x="323.731" y="-455.5" font-family="Helvetica,sans-Serif" font-size="10.00">#en_internal_clipping</text>
</g>
<!-- Node8 -->
<g id="node8" class="node"><title>Node8</title>
<g id="a_node8"><a xlink:href="class_omni_o_g_l_1_1_depth_function.html" target="_top" xlink:title="{OmniOGL::DepthFunction\n||+ DepthFunction()\l}">
<polygon fill="white" stroke="black" points="378.731,-440.5 378.731,-497.5 507.731,-497.5 507.731,-440.5 378.731,-440.5"/>
<text text-anchor="middle" x="443.231" y="-485.5" font-family="Helvetica,sans-Serif" font-size="10.00">OmniOGL::DepthFunction</text>
<polyline fill="none" stroke="black" points="378.731,-478.5 507.731,-478.5 "/>
<text text-anchor="middle" x="443.231" y="-466.5" font-family="Helvetica,sans-Serif" font-size="10.00"> </text>
<polyline fill="none" stroke="black" points="378.731,-459.5 507.731,-459.5 "/>
<text text-anchor="start" x="386.731" y="-447.5" font-family="Helvetica,sans-Serif" font-size="10.00">+ DepthFunction()</text>
</a>
</g>
</g>
<!-- Node4&#45;&gt;Node8 -->
<g id="edge15" class="edge"><title>Node4&#45;&gt;Node8</title>
<path fill="none" stroke="#404040" d="M409.069,-572.459C408.132,-556.792 408.416,-536.97 413.231,-520 414.323,-516.153 415.791,-512.303 417.495,-508.542"/>
<polygon fill="none" stroke="#404040" points="417.637,-508.269 416.853,-501.101 423.169,-497.621 423.953,-504.789 417.637,-508.269"/>
<text text-anchor="middle" x="434.731" y="-534.5" font-family="Helvetica,sans-Serif" font-size="10.00"> +enabled</text>
</g>
<!-- Node5 -->
<g id="node5" class="node"><title>Node5</title>
<polygon fill="white" stroke="#bfbfbf" points="686.231,-572.5 686.231,-629.5 726.231,-629.5 726.231,-572.5 686.231,-572.5"/>
<text text-anchor="middle" x="706.231" y="-617.5" font-family="Helvetica,sans-Serif" font-size="10.00">GLint</text>
<polyline fill="none" stroke="#bfbfbf" points="686.231,-610.5 726.231,-610.5 "/>
<text text-anchor="middle" x="706.231" y="-598.5" font-family="Helvetica,sans-Serif" font-size="10.00"> </text>
<polyline fill="none" stroke="#bfbfbf" points="686.231,-591.5 726.231,-591.5 "/>
<text text-anchor="middle" x="706.231" y="-579.5" font-family="Helvetica,sans-Serif" font-size="10.00"> </text>
</g>
<!-- Node5&#45;&gt;Node1 -->
<g id="edge5" class="edge"><title>Node5&#45;&gt;Node1</title>
<path fill="none" stroke="#404040" d="M726.249,-589.348C741.011,-580.925 761.077,-568.241 776.231,-554 816.482,-516.175 838.938,-485.888 815.231,-436 767.953,-336.511 658.573,-264.034 585.261,-224.473"/>
<polygon fill="none" stroke="#404040" points="584.869,-224.265 577.695,-224.987 574.269,-218.641 581.444,-217.92 584.869,-224.265"/>
<text text-anchor="middle" x="853.731" y="-477.5" font-family="Helvetica,sans-Serif" font-size="10.00"> #texture_sel</text>
<text text-anchor="middle" x="853.731" y="-466.5" font-family="Helvetica,sans-Serif" font-size="10.00">#render_id</text>
<text text-anchor="middle" x="853.731" y="-455.5" font-family="Helvetica,sans-Serif" font-size="10.00">#bump_map</text>
</g>
<!-- Node5&#45;&gt;Node6 -->
<g id="edge7" class="edge"><title>Node5&#45;&gt;Node6</title>
<path fill="none" stroke="#404040" d="M686.073,-573.513C681.424,-567.192 676.572,-560.415 672.231,-554 662.277,-539.29 662.926,-533.368 651.231,-520 646.892,-515.04 642.029,-510.178 636.991,-505.552"/>
<polygon fill="none" stroke="#404040" points="636.839,-505.419 629.69,-504.474 627.812,-497.511 634.961,-498.456 636.839,-505.419"/>
<text text-anchor="middle" x="693.731" y="-534.5" font-family="Helvetica,sans-Serif" font-size="10.00"> +function</text>
</g>
<!-- Node5&#45;&gt;Node7 -->
<g id="edge10" class="edge"><title>Node5&#45;&gt;Node7</title>
<path fill="none" stroke="#404040" d="M713.23,-572.43C717.889,-554.075 724.082,-529.678 729.255,-509.298"/>
<polygon fill="none" stroke="#404040" points="729.29,-509.161 726.889,-502.361 732.243,-497.53 734.643,-504.33 729.29,-509.161"/>
<text text-anchor="middle" x="749.231" y="-545.5" font-family="Helvetica,sans-Serif" font-size="10.00"> +mask</text>
<text text-anchor="middle" x="749.231" y="-534.5" font-family="Helvetica,sans-Serif" font-size="10.00">+operation</text>
<text text-anchor="middle" x="749.231" y="-523.5" font-family="Helvetica,sans-Serif" font-size="10.00">+function</text>
</g>
<!-- Node5&#45;&gt;Node8 -->
<g id="edge14" class="edge"><title>Node5&#45;&gt;Node8</title>
<path fill="none" stroke="#404040" d="M685.997,-598.631C653.464,-595.529 588.776,-585.561 545.231,-554 530.459,-543.293 535.327,-532.702 522.231,-520 516.726,-514.66 510.562,-509.588 504.169,-504.867"/>
<polygon fill="none" stroke="#404040" points="503.83,-504.63 496.62,-504.467 493.998,-497.749 501.207,-497.912 503.83,-504.63"/>
<text text-anchor="middle" x="565.231" y="-540" font-family="Helvetica,sans-Serif" font-size="10.00"> +mask</text>
<text text-anchor="middle" x="565.231" y="-529" font-family="Helvetica,sans-Serif" font-size="10.00">+function</text>
</g>
<!-- Node6&#45;&gt;Node1 -->
<g id="edge6" class="edge"><title>Node6&#45;&gt;Node1</title>
<path fill="none" stroke="#404040" d="M582.567,-440.328C578.765,-426.602 573.805,-408.697 568.285,-388.767"/>
<polygon fill="none" stroke="#404040" points="568.273,-388.723 562.817,-384.009 565.07,-377.159 570.526,-381.873 568.273,-388.723"/>
<text text-anchor="middle" x="598.731" y="-404.5" font-family="Helvetica,sans-Serif" font-size="10.00"> #blending</text>
</g>
<!-- Node7&#45;&gt;Node1 -->
<g id="edge9" class="edge"><title>Node7&#45;&gt;Node1</title>
<path fill="none" stroke="#404040" d="M716.735,-440.328C685.653,-402.094 628.205,-331.429 582.254,-274.904"/>
<polygon fill="none" stroke="#404040" points="581.971,-274.556 575.083,-272.424 574.402,-265.245 581.29,-267.378 581.971,-274.556"/>
<text text-anchor="middle" x="714.731" y="-404.5" font-family="Helvetica,sans-Serif" font-size="10.00"> #stencil</text>
</g>
<!-- Node8&#45;&gt;Node1 -->
<g id="edge13" class="edge"><title>Node8&#45;&gt;Node1</title>
<path fill="none" stroke="#404040" d="M450.199,-440.328C453.639,-426.666 458.122,-408.863 463.112,-389.045"/>
<polygon fill="none" stroke="#404040" points="463.175,-388.796 460.761,-382 466.105,-377.159 468.519,-383.954 463.175,-388.796"/>
<text text-anchor="middle" x="476.731" y="-404.5" font-family="Helvetica,sans-Serif" font-size="10.00"> #depth</text>
</g>
<!-- Node9 -->
<g id="node9" class="node"><title>Node9</title>
<polygon fill="white" stroke="#bfbfbf" points="917.731,-440.5 917.731,-497.5 962.731,-497.5 962.731,-440.5 917.731,-440.5"/>
<text text-anchor="middle" x="940.231" y="-485.5" font-family="Helvetica,sans-Serif" font-size="10.00">GLuint</text>
<polyline fill="none" stroke="#bfbfbf" points="917.731,-478.5 962.731,-478.5 "/>
<text text-anchor="middle" x="940.231" y="-466.5" font-family="Helvetica,sans-Serif" font-size="10.00"> </text>
<polyline fill="none" stroke="#bfbfbf" points="917.731,-459.5 962.731,-459.5 "/>
<text text-anchor="middle" x="940.231" y="-447.5" font-family="Helvetica,sans-Serif" font-size="10.00"> </text>
</g>
<!-- Node9&#45;&gt;Node1 -->
<g id="edge16" class="edge"><title>Node9&#45;&gt;Node1</title>
<path fill="none" stroke="#404040" d="M917.572,-446.712C901.145,-431.752 878.07,-411.689 856.231,-396 766.486,-331.526 655.826,-267.633 584.901,-228.497"/>
<polygon fill="none" stroke="#404040" points="584.816,-228.45 577.631,-229.065 574.301,-222.669 581.485,-222.054 584.816,-228.45"/>
<text text-anchor="middle" x="911.231" y="-410" font-family="Helvetica,sans-Serif" font-size="10.00"> #lengths</text>
<text text-anchor="middle" x="911.231" y="-399" font-family="Helvetica,sans-Serif" font-size="10.00">#my_section</text>
</g>
</g>
</svg>
        <g id="navigator" transform="translate(0 0)" fill="#404254">
                <rect fill="#f2f5e9" fill-opacity="0.5" stroke="#606060" stroke-width=".5" x="0" y="0" width="60" height="60"/>
                <use id="zoomplus" xlink:href="#zoomPlus" x="17" y="9" onmousedown="handleZoom(evt,'in')"/>
                <use id="zoomminus" xlink:href="#zoomMin" x="42" y="9" onmousedown="handleZoom(evt,'out')"/>
                <use id="reset" xlink:href="#resetDef" x="30" y="36" onmousedown="handleReset()"/>
                <g id="arrowUp" xlink:href="#dirArrow" transform="translate(30 24)" onmousedown="handlePan(0,-1)">
                  <use xlink:href="#rim" fill="#404040">
                        <set attributeName="fill" to="#808080" begin="arrowUp.mouseover" end="arrowUp.mouseout"/>
                  </use>
                  <path fill="none" stroke="white" stroke-width="1.5" d="M0,-3.0v7 M-2.5,-0.5L0,-3.0L2.5,-0.5"/>
                </g>
                <g id="arrowRight" xlink:href="#dirArrow" transform="rotate(90) translate(36 -43)" onmousedown="handlePan(1,0)">
                  <use xlink:href="#rim" fill="#404040">
                        <set attributeName="fill" to="#808080" begin="arrowRight.mouseover" end="arrowRight.mouseout"/>
                  </use>
                  <path fill="none" stroke="white" stroke-width="1.5" d="M0,-3.0v7 M-2.5,-0.5L0,-3.0L2.5,-0.5"/>
                </g>
                <g id="arrowDown" xlink:href="#dirArrow" transform="rotate(180) translate(-30 -48)" onmousedown="handlePan(0,1)">
                  <use xlink:href="#rim" fill="#404040">
                        <set attributeName="fill" to="#808080" begin="arrowDown.mouseover" end="arrowDown.mouseout"/>
                  </use>
                  <path fill="none" stroke="white" stroke-width="1.5" d="M0,-3.0v7 M-2.5,-0.5L0,-3.0L2.5,-0.5"/>
                </g>
                <g id="arrowLeft" xlink:href="#dirArrow" transform="rotate(270) translate(-36 17)" onmousedown="handlePan(-1,0)">
                  <use xlink:href="#rim" fill="#404040">
                        <set attributeName="fill" to="#808080" begin="arrowLeft.mouseover" end="arrowLeft.mouseout"/>
                  </use>
                  <path fill="none" stroke="white" stroke-width="1.5" d="M0,-3.0v7 M-2.5,-0.5L0,-3.0L2.5,-0.5"/>
                </g>
        </g>
        <svg viewBox="0 0 15 15" width="100%" height="30px" preserveAspectRatio="xMaxYMin meet">
         <g id="arrow_out" transform="scale(0.3 0.3)">
          <a xlink:href="class_omni_o_g_l_1_1_ren_obj__coll__graph_org.svg" target="_base">
           <rect id="button" ry="5" rx="5" y="6" x="6" height="38" width="38"
                fill="#f2f5e9" fill-opacity="0.5" stroke="#606060" stroke-width="1.0"/>
           <path id="arrow"
             d="M 11.500037,31.436501 C 11.940474,20.09759 22.043105,11.32322 32.158766,21.979434 L 37.068811,17.246167 C 37.068811,17.246167 37.088388,32 37.088388,32 L 22.160133,31.978069 C 22.160133,31.978069 26.997745,27.140456 26.997745,27.140456 C 18.528582,18.264221 13.291696,25.230495 11.500037,31.436501 z"
             style="fill:#404040;"/>
          </a>
         </g>
        </svg>
</svg>
