<?xml version="1.0" encoding="UTF-8" standalone="no"?>
<!DOCTYPE svg PUBLIC "-//W3C//DTD SVG 1.1//EN"
 "http://www.w3.org/Graphics/SVG/1.1/DTD/svg11.dtd">
<!-- Generated by graphviz version 2.30.1 (20130214.1330)
 -->
<!-- Title: OmniOGL::BlockArray::GetCenter Pages: 1 -->
<svg width="294pt" height="38pt"
 viewBox="0.00 0.00 294.00 38.00" xmlns="http://www.w3.org/2000/svg" xmlns:xlink="http://www.w3.org/1999/xlink">
<g id="graph0" class="graph" transform="scale(1 1) rotate(0) translate(4 34)">
<title>OmniOGL::BlockArray::GetCenter</title>
<polygon fill="white" stroke="white" points="-4,5 -4,-34 291,-34 291,5 -4,5"/>
<!-- Node1 -->
<g id="node1" class="node"><title>Node1</title>
<polygon fill="#bfbfbf" stroke="black" points="0,-0 0,-30 114,-30 114,-0 0,-0"/>
<text text-anchor="start" x="8" y="-18" font-family="Helvetica,sans-Serif" font-size="10.00">OmniOGL::BlockArray</text>
<text text-anchor="middle" x="57" y="-7" font-family="Helvetica,sans-Serif" font-size="10.00">::GetCenter</text>
</g>
<!-- Node2 -->
<g id="node2" class="node"><title>Node2</title>
<g id="a_node2"><a xlink:href="_exec_8cpp.html#a38c5e7def3be6ea702581ee4a92b9cc0" target="_top" xlink:title="render">
<polygon fill="white" stroke="black" points="150,-5.5 150,-24.5 194,-24.5 194,-5.5 150,-5.5"/>
<text text-anchor="middle" x="172" y="-12.5" font-family="Helvetica,sans-Serif" font-size="10.00">render</text>
</a>
</g>
</g>
<!-- Node1&#45;&gt;Node2 -->
<g id="edge1" class="edge"><title>Node1&#45;&gt;Node2</title>
<path fill="none" stroke="midnightblue" d="M124.277,-15C133.507,-15 142.379,-15 149.865,-15"/>
<polygon fill="midnightblue" stroke="midnightblue" points="124.169,-11.5001 114.169,-15 124.169,-18.5001 124.169,-11.5001"/>
</g>
<!-- Node3 -->
<g id="node3" class="node"><title>Node3</title>
<g id="a_node3"><a xlink:href="_exec_8cpp.html#a66e65252a6985e382838442f280f46ba" target="_top" xlink:title="WinMain">
<polygon fill="white" stroke="black" points="230.5,-5.5 230.5,-24.5 285.5,-24.5 285.5,-5.5 230.5,-5.5"/>
<text text-anchor="middle" x="258" y="-12.5" font-family="Helvetica,sans-Serif" font-size="10.00">WinMain</text>
</a>
</g>
</g>
<!-- Node2&#45;&gt;Node3 -->
<g id="edge2" class="edge"><title>Node2&#45;&gt;Node3</title>
<path fill="none" stroke="midnightblue" d="M204.253,-15C212.845,-15 222.081,-15 230.386,-15"/>
<polygon fill="midnightblue" stroke="midnightblue" points="204.197,-11.5001 194.197,-15 204.197,-18.5001 204.197,-11.5001"/>
</g>
</g>
</svg>
