<?xml version="1.0" encoding="UTF-8" standalone="no"?>
<!DOCTYPE svg PUBLIC "-//W3C//DTD SVG 1.1//EN"
 "http://www.w3.org/Graphics/SVG/1.1/DTD/svg11.dtd">
<!-- Generated by graphviz version 2.30.1 (20130214.1330)
 -->
<!-- Title: OmniOGL::Floor Pages: 1 -->
<svg width="974pt" height="790pt"
 viewBox="0.00 0.00 974.00 790.00" xmlns="http://www.w3.org/2000/svg" xmlns:xlink="http://www.w3.org/1999/xlink">
<g id="graph0" class="graph" transform="scale(1 1) rotate(0) translate(4 786)">
<title>OmniOGL::Floor</title>
<polygon fill="white" stroke="white" points="-4,5 -4,-786 971,-786 971,5 -4,5"/>
<!-- Node1 -->
<g id="node1" class="node"><title>Node1</title>
<polygon fill="#bfbfbf" stroke="black" points="32,-1 32,-113 120,-113 120,-1 32,-1"/>
<text text-anchor="middle" x="76" y="-101" font-family="Helvetica,sans-Serif" font-size="10.00">OmniOGL::Floor</text>
<polyline fill="none" stroke="black" points="32,-94 120,-94 "/>
<text text-anchor="middle" x="76" y="-82" font-family="Helvetica,sans-Serif" font-size="10.00"> </text>
<polyline fill="none" stroke="black" points="32,-75 120,-75 "/>
<text text-anchor="start" x="40" y="-63" font-family="Helvetica,sans-Serif" font-size="10.00">+ Floor()</text>
<text text-anchor="start" x="40" y="-52" font-family="Helvetica,sans-Serif" font-size="10.00">+ Floor()</text>
<text text-anchor="start" x="40" y="-41" font-family="Helvetica,sans-Serif" font-size="10.00">+ Floor()</text>
<text text-anchor="start" x="40" y="-30" font-family="Helvetica,sans-Serif" font-size="10.00">+ ~Floor()</text>
<text text-anchor="start" x="40" y="-19" font-family="Helvetica,sans-Serif" font-size="10.00">+ Draw()</text>
<text text-anchor="start" x="40" y="-8" font-family="Helvetica,sans-Serif" font-size="10.00">+ operator=()</text>
</g>
<!-- Node2 -->
<g id="node2" class="node"><title>Node2</title>
<g id="a_node2"><a xlink:href="class_omni_o_g_l_1_1_ren_obj.html" target="_top" xlink:title="The purely virtual base class which is used to represent a single object which will potentially be re...">
<polygon fill="white" stroke="black" points="290,-153 290,-529 412,-529 412,-153 290,-153"/>
<text text-anchor="middle" x="351" y="-517" font-family="Helvetica,sans-Serif" font-size="10.00">OmniOGL::RenObj</text>
<polyline fill="none" stroke="black" points="290,-510 412,-510 "/>
<text text-anchor="middle" x="351" y="-498" font-family="Helvetica,sans-Serif" font-size="10.00"> </text>
<polyline fill="none" stroke="black" points="290,-491 412,-491 "/>
<text text-anchor="start" x="298" y="-479" font-family="Helvetica,sans-Serif" font-size="10.00">+ RenObj()</text>
<text text-anchor="start" x="298" y="-468" font-family="Helvetica,sans-Serif" font-size="10.00">+ RenObj()</text>
<text text-anchor="start" x="298" y="-457" font-family="Helvetica,sans-Serif" font-size="10.00">+ ~RenObj()</text>
<text text-anchor="start" x="298" y="-446" font-family="Helvetica,sans-Serif" font-size="10.00">+ Draw()</text>
<text text-anchor="start" x="298" y="-435" font-family="Helvetica,sans-Serif" font-size="10.00">+ EnableLighting()</text>
<text text-anchor="start" x="298" y="-424" font-family="Helvetica,sans-Serif" font-size="10.00">+ GetForeground()</text>
<text text-anchor="start" x="298" y="-413" font-family="Helvetica,sans-Serif" font-size="10.00">+ GetInternalClipping()</text>
<text text-anchor="start" x="298" y="-402" font-family="Helvetica,sans-Serif" font-size="10.00">+ GetLightingEnable()</text>
<text text-anchor="start" x="298" y="-391" font-family="Helvetica,sans-Serif" font-size="10.00">+ GetOccupiedSection()</text>
<text text-anchor="start" x="298" y="-380" font-family="Helvetica,sans-Serif" font-size="10.00">+ GetOrigin()</text>
<text text-anchor="start" x="298" y="-369" font-family="Helvetica,sans-Serif" font-size="10.00">+ GetRenderID()</text>
<text text-anchor="start" x="298" y="-358" font-family="Helvetica,sans-Serif" font-size="10.00">+ GetSelectionRadius()</text>
<text text-anchor="start" x="298" y="-347" font-family="Helvetica,sans-Serif" font-size="10.00">+ GetTexture()</text>
<text text-anchor="start" x="298" y="-336" font-family="Helvetica,sans-Serif" font-size="10.00">+ operator=()</text>
<text text-anchor="start" x="298" y="-325" font-family="Helvetica,sans-Serif" font-size="10.00">+ SetBumpMap()</text>
<text text-anchor="start" x="298" y="-314" font-family="Helvetica,sans-Serif" font-size="10.00">+ SetBumpMap()</text>
<text text-anchor="start" x="298" y="-303" font-family="Helvetica,sans-Serif" font-size="10.00">+ SetColor()</text>
<text text-anchor="start" x="298" y="-292" font-family="Helvetica,sans-Serif" font-size="10.00">+ SetForeground()</text>
<text text-anchor="start" x="298" y="-281" font-family="Helvetica,sans-Serif" font-size="10.00">+ SetInternalClipping()</text>
<text text-anchor="start" x="298" y="-270" font-family="Helvetica,sans-Serif" font-size="10.00">+ SetLighting()</text>
<text text-anchor="start" x="298" y="-259" font-family="Helvetica,sans-Serif" font-size="10.00">+ SetOccupiedSection()</text>
<text text-anchor="start" x="298" y="-248" font-family="Helvetica,sans-Serif" font-size="10.00">+ SetOrigin()</text>
<text text-anchor="start" x="298" y="-237" font-family="Helvetica,sans-Serif" font-size="10.00">+ SetTexture()</text>
<text text-anchor="start" x="298" y="-226" font-family="Helvetica,sans-Serif" font-size="10.00">+ SetTexture()</text>
<text text-anchor="start" x="298" y="-215" font-family="Helvetica,sans-Serif" font-size="10.00"># BindBufferData()</text>
<text text-anchor="start" x="298" y="-204" font-family="Helvetica,sans-Serif" font-size="10.00"># factor_vec4()</text>
<text text-anchor="start" x="298" y="-193" font-family="Helvetica,sans-Serif" font-size="10.00"># Prepare()</text>
<text text-anchor="start" x="298" y="-182" font-family="Helvetica,sans-Serif" font-size="10.00"># ebo()</text>
<text text-anchor="start" x="298" y="-171" font-family="Helvetica,sans-Serif" font-size="10.00"># vao()</text>
<text text-anchor="start" x="298" y="-160" font-family="Helvetica,sans-Serif" font-size="10.00"># vbo()</text>
</a>
</g>
</g>
<!-- Node2&#45;&gt;Node1 -->
<g id="edge1" class="edge"><title>Node2&#45;&gt;Node1</title>
<path fill="none" stroke="midnightblue" d="M282.916,-270.183C232.094,-218.068 164.123,-148.366 120.198,-103.323"/>
<polygon fill="none" stroke="midnightblue" points="280.481,-272.699 289.969,-277.415 285.493,-267.812 280.481,-272.699"/>
</g>
<!-- Node3 -->
<g id="node3" class="node"><title>Node3</title>
<polygon fill="white" stroke="#bfbfbf" points="-0.5,-724.5 -0.5,-781.5 46.5,-781.5 46.5,-724.5 -0.5,-724.5"/>
<text text-anchor="middle" x="23" y="-769.5" font-family="Helvetica,sans-Serif" font-size="10.00">GLfloat</text>
<polyline fill="none" stroke="#bfbfbf" points="-0.5,-762.5 46.5,-762.5 "/>
<text text-anchor="middle" x="23" y="-750.5" font-family="Helvetica,sans-Serif" font-size="10.00"> </text>
<polyline fill="none" stroke="#bfbfbf" points="-0.5,-743.5 46.5,-743.5 "/>
<text text-anchor="middle" x="23" y="-731.5" font-family="Helvetica,sans-Serif" font-size="10.00"> </text>
</g>
<!-- Node3&#45;&gt;Node2 -->
<g id="edge2" class="edge"><title>Node3&#45;&gt;Node2</title>
<path fill="none" stroke="#404040" d="M17.8515,-724.337C12.9282,-690.173 9.2287,-631.278 32,-588 85.6972,-485.945 202.565,-413.3 278.949,-374.519"/>
<polygon fill="none" stroke="#404040" points="279.177,-374.405 282.757,-368.145 289.912,-369.043 286.332,-375.302 279.177,-374.405"/>
<text text-anchor="middle" x="70" y="-646" font-family="Helvetica,sans-Serif" font-size="10.00"> #colors</text>
<text text-anchor="middle" x="70" y="-635" font-family="Helvetica,sans-Serif" font-size="10.00">#normals</text>
<text text-anchor="middle" x="70" y="-624" font-family="Helvetica,sans-Serif" font-size="10.00">#selection_radius</text>
<text text-anchor="middle" x="70" y="-613" font-family="Helvetica,sans-Serif" font-size="10.00">#vertices</text>
<text text-anchor="middle" x="70" y="-602" font-family="Helvetica,sans-Serif" font-size="10.00">#origin</text>
<text text-anchor="middle" x="70" y="-591" font-family="Helvetica,sans-Serif" font-size="10.00">#texcoords</text>
</g>
<!-- Node4 -->
<g id="node4" class="node"><title>Node4</title>
<g id="a_node4"><a xlink:href="class_omni_o_g_l_1_1_material_lighting.html" target="_top" xlink:title="{OmniOGL::MaterialLighting\n||+ MaterialLighting()\l}">
<polygon fill="white" stroke="black" points="117,-592.5 117,-649.5 251,-649.5 251,-592.5 117,-592.5"/>
<text text-anchor="middle" x="184" y="-637.5" font-family="Helvetica,sans-Serif" font-size="10.00">OmniOGL::MaterialLighting</text>
<polyline fill="none" stroke="black" points="117,-630.5 251,-630.5 "/>
<text text-anchor="middle" x="184" y="-618.5" font-family="Helvetica,sans-Serif" font-size="10.00"> </text>
<polyline fill="none" stroke="black" points="117,-611.5 251,-611.5 "/>
<text text-anchor="start" x="125" y="-599.5" font-family="Helvetica,sans-Serif" font-size="10.00">+ MaterialLighting()</text>
</a>
</g>
</g>
<!-- Node3&#45;&gt;Node4 -->
<g id="edge4" class="edge"><title>Node3&#45;&gt;Node4</title>
<path fill="none" stroke="#404040" d="M46.7561,-732.818C71.3028,-712.998 110.172,-681.613 140.288,-657.295"/>
<polygon fill="none" stroke="#404040" points="140.393,-657.21 142.549,-650.329 149.73,-649.672 147.575,-656.553 140.393,-657.21"/>
<text text-anchor="middle" x="156" y="-697.5" font-family="Helvetica,sans-Serif" font-size="10.00"> +specular_factor</text>
<text text-anchor="middle" x="156" y="-686.5" font-family="Helvetica,sans-Serif" font-size="10.00">+shininess</text>
<text text-anchor="middle" x="156" y="-675.5" font-family="Helvetica,sans-Serif" font-size="10.00">+diffuse_factor</text>
</g>
<!-- Node3&#45;&gt;Node1 -->
<g id="edge18" class="edge"><title>Node3&#45;&gt;Node1</title>
<path fill="none" stroke="#404040" d="M14.6405,-724.49C13.1394,-718.453 11.7994,-712.055 11,-706 3.08816,-646.074 10.2222,-630.446 10,-570 9.96405,-560.222 9.34592,-557.756 10,-548 20.1904,-396.004 47.9708,-219.26 64.0555,-125.129"/>
<polygon fill="none" stroke="#404040" points="64.0668,-125.062 61.1416,-118.471 66.1007,-113.236 69.0259,-119.827 64.0668,-125.062"/>
<text text-anchor="middle" x="25" y="-562" font-family="Helvetica,sans-Serif" font-size="10.00"> &#45;width</text>
<text text-anchor="middle" x="25" y="-551" font-family="Helvetica,sans-Serif" font-size="10.00">&#45;length</text>
</g>
<!-- Node4&#45;&gt;Node2 -->
<g id="edge3" class="edge"><title>Node4&#45;&gt;Node2</title>
<path fill="none" stroke="#404040" d="M200.623,-592.328C220.035,-560.014 253.363,-504.534 283.717,-454.004"/>
<polygon fill="none" stroke="#404040" points="283.764,-453.926 283.424,-446.723 289.943,-443.64 290.282,-450.843 283.764,-453.926"/>
<text text-anchor="middle" x="245" y="-556.5" font-family="Helvetica,sans-Serif" font-size="10.00"> #lighting</text>
</g>
<!-- Node5 -->
<g id="node5" class="node"><title>Node5</title>
<polygon fill="white" stroke="#bfbfbf" points="476.5,-724.5 476.5,-781.5 511.5,-781.5 511.5,-724.5 476.5,-724.5"/>
<text text-anchor="middle" x="494" y="-769.5" font-family="Helvetica,sans-Serif" font-size="10.00">bool</text>
<polyline fill="none" stroke="#bfbfbf" points="476.5,-762.5 511.5,-762.5 "/>
<text text-anchor="middle" x="494" y="-750.5" font-family="Helvetica,sans-Serif" font-size="10.00"> </text>
<polyline fill="none" stroke="#bfbfbf" points="476.5,-743.5 511.5,-743.5 "/>
<text text-anchor="middle" x="494" y="-731.5" font-family="Helvetica,sans-Serif" font-size="10.00"> </text>
</g>
<!-- Node5&#45;&gt;Node4 -->
<g id="edge5" class="edge"><title>Node5&#45;&gt;Node4</title>
<path fill="none" stroke="#404040" d="M476.475,-750.989C439.219,-748.249 350.143,-738.536 284,-706 259.918,-694.154 236.727,-675.304 218.751,-658.46"/>
<polygon fill="none" stroke="#404040" points="218.491,-658.209 211.395,-656.926 209.85,-649.882 216.946,-651.165 218.491,-658.209"/>
<text text-anchor="middle" x="310.5" y="-692" font-family="Helvetica,sans-Serif" font-size="10.00"> +enabled</text>
<text text-anchor="middle" x="310.5" y="-681" font-family="Helvetica,sans-Serif" font-size="10.00">+black_only</text>
</g>
<!-- Node7 -->
<g id="node7" class="node"><title>Node7</title>
<g id="a_node7"><a xlink:href="class_omni_o_g_l_1_1_blend_function.html" target="_top" xlink:title="{OmniOGL::BlendFunction\n||+ BlendFunction()\l}">
<polygon fill="white" stroke="black" points="460,-592.5 460,-649.5 588,-649.5 588,-592.5 460,-592.5"/>
<text text-anchor="middle" x="524" y="-637.5" font-family="Helvetica,sans-Serif" font-size="10.00">OmniOGL::BlendFunction</text>
<polyline fill="none" stroke="black" points="460,-630.5 588,-630.5 "/>
<text text-anchor="middle" x="524" y="-618.5" font-family="Helvetica,sans-Serif" font-size="10.00"> </text>
<polyline fill="none" stroke="black" points="460,-611.5 588,-611.5 "/>
<text text-anchor="start" x="468" y="-599.5" font-family="Helvetica,sans-Serif" font-size="10.00">+ BlendFunction()</text>
</a>
</g>
</g>
<!-- Node5&#45;&gt;Node7 -->
<g id="edge9" class="edge"><title>Node5&#45;&gt;Node7</title>
<path fill="none" stroke="#404040" d="M490.934,-724.486C490.028,-708.827 490.311,-689.006 495,-672 496.054,-668.179 497.473,-664.346 499.119,-660.597"/>
<polygon fill="none" stroke="#404040" points="499.211,-660.414 498.333,-653.257 504.603,-649.694 505.48,-656.852 499.211,-660.414"/>
<text text-anchor="middle" x="516.5" y="-686.5" font-family="Helvetica,sans-Serif" font-size="10.00"> +enabled</text>
</g>
<!-- Node8 -->
<g id="node8" class="node"><title>Node8</title>
<g id="a_node8"><a xlink:href="class_omni_o_g_l_1_1_stencil_function.html" target="_top" xlink:title="{OmniOGL::StencilFunction\n||+ StencilFunction()\l}">
<polygon fill="white" stroke="black" points="754,-592.5 754,-649.5 888,-649.5 888,-592.5 754,-592.5"/>
<text text-anchor="middle" x="821" y="-637.5" font-family="Helvetica,sans-Serif" font-size="10.00">OmniOGL::StencilFunction</text>
<polyline fill="none" stroke="black" points="754,-630.5 888,-630.5 "/>
<text text-anchor="middle" x="821" y="-618.5" font-family="Helvetica,sans-Serif" font-size="10.00"> </text>
<polyline fill="none" stroke="black" points="754,-611.5 888,-611.5 "/>
<text text-anchor="start" x="762" y="-599.5" font-family="Helvetica,sans-Serif" font-size="10.00">+ StencilFunction()</text>
</a>
</g>
</g>
<!-- Node5&#45;&gt;Node8 -->
<g id="edge12" class="edge"><title>Node5&#45;&gt;Node8</title>
<path fill="none" stroke="#404040" d="M511.55,-748.438C535.02,-742.904 576.819,-730.258 604,-706 616.915,-694.474 608.757,-681.838 623,-672 667.736,-641.102 691.611,-668.543 744,-654 744.719,-653.8 745.441,-653.596 746.164,-653.386"/>
<polygon fill="none" stroke="#404040" points="746.55,-653.264 751.058,-647.636 757.987,-649.633 753.479,-655.261 746.55,-653.264"/>
<text text-anchor="middle" x="644.5" y="-686.5" font-family="Helvetica,sans-Serif" font-size="10.00"> +enabled</text>
</g>
<!-- Node5&#45;&gt;Node2 -->
<g id="edge13" class="edge"><title>Node5&#45;&gt;Node2</title>
<path fill="none" stroke="#404040" d="M476.478,-745.283C446.308,-732.653 385.352,-702.214 360,-654 348.898,-632.887 344.368,-589.396 343.202,-541.415"/>
<polygon fill="none" stroke="#404040" points="343.197,-541.129 339.087,-535.203 342.976,-529.131 347.086,-535.056 343.197,-541.129"/>
<text text-anchor="middle" x="405.5" y="-629.5" font-family="Helvetica,sans-Serif" font-size="10.00"> #in_foreground</text>
<text text-anchor="middle" x="405.5" y="-618.5" font-family="Helvetica,sans-Serif" font-size="10.00">#en_collision</text>
<text text-anchor="middle" x="405.5" y="-607.5" font-family="Helvetica,sans-Serif" font-size="10.00">#en_internal_clipping</text>
</g>
<!-- Node9 -->
<g id="node9" class="node"><title>Node9</title>
<g id="a_node9"><a xlink:href="class_omni_o_g_l_1_1_depth_function.html" target="_top" xlink:title="{OmniOGL::DepthFunction\n||+ DepthFunction()\l}">
<polygon fill="white" stroke="black" points="606.5,-592.5 606.5,-649.5 735.5,-649.5 735.5,-592.5 606.5,-592.5"/>
<text text-anchor="middle" x="671" y="-637.5" font-family="Helvetica,sans-Serif" font-size="10.00">OmniOGL::DepthFunction</text>
<polyline fill="none" stroke="black" points="606.5,-630.5 735.5,-630.5 "/>
<text text-anchor="middle" x="671" y="-618.5" font-family="Helvetica,sans-Serif" font-size="10.00"> </text>
<polyline fill="none" stroke="black" points="606.5,-611.5 735.5,-611.5 "/>
<text text-anchor="start" x="614.5" y="-599.5" font-family="Helvetica,sans-Serif" font-size="10.00">+ DepthFunction()</text>
</a>
</g>
</g>
<!-- Node5&#45;&gt;Node9 -->
<g id="edge16" class="edge"><title>Node5&#45;&gt;Node9</title>
<path fill="none" stroke="#404040" d="M511.862,-734.726C520.161,-726.356 529.949,-715.976 538,-706 549.457,-691.802 547.062,-683.772 561,-672 562.901,-670.394 578.51,-663.108 597.402,-654.573"/>
<polygon fill="none" stroke="#404040" points="597.551,-654.506 601.383,-648.397 608.495,-649.585 604.663,-655.693 597.551,-654.506"/>
<text text-anchor="middle" x="582.5" y="-686.5" font-family="Helvetica,sans-Serif" font-size="10.00"> +enabled</text>
</g>
<!-- Node6 -->
<g id="node6" class="node"><title>Node6</title>
<polygon fill="white" stroke="#bfbfbf" points="769,-724.5 769,-781.5 809,-781.5 809,-724.5 769,-724.5"/>
<text text-anchor="middle" x="789" y="-769.5" font-family="Helvetica,sans-Serif" font-size="10.00">GLint</text>
<polyline fill="none" stroke="#bfbfbf" points="769,-762.5 809,-762.5 "/>
<text text-anchor="middle" x="789" y="-750.5" font-family="Helvetica,sans-Serif" font-size="10.00"> </text>
<polyline fill="none" stroke="#bfbfbf" points="769,-743.5 809,-743.5 "/>
<text text-anchor="middle" x="789" y="-731.5" font-family="Helvetica,sans-Serif" font-size="10.00"> </text>
</g>
<!-- Node6&#45;&gt;Node2 -->
<g id="edge6" class="edge"><title>Node6&#45;&gt;Node2</title>
<path fill="none" stroke="#404040" d="M809.281,-740.647C823.492,-732.149 842.467,-719.673 857,-706 897.331,-668.054 927.057,-634.509 897,-588 791.157,-424.223 547.326,-368.381 424.514,-350.229"/>
<polygon fill="none" stroke="#404040" points="424.18,-350.182 417.676,-353.296 412.3,-348.489 418.804,-345.375 424.18,-350.182"/>
<text text-anchor="middle" x="937.5" y="-629.5" font-family="Helvetica,sans-Serif" font-size="10.00"> #texture_sel</text>
<text text-anchor="middle" x="937.5" y="-618.5" font-family="Helvetica,sans-Serif" font-size="10.00">#render_id</text>
<text text-anchor="middle" x="937.5" y="-607.5" font-family="Helvetica,sans-Serif" font-size="10.00">#bump_map</text>
</g>
<!-- Node6&#45;&gt;Node7 -->
<g id="edge8" class="edge"><title>Node6&#45;&gt;Node7</title>
<path fill="none" stroke="#404040" d="M768.853,-746.809C747.003,-740.327 712.153,-727.404 689,-706 676.289,-694.249 683.765,-682.496 670,-672 643.428,-651.738 628.641,-664.747 597,-654 596.746,-653.914 596.492,-653.827 596.237,-653.74"/>
<polygon fill="none" stroke="#404040" points="595.909,-653.62 588.901,-655.322 584.635,-649.509 591.642,-647.806 595.909,-653.62"/>
<text text-anchor="middle" x="710.5" y="-686.5" font-family="Helvetica,sans-Serif" font-size="10.00"> +function</text>
</g>
<!-- Node6&#45;&gt;Node8 -->
<g id="edge11" class="edge"><title>Node6&#45;&gt;Node8</title>
<path fill="none" stroke="#404040" d="M795.786,-724.43C800.305,-706.075 806.31,-681.678 811.327,-661.298"/>
<polygon fill="none" stroke="#404040" points="811.355,-661.182 808.905,-654.4 814.223,-649.53 816.673,-656.312 811.355,-661.182"/>
<text text-anchor="middle" x="830" y="-697.5" font-family="Helvetica,sans-Serif" font-size="10.00"> +mask</text>
<text text-anchor="middle" x="830" y="-686.5" font-family="Helvetica,sans-Serif" font-size="10.00">+operation</text>
<text text-anchor="middle" x="830" y="-675.5" font-family="Helvetica,sans-Serif" font-size="10.00">+function</text>
</g>
<!-- Node6&#45;&gt;Node9 -->
<g id="edge15" class="edge"><title>Node6&#45;&gt;Node9</title>
<path fill="none" stroke="#404040" d="M769.463,-724.436C765.288,-718.403 760.949,-712.02 757,-706 747.258,-691.149 747.9,-685.185 736,-672 731.529,-667.046 726.516,-662.229 721.309,-657.666"/>
<polygon fill="none" stroke="#404040" points="721.025,-657.43 713.855,-656.665 711.803,-649.752 718.974,-650.517 721.025,-657.43"/>
<text text-anchor="middle" x="777" y="-692" font-family="Helvetica,sans-Serif" font-size="10.00"> +mask</text>
<text text-anchor="middle" x="777" y="-681" font-family="Helvetica,sans-Serif" font-size="10.00">+function</text>
</g>
<!-- Node7&#45;&gt;Node2 -->
<g id="edge7" class="edge"><title>Node7&#45;&gt;Node2</title>
<path fill="none" stroke="#404040" d="M506.78,-592.328C486.188,-559.238 450.479,-501.857 418.441,-450.374"/>
<polygon fill="none" stroke="#404040" points="418.429,-450.354 411.862,-447.373 412.088,-440.165 418.655,-443.146 418.429,-450.354"/>
<text text-anchor="middle" x="513.5" y="-556.5" font-family="Helvetica,sans-Serif" font-size="10.00"> #blending</text>
</g>
<!-- Node8&#45;&gt;Node2 -->
<g id="edge10" class="edge"><title>Node8&#45;&gt;Node2</title>
<path fill="none" stroke="#404040" d="M774.216,-592.328C691.775,-543.565 520.145,-442.047 422.675,-384.395"/>
<polygon fill="none" stroke="#404040" points="422.652,-384.382 415.452,-384.77 412.324,-378.272 419.524,-377.884 422.652,-384.382"/>
<text text-anchor="middle" x="750.5" y="-556.5" font-family="Helvetica,sans-Serif" font-size="10.00"> #stencil</text>
</g>
<!-- Node9&#45;&gt;Node2 -->
<g id="edge14" class="edge"><title>Node9&#45;&gt;Node2</title>
<path fill="none" stroke="#404040" d="M639.147,-592.328C588.718,-548.518 489.275,-462.127 421.469,-403.22"/>
<polygon fill="none" stroke="#404040" points="421.179,-402.968 414.026,-402.052 412.12,-395.098 419.273,-396.013 421.179,-402.968"/>
<text text-anchor="middle" x="626.5" y="-556.5" font-family="Helvetica,sans-Serif" font-size="10.00"> #depth</text>
</g>
<!-- Node10 -->
<g id="node10" class="node"><title>Node10</title>
<polygon fill="white" stroke="#bfbfbf" points="269.5,-592.5 269.5,-649.5 314.5,-649.5 314.5,-592.5 269.5,-592.5"/>
<text text-anchor="middle" x="292" y="-637.5" font-family="Helvetica,sans-Serif" font-size="10.00">GLuint</text>
<polyline fill="none" stroke="#bfbfbf" points="269.5,-630.5 314.5,-630.5 "/>
<text text-anchor="middle" x="292" y="-618.5" font-family="Helvetica,sans-Serif" font-size="10.00"> </text>
<polyline fill="none" stroke="#bfbfbf" points="269.5,-611.5 314.5,-611.5 "/>
<text text-anchor="middle" x="292" y="-599.5" font-family="Helvetica,sans-Serif" font-size="10.00"> </text>
</g>
<!-- Node10&#45;&gt;Node2 -->
<g id="edge17" class="edge"><title>Node10&#45;&gt;Node2</title>
<path fill="none" stroke="#404040" d="M283.659,-592.281C280.678,-578.89 278.588,-562.597 281,-548 282.638,-538.089 284.691,-528.015 287.055,-517.917"/>
<polygon fill="none" stroke="#404040" points="287.105,-517.715 284.651,-510.934 289.967,-506.061 292.42,-512.842 287.105,-517.715"/>
<text text-anchor="middle" x="309" y="-562" font-family="Helvetica,sans-Serif" font-size="10.00"> #lengths</text>
<text text-anchor="middle" x="309" y="-551" font-family="Helvetica,sans-Serif" font-size="10.00">#my_section</text>
</g>
</g>
</svg>
