<?xml version="1.0" encoding="UTF-8" standalone="no"?>
<!DOCTYPE svg PUBLIC "-//W3C//DTD SVG 1.1//EN"
 "http://www.w3.org/Graphics/SVG/1.1/DTD/svg11.dtd">
<!-- Generated by graphviz version 2.30.1 (20130214.1330)
 -->
<!-- Title: OmniOGL::OGLBuffers::ebo Pages: 1 -->
<svg width="452pt" height="82pt"
 viewBox="0.00 0.00 452.00 82.00" xmlns="http://www.w3.org/2000/svg" xmlns:xlink="http://www.w3.org/1999/xlink">
<g id="graph0" class="graph" transform="scale(1 1) rotate(0) translate(4 78)">
<title>OmniOGL::OGLBuffers::ebo</title>
<polygon fill="white" stroke="white" points="-4,5 -4,-78 449,-78 449,5 -4,5"/>
<!-- Node1 -->
<g id="node1" class="node"><title>Node1</title>
<polygon fill="#bfbfbf" stroke="black" points="0,-27.5 0,-46.5 138,-46.5 138,-27.5 0,-27.5"/>
<text text-anchor="middle" x="69" y="-34.5" font-family="Helvetica,sans-Serif" font-size="10.00">OmniOGL::OGLBuffers::ebo</text>
</g>
<!-- Node2 -->
<g id="node2" class="node"><title>Node2</title>
<g id="a_node2"><a xlink:href="class_omni_o_g_l_1_1_o_g_l_buffers.html#a7d647481a48be70af411ff8a5d84576c" target="_top" xlink:title="OmniOGL::OGLBuffers\l::Cleanup">
<polygon fill="white" stroke="black" points="176,-44 176,-74 292,-74 292,-44 176,-44"/>
<text text-anchor="start" x="184" y="-62" font-family="Helvetica,sans-Serif" font-size="10.00">OmniOGL::OGLBuffers</text>
<text text-anchor="middle" x="234" y="-51" font-family="Helvetica,sans-Serif" font-size="10.00">::Cleanup</text>
</a>
</g>
</g>
<!-- Node1&#45;&gt;Node2 -->
<g id="edge1" class="edge"><title>Node1&#45;&gt;Node2</title>
<path fill="none" stroke="midnightblue" d="M148.262,-47.5629C157.592,-48.8223 166.979,-50.0893 175.933,-51.2977"/>
<polygon fill="midnightblue" stroke="midnightblue" points="148.561,-44.0716 138.182,-46.2025 147.624,-51.0087 148.561,-44.0716"/>
</g>
<!-- Node3 -->
<g id="node3" class="node"><title>Node3</title>
<g id="a_node3"><a xlink:href="class_omni_o_g_l_1_1_ren_obj.html#a12f940283cf317910410fb2014ff789f" target="_top" xlink:title="OmniOGL::RenObj::ebo">
<polygon fill="white" stroke="black" points="174,-5.5 174,-24.5 294,-24.5 294,-5.5 174,-5.5"/>
<text text-anchor="middle" x="234" y="-12.5" font-family="Helvetica,sans-Serif" font-size="10.00">OmniOGL::RenObj::ebo</text>
</a>
</g>
</g>
<!-- Node1&#45;&gt;Node3 -->
<g id="edge2" class="edge"><title>Node1&#45;&gt;Node3</title>
<path fill="none" stroke="midnightblue" d="M148.262,-26.4371C156.886,-25.273 165.56,-24.1024 173.894,-22.9775"/>
<polygon fill="midnightblue" stroke="midnightblue" points="147.624,-22.9913 138.182,-27.7975 148.561,-29.9284 147.624,-22.9913"/>
</g>
<!-- Node4 -->
<g id="node4" class="node"><title>Node4</title>
<g id="a_node4"><a xlink:href="class_omni_o_g_l_1_1_block_array.html#a2ffeafa923f1f49001d771ce7e670521" target="_top" xlink:title="OmniOGL::BlockArray\l::Draw">
<polygon fill="white" stroke="black" points="330,-0 330,-30 444,-30 444,-0 330,-0"/>
<text text-anchor="start" x="338" y="-18" font-family="Helvetica,sans-Serif" font-size="10.00">OmniOGL::BlockArray</text>
<text text-anchor="middle" x="387" y="-7" font-family="Helvetica,sans-Serif" font-size="10.00">::Draw</text>
</a>
</g>
</g>
<!-- Node3&#45;&gt;Node4 -->
<g id="edge3" class="edge"><title>Node3&#45;&gt;Node4</title>
<path fill="none" stroke="midnightblue" d="M304.249,-15C312.835,-15 321.53,-15 329.886,-15"/>
<polygon fill="midnightblue" stroke="midnightblue" points="304.246,-11.5001 294.246,-15 304.246,-18.5001 304.246,-11.5001"/>
</g>
</g>
</svg>
