<?xml version="1.0" encoding="UTF-8" standalone="no"?>
<!DOCTYPE svg PUBLIC "-//W3C//DTD SVG 1.1//EN"
 "http://www.w3.org/Graphics/SVG/1.1/DTD/svg11.dtd">
<!-- Generated by graphviz version 2.30.1 (20130214.1330)
 -->
<!-- Title: OmniOGL::BlockArray::Draw Pages: 1 -->
<svg width="536pt" height="104pt"
 viewBox="0.00 0.00 536.00 104.00" xmlns="http://www.w3.org/2000/svg" xmlns:xlink="http://www.w3.org/1999/xlink">
<g id="graph0" class="graph" transform="scale(1 1) rotate(0) translate(4 100)">
<title>OmniOGL::BlockArray::Draw</title>
<polygon fill="white" stroke="white" points="-4,5 -4,-100 533,-100 533,5 -4,5"/>
<!-- Node1 -->
<g id="node1" class="node"><title>Node1</title>
<polygon fill="#bfbfbf" stroke="black" points="0,-33 0,-63 114,-63 114,-33 0,-33"/>
<text text-anchor="start" x="8" y="-51" font-family="Helvetica,sans-Serif" font-size="10.00">OmniOGL::BlockArray</text>
<text text-anchor="middle" x="57" y="-40" font-family="Helvetica,sans-Serif" font-size="10.00">::Draw</text>
</g>
<!-- Node2 -->
<g id="node2" class="node"><title>Node2</title>
<g id="a_node2"><a xlink:href="class_omni_o_g_l_1_1_ren_obj.html#a25e6e5b1ba07d42f125c7bdd19a2e609" target="_top" xlink:title="This method lies at the heart of the rendering process, as it binds the object&#39;s relevant data to the...">
<polygon fill="white" stroke="black" points="150.5,-76.5 150.5,-95.5 319.5,-95.5 319.5,-76.5 150.5,-76.5"/>
<text text-anchor="middle" x="235" y="-83.5" font-family="Helvetica,sans-Serif" font-size="10.00">OmniOGL::RenObj::BindBufferData</text>
</a>
</g>
</g>
<!-- Node1&#45;&gt;Node2 -->
<g id="edge1" class="edge"><title>Node1&#45;&gt;Node2</title>
<path fill="none" stroke="midnightblue" d="M114.171,-60.1279C135.18,-64.6638 158.985,-69.8036 179.811,-74.3001"/>
<polygon fill="midnightblue" stroke="midnightblue" points="179.256,-77.7609 189.77,-76.4503 180.734,-70.9186 179.256,-77.7609"/>
</g>
<!-- Node3 -->
<g id="node3" class="node"><title>Node3</title>
<g id="a_node3"><a xlink:href="class_omni_o_g_l_1_1_ren_obj.html#a8a386f32d8e09e00a1ef45c55fd4c301" target="_top" xlink:title="This method attempts to handle all of the necessary OpenGL state changes in one place. The desired value of various states are stored as a local variable owned by the object. This method is called for each object each frame and simply sets each state to the position specified by the object.">
<polygon fill="white" stroke="black" points="166,-38.5 166,-57.5 304,-57.5 304,-38.5 166,-38.5"/>
<text text-anchor="middle" x="235" y="-45.5" font-family="Helvetica,sans-Serif" font-size="10.00">OmniOGL::RenObj::Prepare</text>
</a>
</g>
</g>
<!-- Node1&#45;&gt;Node3 -->
<g id="edge2" class="edge"><title>Node1&#45;&gt;Node3</title>
<path fill="none" stroke="midnightblue" d="M114.171,-48C127.367,-48 141.665,-48 155.636,-48"/>
<polygon fill="midnightblue" stroke="midnightblue" points="155.73,-51.5001 165.73,-48 155.73,-44.5001 155.73,-51.5001"/>
</g>
<!-- Node6 -->
<g id="node6" class="node"><title>Node6</title>
<g id="a_node6"><a xlink:href="class_omni_o_g_l_1_1_scene.html#a7158f7aa2b63737ffc2d93f20f39fc85" target="_top" xlink:title="This method is intended to offer a simple way to set the translation matrix via a set of x...">
<polygon fill="white" stroke="black" points="162.5,-0.5 162.5,-19.5 307.5,-19.5 307.5,-0.5 162.5,-0.5"/>
<text text-anchor="middle" x="235" y="-7.5" font-family="Helvetica,sans-Serif" font-size="10.00">OmniOGL::Scene::sTranslate</text>
</a>
</g>
</g>
<!-- Node1&#45;&gt;Node6 -->
<g id="edge5" class="edge"><title>Node1&#45;&gt;Node6</title>
<path fill="none" stroke="midnightblue" d="M114.171,-35.8721C135.18,-31.3362 158.985,-26.1964 179.811,-21.6999"/>
<polygon fill="midnightblue" stroke="midnightblue" points="180.734,-25.0814 189.77,-19.5497 179.256,-18.2391 180.734,-25.0814"/>
</g>
<!-- Node4 -->
<g id="node4" class="node"><title>Node4</title>
<g id="a_node4"><a xlink:href="class_omni_o_g_l_1_1_scene.html#a0d76d3bd0b63be254c1b808e58c91aba" target="_top" xlink:title="A getter which retrieves a boolean value representing whether or not [regular] textures are enabled...">
<polygon fill="white" stroke="black" points="356,-76.5 356,-95.5 528,-95.5 528,-76.5 356,-76.5"/>
<text text-anchor="middle" x="442" y="-83.5" font-family="Helvetica,sans-Serif" font-size="10.00">OmniOGL::Scene::GlobalTextureEn</text>
</a>
</g>
</g>
<!-- Node3&#45;&gt;Node4 -->
<g id="edge3" class="edge"><title>Node3&#45;&gt;Node4</title>
<path fill="none" stroke="midnightblue" d="M287.466,-57.54C315.368,-62.7122 350.045,-69.1401 379.38,-74.5778"/>
<polygon fill="midnightblue" stroke="midnightblue" points="379.043,-78.0748 389.513,-76.4561 380.319,-71.1921 379.043,-78.0748"/>
</g>
<!-- Node5 -->
<g id="node5" class="node"><title>Node5</title>
<g id="a_node5"><a xlink:href="class_omni_o_g_l_1_1_scene.html#ad5369cbf93989073466f9b03d8dd8233" target="_top" xlink:title="A getter which retrieves a boolean value representing whether or not bump mapping is enabled...">
<polygon fill="white" stroke="black" points="364,-38.5 364,-57.5 520,-57.5 520,-38.5 364,-38.5"/>
<text text-anchor="middle" x="442" y="-45.5" font-family="Helvetica,sans-Serif" font-size="10.00">OmniOGL::Scene::BumpMapEn</text>
</a>
</g>
</g>
<!-- Node3&#45;&gt;Node5 -->
<g id="edge4" class="edge"><title>Node3&#45;&gt;Node5</title>
<path fill="none" stroke="midnightblue" d="M304.262,-48C320.081,-48 337.128,-48 353.64,-48"/>
<polygon fill="midnightblue" stroke="midnightblue" points="353.836,-51.5001 363.836,-48 353.836,-44.5001 353.836,-51.5001"/>
</g>
<!-- Node7 -->
<g id="node7" class="node"><title>Node7</title>
<g id="a_node7"><a xlink:href="class_omni_o_g_l_1_1_scene.html#a3e40078b453c8199045775feb1ab18d1" target="_top" xlink:title="This method sends a combined translation*rotation*scale 4x4 matrix to the shader program, effectively configuring the size, orientation, and position of each vertex which is a candidate for rendering. The combined &quot;srt&quot; matrix is an attribute in the shader program, so it is sent via a vertex buffer object. Note that this method is capable of taking an array of matrices if a count is specified (second parameter), in order to accomodate instanced rendering. If no second parameter is passed, it is assumed that the first parameter only points to a single matrix. Scene::info.vbo">
<polygon fill="white" stroke="black" points="367.5,-0.5 367.5,-19.5 516.5,-19.5 516.5,-0.5 367.5,-0.5"/>
<text text-anchor="middle" x="442" y="-7.5" font-family="Helvetica,sans-Serif" font-size="10.00">OmniOGL::Scene::UpdateSRT</text>
</a>
</g>
</g>
<!-- Node6&#45;&gt;Node7 -->
<g id="edge6" class="edge"><title>Node6&#45;&gt;Node7</title>
<path fill="none" stroke="midnightblue" d="M307.699,-10C323.667,-10 340.734,-10 357.142,-10"/>
<polygon fill="midnightblue" stroke="midnightblue" points="357.257,-13.5001 367.257,-10 357.257,-6.5001 357.257,-13.5001"/>
</g>
</g>
</svg>
