<?xml version="1.0" encoding="UTF-8" standalone="no"?>
<!DOCTYPE svg PUBLIC "-//W3C//DTD SVG 1.1//EN"
 "http://www.w3.org/Graphics/SVG/1.1/DTD/svg11.dtd">
<!-- Generated by graphviz version 2.30.1 (20130214.1330)
 -->
<!-- Title: OmniOGL::NetNode::GetDistance Pages: 1 -->
<svg width="1032pt" height="38pt"
 viewBox="0.00 0.00 1032.00 38.00" xmlns="http://www.w3.org/2000/svg" xmlns:xlink="http://www.w3.org/1999/xlink">
<g id="graph0" class="graph" transform="scale(1 1) rotate(0) translate(4 34)">
<title>OmniOGL::NetNode::GetDistance</title>
<polygon fill="white" stroke="white" points="-4,5 -4,-34 1029,-34 1029,5 -4,5"/>
<!-- Node1 -->
<g id="node1" class="node"><title>Node1</title>
<polygon fill="#bfbfbf" stroke="black" points="0,-5.5 0,-24.5 164,-24.5 164,-5.5 0,-5.5"/>
<text text-anchor="middle" x="82" y="-12.5" font-family="Helvetica,sans-Serif" font-size="10.00">OmniOGL::NetNode::GetDistance</text>
</g>
<!-- Node2 -->
<g id="node2" class="node"><title>Node2</title>
<g id="a_node2"><a xlink:href="class_omni_o_g_l_1_1_net_node.html#a8c7516402f5ac053c6723e512bb7e97e" target="_top" xlink:title="This method should be invoked two times for each triangle that the vertex represented by this NetNode...">
<polygon fill="white" stroke="black" points="200.5,-5.5 200.5,-24.5 365.5,-24.5 365.5,-5.5 200.5,-5.5"/>
<text text-anchor="middle" x="283" y="-12.5" font-family="Helvetica,sans-Serif" font-size="10.00">OmniOGL::NetNode::AddNeighbor</text>
</a>
</g>
</g>
<!-- Node1&#45;&gt;Node2 -->
<g id="edge1" class="edge"><title>Node1&#45;&gt;Node2</title>
<path fill="none" stroke="midnightblue" d="M174.364,-15C183.044,-15 191.807,-15 200.387,-15"/>
<polygon fill="midnightblue" stroke="midnightblue" points="174.228,-11.5001 164.228,-15 174.228,-18.5001 174.228,-11.5001"/>
</g>
<!-- Node3 -->
<g id="node3" class="node"><title>Node3</title>
<g id="a_node3"><a xlink:href="class_omni_o_g_l_1_1_surface_net.html#ae5c27214a80e2852b3db3ff1c9b2ab7e" target="_top" xlink:title="This method adds any number of neighbors to a NetNode at the specified index. All indices passed to t...">
<polygon fill="white" stroke="black" points="402,-0 402,-30 516,-30 516,-0 402,-0"/>
<text text-anchor="start" x="410" y="-18" font-family="Helvetica,sans-Serif" font-size="10.00">OmniOGL::SurfaceNet</text>
<text text-anchor="middle" x="459" y="-7" font-family="Helvetica,sans-Serif" font-size="10.00">::AddNeighbors</text>
</a>
</g>
</g>
<!-- Node2&#45;&gt;Node3 -->
<g id="edge2" class="edge"><title>Node2&#45;&gt;Node3</title>
<path fill="none" stroke="midnightblue" d="M375.658,-15C384.515,-15 393.307,-15 401.666,-15"/>
<polygon fill="midnightblue" stroke="midnightblue" points="375.65,-11.5001 365.65,-15 375.65,-18.5001 375.65,-11.5001"/>
</g>
<!-- Node4 -->
<g id="node4" class="node"><title>Node4</title>
<g id="a_node4"><a xlink:href="class_omni_o_g_l_1_1_voxel.html#aca8321b8573e58db30730a2f7551578b" target="_top" xlink:title="This method directly sets the density values at all eight corners of the voxel, determines the result...">
<polygon fill="white" stroke="black" points="552,-0 552,-30 704,-30 704,-0 552,-0"/>
<text text-anchor="start" x="560" y="-18" font-family="Helvetica,sans-Serif" font-size="10.00">OmniOGL::Voxel::SetMarching</text>
<text text-anchor="middle" x="628" y="-7" font-family="Helvetica,sans-Serif" font-size="10.00">CubesParameters</text>
</a>
</g>
</g>
<!-- Node3&#45;&gt;Node4 -->
<g id="edge3" class="edge"><title>Node3&#45;&gt;Node4</title>
<path fill="none" stroke="midnightblue" d="M526.186,-15C534.597,-15 543.252,-15 551.791,-15"/>
<polygon fill="midnightblue" stroke="midnightblue" points="526.073,-11.5001 516.073,-15 526.073,-18.5001 526.073,-11.5001"/>
</g>
<!-- Node5 -->
<g id="node5" class="node"><title>Node5</title>
<g id="a_node5"><a xlink:href="class_omni_o_g_l_1_1_voxel_field.html#af35e1fbb4908ffbe639962bce40c36a4" target="_top" xlink:title="The core method of this class which initializes all voxels and populates a given BlockArray with the ...">
<polygon fill="white" stroke="black" points="740,-0 740,-30 852,-30 852,-0 740,-0"/>
<text text-anchor="start" x="748" y="-18" font-family="Helvetica,sans-Serif" font-size="10.00">OmniOGL::VoxelField</text>
<text text-anchor="middle" x="796" y="-7" font-family="Helvetica,sans-Serif" font-size="10.00">::FillWithRandom</text>
</a>
</g>
</g>
<!-- Node4&#45;&gt;Node5 -->
<g id="edge4" class="edge"><title>Node4&#45;&gt;Node5</title>
<path fill="none" stroke="midnightblue" d="M714.391,-15C723.054,-15 731.682,-15 739.897,-15"/>
<polygon fill="midnightblue" stroke="midnightblue" points="714.229,-11.5001 704.229,-15 714.229,-18.5001 714.229,-11.5001"/>
</g>
<!-- Node6 -->
<g id="node6" class="node"><title>Node6</title>
<g id="a_node6"><a xlink:href="_exec_8cpp.html#a38c5e7def3be6ea702581ee4a92b9cc0" target="_top" xlink:title="render">
<polygon fill="white" stroke="black" points="888,-5.5 888,-24.5 932,-24.5 932,-5.5 888,-5.5"/>
<text text-anchor="middle" x="910" y="-12.5" font-family="Helvetica,sans-Serif" font-size="10.00">render</text>
</a>
</g>
</g>
<!-- Node5&#45;&gt;Node6 -->
<g id="edge5" class="edge"><title>Node5&#45;&gt;Node6</title>
<path fill="none" stroke="midnightblue" d="M862.12,-15C871.354,-15 880.249,-15 887.762,-15"/>
<polygon fill="midnightblue" stroke="midnightblue" points="862.016,-11.5001 852.016,-15 862.016,-18.5001 862.016,-11.5001"/>
</g>
<!-- Node7 -->
<g id="node7" class="node"><title>Node7</title>
<g id="a_node7"><a xlink:href="_exec_8cpp.html#a66e65252a6985e382838442f280f46ba" target="_top" xlink:title="WinMain">
<polygon fill="white" stroke="black" points="968.5,-5.5 968.5,-24.5 1023.5,-24.5 1023.5,-5.5 968.5,-5.5"/>
<text text-anchor="middle" x="996" y="-12.5" font-family="Helvetica,sans-Serif" font-size="10.00">WinMain</text>
</a>
</g>
</g>
<!-- Node6&#45;&gt;Node7 -->
<g id="edge6" class="edge"><title>Node6&#45;&gt;Node7</title>
<path fill="none" stroke="midnightblue" d="M942.253,-15C950.845,-15 960.081,-15 968.386,-15"/>
<polygon fill="midnightblue" stroke="midnightblue" points="942.197,-11.5001 932.197,-15 942.197,-18.5001 942.197,-11.5001"/>
</g>
</g>
</svg>
