<?xml version="1.0" encoding="UTF-8" standalone="no"?>
<!DOCTYPE svg PUBLIC "-//W3C//DTD SVG 1.1//EN"
 "http://www.w3.org/Graphics/SVG/1.1/DTD/svg11.dtd">
<!-- Generated by graphviz version 2.30.1 (20130214.1330)
 -->
<!-- Title: OmniOGL::Scene::GetOccupiedSectionIndex Pages: 1 -->
<svg width="344pt" height="38pt"
 viewBox="0.00 0.00 344.00 38.00" xmlns="http://www.w3.org/2000/svg" xmlns:xlink="http://www.w3.org/1999/xlink">
<g id="graph0" class="graph" transform="scale(1 1) rotate(0) translate(4 34)">
<title>OmniOGL::Scene::GetOccupiedSectionIndex</title>
<polygon fill="white" stroke="white" points="-4,5 -4,-34 341,-34 341,5 -4,5"/>
<!-- Node1 -->
<g id="node1" class="node"><title>Node1</title>
<polygon fill="#bfbfbf" stroke="black" points="0.5,-0 0.5,-30 157.5,-30 157.5,-0 0.5,-0"/>
<text text-anchor="start" x="8.5" y="-18" font-family="Helvetica,sans-Serif" font-size="10.00">OmniOGL::Scene::GetOccupied</text>
<text text-anchor="middle" x="79" y="-7" font-family="Helvetica,sans-Serif" font-size="10.00">SectionIndex</text>
</g>
<!-- Node2 -->
<g id="node2" class="node"><title>Node2</title>
<g id="a_node2"><a xlink:href="class_omni_o_g_l_1_1_section_collection.html#ac2977e60ac5506582a5d82c29ee9cde9" target="_top" xlink:title="OmniOGL::SectionCollection\l::GetCurrentSection">
<polygon fill="white" stroke="black" points="194,-0 194,-30 336,-30 336,-0 194,-0"/>
<text text-anchor="start" x="202" y="-18" font-family="Helvetica,sans-Serif" font-size="10.00">OmniOGL::SectionCollection</text>
<text text-anchor="middle" x="265" y="-7" font-family="Helvetica,sans-Serif" font-size="10.00">::GetCurrentSection</text>
</a>
</g>
</g>
<!-- Node1&#45;&gt;Node2 -->
<g id="edge1" class="edge"><title>Node1&#45;&gt;Node2</title>
<path fill="none" stroke="midnightblue" d="M157.766,-15C166.366,-15 175.137,-15 183.767,-15"/>
<polygon fill="midnightblue" stroke="midnightblue" points="183.815,-18.5001 193.815,-15 183.815,-11.5001 183.815,-18.5001"/>
</g>
</g>
</svg>
