<?xml version="1.0" encoding="UTF-8" standalone="no"?>
<!DOCTYPE svg PUBLIC "-//W3C//DTD SVG 1.1//EN"
 "http://www.w3.org/Graphics/SVG/1.1/DTD/svg11.dtd">
<!-- Generated by graphviz version 2.30.1 (20130214.1330)
 -->
<!-- Title: OmniOGL::RenObj::factor_vec4 Pages: 1 -->
<svg width="352pt" height="153pt"
 viewBox="0.00 0.00 352.00 153.00" xmlns="http://www.w3.org/2000/svg" xmlns:xlink="http://www.w3.org/1999/xlink">
<g id="graph0" class="graph" transform="scale(1 1) rotate(0) translate(4 149)">
<title>OmniOGL::RenObj::factor_vec4</title>
<polygon fill="white" stroke="white" points="-4,5 -4,-149 349,-149 349,5 -4,5"/>
<!-- Node1 -->
<g id="node1" class="node"><title>Node1</title>
<polygon fill="#bfbfbf" stroke="black" points="0.5,-68.5 0.5,-87.5 153.5,-87.5 153.5,-68.5 0.5,-68.5"/>
<text text-anchor="middle" x="77" y="-75.5" font-family="Helvetica,sans-Serif" font-size="10.00">OmniOGL::RenObj::factor_vec4</text>
</g>
<!-- Node2 -->
<g id="node2" class="node"><title>Node2</title>
<g id="a_node2"><a xlink:href="class_omni_o_g_l_1_1_ren_obj.html#af9a25f349be03a23bbb5fd0760a4a178" target="_top" xlink:title="A setter which takes three floats as a parameter and derives three float arrays of size four to be us...">
<polygon fill="white" stroke="black" points="190.5,-125.5 190.5,-144.5 343.5,-144.5 343.5,-125.5 190.5,-125.5"/>
<text text-anchor="middle" x="267" y="-132.5" font-family="Helvetica,sans-Serif" font-size="10.00">OmniOGL::RenObj::SetLighting</text>
</a>
</g>
</g>
<!-- Node1&#45;&gt;Node2 -->
<g id="edge1" class="edge"><title>Node1&#45;&gt;Node2</title>
<path fill="none" stroke="midnightblue" d="M113.602,-90.9134C135.495,-98.646 164.205,-108.414 190,-116 201.352,-119.339 213.765,-122.602 225.208,-125.457"/>
<polygon fill="midnightblue" stroke="midnightblue" points="114.651,-87.5721 104.057,-87.5189 112.306,-94.1675 114.651,-87.5721"/>
</g>
<!-- Node3 -->
<g id="node3" class="node"><title>Node3</title>
<g id="a_node3"><a xlink:href="class_omni_o_g_l_1_1_cube.html#a00e82e577b136e70843831ac569fc19b" target="_top" xlink:title="The default constructor for the Cube class. This method is responsible for initializing all members s...">
<polygon fill="white" stroke="black" points="208.5,-87.5 208.5,-106.5 325.5,-106.5 325.5,-87.5 208.5,-87.5"/>
<text text-anchor="middle" x="267" y="-94.5" font-family="Helvetica,sans-Serif" font-size="10.00">OmniOGL::Cube::Cube</text>
</a>
</g>
</g>
<!-- Node1&#45;&gt;Node3 -->
<g id="edge2" class="edge"><title>Node1&#45;&gt;Node3</title>
<path fill="none" stroke="midnightblue" d="M164.01,-86.6925C179.059,-88.2134 194.383,-89.7621 208.425,-91.1812"/>
<polygon fill="midnightblue" stroke="midnightblue" points="163.955,-83.1692 153.654,-85.6459 163.252,-90.1338 163.955,-83.1692"/>
</g>
<!-- Node4 -->
<g id="node4" class="node"><title>Node4</title>
<g id="a_node4"><a xlink:href="class_omni_o_g_l_1_1_floor.html#a636158345b20717527b337fb3e5e2924" target="_top" xlink:title="Default constructor for the Floor class &#45; responsible for initializing any members owned by this clas...">
<polygon fill="white" stroke="black" points="209,-49.5 209,-68.5 325,-68.5 325,-49.5 209,-49.5"/>
<text text-anchor="middle" x="267" y="-56.5" font-family="Helvetica,sans-Serif" font-size="10.00">OmniOGL::Floor::Floor</text>
</a>
</g>
</g>
<!-- Node1&#45;&gt;Node4 -->
<g id="edge3" class="edge"><title>Node1&#45;&gt;Node4</title>
<path fill="none" stroke="midnightblue" d="M163.631,-69.3458C178.905,-67.8021 194.476,-66.2284 208.714,-64.7895"/>
<polygon fill="midnightblue" stroke="midnightblue" points="163.252,-65.8662 153.654,-70.3541 163.955,-72.8308 163.252,-65.8662"/>
</g>
<!-- Node5 -->
<g id="node5" class="node"><title>Node5</title>
<g id="a_node5"><a xlink:href="class_omni_o_g_l_1_1_block_array.html#a14765eb5f0ef34abef770f8f94a65027" target="_top" xlink:title="The default constructor for this class which takes no parameters and does little but initialize vario...">
<polygon fill="white" stroke="black" points="210,-0 210,-30 324,-30 324,-0 210,-0"/>
<text text-anchor="start" x="218" y="-18" font-family="Helvetica,sans-Serif" font-size="10.00">OmniOGL::BlockArray</text>
<text text-anchor="middle" x="267" y="-7" font-family="Helvetica,sans-Serif" font-size="10.00">::BlockArray</text>
</a>
</g>
</g>
<!-- Node1&#45;&gt;Node5 -->
<g id="edge4" class="edge"><title>Node1&#45;&gt;Node5</title>
<path fill="none" stroke="midnightblue" d="M115.571,-65.1554C137.301,-57.7509 165.174,-48.2946 190,-40 199.749,-36.7428 210.212,-33.2798 220.162,-30.002"/>
<polygon fill="midnightblue" stroke="midnightblue" points="114.388,-61.861 106.053,-68.4014 116.647,-68.4863 114.388,-61.861"/>
</g>
</g>
</svg>
