<?xml version="1.0" encoding="UTF-8" standalone="no"?>
<!DOCTYPE svg PUBLIC "-//W3C//DTD SVG 1.1//EN"
 "http://www.w3.org/Graphics/SVG/1.1/DTD/svg11.dtd">
<!-- Generated by graphviz version 2.30.1 (20130214.1330)
 -->
<!-- Title: OmniOGL::Scene::RemoveObject Pages: 1 -->
<svg width="652pt" height="38pt"
 viewBox="0.00 0.00 652.00 38.00" xmlns="http://www.w3.org/2000/svg" xmlns:xlink="http://www.w3.org/1999/xlink">
<g id="graph0" class="graph" transform="scale(1 1) rotate(0) translate(4 34)">
<title>OmniOGL::Scene::RemoveObject</title>
<polygon fill="white" stroke="white" points="-4,5 -4,-34 649,-34 649,5 -4,5"/>
<!-- Node1 -->
<g id="node1" class="node"><title>Node1</title>
<polygon fill="#bfbfbf" stroke="black" points="0.5,-5.5 0.5,-24.5 163.5,-24.5 163.5,-5.5 0.5,-5.5"/>
<text text-anchor="middle" x="82" y="-12.5" font-family="Helvetica,sans-Serif" font-size="10.00">OmniOGL::Scene::RemoveObject</text>
</g>
<!-- Node2 -->
<g id="node2" class="node"><title>Node2</title>
<g id="a_node2"><a xlink:href="class_omni_o_g_l_1_1_section_collection.html#a48c15326a3435fbc853671efde647d6f" target="_top" xlink:title="OmniOGL::SectionCollection\l::RemoveObject">
<polygon fill="white" stroke="black" points="200,-0 200,-30 342,-30 342,-0 200,-0"/>
<text text-anchor="start" x="208" y="-18" font-family="Helvetica,sans-Serif" font-size="10.00">OmniOGL::SectionCollection</text>
<text text-anchor="middle" x="271" y="-7" font-family="Helvetica,sans-Serif" font-size="10.00">::RemoveObject</text>
</a>
</g>
</g>
<!-- Node1&#45;&gt;Node2 -->
<g id="edge1" class="edge"><title>Node1&#45;&gt;Node2</title>
<path fill="none" stroke="midnightblue" d="M163.662,-15C172.33,-15 181.148,-15 189.81,-15"/>
<polygon fill="midnightblue" stroke="midnightblue" points="189.889,-18.5001 199.889,-15 189.889,-11.5001 189.889,-18.5001"/>
</g>
<!-- Node3 -->
<g id="node3" class="node"><title>Node3</title>
<g id="a_node3"><a xlink:href="class_omni_o_g_l_1_1_section.html#ac8ecd65a9d61f632f44d18df9174cf8d" target="_top" xlink:title="Removes an object from the Section&#39;s collection (linked list) of objects. This method also decrements...">
<polygon fill="white" stroke="black" points="378,-0 378,-30 518,-30 518,-0 378,-0"/>
<text text-anchor="start" x="386" y="-18" font-family="Helvetica,sans-Serif" font-size="10.00">OmniOGL::Section::Remove</text>
<text text-anchor="middle" x="448" y="-7" font-family="Helvetica,sans-Serif" font-size="10.00">Object</text>
</a>
</g>
</g>
<!-- Node2&#45;&gt;Node3 -->
<g id="edge2" class="edge"><title>Node2&#45;&gt;Node3</title>
<path fill="none" stroke="midnightblue" d="M342.171,-15C350.646,-15 359.347,-15 367.938,-15"/>
<polygon fill="midnightblue" stroke="midnightblue" points="367.953,-18.5001 377.953,-15 367.953,-11.5001 367.953,-18.5001"/>
</g>
<!-- Node4 -->
<g id="node4" class="node"><title>Node4</title>
<g id="a_node4"><a xlink:href="namespace_omni_o_g_l.html#a8f559408c62db097a1a918d7f58f4183" target="_top" xlink:title="A &quot;clone&quot; of the well&#45;known printf() function, with the debug routed to the OutputDebugString() funct...">
<polygon fill="white" stroke="black" points="554,-5.5 554,-24.5 644,-24.5 644,-5.5 554,-5.5"/>
<text text-anchor="middle" x="599" y="-12.5" font-family="Helvetica,sans-Serif" font-size="10.00">OmniOGL::dprint</text>
</a>
</g>
</g>
<!-- Node3&#45;&gt;Node4 -->
<g id="edge3" class="edge"><title>Node3&#45;&gt;Node4</title>
<path fill="none" stroke="midnightblue" d="M518.266,-15C526.708,-15 535.241,-15 543.428,-15"/>
<polygon fill="midnightblue" stroke="midnightblue" points="543.579,-18.5001 553.579,-15 543.579,-11.5001 543.579,-18.5001"/>
</g>
</g>
</svg>
