<?xml version="1.0" encoding="UTF-8" standalone="no"?>
<!DOCTYPE svg PUBLIC "-//W3C//DTD SVG 1.1//EN"
 "http://www.w3.org/Graphics/SVG/1.1/DTD/svg11.dtd">
<!-- Generated by graphviz version 2.30.1 (20130214.1330)
 -->
<!-- Title: OmniOGL::LineStrip::Draw Pages: 1 -->
<svg width="492pt" height="138pt"
 viewBox="0.00 0.00 492.00 137.73" xmlns="http://www.w3.org/2000/svg" xmlns:xlink="http://www.w3.org/1999/xlink">
<g id="graph0" class="graph" transform="scale(1 1) rotate(0) translate(4 133.725)">
<title>OmniOGL::LineStrip::Draw</title>
<polygon fill="white" stroke="white" points="-4,5 -4,-133.725 489,-133.725 489,5 -4,5"/>
<!-- Node1 -->
<g id="node1" class="node"><title>Node1</title>
<polygon fill="#bfbfbf" stroke="black" points="0,-44.7251 0,-74.7251 104,-74.7251 104,-44.7251 0,-44.7251"/>
<text text-anchor="start" x="8" y="-62.7251" font-family="Helvetica,sans-Serif" font-size="10.00">OmniOGL::LineStrip</text>
<text text-anchor="middle" x="52" y="-51.7251" font-family="Helvetica,sans-Serif" font-size="10.00">::Draw</text>
</g>
<!-- Node2 -->
<g id="node2" class="node"><title>Node2</title>
<g id="a_node2"><a xlink:href="class_omni_o_g_l_1_1_ren_obj.html#a255d93ed0e0f4827b47dacc68eac6c36" target="_top" xlink:title="This method lies at the heart of the rendering process, as it binds the object&#39;s relevant data to the...">
<polygon fill="white" stroke="black" points="140.5,-110.225 140.5,-129.225 309.5,-129.225 309.5,-110.225 140.5,-110.225"/>
<text text-anchor="middle" x="225" y="-117.225" font-family="Helvetica,sans-Serif" font-size="10.00">OmniOGL::RenObj::BindBufferData</text>
</a>
</g>
</g>
<!-- Node1&#45;&gt;Node2 -->
<g id="edge1" class="edge"><title>Node1&#45;&gt;Node2</title>
<path fill="none" stroke="midnightblue" d="M80.9524,-74.8102C97.7005,-83.3604 119.633,-93.7164 140,-100.725 147.538,-103.319 155.581,-105.657 163.59,-107.733"/>
<polygon fill="midnightblue" stroke="midnightblue" points="162.759,-111.133 173.307,-110.134 164.439,-104.337 162.759,-111.133"/>
</g>
<!-- Node4 -->
<g id="node4" class="node"><title>Node4</title>
<g id="a_node4"><a xlink:href="class_omni_o_g_l_1_1_ren_obj.html#a0a4218e288329f8e7b17081670948c9d" target="_top" xlink:title="This method attempts to handle all of the necessary OpenGL state changes in one place. The desired value of various states are stored as a local variable owned by the object. This method is called for each object each frame and simply sets each state to the position specified by the object.">
<polygon fill="white" stroke="black" points="156,-72.2251 156,-91.2251 294,-91.2251 294,-72.2251 156,-72.2251"/>
<text text-anchor="middle" x="225" y="-79.2251" font-family="Helvetica,sans-Serif" font-size="10.00">OmniOGL::RenObj::Prepare</text>
</a>
</g>
</g>
<!-- Node1&#45;&gt;Node4 -->
<g id="edge3" class="edge"><title>Node1&#45;&gt;Node4</title>
<path fill="none" stroke="midnightblue" d="M104.306,-66.3259C117.368,-68.0063 131.704,-69.8508 145.776,-71.6612"/>
<polygon fill="midnightblue" stroke="midnightblue" points="145.589,-75.1659 155.954,-72.9707 146.482,-68.2232 145.589,-75.1659"/>
</g>
<!-- Node6 -->
<g id="node6" class="node"><title>Node6</title>
<g id="a_node6"><a xlink:href="class_omni_o_g_l_1_1_o_g_l_matrices.html#acf36e7ad27e383dfdd30095dd1b97b0a" target="_top" xlink:title="This method is intended to offer a simple way to set the translation matrix via a set of x...">
<polygon fill="white" stroke="black" points="163,-22.7251 163,-52.7251 287,-52.7251 287,-22.7251 163,-22.7251"/>
<text text-anchor="start" x="171" y="-40.7251" font-family="Helvetica,sans-Serif" font-size="10.00">OmniOGL::OGLMatrices</text>
<text text-anchor="middle" x="225" y="-29.7251" font-family="Helvetica,sans-Serif" font-size="10.00">::sTranslate</text>
</a>
</g>
</g>
<!-- Node1&#45;&gt;Node6 -->
<g id="edge5" class="edge"><title>Node1&#45;&gt;Node6</title>
<path fill="none" stroke="midnightblue" d="M104.306,-53.1244C119.54,-51.1644 136.509,-48.9813 152.769,-46.8893"/>
<polygon fill="midnightblue" stroke="midnightblue" points="153.309,-50.3489 162.78,-45.6014 152.415,-43.4061 153.309,-50.3489"/>
</g>
<!-- Node7 -->
<g id="node7" class="node"><title>Node7</title>
<g id="a_node7"><a xlink:href="class_omni_o_g_l_1_1_o_g_l_matrices.html#aacb4830605589d383ded70ceec9b40bf" target="_top" xlink:title="This method sends a combined translation*rotation*scale 4x4 matrix to the shader program, effectively configuring the size, orientation, and position of each vertex which is a candidate for rendering. The combined &quot;srt&quot; matrix is an attribute in the shader program, so it is sent via a vertex buffer object. Note that this method is capable of taking an array of matrices if a count is specified (second parameter), in order to accomodate instanced rendering. If no second parameter is passed, it is assumed that the first parameter only points to a single matrix. Scene::info.vbo">
<polygon fill="white" stroke="black" points="353,-0.725147 353,-30.7251 477,-30.7251 477,-0.725147 353,-0.725147"/>
<text text-anchor="start" x="361" y="-18.7251" font-family="Helvetica,sans-Serif" font-size="10.00">OmniOGL::OGLMatrices</text>
<text text-anchor="middle" x="415" y="-7.72515" font-family="Helvetica,sans-Serif" font-size="10.00">::UpdateSRT</text>
</a>
</g>
</g>
<!-- Node1&#45;&gt;Node7 -->
<g id="edge7" class="edge"><title>Node1&#45;&gt;Node7</title>
<path fill="none" stroke="midnightblue" d="M73.9253,-44.5527C90.8203,-33.2922 115.7,-18.8692 140,-12.7251 207.19,4.2636 286.641,0.945154 342.64,-5.06965"/>
<polygon fill="midnightblue" stroke="midnightblue" points="342.485,-8.57434 352.814,-6.21984 343.271,-1.61864 342.485,-8.57434"/>
</g>
<!-- Node3 -->
<g id="node3" class="node"><title>Node3</title>
<g id="a_node3"><a xlink:href="class_omni_o_g_l_1_1_o_g_l_buffers.html#aee0431bf99d4f232db33ad6b10780088" target="_top" xlink:title="OmniOGL::OGLBuffers::vbo">
<polygon fill="white" stroke="black" points="346.5,-110.225 346.5,-129.225 483.5,-129.225 483.5,-110.225 346.5,-110.225"/>
<text text-anchor="middle" x="415" y="-117.225" font-family="Helvetica,sans-Serif" font-size="10.00">OmniOGL::OGLBuffers::vbo</text>
</a>
</g>
</g>
<!-- Node2&#45;&gt;Node3 -->
<g id="edge2" class="edge"><title>Node2&#45;&gt;Node3</title>
<path fill="none" stroke="midnightblue" d="M309.554,-119.725C318.436,-119.725 327.443,-119.725 336.253,-119.725"/>
<polygon fill="midnightblue" stroke="midnightblue" points="336.487,-123.225 346.487,-119.725 336.487,-116.225 336.487,-123.225"/>
</g>
<!-- Node5 -->
<g id="node5" class="node"><title>Node5</title>
<g id="a_node5"><a xlink:href="namespace_omni_o_g_l.html#ade1ba238a31a1003412522a2769d5945" target="_top" xlink:title="OmniOGL::_Valid">
<polygon fill="white" stroke="black" points="368.5,-72.2251 368.5,-91.2251 461.5,-91.2251 461.5,-72.2251 368.5,-72.2251"/>
<text text-anchor="middle" x="415" y="-79.2251" font-family="Helvetica,sans-Serif" font-size="10.00">OmniOGL::_Valid</text>
</a>
</g>
</g>
<!-- Node4&#45;&gt;Node5 -->
<g id="edge4" class="edge"><title>Node4&#45;&gt;Node5</title>
<path fill="none" stroke="midnightblue" d="M294.138,-81.7251C315.167,-81.7251 338.068,-81.7251 358.166,-81.7251"/>
<polygon fill="midnightblue" stroke="midnightblue" points="358.395,-85.2252 368.395,-81.7251 358.395,-78.2252 358.395,-85.2252"/>
</g>
<!-- Node6&#45;&gt;Node7 -->
<g id="edge6" class="edge"><title>Node6&#45;&gt;Node7</title>
<path fill="none" stroke="midnightblue" d="M287.038,-30.5824C304.86,-28.4969 324.491,-26.1996 342.879,-24.0479"/>
<polygon fill="midnightblue" stroke="midnightblue" points="343.421,-27.5083 352.947,-22.8697 342.608,-20.5558 343.421,-27.5083"/>
</g>
</g>
</svg>
