<?xml version="1.0" encoding="UTF-8" standalone="no"?>
<!DOCTYPE svg PUBLIC "-//W3C//DTD SVG 1.1//EN"
 "http://www.w3.org/Graphics/SVG/1.1/DTD/svg11.dtd">
<!-- Generated by graphviz version 2.30.1 (20130214.1330)
 -->
<!-- Title: OmniOGL::Floor::Floor Pages: 1 -->
<svg width="440pt" height="104pt"
 viewBox="0.00 0.00 440.00 104.00" xmlns="http://www.w3.org/2000/svg" xmlns:xlink="http://www.w3.org/1999/xlink">
<g id="graph0" class="graph" transform="scale(1 1) rotate(0) translate(4 100)">
<title>OmniOGL::Floor::Floor</title>
<polygon fill="white" stroke="white" points="-4,5 -4,-100 437,-100 437,5 -4,5"/>
<!-- Node1 -->
<g id="node1" class="node"><title>Node1</title>
<polygon fill="#bfbfbf" stroke="black" points="0,-38.5 0,-57.5 116,-57.5 116,-38.5 0,-38.5"/>
<text text-anchor="middle" x="58" y="-45.5" font-family="Helvetica,sans-Serif" font-size="10.00">OmniOGL::Floor::Floor</text>
</g>
<!-- Node2 -->
<g id="node2" class="node"><title>Node2</title>
<g id="a_node2"><a xlink:href="namespace_omni_o_g_l.html#a80cd48382ee4083e78ba3431e570b82c" target="_top" xlink:title="A wrapper around the new[] keyword. Allocates the desired number of elements to the given pointer...">
<polygon fill="white" stroke="black" points="184,-76.5 184,-95.5 274,-95.5 274,-76.5 184,-76.5"/>
<text text-anchor="middle" x="229" y="-83.5" font-family="Helvetica,sans-Serif" font-size="10.00">OmniOGL::_New</text>
</a>
</g>
</g>
<!-- Node1&#45;&gt;Node2 -->
<g id="edge1" class="edge"><title>Node1&#45;&gt;Node2</title>
<path fill="none" stroke="midnightblue" d="M101.646,-57.589C124.148,-62.6487 151.948,-68.8996 175.738,-74.2488"/>
<polygon fill="midnightblue" stroke="midnightblue" points="175.137,-77.7009 185.661,-76.4799 176.672,-70.8714 175.137,-77.7009"/>
</g>
<!-- Node4 -->
<g id="node4" class="node"><title>Node4</title>
<g id="a_node4"><a xlink:href="class_omni_o_g_l_1_1_ren_obj.html#a57b3b7f832a64b1402d9734e533e58f7" target="_top" xlink:title="A setter which sets the origin of the object in 3D space, to which all vertices are relative...">
<polygon fill="white" stroke="black" points="156.5,-38.5 156.5,-57.5 301.5,-57.5 301.5,-38.5 156.5,-38.5"/>
<text text-anchor="middle" x="229" y="-45.5" font-family="Helvetica,sans-Serif" font-size="10.00">OmniOGL::RenObj::SetOrigin</text>
</a>
</g>
</g>
<!-- Node1&#45;&gt;Node4 -->
<g id="edge3" class="edge"><title>Node1&#45;&gt;Node4</title>
<path fill="none" stroke="midnightblue" d="M116.216,-48C125.911,-48 136.144,-48 146.321,-48"/>
<polygon fill="midnightblue" stroke="midnightblue" points="146.459,-51.5001 156.459,-48 146.459,-44.5001 146.459,-51.5001"/>
</g>
<!-- Node5 -->
<g id="node5" class="node"><title>Node5</title>
<g id="a_node5"><a xlink:href="class_omni_o_g_l_1_1_ren_obj.html#a5560107473f4be36a32c22ded0212559" target="_top" xlink:title="A simple method which returns four floats in an array, the first three of which will contain the same...">
<polygon fill="white" stroke="black" points="152.5,-0.5 152.5,-19.5 305.5,-19.5 305.5,-0.5 152.5,-0.5"/>
<text text-anchor="middle" x="229" y="-7.5" font-family="Helvetica,sans-Serif" font-size="10.00">OmniOGL::RenObj::factor_vec4</text>
</a>
</g>
</g>
<!-- Node1&#45;&gt;Node5 -->
<g id="edge4" class="edge"><title>Node1&#45;&gt;Node5</title>
<path fill="none" stroke="midnightblue" d="M101.646,-38.411C124.148,-33.3513 151.948,-27.1004 175.738,-21.7512"/>
<polygon fill="midnightblue" stroke="midnightblue" points="176.672,-25.1286 185.661,-19.5201 175.137,-18.2991 176.672,-25.1286"/>
</g>
<!-- Node3 -->
<g id="node3" class="node"><title>Node3</title>
<g id="a_node3"><a xlink:href="namespace_omni_o_g_l.html#a8f559408c62db097a1a918d7f58f4183" target="_top" xlink:title="A &quot;clone&quot; of the well&#45;known printf() function, with the debug routed to the OutputDebugString() funct...">
<polygon fill="white" stroke="black" points="342,-76.5 342,-95.5 432,-95.5 432,-76.5 342,-76.5"/>
<text text-anchor="middle" x="387" y="-83.5" font-family="Helvetica,sans-Serif" font-size="10.00">OmniOGL::dprint</text>
</a>
</g>
</g>
<!-- Node2&#45;&gt;Node3 -->
<g id="edge2" class="edge"><title>Node2&#45;&gt;Node3</title>
<path fill="none" stroke="midnightblue" d="M274.286,-86C292.147,-86 312.929,-86 331.69,-86"/>
<polygon fill="midnightblue" stroke="midnightblue" points="331.873,-89.5001 341.873,-86 331.873,-82.5001 331.873,-89.5001"/>
</g>
</g>
</svg>
