<?xml version="1.0" encoding="UTF-8" standalone="no"?>
<!DOCTYPE svg PUBLIC "-//W3C//DTD SVG 1.1//EN"
 "http://www.w3.org/Graphics/SVG/1.1/DTD/svg11.dtd">
<!-- Generated by graphviz version 2.30.1 (20130214.1330)
 -->
<!-- Title: OmniOGL::Scene::ApplyLighting Pages: 1 -->
<svg width="536pt" height="66pt"
 viewBox="0.00 0.00 536.00 66.00" xmlns="http://www.w3.org/2000/svg" xmlns:xlink="http://www.w3.org/1999/xlink">
<g id="graph0" class="graph" transform="scale(1 1) rotate(0) translate(4 62)">
<title>OmniOGL::Scene::ApplyLighting</title>
<polygon fill="white" stroke="white" points="-4,5 -4,-62 533,-62 533,5 -4,5"/>
<!-- Node1 -->
<g id="node1" class="node"><title>Node1</title>
<polygon fill="#bfbfbf" stroke="black" points="0,-19.5 0,-38.5 158,-38.5 158,-19.5 0,-19.5"/>
<text text-anchor="middle" x="79" y="-26.5" font-family="Helvetica,sans-Serif" font-size="10.00">OmniOGL::Scene::ApplyLighting</text>
</g>
<!-- Node2 -->
<g id="node2" class="node"><title>Node2</title>
<g id="a_node2"><a xlink:href="class_omni_o_g_l_1_1_ren_obj.html#a57b3b7f832a64b1402d9734e533e58f7" target="_top" xlink:title="A setter which sets the origin of the object in 3D space, to which all vertices are relative...">
<polygon fill="white" stroke="black" points="194.5,-38.5 194.5,-57.5 339.5,-57.5 339.5,-38.5 194.5,-38.5"/>
<text text-anchor="middle" x="267" y="-45.5" font-family="Helvetica,sans-Serif" font-size="10.00">OmniOGL::RenObj::SetOrigin</text>
</a>
</g>
</g>
<!-- Node1&#45;&gt;Node2 -->
<g id="edge1" class="edge"><title>Node1&#45;&gt;Node2</title>
<path fill="none" stroke="midnightblue" d="M158.072,-36.9751C166.718,-37.8583 175.541,-38.7596 184.231,-39.6473"/>
<polygon fill="midnightblue" stroke="midnightblue" points="184.049,-43.1468 194.353,-40.6812 184.761,-36.183 184.049,-43.1468"/>
</g>
<!-- Node3 -->
<g id="node3" class="node"><title>Node3</title>
<g id="a_node3"><a xlink:href="class_omni_o_g_l_1_1_scene.html#a63db7f91d326ad1a20741b31417b8148" target="_top" xlink:title="A template method which adds an renderable object of type T to the scene. It is assumed that T is a d...">
<polygon fill="white" stroke="black" points="194,-0.5 194,-19.5 340,-19.5 340,-0.5 194,-0.5"/>
<text text-anchor="middle" x="267" y="-7.5" font-family="Helvetica,sans-Serif" font-size="10.00">OmniOGL::Scene::AddObject</text>
</a>
</g>
</g>
<!-- Node1&#45;&gt;Node3 -->
<g id="edge2" class="edge"><title>Node1&#45;&gt;Node3</title>
<path fill="none" stroke="midnightblue" d="M158.072,-21.0249C166.575,-20.1563 175.25,-19.2702 183.8,-18.3968"/>
<polygon fill="midnightblue" stroke="midnightblue" points="184.171,-21.8772 193.764,-17.379 183.46,-14.9134 184.171,-21.8772"/>
</g>
<!-- Node4 -->
<g id="node4" class="node"><title>Node4</title>
<g id="a_node4"><a xlink:href="class_omni_o_g_l_1_1_section.html#a20b4cf2c6472d59e9967aa8dbad377a4" target="_top" xlink:title="Adds an object to the Section&#39;s collection (linked list) of objects. This method also increments Sect...">
<polygon fill="white" stroke="black" points="376.5,-0.5 376.5,-19.5 527.5,-19.5 527.5,-0.5 376.5,-0.5"/>
<text text-anchor="middle" x="452" y="-7.5" font-family="Helvetica,sans-Serif" font-size="10.00">OmniOGL::Section::AddObject</text>
</a>
</g>
</g>
<!-- Node3&#45;&gt;Node4 -->
<g id="edge3" class="edge"><title>Node3&#45;&gt;Node4</title>
<path fill="none" stroke="midnightblue" d="M340.064,-10C348.619,-10 357.411,-10 366.123,-10"/>
<polygon fill="midnightblue" stroke="midnightblue" points="366.294,-13.5001 376.294,-10 366.294,-6.5001 366.294,-13.5001"/>
</g>
</g>
</svg>
