<?xml version="1.0" encoding="UTF-8" standalone="no"?>
<!DOCTYPE svg PUBLIC "-//W3C//DTD SVG 1.1//EN"
 "http://www.w3.org/Graphics/SVG/1.1/DTD/svg11.dtd">
<!-- Generated by graphviz version 2.30.1 (20130214.1330)
 -->
<!-- Title: OmniOGL::TextOverlay::PushVerticalCompensation Pages: 1 -->
<svg width="302pt" height="38pt"
 viewBox="0.00 0.00 302.00 38.00" xmlns="http://www.w3.org/2000/svg" xmlns:xlink="http://www.w3.org/1999/xlink">
<g id="graph0" class="graph" transform="scale(1 1) rotate(0) translate(4 34)">
<title>OmniOGL::TextOverlay::PushVerticalCompensation</title>
<polygon fill="white" stroke="white" points="-4,5 -4,-34 299,-34 299,5 -4,5"/>
<!-- Node1 -->
<g id="node1" class="node"><title>Node1</title>
<polygon fill="#bfbfbf" stroke="black" points="0,-0 0,-30 140,-30 140,-0 0,-0"/>
<text text-anchor="start" x="8" y="-18" font-family="Helvetica,sans-Serif" font-size="10.00">OmniOGL::TextOverlay</text>
<text text-anchor="middle" x="70" y="-7" font-family="Helvetica,sans-Serif" font-size="10.00">::PushVerticalCompensation</text>
</g>
<!-- Node2 -->
<g id="node2" class="node"><title>Node2</title>
<g id="a_node2"><a xlink:href="class_omni_o_g_l_1_1_text_overlay.html#a21150746059ec6c2ce5a48169aff6f14" target="_top" xlink:title="A method which will be called each frame for each TextOverlay object and is responsible for binding r...">
<polygon fill="white" stroke="black" points="176.5,-0 176.5,-30 293.5,-30 293.5,-0 176.5,-0"/>
<text text-anchor="start" x="184.5" y="-18" font-family="Helvetica,sans-Serif" font-size="10.00">OmniOGL::TextOverlay</text>
<text text-anchor="middle" x="235" y="-7" font-family="Helvetica,sans-Serif" font-size="10.00">::Draw</text>
</a>
</g>
</g>
<!-- Node1&#45;&gt;Node2 -->
<g id="edge1" class="edge"><title>Node1&#45;&gt;Node2</title>
<path fill="none" stroke="midnightblue" d="M150.367,-15C159.123,-15 167.912,-15 176.33,-15"/>
<polygon fill="midnightblue" stroke="midnightblue" points="150.127,-11.5001 140.127,-15 150.127,-18.5001 150.127,-11.5001"/>
</g>
</g>
</svg>
