<?xml version="1.0" encoding="UTF-8" standalone="no"?>
<!DOCTYPE svg PUBLIC "-//W3C//DTD SVG 1.1//EN"
 "http://www.w3.org/Graphics/SVG/1.1/DTD/svg11.dtd">
<!-- Generated by graphviz version 2.30.1 (20130214.1330)
 -->
<!-- Title: OmniOGL::Voxel::SetMarchingCubesParameters Pages: 1 -->
<svg width="712pt" height="87pt"
 viewBox="0.00 0.00 712.00 87.00" xmlns="http://www.w3.org/2000/svg" xmlns:xlink="http://www.w3.org/1999/xlink">
<g id="graph0" class="graph" transform="scale(1 1) rotate(0) translate(4 83)">
<title>OmniOGL::Voxel::SetMarchingCubesParameters</title>
<polygon fill="white" stroke="white" points="-4,5 -4,-83 709,-83 709,5 -4,5"/>
<!-- Node1 -->
<g id="node1" class="node"><title>Node1</title>
<polygon fill="#bfbfbf" stroke="black" points="0,-24 0,-54 152,-54 152,-24 0,-24"/>
<text text-anchor="start" x="8" y="-42" font-family="Helvetica,sans-Serif" font-size="10.00">OmniOGL::Voxel::SetMarching</text>
<text text-anchor="middle" x="76" y="-31" font-family="Helvetica,sans-Serif" font-size="10.00">CubesParameters</text>
</g>
<!-- Node2 -->
<g id="node2" class="node"><title>Node2</title>
<g id="a_node2"><a xlink:href="class_omni_o_g_l_1_1_surface_net.html#af5a54cbc22614787f6c7fff05382e15f" target="_top" xlink:title="This method takes three floats as parameters which represent a point in 3D space which is added to th...">
<polygon fill="white" stroke="black" points="188,-49 188,-79 302,-79 302,-49 188,-49"/>
<text text-anchor="start" x="196" y="-67" font-family="Helvetica,sans-Serif" font-size="10.00">OmniOGL::SurfaceNet</text>
<text text-anchor="middle" x="245" y="-56" font-family="Helvetica,sans-Serif" font-size="10.00">::AddNode</text>
</a>
</g>
</g>
<!-- Node1&#45;&gt;Node2 -->
<g id="edge1" class="edge"><title>Node1&#45;&gt;Node2</title>
<path fill="none" stroke="midnightblue" d="M152.195,-50.2567C160.689,-51.5282 169.298,-52.8171 177.667,-54.0699"/>
<polygon fill="midnightblue" stroke="midnightblue" points="177.324,-57.5575 187.732,-55.5767 178.361,-50.6347 177.324,-57.5575"/>
</g>
<!-- Node3 -->
<g id="node3" class="node"><title>Node3</title>
<g id="a_node3"><a xlink:href="class_omni_o_g_l_1_1_surface_net.html#ae5c27214a80e2852b3db3ff1c9b2ab7e" target="_top" xlink:title="This method adds any number of neighbors to a NetNode at the specified index. All indices passed to t...">
<polygon fill="white" stroke="black" points="188,-0 188,-30 302,-30 302,-0 188,-0"/>
<text text-anchor="start" x="196" y="-18" font-family="Helvetica,sans-Serif" font-size="10.00">OmniOGL::SurfaceNet</text>
<text text-anchor="middle" x="245" y="-7" font-family="Helvetica,sans-Serif" font-size="10.00">::AddNeighbors</text>
</a>
</g>
</g>
<!-- Node1&#45;&gt;Node3 -->
<g id="edge2" class="edge"><title>Node1&#45;&gt;Node3</title>
<path fill="none" stroke="midnightblue" d="M152.195,-28.1936C160.689,-26.9729 169.298,-25.7356 177.667,-24.5329"/>
<polygon fill="midnightblue" stroke="midnightblue" points="178.332,-27.9734 187.732,-23.0864 177.336,-21.0445 178.332,-27.9734"/>
</g>
<!-- Node4 -->
<g id="node4" class="node"><title>Node4</title>
<g id="a_node4"><a xlink:href="class_omni_o_g_l_1_1_net_node.html#a8c7516402f5ac053c6723e512bb7e97e" target="_top" xlink:title="This method should be invoked two times for each triangle that the vertex represented by this NetNode...">
<polygon fill="white" stroke="black" points="338.5,-5.5 338.5,-24.5 503.5,-24.5 503.5,-5.5 338.5,-5.5"/>
<text text-anchor="middle" x="421" y="-12.5" font-family="Helvetica,sans-Serif" font-size="10.00">OmniOGL::NetNode::AddNeighbor</text>
</a>
</g>
</g>
<!-- Node3&#45;&gt;Node4 -->
<g id="edge3" class="edge"><title>Node3&#45;&gt;Node4</title>
<path fill="none" stroke="midnightblue" d="M302.012,-15C310.458,-15 319.351,-15 328.311,-15"/>
<polygon fill="midnightblue" stroke="midnightblue" points="328.435,-18.5001 338.435,-15 328.435,-11.5001 328.435,-18.5001"/>
</g>
<!-- Node5 -->
<g id="node5" class="node"><title>Node5</title>
<g id="a_node5"><a xlink:href="class_omni_o_g_l_1_1_net_node.html#a16bade900879b7301129e0b202fb231c" target="_top" xlink:title="A method which returns a scalar distance between the original vertex represented by this NetNode and ...">
<polygon fill="white" stroke="black" points="540,-5.5 540,-24.5 704,-24.5 704,-5.5 540,-5.5"/>
<text text-anchor="middle" x="622" y="-12.5" font-family="Helvetica,sans-Serif" font-size="10.00">OmniOGL::NetNode::GetDistance</text>
</a>
</g>
</g>
<!-- Node4&#45;&gt;Node5 -->
<g id="edge4" class="edge"><title>Node4&#45;&gt;Node5</title>
<path fill="none" stroke="midnightblue" d="M503.515,-15C512.156,-15 520.984,-15 529.726,-15"/>
<polygon fill="midnightblue" stroke="midnightblue" points="529.934,-18.5001 539.934,-15 529.933,-11.5001 529.934,-18.5001"/>
</g>
</g>
</svg>
