<?xml version="1.0" encoding="UTF-8" standalone="no"?>
<!DOCTYPE svg PUBLIC "-//W3C//DTD SVG 1.1//EN"
 "http://www.w3.org/Graphics/SVG/1.1/DTD/svg11.dtd">
<!-- Generated by graphviz version 2.30.1 (20130214.1330)
 -->
<!-- Title: OmniOGL::Floor::Floor Pages: 1 -->
<svg width="440pt" height="66pt"
 viewBox="0.00 0.00 440.00 66.00" xmlns="http://www.w3.org/2000/svg" xmlns:xlink="http://www.w3.org/1999/xlink">
<g id="graph0" class="graph" transform="scale(1 1) rotate(0) translate(4 62)">
<title>OmniOGL::Floor::Floor</title>
<polygon fill="white" stroke="white" points="-4,5 -4,-62 437,-62 437,5 -4,5"/>
<!-- Node1 -->
<g id="node1" class="node"><title>Node1</title>
<polygon fill="#bfbfbf" stroke="black" points="0,-19.5 0,-38.5 116,-38.5 116,-19.5 0,-19.5"/>
<text text-anchor="middle" x="58" y="-26.5" font-family="Helvetica,sans-Serif" font-size="10.00">OmniOGL::Floor::Floor</text>
</g>
<!-- Node2 -->
<g id="node2" class="node"><title>Node2</title>
<g id="a_node2"><a xlink:href="namespace_omni_o_g_l.html#a80cd48382ee4083e78ba3431e570b82c" target="_top" xlink:title="A wrapper around the new[] keyword. Allocates the desired number of elements to the given pointer...">
<polygon fill="white" stroke="black" points="184,-38.5 184,-57.5 274,-57.5 274,-38.5 184,-38.5"/>
<text text-anchor="middle" x="229" y="-45.5" font-family="Helvetica,sans-Serif" font-size="10.00">OmniOGL::_New</text>
</a>
</g>
</g>
<!-- Node1&#45;&gt;Node2 -->
<g id="edge1" class="edge"><title>Node1&#45;&gt;Node2</title>
<path fill="none" stroke="midnightblue" d="M116.216,-35.4325C134.88,-37.5308 155.533,-39.8528 173.956,-41.9241"/>
<polygon fill="midnightblue" stroke="midnightblue" points="173.607,-45.4067 183.935,-43.046 174.389,-38.4506 173.607,-45.4067"/>
</g>
<!-- Node4 -->
<g id="node4" class="node"><title>Node4</title>
<g id="a_node4"><a xlink:href="class_omni_o_g_l_1_1_ren_obj.html#a5560107473f4be36a32c22ded0212559" target="_top" xlink:title="A simple method which returns four floats in an array, the first three of which will contain the same...">
<polygon fill="white" stroke="black" points="152.5,-0.5 152.5,-19.5 305.5,-19.5 305.5,-0.5 152.5,-0.5"/>
<text text-anchor="middle" x="229" y="-7.5" font-family="Helvetica,sans-Serif" font-size="10.00">OmniOGL::RenObj::factor_vec4</text>
</a>
</g>
</g>
<!-- Node1&#45;&gt;Node4 -->
<g id="edge3" class="edge"><title>Node1&#45;&gt;Node4</title>
<path fill="none" stroke="midnightblue" d="M116.216,-22.5675C124.634,-21.621 133.457,-20.629 142.298,-19.6351"/>
<polygon fill="midnightblue" stroke="midnightblue" points="142.72,-23.1098 152.267,-18.5144 141.938,-16.1536 142.72,-23.1098"/>
</g>
<!-- Node3 -->
<g id="node3" class="node"><title>Node3</title>
<g id="a_node3"><a xlink:href="namespace_omni_o_g_l.html#a8f559408c62db097a1a918d7f58f4183" target="_top" xlink:title="A &quot;clone&quot; of the well&#45;known printf() function, with the debug routed to the OutputDebugString() funct...">
<polygon fill="white" stroke="black" points="342,-38.5 342,-57.5 432,-57.5 432,-38.5 342,-38.5"/>
<text text-anchor="middle" x="387" y="-45.5" font-family="Helvetica,sans-Serif" font-size="10.00">OmniOGL::dprint</text>
</a>
</g>
</g>
<!-- Node2&#45;&gt;Node3 -->
<g id="edge2" class="edge"><title>Node2&#45;&gt;Node3</title>
<path fill="none" stroke="midnightblue" d="M274.286,-48C292.147,-48 312.929,-48 331.69,-48"/>
<polygon fill="midnightblue" stroke="midnightblue" points="331.873,-51.5001 341.873,-48 331.873,-44.5001 331.873,-51.5001"/>
</g>
</g>
</svg>
