<?xml version="1.0" encoding="UTF-8" standalone="no"?>
<!DOCTYPE svg PUBLIC "-//W3C//DTD SVG 1.1//EN"
 "http://www.w3.org/Graphics/SVG/1.1/DTD/svg11.dtd">
<!-- Generated by graphviz version 2.30.1 (20130214.1330)
 -->
<!-- Title: OmniOGL::SurfaceNet::AddNeighbors Pages: 1 -->
<svg width="524pt" height="38pt"
 viewBox="0.00 0.00 524.00 38.00" xmlns="http://www.w3.org/2000/svg" xmlns:xlink="http://www.w3.org/1999/xlink">
<g id="graph0" class="graph" transform="scale(1 1) rotate(0) translate(4 34)">
<title>OmniOGL::SurfaceNet::AddNeighbors</title>
<polygon fill="white" stroke="white" points="-4,5 -4,-34 521,-34 521,5 -4,5"/>
<!-- Node1 -->
<g id="node1" class="node"><title>Node1</title>
<polygon fill="#bfbfbf" stroke="black" points="0,-0 0,-30 114,-30 114,-0 0,-0"/>
<text text-anchor="start" x="8" y="-18" font-family="Helvetica,sans-Serif" font-size="10.00">OmniOGL::SurfaceNet</text>
<text text-anchor="middle" x="57" y="-7" font-family="Helvetica,sans-Serif" font-size="10.00">::AddNeighbors</text>
</g>
<!-- Node2 -->
<g id="node2" class="node"><title>Node2</title>
<g id="a_node2"><a xlink:href="class_omni_o_g_l_1_1_net_node.html#a8c7516402f5ac053c6723e512bb7e97e" target="_top" xlink:title="This method should be invoked two times for each triangle that the vertex represented by this NetNode...">
<polygon fill="white" stroke="black" points="150.5,-5.5 150.5,-24.5 315.5,-24.5 315.5,-5.5 150.5,-5.5"/>
<text text-anchor="middle" x="233" y="-12.5" font-family="Helvetica,sans-Serif" font-size="10.00">OmniOGL::NetNode::AddNeighbor</text>
</a>
</g>
</g>
<!-- Node1&#45;&gt;Node2 -->
<g id="edge1" class="edge"><title>Node1&#45;&gt;Node2</title>
<path fill="none" stroke="midnightblue" d="M114.012,-15C122.458,-15 131.351,-15 140.311,-15"/>
<polygon fill="midnightblue" stroke="midnightblue" points="140.435,-18.5001 150.435,-15 140.435,-11.5001 140.435,-18.5001"/>
</g>
<!-- Node3 -->
<g id="node3" class="node"><title>Node3</title>
<g id="a_node3"><a xlink:href="class_omni_o_g_l_1_1_net_node.html#a16bade900879b7301129e0b202fb231c" target="_top" xlink:title="A method which returns a scalar distance between the original vertex represented by this NetNode and ...">
<polygon fill="white" stroke="black" points="352,-5.5 352,-24.5 516,-24.5 516,-5.5 352,-5.5"/>
<text text-anchor="middle" x="434" y="-12.5" font-family="Helvetica,sans-Serif" font-size="10.00">OmniOGL::NetNode::GetDistance</text>
</a>
</g>
</g>
<!-- Node2&#45;&gt;Node3 -->
<g id="edge2" class="edge"><title>Node2&#45;&gt;Node3</title>
<path fill="none" stroke="midnightblue" d="M315.515,-15C324.156,-15 332.984,-15 341.726,-15"/>
<polygon fill="midnightblue" stroke="midnightblue" points="341.934,-18.5001 351.934,-15 341.933,-11.5001 341.934,-18.5001"/>
</g>
</g>
</svg>
