<?xml version="1.0" encoding="UTF-8" standalone="no"?>
<!DOCTYPE svg PUBLIC "-//W3C//DTD SVG 1.1//EN"
 "http://www.w3.org/Graphics/SVG/1.1/DTD/svg11.dtd">
<!-- Generated by graphviz version 2.30.1 (20130214.1330)
 -->
<!-- Title: OmniOGL::TextOverlay::SetText Pages: 1 -->
<svg width="388pt" height="104pt"
 viewBox="0.00 0.00 388.00 104.00" xmlns="http://www.w3.org/2000/svg" xmlns:xlink="http://www.w3.org/1999/xlink">
<g id="graph0" class="graph" transform="scale(1 1) rotate(0) translate(4 100)">
<title>OmniOGL::TextOverlay::SetText</title>
<polygon fill="white" stroke="white" points="-4,5 -4,-100 385,-100 385,5 -4,5"/>
<!-- Node1 -->
<g id="node1" class="node"><title>Node1</title>
<polygon fill="#bfbfbf" stroke="black" points="0.5,-33 0.5,-63 117.5,-63 117.5,-33 0.5,-33"/>
<text text-anchor="start" x="8.5" y="-51" font-family="Helvetica,sans-Serif" font-size="10.00">OmniOGL::TextOverlay</text>
<text text-anchor="middle" x="59" y="-40" font-family="Helvetica,sans-Serif" font-size="10.00">::SetText</text>
</g>
<!-- Node2 -->
<g id="node2" class="node"><title>Node2</title>
<g id="a_node2"><a xlink:href="namespace_omni_o_g_l.html#abe5ff24d55002e6ebffb4415d994260a" target="_top" xlink:title="Sets the pointer to the value &#45;1.">
<polygon fill="white" stroke="black" points="162,-76.5 162,-95.5 246,-95.5 246,-76.5 162,-76.5"/>
<text text-anchor="middle" x="204" y="-83.5" font-family="Helvetica,sans-Serif" font-size="10.00">OmniOGL::_Init</text>
</a>
</g>
</g>
<!-- Node1&#45;&gt;Node2 -->
<g id="edge1" class="edge"><title>Node1&#45;&gt;Node2</title>
<path fill="none" stroke="midnightblue" d="M116.517,-63.0186C129.946,-66.5871 144.114,-70.3519 157.007,-73.7781"/>
<polygon fill="midnightblue" stroke="midnightblue" points="156.473,-77.2575 167.036,-76.4432 158.271,-70.4923 156.473,-77.2575"/>
</g>
<!-- Node3 -->
<g id="node3" class="node"><title>Node3</title>
<g id="a_node3"><a xlink:href="namespace_omni_o_g_l.html#a80cd48382ee4083e78ba3431e570b82c" target="_top" xlink:title="A wrapper around the new[] keyword. Allocates the desired number of elements to the given pointer...">
<polygon fill="white" stroke="black" points="159,-38.5 159,-57.5 249,-57.5 249,-38.5 159,-38.5"/>
<text text-anchor="middle" x="204" y="-45.5" font-family="Helvetica,sans-Serif" font-size="10.00">OmniOGL::_New</text>
</a>
</g>
</g>
<!-- Node1&#45;&gt;Node3 -->
<g id="edge2" class="edge"><title>Node1&#45;&gt;Node3</title>
<path fill="none" stroke="midnightblue" d="M117.751,-48C127.877,-48 138.384,-48 148.42,-48"/>
<polygon fill="midnightblue" stroke="midnightblue" points="148.672,-51.5001 158.672,-48 148.672,-44.5001 148.672,-51.5001"/>
</g>
<!-- Node5 -->
<g id="node5" class="node"><title>Node5</title>
<g id="a_node5"><a xlink:href="namespace_omni_o_g_l.html#ab790cf1cdc8d2bcbdbbe06c6d87f1a1d" target="_top" xlink:title="A wrapper for the delete[] keyword. Always uses delete[], and never delete.">
<polygon fill="white" stroke="black" points="154.5,-0.5 154.5,-19.5 253.5,-19.5 253.5,-0.5 154.5,-0.5"/>
<text text-anchor="middle" x="204" y="-7.5" font-family="Helvetica,sans-Serif" font-size="10.00">OmniOGL::_Delete</text>
</a>
</g>
</g>
<!-- Node1&#45;&gt;Node5 -->
<g id="edge4" class="edge"><title>Node1&#45;&gt;Node5</title>
<path fill="none" stroke="midnightblue" d="M116.517,-32.9814C129.946,-29.4129 144.114,-25.6481 157.007,-22.2219"/>
<polygon fill="midnightblue" stroke="midnightblue" points="158.271,-25.5077 167.036,-19.5568 156.473,-18.7425 158.271,-25.5077"/>
</g>
<!-- Node4 -->
<g id="node4" class="node"><title>Node4</title>
<g id="a_node4"><a xlink:href="namespace_omni_o_g_l.html#a8f559408c62db097a1a918d7f58f4183" target="_top" xlink:title="A &quot;clone&quot; of the well&#45;known printf() function, with the debug routed to the OutputDebugString() funct...">
<polygon fill="white" stroke="black" points="290,-19.5 290,-38.5 380,-38.5 380,-19.5 290,-19.5"/>
<text text-anchor="middle" x="335" y="-26.5" font-family="Helvetica,sans-Serif" font-size="10.00">OmniOGL::dprint</text>
</a>
</g>
</g>
<!-- Node3&#45;&gt;Node4 -->
<g id="edge3" class="edge"><title>Node3&#45;&gt;Node4</title>
<path fill="none" stroke="midnightblue" d="M249.034,-41.5144C258.887,-40.0631 269.452,-38.5071 279.667,-37.0025"/>
<polygon fill="midnightblue" stroke="midnightblue" points="280.344,-40.4407 289.727,-35.5209 279.323,-33.5154 280.344,-40.4407"/>
</g>
<!-- Node5&#45;&gt;Node4 -->
<g id="edge5" class="edge"><title>Node5&#45;&gt;Node4</title>
<path fill="none" stroke="midnightblue" d="M253.769,-17.1831C262.282,-18.4369 271.184,-19.7481 279.832,-21.0218"/>
<polygon fill="midnightblue" stroke="midnightblue" points="279.425,-24.4995 289.828,-22.4941 280.445,-17.5742 279.425,-24.4995"/>
</g>
</g>
</svg>
