<?xml version="1.0" encoding="UTF-8" standalone="no"?>
<!DOCTYPE svg PUBLIC "-//W3C//DTD SVG 1.1//EN"
 "http://www.w3.org/Graphics/SVG/1.1/DTD/svg11.dtd">
<!-- Generated by graphviz version 2.30.1 (20130214.1330)
 -->
<!-- Title: OmniOGL::Group::AddRandomInstances Pages: 1 -->
<svg width="422pt" height="104pt"
 viewBox="0.00 0.00 422.00 104.00" xmlns="http://www.w3.org/2000/svg" xmlns:xlink="http://www.w3.org/1999/xlink">
<g id="graph0" class="graph" transform="scale(1 1) rotate(0) translate(4 100)">
<title>OmniOGL::Group::AddRandomInstances</title>
<polygon fill="white" stroke="white" points="-4,5 -4,-100 419,-100 419,5 -4,5"/>
<!-- Node1 -->
<g id="node1" class="node"><title>Node1</title>
<polygon fill="#bfbfbf" stroke="black" points="0,-33 0,-63 152,-63 152,-33 0,-33"/>
<text text-anchor="start" x="8" y="-51" font-family="Helvetica,sans-Serif" font-size="10.00">OmniOGL::Group::AddRandom</text>
<text text-anchor="middle" x="76" y="-40" font-family="Helvetica,sans-Serif" font-size="10.00">Instances</text>
</g>
<!-- Node2 -->
<g id="node2" class="node"><title>Node2</title>
<g id="a_node2"><a xlink:href="namespace_omni_o_g_l.html#abe5ff24d55002e6ebffb4415d994260a" target="_top" xlink:title="Sets the pointer to the value &#45;1.">
<polygon fill="white" stroke="black" points="196,-76.5 196,-95.5 280,-95.5 280,-76.5 196,-76.5"/>
<text text-anchor="middle" x="238" y="-83.5" font-family="Helvetica,sans-Serif" font-size="10.00">OmniOGL::_Init</text>
</a>
</g>
</g>
<!-- Node1&#45;&gt;Node2 -->
<g id="edge1" class="edge"><title>Node1&#45;&gt;Node2</title>
<path fill="none" stroke="midnightblue" d="M140.236,-63.0186C155.708,-66.6931 172.056,-70.5757 186.821,-74.0826"/>
<polygon fill="midnightblue" stroke="midnightblue" points="186.223,-77.5377 196.761,-76.4432 187.84,-70.7271 186.223,-77.5377"/>
</g>
<!-- Node3 -->
<g id="node3" class="node"><title>Node3</title>
<g id="a_node3"><a xlink:href="namespace_omni_o_g_l.html#a80cd48382ee4083e78ba3431e570b82c" target="_top" xlink:title="A wrapper around the new[] keyword. Allocates the desired number of elements to the given pointer...">
<polygon fill="white" stroke="black" points="193,-38.5 193,-57.5 283,-57.5 283,-38.5 193,-38.5"/>
<text text-anchor="middle" x="238" y="-45.5" font-family="Helvetica,sans-Serif" font-size="10.00">OmniOGL::_New</text>
</a>
</g>
</g>
<!-- Node1&#45;&gt;Node3 -->
<g id="edge2" class="edge"><title>Node1&#45;&gt;Node3</title>
<path fill="none" stroke="midnightblue" d="M152.315,-48C162.434,-48 172.653,-48 182.322,-48"/>
<polygon fill="midnightblue" stroke="midnightblue" points="182.567,-51.5001 192.567,-48 182.567,-44.5001 182.567,-51.5001"/>
</g>
<!-- Node5 -->
<g id="node5" class="node"><title>Node5</title>
<g id="a_node5"><a xlink:href="namespace_omni_o_g_l.html#ab790cf1cdc8d2bcbdbbe06c6d87f1a1d" target="_top" xlink:title="A wrapper for the delete[] keyword. Always uses delete[], and never delete.">
<polygon fill="white" stroke="black" points="188.5,-0.5 188.5,-19.5 287.5,-19.5 287.5,-0.5 188.5,-0.5"/>
<text text-anchor="middle" x="238" y="-7.5" font-family="Helvetica,sans-Serif" font-size="10.00">OmniOGL::_Delete</text>
</a>
</g>
</g>
<!-- Node1&#45;&gt;Node5 -->
<g id="edge4" class="edge"><title>Node1&#45;&gt;Node5</title>
<path fill="none" stroke="midnightblue" d="M140.236,-32.9814C155.708,-29.3069 172.056,-25.4243 186.821,-21.9174"/>
<polygon fill="midnightblue" stroke="midnightblue" points="187.84,-25.2729 196.761,-19.5568 186.223,-18.4623 187.84,-25.2729"/>
</g>
<!-- Node4 -->
<g id="node4" class="node"><title>Node4</title>
<g id="a_node4"><a xlink:href="namespace_omni_o_g_l.html#a8f559408c62db097a1a918d7f58f4183" target="_top" xlink:title="A &quot;clone&quot; of the well&#45;known printf() function, with the debug routed to the OutputDebugString() funct...">
<polygon fill="white" stroke="black" points="324,-19.5 324,-38.5 414,-38.5 414,-19.5 324,-19.5"/>
<text text-anchor="middle" x="369" y="-26.5" font-family="Helvetica,sans-Serif" font-size="10.00">OmniOGL::dprint</text>
</a>
</g>
</g>
<!-- Node3&#45;&gt;Node4 -->
<g id="edge3" class="edge"><title>Node3&#45;&gt;Node4</title>
<path fill="none" stroke="midnightblue" d="M283.034,-41.5144C292.887,-40.0631 303.452,-38.5071 313.667,-37.0025"/>
<polygon fill="midnightblue" stroke="midnightblue" points="314.344,-40.4407 323.727,-35.5209 313.323,-33.5154 314.344,-40.4407"/>
</g>
<!-- Node5&#45;&gt;Node4 -->
<g id="edge5" class="edge"><title>Node5&#45;&gt;Node4</title>
<path fill="none" stroke="midnightblue" d="M287.769,-17.1831C296.282,-18.4369 305.184,-19.7481 313.832,-21.0218"/>
<polygon fill="midnightblue" stroke="midnightblue" points="313.425,-24.4995 323.828,-22.4941 314.445,-17.5742 313.425,-24.4995"/>
</g>
</g>
</svg>
