<?xml version="1.0" encoding="UTF-8" standalone="no"?>
<!DOCTYPE svg PUBLIC "-//W3C//DTD SVG 1.1//EN"
 "http://www.w3.org/Graphics/SVG/1.1/DTD/svg11.dtd">
<!-- Generated by graphviz version 2.30.1 (20130214.1330)
 -->
<!-- Title: OmniOGL::RenObj::SetOrigin Pages: 1 -->
<svg width="500pt" height="153pt"
 viewBox="0.00 0.00 500.00 153.00" xmlns="http://www.w3.org/2000/svg" xmlns:xlink="http://www.w3.org/1999/xlink">
<g id="graph0" class="graph" transform="scale(1 1) rotate(0) translate(4 149)">
<title>OmniOGL::RenObj::SetOrigin</title>
<polygon fill="white" stroke="white" points="-4,5 -4,-149 497,-149 497,5 -4,5"/>
<!-- Node1 -->
<g id="node1" class="node"><title>Node1</title>
<polygon fill="#bfbfbf" stroke="black" points="0.5,-57.5 0.5,-76.5 145.5,-76.5 145.5,-57.5 0.5,-57.5"/>
<text text-anchor="middle" x="73" y="-64.5" font-family="Helvetica,sans-Serif" font-size="10.00">OmniOGL::RenObj::SetOrigin</text>
</g>
<!-- Node2 -->
<g id="node2" class="node"><title>Node2</title>
<g id="a_node2"><a xlink:href="class_omni_o_g_l_1_1_voxel_field.html#af35e1fbb4908ffbe639962bce40c36a4" target="_top" xlink:title="The core method of this class which initializes all voxels and populates a given BlockArray with the ...">
<polygon fill="white" stroke="black" points="195,-115 195,-145 307,-145 307,-115 195,-115"/>
<text text-anchor="start" x="203" y="-133" font-family="Helvetica,sans-Serif" font-size="10.00">OmniOGL::VoxelField</text>
<text text-anchor="middle" x="251" y="-122" font-family="Helvetica,sans-Serif" font-size="10.00">::FillWithRandom</text>
</a>
</g>
</g>
<!-- Node1&#45;&gt;Node2 -->
<g id="edge1" class="edge"><title>Node1&#45;&gt;Node2</title>
<path fill="none" stroke="midnightblue" d="M110.269,-79.9827C138.645,-90.14 178.147,-104.28 207.914,-114.935"/>
<polygon fill="midnightblue" stroke="midnightblue" points="111.325,-76.6433 100.731,-76.5683 108.966,-83.2338 111.325,-76.6433"/>
</g>
<!-- Node3 -->
<g id="node3" class="node"><title>Node3</title>
<g id="a_node3"><a xlink:href="_exec_8cpp.html#a38c5e7def3be6ea702581ee4a92b9cc0" target="_top" xlink:title="render">
<polygon fill="white" stroke="black" points="356,-76.5 356,-95.5 400,-95.5 400,-76.5 356,-76.5"/>
<text text-anchor="middle" x="378" y="-83.5" font-family="Helvetica,sans-Serif" font-size="10.00">render</text>
</a>
</g>
</g>
<!-- Node1&#45;&gt;Node3 -->
<g id="edge4" class="edge"><title>Node1&#45;&gt;Node3</title>
<path fill="none" stroke="midnightblue" d="M156.037,-72.1442C223.743,-76.3898 315.072,-82.1167 355.831,-84.6726"/>
<polygon fill="midnightblue" stroke="midnightblue" points="156.006,-68.6355 145.807,-71.5027 155.568,-75.6218 156.006,-68.6355"/>
</g>
<!-- Node5 -->
<g id="node5" class="node"><title>Node5</title>
<g id="a_node5"><a xlink:href="class_omni_o_g_l_1_1_floor.html#a636158345b20717527b337fb3e5e2924" target="_top" xlink:title="Default constructor for the Floor class &#45; responsible for initializing any members owned by this clas...">
<polygon fill="white" stroke="black" points="193,-38.5 193,-57.5 309,-57.5 309,-38.5 193,-38.5"/>
<text text-anchor="middle" x="251" y="-45.5" font-family="Helvetica,sans-Serif" font-size="10.00">OmniOGL::Floor::Floor</text>
</a>
</g>
</g>
<!-- Node1&#45;&gt;Node5 -->
<g id="edge5" class="edge"><title>Node1&#45;&gt;Node5</title>
<path fill="none" stroke="midnightblue" d="M155.6,-58.1909C168.157,-56.8353 180.89,-55.4608 192.767,-54.1786"/>
<polygon fill="midnightblue" stroke="midnightblue" points="155.152,-54.7188 145.586,-59.272 155.904,-61.6784 155.152,-54.7188"/>
</g>
<!-- Node6 -->
<g id="node6" class="node"><title>Node6</title>
<g id="a_node6"><a xlink:href="class_omni_o_g_l_1_1_scene.html#ad03a14cbdf1446c4e9300db0a18a8ebf" target="_top" xlink:title="Configures lighting parameters for the Scene including the sole light&#39;s position and color...">
<polygon fill="white" stroke="black" points="182,-0.5 182,-19.5 320,-19.5 320,-0.5 182,-0.5"/>
<text text-anchor="middle" x="251" y="-7.5" font-family="Helvetica,sans-Serif" font-size="10.00">OmniOGL::Scene::AddLight</text>
</a>
</g>
</g>
<!-- Node1&#45;&gt;Node6 -->
<g id="edge6" class="edge"><title>Node1&#45;&gt;Node6</title>
<path fill="none" stroke="midnightblue" d="M109.072,-54.0018C130.105,-46.3714 157.452,-36.7389 182,-29 192.405,-25.7199 203.794,-22.4241 214.225,-19.5199"/>
<polygon fill="midnightblue" stroke="midnightblue" points="107.784,-50.7457 99.5896,-57.461 110.183,-57.3218 107.784,-50.7457"/>
</g>
<!-- Node2&#45;&gt;Node3 -->
<g id="edge2" class="edge"><title>Node2&#45;&gt;Node3</title>
<path fill="none" stroke="midnightblue" d="M304.295,-111.592C322.428,-105.209 341.74,-98.4116 355.899,-93.4274"/>
<polygon fill="midnightblue" stroke="midnightblue" points="302.939,-108.359 294.668,-114.981 305.263,-114.962 302.939,-108.359"/>
</g>
<!-- Node4 -->
<g id="node4" class="node"><title>Node4</title>
<g id="a_node4"><a xlink:href="_exec_8cpp.html#a66e65252a6985e382838442f280f46ba" target="_top" xlink:title="WinMain">
<polygon fill="white" stroke="black" points="436.5,-76.5 436.5,-95.5 491.5,-95.5 491.5,-76.5 436.5,-76.5"/>
<text text-anchor="middle" x="464" y="-83.5" font-family="Helvetica,sans-Serif" font-size="10.00">WinMain</text>
</a>
</g>
</g>
<!-- Node3&#45;&gt;Node4 -->
<g id="edge3" class="edge"><title>Node3&#45;&gt;Node4</title>
<path fill="none" stroke="midnightblue" d="M410.253,-86C418.845,-86 428.081,-86 436.386,-86"/>
<polygon fill="midnightblue" stroke="midnightblue" points="410.197,-82.5001 400.197,-86 410.197,-89.5001 410.197,-82.5001"/>
</g>
<!-- Node6&#45;&gt;Node3 -->
<g id="edge7" class="edge"><title>Node6&#45;&gt;Node3</title>
<path fill="none" stroke="midnightblue" d="M308.297,-23.2099C312.362,-24.9208 316.309,-26.8428 320,-29 341.265,-41.429 360.232,-63.7095 370.01,-76.4211"/>
<polygon fill="midnightblue" stroke="midnightblue" points="309.254,-19.8308 298.662,-19.5895 306.792,-26.3834 309.254,-19.8308"/>
</g>
</g>
</svg>
