<?xml version="1.0" encoding="UTF-8" standalone="no"?>
<!DOCTYPE svg PUBLIC "-//W3C//DTD SVG 1.1//EN"
 "http://www.w3.org/Graphics/SVG/1.1/DTD/svg11.dtd">
<!-- Generated by graphviz version 2.30.1 (20130214.1330)
 -->
<!-- Title: OmniOGL::DepthFunction Pages: 1 -->
<svg width="136pt" height="182pt"
 viewBox="0.00 0.00 136.00 182.00" xmlns="http://www.w3.org/2000/svg" xmlns:xlink="http://www.w3.org/1999/xlink">
<g id="graph0" class="graph" transform="scale(1 1) rotate(0) translate(4 178)">
<title>OmniOGL::DepthFunction</title>
<polygon fill="white" stroke="white" points="-4,5 -4,-178 133,-178 133,5 -4,5"/>
<!-- Node1 -->
<g id="node1" class="node"><title>Node1</title>
<polygon fill="#bfbfbf" stroke="black" points="-0.5,-0.5 -0.5,-57.5 128.5,-57.5 128.5,-0.5 -0.5,-0.5"/>
<text text-anchor="middle" x="64" y="-45.5" font-family="Helvetica,sans-Serif" font-size="10.00">OmniOGL::DepthFunction</text>
<polyline fill="none" stroke="black" points="-0.5,-38.5 128.5,-38.5 "/>
<text text-anchor="middle" x="64" y="-26.5" font-family="Helvetica,sans-Serif" font-size="10.00"> </text>
<polyline fill="none" stroke="black" points="-0.5,-19.5 128.5,-19.5 "/>
<text text-anchor="start" x="7.5" y="-7.5" font-family="Helvetica,sans-Serif" font-size="10.00">+ DepthFunction()</text>
</g>
<!-- Node2 -->
<g id="node2" class="node"><title>Node2</title>
<polygon fill="white" stroke="#bfbfbf" points="13,-116.5 13,-173.5 53,-173.5 53,-116.5 13,-116.5"/>
<text text-anchor="middle" x="33" y="-161.5" font-family="Helvetica,sans-Serif" font-size="10.00">GLint</text>
<polyline fill="none" stroke="#bfbfbf" points="13,-154.5 53,-154.5 "/>
<text text-anchor="middle" x="33" y="-142.5" font-family="Helvetica,sans-Serif" font-size="10.00"> </text>
<polyline fill="none" stroke="#bfbfbf" points="13,-135.5 53,-135.5 "/>
<text text-anchor="middle" x="33" y="-123.5" font-family="Helvetica,sans-Serif" font-size="10.00"> </text>
</g>
<!-- Node2&#45;&gt;Node1 -->
<g id="edge1" class="edge"><title>Node2&#45;&gt;Node1</title>
<path fill="none" stroke="#404040" d="M29.9541,-116.327C29.4418,-103.766 30.0699,-88.8732 34,-76 34.7804,-73.4439 35.7495,-70.896 36.8568,-68.3852"/>
<polygon fill="none" stroke="#404040" points="36.8806,-68.3395 36.1143,-61.1693 42.4383,-57.7041 43.2046,-64.8744 36.8806,-68.3395"/>
<text text-anchor="middle" x="54" y="-90" font-family="Helvetica,sans-Serif" font-size="10.00"> +mask</text>
<text text-anchor="middle" x="54" y="-79" font-family="Helvetica,sans-Serif" font-size="10.00">+function</text>
</g>
<!-- Node3 -->
<g id="node3" class="node"><title>Node3</title>
<polygon fill="white" stroke="#bfbfbf" points="78.5,-116.5 78.5,-173.5 113.5,-173.5 113.5,-116.5 78.5,-116.5"/>
<text text-anchor="middle" x="96" y="-161.5" font-family="Helvetica,sans-Serif" font-size="10.00">bool</text>
<polyline fill="none" stroke="#bfbfbf" points="78.5,-154.5 113.5,-154.5 "/>
<text text-anchor="middle" x="96" y="-142.5" font-family="Helvetica,sans-Serif" font-size="10.00"> </text>
<polyline fill="none" stroke="#bfbfbf" points="78.5,-135.5 113.5,-135.5 "/>
<text text-anchor="middle" x="96" y="-123.5" font-family="Helvetica,sans-Serif" font-size="10.00"> </text>
</g>
<!-- Node3&#45;&gt;Node1 -->
<g id="edge2" class="edge"><title>Node3&#45;&gt;Node1</title>
<path fill="none" stroke="#404040" d="M88.2537,-116.404C84.313,-102.365 79.4523,-85.049 75.1197,-69.614"/>
<polygon fill="none" stroke="#404040" points="75.029,-69.2907 69.5563,-64.595 71.7859,-57.7372 77.2586,-62.4329 75.029,-69.2907"/>
<text text-anchor="middle" x="104.5" y="-84.5" font-family="Helvetica,sans-Serif" font-size="10.00"> +enabled</text>
</g>
</g>
</svg>
