<?xml version="1.0" encoding="UTF-8" standalone="no"?>
<!DOCTYPE svg PUBLIC "-//W3C//DTD SVG 1.1//EN"
 "http://www.w3.org/Graphics/SVG/1.1/DTD/svg11.dtd">
<!-- Generated by graphviz version 2.30.1 (20130214.1330)
 -->
<!-- Title: OmniOGL::Section Pages: 1 -->
<svg width="264pt" height="472pt"
 viewBox="0.00 0.00 264.00 472.00" xmlns="http://www.w3.org/2000/svg" xmlns:xlink="http://www.w3.org/1999/xlink">
<g id="graph0" class="graph" transform="scale(1 1) rotate(0) translate(4 468)">
<title>OmniOGL::Section</title>
<polygon fill="white" stroke="white" points="-4,5 -4,-468 261,-468 261,5 -4,5"/>
<!-- Node1 -->
<g id="node1" class="node"><title>Node1</title>
<polygon fill="#bfbfbf" stroke="black" points="76.5,-0.5 76.5,-123.5 175.5,-123.5 175.5,-0.5 76.5,-0.5"/>
<text text-anchor="middle" x="126" y="-111.5" font-family="Helvetica,sans-Serif" font-size="10.00">OmniOGL::Section</text>
<polyline fill="none" stroke="black" points="76.5,-104.5 175.5,-104.5 "/>
<text text-anchor="middle" x="126" y="-92.5" font-family="Helvetica,sans-Serif" font-size="10.00"> </text>
<polyline fill="none" stroke="black" points="76.5,-85.5 175.5,-85.5 "/>
<text text-anchor="start" x="84.5" y="-73.5" font-family="Helvetica,sans-Serif" font-size="10.00">+ Section()</text>
<text text-anchor="start" x="84.5" y="-62.5" font-family="Helvetica,sans-Serif" font-size="10.00">+ Section()</text>
<text text-anchor="start" x="84.5" y="-51.5" font-family="Helvetica,sans-Serif" font-size="10.00">+ ~Section()</text>
<text text-anchor="start" x="84.5" y="-40.5" font-family="Helvetica,sans-Serif" font-size="10.00">+ AddObject()</text>
<text text-anchor="start" x="84.5" y="-29.5" font-family="Helvetica,sans-Serif" font-size="10.00">+ GetObjCount()</text>
<text text-anchor="start" x="84.5" y="-18.5" font-family="Helvetica,sans-Serif" font-size="10.00">+ QueryID()</text>
<text text-anchor="start" x="84.5" y="-7.5" font-family="Helvetica,sans-Serif" font-size="10.00">+ RemoveObject()</text>
</g>
<!-- Node1&#45;&gt;Node1 -->
<g id="edge6" class="edge"><title>Node1&#45;&gt;Node1</title>
<path fill="none" stroke="#404040" d="M175.672,-79.3134C185.769,-77.4274 193,-71.6563 193,-62 193,-56.5684 190.712,-52.366 186.913,-49.3929"/>
<polygon fill="none" stroke="#404040" points="186.741,-49.3209 179.662,-50.6934 175.672,-44.6866 182.751,-43.3141 186.741,-49.3209"/>
<text text-anchor="middle" x="224" y="-70.5" font-family="Helvetica,sans-Serif" font-size="10.00"> +z_neighbors</text>
<text text-anchor="middle" x="224" y="-59.5" font-family="Helvetica,sans-Serif" font-size="10.00">+x_neighbors</text>
<text text-anchor="middle" x="224" y="-48.5" font-family="Helvetica,sans-Serif" font-size="10.00">+y_neighbors</text>
</g>
<!-- Node2 -->
<g id="node2" class="node"><title>Node2</title>
<polygon fill="white" stroke="#bfbfbf" points="-0.5,-194.5 -0.5,-251.5 46.5,-251.5 46.5,-194.5 -0.5,-194.5"/>
<text text-anchor="middle" x="23" y="-239.5" font-family="Helvetica,sans-Serif" font-size="10.00">GLfloat</text>
<polyline fill="none" stroke="#bfbfbf" points="-0.5,-232.5 46.5,-232.5 "/>
<text text-anchor="middle" x="23" y="-220.5" font-family="Helvetica,sans-Serif" font-size="10.00"> </text>
<polyline fill="none" stroke="#bfbfbf" points="-0.5,-213.5 46.5,-213.5 "/>
<text text-anchor="middle" x="23" y="-201.5" font-family="Helvetica,sans-Serif" font-size="10.00"> </text>
</g>
<!-- Node2&#45;&gt;Node1 -->
<g id="edge1" class="edge"><title>Node2&#45;&gt;Node1</title>
<path fill="none" stroke="#404040" d="M40.9412,-194.304C51.838,-177.483 66.2851,-155.181 80.1748,-133.74"/>
<polygon fill="none" stroke="#404040" points="80.1914,-133.714 80.0964,-126.504 86.7157,-123.643 86.8107,-130.853 80.1914,-133.714"/>
<text text-anchor="middle" x="96.5" y="-167.5" font-family="Helvetica,sans-Serif" font-size="10.00"> +x_limits</text>
<text text-anchor="middle" x="96.5" y="-156.5" font-family="Helvetica,sans-Serif" font-size="10.00">+y_limits</text>
<text text-anchor="middle" x="96.5" y="-145.5" font-family="Helvetica,sans-Serif" font-size="10.00">+z_limits</text>
</g>
<!-- Node3 -->
<g id="node3" class="node"><title>Node3</title>
<polygon fill="white" stroke="#bfbfbf" points="65,-194.5 65,-251.5 187,-251.5 187,-194.5 65,-194.5"/>
<text text-anchor="middle" x="126" y="-239.5" font-family="Helvetica,sans-Serif" font-size="10.00">std::list&lt; ptrRenObj3D &gt;</text>
<polyline fill="none" stroke="#bfbfbf" points="65,-232.5 187,-232.5 "/>
<text text-anchor="middle" x="126" y="-220.5" font-family="Helvetica,sans-Serif" font-size="10.00"> </text>
<polyline fill="none" stroke="#bfbfbf" points="65,-213.5 187,-213.5 "/>
<text text-anchor="middle" x="126" y="-201.5" font-family="Helvetica,sans-Serif" font-size="10.00"> </text>
</g>
<!-- Node3&#45;&gt;Node1 -->
<g id="edge2" class="edge"><title>Node3&#45;&gt;Node1</title>
<path fill="none" stroke="#404040" d="M126,-194.304C126,-178.016 126,-156.589 126,-135.78"/>
<polygon fill="none" stroke="#404040" points="126,-135.643 122,-129.643 126,-123.643 130,-129.643 126,-135.643"/>
<text text-anchor="middle" x="146.5" y="-156.5" font-family="Helvetica,sans-Serif" font-size="10.00"> +objects</text>
</g>
<!-- Node4 -->
<g id="node4" class="node"><title>Node4</title>
<polygon fill="white" stroke="#bfbfbf" points="54,-300.5 54,-357.5 126,-357.5 126,-300.5 54,-300.5"/>
<text text-anchor="middle" x="90" y="-345.5" font-family="Helvetica,sans-Serif" font-size="10.00">ptrRenObj3D</text>
<polyline fill="none" stroke="#bfbfbf" points="54,-338.5 126,-338.5 "/>
<text text-anchor="middle" x="90" y="-326.5" font-family="Helvetica,sans-Serif" font-size="10.00"> </text>
<polyline fill="none" stroke="#bfbfbf" points="54,-319.5 126,-319.5 "/>
<text text-anchor="middle" x="90" y="-307.5" font-family="Helvetica,sans-Serif" font-size="10.00"> </text>
</g>
<!-- Node4&#45;&gt;Node3 -->
<g id="edge3" class="edge"><title>Node4&#45;&gt;Node3</title>
<path fill="none" stroke="#404040" d="M92.7906,-300.358C94.2907,-290.58 96.5675,-279.624 100,-270 100.843,-267.637 101.802,-265.255 102.843,-262.883"/>
<polygon fill="none" stroke="#404040" points="102.904,-262.76 101.953,-255.612 108.185,-251.984 109.136,-259.132 102.904,-262.76"/>
<text text-anchor="middle" x="124.5" y="-273.5" font-family="Helvetica,sans-Serif" font-size="10.00"> +elements</text>
</g>
<!-- Node5 -->
<g id="node5" class="node"><title>Node5</title>
<g id="a_node5"><a xlink:title="STL class.">
<polygon fill="white" stroke="#bfbfbf" points="144,-300.5 144,-357.5 216,-357.5 216,-300.5 144,-300.5"/>
<text text-anchor="middle" x="180" y="-345.5" font-family="Helvetica,sans-Serif" font-size="10.00">std::list&lt; T &gt;</text>
<polyline fill="none" stroke="#bfbfbf" points="144,-338.5 216,-338.5 "/>
<text text-anchor="middle" x="180" y="-326.5" font-family="Helvetica,sans-Serif" font-size="10.00"> </text>
<polyline fill="none" stroke="#bfbfbf" points="144,-319.5 216,-319.5 "/>
<text text-anchor="middle" x="180" y="-307.5" font-family="Helvetica,sans-Serif" font-size="10.00"> </text>
</a>
</g>
</g>
<!-- Node5&#45;&gt;Node3 -->
<g id="edge4" class="edge"><title>Node5&#45;&gt;Node3</title>
<path fill="none" stroke="orange" d="M160.912,-291.237C154.163,-278.239 146.69,-263.848 140.396,-251.726"/>
<polygon fill="orange" stroke="orange" points="157.956,-293.141 165.671,-300.403 164.169,-289.915 157.956,-293.141"/>
<text text-anchor="middle" x="193.5" y="-273.5" font-family="Helvetica,sans-Serif" font-size="10.00"> &lt; ptrRenObj3D &gt;</text>
</g>
<!-- Node6 -->
<g id="node6" class="node"><title>Node6</title>
<polygon fill="white" stroke="#bfbfbf" points="165.5,-406.5 165.5,-463.5 194.5,-463.5 194.5,-406.5 165.5,-406.5"/>
<text text-anchor="middle" x="180" y="-451.5" font-family="Helvetica,sans-Serif" font-size="10.00">T</text>
<polyline fill="none" stroke="#bfbfbf" points="165.5,-444.5 194.5,-444.5 "/>
<text text-anchor="middle" x="180" y="-432.5" font-family="Helvetica,sans-Serif" font-size="10.00"> </text>
<polyline fill="none" stroke="#bfbfbf" points="165.5,-425.5 194.5,-425.5 "/>
<text text-anchor="middle" x="180" y="-413.5" font-family="Helvetica,sans-Serif" font-size="10.00"> </text>
</g>
<!-- Node6&#45;&gt;Node5 -->
<g id="edge5" class="edge"><title>Node6&#45;&gt;Node5</title>
<path fill="none" stroke="#404040" d="M180,-406.403C180,-395.237 180,-382.13 180,-369.956"/>
<polygon fill="none" stroke="#404040" points="180,-369.726 176,-363.726 180,-357.726 184,-363.726 180,-369.726"/>
<text text-anchor="middle" x="204.5" y="-379.5" font-family="Helvetica,sans-Serif" font-size="10.00"> +elements</text>
</g>
<!-- Node7 -->
<g id="node7" class="node"><title>Node7</title>
<polygon fill="white" stroke="#bfbfbf" points="205.5,-194.5 205.5,-251.5 250.5,-251.5 250.5,-194.5 205.5,-194.5"/>
<text text-anchor="middle" x="228" y="-239.5" font-family="Helvetica,sans-Serif" font-size="10.00">GLuint</text>
<polyline fill="none" stroke="#bfbfbf" points="205.5,-232.5 250.5,-232.5 "/>
<text text-anchor="middle" x="228" y="-220.5" font-family="Helvetica,sans-Serif" font-size="10.00"> </text>
<polyline fill="none" stroke="#bfbfbf" points="205.5,-213.5 250.5,-213.5 "/>
<text text-anchor="middle" x="228" y="-201.5" font-family="Helvetica,sans-Serif" font-size="10.00"> </text>
</g>
<!-- Node7&#45;&gt;Node1 -->
<g id="edge7" class="edge"><title>Node7&#45;&gt;Node1</title>
<path fill="none" stroke="#404040" d="M210.233,-194.304C199.491,-177.559 185.265,-155.383 171.567,-134.031"/>
<polygon fill="none" stroke="#404040" points="171.382,-133.743 164.776,-130.853 164.903,-123.643 171.509,-126.533 171.382,-133.743"/>
<text text-anchor="middle" x="223.5" y="-162" font-family="Helvetica,sans-Serif" font-size="10.00"> #obj_count</text>
<text text-anchor="middle" x="223.5" y="-151" font-family="Helvetica,sans-Serif" font-size="10.00">#id</text>
</g>
</g>
</svg>
