<?xml version="1.0" encoding="UTF-8" standalone="no"?>
<!DOCTYPE svg PUBLIC "-//W3C//DTD SVG 1.1//EN"
 "http://www.w3.org/Graphics/SVG/1.1/DTD/svg11.dtd">
<!-- Generated by graphviz version 2.30.1 (20130214.1330)
 -->
<!-- Title: OmniOGL::Scene::AddObject Pages: 1 -->
<svg width="520pt" height="38pt"
 viewBox="0.00 0.00 520.00 38.00" xmlns="http://www.w3.org/2000/svg" xmlns:xlink="http://www.w3.org/1999/xlink">
<g id="graph0" class="graph" transform="scale(1 1) rotate(0) translate(4 34)">
<title>OmniOGL::Scene::AddObject</title>
<polygon fill="white" stroke="white" points="-4,5 -4,-34 517,-34 517,5 -4,5"/>
<!-- Node1 -->
<g id="node1" class="node"><title>Node1</title>
<polygon fill="#bfbfbf" stroke="black" points="0,-5.5 0,-24.5 146,-24.5 146,-5.5 0,-5.5"/>
<text text-anchor="middle" x="73" y="-12.5" font-family="Helvetica,sans-Serif" font-size="10.00">OmniOGL::Scene::AddObject</text>
</g>
<!-- Node2 -->
<g id="node2" class="node"><title>Node2</title>
<g id="a_node2"><a xlink:href="class_omni_o_g_l_1_1_section_collection.html#a07c937297ecc115e498cac570d6910bd" target="_top" xlink:title="OmniOGL::SectionCollection\l::AddObject">
<polygon fill="white" stroke="black" points="182,-0 182,-30 324,-30 324,-0 182,-0"/>
<text text-anchor="start" x="190" y="-18" font-family="Helvetica,sans-Serif" font-size="10.00">OmniOGL::SectionCollection</text>
<text text-anchor="middle" x="253" y="-7" font-family="Helvetica,sans-Serif" font-size="10.00">::AddObject</text>
</a>
</g>
</g>
<!-- Node1&#45;&gt;Node2 -->
<g id="edge1" class="edge"><title>Node1&#45;&gt;Node2</title>
<path fill="none" stroke="midnightblue" d="M146.143,-15C154.501,-15 163.066,-15 171.527,-15"/>
<polygon fill="midnightblue" stroke="midnightblue" points="171.775,-18.5001 181.774,-15 171.774,-11.5001 171.775,-18.5001"/>
</g>
<!-- Node3 -->
<g id="node3" class="node"><title>Node3</title>
<g id="a_node3"><a xlink:href="class_omni_o_g_l_1_1_section.html#a20b4cf2c6472d59e9967aa8dbad377a4" target="_top" xlink:title="Adds an object to the Section&#39;s collection (linked list) of objects. This method also increments Sect...">
<polygon fill="white" stroke="black" points="360.5,-5.5 360.5,-24.5 511.5,-24.5 511.5,-5.5 360.5,-5.5"/>
<text text-anchor="middle" x="436" y="-12.5" font-family="Helvetica,sans-Serif" font-size="10.00">OmniOGL::Section::AddObject</text>
</a>
</g>
</g>
<!-- Node2&#45;&gt;Node3 -->
<g id="edge2" class="edge"><title>Node2&#45;&gt;Node3</title>
<path fill="none" stroke="midnightblue" d="M324.238,-15C332.738,-15 341.488,-15 350.169,-15"/>
<polygon fill="midnightblue" stroke="midnightblue" points="350.308,-18.5001 360.308,-15 350.308,-11.5001 350.308,-18.5001"/>
</g>
</g>
</svg>
