<?xml version="1.0" encoding="UTF-8" standalone="no"?>
<!DOCTYPE svg PUBLIC "-//W3C//DTD SVG 1.1//EN"
 "http://www.w3.org/Graphics/SVG/1.1/DTD/svg11.dtd">
<!-- Generated by graphviz version 2.30.1 (20130214.1330)
 -->
<!-- Title: OmniOGL::LineStrip::AddInstance Pages: 1 -->
<svg width="474pt" height="126pt"
 viewBox="0.00 0.00 474.00 126.00" xmlns="http://www.w3.org/2000/svg" xmlns:xlink="http://www.w3.org/1999/xlink">
<g id="graph0" class="graph" transform="scale(1 1) rotate(0) translate(4 122)">
<title>OmniOGL::LineStrip::AddInstance</title>
<polygon fill="white" stroke="white" points="-4,5 -4,-122 471,-122 471,5 -4,5"/>
<!-- Node1 -->
<g id="node1" class="node"><title>Node1</title>
<polygon fill="#bfbfbf" stroke="black" points="0,-49 0,-79 104,-79 104,-49 0,-49"/>
<text text-anchor="start" x="8" y="-67" font-family="Helvetica,sans-Serif" font-size="10.00">OmniOGL::LineStrip</text>
<text text-anchor="middle" x="52" y="-56" font-family="Helvetica,sans-Serif" font-size="10.00">::AddInstance</text>
</g>
<!-- Node2 -->
<g id="node2" class="node"><title>Node2</title>
<g id="a_node2"><a xlink:href="class_omni_o_g_l_1_1_voxel.html#a612f60e83446d91e456002ec9df2e4b4" target="_top" xlink:title="A method which takes a LineStrip as a parameter and adds the 12 line segments which represent the edg...">
<polygon fill="white" stroke="black" points="140.5,-98.5 140.5,-117.5 301.5,-117.5 301.5,-98.5 140.5,-98.5"/>
<text text-anchor="middle" x="221" y="-105.5" font-family="Helvetica,sans-Serif" font-size="10.00">OmniOGL::Voxel::AddCubeMesh</text>
</a>
</g>
</g>
<!-- Node1&#45;&gt;Node2 -->
<g id="edge1" class="edge"><title>Node1&#45;&gt;Node2</title>
<path fill="none" stroke="midnightblue" d="M113.82,-80.9793C122.595,-83.3705 131.522,-85.7713 140,-88 153.292,-91.4943 167.865,-95.1804 180.889,-98.4231"/>
<polygon fill="midnightblue" stroke="midnightblue" points="114.578,-77.5581 104.008,-78.2933 112.729,-84.3097 114.578,-77.5581"/>
</g>
<!-- Node3 -->
<g id="node3" class="node"><title>Node3</title>
<g id="a_node3"><a xlink:href="class_omni_o_g_l_1_1_block_array.html#ad00adebf2f11e675cfe560d9862a4ebe" target="_top" xlink:title="Processes the normals stored in this class&#39;s members and converts all normal lines into a single Line...">
<polygon fill="white" stroke="black" points="164,-49 164,-79 278,-79 278,-49 164,-49"/>
<text text-anchor="start" x="172" y="-67" font-family="Helvetica,sans-Serif" font-size="10.00">OmniOGL::BlockArray</text>
<text text-anchor="middle" x="221" y="-56" font-family="Helvetica,sans-Serif" font-size="10.00">::GetNormals</text>
</a>
</g>
</g>
<!-- Node1&#45;&gt;Node3 -->
<g id="edge2" class="edge"><title>Node1&#45;&gt;Node3</title>
<path fill="none" stroke="midnightblue" d="M114.426,-64C130.575,-64 147.91,-64 163.771,-64"/>
<polygon fill="midnightblue" stroke="midnightblue" points="114.013,-60.5001 104.013,-64 114.013,-67.5001 114.013,-60.5001"/>
</g>
<!-- Node4 -->
<g id="node4" class="node"><title>Node4</title>
<g id="a_node4"><a xlink:href="class_omni_o_g_l_1_1_section_collection.html#abe45275bef4b3ae221ccba89da393359" target="_top" xlink:title="OmniOGL::SectionCollection\l::GetGridlines">
<polygon fill="white" stroke="black" points="150,-0 150,-30 292,-30 292,-0 150,-0"/>
<text text-anchor="start" x="158" y="-18" font-family="Helvetica,sans-Serif" font-size="10.00">OmniOGL::SectionCollection</text>
<text text-anchor="middle" x="221" y="-7" font-family="Helvetica,sans-Serif" font-size="10.00">::GetGridlines</text>
</a>
</g>
</g>
<!-- Node1&#45;&gt;Node4 -->
<g id="edge3" class="edge"><title>Node1&#45;&gt;Node4</title>
<path fill="none" stroke="midnightblue" d="M113.839,-46.1491C131.849,-40.8645 151.382,-35.1334 168.724,-30.0451"/>
<polygon fill="midnightblue" stroke="midnightblue" points="112.623,-42.8582 104.013,-49.0321 114.594,-49.575 112.623,-42.8582"/>
</g>
<!-- Node5 -->
<g id="node5" class="node"><title>Node5</title>
<g id="a_node5"><a xlink:href="class_omni_o_g_l_1_1_scene.html#a8601c13e69f3269928209f1ffdf2584a" target="_top" xlink:title="The constructor for the Scene class. This is a fairly busy constructor since it&#39;s responsible for ini...">
<polygon fill="white" stroke="black" points="338,-5.5 338,-24.5 466,-24.5 466,-5.5 338,-5.5"/>
<text text-anchor="middle" x="402" y="-12.5" font-family="Helvetica,sans-Serif" font-size="10.00">OmniOGL::Scene::Scene</text>
</a>
</g>
</g>
<!-- Node4&#45;&gt;Node5 -->
<g id="edge4" class="edge"><title>Node4&#45;&gt;Node5</title>
<path fill="none" stroke="midnightblue" d="M302.581,-15C314.443,-15 326.516,-15 337.956,-15"/>
<polygon fill="midnightblue" stroke="midnightblue" points="302.232,-11.5001 292.232,-15 302.232,-18.5001 302.232,-11.5001"/>
</g>
</g>
</svg>
