<?xml version="1.0" encoding="UTF-8" standalone="no"?>
<!DOCTYPE svg PUBLIC "-//W3C//DTD SVG 1.1//EN"
 "http://www.w3.org/Graphics/SVG/1.1/DTD/svg11.dtd">
<!-- Generated by graphviz version 2.30.1 (20130214.1330)
 -->
<!-- Title: OmniOGL::Scene::GlobalTextureEn Pages: 1 -->
<svg width="510pt" height="301pt"
 viewBox="0.00 0.00 510.00 301.00" xmlns="http://www.w3.org/2000/svg" xmlns:xlink="http://www.w3.org/1999/xlink">
<g id="graph0" class="graph" transform="scale(1 1) rotate(0) translate(4 297)">
<title>OmniOGL::Scene::GlobalTextureEn</title>
<polygon fill="white" stroke="white" points="-4,5 -4,-297 507,-297 507,5 -4,5"/>
<!-- Node1 -->
<g id="node1" class="node"><title>Node1</title>
<polygon fill="#bfbfbf" stroke="black" points="0,-142.5 0,-161.5 172,-161.5 172,-142.5 0,-142.5"/>
<text text-anchor="middle" x="86" y="-149.5" font-family="Helvetica,sans-Serif" font-size="10.00">OmniOGL::Scene::GlobalTextureEn</text>
</g>
<!-- Node2 -->
<g id="node2" class="node"><title>Node2</title>
<g id="a_node2"><a xlink:href="class_omni_o_g_l_1_1_ren_obj.html#a8a386f32d8e09e00a1ef45c55fd4c301" target="_top" xlink:title="This method attempts to handle all of the necessary OpenGL state changes in one place. The desired value of various states are stored as a local variable owned by the object. This method is called for each object each frame and simply sets each state to the position specified by the object.">
<polygon fill="white" stroke="black" points="208,-142.5 208,-161.5 346,-161.5 346,-142.5 208,-142.5"/>
<text text-anchor="middle" x="277" y="-149.5" font-family="Helvetica,sans-Serif" font-size="10.00">OmniOGL::RenObj::Prepare</text>
</a>
</g>
</g>
<!-- Node1&#45;&gt;Node2 -->
<g id="edge1" class="edge"><title>Node1&#45;&gt;Node2</title>
<path fill="none" stroke="midnightblue" d="M182.217,-152C190.847,-152 199.468,-152 207.794,-152"/>
<polygon fill="midnightblue" stroke="midnightblue" points="182.101,-148.5 172.101,-152 182.101,-155.5 182.101,-148.5"/>
</g>
<!-- Node3 -->
<g id="node3" class="node"><title>Node3</title>
<g id="a_node3"><a xlink:href="class_omni_o_g_l_1_1_blender_obj.html#afcd64d1d531ec5f31a4bbe184c4ccd48" target="_top" xlink:title="The draw method which must be implemented in order for the class to be instantiable. This method is responsible for sending the vertices, normals, etc. necessary to draw the object to the shader program, set all necessary options to their desired state, and finally invoke the desired OpenGL draw call. At the time being this method implementation is fairly rudimentary as it contains no logic to determine whether or not it needs send its data to the graphics card (it sends its data blindly).">
<polygon fill="white" stroke="black" points="385,-263 385,-293 499,-293 499,-263 385,-263"/>
<text text-anchor="start" x="393" y="-281" font-family="Helvetica,sans-Serif" font-size="10.00">OmniOGL::BlenderObj</text>
<text text-anchor="middle" x="442" y="-270" font-family="Helvetica,sans-Serif" font-size="10.00">::Draw</text>
</a>
</g>
</g>
<!-- Node2&#45;&gt;Node3 -->
<g id="edge2" class="edge"><title>Node2&#45;&gt;Node3</title>
<path fill="none" stroke="midnightblue" d="M292.256,-169.363C310.966,-191.252 345.711,-228.923 382,-253 387.562,-256.69 393.758,-260.024 399.985,-262.965"/>
<polygon fill="midnightblue" stroke="midnightblue" points="294.801,-166.951 285.687,-161.549 289.443,-171.456 294.801,-166.951"/>
</g>
<!-- Node4 -->
<g id="node4" class="node"><title>Node4</title>
<g id="a_node4"><a xlink:href="class_omni_o_g_l_1_1_cube.html#af17ad72ba759cea86eec434588f04d8a" target="_top" xlink:title="A method which is called each frame in order to render the object to the screen. This method is respo...">
<polygon fill="white" stroke="black" points="384,-224.5 384,-243.5 500,-243.5 500,-224.5 384,-224.5"/>
<text text-anchor="middle" x="442" y="-231.5" font-family="Helvetica,sans-Serif" font-size="10.00">OmniOGL::Cube::Draw</text>
</a>
</g>
</g>
<!-- Node2&#45;&gt;Node4 -->
<g id="edge3" class="edge"><title>Node2&#45;&gt;Node4</title>
<path fill="none" stroke="midnightblue" d="M299.869,-167.323C320.363,-181.172 352.222,-201.412 382,-215 389.832,-218.574 398.531,-221.77 406.79,-224.474"/>
<polygon fill="midnightblue" stroke="midnightblue" points="301.79,-164.397 291.56,-161.637 297.836,-170.173 301.79,-164.397"/>
</g>
<!-- Node5 -->
<g id="node5" class="node"><title>Node5</title>
<g id="a_node5"><a xlink:href="class_omni_o_g_l_1_1_floor.html#a64e76510ea0c09dfd0181b2e51288faa" target="_top" xlink:title="A method which will be called each frame for each Floor object and is responsible for binding relevan...">
<polygon fill="white" stroke="black" points="384,-186.5 384,-205.5 500,-205.5 500,-186.5 384,-186.5"/>
<text text-anchor="middle" x="442" y="-193.5" font-family="Helvetica,sans-Serif" font-size="10.00">OmniOGL::Floor::Draw</text>
</a>
</g>
</g>
<!-- Node2&#45;&gt;Node5 -->
<g id="edge4" class="edge"><title>Node2&#45;&gt;Node5</title>
<path fill="none" stroke="midnightblue" d="M323.028,-164.155C349.111,-171.195 381.472,-179.931 405.7,-186.471"/>
<polygon fill="midnightblue" stroke="midnightblue" points="323.935,-160.774 313.369,-161.547 322.111,-167.533 323.935,-160.774"/>
</g>
<!-- Node6 -->
<g id="node6" class="node"><title>Node6</title>
<g id="a_node6"><a xlink:href="class_omni_o_g_l_1_1_text_overlay.html#a21150746059ec6c2ce5a48169aff6f14" target="_top" xlink:title="A method which will be called each frame for each TextOverlay object and is responsible for binding r...">
<polygon fill="white" stroke="black" points="383.5,-137 383.5,-167 500.5,-167 500.5,-137 383.5,-137"/>
<text text-anchor="start" x="391.5" y="-155" font-family="Helvetica,sans-Serif" font-size="10.00">OmniOGL::TextOverlay</text>
<text text-anchor="middle" x="442" y="-144" font-family="Helvetica,sans-Serif" font-size="10.00">::Draw</text>
</a>
</g>
</g>
<!-- Node2&#45;&gt;Node6 -->
<g id="edge5" class="edge"><title>Node2&#45;&gt;Node6</title>
<path fill="none" stroke="midnightblue" d="M356.415,-152C365.518,-152 374.673,-152 383.425,-152"/>
<polygon fill="midnightblue" stroke="midnightblue" points="356.182,-148.5 346.182,-152 356.182,-155.5 356.182,-148.5"/>
</g>
<!-- Node7 -->
<g id="node7" class="node"><title>Node7</title>
<g id="a_node7"><a xlink:href="class_omni_o_g_l_1_1_line_strip.html#a7537f5cb2b6fa75d43aae512accab828" target="_top" xlink:title="when commenting, note that we translate to 0,0,0 instead of the object&#39;s origin">
<polygon fill="white" stroke="black" points="390,-88 390,-118 494,-118 494,-88 390,-88"/>
<text text-anchor="start" x="398" y="-106" font-family="Helvetica,sans-Serif" font-size="10.00">OmniOGL::LineStrip</text>
<text text-anchor="middle" x="442" y="-95" font-family="Helvetica,sans-Serif" font-size="10.00">::Draw</text>
</a>
</g>
</g>
<!-- Node2&#45;&gt;Node7 -->
<g id="edge6" class="edge"><title>Node2&#45;&gt;Node7</title>
<path fill="none" stroke="midnightblue" d="M319.429,-139.546C341.202,-133.001 368.054,-124.929 390.979,-118.037"/>
<polygon fill="midnightblue" stroke="midnightblue" points="318.384,-136.205 309.815,-142.436 320.399,-142.909 318.384,-136.205"/>
</g>
<!-- Node8 -->
<g id="node8" class="node"><title>Node8</title>
<g id="a_node8"><a xlink:href="class_omni_o_g_l_1_1_block_array.html#ac05ba87741d5756b0d1001a8aeb45daa" target="_top" xlink:title="OmniOGL::BlockArray\l::Draw">
<polygon fill="white" stroke="black" points="385,-39 385,-69 499,-69 499,-39 385,-39"/>
<text text-anchor="start" x="393" y="-57" font-family="Helvetica,sans-Serif" font-size="10.00">OmniOGL::BlockArray</text>
<text text-anchor="middle" x="442" y="-46" font-family="Helvetica,sans-Serif" font-size="10.00">::Draw</text>
</a>
</g>
</g>
<!-- Node2&#45;&gt;Node8 -->
<g id="edge7" class="edge"><title>Node2&#45;&gt;Node8</title>
<path fill="none" stroke="midnightblue" d="M297.837,-136.162C318.174,-120.393 351.11,-96.1329 382,-79 388.323,-75.4927 395.239,-72.1547 402.039,-69.1262"/>
<polygon fill="midnightblue" stroke="midnightblue" points="295.647,-133.431 289.935,-142.354 299.965,-138.941 295.647,-133.431"/>
</g>
<!-- Node9 -->
<g id="node9" class="node"><title>Node9</title>
<g id="a_node9"><a xlink:href="class_omni_o_g_l_1_1_group.html#a0ad61f0b4c1e857c49cf7bbf5ddc4a91" target="_top" xlink:title="A method which will be called each frame for each LineStrip object and is responsible for binding rel...">
<polygon fill="white" stroke="black" points="382,-0.5 382,-19.5 502,-19.5 502,-0.5 382,-0.5"/>
<text text-anchor="middle" x="442" y="-7.5" font-family="Helvetica,sans-Serif" font-size="10.00">OmniOGL::Group::Draw</text>
</a>
</g>
</g>
<!-- Node2&#45;&gt;Node9 -->
<g id="edge8" class="edge"><title>Node2&#45;&gt;Node9</title>
<path fill="none" stroke="midnightblue" d="M289.119,-133.519C306.001,-106.958 340.557,-58.1008 382,-30 388.266,-25.7511 395.517,-22.3305 402.745,-19.6028"/>
<polygon fill="midnightblue" stroke="midnightblue" points="286.02,-131.875 283.719,-142.217 291.967,-135.567 286.02,-131.875"/>
</g>
</g>
</svg>
