<?xml version="1.0" encoding="UTF-8" standalone="no"?>
<!DOCTYPE svg PUBLIC "-//W3C//DTD SVG 1.1//EN"
 "http://www.w3.org/Graphics/SVG/1.1/DTD/svg11.dtd">
<!-- Generated by graphviz version 2.30.1 (20130214.1330)
 -->
<!-- Title: OmniOGL::SectionCollection Pages: 1 -->
<svg width="445pt" height="698pt"
 viewBox="0.00 0.00 445.00 698.00" xmlns="http://www.w3.org/2000/svg" xmlns:xlink="http://www.w3.org/1999/xlink">
<g id="graph0" class="graph" transform="scale(1 1) rotate(0) translate(4 694)">
<title>OmniOGL::SectionCollection</title>
<polygon fill="white" stroke="white" points="-4,5 -4,-694 442,-694 442,5 -4,5"/>
<!-- Node1 -->
<g id="node1" class="node"><title>Node1</title>
<polygon fill="#bfbfbf" stroke="black" points="173.5,-0.5 173.5,-167.5 332.5,-167.5 332.5,-0.5 173.5,-0.5"/>
<text text-anchor="middle" x="253" y="-155.5" font-family="Helvetica,sans-Serif" font-size="10.00">OmniOGL::SectionCollection</text>
<polyline fill="none" stroke="black" points="173.5,-148.5 332.5,-148.5 "/>
<text text-anchor="middle" x="253" y="-136.5" font-family="Helvetica,sans-Serif" font-size="10.00"> </text>
<polyline fill="none" stroke="black" points="173.5,-129.5 332.5,-129.5 "/>
<text text-anchor="start" x="181.5" y="-117.5" font-family="Helvetica,sans-Serif" font-size="10.00">+ SectionCollection()</text>
<text text-anchor="start" x="181.5" y="-106.5" font-family="Helvetica,sans-Serif" font-size="10.00">+ ~SectionCollection()</text>
<text text-anchor="start" x="181.5" y="-95.5" font-family="Helvetica,sans-Serif" font-size="10.00">+ AddObject()</text>
<text text-anchor="start" x="181.5" y="-84.5" font-family="Helvetica,sans-Serif" font-size="10.00">+ Draw()</text>
<text text-anchor="start" x="181.5" y="-73.5" font-family="Helvetica,sans-Serif" font-size="10.00">+ Get()</text>
<text text-anchor="start" x="181.5" y="-62.5" font-family="Helvetica,sans-Serif" font-size="10.00">+ GetCurrentSection()</text>
<text text-anchor="start" x="181.5" y="-51.5" font-family="Helvetica,sans-Serif" font-size="10.00">+ GetGridlines()</text>
<text text-anchor="start" x="181.5" y="-40.5" font-family="Helvetica,sans-Serif" font-size="10.00">+ RemoveNearObject()</text>
<text text-anchor="start" x="181.5" y="-29.5" font-family="Helvetica,sans-Serif" font-size="10.00">+ RemoveObject()</text>
<text text-anchor="start" x="181.5" y="-18.5" font-family="Helvetica,sans-Serif" font-size="10.00">+ UpdateCurrentSection()</text>
<text text-anchor="start" x="181.5" y="-7.5" font-family="Helvetica,sans-Serif" font-size="10.00">&#45; UpdateAdjacentSectionsArray()</text>
</g>
<!-- Node2 -->
<g id="node2" class="node"><title>Node2</title>
<g id="a_node2"><a xlink:href="class_omni_o_g_l_1_1_section.html" target="_top" xlink:title="A 3D subsection of the rendered environment. All subsections share the same fixed size and the subjec...">
<polygon fill="white" stroke="black" points="37.5,-226.5 37.5,-349.5 136.5,-349.5 136.5,-226.5 37.5,-226.5"/>
<text text-anchor="middle" x="87" y="-337.5" font-family="Helvetica,sans-Serif" font-size="10.00">OmniOGL::Section</text>
<polyline fill="none" stroke="black" points="37.5,-330.5 136.5,-330.5 "/>
<text text-anchor="middle" x="87" y="-318.5" font-family="Helvetica,sans-Serif" font-size="10.00"> </text>
<polyline fill="none" stroke="black" points="37.5,-311.5 136.5,-311.5 "/>
<text text-anchor="start" x="45.5" y="-299.5" font-family="Helvetica,sans-Serif" font-size="10.00">+ Section()</text>
<text text-anchor="start" x="45.5" y="-288.5" font-family="Helvetica,sans-Serif" font-size="10.00">+ Section()</text>
<text text-anchor="start" x="45.5" y="-277.5" font-family="Helvetica,sans-Serif" font-size="10.00">+ ~Section()</text>
<text text-anchor="start" x="45.5" y="-266.5" font-family="Helvetica,sans-Serif" font-size="10.00">+ AddObject()</text>
<text text-anchor="start" x="45.5" y="-255.5" font-family="Helvetica,sans-Serif" font-size="10.00">+ GetObjCount()</text>
<text text-anchor="start" x="45.5" y="-244.5" font-family="Helvetica,sans-Serif" font-size="10.00">+ QueryID()</text>
<text text-anchor="start" x="45.5" y="-233.5" font-family="Helvetica,sans-Serif" font-size="10.00">+ RemoveObject()</text>
</a>
</g>
</g>
<!-- Node2&#45;&gt;Node1 -->
<g id="edge1" class="edge"><title>Node2&#45;&gt;Node1</title>
<path fill="none" stroke="#404040" d="M136.581,-226.667C149.397,-211.071 163.491,-193.921 177.311,-177.103"/>
<polygon fill="none" stroke="#404040" points="177.333,-177.077 178.052,-169.902 184.951,-167.806 184.232,-174.981 177.333,-177.077"/>
<text text-anchor="middle" x="191.5" y="-194.5" font-family="Helvetica,sans-Serif" font-size="10.00"> &#45;sections</text>
</g>
<!-- Node2&#45;&gt;Node2 -->
<g id="edge7" class="edge"><title>Node2&#45;&gt;Node2</title>
<path fill="none" stroke="#404040" d="M136.672,-304.231C146.769,-302.463 154,-297.053 154,-288 154,-282.908 151.712,-278.968 147.913,-276.181"/>
<polygon fill="none" stroke="#404040" points="147.842,-276.153 140.796,-277.684 136.672,-271.769 143.718,-270.237 147.842,-276.153"/>
<text text-anchor="middle" x="185" y="-296.5" font-family="Helvetica,sans-Serif" font-size="10.00"> +z_neighbors</text>
<text text-anchor="middle" x="185" y="-285.5" font-family="Helvetica,sans-Serif" font-size="10.00">+x_neighbors</text>
<text text-anchor="middle" x="185" y="-274.5" font-family="Helvetica,sans-Serif" font-size="10.00">+y_neighbors</text>
</g>
<!-- Node3 -->
<g id="node3" class="node"><title>Node3</title>
<polygon fill="white" stroke="#bfbfbf" points="-0.5,-420.5 -0.5,-477.5 46.5,-477.5 46.5,-420.5 -0.5,-420.5"/>
<text text-anchor="middle" x="23" y="-465.5" font-family="Helvetica,sans-Serif" font-size="10.00">GLfloat</text>
<polyline fill="none" stroke="#bfbfbf" points="-0.5,-458.5 46.5,-458.5 "/>
<text text-anchor="middle" x="23" y="-446.5" font-family="Helvetica,sans-Serif" font-size="10.00"> </text>
<polyline fill="none" stroke="#bfbfbf" points="-0.5,-439.5 46.5,-439.5 "/>
<text text-anchor="middle" x="23" y="-427.5" font-family="Helvetica,sans-Serif" font-size="10.00"> </text>
</g>
<!-- Node3&#45;&gt;Node2 -->
<g id="edge2" class="edge"><title>Node3&#45;&gt;Node2</title>
<path fill="none" stroke="#404040" d="M34.1479,-420.304C40.7962,-403.788 49.5714,-381.987 58.0572,-360.905"/>
<polygon fill="none" stroke="#404040" points="58.1095,-360.775 56.6392,-353.715 62.5904,-349.643 64.0606,-356.702 58.1095,-360.775"/>
<text text-anchor="middle" x="76.5" y="-393.5" font-family="Helvetica,sans-Serif" font-size="10.00"> +x_limits</text>
<text text-anchor="middle" x="76.5" y="-382.5" font-family="Helvetica,sans-Serif" font-size="10.00">+y_limits</text>
<text text-anchor="middle" x="76.5" y="-371.5" font-family="Helvetica,sans-Serif" font-size="10.00">+z_limits</text>
</g>
<!-- Node4 -->
<g id="node4" class="node"><title>Node4</title>
<polygon fill="white" stroke="#bfbfbf" points="65,-420.5 65,-477.5 187,-477.5 187,-420.5 65,-420.5"/>
<text text-anchor="middle" x="126" y="-465.5" font-family="Helvetica,sans-Serif" font-size="10.00">std::list&lt; ptrRenObj3D &gt;</text>
<polyline fill="none" stroke="#bfbfbf" points="65,-458.5 187,-458.5 "/>
<text text-anchor="middle" x="126" y="-446.5" font-family="Helvetica,sans-Serif" font-size="10.00"> </text>
<polyline fill="none" stroke="#bfbfbf" points="65,-439.5 187,-439.5 "/>
<text text-anchor="middle" x="126" y="-427.5" font-family="Helvetica,sans-Serif" font-size="10.00"> </text>
</g>
<!-- Node4&#45;&gt;Node2 -->
<g id="edge3" class="edge"><title>Node4&#45;&gt;Node2</title>
<path fill="none" stroke="#404040" d="M119.207,-420.304C115.193,-403.94 109.907,-382.388 104.78,-361.488"/>
<polygon fill="none" stroke="#404040" points="104.733,-361.297 99.4191,-356.423 101.875,-349.643 107.189,-354.517 104.733,-361.297"/>
<text text-anchor="middle" x="135.5" y="-382.5" font-family="Helvetica,sans-Serif" font-size="10.00"> +objects</text>
</g>
<!-- Node5 -->
<g id="node5" class="node"><title>Node5</title>
<polygon fill="white" stroke="#bfbfbf" points="54,-526.5 54,-583.5 126,-583.5 126,-526.5 54,-526.5"/>
<text text-anchor="middle" x="90" y="-571.5" font-family="Helvetica,sans-Serif" font-size="10.00">ptrRenObj3D</text>
<polyline fill="none" stroke="#bfbfbf" points="54,-564.5 126,-564.5 "/>
<text text-anchor="middle" x="90" y="-552.5" font-family="Helvetica,sans-Serif" font-size="10.00"> </text>
<polyline fill="none" stroke="#bfbfbf" points="54,-545.5 126,-545.5 "/>
<text text-anchor="middle" x="90" y="-533.5" font-family="Helvetica,sans-Serif" font-size="10.00"> </text>
</g>
<!-- Node5&#45;&gt;Node4 -->
<g id="edge4" class="edge"><title>Node5&#45;&gt;Node4</title>
<path fill="none" stroke="#404040" d="M92.7906,-526.358C94.2907,-516.58 96.5675,-505.624 100,-496 100.843,-493.637 101.802,-491.255 102.843,-488.883"/>
<polygon fill="none" stroke="#404040" points="102.904,-488.76 101.953,-481.612 108.185,-477.984 109.136,-485.132 102.904,-488.76"/>
<text text-anchor="middle" x="124.5" y="-499.5" font-family="Helvetica,sans-Serif" font-size="10.00"> +elements</text>
</g>
<!-- Node6 -->
<g id="node6" class="node"><title>Node6</title>
<g id="a_node6"><a xlink:title="STL class.">
<polygon fill="white" stroke="#bfbfbf" points="144,-526.5 144,-583.5 216,-583.5 216,-526.5 144,-526.5"/>
<text text-anchor="middle" x="180" y="-571.5" font-family="Helvetica,sans-Serif" font-size="10.00">std::list&lt; T &gt;</text>
<polyline fill="none" stroke="#bfbfbf" points="144,-564.5 216,-564.5 "/>
<text text-anchor="middle" x="180" y="-552.5" font-family="Helvetica,sans-Serif" font-size="10.00"> </text>
<polyline fill="none" stroke="#bfbfbf" points="144,-545.5 216,-545.5 "/>
<text text-anchor="middle" x="180" y="-533.5" font-family="Helvetica,sans-Serif" font-size="10.00"> </text>
</a>
</g>
</g>
<!-- Node6&#45;&gt;Node4 -->
<g id="edge5" class="edge"><title>Node6&#45;&gt;Node4</title>
<path fill="none" stroke="orange" d="M160.912,-517.237C154.163,-504.239 146.69,-489.848 140.396,-477.726"/>
<polygon fill="orange" stroke="orange" points="157.956,-519.141 165.671,-526.403 164.169,-515.915 157.956,-519.141"/>
<text text-anchor="middle" x="193.5" y="-499.5" font-family="Helvetica,sans-Serif" font-size="10.00"> &lt; ptrRenObj3D &gt;</text>
</g>
<!-- Node7 -->
<g id="node7" class="node"><title>Node7</title>
<polygon fill="white" stroke="#bfbfbf" points="165.5,-632.5 165.5,-689.5 194.5,-689.5 194.5,-632.5 165.5,-632.5"/>
<text text-anchor="middle" x="180" y="-677.5" font-family="Helvetica,sans-Serif" font-size="10.00">T</text>
<polyline fill="none" stroke="#bfbfbf" points="165.5,-670.5 194.5,-670.5 "/>
<text text-anchor="middle" x="180" y="-658.5" font-family="Helvetica,sans-Serif" font-size="10.00"> </text>
<polyline fill="none" stroke="#bfbfbf" points="165.5,-651.5 194.5,-651.5 "/>
<text text-anchor="middle" x="180" y="-639.5" font-family="Helvetica,sans-Serif" font-size="10.00"> </text>
</g>
<!-- Node7&#45;&gt;Node6 -->
<g id="edge6" class="edge"><title>Node7&#45;&gt;Node6</title>
<path fill="none" stroke="#404040" d="M180,-632.403C180,-621.237 180,-608.13 180,-595.956"/>
<polygon fill="none" stroke="#404040" points="180,-595.726 176,-589.726 180,-583.726 184,-589.726 180,-595.726"/>
<text text-anchor="middle" x="204.5" y="-605.5" font-family="Helvetica,sans-Serif" font-size="10.00"> +elements</text>
</g>
<!-- Node8 -->
<g id="node8" class="node"><title>Node8</title>
<polygon fill="white" stroke="#bfbfbf" points="213.5,-420.5 213.5,-477.5 258.5,-477.5 258.5,-420.5 213.5,-420.5"/>
<text text-anchor="middle" x="236" y="-465.5" font-family="Helvetica,sans-Serif" font-size="10.00">GLuint</text>
<polyline fill="none" stroke="#bfbfbf" points="213.5,-458.5 258.5,-458.5 "/>
<text text-anchor="middle" x="236" y="-446.5" font-family="Helvetica,sans-Serif" font-size="10.00"> </text>
<polyline fill="none" stroke="#bfbfbf" points="213.5,-439.5 258.5,-439.5 "/>
<text text-anchor="middle" x="236" y="-427.5" font-family="Helvetica,sans-Serif" font-size="10.00"> </text>
</g>
<!-- Node8&#45;&gt;Node2 -->
<g id="edge8" class="edge"><title>Node8&#45;&gt;Node2</title>
<path fill="none" stroke="#404040" d="M213.48,-427.46C205.252,-419.688 196.006,-410.632 188,-402 174.688,-387.647 172.87,-382.75 160,-368 155.085,-362.367 149.922,-356.564 144.709,-350.782"/>
<polygon fill="none" stroke="#404040" points="144.569,-350.627 137.575,-348.872 136.505,-341.741 143.499,-343.496 144.569,-350.627"/>
<text text-anchor="middle" x="213.5" y="-388" font-family="Helvetica,sans-Serif" font-size="10.00"> #obj_count</text>
<text text-anchor="middle" x="213.5" y="-377" font-family="Helvetica,sans-Serif" font-size="10.00">#id</text>
</g>
<!-- Node8&#45;&gt;Node1 -->
<g id="edge10" class="edge"><title>Node8&#45;&gt;Node1</title>
<path fill="none" stroke="#404040" d="M237.903,-420.275C238.29,-414.252 238.677,-407.913 239,-402 243.075,-327.484 246.757,-243.064 249.322,-180.088"/>
<polygon fill="none" stroke="#404040" points="249.334,-179.778 245.58,-173.621 249.82,-167.788 253.574,-173.945 249.334,-179.778"/>
<text text-anchor="middle" x="290.5" y="-302" font-family="Helvetica,sans-Serif" font-size="10.00"> &#45;adjacent_sections</text>
<text text-anchor="middle" x="290.5" y="-291" font-family="Helvetica,sans-Serif" font-size="10.00">&#45;width</text>
<text text-anchor="middle" x="290.5" y="-280" font-family="Helvetica,sans-Serif" font-size="10.00">&#45;section_count</text>
<text text-anchor="middle" x="290.5" y="-269" font-family="Helvetica,sans-Serif" font-size="10.00">&#45;current_section</text>
</g>
<!-- Node9 -->
<g id="node9" class="node"><title>Node9</title>
<polygon fill="white" stroke="#bfbfbf" points="356.5,-259.5 356.5,-316.5 391.5,-316.5 391.5,-259.5 356.5,-259.5"/>
<text text-anchor="middle" x="374" y="-304.5" font-family="Helvetica,sans-Serif" font-size="10.00">bool</text>
<polyline fill="none" stroke="#bfbfbf" points="356.5,-297.5 391.5,-297.5 "/>
<text text-anchor="middle" x="374" y="-285.5" font-family="Helvetica,sans-Serif" font-size="10.00"> </text>
<polyline fill="none" stroke="#bfbfbf" points="356.5,-278.5 391.5,-278.5 "/>
<text text-anchor="middle" x="374" y="-266.5" font-family="Helvetica,sans-Serif" font-size="10.00"> </text>
</g>
<!-- Node9&#45;&gt;Node1 -->
<g id="edge9" class="edge"><title>Node9&#45;&gt;Node1</title>
<path fill="none" stroke="#404040" d="M360.124,-259.417C354.659,-248.862 348.213,-236.774 342,-226 332.984,-210.366 323.082,-193.985 313.258,-178.147"/>
<polygon fill="none" stroke="#404040" points="313.175,-178.013 306.606,-175.039 306.825,-167.831 313.394,-170.805 313.175,-178.013"/>
<text text-anchor="middle" x="384" y="-200" font-family="Helvetica,sans-Serif" font-size="10.00"> &#45;current_section_valid</text>
<text text-anchor="middle" x="384" y="-189" font-family="Helvetica,sans-Serif" font-size="10.00">&#45;valid_adjacent_sections</text>
</g>
</g>
</svg>
