<?xml version="1.0" encoding="UTF-8" standalone="no"?>
<!DOCTYPE svg PUBLIC "-//W3C//DTD SVG 1.1//EN"
 "http://www.w3.org/Graphics/SVG/1.1/DTD/svg11.dtd">
<!-- Generated by graphviz version 2.30.1 (20130214.1330)
 -->
<!-- Title: OmniOGL::RenObj::SetBumpMap Pages: 1 -->
<svg width="462pt" height="38pt"
 viewBox="0.00 0.00 462.00 38.00" xmlns="http://www.w3.org/2000/svg" xmlns:xlink="http://www.w3.org/1999/xlink">
<g id="graph0" class="graph" transform="scale(1 1) rotate(0) translate(4 34)">
<title>OmniOGL::RenObj::SetBumpMap</title>
<polygon fill="white" stroke="white" points="-4,5 -4,-34 459,-34 459,5 -4,5"/>
<!-- Node1 -->
<g id="node1" class="node"><title>Node1</title>
<polygon fill="#bfbfbf" stroke="black" points="0,-5.5 0,-24.5 164,-24.5 164,-5.5 0,-5.5"/>
<text text-anchor="middle" x="82" y="-12.5" font-family="Helvetica,sans-Serif" font-size="10.00">OmniOGL::RenObj::SetBumpMap</text>
</g>
<!-- Node2 -->
<g id="node2" class="node"><title>Node2</title>
<g id="a_node2"><a xlink:href="class_omni_o_g_l_1_1_texture_master.html#a56b2b7f79786e2e26ba0d602f35d08fd" target="_top" xlink:title="A static method which takes the path to a picture file as a parameter, uses the SOIL library to load ...">
<polygon fill="white" stroke="black" points="200,-0 200,-30 328,-30 328,-0 200,-0"/>
<text text-anchor="start" x="208" y="-18" font-family="Helvetica,sans-Serif" font-size="10.00">OmniOGL::TextureMaster</text>
<text text-anchor="middle" x="264" y="-7" font-family="Helvetica,sans-Serif" font-size="10.00">::MakeTexture</text>
</a>
</g>
</g>
<!-- Node1&#45;&gt;Node2 -->
<g id="edge1" class="edge"><title>Node1&#45;&gt;Node2</title>
<path fill="none" stroke="midnightblue" d="M164.048,-15C172.606,-15 181.273,-15 189.735,-15"/>
<polygon fill="midnightblue" stroke="midnightblue" points="189.935,-18.5001 199.935,-15 189.935,-11.5001 189.935,-18.5001"/>
</g>
<!-- Node3 -->
<g id="node3" class="node"><title>Node3</title>
<g id="a_node3"><a xlink:href="namespace_omni_o_g_l.html#a8f559408c62db097a1a918d7f58f4183" target="_top" xlink:title="A &quot;clone&quot; of the well&#45;known printf() function, with the debug routed to the OutputDebugString() funct...">
<polygon fill="white" stroke="black" points="364,-5.5 364,-24.5 454,-24.5 454,-5.5 364,-5.5"/>
<text text-anchor="middle" x="409" y="-12.5" font-family="Helvetica,sans-Serif" font-size="10.00">OmniOGL::dprint</text>
</a>
</g>
</g>
<!-- Node2&#45;&gt;Node3 -->
<g id="edge2" class="edge"><title>Node2&#45;&gt;Node3</title>
<path fill="none" stroke="midnightblue" d="M328.138,-15C336.555,-15 345.129,-15 353.385,-15"/>
<polygon fill="midnightblue" stroke="midnightblue" points="353.636,-18.5001 363.636,-15 353.635,-11.5001 353.636,-18.5001"/>
</g>
</g>
</svg>
