<?xml version="1.0" encoding="UTF-8" standalone="no"?>
<!DOCTYPE svg PUBLIC "-//W3C//DTD SVG 1.1//EN"
 "http://www.w3.org/Graphics/SVG/1.1/DTD/svg11.dtd">
<!-- Generated by graphviz version 2.30.1 (20130214.1330)
 -->
<!-- Title: OmniOGL::Camera::Update Pages: 1 -->
<svg width="322pt" height="77pt"
 viewBox="0.00 0.00 322.00 77.00" xmlns="http://www.w3.org/2000/svg" xmlns:xlink="http://www.w3.org/1999/xlink">
<g id="graph0" class="graph" transform="scale(1 1) rotate(0) translate(4 73)">
<title>OmniOGL::Camera::Update</title>
<polygon fill="white" stroke="white" points="-4,5 -4,-73 319,-73 319,5 -4,5"/>
<!-- Node1 -->
<g id="node1" class="node"><title>Node1</title>
<polygon fill="#bfbfbf" stroke="black" points="0.5,-22.5 0.5,-41.5 137.5,-41.5 137.5,-22.5 0.5,-22.5"/>
<text text-anchor="middle" x="69" y="-29.5" font-family="Helvetica,sans-Serif" font-size="10.00">OmniOGL::Camera::Update</text>
</g>
<!-- Node2 -->
<g id="node2" class="node"><title>Node2</title>
<g id="a_node2"><a xlink:href="class_omni_o_g_l_1_1_camera.html#a698009762978100380046bf41abd45ea" target="_top" xlink:title="This method rotates a 3D vector (represented by a three element float array) around another 3D vector...">
<polygon fill="white" stroke="black" points="183.5,-39 183.5,-69 304.5,-69 304.5,-39 183.5,-39"/>
<text text-anchor="start" x="191.5" y="-57" font-family="Helvetica,sans-Serif" font-size="10.00">OmniOGL::Camera::raw</text>
<text text-anchor="middle" x="244" y="-46" font-family="Helvetica,sans-Serif" font-size="10.00">_rotate</text>
</a>
</g>
</g>
<!-- Node1&#45;&gt;Node2 -->
<g id="edge1" class="edge"><title>Node1&#45;&gt;Node2</title>
<path fill="none" stroke="midnightblue" d="M137.878,-40.6318C149.519,-42.1122 161.632,-43.6527 173.32,-45.139"/>
<polygon fill="midnightblue" stroke="midnightblue" points="173.097,-48.6387 183.458,-46.4282 173.98,-41.6946 173.097,-48.6387"/>
</g>
<!-- Node3 -->
<g id="node3" class="node"><title>Node3</title>
<g id="a_node3"><a xlink:href="class_omni_o_g_l_1_1_section.html#a048b806e5f535ddbf0dbca0b5111e65a" target="_top" xlink:title="A method used to either set or retrieve the unique ID/index of the Section. This method will always r...">
<polygon fill="white" stroke="black" points="174,-0.5 174,-19.5 314,-19.5 314,-0.5 174,-0.5"/>
<text text-anchor="middle" x="244" y="-7.5" font-family="Helvetica,sans-Serif" font-size="10.00">OmniOGL::Section::QueryID</text>
</a>
</g>
</g>
<!-- Node1&#45;&gt;Node3 -->
<g id="edge2" class="edge"><title>Node1&#45;&gt;Node3</title>
<path fill="none" stroke="midnightblue" d="M137.878,-23.3682C146.382,-22.2866 155.139,-21.173 163.798,-20.0719"/>
<polygon fill="midnightblue" stroke="midnightblue" points="164.418,-23.5214 173.897,-18.7877 163.535,-16.5773 164.418,-23.5214"/>
</g>
</g>
</svg>
