<?xml version="1.0" encoding="UTF-8" standalone="no"?>
<!DOCTYPE svg PUBLIC "-//W3C//DTD SVG 1.1//EN"
 "http://www.w3.org/Graphics/SVG/1.1/DTD/svg11.dtd">
<!-- Generated by graphviz version 2.30.1 (20130214.1330)
 -->
<!-- Title: OmniOGL::Camera Pages: 1 -->
<svg width="261pt" height="294pt"
 viewBox="0.00 0.00 261.00 294.00" xmlns="http://www.w3.org/2000/svg" xmlns:xlink="http://www.w3.org/1999/xlink">
<g id="graph0" class="graph" transform="scale(1 1) rotate(0) translate(4 290)">
<title>OmniOGL::Camera</title>
<polygon fill="white" stroke="white" points="-4,5 -4,-290 258,-290 258,5 -4,5"/>
<!-- Node1 -->
<g id="node1" class="node"><title>Node1</title>
<polygon fill="#bfbfbf" stroke="black" points="63,-1 63,-91 163,-91 163,-1 63,-1"/>
<text text-anchor="middle" x="113" y="-79" font-family="Helvetica,sans-Serif" font-size="10.00">OmniOGL::Camera</text>
<polyline fill="none" stroke="black" points="63,-72 163,-72 "/>
<text text-anchor="middle" x="113" y="-60" font-family="Helvetica,sans-Serif" font-size="10.00"> </text>
<polyline fill="none" stroke="black" points="63,-53 163,-53 "/>
<text text-anchor="start" x="71" y="-41" font-family="Helvetica,sans-Serif" font-size="10.00">+ Camera()</text>
<text text-anchor="start" x="71" y="-30" font-family="Helvetica,sans-Serif" font-size="10.00">+ ~Camera()</text>
<text text-anchor="start" x="71" y="-19" font-family="Helvetica,sans-Serif" font-size="10.00">+ Update()</text>
<text text-anchor="start" x="71" y="-8" font-family="Helvetica,sans-Serif" font-size="10.00"># raw_rotate()</text>
</g>
<!-- Node2 -->
<g id="node2" class="node"><title>Node2</title>
<polygon fill="white" stroke="#bfbfbf" points="-0.5,-228.5 -0.5,-285.5 46.5,-285.5 46.5,-228.5 -0.5,-228.5"/>
<text text-anchor="middle" x="23" y="-273.5" font-family="Helvetica,sans-Serif" font-size="10.00">GLfloat</text>
<polyline fill="none" stroke="#bfbfbf" points="-0.5,-266.5 46.5,-266.5 "/>
<text text-anchor="middle" x="23" y="-254.5" font-family="Helvetica,sans-Serif" font-size="10.00"> </text>
<polyline fill="none" stroke="#bfbfbf" points="-0.5,-247.5 46.5,-247.5 "/>
<text text-anchor="middle" x="23" y="-235.5" font-family="Helvetica,sans-Serif" font-size="10.00"> </text>
</g>
<!-- Node2&#45;&gt;Node1 -->
<g id="edge1" class="edge"><title>Node2&#45;&gt;Node1</title>
<path fill="none" stroke="#404040" d="M21.0281,-228.455C20.0434,-197.752 22.135,-147.494 42,-110 45.3609,-103.657 49.6339,-97.6477 54.4113,-92.0433"/>
<polygon fill="none" stroke="#404040" points="54.6629,-91.774 55.8363,-84.6589 62.8553,-83.0056 61.6819,-90.1206 54.6629,-91.774"/>
<text text-anchor="middle" x="75.5" y="-201.5" font-family="Helvetica,sans-Serif" font-size="10.00"> #orig_look_vec</text>
<text text-anchor="middle" x="75.5" y="-190.5" font-family="Helvetica,sans-Serif" font-size="10.00">+angle_up</text>
<text text-anchor="middle" x="75.5" y="-179.5" font-family="Helvetica,sans-Serif" font-size="10.00">+eye</text>
<text text-anchor="middle" x="75.5" y="-168.5" font-family="Helvetica,sans-Serif" font-size="10.00">#fov</text>
<text text-anchor="middle" x="75.5" y="-157.5" font-family="Helvetica,sans-Serif" font-size="10.00">#clip_far</text>
<text text-anchor="middle" x="75.5" y="-146.5" font-family="Helvetica,sans-Serif" font-size="10.00">+angle_side</text>
<text text-anchor="middle" x="75.5" y="-135.5" font-family="Helvetica,sans-Serif" font-size="10.00">+center</text>
<text text-anchor="middle" x="75.5" y="-124.5" font-family="Helvetica,sans-Serif" font-size="10.00">#up</text>
<text text-anchor="middle" x="75.5" y="-113.5" font-family="Helvetica,sans-Serif" font-size="10.00">#clip_near</text>
</g>
<!-- Node3 -->
<g id="node3" class="node"><title>Node3</title>
<polygon fill="white" stroke="#bfbfbf" points="93,-228.5 93,-285.5 133,-285.5 133,-228.5 93,-228.5"/>
<text text-anchor="middle" x="113" y="-273.5" font-family="Helvetica,sans-Serif" font-size="10.00">GLint</text>
<polyline fill="none" stroke="#bfbfbf" points="93,-266.5 133,-266.5 "/>
<text text-anchor="middle" x="113" y="-254.5" font-family="Helvetica,sans-Serif" font-size="10.00"> </text>
<polyline fill="none" stroke="#bfbfbf" points="93,-247.5 133,-247.5 "/>
<text text-anchor="middle" x="113" y="-235.5" font-family="Helvetica,sans-Serif" font-size="10.00"> </text>
</g>
<!-- Node3&#45;&gt;Node1 -->
<g id="edge2" class="edge"><title>Node3&#45;&gt;Node1</title>
<path fill="none" stroke="#404040" d="M113,-228.246C113,-196.548 113,-143.853 113,-103.429"/>
<polygon fill="none" stroke="#404040" points="113,-103.315 109,-97.3146 113,-91.3145 117,-97.3145 113,-103.315"/>
<text text-anchor="middle" x="147" y="-157.5" font-family="Helvetica,sans-Serif" font-size="10.00"> +curr_direction</text>
</g>
<!-- Node4 -->
<g id="node4" class="node"><title>Node4</title>
<polygon fill="white" stroke="#bfbfbf" points="186.5,-228.5 186.5,-285.5 221.5,-285.5 221.5,-228.5 186.5,-228.5"/>
<text text-anchor="middle" x="204" y="-273.5" font-family="Helvetica,sans-Serif" font-size="10.00">bool</text>
<polyline fill="none" stroke="#bfbfbf" points="186.5,-266.5 221.5,-266.5 "/>
<text text-anchor="middle" x="204" y="-254.5" font-family="Helvetica,sans-Serif" font-size="10.00"> </text>
<polyline fill="none" stroke="#bfbfbf" points="186.5,-247.5 221.5,-247.5 "/>
<text text-anchor="middle" x="204" y="-235.5" font-family="Helvetica,sans-Serif" font-size="10.00"> </text>
</g>
<!-- Node4&#45;&gt;Node1 -->
<g id="edge3" class="edge"><title>Node4&#45;&gt;Node1</title>
<path fill="none" stroke="#404040" d="M205.183,-228.472C205.336,-197.785 202.033,-147.541 182,-110 179.068,-104.506 175.464,-99.2428 171.455,-94.265"/>
<polygon fill="none" stroke="#404040" points="171.264,-94.0492 164.293,-92.2029 163.317,-85.0583 170.287,-86.9046 171.264,-94.0492"/>
<text text-anchor="middle" x="228.5" y="-157.5" font-family="Helvetica,sans-Serif" font-size="10.00"> +free_cam</text>
</g>
</g>
</svg>
