<?xml version="1.0" encoding="UTF-8" standalone="no"?>
<!DOCTYPE svg PUBLIC "-//W3C//DTD SVG 1.1//EN"
 "http://www.w3.org/Graphics/SVG/1.1/DTD/svg11.dtd">
<!-- Generated by graphviz version 2.30.1 (20130214.1330)
 -->
<!-- Title: OmniOGL::Scene::Draw Pages: 1 -->
<!--zoomable 514 -->
<svg id="main" version="1.1" xmlns="http://www.w3.org/2000/svg" xmlns:xlink="http://www.w3.org/1999/xlink" xml:space="preserve" onload="init(evt)">
        <defs>
                <circle id="rim" cx="0" cy="0" r="7"/>
                <circle id="rim2" cx="0" cy="0" r="3.5"/>
                <g id="zoomPlus">
                        <use xlink:href="#rim" fill="#404040">
                                <set attributeName="fill" to="#808080" begin="zoomplus.mouseover" end="zoomplus.mouseout"/>
                        </use>
                        <path d="M-4,0h8M0,-4v8" fill="none" stroke="white" stroke-width="1.5" pointer-events="none"/>
                </g>
                <g id="zoomMin">
                        <use xlink:href="#rim" fill="#404040">
                                <set attributeName="fill" to="#808080" begin="zoomminus.mouseover" end="zoomminus.mouseout"/>
                        </use>
                        <path d="M-4,0h8" fill="none" stroke="white" stroke-width="1.5" pointer-events="none"/>
                </g>
                <g id="dirArrow">
                        <path fill="none" stroke="white" stroke-width="1.5" d="M0,-3.0v7 M-2.5,-0.5L0,-3.0L2.5,-0.5"/>
                </g>
               <g id="resetDef">
                       <use xlink:href="#rim2" fill="#404040">
                               <set attributeName="fill" to="#808080" begin="reset.mouseover" end="reset.mouseout"/>
                       </use>
               </g>
        </defs>

<script type="text/javascript">
var viewWidth = 1220;
var viewHeight = 514;
var sectionId = 'dynsection-13';
</script>
<script xlink:href="svgpan.js"/>
<svg id="graph" class="graph">
<g id="viewport">
<title>OmniOGL::Scene::Draw</title>
<polygon fill="white" stroke="white" points="-4,5 -4,-510 1217,-510 1217,5 -4,5"/>
<!-- Node1 -->
<g id="node1" class="node"><title>Node1</title>
<polygon fill="#bfbfbf" stroke="black" points="0,-325.5 0,-344.5 122,-344.5 122,-325.5 0,-325.5"/>
<text text-anchor="middle" x="61" y="-332.5" font-family="Helvetica,sans-Serif" font-size="10.00">OmniOGL::Scene::Draw</text>
</g>
<!-- Node2 -->
<g id="node2" class="node"><title>Node2</title>
<g id="a_node2"><a xlink:href="class_omni_o_g_l_1_1_o_g_l_buffers.html#a966449fc915c1e54317bc4189476a83a" target="_top" xlink:title="OmniOGL::OGLBuffers::vao">
<polygon fill="white" stroke="black" points="165.5,-369.5 165.5,-388.5 302.5,-388.5 302.5,-369.5 165.5,-369.5"/>
<text text-anchor="middle" x="234" y="-376.5" font-family="Helvetica,sans-Serif" font-size="10.00">OmniOGL::OGLBuffers::vao</text>
</a>
</g>
</g>
<!-- Node1&#45;&gt;Node2 -->
<g id="edge1" class="edge"><title>Node1&#45;&gt;Node2</title>
<path fill="none" stroke="midnightblue" d="M99.1045,-344.547C124.65,-351.12 158.789,-359.905 186.201,-366.958"/>
<polygon fill="midnightblue" stroke="midnightblue" points="185.411,-370.369 195.968,-369.471 187.156,-363.59 185.411,-370.369"/>
</g>
<!-- Node3 -->
<g id="node3" class="node"><title>Node3</title>
<g id="a_node3"><a xlink:href="class_omni_o_g_l_1_1_section_collection.html#aa1fc4699ad48303bf0c9094cdcc4b024" target="_top" xlink:title="OmniOGL::SectionCollection\l::Draw">
<polygon fill="white" stroke="black" points="163,-320 163,-350 305,-350 305,-320 163,-320"/>
<text text-anchor="start" x="171" y="-338" font-family="Helvetica,sans-Serif" font-size="10.00">OmniOGL::SectionCollection</text>
<text text-anchor="middle" x="234" y="-327" font-family="Helvetica,sans-Serif" font-size="10.00">::Draw</text>
</a>
</g>
</g>
<!-- Node1&#45;&gt;Node3 -->
<g id="edge2" class="edge"><title>Node1&#45;&gt;Node3</title>
<path fill="none" stroke="midnightblue" d="M122.288,-335C132.096,-335 142.39,-335 152.587,-335"/>
<polygon fill="midnightblue" stroke="midnightblue" points="152.731,-338.5 162.731,-335 152.731,-331.5 152.731,-338.5"/>
</g>
<!-- Node4 -->
<g id="node4" class="node"><title>Node4</title>
<g id="a_node4"><a xlink:href="class_omni_o_g_l_1_1_scene.html#aaf90a48c617a97b06e8b75320c0271b0" target="_top" xlink:title="OmniOGL::Scene::HandleInput">
<polygon fill="white" stroke="black" points="158.5,-281.5 158.5,-300.5 309.5,-300.5 309.5,-281.5 158.5,-281.5"/>
<text text-anchor="middle" x="234" y="-288.5" font-family="Helvetica,sans-Serif" font-size="10.00">OmniOGL::Scene::HandleInput</text>
</a>
</g>
</g>
<!-- Node1&#45;&gt;Node4 -->
<g id="edge3" class="edge"><title>Node1&#45;&gt;Node4</title>
<path fill="none" stroke="midnightblue" d="M99.1045,-325.453C124.65,-318.88 158.789,-310.095 186.201,-303.042"/>
<polygon fill="midnightblue" stroke="midnightblue" points="187.156,-306.41 195.968,-300.529 185.411,-299.631 187.156,-306.41"/>
</g>
<!-- Node5 -->
<g id="node5" class="node"><title>Node5</title>
<g id="a_node5"><a xlink:href="class_omni_o_g_l_1_1_input_events.html#ada44975a5a200ea06939505fddfcf0b2" target="_top" xlink:title="OmniOGL::InputEvents\l::GetInputUpdate">
<polygon fill="white" stroke="black" points="375,-476 375,-506 491,-506 491,-476 375,-476"/>
<text text-anchor="start" x="383" y="-494" font-family="Helvetica,sans-Serif" font-size="10.00">OmniOGL::InputEvents</text>
<text text-anchor="middle" x="433" y="-483" font-family="Helvetica,sans-Serif" font-size="10.00">::GetInputUpdate</text>
</a>
</g>
</g>
<!-- Node4&#45;&gt;Node5 -->
<g id="edge4" class="edge"><title>Node4&#45;&gt;Node5</title>
<path fill="none" stroke="midnightblue" d="M295.63,-300.666C300.954,-303.353 305.876,-306.74 310,-311 359.192,-361.812 297.378,-414.643 346,-466 351.487,-471.795 358.231,-476.272 365.507,-479.725"/>
<polygon fill="midnightblue" stroke="midnightblue" points="364.372,-483.042 374.954,-483.575 367.014,-476.56 364.372,-483.042"/>
</g>
<!-- Node6 -->
<g id="node6" class="node"><title>Node6</title>
<g id="a_node6"><a xlink:href="class_omni_o_g_l_1_1_scene.html#ad54723f8249185236e8bc77315b3622c" target="_top" xlink:title="In the current implementation this function must determine the derived type of the shared pointer pas...">
<polygon fill="white" stroke="black" points="351,-437.5 351,-456.5 515,-456.5 515,-437.5 351,-437.5"/>
<text text-anchor="middle" x="433" y="-444.5" font-family="Helvetica,sans-Serif" font-size="10.00">OmniOGL::Scene::AddDerivedObj</text>
</a>
</g>
</g>
<!-- Node4&#45;&gt;Node6 -->
<g id="edge5" class="edge"><title>Node4&#45;&gt;Node6</title>
<path fill="none" stroke="midnightblue" d="M294.58,-300.626C300.244,-303.309 305.529,-306.706 310,-311 348.932,-348.393 306.473,-390.236 346,-427 348.157,-429.006 350.475,-430.824 352.918,-432.471"/>
<polygon fill="midnightblue" stroke="midnightblue" points="351.226,-435.535 361.649,-437.432 354.684,-429.448 351.226,-435.535"/>
</g>
<!-- Node10 -->
<g id="node10" class="node"><title>Node10</title>
<g id="a_node10"><a xlink:href="class_omni_o_g_l_1_1_scene.html#a9d8d02ef3d9c0e472ad5866cbbacfdac" target="_top" xlink:title="Iterates through all objects in the Section which the player/user is currently in, as well as all of the persistant objects in the Scene, and attempts to find which object is within closest proximity to the camera CENTER (the point the camera is looking at). Only objects which are within a close&#45;enough proximity will qualify. The nearest qualifying object is removed from the Scene (or from the Section it occupied, if it occupied one). evnt_Keybrd()">
<polygon fill="white" stroke="black" points="355.5,-388 355.5,-418 510.5,-418 510.5,-388 355.5,-388"/>
<text text-anchor="start" x="363.5" y="-406" font-family="Helvetica,sans-Serif" font-size="10.00">OmniOGL::Scene::RemoveNear</text>
<text text-anchor="middle" x="433" y="-395" font-family="Helvetica,sans-Serif" font-size="10.00">Object</text>
</a>
</g>
</g>
<!-- Node4&#45;&gt;Node10 -->
<g id="edge9" class="edge"><title>Node4&#45;&gt;Node10</title>
<path fill="none" stroke="midnightblue" d="M291.503,-300.579C298.146,-303.247 304.504,-306.653 310,-311 336.514,-331.97 319.722,-356.736 346,-378 348.266,-379.834 350.662,-381.533 353.156,-383.108"/>
<polygon fill="midnightblue" stroke="midnightblue" points="351.526,-386.206 361.969,-387.996 354.921,-380.085 351.526,-386.206"/>
</g>
<!-- Node16 -->
<g id="node16" class="node"><title>Node16</title>
<g id="a_node16"><a xlink:href="class_omni_o_g_l_1_1_scene.html#a452adda2e655d6702fa23361ab9a4651" target="_top" xlink:title="Toggles bump mapping via [specially formatted] textures on/off. Primarily used for debugging purposes...">
<polygon fill="white" stroke="black" points="356,-339 356,-369 510,-369 510,-339 356,-339"/>
<text text-anchor="start" x="364" y="-357" font-family="Helvetica,sans-Serif" font-size="10.00">OmniOGL::Scene::ToggleBump</text>
<text text-anchor="middle" x="433" y="-346" font-family="Helvetica,sans-Serif" font-size="10.00">Mapping</text>
</a>
</g>
</g>
<!-- Node4&#45;&gt;Node16 -->
<g id="edge16" class="edge"><title>Node4&#45;&gt;Node16</title>
<path fill="none" stroke="midnightblue" d="M276.739,-300.522C287.701,-303.458 299.414,-306.99 310,-311 326.728,-317.337 329.343,-322.477 346,-329 352.128,-331.4 358.581,-333.69 365.084,-335.84"/>
<polygon fill="midnightblue" stroke="midnightblue" points="364.023,-339.176 374.614,-338.888 366.155,-332.508 364.023,-339.176"/>
</g>
<!-- Node17 -->
<g id="node17" class="node"><title>Node17</title>
<g id="a_node17"><a xlink:href="class_omni_o_g_l_1_1_scene.html#ac22c153e30b6ec0826789b499c500b0d" target="_top" xlink:title="Toggles lambertian reflectance (a.k.a. diffuse highlights) on/off. Primarily used for debugging purpo...">
<polygon fill="white" stroke="black" points="351,-300.5 351,-319.5 515,-319.5 515,-300.5 351,-300.5"/>
<text text-anchor="middle" x="433" y="-307.5" font-family="Helvetica,sans-Serif" font-size="10.00">OmniOGL::Scene::ToggleLambert</text>
</a>
</g>
</g>
<!-- Node4&#45;&gt;Node17 -->
<g id="edge17" class="edge"><title>Node4&#45;&gt;Node17</title>
<path fill="none" stroke="midnightblue" d="M309.758,-298.21C319.799,-299.179 330.191,-300.181 340.48,-301.173"/>
<polygon fill="midnightblue" stroke="midnightblue" points="340.428,-304.684 350.718,-302.161 341.1,-297.717 340.428,-304.684"/>
</g>
<!-- Node18 -->
<g id="node18" class="node"><title>Node18</title>
<g id="a_node18"><a xlink:href="class_omni_o_g_l_1_1_scene.html#ab13174444217c90a47b511f43aa7683e" target="_top" xlink:title="Toggles phong shading (a.k.a. specular highlights) on/off. Primarily used for debugging purposes...">
<polygon fill="white" stroke="black" points="355,-262.5 355,-281.5 511,-281.5 511,-262.5 355,-262.5"/>
<text text-anchor="middle" x="433" y="-269.5" font-family="Helvetica,sans-Serif" font-size="10.00">OmniOGL::Scene::TogglePhong</text>
</a>
</g>
</g>
<!-- Node4&#45;&gt;Node18 -->
<g id="edge18" class="edge"><title>Node4&#45;&gt;Node18</title>
<path fill="none" stroke="midnightblue" d="M309.758,-283.79C321.123,-282.694 332.937,-281.554 344.543,-280.435"/>
<polygon fill="midnightblue" stroke="midnightblue" points="345.055,-283.902 354.673,-279.458 344.383,-276.934 345.055,-283.902"/>
</g>
<!-- Node19 -->
<g id="node19" class="node"><title>Node19</title>
<g id="a_node19"><a xlink:href="class_omni_o_g_l_1_1_scene.html#a87c0724c8678835982e0fd9774e5ebb3" target="_top" xlink:title="Toggles texture mapping on/off. Does not affect textures used for bump mapping. Primarily used for de...">
<polygon fill="white" stroke="black" points="350,-224.5 350,-243.5 516,-243.5 516,-224.5 350,-224.5"/>
<text text-anchor="middle" x="433" y="-231.5" font-family="Helvetica,sans-Serif" font-size="10.00">OmniOGL::Scene::ToggleTextures</text>
</a>
</g>
</g>
<!-- Node4&#45;&gt;Node19 -->
<g id="edge19" class="edge"><title>Node4&#45;&gt;Node19</title>
<path fill="none" stroke="midnightblue" d="M260.315,-281.424C282.649,-273.194 316.191,-261.367 346,-253 355.178,-250.424 364.986,-247.976 374.573,-245.746"/>
<polygon fill="midnightblue" stroke="midnightblue" points="375.471,-249.131 384.448,-243.505 373.922,-242.305 375.471,-249.131"/>
</g>
<!-- Node20 -->
<g id="node20" class="node"><title>Node20</title>
<g id="a_node20"><a xlink:href="class_omni_o_g_l_1_1_scene.html#a49cec0453c714f408b2a153f5cfacccf" target="_top" xlink:title="OmniOGL::Scene::ToggleWireframe">
<polygon fill="white" stroke="black" points="346.5,-186.5 346.5,-205.5 519.5,-205.5 519.5,-186.5 346.5,-186.5"/>
<text text-anchor="middle" x="433" y="-193.5" font-family="Helvetica,sans-Serif" font-size="10.00">OmniOGL::Scene::ToggleWireframe</text>
</a>
</g>
</g>
<!-- Node4&#45;&gt;Node20 -->
<g id="edge20" class="edge"><title>Node4&#45;&gt;Node20</title>
<path fill="none" stroke="midnightblue" d="M245.807,-281.457C264.734,-265.262 305.712,-232.458 346,-215 351.801,-212.486 357.971,-210.289 364.239,-208.372"/>
<polygon fill="midnightblue" stroke="midnightblue" points="365.457,-211.665 374.133,-205.583 363.558,-204.927 365.457,-211.665"/>
</g>
<!-- Node21 -->
<g id="node21" class="node"><title>Node21</title>
<g id="a_node21"><a xlink:href="class_omni_o_g_l_1_1_camera.html#a909a3939c41861fe1a4c11d965660c28" target="_top" xlink:title="A comprehensive method which checks to see if camera movement or camera orientation change is pending...">
<polygon fill="white" stroke="black" points="364.5,-148.5 364.5,-167.5 501.5,-167.5 501.5,-148.5 364.5,-148.5"/>
<text text-anchor="middle" x="433" y="-155.5" font-family="Helvetica,sans-Serif" font-size="10.00">OmniOGL::Camera::Update</text>
</a>
</g>
</g>
<!-- Node4&#45;&gt;Node21 -->
<g id="edge21" class="edge"><title>Node4&#45;&gt;Node21</title>
<path fill="none" stroke="midnightblue" d="M241.452,-281.216C256.728,-258.885 297.49,-204.013 346,-177 350.016,-174.764 354.275,-172.791 358.664,-171.05"/>
<polygon fill="midnightblue" stroke="midnightblue" points="360.174,-174.228 368.437,-167.598 357.842,-167.628 360.174,-174.228"/>
</g>
<!-- Node23 -->
<g id="node23" class="node"><title>Node23</title>
<g id="a_node23"><a xlink:href="class_omni_o_g_l_1_1_section_collection.html#a8eb741628a5957199c4c511be6e4f599" target="_top" xlink:title="OmniOGL::SectionCollection\l::UpdateCurrentSection">
<polygon fill="white" stroke="black" points="362,-80 362,-110 504,-110 504,-80 362,-80"/>
<text text-anchor="start" x="370" y="-98" font-family="Helvetica,sans-Serif" font-size="10.00">OmniOGL::SectionCollection</text>
<text text-anchor="middle" x="433" y="-87" font-family="Helvetica,sans-Serif" font-size="10.00">::UpdateCurrentSection</text>
</a>
</g>
</g>
<!-- Node4&#45;&gt;Node23 -->
<g id="edge23" class="edge"><title>Node4&#45;&gt;Node23</title>
<path fill="none" stroke="midnightblue" d="M239.988,-281.252C253.73,-255.19 294.549,-182.909 346,-139 357.189,-129.451 370.807,-121.28 383.875,-114.664"/>
<polygon fill="midnightblue" stroke="midnightblue" points="385.776,-117.632 393.251,-110.124 382.725,-111.332 385.776,-117.632"/>
</g>
<!-- Node7 -->
<g id="node7" class="node"><title>Node7</title>
<g id="a_node7"><a xlink:href="class_omni_o_g_l_1_1_scene.html#a63db7f91d326ad1a20741b31417b8148" target="_top" xlink:title="A template method which adds an renderable object of type T to the scene. It is assumed that T is a d...">
<polygon fill="white" stroke="black" points="565,-437.5 565,-456.5 711,-456.5 711,-437.5 565,-437.5"/>
<text text-anchor="middle" x="638" y="-444.5" font-family="Helvetica,sans-Serif" font-size="10.00">OmniOGL::Scene::AddObject</text>
</a>
</g>
</g>
<!-- Node6&#45;&gt;Node7 -->
<g id="edge6" class="edge"><title>Node6&#45;&gt;Node7</title>
<path fill="none" stroke="midnightblue" d="M515.106,-447C528.09,-447 541.539,-447 554.554,-447"/>
<polygon fill="midnightblue" stroke="midnightblue" points="554.881,-450.5 564.881,-447 554.881,-443.5 554.881,-450.5"/>
</g>
<!-- Node8 -->
<g id="node8" class="node"><title>Node8</title>
<g id="a_node8"><a xlink:href="class_omni_o_g_l_1_1_section_collection.html#a07c937297ecc115e498cac570d6910bd" target="_top" xlink:title="OmniOGL::SectionCollection\l::AddObject">
<polygon fill="white" stroke="black" points="756,-432 756,-462 898,-462 898,-432 756,-432"/>
<text text-anchor="start" x="764" y="-450" font-family="Helvetica,sans-Serif" font-size="10.00">OmniOGL::SectionCollection</text>
<text text-anchor="middle" x="827" y="-439" font-family="Helvetica,sans-Serif" font-size="10.00">::AddObject</text>
</a>
</g>
</g>
<!-- Node7&#45;&gt;Node8 -->
<g id="edge7" class="edge"><title>Node7&#45;&gt;Node8</title>
<path fill="none" stroke="midnightblue" d="M711.032,-447C722.411,-447 734.239,-447 745.791,-447"/>
<polygon fill="midnightblue" stroke="midnightblue" points="745.853,-450.5 755.853,-447 745.853,-443.5 745.853,-450.5"/>
</g>
<!-- Node9 -->
<g id="node9" class="node"><title>Node9</title>
<g id="a_node9"><a xlink:href="class_omni_o_g_l_1_1_section.html#a20b4cf2c6472d59e9967aa8dbad377a4" target="_top" xlink:title="Adds an object to the Section&#39;s collection (linked list) of objects. This method also increments Sect...">
<polygon fill="white" stroke="black" points="934.5,-437.5 934.5,-456.5 1085.5,-456.5 1085.5,-437.5 934.5,-437.5"/>
<text text-anchor="middle" x="1010" y="-444.5" font-family="Helvetica,sans-Serif" font-size="10.00">OmniOGL::Section::AddObject</text>
</a>
</g>
</g>
<!-- Node8&#45;&gt;Node9 -->
<g id="edge8" class="edge"><title>Node8&#45;&gt;Node9</title>
<path fill="none" stroke="midnightblue" d="M898.238,-447C906.738,-447 915.488,-447 924.169,-447"/>
<polygon fill="midnightblue" stroke="midnightblue" points="924.308,-450.5 934.308,-447 924.308,-443.5 924.308,-450.5"/>
</g>
<!-- Node11 -->
<g id="node11" class="node"><title>Node11</title>
<g id="a_node11"><a xlink:href="class_omni_o_g_l_1_1_section_collection.html#af49673c003179e600645df9310c23108" target="_top" xlink:title="OmniOGL::SectionCollection\l::RemoveNearObject">
<polygon fill="white" stroke="black" points="567,-388 567,-418 709,-418 709,-388 567,-388"/>
<text text-anchor="start" x="575" y="-406" font-family="Helvetica,sans-Serif" font-size="10.00">OmniOGL::SectionCollection</text>
<text text-anchor="middle" x="638" y="-395" font-family="Helvetica,sans-Serif" font-size="10.00">::RemoveNearObject</text>
</a>
</g>
</g>
<!-- Node10&#45;&gt;Node11 -->
<g id="edge10" class="edge"><title>Node10&#45;&gt;Node11</title>
<path fill="none" stroke="midnightblue" d="M510.746,-403C525.707,-403 541.432,-403 556.51,-403"/>
<polygon fill="midnightblue" stroke="midnightblue" points="556.828,-406.5 566.828,-403 556.828,-399.5 556.828,-406.5"/>
</g>
<!-- Node15 -->
<g id="node15" class="node"><title>Node15</title>
<g id="a_node15"><a xlink:href="class_omni_o_g_l_1_1_scene.html#a0dbdc05458b6c7c905b79dd847bc5e24" target="_top" xlink:title="Removes a RenObj (or one of its derivates) from the Scene, only if the object [pointer] already exist...">
<polygon fill="white" stroke="black" points="556.5,-349.5 556.5,-368.5 719.5,-368.5 719.5,-349.5 556.5,-349.5"/>
<text text-anchor="middle" x="638" y="-356.5" font-family="Helvetica,sans-Serif" font-size="10.00">OmniOGL::Scene::RemoveObject</text>
</a>
</g>
</g>
<!-- Node10&#45;&gt;Node15 -->
<g id="edge14" class="edge"><title>Node10&#45;&gt;Node15</title>
<path fill="none" stroke="midnightblue" d="M503.293,-387.981C529.439,-382.314 558.766,-375.957 583.277,-370.644"/>
<polygon fill="midnightblue" stroke="midnightblue" points="584.082,-374.051 593.113,-368.512 582.599,-367.21 584.082,-374.051"/>
</g>
<!-- Node12 -->
<g id="node12" class="node"><title>Node12</title>
<g id="a_node12"><a xlink:href="class_omni_o_g_l_1_1_section_collection.html#a48c15326a3435fbc853671efde647d6f" target="_top" xlink:title="OmniOGL::SectionCollection\l::RemoveObject">
<polygon fill="white" stroke="black" points="756,-363 756,-393 898,-393 898,-363 756,-363"/>
<text text-anchor="start" x="764" y="-381" font-family="Helvetica,sans-Serif" font-size="10.00">OmniOGL::SectionCollection</text>
<text text-anchor="middle" x="827" y="-370" font-family="Helvetica,sans-Serif" font-size="10.00">::RemoveObject</text>
</a>
</g>
</g>
<!-- Node11&#45;&gt;Node12 -->
<g id="edge11" class="edge"><title>Node11&#45;&gt;Node12</title>
<path fill="none" stroke="midnightblue" d="M709.164,-393.62C721.066,-392.029 733.507,-390.365 745.646,-388.742"/>
<polygon fill="midnightblue" stroke="midnightblue" points="746.306,-392.186 755.754,-387.391 745.378,-385.247 746.306,-392.186"/>
</g>
<!-- Node13 -->
<g id="node13" class="node"><title>Node13</title>
<g id="a_node13"><a xlink:href="class_omni_o_g_l_1_1_section.html#ac8ecd65a9d61f632f44d18df9174cf8d" target="_top" xlink:title="Removes an object from the Section&#39;s collection (linked list) of objects. This method also decrements...">
<polygon fill="white" stroke="black" points="940,-363 940,-393 1080,-393 1080,-363 940,-363"/>
<text text-anchor="start" x="948" y="-381" font-family="Helvetica,sans-Serif" font-size="10.00">OmniOGL::Section::Remove</text>
<text text-anchor="middle" x="1010" y="-370" font-family="Helvetica,sans-Serif" font-size="10.00">Object</text>
</a>
</g>
</g>
<!-- Node12&#45;&gt;Node13 -->
<g id="edge12" class="edge"><title>Node12&#45;&gt;Node13</title>
<path fill="none" stroke="midnightblue" d="M898.238,-378C908.63,-378 919.398,-378 929.955,-378"/>
<polygon fill="midnightblue" stroke="midnightblue" points="929.992,-381.5 939.992,-378 929.992,-374.5 929.992,-381.5"/>
</g>
<!-- Node14 -->
<g id="node14" class="node"><title>Node14</title>
<g id="a_node14"><a xlink:href="namespace_omni_o_g_l.html#a8f559408c62db097a1a918d7f58f4183" target="_top" xlink:title="A &quot;clone&quot; of the well&#45;known printf() function, with the debug routed to the OutputDebugString() funct...">
<polygon fill="white" stroke="black" points="1122,-368.5 1122,-387.5 1212,-387.5 1212,-368.5 1122,-368.5"/>
<text text-anchor="middle" x="1167" y="-375.5" font-family="Helvetica,sans-Serif" font-size="10.00">OmniOGL::dprint</text>
</a>
</g>
</g>
<!-- Node13&#45;&gt;Node14 -->
<g id="edge13" class="edge"><title>Node13&#45;&gt;Node14</title>
<path fill="none" stroke="midnightblue" d="M1080.34,-378C1090.75,-378 1101.36,-378 1111.4,-378"/>
<polygon fill="midnightblue" stroke="midnightblue" points="1111.63,-381.5 1121.63,-378 1111.63,-374.5 1111.63,-381.5"/>
</g>
<!-- Node15&#45;&gt;Node12 -->
<g id="edge15" class="edge"><title>Node15&#45;&gt;Node12</title>
<path fill="none" stroke="midnightblue" d="M719.662,-367.196C728.33,-368.076 737.148,-368.972 745.81,-369.852"/>
<polygon fill="midnightblue" stroke="midnightblue" points="745.586,-373.348 755.889,-370.876 746.294,-366.383 745.586,-373.348"/>
</g>
<!-- Node22 -->
<g id="node22" class="node"><title>Node22</title>
<g id="a_node22"><a xlink:href="class_omni_o_g_l_1_1_camera.html#a698009762978100380046bf41abd45ea" target="_top" xlink:title="This method rotates a 3D vector (represented by a three element float array) around another 3D vector...">
<polygon fill="white" stroke="black" points="577.5,-162 577.5,-192 698.5,-192 698.5,-162 577.5,-162"/>
<text text-anchor="start" x="585.5" y="-180" font-family="Helvetica,sans-Serif" font-size="10.00">OmniOGL::Camera::raw</text>
<text text-anchor="middle" x="638" y="-169" font-family="Helvetica,sans-Serif" font-size="10.00">_rotate</text>
</a>
</g>
</g>
<!-- Node21&#45;&gt;Node22 -->
<g id="edge22" class="edge"><title>Node21&#45;&gt;Node22</title>
<path fill="none" stroke="midnightblue" d="M501.596,-164.327C522.609,-166.293 545.812,-168.465 566.987,-170.447"/>
<polygon fill="midnightblue" stroke="midnightblue" points="566.917,-173.956 577.2,-171.403 567.57,-166.986 566.917,-173.956"/>
</g>
<!-- Node24 -->
<g id="node24" class="node"><title>Node24</title>
<g id="a_node24"><a xlink:href="class_omni_o_g_l_1_1_section_collection.html#a2f0e17b0f75e99116daca045854d656a" target="_top" xlink:title="OmniOGL::SectionCollection::Get">
<polygon fill="white" stroke="black" points="556,-123.5 556,-142.5 720,-142.5 720,-123.5 556,-123.5"/>
<text text-anchor="middle" x="638" y="-130.5" font-family="Helvetica,sans-Serif" font-size="10.00">OmniOGL::SectionCollection::Get</text>
</a>
</g>
</g>
<!-- Node23&#45;&gt;Node24 -->
<g id="edge24" class="edge"><title>Node23&#45;&gt;Node24</title>
<path fill="none" stroke="midnightblue" d="M504.145,-108.131C527.605,-112.522 553.543,-117.378 576.227,-121.624"/>
<polygon fill="midnightblue" stroke="midnightblue" points="575.592,-125.066 586.066,-123.466 576.88,-118.185 575.592,-125.066"/>
</g>
<!-- Node25 -->
<g id="node25" class="node"><title>Node25</title>
<g id="a_node25"><a xlink:href="namespace_omni_o_g_l.html#ade1ba238a31a1003412522a2769d5945" target="_top" xlink:title="OmniOGL::_Valid">
<polygon fill="white" stroke="black" points="780.5,-82.5 780.5,-101.5 873.5,-101.5 873.5,-82.5 780.5,-82.5"/>
<text text-anchor="middle" x="827" y="-89.5" font-family="Helvetica,sans-Serif" font-size="10.00">OmniOGL::_Valid</text>
</a>
</g>
</g>
<!-- Node23&#45;&gt;Node25 -->
<g id="edge25" class="edge"><title>Node23&#45;&gt;Node25</title>
<path fill="none" stroke="midnightblue" d="M504.082,-94.4637C580.119,-93.8817 700.001,-92.9643 770.013,-92.4285"/>
<polygon fill="midnightblue" stroke="midnightblue" points="770.416,-95.9256 780.389,-92.3491 770.362,-88.9258 770.416,-95.9256"/>
</g>
<!-- Node26 -->
<g id="node26" class="node"><title>Node26</title>
<g id="a_node26"><a xlink:href="class_omni_o_g_l_1_1_section.html#a048b806e5f535ddbf0dbca0b5111e65a" target="_top" xlink:title="A method used to either set or retrieve the unique ID/index of the Section. This method will always r...">
<polygon fill="white" stroke="black" points="757,-0.5 757,-19.5 897,-19.5 897,-0.5 757,-0.5"/>
<text text-anchor="middle" x="827" y="-7.5" font-family="Helvetica,sans-Serif" font-size="10.00">OmniOGL::Section::QueryID</text>
</a>
</g>
</g>
<!-- Node23&#45;&gt;Node26 -->
<g id="edge26" class="edge"><title>Node23&#45;&gt;Node26</title>
<path fill="none" stroke="midnightblue" d="M453.852,-79.9501C476.983,-63.3603 517.025,-37.5016 556,-26 618.196,-7.6459 691.861,-4.43797 746.521,-5.37615"/>
<polygon fill="midnightblue" stroke="midnightblue" points="746.769,-8.88245 756.844,-5.60626 746.925,-1.88419 746.769,-8.88245"/>
</g>
<!-- Node27 -->
<g id="node27" class="node"><title>Node27</title>
<g id="a_node27"><a xlink:href="class_omni_o_g_l_1_1_section_collection.html#aa4bab32a8d339d5a1e34d28b283768ff" target="_top" xlink:title="OmniOGL::SectionCollection\l::UpdateAdjacentSectionsArray">
<polygon fill="white" stroke="black" points="561.5,-36 561.5,-66 714.5,-66 714.5,-36 561.5,-36"/>
<text text-anchor="start" x="569.5" y="-54" font-family="Helvetica,sans-Serif" font-size="10.00">OmniOGL::SectionCollection</text>
<text text-anchor="middle" x="638" y="-43" font-family="Helvetica,sans-Serif" font-size="10.00">::UpdateAdjacentSectionsArray</text>
</a>
</g>
</g>
<!-- Node23&#45;&gt;Node27 -->
<g id="edge27" class="edge"><title>Node23&#45;&gt;Node27</title>
<path fill="none" stroke="midnightblue" d="M503.293,-79.9808C520.834,-76.1788 539.807,-72.0664 557.797,-68.1672"/>
<polygon fill="midnightblue" stroke="midnightblue" points="558.643,-71.5652 567.675,-66.0262 557.16,-64.724 558.643,-71.5652"/>
</g>
<!-- Node28 -->
<g id="node28" class="node"><title>Node28</title>
<g id="a_node28"><a xlink:href="namespace_omni_o_g_l.html#abe5ff24d55002e6ebffb4415d994260a" target="_top" xlink:title="Sets the pointer to the value &#45;1.">
<polygon fill="white" stroke="black" points="785,-41.5 785,-60.5 869,-60.5 869,-41.5 785,-41.5"/>
<text text-anchor="middle" x="827" y="-48.5" font-family="Helvetica,sans-Serif" font-size="10.00">OmniOGL::_Init</text>
</a>
</g>
</g>
<!-- Node27&#45;&gt;Node28 -->
<g id="edge28" class="edge"><title>Node27&#45;&gt;Node28</title>
<path fill="none" stroke="midnightblue" d="M714.521,-51C734.791,-51 756.233,-51 774.839,-51"/>
<polygon fill="midnightblue" stroke="midnightblue" points="774.858,-54.5001 784.858,-51 774.858,-47.5001 774.858,-54.5001"/>
</g>
<!-- Node27&#45;&gt;Node25 -->
<g id="edge29" class="edge"><title>Node27&#45;&gt;Node25</title>
<path fill="none" stroke="midnightblue" d="M707.57,-66.0341C728.971,-70.7263 752.253,-75.8308 772.465,-80.2623"/>
<polygon fill="midnightblue" stroke="midnightblue" points="771.905,-83.7226 782.422,-82.4455 773.404,-76.885 771.905,-83.7226"/>
</g>
<!-- Node27&#45;&gt;Node26 -->
<g id="edge30" class="edge"><title>Node27&#45;&gt;Node26</title>
<path fill="none" stroke="midnightblue" d="M707.57,-35.9659C728.971,-31.2737 752.253,-26.1692 772.465,-21.7377"/>
<polygon fill="midnightblue" stroke="midnightblue" points="773.404,-25.115 782.422,-19.5545 771.905,-18.2774 773.404,-25.115"/>
</g>
</g>
</svg>
        <g id="navigator" transform="translate(0 0)" fill="#404254">
                <rect fill="#f2f5e9" fill-opacity="0.5" stroke="#606060" stroke-width=".5" x="0" y="0" width="60" height="60"/>
                <use id="zoomplus" xlink:href="#zoomPlus" x="17" y="9" onmousedown="handleZoom(evt,'in')"/>
                <use id="zoomminus" xlink:href="#zoomMin" x="42" y="9" onmousedown="handleZoom(evt,'out')"/>
                <use id="reset" xlink:href="#resetDef" x="30" y="36" onmousedown="handleReset()"/>
                <g id="arrowUp" xlink:href="#dirArrow" transform="translate(30 24)" onmousedown="handlePan(0,-1)">
                  <use xlink:href="#rim" fill="#404040">
                        <set attributeName="fill" to="#808080" begin="arrowUp.mouseover" end="arrowUp.mouseout"/>
                  </use>
                  <path fill="none" stroke="white" stroke-width="1.5" d="M0,-3.0v7 M-2.5,-0.5L0,-3.0L2.5,-0.5"/>
                </g>
                <g id="arrowRight" xlink:href="#dirArrow" transform="rotate(90) translate(36 -43)" onmousedown="handlePan(1,0)">
                  <use xlink:href="#rim" fill="#404040">
                        <set attributeName="fill" to="#808080" begin="arrowRight.mouseover" end="arrowRight.mouseout"/>
                  </use>
                  <path fill="none" stroke="white" stroke-width="1.5" d="M0,-3.0v7 M-2.5,-0.5L0,-3.0L2.5,-0.5"/>
                </g>
                <g id="arrowDown" xlink:href="#dirArrow" transform="rotate(180) translate(-30 -48)" onmousedown="handlePan(0,1)">
                  <use xlink:href="#rim" fill="#404040">
                        <set attributeName="fill" to="#808080" begin="arrowDown.mouseover" end="arrowDown.mouseout"/>
                  </use>
                  <path fill="none" stroke="white" stroke-width="1.5" d="M0,-3.0v7 M-2.5,-0.5L0,-3.0L2.5,-0.5"/>
                </g>
                <g id="arrowLeft" xlink:href="#dirArrow" transform="rotate(270) translate(-36 17)" onmousedown="handlePan(-1,0)">
                  <use xlink:href="#rim" fill="#404040">
                        <set attributeName="fill" to="#808080" begin="arrowLeft.mouseover" end="arrowLeft.mouseout"/>
                  </use>
                  <path fill="none" stroke="white" stroke-width="1.5" d="M0,-3.0v7 M-2.5,-0.5L0,-3.0L2.5,-0.5"/>
                </g>
        </g>
        <svg viewBox="0 0 15 15" width="100%" height="30px" preserveAspectRatio="xMaxYMin meet">
         <g id="arrow_out" transform="scale(0.3 0.3)">
          <a xlink:href="class_omni_o_g_l_1_1_scene_ac65b18faabaa3d2af9a0a4b2f2fc0fe0_cgraph_org.svg" target="_base">
           <rect id="button" ry="5" rx="5" y="6" x="6" height="38" width="38"
                fill="#f2f5e9" fill-opacity="0.5" stroke="#606060" stroke-width="1.0"/>
           <path id="arrow"
             d="M 11.500037,31.436501 C 11.940474,20.09759 22.043105,11.32322 32.158766,21.979434 L 37.068811,17.246167 C 37.068811,17.246167 37.088388,32 37.088388,32 L 22.160133,31.978069 C 22.160133,31.978069 26.997745,27.140456 26.997745,27.140456 C 18.528582,18.264221 13.291696,25.230495 11.500037,31.436501 z"
             style="fill:#404040;"/>
          </a>
         </g>
        </svg>
</svg>
