<?xml version="1.0" encoding="UTF-8" standalone="no"?>
<!DOCTYPE svg PUBLIC "-//W3C//DTD SVG 1.1//EN"
 "http://www.w3.org/Graphics/SVG/1.1/DTD/svg11.dtd">
<!-- Generated by graphviz version 2.30.1 (20130214.1330)
 -->
<!-- Title: OmniOGL::BlockArray Pages: 1 -->
<!--zoomable 832 -->
<svg id="main" version="1.1" xmlns="http://www.w3.org/2000/svg" xmlns:xlink="http://www.w3.org/1999/xlink" xml:space="preserve" onload="init(evt)">
        <defs>
                <circle id="rim" cx="0" cy="0" r="7"/>
                <circle id="rim2" cx="0" cy="0" r="3.5"/>
                <g id="zoomPlus">
                        <use xlink:href="#rim" fill="#404040">
                                <set attributeName="fill" to="#808080" begin="zoomplus.mouseover" end="zoomplus.mouseout"/>
                        </use>
                        <path d="M-4,0h8M0,-4v8" fill="none" stroke="white" stroke-width="1.5" pointer-events="none"/>
                </g>
                <g id="zoomMin">
                        <use xlink:href="#rim" fill="#404040">
                                <set attributeName="fill" to="#808080" begin="zoomminus.mouseover" end="zoomminus.mouseout"/>
                        </use>
                        <path d="M-4,0h8" fill="none" stroke="white" stroke-width="1.5" pointer-events="none"/>
                </g>
                <g id="dirArrow">
                        <path fill="none" stroke="white" stroke-width="1.5" d="M0,-3.0v7 M-2.5,-0.5L0,-3.0L2.5,-0.5"/>
                </g>
               <g id="resetDef">
                       <use xlink:href="#rim2" fill="#404040">
                               <set attributeName="fill" to="#808080" begin="reset.mouseover" end="reset.mouseout"/>
                       </use>
               </g>
        </defs>

<script type="text/javascript">
var viewWidth = 1226;
var viewHeight = 832;
var sectionId = 'dynsection-1';
</script>
<script xlink:href="svgpan.js"/>
<svg id="graph" class="graph">
<g id="viewport">
<title>OmniOGL::BlockArray</title>
<polygon fill="white" stroke="white" points="-4,5 -4,-828 1223.2,-828 1223.2,5 -4,5"/>
<!-- Node1 -->
<g id="node1" class="node"><title>Node1</title>
<polygon fill="#bfbfbf" stroke="black" points="817.204,-1 817.204,-135 931.204,-135 931.204,-1 817.204,-1"/>
<text text-anchor="middle" x="874.204" y="-123" font-family="Helvetica,sans-Serif" font-size="10.00">OmniOGL::BlockArray</text>
<polyline fill="none" stroke="black" points="817.204,-116 931.204,-116 "/>
<text text-anchor="middle" x="874.204" y="-104" font-family="Helvetica,sans-Serif" font-size="10.00"> </text>
<polyline fill="none" stroke="black" points="817.204,-97 931.204,-97 "/>
<text text-anchor="start" x="825.204" y="-85" font-family="Helvetica,sans-Serif" font-size="10.00">+ BlockArray()</text>
<text text-anchor="start" x="825.204" y="-74" font-family="Helvetica,sans-Serif" font-size="10.00">+ BlockArray()</text>
<text text-anchor="start" x="825.204" y="-63" font-family="Helvetica,sans-Serif" font-size="10.00">+ ~BlockArray()</text>
<text text-anchor="start" x="825.204" y="-52" font-family="Helvetica,sans-Serif" font-size="10.00">+ Draw()</text>
<text text-anchor="start" x="825.204" y="-41" font-family="Helvetica,sans-Serif" font-size="10.00">+ GetCenter()</text>
<text text-anchor="start" x="825.204" y="-30" font-family="Helvetica,sans-Serif" font-size="10.00">+ GetNormals()</text>
<text text-anchor="start" x="825.204" y="-19" font-family="Helvetica,sans-Serif" font-size="10.00">+ operator=()</text>
<text text-anchor="start" x="825.204" y="-8" font-family="Helvetica,sans-Serif" font-size="10.00">+ UpdateVertices()</text>
</g>
<!-- Node2 -->
<g id="node2" class="node"><title>Node2</title>
<g id="a_node2"><a xlink:href="class_omni_o_g_l_1_1_ren_obj.html" target="_top" xlink:title="The purely virtual base class which is used to represent a single object which will potentially be re...">
<polygon fill="white" stroke="black" points="556.204,-195 556.204,-571 678.204,-571 678.204,-195 556.204,-195"/>
<text text-anchor="middle" x="617.204" y="-559" font-family="Helvetica,sans-Serif" font-size="10.00">OmniOGL::RenObj</text>
<polyline fill="none" stroke="black" points="556.204,-552 678.204,-552 "/>
<text text-anchor="middle" x="617.204" y="-540" font-family="Helvetica,sans-Serif" font-size="10.00"> </text>
<polyline fill="none" stroke="black" points="556.204,-533 678.204,-533 "/>
<text text-anchor="start" x="564.204" y="-521" font-family="Helvetica,sans-Serif" font-size="10.00">+ RenObj()</text>
<text text-anchor="start" x="564.204" y="-510" font-family="Helvetica,sans-Serif" font-size="10.00">+ RenObj()</text>
<text text-anchor="start" x="564.204" y="-499" font-family="Helvetica,sans-Serif" font-size="10.00">+ ~RenObj()</text>
<text text-anchor="start" x="564.204" y="-488" font-family="Helvetica,sans-Serif" font-size="10.00">+ Draw()</text>
<text text-anchor="start" x="564.204" y="-477" font-family="Helvetica,sans-Serif" font-size="10.00">+ EnableLighting()</text>
<text text-anchor="start" x="564.204" y="-466" font-family="Helvetica,sans-Serif" font-size="10.00">+ GetForeground()</text>
<text text-anchor="start" x="564.204" y="-455" font-family="Helvetica,sans-Serif" font-size="10.00">+ GetInternalClipping()</text>
<text text-anchor="start" x="564.204" y="-444" font-family="Helvetica,sans-Serif" font-size="10.00">+ GetLightingEnable()</text>
<text text-anchor="start" x="564.204" y="-433" font-family="Helvetica,sans-Serif" font-size="10.00">+ GetOccupiedSection()</text>
<text text-anchor="start" x="564.204" y="-422" font-family="Helvetica,sans-Serif" font-size="10.00">+ GetOrigin()</text>
<text text-anchor="start" x="564.204" y="-411" font-family="Helvetica,sans-Serif" font-size="10.00">+ GetRenderID()</text>
<text text-anchor="start" x="564.204" y="-400" font-family="Helvetica,sans-Serif" font-size="10.00">+ GetSelectionRadius()</text>
<text text-anchor="start" x="564.204" y="-389" font-family="Helvetica,sans-Serif" font-size="10.00">+ GetTexture()</text>
<text text-anchor="start" x="564.204" y="-378" font-family="Helvetica,sans-Serif" font-size="10.00">+ operator=()</text>
<text text-anchor="start" x="564.204" y="-367" font-family="Helvetica,sans-Serif" font-size="10.00">+ SetBumpMap()</text>
<text text-anchor="start" x="564.204" y="-356" font-family="Helvetica,sans-Serif" font-size="10.00">+ SetBumpMap()</text>
<text text-anchor="start" x="564.204" y="-345" font-family="Helvetica,sans-Serif" font-size="10.00">+ SetColor()</text>
<text text-anchor="start" x="564.204" y="-334" font-family="Helvetica,sans-Serif" font-size="10.00">+ SetForeground()</text>
<text text-anchor="start" x="564.204" y="-323" font-family="Helvetica,sans-Serif" font-size="10.00">+ SetInternalClipping()</text>
<text text-anchor="start" x="564.204" y="-312" font-family="Helvetica,sans-Serif" font-size="10.00">+ SetLighting()</text>
<text text-anchor="start" x="564.204" y="-301" font-family="Helvetica,sans-Serif" font-size="10.00">+ SetOccupiedSection()</text>
<text text-anchor="start" x="564.204" y="-290" font-family="Helvetica,sans-Serif" font-size="10.00">+ SetOrigin()</text>
<text text-anchor="start" x="564.204" y="-279" font-family="Helvetica,sans-Serif" font-size="10.00">+ SetTexture()</text>
<text text-anchor="start" x="564.204" y="-268" font-family="Helvetica,sans-Serif" font-size="10.00">+ SetTexture()</text>
<text text-anchor="start" x="564.204" y="-257" font-family="Helvetica,sans-Serif" font-size="10.00"># BindBufferData()</text>
<text text-anchor="start" x="564.204" y="-246" font-family="Helvetica,sans-Serif" font-size="10.00"># factor_vec4()</text>
<text text-anchor="start" x="564.204" y="-235" font-family="Helvetica,sans-Serif" font-size="10.00"># Prepare()</text>
<text text-anchor="start" x="564.204" y="-224" font-family="Helvetica,sans-Serif" font-size="10.00"># ebo()</text>
<text text-anchor="start" x="564.204" y="-213" font-family="Helvetica,sans-Serif" font-size="10.00"># vao()</text>
<text text-anchor="start" x="564.204" y="-202" font-family="Helvetica,sans-Serif" font-size="10.00"># vbo()</text>
</a>
</g>
</g>
<!-- Node2&#45;&gt;Node1 -->
<g id="edge1" class="edge"><title>Node2&#45;&gt;Node1</title>
<path fill="none" stroke="midnightblue" d="M684.839,-299.627C727.028,-248.245 780.6,-183 819.989,-135.028"/>
<polygon fill="none" stroke="midnightblue" points="682.076,-297.477 678.435,-307.426 687.486,-301.919 682.076,-297.477"/>
</g>
<!-- Node3 -->
<g id="node3" class="node"><title>Node3</title>
<polygon fill="white" stroke="#bfbfbf" points="5.70356,-766.5 5.70356,-823.5 52.7036,-823.5 52.7036,-766.5 5.70356,-766.5"/>
<text text-anchor="middle" x="29.2036" y="-811.5" font-family="Helvetica,sans-Serif" font-size="10.00">GLfloat</text>
<polyline fill="none" stroke="#bfbfbf" points="5.70356,-804.5 52.7036,-804.5 "/>
<text text-anchor="middle" x="29.2036" y="-792.5" font-family="Helvetica,sans-Serif" font-size="10.00"> </text>
<polyline fill="none" stroke="#bfbfbf" points="5.70356,-785.5 52.7036,-785.5 "/>
<text text-anchor="middle" x="29.2036" y="-773.5" font-family="Helvetica,sans-Serif" font-size="10.00"> </text>
</g>
<!-- Node3&#45;&gt;Node2 -->
<g id="edge2" class="edge"><title>Node3&#45;&gt;Node2</title>
<path fill="none" stroke="#404040" d="M22.5505,-766.498C15.7521,-731.43 9.78355,-670.496 38.2036,-630 156.907,-460.857 416.409,-407.36 543.754,-390.958"/>
<polygon fill="none" stroke="#404040" points="544.117,-390.913 549.581,-386.207 556.026,-389.44 550.563,-394.146 544.117,-390.913"/>
<text text-anchor="middle" x="76.2036" y="-688" font-family="Helvetica,sans-Serif" font-size="10.00"> #colors</text>
<text text-anchor="middle" x="76.2036" y="-677" font-family="Helvetica,sans-Serif" font-size="10.00">#normals</text>
<text text-anchor="middle" x="76.2036" y="-666" font-family="Helvetica,sans-Serif" font-size="10.00">#selection_radius</text>
<text text-anchor="middle" x="76.2036" y="-655" font-family="Helvetica,sans-Serif" font-size="10.00">#vertices</text>
<text text-anchor="middle" x="76.2036" y="-644" font-family="Helvetica,sans-Serif" font-size="10.00">#origin</text>
<text text-anchor="middle" x="76.2036" y="-633" font-family="Helvetica,sans-Serif" font-size="10.00">#texcoords</text>
</g>
<!-- Node4 -->
<g id="node4" class="node"><title>Node4</title>
<g id="a_node4"><a xlink:href="class_omni_o_g_l_1_1_material_lighting.html" target="_top" xlink:title="{OmniOGL::MaterialLighting\n||+ MaterialLighting()\l}">
<polygon fill="white" stroke="black" points="123.204,-634.5 123.204,-691.5 257.204,-691.5 257.204,-634.5 123.204,-634.5"/>
<text text-anchor="middle" x="190.204" y="-679.5" font-family="Helvetica,sans-Serif" font-size="10.00">OmniOGL::MaterialLighting</text>
<polyline fill="none" stroke="black" points="123.204,-672.5 257.204,-672.5 "/>
<text text-anchor="middle" x="190.204" y="-660.5" font-family="Helvetica,sans-Serif" font-size="10.00"> </text>
<polyline fill="none" stroke="black" points="123.204,-653.5 257.204,-653.5 "/>
<text text-anchor="start" x="131.204" y="-641.5" font-family="Helvetica,sans-Serif" font-size="10.00">+ MaterialLighting()</text>
</a>
</g>
</g>
<!-- Node3&#45;&gt;Node4 -->
<g id="edge4" class="edge"><title>Node3&#45;&gt;Node4</title>
<path fill="none" stroke="#404040" d="M52.7237,-768.434C68.4843,-751.982 90.1356,-730.645 111.204,-714 118.033,-708.604 125.468,-703.275 132.955,-698.221"/>
<polygon fill="none" stroke="#404040" points="133.118,-698.113 135.933,-691.475 143.144,-691.52 140.329,-698.159 133.118,-698.113"/>
<text text-anchor="middle" x="149.204" y="-739.5" font-family="Helvetica,sans-Serif" font-size="10.00"> +specular_factor</text>
<text text-anchor="middle" x="149.204" y="-728.5" font-family="Helvetica,sans-Serif" font-size="10.00">+shininess</text>
<text text-anchor="middle" x="149.204" y="-717.5" font-family="Helvetica,sans-Serif" font-size="10.00">+diffuse_factor</text>
</g>
<!-- Node3&#45;&gt;Node1 -->
<g id="edge18" class="edge"><title>Node3&#45;&gt;Node1</title>
<path fill="none" stroke="#404040" d="M18.7611,-766.226C5.09794,-724.962 -13.6945,-646.293 17.2036,-590 188.698,-277.558 633.848,-131.671 805.395,-85.7437"/>
<polygon fill="none" stroke="#404040" points="805.421,-85.7369 810.2,-80.3371 817.023,-82.672 812.243,-88.0718 805.421,-85.7369"/>
<text text-anchor="middle" x="34.2036" y="-598.5" font-family="Helvetica,sans-Serif" font-size="10.00"> &#45;center</text>
</g>
<!-- Node4&#45;&gt;Node2 -->
<g id="edge3" class="edge"><title>Node4&#45;&gt;Node2</title>
<path fill="none" stroke="#404040" d="M204.769,-634.353C213.378,-619.874 225.309,-602.588 239.204,-590 331.323,-506.541 463.297,-444.575 544.456,-411.402"/>
<polygon fill="none" stroke="#404040" points="544.924,-411.213 548.989,-405.257 556.05,-406.718 551.986,-412.674 544.924,-411.213"/>
<text text-anchor="middle" x="259.204" y="-598.5" font-family="Helvetica,sans-Serif" font-size="10.00"> #lighting</text>
</g>
<!-- Node5 -->
<g id="node5" class="node"><title>Node5</title>
<polygon fill="white" stroke="#bfbfbf" points="418.704,-766.5 418.704,-823.5 453.704,-823.5 453.704,-766.5 418.704,-766.5"/>
<text text-anchor="middle" x="436.204" y="-811.5" font-family="Helvetica,sans-Serif" font-size="10.00">bool</text>
<polyline fill="none" stroke="#bfbfbf" points="418.704,-804.5 453.704,-804.5 "/>
<text text-anchor="middle" x="436.204" y="-792.5" font-family="Helvetica,sans-Serif" font-size="10.00"> </text>
<polyline fill="none" stroke="#bfbfbf" points="418.704,-785.5 453.704,-785.5 "/>
<text text-anchor="middle" x="436.204" y="-773.5" font-family="Helvetica,sans-Serif" font-size="10.00"> </text>
</g>
<!-- Node5&#45;&gt;Node4 -->
<g id="edge5" class="edge"><title>Node5&#45;&gt;Node4</title>
<path fill="none" stroke="#404040" d="M418.691,-792.224C373.757,-787.354 255.833,-772.493 226.204,-748 212.658,-736.803 204.095,-719.57 198.738,-703.62"/>
<polygon fill="none" stroke="#404040" points="198.644,-703.301 193.105,-698.683 195.237,-691.794 200.776,-696.412 198.644,-703.301"/>
<text text-anchor="middle" x="252.704" y="-734" font-family="Helvetica,sans-Serif" font-size="10.00"> +enabled</text>
<text text-anchor="middle" x="252.704" y="-723" font-family="Helvetica,sans-Serif" font-size="10.00">+black_only</text>
</g>
<!-- Node7 -->
<g id="node7" class="node"><title>Node7</title>
<g id="a_node7"><a xlink:href="class_omni_o_g_l_1_1_blend_function.html" target="_top" xlink:title="{OmniOGL::BlendFunction\n||+ BlendFunction()\l}">
<polygon fill="white" stroke="black" points="702.204,-634.5 702.204,-691.5 830.204,-691.5 830.204,-634.5 702.204,-634.5"/>
<text text-anchor="middle" x="766.204" y="-679.5" font-family="Helvetica,sans-Serif" font-size="10.00">OmniOGL::BlendFunction</text>
<polyline fill="none" stroke="black" points="702.204,-672.5 830.204,-672.5 "/>
<text text-anchor="middle" x="766.204" y="-660.5" font-family="Helvetica,sans-Serif" font-size="10.00"> </text>
<polyline fill="none" stroke="black" points="702.204,-653.5 830.204,-653.5 "/>
<text text-anchor="start" x="710.204" y="-641.5" font-family="Helvetica,sans-Serif" font-size="10.00">+ BlendFunction()</text>
</a>
</g>
</g>
<!-- Node5&#45;&gt;Node7 -->
<g id="edge9" class="edge"><title>Node5&#45;&gt;Node7</title>
<path fill="none" stroke="#404040" d="M453.753,-790.438C477.223,-784.904 519.023,-772.258 546.204,-748 559.119,-736.474 550.921,-723.781 565.204,-714 612.603,-681.54 637.936,-711.678 693.204,-696 693.911,-695.799 694.62,-695.593 695.331,-695.382"/>
<polygon fill="none" stroke="#404040" points="695.538,-695.314 699.986,-689.638 706.936,-691.56 702.488,-697.236 695.538,-695.314"/>
<text text-anchor="middle" x="586.704" y="-728.5" font-family="Helvetica,sans-Serif" font-size="10.00"> +enabled</text>
</g>
<!-- Node8 -->
<g id="node8" class="node"><title>Node8</title>
<g id="a_node8"><a xlink:href="class_omni_o_g_l_1_1_stencil_function.html" target="_top" xlink:title="{OmniOGL::StencilFunction\n||+ StencilFunction()\l}">
<polygon fill="white" stroke="black" points="550.204,-634.5 550.204,-691.5 684.204,-691.5 684.204,-634.5 550.204,-634.5"/>
<text text-anchor="middle" x="617.204" y="-679.5" font-family="Helvetica,sans-Serif" font-size="10.00">OmniOGL::StencilFunction</text>
<polyline fill="none" stroke="black" points="550.204,-672.5 684.204,-672.5 "/>
<text text-anchor="middle" x="617.204" y="-660.5" font-family="Helvetica,sans-Serif" font-size="10.00"> </text>
<polyline fill="none" stroke="black" points="550.204,-653.5 684.204,-653.5 "/>
<text text-anchor="start" x="558.204" y="-641.5" font-family="Helvetica,sans-Serif" font-size="10.00">+ StencilFunction()</text>
</a>
</g>
</g>
<!-- Node5&#45;&gt;Node8 -->
<g id="edge12" class="edge"><title>Node5&#45;&gt;Node8</title>
<path fill="none" stroke="#404040" d="M454.065,-776.726C462.364,-768.356 472.153,-757.976 480.204,-748 491.661,-733.802 489.188,-725.679 503.204,-714 505.182,-712.351 521.5,-704.995 541.201,-696.412"/>
<polygon fill="none" stroke="#404040" points="541.416,-696.319 545.329,-690.262 552.425,-691.545 548.512,-697.602 541.416,-696.319"/>
<text text-anchor="middle" x="524.704" y="-728.5" font-family="Helvetica,sans-Serif" font-size="10.00"> +enabled</text>
</g>
<!-- Node5&#45;&gt;Node2 -->
<g id="edge13" class="edge"><title>Node5&#45;&gt;Node2</title>
<path fill="none" stroke="#404040" d="M418.538,-787.357C388.146,-774.841 326.858,-744.574 302.204,-696 288.927,-669.843 289.342,-656.363 302.204,-630 352.37,-527.17 468.596,-454.748 544.97,-416.224"/>
<polygon fill="none" stroke="#404040" points="545.186,-416.117 548.784,-409.868 555.937,-410.786 552.338,-417.035 545.186,-416.117"/>
<text text-anchor="middle" x="347.704" y="-671.5" font-family="Helvetica,sans-Serif" font-size="10.00"> #in_foreground</text>
<text text-anchor="middle" x="347.704" y="-660.5" font-family="Helvetica,sans-Serif" font-size="10.00">#en_collision</text>
<text text-anchor="middle" x="347.704" y="-649.5" font-family="Helvetica,sans-Serif" font-size="10.00">#en_internal_clipping</text>
</g>
<!-- Node9 -->
<g id="node9" class="node"><title>Node9</title>
<g id="a_node9"><a xlink:href="class_omni_o_g_l_1_1_depth_function.html" target="_top" xlink:title="{OmniOGL::DepthFunction\n||+ DepthFunction()\l}">
<polygon fill="white" stroke="black" points="402.704,-634.5 402.704,-691.5 531.704,-691.5 531.704,-634.5 402.704,-634.5"/>
<text text-anchor="middle" x="467.204" y="-679.5" font-family="Helvetica,sans-Serif" font-size="10.00">OmniOGL::DepthFunction</text>
<polyline fill="none" stroke="black" points="402.704,-672.5 531.704,-672.5 "/>
<text text-anchor="middle" x="467.204" y="-660.5" font-family="Helvetica,sans-Serif" font-size="10.00"> </text>
<polyline fill="none" stroke="black" points="402.704,-653.5 531.704,-653.5 "/>
<text text-anchor="start" x="410.704" y="-641.5" font-family="Helvetica,sans-Serif" font-size="10.00">+ DepthFunction()</text>
</a>
</g>
</g>
<!-- Node5&#45;&gt;Node9 -->
<g id="edge16" class="edge"><title>Node5&#45;&gt;Node9</title>
<path fill="none" stroke="#404040" d="M433.042,-766.459C432.105,-750.792 432.389,-730.97 437.204,-714 438.295,-710.153 439.764,-706.303 441.468,-702.542"/>
<polygon fill="none" stroke="#404040" points="441.609,-702.269 440.826,-695.101 447.142,-691.621 447.925,-698.789 441.609,-702.269"/>
<text text-anchor="middle" x="458.704" y="-728.5" font-family="Helvetica,sans-Serif" font-size="10.00"> +enabled</text>
</g>
<!-- Node6 -->
<g id="node6" class="node"><title>Node6</title>
<polygon fill="white" stroke="#bfbfbf" points="712.204,-766.5 712.204,-823.5 752.204,-823.5 752.204,-766.5 712.204,-766.5"/>
<text text-anchor="middle" x="732.204" y="-811.5" font-family="Helvetica,sans-Serif" font-size="10.00">GLint</text>
<polyline fill="none" stroke="#bfbfbf" points="712.204,-804.5 752.204,-804.5 "/>
<text text-anchor="middle" x="732.204" y="-792.5" font-family="Helvetica,sans-Serif" font-size="10.00"> </text>
<polyline fill="none" stroke="#bfbfbf" points="712.204,-785.5 752.204,-785.5 "/>
<text text-anchor="middle" x="732.204" y="-773.5" font-family="Helvetica,sans-Serif" font-size="10.00"> </text>
</g>
<!-- Node6&#45;&gt;Node2 -->
<g id="edge6" class="edge"><title>Node6&#45;&gt;Node2</title>
<path fill="none" stroke="#404040" d="M752.232,-782.883C766.5,-774.407 785.651,-761.86 800.204,-748 840.201,-709.907 859.027,-681.555 839.204,-630 808.966,-551.36 740.667,-482.185 687.752,-437.383"/>
<polygon fill="none" stroke="#404040" points="687.613,-437.268 680.444,-436.496 678.399,-429.58 685.569,-430.353 687.613,-437.268"/>
<text text-anchor="middle" x="875.704" y="-671.5" font-family="Helvetica,sans-Serif" font-size="10.00"> #texture_sel</text>
<text text-anchor="middle" x="875.704" y="-660.5" font-family="Helvetica,sans-Serif" font-size="10.00">#render_id</text>
<text text-anchor="middle" x="875.704" y="-649.5" font-family="Helvetica,sans-Serif" font-size="10.00">#bump_map</text>
</g>
<!-- Node6&#45;&gt;Node7 -->
<g id="edge8" class="edge"><title>Node6&#45;&gt;Node7</title>
<path fill="none" stroke="#404040" d="M739.414,-766.43C744.215,-748.075 750.596,-723.678 755.926,-703.298"/>
<polygon fill="none" stroke="#404040" points="755.967,-703.139 753.615,-696.323 759.003,-691.53 761.355,-698.347 755.967,-703.139"/>
<text text-anchor="middle" x="774.704" y="-728.5" font-family="Helvetica,sans-Serif" font-size="10.00"> +function</text>
</g>
<!-- Node6&#45;&gt;Node8 -->
<g id="edge11" class="edge"><title>Node6&#45;&gt;Node8</title>
<path fill="none" stroke="#404040" d="M711.937,-770.157C706.304,-763.175 700.33,-755.42 695.204,-748 685.239,-733.576 686.438,-727.459 675.204,-714 671.206,-709.211 666.726,-704.498 662.074,-699.993"/>
<polygon fill="none" stroke="#404040" points="661.819,-699.759 654.696,-698.632 652.997,-691.624 660.12,-692.751 661.819,-699.759"/>
<text text-anchor="middle" x="718.204" y="-739.5" font-family="Helvetica,sans-Serif" font-size="10.00"> +mask</text>
<text text-anchor="middle" x="718.204" y="-728.5" font-family="Helvetica,sans-Serif" font-size="10.00">+operation</text>
<text text-anchor="middle" x="718.204" y="-717.5" font-family="Helvetica,sans-Serif" font-size="10.00">+function</text>
</g>
<!-- Node6&#45;&gt;Node9 -->
<g id="edge15" class="edge"><title>Node6&#45;&gt;Node9</title>
<path fill="none" stroke="#404040" d="M711.855,-788.859C689.786,-782.421 654.589,-769.537 631.204,-748 618.47,-736.273 625.934,-724.541 612.204,-714 586.382,-694.176 572.02,-706.494 541.204,-696 540.955,-695.915 540.706,-695.83 540.457,-695.745"/>
<polygon fill="none" stroke="#404040" points="540.379,-695.716 533.373,-697.428 529.099,-691.62 536.104,-689.908 540.379,-695.716"/>
<text text-anchor="middle" x="651.204" y="-734" font-family="Helvetica,sans-Serif" font-size="10.00"> +mask</text>
<text text-anchor="middle" x="651.204" y="-723" font-family="Helvetica,sans-Serif" font-size="10.00">+function</text>
</g>
<!-- Node7&#45;&gt;Node2 -->
<g id="edge7" class="edge"><title>Node7&#45;&gt;Node2</title>
<path fill="none" stroke="#404040" d="M751.372,-634.328C735.496,-604.706 709.185,-555.617 684.05,-508.72"/>
<polygon fill="none" stroke="#404040" points="684.041,-508.703 677.681,-505.304 678.372,-498.126 684.732,-501.525 684.041,-508.703"/>
<text text-anchor="middle" x="760.704" y="-598.5" font-family="Helvetica,sans-Serif" font-size="10.00"> #blending</text>
</g>
<!-- Node8&#45;&gt;Node2 -->
<g id="edge10" class="edge"><title>Node8&#45;&gt;Node2</title>
<path fill="none" stroke="#404040" d="M617.204,-634.328C617.204,-620.73 617.204,-603.03 617.204,-583.322"/>
<polygon fill="none" stroke="#404040" points="617.204,-583.159 613.204,-577.159 617.204,-571.159 621.204,-577.159 617.204,-583.159"/>
<text text-anchor="middle" x="635.704" y="-598.5" font-family="Helvetica,sans-Serif" font-size="10.00"> #stencil</text>
</g>
<!-- Node9&#45;&gt;Node2 -->
<g id="edge14" class="edge"><title>Node9&#45;&gt;Node2</title>
<path fill="none" stroke="#404040" d="M482.135,-634.328C498.221,-604.514 524.947,-554.982 550.399,-507.81"/>
<polygon fill="none" stroke="#404040" points="550.449,-507.719 549.778,-500.539 556.147,-497.158 556.818,-504.338 550.449,-507.719"/>
<text text-anchor="middle" x="520.704" y="-598.5" font-family="Helvetica,sans-Serif" font-size="10.00"> #depth</text>
</g>
<!-- Node10 -->
<g id="node10" class="node"><title>Node10</title>
<polygon fill="white" stroke="#bfbfbf" points="944.704,-634.5 944.704,-691.5 989.704,-691.5 989.704,-634.5 944.704,-634.5"/>
<text text-anchor="middle" x="967.204" y="-679.5" font-family="Helvetica,sans-Serif" font-size="10.00">GLuint</text>
<polyline fill="none" stroke="#bfbfbf" points="944.704,-672.5 989.704,-672.5 "/>
<text text-anchor="middle" x="967.204" y="-660.5" font-family="Helvetica,sans-Serif" font-size="10.00"> </text>
<polyline fill="none" stroke="#bfbfbf" points="944.704,-653.5 989.704,-653.5 "/>
<text text-anchor="middle" x="967.204" y="-641.5" font-family="Helvetica,sans-Serif" font-size="10.00"> </text>
</g>
<!-- Node10&#45;&gt;Node2 -->
<g id="edge17" class="edge"><title>Node10&#45;&gt;Node2</title>
<path fill="none" stroke="#404040" d="M944.298,-642.908C938.795,-638.537 932.869,-634.003 927.204,-630 914.814,-621.246 910.194,-621.293 898.204,-612 887.023,-603.334 885.852,-599.311 875.204,-590 813.663,-536.189 740.614,-478.398 687.982,-437.763"/>
<polygon fill="none" stroke="#404040" points="687.905,-437.704 680.711,-437.21 678.399,-430.38 685.593,-430.873 687.905,-437.704"/>
<text text-anchor="middle" x="926.204" y="-604" font-family="Helvetica,sans-Serif" font-size="10.00"> #lengths</text>
<text text-anchor="middle" x="926.204" y="-593" font-family="Helvetica,sans-Serif" font-size="10.00">#my_section</text>
</g>
<!-- Node10&#45;&gt;Node1 -->
<g id="edge23" class="edge"><title>Node10&#45;&gt;Node1</title>
<path fill="none" stroke="#404040" d="M962.843,-634.194C949.279,-547.706 907.488,-281.235 886.499,-147.401"/>
<polygon fill="none" stroke="#404040" points="886.455,-147.119 881.574,-141.811 884.596,-135.264 889.477,-140.572 886.455,-147.119"/>
<text text-anchor="middle" x="989.204" y="-386" font-family="Helvetica,sans-Serif" font-size="10.00"> &#45;element_count</text>
<text text-anchor="middle" x="989.204" y="-375" font-family="Helvetica,sans-Serif" font-size="10.00">&#45;element_indices</text>
</g>
<!-- Node11 -->
<g id="node11" class="node"><title>Node11</title>
<polygon fill="white" stroke="#bfbfbf" points="1060.7,-354.5 1060.7,-411.5 1181.7,-411.5 1181.7,-354.5 1060.7,-354.5"/>
<text text-anchor="middle" x="1121.2" y="-399.5" font-family="Helvetica,sans-Serif" font-size="10.00">std::vector&lt; glm::vec3 &gt;</text>
<polyline fill="none" stroke="#bfbfbf" points="1060.7,-392.5 1181.7,-392.5 "/>
<text text-anchor="middle" x="1121.2" y="-380.5" font-family="Helvetica,sans-Serif" font-size="10.00"> </text>
<polyline fill="none" stroke="#bfbfbf" points="1060.7,-373.5 1181.7,-373.5 "/>
<text text-anchor="middle" x="1121.2" y="-361.5" font-family="Helvetica,sans-Serif" font-size="10.00"> </text>
</g>
<!-- Node11&#45;&gt;Node1 -->
<g id="edge19" class="edge"><title>Node11&#45;&gt;Node1</title>
<path fill="none" stroke="#404040" d="M1115.33,-354.357C1105.98,-315.382 1084.71,-243.515 1046.2,-194 1018.17,-157.953 977.069,-127.556 942.073,-105.765"/>
<polygon fill="none" stroke="#404040" points="941.678,-105.525 934.473,-105.82 931.43,-99.2822 938.635,-98.9873 941.678,-105.525"/>
<text text-anchor="middle" x="1061.2" y="-168" font-family="Helvetica,sans-Serif" font-size="10.00"> &#45;normal_starts</text>
<text text-anchor="middle" x="1061.2" y="-157" font-family="Helvetica,sans-Serif" font-size="10.00">&#45;normal_lines</text>
</g>
<!-- Node12 -->
<g id="node12" class="node"><title>Node12</title>
<polygon fill="white" stroke="#bfbfbf" points="1065.2,-634.5 1065.2,-691.5 1101.2,-691.5 1101.2,-634.5 1065.2,-634.5"/>
<text text-anchor="middle" x="1083.2" y="-679.5" font-family="Helvetica,sans-Serif" font-size="10.00">vec3</text>
<polyline fill="none" stroke="#bfbfbf" points="1065.2,-672.5 1101.2,-672.5 "/>
<text text-anchor="middle" x="1083.2" y="-660.5" font-family="Helvetica,sans-Serif" font-size="10.00"> </text>
<polyline fill="none" stroke="#bfbfbf" points="1065.2,-653.5 1101.2,-653.5 "/>
<text text-anchor="middle" x="1083.2" y="-641.5" font-family="Helvetica,sans-Serif" font-size="10.00"> </text>
</g>
<!-- Node12&#45;&gt;Node11 -->
<g id="edge20" class="edge"><title>Node12&#45;&gt;Node11</title>
<path fill="none" stroke="#404040" d="M1084.55,-634.253C1085.35,-620.856 1086.53,-604.565 1088.2,-590 1094.87,-531.79 1106.29,-464.891 1113.79,-423.527"/>
<polygon fill="none" stroke="#404040" points="1113.82,-423.351 1110.97,-416.729 1115.99,-411.547 1118.84,-418.169 1113.82,-423.351"/>
<text text-anchor="middle" x="1112.7" y="-598.5" font-family="Helvetica,sans-Serif" font-size="10.00"> +elements</text>
</g>
<!-- Node13 -->
<g id="node13" class="node"><title>Node13</title>
<g id="a_node13"><a xlink:title="STL class.">
<polygon fill="white" stroke="#bfbfbf" points="1119.7,-634.5 1119.7,-691.5 1204.7,-691.5 1204.7,-634.5 1119.7,-634.5"/>
<text text-anchor="middle" x="1162.2" y="-679.5" font-family="Helvetica,sans-Serif" font-size="10.00">std::vector&lt; T &gt;</text>
<polyline fill="none" stroke="#bfbfbf" points="1119.7,-672.5 1204.7,-672.5 "/>
<text text-anchor="middle" x="1162.2" y="-660.5" font-family="Helvetica,sans-Serif" font-size="10.00"> </text>
<polyline fill="none" stroke="#bfbfbf" points="1119.7,-653.5 1204.7,-653.5 "/>
<text text-anchor="middle" x="1162.2" y="-641.5" font-family="Helvetica,sans-Serif" font-size="10.00"> </text>
</a>
</g>
</g>
<!-- Node13&#45;&gt;Node11 -->
<g id="edge21" class="edge"><title>Node13&#45;&gt;Node11</title>
<path fill="none" stroke="orange" d="M1156.65,-624.338C1148.29,-567.631 1132.65,-461.642 1125.27,-411.56"/>
<polygon fill="orange" stroke="orange" points="1153.2,-624.946 1158.12,-634.328 1160.13,-623.924 1153.2,-624.946"/>
<text text-anchor="middle" x="1186.7" y="-598.5" font-family="Helvetica,sans-Serif" font-size="10.00"> &lt; glm::vec3 &gt;</text>
</g>
<!-- Node14 -->
<g id="node14" class="node"><title>Node14</title>
<polygon fill="white" stroke="#bfbfbf" points="1147.7,-766.5 1147.7,-823.5 1176.7,-823.5 1176.7,-766.5 1147.7,-766.5"/>
<text text-anchor="middle" x="1162.2" y="-811.5" font-family="Helvetica,sans-Serif" font-size="10.00">T</text>
<polyline fill="none" stroke="#bfbfbf" points="1147.7,-804.5 1176.7,-804.5 "/>
<text text-anchor="middle" x="1162.2" y="-792.5" font-family="Helvetica,sans-Serif" font-size="10.00"> </text>
<polyline fill="none" stroke="#bfbfbf" points="1147.7,-785.5 1176.7,-785.5 "/>
<text text-anchor="middle" x="1162.2" y="-773.5" font-family="Helvetica,sans-Serif" font-size="10.00"> </text>
</g>
<!-- Node14&#45;&gt;Node13 -->
<g id="edge22" class="edge"><title>Node14&#45;&gt;Node13</title>
<path fill="none" stroke="#404040" d="M1162.2,-766.43C1162.2,-748.161 1162.2,-723.906 1162.2,-703.586"/>
<polygon fill="none" stroke="#404040" points="1162.2,-703.53 1158.2,-697.53 1162.2,-691.53 1166.2,-697.53 1162.2,-703.53"/>
<text text-anchor="middle" x="1186.7" y="-728.5" font-family="Helvetica,sans-Serif" font-size="10.00"> +elements</text>
</g>
</g>
</svg>
        <g id="navigator" transform="translate(0 0)" fill="#404254">
                <rect fill="#f2f5e9" fill-opacity="0.5" stroke="#606060" stroke-width=".5" x="0" y="0" width="60" height="60"/>
                <use id="zoomplus" xlink:href="#zoomPlus" x="17" y="9" onmousedown="handleZoom(evt,'in')"/>
                <use id="zoomminus" xlink:href="#zoomMin" x="42" y="9" onmousedown="handleZoom(evt,'out')"/>
                <use id="reset" xlink:href="#resetDef" x="30" y="36" onmousedown="handleReset()"/>
                <g id="arrowUp" xlink:href="#dirArrow" transform="translate(30 24)" onmousedown="handlePan(0,-1)">
                  <use xlink:href="#rim" fill="#404040">
                        <set attributeName="fill" to="#808080" begin="arrowUp.mouseover" end="arrowUp.mouseout"/>
                  </use>
                  <path fill="none" stroke="white" stroke-width="1.5" d="M0,-3.0v7 M-2.5,-0.5L0,-3.0L2.5,-0.5"/>
                </g>
                <g id="arrowRight" xlink:href="#dirArrow" transform="rotate(90) translate(36 -43)" onmousedown="handlePan(1,0)">
                  <use xlink:href="#rim" fill="#404040">
                        <set attributeName="fill" to="#808080" begin="arrowRight.mouseover" end="arrowRight.mouseout"/>
                  </use>
                  <path fill="none" stroke="white" stroke-width="1.5" d="M0,-3.0v7 M-2.5,-0.5L0,-3.0L2.5,-0.5"/>
                </g>
                <g id="arrowDown" xlink:href="#dirArrow" transform="rotate(180) translate(-30 -48)" onmousedown="handlePan(0,1)">
                  <use xlink:href="#rim" fill="#404040">
                        <set attributeName="fill" to="#808080" begin="arrowDown.mouseover" end="arrowDown.mouseout"/>
                  </use>
                  <path fill="none" stroke="white" stroke-width="1.5" d="M0,-3.0v7 M-2.5,-0.5L0,-3.0L2.5,-0.5"/>
                </g>
                <g id="arrowLeft" xlink:href="#dirArrow" transform="rotate(270) translate(-36 17)" onmousedown="handlePan(-1,0)">
                  <use xlink:href="#rim" fill="#404040">
                        <set attributeName="fill" to="#808080" begin="arrowLeft.mouseover" end="arrowLeft.mouseout"/>
                  </use>
                  <path fill="none" stroke="white" stroke-width="1.5" d="M0,-3.0v7 M-2.5,-0.5L0,-3.0L2.5,-0.5"/>
                </g>
        </g>
        <svg viewBox="0 0 15 15" width="100%" height="30px" preserveAspectRatio="xMaxYMin meet">
         <g id="arrow_out" transform="scale(0.3 0.3)">
          <a xlink:href="class_omni_o_g_l_1_1_block_array__coll__graph_org.svg" target="_base">
           <rect id="button" ry="5" rx="5" y="6" x="6" height="38" width="38"
                fill="#f2f5e9" fill-opacity="0.5" stroke="#606060" stroke-width="1.0"/>
           <path id="arrow"
             d="M 11.500037,31.436501 C 11.940474,20.09759 22.043105,11.32322 32.158766,21.979434 L 37.068811,17.246167 C 37.068811,17.246167 37.088388,32 37.088388,32 L 22.160133,31.978069 C 22.160133,31.978069 26.997745,27.140456 26.997745,27.140456 C 18.528582,18.264221 13.291696,25.230495 11.500037,31.436501 z"
             style="fill:#404040;"/>
          </a>
         </g>
        </svg>
</svg>
