<?xml version="1.0" encoding="UTF-8" standalone="no"?>
<!DOCTYPE svg PUBLIC "-//W3C//DTD SVG 1.1//EN"
 "http://www.w3.org/Graphics/SVG/1.1/DTD/svg11.dtd">
<!-- Generated by graphviz version 2.30.1 (20130214.1330)
 -->
<!-- Title: OmniOGL::Voxel Pages: 1 -->
<svg width="513pt" height="238pt"
 viewBox="0.00 0.00 513.00 238.00" xmlns="http://www.w3.org/2000/svg" xmlns:xlink="http://www.w3.org/1999/xlink">
<g id="graph0" class="graph" transform="scale(1 1) rotate(0) translate(4 234)">
<title>OmniOGL::Voxel</title>
<polygon fill="white" stroke="white" points="-4,5 -4,-234 510,-234 510,5 -4,5"/>
<!-- Node1 -->
<g id="node1" class="node"><title>Node1</title>
<polygon fill="#bfbfbf" stroke="black" points="129,-0.5 129,-101.5 293,-101.5 293,-0.5 129,-0.5"/>
<text text-anchor="middle" x="211" y="-89.5" font-family="Helvetica,sans-Serif" font-size="10.00">OmniOGL::Voxel</text>
<polyline fill="none" stroke="black" points="129,-82.5 293,-82.5 "/>
<text text-anchor="middle" x="211" y="-70.5" font-family="Helvetica,sans-Serif" font-size="10.00"> </text>
<polyline fill="none" stroke="black" points="129,-63.5 293,-63.5 "/>
<text text-anchor="start" x="137" y="-51.5" font-family="Helvetica,sans-Serif" font-size="10.00">+ Voxel()</text>
<text text-anchor="start" x="137" y="-40.5" font-family="Helvetica,sans-Serif" font-size="10.00">+ ~Voxel()</text>
<text text-anchor="start" x="137" y="-29.5" font-family="Helvetica,sans-Serif" font-size="10.00">+ AddCubeMesh()</text>
<text text-anchor="start" x="137" y="-18.5" font-family="Helvetica,sans-Serif" font-size="10.00">+ operator=()</text>
<text text-anchor="start" x="137" y="-7.5" font-family="Helvetica,sans-Serif" font-size="10.00">+ SetMarchingCubesParameters()</text>
</g>
<!-- Node2 -->
<g id="node2" class="node"><title>Node2</title>
<polygon fill="white" stroke="#bfbfbf" points="-0.5,-172.5 -0.5,-229.5 50.5,-229.5 50.5,-172.5 -0.5,-172.5"/>
<text text-anchor="middle" x="25" y="-217.5" font-family="Helvetica,sans-Serif" font-size="10.00">GLshort</text>
<polyline fill="none" stroke="#bfbfbf" points="-0.5,-210.5 50.5,-210.5 "/>
<text text-anchor="middle" x="25" y="-198.5" font-family="Helvetica,sans-Serif" font-size="10.00"> </text>
<polyline fill="none" stroke="#bfbfbf" points="-0.5,-191.5 50.5,-191.5 "/>
<text text-anchor="middle" x="25" y="-179.5" font-family="Helvetica,sans-Serif" font-size="10.00"> </text>
</g>
<!-- Node2&#45;&gt;Node1 -->
<g id="edge1" class="edge"><title>Node2&#45;&gt;Node1</title>
<path fill="none" stroke="#404040" d="M26.9719,-172.282C29.506,-155.384 35.2146,-134.351 48,-120 66.3892,-99.3587 92.0428,-84.8222 117.563,-74.6507"/>
<polygon fill="none" stroke="#404040" points="117.624,-74.6281 121.838,-68.7766 128.86,-70.4162 124.646,-76.2676 117.624,-74.6281"/>
<text text-anchor="middle" x="73.5" y="-134.5" font-family="Helvetica,sans-Serif" font-size="10.00"> #mc_index</text>
</g>
<!-- Node3 -->
<g id="node3" class="node"><title>Node3</title>
<polygon fill="white" stroke="#bfbfbf" points="71.5,-172.5 71.5,-229.5 118.5,-229.5 118.5,-172.5 71.5,-172.5"/>
<text text-anchor="middle" x="95" y="-217.5" font-family="Helvetica,sans-Serif" font-size="10.00">GLfloat</text>
<polyline fill="none" stroke="#bfbfbf" points="71.5,-210.5 118.5,-210.5 "/>
<text text-anchor="middle" x="95" y="-198.5" font-family="Helvetica,sans-Serif" font-size="10.00"> </text>
<polyline fill="none" stroke="#bfbfbf" points="71.5,-191.5 118.5,-191.5 "/>
<text text-anchor="middle" x="95" y="-179.5" font-family="Helvetica,sans-Serif" font-size="10.00"> </text>
</g>
<!-- Node3&#45;&gt;Node1 -->
<g id="edge2" class="edge"><title>Node3&#45;&gt;Node1</title>
<path fill="none" stroke="#404040" d="M97.9208,-172.496C100.736,-156.09 106.245,-135.505 117,-120 119.239,-116.773 121.682,-113.643 124.285,-110.613"/>
<polygon fill="none" stroke="#404040" points="124.316,-110.58 125.508,-103.468 132.531,-101.833 131.339,-108.945 124.316,-110.58"/>
<text text-anchor="middle" x="136" y="-145.5" font-family="Helvetica,sans-Serif" font-size="10.00"> #radius</text>
<text text-anchor="middle" x="136" y="-134.5" font-family="Helvetica,sans-Serif" font-size="10.00">#corners</text>
<text text-anchor="middle" x="136" y="-123.5" font-family="Helvetica,sans-Serif" font-size="10.00">#origin</text>
</g>
<!-- Node4 -->
<g id="node4" class="node"><title>Node4</title>
<polygon fill="white" stroke="#bfbfbf" points="137,-172.5 137,-229.5 193,-229.5 193,-172.5 137,-172.5"/>
<text text-anchor="middle" x="165" y="-217.5" font-family="Helvetica,sans-Serif" font-size="10.00">GLushort</text>
<polyline fill="none" stroke="#bfbfbf" points="137,-210.5 193,-210.5 "/>
<text text-anchor="middle" x="165" y="-198.5" font-family="Helvetica,sans-Serif" font-size="10.00"> </text>
<polyline fill="none" stroke="#bfbfbf" points="137,-191.5 193,-191.5 "/>
<text text-anchor="middle" x="165" y="-179.5" font-family="Helvetica,sans-Serif" font-size="10.00"> </text>
</g>
<!-- Node4&#45;&gt;Node1 -->
<g id="edge3" class="edge"><title>Node4&#45;&gt;Node1</title>
<path fill="none" stroke="#404040" d="M159.922,-172.342C158.113,-156.638 157.662,-136.818 163,-120 163.768,-117.579 164.658,-115.17 165.647,-112.782"/>
<polygon fill="none" stroke="#404040" points="165.728,-112.614 164.729,-105.473 170.937,-101.804 171.936,-108.945 165.728,-112.614"/>
<text text-anchor="middle" x="200.5" y="-140" font-family="Helvetica,sans-Serif" font-size="10.00"> #CornersOfEdge</text>
<text text-anchor="middle" x="200.5" y="-129" font-family="Helvetica,sans-Serif" font-size="10.00">#EdgesByAxis</text>
</g>
<!-- Node5 -->
<g id="node5" class="node"><title>Node5</title>
<polygon fill="white" stroke="#bfbfbf" points="236,-172.5 236,-229.5 284,-229.5 284,-172.5 236,-172.5"/>
<text text-anchor="middle" x="260" y="-217.5" font-family="Helvetica,sans-Serif" font-size="10.00">GLchar</text>
<polyline fill="none" stroke="#bfbfbf" points="236,-210.5 284,-210.5 "/>
<text text-anchor="middle" x="260" y="-198.5" font-family="Helvetica,sans-Serif" font-size="10.00"> </text>
<polyline fill="none" stroke="#bfbfbf" points="236,-191.5 284,-191.5 "/>
<text text-anchor="middle" x="260" y="-179.5" font-family="Helvetica,sans-Serif" font-size="10.00"> </text>
</g>
<!-- Node5&#45;&gt;Node1 -->
<g id="edge4" class="edge"><title>Node5&#45;&gt;Node1</title>
<path fill="none" stroke="#404040" d="M253.201,-172.377C249.183,-156.859 243.764,-137.21 238,-120 237.212,-117.648 236.387,-115.258 235.536,-112.851"/>
<polygon fill="none" stroke="#404040" points="235.518,-112.802 229.7,-108.542 231.394,-101.533 237.213,-105.793 235.518,-112.802"/>
<text text-anchor="middle" x="281" y="-134.5" font-family="Helvetica,sans-Serif" font-size="10.00"> #num_vertices</text>
</g>
<!-- Node6 -->
<g id="node6" class="node"><title>Node6</title>
<polygon fill="white" stroke="#bfbfbf" points="309,-172.5 309,-229.5 389,-229.5 389,-172.5 309,-172.5"/>
<text text-anchor="middle" x="349" y="-217.5" font-family="Helvetica,sans-Serif" font-size="10.00">static GLuchar</text>
<polyline fill="none" stroke="#bfbfbf" points="309,-210.5 389,-210.5 "/>
<text text-anchor="middle" x="349" y="-198.5" font-family="Helvetica,sans-Serif" font-size="10.00"> </text>
<polyline fill="none" stroke="#bfbfbf" points="309,-191.5 389,-191.5 "/>
<text text-anchor="middle" x="349" y="-179.5" font-family="Helvetica,sans-Serif" font-size="10.00"> </text>
</g>
<!-- Node6&#45;&gt;Node1 -->
<g id="edge5" class="edge"><title>Node6&#45;&gt;Node1</title>
<path fill="none" stroke="#404040" d="M342.898,-172.195C338.205,-155.679 330.378,-135.084 318,-120 313.438,-114.441 308.298,-109.193 302.801,-104.268"/>
<polygon fill="none" stroke="#404040" points="302.46,-103.982 295.291,-103.203 293.253,-96.2855 300.422,-97.0652 302.46,-103.982"/>
<text text-anchor="middle" x="373.5" y="-134.5" font-family="Helvetica,sans-Serif" font-size="10.00"> #InvertedIndices</text>
</g>
<!-- Node7 -->
<g id="node7" class="node"><title>Node7</title>
<polygon fill="white" stroke="#bfbfbf" points="407.5,-172.5 407.5,-229.5 482.5,-229.5 482.5,-172.5 407.5,-172.5"/>
<text text-anchor="middle" x="445" y="-217.5" font-family="Helvetica,sans-Serif" font-size="10.00">static GLchar</text>
<polyline fill="none" stroke="#bfbfbf" points="407.5,-210.5 482.5,-210.5 "/>
<text text-anchor="middle" x="445" y="-198.5" font-family="Helvetica,sans-Serif" font-size="10.00"> </text>
<polyline fill="none" stroke="#bfbfbf" points="407.5,-191.5 482.5,-191.5 "/>
<text text-anchor="middle" x="445" y="-179.5" font-family="Helvetica,sans-Serif" font-size="10.00"> </text>
</g>
<!-- Node7&#45;&gt;Node1 -->
<g id="edge6" class="edge"><title>Node7&#45;&gt;Node1</title>
<path fill="none" stroke="#404040" d="M440.426,-172.201C436.254,-155.055 428.438,-133.782 414,-120 384.525,-91.8632 343.064,-75.3545 305.29,-65.6747"/>
<polygon fill="none" stroke="#404040" points="304.843,-65.5675 298.075,-68.0561 293.175,-62.7657 299.943,-60.2772 304.843,-65.5675"/>
<text text-anchor="middle" x="470" y="-140" font-family="Helvetica,sans-Serif" font-size="10.00"> #EdgesOfIndex</text>
<text text-anchor="middle" x="470" y="-129" font-family="Helvetica,sans-Serif" font-size="10.00">#VerticeCount</text>
</g>
</g>
</svg>
