<?xml version="1.0" encoding="UTF-8" standalone="no"?>
<!DOCTYPE svg PUBLIC "-//W3C//DTD SVG 1.1//EN"
 "http://www.w3.org/Graphics/SVG/1.1/DTD/svg11.dtd">
<!-- Generated by graphviz version 2.30.1 (20130214.1330)
 -->
<!-- Title: OmniOGL::TextOverlay::Draw Pages: 1 -->
<svg width="492pt" height="203pt"
 viewBox="0.00 0.00 492.00 203.00" xmlns="http://www.w3.org/2000/svg" xmlns:xlink="http://www.w3.org/1999/xlink">
<g id="graph0" class="graph" transform="scale(1 1) rotate(0) translate(4 199)">
<title>OmniOGL::TextOverlay::Draw</title>
<polygon fill="white" stroke="white" points="-4,5 -4,-199 489,-199 489,5 -4,5"/>
<!-- Node1 -->
<g id="node1" class="node"><title>Node1</title>
<polygon fill="#bfbfbf" stroke="black" points="0.5,-88 0.5,-118 117.5,-118 117.5,-88 0.5,-88"/>
<text text-anchor="start" x="8.5" y="-106" font-family="Helvetica,sans-Serif" font-size="10.00">OmniOGL::TextOverlay</text>
<text text-anchor="middle" x="59" y="-95" font-family="Helvetica,sans-Serif" font-size="10.00">::Draw</text>
</g>
<!-- Node2 -->
<g id="node2" class="node"><title>Node2</title>
<g id="a_node2"><a xlink:href="class_omni_o_g_l_1_1_ren_obj.html#af0c2ce990c74a67459352d89a02c757e" target="_top" xlink:title="This method lies at the heart of the rendering process, as it binds the object&#39;s relevant data to the...">
<polygon fill="white" stroke="black" points="154.5,-175.5 154.5,-194.5 323.5,-194.5 323.5,-175.5 154.5,-175.5"/>
<text text-anchor="middle" x="239" y="-182.5" font-family="Helvetica,sans-Serif" font-size="10.00">OmniOGL::RenObj::BindBufferData</text>
</a>
</g>
</g>
<!-- Node1&#45;&gt;Node2 -->
<g id="edge1" class="edge"><title>Node1&#45;&gt;Node2</title>
<path fill="none" stroke="midnightblue" d="M78.2445,-118.233C96.3645,-132.606 125.489,-153.728 154,-166 159.858,-168.521 166.096,-170.73 172.425,-172.66"/>
<polygon fill="midnightblue" stroke="midnightblue" points="171.829,-176.129 182.404,-175.469 173.726,-169.39 171.829,-176.129"/>
</g>
<!-- Node3 -->
<g id="node3" class="node"><title>Node3</title>
<g id="a_node3"><a xlink:href="class_omni_o_g_l_1_1_ren_obj.html#a0a4218e288329f8e7b17081670948c9d" target="_top" xlink:title="This method attempts to handle all of the necessary OpenGL state changes in one place. The desired value of various states are stored as a local variable owned by the object. This method is called for each object each frame and simply sets each state to the position specified by the object.">
<polygon fill="white" stroke="black" points="170,-137.5 170,-156.5 308,-156.5 308,-137.5 170,-137.5"/>
<text text-anchor="middle" x="239" y="-144.5" font-family="Helvetica,sans-Serif" font-size="10.00">OmniOGL::RenObj::Prepare</text>
</a>
</g>
</g>
<!-- Node1&#45;&gt;Node3 -->
<g id="edge2" class="edge"><title>Node1&#45;&gt;Node3</title>
<path fill="none" stroke="midnightblue" d="M117.629,-117.871C129.639,-120.926 142.226,-124.095 154,-127 164.809,-129.666 176.416,-132.469 187.448,-135.104"/>
<polygon fill="midnightblue" stroke="midnightblue" points="186.84,-138.557 197.379,-137.469 188.462,-131.748 186.84,-138.557"/>
</g>
<!-- Node4 -->
<g id="node4" class="node"><title>Node4</title>
<g id="a_node4"><a xlink:href="class_omni_o_g_l_1_1_o_g_l_matrices.html#acf36e7ad27e383dfdd30095dd1b97b0a" target="_top" xlink:title="This method is intended to offer a simple way to set the translation matrix via a set of x...">
<polygon fill="white" stroke="black" points="177,-88 177,-118 301,-118 301,-88 177,-88"/>
<text text-anchor="start" x="185" y="-106" font-family="Helvetica,sans-Serif" font-size="10.00">OmniOGL::OGLMatrices</text>
<text text-anchor="middle" x="239" y="-95" font-family="Helvetica,sans-Serif" font-size="10.00">::sTranslate</text>
</a>
</g>
</g>
<!-- Node1&#45;&gt;Node4 -->
<g id="edge3" class="edge"><title>Node1&#45;&gt;Node4</title>
<path fill="none" stroke="midnightblue" d="M117.791,-103C133.428,-103 150.535,-103 166.814,-103"/>
<polygon fill="midnightblue" stroke="midnightblue" points="166.822,-106.5 176.822,-103 166.822,-99.5001 166.822,-106.5"/>
</g>
<!-- Node5 -->
<g id="node5" class="node"><title>Node5</title>
<g id="a_node5"><a xlink:href="class_omni_o_g_l_1_1_o_g_l_matrices.html#aacb4830605589d383ded70ceec9b40bf" target="_top" xlink:title="This method sends a combined translation*rotation*scale 4x4 matrix to the shader program, effectively configuring the size, orientation, and position of each vertex which is a candidate for rendering. The combined &quot;srt&quot; matrix is an attribute in the shader program, so it is sent via a vertex buffer object. Note that this method is capable of taking an array of matrices if a count is specified (second parameter), in order to accomodate instanced rendering. If no second parameter is passed, it is assumed that the first parameter only points to a single matrix. Scene::info.vbo">
<polygon fill="white" stroke="black" points="360,-44 360,-74 484,-74 484,-44 360,-44"/>
<text text-anchor="start" x="368" y="-62" font-family="Helvetica,sans-Serif" font-size="10.00">OmniOGL::OGLMatrices</text>
<text text-anchor="middle" x="422" y="-51" font-family="Helvetica,sans-Serif" font-size="10.00">::UpdateSRT</text>
</a>
</g>
</g>
<!-- Node1&#45;&gt;Node5 -->
<g id="edge5" class="edge"><title>Node1&#45;&gt;Node5</title>
<path fill="none" stroke="midnightblue" d="M112.356,-87.9041C125.828,-84.4975 140.37,-81.2327 154,-79 219.828,-68.2164 295.752,-63.238 349.77,-60.9449"/>
<polygon fill="midnightblue" stroke="midnightblue" points="350.082,-64.4353 359.932,-60.5342 349.799,-57.441 350.082,-64.4353"/>
</g>
<!-- Node6 -->
<g id="node6" class="node"><title>Node6</title>
<g id="a_node6"><a xlink:href="class_omni_o_g_l_1_1_text_overlay.html#af5e3a4161598f443b61cf51f4d3209a3" target="_top" xlink:title="This method is called for each &quot;special character&quot; that needs to be adjusted vertically each frame ...">
<polygon fill="white" stroke="black" points="169,-0 169,-30 309,-30 309,-0 169,-0"/>
<text text-anchor="start" x="177" y="-18" font-family="Helvetica,sans-Serif" font-size="10.00">OmniOGL::TextOverlay</text>
<text text-anchor="middle" x="239" y="-7" font-family="Helvetica,sans-Serif" font-size="10.00">::PushVerticalCompensation</text>
</a>
</g>
</g>
<!-- Node1&#45;&gt;Node6 -->
<g id="edge6" class="edge"><title>Node1&#45;&gt;Node6</title>
<path fill="none" stroke="midnightblue" d="M81.6671,-87.8105C100.257,-75.2293 128.074,-57.4578 154,-45 162.495,-40.9183 171.698,-37.0818 180.792,-33.6046"/>
<polygon fill="midnightblue" stroke="midnightblue" points="182.038,-36.8755 190.196,-30.1158 179.603,-30.3126 182.038,-36.8755"/>
</g>
<!-- Node4&#45;&gt;Node5 -->
<g id="edge4" class="edge"><title>Node4&#45;&gt;Node5</title>
<path fill="none" stroke="midnightblue" d="M301.026,-88.1649C316.749,-84.3427 333.805,-80.1966 349.988,-76.2627"/>
<polygon fill="midnightblue" stroke="midnightblue" points="351.041,-79.6086 359.931,-73.8455 349.387,-72.8067 351.041,-79.6086"/>
</g>
<!-- Node6&#45;&gt;Node5 -->
<g id="edge7" class="edge"><title>Node6&#45;&gt;Node5</title>
<path fill="none" stroke="midnightblue" d="M301.784,-30.0192C317.304,-33.7921 334.081,-37.8705 350.011,-41.743"/>
<polygon fill="midnightblue" stroke="midnightblue" points="349.258,-45.1618 359.802,-44.123 350.911,-38.3598 349.258,-45.1618"/>
</g>
</g>
</svg>
