<?xml version="1.0" encoding="UTF-8" standalone="no"?>
<!DOCTYPE svg PUBLIC "-//W3C//DTD SVG 1.1//EN"
 "http://www.w3.org/Graphics/SVG/1.1/DTD/svg11.dtd">
<!-- Generated by graphviz version 2.30.1 (20130214.1330)
 -->
<!-- Title: OmniOGL::Cube::Cube Pages: 1 -->
<svg width="442pt" height="66pt"
 viewBox="0.00 0.00 442.00 66.00" xmlns="http://www.w3.org/2000/svg" xmlns:xlink="http://www.w3.org/1999/xlink">
<g id="graph0" class="graph" transform="scale(1 1) rotate(0) translate(4 62)">
<title>OmniOGL::Cube::Cube</title>
<polygon fill="white" stroke="white" points="-4,5 -4,-62 439,-62 439,5 -4,5"/>
<!-- Node1 -->
<g id="node1" class="node"><title>Node1</title>
<polygon fill="#bfbfbf" stroke="black" points="0.5,-19.5 0.5,-38.5 117.5,-38.5 117.5,-19.5 0.5,-19.5"/>
<text text-anchor="middle" x="59" y="-26.5" font-family="Helvetica,sans-Serif" font-size="10.00">OmniOGL::Cube::Cube</text>
</g>
<!-- Node2 -->
<g id="node2" class="node"><title>Node2</title>
<g id="a_node2"><a xlink:href="namespace_omni_o_g_l.html#a80cd48382ee4083e78ba3431e570b82c" target="_top" xlink:title="A wrapper around the new[] keyword. Allocates the desired number of elements to the given pointer...">
<polygon fill="white" stroke="black" points="186,-38.5 186,-57.5 276,-57.5 276,-38.5 186,-38.5"/>
<text text-anchor="middle" x="231" y="-45.5" font-family="Helvetica,sans-Serif" font-size="10.00">OmniOGL::_New</text>
</a>
</g>
</g>
<!-- Node1&#45;&gt;Node2 -->
<g id="edge1" class="edge"><title>Node1&#45;&gt;Node2</title>
<path fill="none" stroke="midnightblue" d="M117.554,-35.4325C136.41,-37.5399 157.284,-39.8729 175.877,-41.9509"/>
<polygon fill="midnightblue" stroke="midnightblue" points="175.617,-45.4437 185.944,-43.0761 176.395,-38.487 175.617,-45.4437"/>
</g>
<!-- Node4 -->
<g id="node4" class="node"><title>Node4</title>
<g id="a_node4"><a xlink:href="class_omni_o_g_l_1_1_ren_obj.html#a5560107473f4be36a32c22ded0212559" target="_top" xlink:title="A simple method which returns four floats in an array, the first three of which will contain the same...">
<polygon fill="white" stroke="black" points="154.5,-0.5 154.5,-19.5 307.5,-19.5 307.5,-0.5 154.5,-0.5"/>
<text text-anchor="middle" x="231" y="-7.5" font-family="Helvetica,sans-Serif" font-size="10.00">OmniOGL::RenObj::factor_vec4</text>
</a>
</g>
</g>
<!-- Node1&#45;&gt;Node4 -->
<g id="edge3" class="edge"><title>Node1&#45;&gt;Node4</title>
<path fill="none" stroke="midnightblue" d="M117.554,-22.5675C126.163,-21.6054 135.192,-20.5962 144.232,-19.5858"/>
<polygon fill="midnightblue" stroke="midnightblue" points="144.873,-23.0361 154.422,-18.4469 144.095,-16.0794 144.873,-23.0361"/>
</g>
<!-- Node3 -->
<g id="node3" class="node"><title>Node3</title>
<g id="a_node3"><a xlink:href="namespace_omni_o_g_l.html#a8f559408c62db097a1a918d7f58f4183" target="_top" xlink:title="A &quot;clone&quot; of the well&#45;known printf() function, with the debug routed to the OutputDebugString() funct...">
<polygon fill="white" stroke="black" points="344,-38.5 344,-57.5 434,-57.5 434,-38.5 344,-38.5"/>
<text text-anchor="middle" x="389" y="-45.5" font-family="Helvetica,sans-Serif" font-size="10.00">OmniOGL::dprint</text>
</a>
</g>
</g>
<!-- Node2&#45;&gt;Node3 -->
<g id="edge2" class="edge"><title>Node2&#45;&gt;Node3</title>
<path fill="none" stroke="midnightblue" d="M276.286,-48C294.147,-48 314.929,-48 333.69,-48"/>
<polygon fill="midnightblue" stroke="midnightblue" points="333.873,-51.5001 343.873,-48 333.873,-44.5001 333.873,-51.5001"/>
</g>
</g>
</svg>
