<?xml version="1.0" encoding="UTF-8" standalone="no"?>
<!DOCTYPE svg PUBLIC "-//W3C//DTD SVG 1.1//EN"
 "http://www.w3.org/Graphics/SVG/1.1/DTD/svg11.dtd">
<!-- Generated by graphviz version 2.30.1 (20130214.1330)
 -->
<!-- Title: OmniOGL::Scene::UpdateSRT Pages: 1 -->
<svg width="494pt" height="262pt"
 viewBox="0.00 0.00 494.00 262.00" xmlns="http://www.w3.org/2000/svg" xmlns:xlink="http://www.w3.org/1999/xlink">
<g id="graph0" class="graph" transform="scale(1 1) rotate(0) translate(4 258)">
<title>OmniOGL::Scene::UpdateSRT</title>
<polygon fill="white" stroke="white" points="-4,5 -4,-258 491,-258 491,5 -4,5"/>
<!-- Node1 -->
<g id="node1" class="node"><title>Node1</title>
<polygon fill="#bfbfbf" stroke="black" points="0.5,-136.5 0.5,-155.5 149.5,-155.5 149.5,-136.5 0.5,-136.5"/>
<text text-anchor="middle" x="75" y="-143.5" font-family="Helvetica,sans-Serif" font-size="10.00">OmniOGL::Scene::UpdateSRT</text>
</g>
<!-- Node2 -->
<g id="node2" class="node"><title>Node2</title>
<g id="a_node2"><a xlink:href="class_omni_o_g_l_1_1_text_overlay.html#a5b8a3a49e93e8e1c08daf809af737c22" target="_top" xlink:title="This method is called for each &quot;special character&quot; that needs to be adjusted vertically each frame ...">
<polygon fill="white" stroke="black" points="189,-177 189,-207 329,-207 329,-177 189,-177"/>
<text text-anchor="start" x="197" y="-195" font-family="Helvetica,sans-Serif" font-size="10.00">OmniOGL::TextOverlay</text>
<text text-anchor="middle" x="259" y="-184" font-family="Helvetica,sans-Serif" font-size="10.00">::PushVerticalCompensation</text>
</a>
</g>
</g>
<!-- Node1&#45;&gt;Node2 -->
<g id="edge1" class="edge"><title>Node1&#45;&gt;Node2</title>
<path fill="none" stroke="midnightblue" d="M123.542,-158.016C146.458,-163.808 174.179,-170.815 198.483,-176.957"/>
<polygon fill="midnightblue" stroke="midnightblue" points="124.263,-154.588 113.711,-155.531 122.548,-161.375 124.263,-154.588"/>
</g>
<!-- Node3 -->
<g id="node3" class="node"><title>Node3</title>
<g id="a_node3"><a xlink:href="class_omni_o_g_l_1_1_text_overlay.html#a21150746059ec6c2ce5a48169aff6f14" target="_top" xlink:title="A method which will be called each frame for each TextOverlay object and is responsible for binding r...">
<polygon fill="white" stroke="black" points="368.5,-224 368.5,-254 485.5,-254 485.5,-224 368.5,-224"/>
<text text-anchor="start" x="376.5" y="-242" font-family="Helvetica,sans-Serif" font-size="10.00">OmniOGL::TextOverlay</text>
<text text-anchor="middle" x="427" y="-231" font-family="Helvetica,sans-Serif" font-size="10.00">::Draw</text>
</a>
</g>
</g>
<!-- Node1&#45;&gt;Node3 -->
<g id="edge3" class="edge"><title>Node1&#45;&gt;Node3</title>
<path fill="none" stroke="midnightblue" d="M94.9497,-162.062C115.784,-178.713 150.974,-203.958 186,-216 245.771,-236.549 318.531,-240.859 368.161,-240.937"/>
<polygon fill="midnightblue" stroke="midnightblue" points="96.8991,-159.135 86.9416,-155.515 92.4686,-164.554 96.8991,-159.135"/>
</g>
<!-- Node4 -->
<g id="node4" class="node"><title>Node4</title>
<g id="a_node4"><a xlink:href="class_omni_o_g_l_1_1_line_strip.html#a7537f5cb2b6fa75d43aae512accab828" target="_top" xlink:title="when commenting, note that we translate to 0,0,0 instead of the object&#39;s origin">
<polygon fill="white" stroke="black" points="375,-0 375,-30 479,-30 479,-0 375,-0"/>
<text text-anchor="start" x="383" y="-18" font-family="Helvetica,sans-Serif" font-size="10.00">OmniOGL::LineStrip</text>
<text text-anchor="middle" x="427" y="-7" font-family="Helvetica,sans-Serif" font-size="10.00">::Draw</text>
</a>
</g>
</g>
<!-- Node1&#45;&gt;Node4 -->
<g id="edge4" class="edge"><title>Node1&#45;&gt;Node4</title>
<path fill="none" stroke="midnightblue" d="M138.219,-134.549C208.69,-121.205 315.877,-99.6309 332,-89 354.861,-73.9265 346.529,-55.9949 368,-39 372.272,-35.6183 377.088,-32.6421 382.073,-30.0419"/>
<polygon fill="midnightblue" stroke="midnightblue" points="137.282,-131.164 128.104,-136.456 138.579,-138.043 137.282,-131.164"/>
</g>
<!-- Node5 -->
<g id="node5" class="node"><title>Node5</title>
<g id="a_node5"><a xlink:href="class_omni_o_g_l_1_1_group.html#a0ad61f0b4c1e857c49cf7bbf5ddc4a91" target="_top" xlink:title="A method which will be called each frame for each LineStrip object and is responsible for binding rel...">
<polygon fill="white" stroke="black" points="199,-60.5 199,-79.5 319,-79.5 319,-60.5 199,-60.5"/>
<text text-anchor="middle" x="259" y="-67.5" font-family="Helvetica,sans-Serif" font-size="10.00">OmniOGL::Group::Draw</text>
</a>
</g>
</g>
<!-- Node1&#45;&gt;Node5 -->
<g id="edge5" class="edge"><title>Node1&#45;&gt;Node5</title>
<path fill="none" stroke="midnightblue" d="M103.467,-131.889C125.476,-120.857 157.311,-105.514 186,-94 199.084,-88.7487 213.809,-83.6944 226.517,-79.5898"/>
<polygon fill="midnightblue" stroke="midnightblue" points="101.731,-128.844 94.3831,-136.476 104.887,-135.092 101.731,-128.844"/>
</g>
<!-- Node6 -->
<g id="node6" class="node"><title>Node6</title>
<g id="a_node6"><a xlink:href="class_omni_o_g_l_1_1_scene.html#a7158f7aa2b63737ffc2d93f20f39fc85" target="_top" xlink:title="This method is intended to offer a simple way to set the translation matrix via a set of x...">
<polygon fill="white" stroke="black" points="186.5,-136.5 186.5,-155.5 331.5,-155.5 331.5,-136.5 186.5,-136.5"/>
<text text-anchor="middle" x="259" y="-143.5" font-family="Helvetica,sans-Serif" font-size="10.00">OmniOGL::Scene::sTranslate</text>
</a>
</g>
</g>
<!-- Node1&#45;&gt;Node6 -->
<g id="edge6" class="edge"><title>Node1&#45;&gt;Node6</title>
<path fill="none" stroke="midnightblue" d="M159.534,-146C168.473,-146 177.508,-146 186.292,-146"/>
<polygon fill="midnightblue" stroke="midnightblue" points="159.502,-142.5 149.502,-146 159.502,-149.5 159.502,-142.5"/>
</g>
<!-- Node2&#45;&gt;Node3 -->
<g id="edge2" class="edge"><title>Node2&#45;&gt;Node3</title>
<path fill="none" stroke="midnightblue" d="M323.056,-209.853C339.511,-214.512 357.077,-219.486 372.954,-223.981"/>
<polygon fill="midnightblue" stroke="midnightblue" points="323.555,-206.357 312.98,-207 321.648,-213.092 323.555,-206.357"/>
</g>
<!-- Node7 -->
<g id="node7" class="node"><title>Node7</title>
<g id="a_node7"><a xlink:href="class_omni_o_g_l_1_1_blender_obj.html#afcd64d1d531ec5f31a4bbe184c4ccd48" target="_top" xlink:title="The draw method which must be implemented in order for the class to be instantiable. This method is responsible for sending the vertices, normals, etc. necessary to draw the object to the shader program, set all necessary options to their desired state, and finally invoke the desired OpenGL draw call. At the time being this method implementation is fairly rudimentary as it contains no logic to determine whether or not it needs send its data to the graphics card (it sends its data blindly).">
<polygon fill="white" stroke="black" points="370,-175 370,-205 484,-205 484,-175 370,-175"/>
<text text-anchor="start" x="378" y="-193" font-family="Helvetica,sans-Serif" font-size="10.00">OmniOGL::BlenderObj</text>
<text text-anchor="middle" x="427" y="-182" font-family="Helvetica,sans-Serif" font-size="10.00">::Draw</text>
</a>
</g>
</g>
<!-- Node6&#45;&gt;Node7 -->
<g id="edge7" class="edge"><title>Node6&#45;&gt;Node7</title>
<path fill="none" stroke="midnightblue" d="M305.729,-158.121C325.548,-163.374 348.946,-169.576 369.811,-175.106"/>
<polygon fill="midnightblue" stroke="midnightblue" points="306.583,-154.726 296.02,-155.547 304.789,-161.493 306.583,-154.726"/>
</g>
<!-- Node8 -->
<g id="node8" class="node"><title>Node8</title>
<g id="a_node8"><a xlink:href="class_omni_o_g_l_1_1_cube.html#af17ad72ba759cea86eec434588f04d8a" target="_top" xlink:title="A method which is called each frame in order to render the object to the screen. This method is respo...">
<polygon fill="white" stroke="black" points="369,-136.5 369,-155.5 485,-155.5 485,-136.5 369,-136.5"/>
<text text-anchor="middle" x="427" y="-143.5" font-family="Helvetica,sans-Serif" font-size="10.00">OmniOGL::Cube::Draw</text>
</a>
</g>
</g>
<!-- Node6&#45;&gt;Node8 -->
<g id="edge8" class="edge"><title>Node6&#45;&gt;Node8</title>
<path fill="none" stroke="midnightblue" d="M342.032,-146C351.081,-146 360.146,-146 368.795,-146"/>
<polygon fill="midnightblue" stroke="midnightblue" points="341.845,-142.5 331.845,-146 341.845,-149.5 341.845,-142.5"/>
</g>
<!-- Node9 -->
<g id="node9" class="node"><title>Node9</title>
<g id="a_node9"><a xlink:href="class_omni_o_g_l_1_1_floor.html#a64e76510ea0c09dfd0181b2e51288faa" target="_top" xlink:title="A method which will be called each frame for each Floor object and is responsible for binding relevan...">
<polygon fill="white" stroke="black" points="369,-98.5 369,-117.5 485,-117.5 485,-98.5 369,-98.5"/>
<text text-anchor="middle" x="427" y="-105.5" font-family="Helvetica,sans-Serif" font-size="10.00">OmniOGL::Floor::Draw</text>
</a>
</g>
</g>
<!-- Node6&#45;&gt;Node9 -->
<g id="edge9" class="edge"><title>Node6&#45;&gt;Node9</title>
<path fill="none" stroke="midnightblue" d="M311.653,-134.176C335.056,-128.818 362.357,-122.569 384.412,-117.52"/>
<polygon fill="midnightblue" stroke="midnightblue" points="310.856,-130.768 301.889,-136.411 312.418,-137.591 310.856,-130.768"/>
</g>
<!-- Node6&#45;&gt;Node3 -->
<g id="edge10" class="edge"><title>Node6&#45;&gt;Node3</title>
<path fill="none" stroke="midnightblue" d="M315.809,-159.234C321.513,-161.691 327.03,-164.588 332,-168 353.402,-182.694 347.441,-198.147 368,-214 372.863,-217.75 378.373,-221.055 384.016,-223.931"/>
<polygon fill="midnightblue" stroke="midnightblue" points="316.684,-155.821 306.094,-155.503 314.174,-162.356 316.684,-155.821"/>
</g>
<!-- Node6&#45;&gt;Node4 -->
<g id="edge11" class="edge"><title>Node6&#45;&gt;Node4</title>
<path fill="none" stroke="midnightblue" d="M317.024,-132.216C322.459,-129.416 327.581,-126.048 332,-122 361.649,-94.8384 339.328,-67.1909 368,-39 371.497,-35.5619 375.556,-32.5909 379.873,-30.0291"/>
<polygon fill="midnightblue" stroke="midnightblue" points="315.346,-129.133 307.65,-136.415 318.207,-135.522 315.346,-129.133"/>
</g>
<!-- Node10 -->
<g id="node10" class="node"><title>Node10</title>
<g id="a_node10"><a xlink:href="class_omni_o_g_l_1_1_block_array.html#ac05ba87741d5756b0d1001a8aeb45daa" target="_top" xlink:title="OmniOGL::BlockArray\l::Draw">
<polygon fill="white" stroke="black" points="370,-49 370,-79 484,-79 484,-49 370,-49"/>
<text text-anchor="start" x="378" y="-67" font-family="Helvetica,sans-Serif" font-size="10.00">OmniOGL::BlockArray</text>
<text text-anchor="middle" x="427" y="-56" font-family="Helvetica,sans-Serif" font-size="10.00">::Draw</text>
</a>
</g>
</g>
<!-- Node6&#45;&gt;Node10 -->
<g id="edge12" class="edge"><title>Node6&#45;&gt;Node10</title>
<path fill="none" stroke="midnightblue" d="M308.224,-133.065C316.423,-129.993 324.654,-126.322 332,-122 350.707,-110.993 349.779,-100.794 368,-89 373.615,-85.3655 379.847,-82.0436 386.084,-79.0917"/>
<polygon fill="midnightblue" stroke="midnightblue" points="306.957,-129.8 298.668,-136.399 309.263,-136.409 306.957,-129.8"/>
</g>
</g>
</svg>
