<?xml version="1.0" encoding="UTF-8" standalone="no"?>
<!DOCTYPE svg PUBLIC "-//W3C//DTD SVG 1.1//EN"
 "http://www.w3.org/Graphics/SVG/1.1/DTD/svg11.dtd">
<!-- Generated by graphviz version 2.30.1 (20130214.1330)
 -->
<!-- Title: OmniOGL::InputEvents::evnt_Keybrd Pages: 1 -->
<svg width="592pt" height="38pt"
 viewBox="0.00 0.00 592.00 38.00" xmlns="http://www.w3.org/2000/svg" xmlns:xlink="http://www.w3.org/1999/xlink">
<g id="graph0" class="graph" transform="scale(1 1) rotate(0) translate(4 34)">
<title>OmniOGL::InputEvents::evnt_Keybrd</title>
<polygon fill="white" stroke="white" points="-4,5 -4,-34 589,-34 589,5 -4,5"/>
<!-- Node1 -->
<g id="node1" class="node"><title>Node1</title>
<polygon fill="#bfbfbf" stroke="black" points="0,-0 0,-30 116,-30 116,-0 0,-0"/>
<text text-anchor="start" x="8" y="-18" font-family="Helvetica,sans-Serif" font-size="10.00">OmniOGL::InputEvents</text>
<text text-anchor="middle" x="58" y="-7" font-family="Helvetica,sans-Serif" font-size="10.00">::evnt_Keybrd</text>
</g>
<!-- Node2 -->
<g id="node2" class="node"><title>Node2</title>
<g id="a_node2"><a xlink:href="class_omni_o_g_l_1_1_input_events.html#a88d861496c66f76d2dbf4008b547ab8e" target="_top" xlink:title="OmniOGL::InputEvents\l::_evnt_Keybrd">
<polygon fill="white" stroke="black" points="152,-0 152,-30 268,-30 268,-0 152,-0"/>
<text text-anchor="start" x="160" y="-18" font-family="Helvetica,sans-Serif" font-size="10.00">OmniOGL::InputEvents</text>
<text text-anchor="middle" x="210" y="-7" font-family="Helvetica,sans-Serif" font-size="10.00">::_evnt_Keybrd</text>
</a>
</g>
</g>
<!-- Node1&#45;&gt;Node2 -->
<g id="edge1" class="edge"><title>Node1&#45;&gt;Node2</title>
<path fill="none" stroke="midnightblue" d="M126.311,-15C134.728,-15 143.277,-15 151.525,-15"/>
<polygon fill="midnightblue" stroke="midnightblue" points="126.137,-11.5001 116.136,-15 126.136,-18.5001 126.137,-11.5001"/>
</g>
<!-- Node3 -->
<g id="node3" class="node"><title>Node3</title>
<g id="a_node3"><a xlink:href="class_omni_o_g_l_1_1_input_events.html#a5e2c671369f0eae88d61e31ec20b6a10" target="_top" xlink:title="OmniOGL::InputEvents\l::Activate">
<polygon fill="white" stroke="black" points="304,-0 304,-30 420,-30 420,-0 304,-0"/>
<text text-anchor="start" x="312" y="-18" font-family="Helvetica,sans-Serif" font-size="10.00">OmniOGL::InputEvents</text>
<text text-anchor="middle" x="362" y="-7" font-family="Helvetica,sans-Serif" font-size="10.00">::Activate</text>
</a>
</g>
</g>
<!-- Node2&#45;&gt;Node3 -->
<g id="edge2" class="edge"><title>Node2&#45;&gt;Node3</title>
<path fill="none" stroke="midnightblue" d="M278.311,-15C286.728,-15 295.277,-15 303.525,-15"/>
<polygon fill="midnightblue" stroke="midnightblue" points="278.137,-11.5001 268.136,-15 278.136,-18.5001 278.137,-11.5001"/>
</g>
<!-- Node4 -->
<g id="node4" class="node"><title>Node4</title>
<g id="a_node4"><a xlink:href="class_omni_o_g_l_1_1_scene.html#a8601c13e69f3269928209f1ffdf2584a" target="_top" xlink:title="The constructor for the Scene class. This is a fairly busy constructor since it&#39;s responsible for ini...">
<polygon fill="white" stroke="black" points="456,-5.5 456,-24.5 584,-24.5 584,-5.5 456,-5.5"/>
<text text-anchor="middle" x="520" y="-12.5" font-family="Helvetica,sans-Serif" font-size="10.00">OmniOGL::Scene::Scene</text>
</a>
</g>
</g>
<!-- Node3&#45;&gt;Node4 -->
<g id="edge3" class="edge"><title>Node3&#45;&gt;Node4</title>
<path fill="none" stroke="midnightblue" d="M430.37,-15C438.796,-15 447.391,-15 455.751,-15"/>
<polygon fill="midnightblue" stroke="midnightblue" points="430.203,-11.5001 420.203,-15 430.203,-18.5001 430.203,-11.5001"/>
</g>
</g>
</svg>
