<?xml version="1.0" encoding="UTF-8" standalone="no"?>
<!DOCTYPE svg PUBLIC "-//W3C//DTD SVG 1.1//EN"
 "http://www.w3.org/Graphics/SVG/1.1/DTD/svg11.dtd">
<!-- Generated by graphviz version 2.30.1 (20130214.1330)
 -->
<!-- Title: OmniOGL::SurfaceNet::AddNormal Pages: 1 -->
<svg width="592pt" height="38pt"
 viewBox="0.00 0.00 592.00 38.00" xmlns="http://www.w3.org/2000/svg" xmlns:xlink="http://www.w3.org/1999/xlink">
<g id="graph0" class="graph" transform="scale(1 1) rotate(0) translate(4 34)">
<title>OmniOGL::SurfaceNet::AddNormal</title>
<polygon fill="white" stroke="white" points="-4,5 -4,-34 589,-34 589,5 -4,5"/>
<!-- Node1 -->
<g id="node1" class="node"><title>Node1</title>
<polygon fill="#bfbfbf" stroke="black" points="0,-0 0,-30 114,-30 114,-0 0,-0"/>
<text text-anchor="start" x="8" y="-18" font-family="Helvetica,sans-Serif" font-size="10.00">OmniOGL::SurfaceNet</text>
<text text-anchor="middle" x="57" y="-7" font-family="Helvetica,sans-Serif" font-size="10.00">::AddNormal</text>
</g>
<!-- Node2 -->
<g id="node2" class="node"><title>Node2</title>
<g id="a_node2"><a xlink:href="class_omni_o_g_l_1_1_surface_net.html#a451aa3478ef94a1709c675b4c83de341" target="_top" xlink:title="OmniOGL::SurfaceNet\l::BlendNormals">
<polygon fill="white" stroke="black" points="150,-0 150,-30 264,-30 264,-0 150,-0"/>
<text text-anchor="start" x="158" y="-18" font-family="Helvetica,sans-Serif" font-size="10.00">OmniOGL::SurfaceNet</text>
<text text-anchor="middle" x="207" y="-7" font-family="Helvetica,sans-Serif" font-size="10.00">::BlendNormals</text>
</a>
</g>
</g>
<!-- Node1&#45;&gt;Node2 -->
<g id="edge1" class="edge"><title>Node1&#45;&gt;Node2</title>
<path fill="none" stroke="midnightblue" d="M124.558,-15C132.984,-15 141.539,-15 149.782,-15"/>
<polygon fill="midnightblue" stroke="midnightblue" points="124.375,-11.5001 114.375,-15 124.375,-18.5001 124.375,-11.5001"/>
</g>
<!-- Node3 -->
<g id="node3" class="node"><title>Node3</title>
<g id="a_node3"><a xlink:href="class_omni_o_g_l_1_1_voxel_field.html#af35e1fbb4908ffbe639962bce40c36a4" target="_top" xlink:title="The core method of this class which initializes all voxels and populates a given BlockArray with the ...">
<polygon fill="white" stroke="black" points="300,-0 300,-30 412,-30 412,-0 300,-0"/>
<text text-anchor="start" x="308" y="-18" font-family="Helvetica,sans-Serif" font-size="10.00">OmniOGL::VoxelField</text>
<text text-anchor="middle" x="356" y="-7" font-family="Helvetica,sans-Serif" font-size="10.00">::FillWithRandom</text>
</a>
</g>
</g>
<!-- Node2&#45;&gt;Node3 -->
<g id="edge2" class="edge"><title>Node2&#45;&gt;Node3</title>
<path fill="none" stroke="midnightblue" d="M274.646,-15C283.109,-15 291.695,-15 299.949,-15"/>
<polygon fill="midnightblue" stroke="midnightblue" points="274.414,-11.5001 264.414,-15 274.414,-18.5001 274.414,-11.5001"/>
</g>
<!-- Node4 -->
<g id="node4" class="node"><title>Node4</title>
<g id="a_node4"><a xlink:href="_exec_8cpp.html#a38c5e7def3be6ea702581ee4a92b9cc0" target="_top" xlink:title="render">
<polygon fill="white" stroke="black" points="448,-5.5 448,-24.5 492,-24.5 492,-5.5 448,-5.5"/>
<text text-anchor="middle" x="470" y="-12.5" font-family="Helvetica,sans-Serif" font-size="10.00">render</text>
</a>
</g>
</g>
<!-- Node3&#45;&gt;Node4 -->
<g id="edge3" class="edge"><title>Node3&#45;&gt;Node4</title>
<path fill="none" stroke="midnightblue" d="M422.12,-15C431.354,-15 440.249,-15 447.762,-15"/>
<polygon fill="midnightblue" stroke="midnightblue" points="422.016,-11.5001 412.016,-15 422.016,-18.5001 422.016,-11.5001"/>
</g>
<!-- Node5 -->
<g id="node5" class="node"><title>Node5</title>
<g id="a_node5"><a xlink:href="_exec_8cpp.html#a66e65252a6985e382838442f280f46ba" target="_top" xlink:title="WinMain">
<polygon fill="white" stroke="black" points="528.5,-5.5 528.5,-24.5 583.5,-24.5 583.5,-5.5 528.5,-5.5"/>
<text text-anchor="middle" x="556" y="-12.5" font-family="Helvetica,sans-Serif" font-size="10.00">WinMain</text>
</a>
</g>
</g>
<!-- Node4&#45;&gt;Node5 -->
<g id="edge4" class="edge"><title>Node4&#45;&gt;Node5</title>
<path fill="none" stroke="midnightblue" d="M502.253,-15C510.845,-15 520.081,-15 528.386,-15"/>
<polygon fill="midnightblue" stroke="midnightblue" points="502.197,-11.5001 492.197,-15 502.197,-18.5001 502.197,-11.5001"/>
</g>
</g>
</svg>
