<?xml version="1.0" encoding="UTF-8" standalone="no"?>
<!DOCTYPE svg PUBLIC "-//W3C//DTD SVG 1.1//EN"
 "http://www.w3.org/Graphics/SVG/1.1/DTD/svg11.dtd">
<!-- Generated by graphviz version 2.30.1 (20130214.1330)
 -->
<!-- Title: OmniOGL::Cube Pages: 1 -->
<!--zoomable 778 -->
<svg id="main" version="1.1" xmlns="http://www.w3.org/2000/svg" xmlns:xlink="http://www.w3.org/1999/xlink" xml:space="preserve" onload="init(evt)">
        <defs>
                <circle id="rim" cx="0" cy="0" r="7"/>
                <circle id="rim2" cx="0" cy="0" r="3.5"/>
                <g id="zoomPlus">
                        <use xlink:href="#rim" fill="#404040">
                                <set attributeName="fill" to="#808080" begin="zoomplus.mouseover" end="zoomplus.mouseout"/>
                        </use>
                        <path d="M-4,0h8M0,-4v8" fill="none" stroke="white" stroke-width="1.5" pointer-events="none"/>
                </g>
                <g id="zoomMin">
                        <use xlink:href="#rim" fill="#404040">
                                <set attributeName="fill" to="#808080" begin="zoomminus.mouseover" end="zoomminus.mouseout"/>
                        </use>
                        <path d="M-4,0h8" fill="none" stroke="white" stroke-width="1.5" pointer-events="none"/>
                </g>
                <g id="dirArrow">
                        <path fill="none" stroke="white" stroke-width="1.5" d="M0,-3.0v7 M-2.5,-0.5L0,-3.0L2.5,-0.5"/>
                </g>
               <g id="resetDef">
                       <use xlink:href="#rim2" fill="#404040">
                               <set attributeName="fill" to="#808080" begin="reset.mouseover" end="reset.mouseout"/>
                       </use>
               </g>
        </defs>

<script type="text/javascript">
var viewWidth = 979;
var viewHeight = 778;
var sectionId = 'dynsection-1';
</script>
<script xlink:href="svgpan.js"/>
<svg id="graph" class="graph">
<g id="viewport">
<title>OmniOGL::Cube</title>
<polygon fill="white" stroke="white" points="-4,5 -4,-774 976.46,-774 976.46,5 -4,5"/>
<!-- Node1 -->
<g id="node1" class="node"><title>Node1</title>
<polygon fill="#bfbfbf" stroke="black" points="27.9599,-0.5 27.9599,-101.5 116.96,-101.5 116.96,-0.5 27.9599,-0.5"/>
<text text-anchor="middle" x="72.4599" y="-89.5" font-family="Helvetica,sans-Serif" font-size="10.00">OmniOGL::Cube</text>
<polyline fill="none" stroke="black" points="27.9599,-82.5 116.96,-82.5 "/>
<text text-anchor="middle" x="72.4599" y="-70.5" font-family="Helvetica,sans-Serif" font-size="10.00"> </text>
<polyline fill="none" stroke="black" points="27.9599,-63.5 116.96,-63.5 "/>
<text text-anchor="start" x="35.9599" y="-51.5" font-family="Helvetica,sans-Serif" font-size="10.00">+ Cube()</text>
<text text-anchor="start" x="35.9599" y="-40.5" font-family="Helvetica,sans-Serif" font-size="10.00">+ Cube()</text>
<text text-anchor="start" x="35.9599" y="-29.5" font-family="Helvetica,sans-Serif" font-size="10.00">+ ~Cube()</text>
<text text-anchor="start" x="35.9599" y="-18.5" font-family="Helvetica,sans-Serif" font-size="10.00">+ Draw()</text>
<text text-anchor="start" x="35.9599" y="-7.5" font-family="Helvetica,sans-Serif" font-size="10.00">+ operator=()</text>
</g>
<!-- Node2 -->
<g id="node2" class="node"><title>Node2</title>
<g id="a_node2"><a xlink:href="class_omni_o_g_l_1_1_ren_obj.html" target="_top" xlink:title="The purely virtual base class which is used to represent a single object which will potentially be re...">
<polygon fill="white" stroke="black" points="295.46,-141 295.46,-517 417.46,-517 417.46,-141 295.46,-141"/>
<text text-anchor="middle" x="356.46" y="-505" font-family="Helvetica,sans-Serif" font-size="10.00">OmniOGL::RenObj</text>
<polyline fill="none" stroke="black" points="295.46,-498 417.46,-498 "/>
<text text-anchor="middle" x="356.46" y="-486" font-family="Helvetica,sans-Serif" font-size="10.00"> </text>
<polyline fill="none" stroke="black" points="295.46,-479 417.46,-479 "/>
<text text-anchor="start" x="303.46" y="-467" font-family="Helvetica,sans-Serif" font-size="10.00">+ RenObj()</text>
<text text-anchor="start" x="303.46" y="-456" font-family="Helvetica,sans-Serif" font-size="10.00">+ RenObj()</text>
<text text-anchor="start" x="303.46" y="-445" font-family="Helvetica,sans-Serif" font-size="10.00">+ ~RenObj()</text>
<text text-anchor="start" x="303.46" y="-434" font-family="Helvetica,sans-Serif" font-size="10.00">+ Draw()</text>
<text text-anchor="start" x="303.46" y="-423" font-family="Helvetica,sans-Serif" font-size="10.00">+ EnableLighting()</text>
<text text-anchor="start" x="303.46" y="-412" font-family="Helvetica,sans-Serif" font-size="10.00">+ GetForeground()</text>
<text text-anchor="start" x="303.46" y="-401" font-family="Helvetica,sans-Serif" font-size="10.00">+ GetInternalClipping()</text>
<text text-anchor="start" x="303.46" y="-390" font-family="Helvetica,sans-Serif" font-size="10.00">+ GetLightingEnable()</text>
<text text-anchor="start" x="303.46" y="-379" font-family="Helvetica,sans-Serif" font-size="10.00">+ GetOccupiedSection()</text>
<text text-anchor="start" x="303.46" y="-368" font-family="Helvetica,sans-Serif" font-size="10.00">+ GetOrigin()</text>
<text text-anchor="start" x="303.46" y="-357" font-family="Helvetica,sans-Serif" font-size="10.00">+ GetRenderID()</text>
<text text-anchor="start" x="303.46" y="-346" font-family="Helvetica,sans-Serif" font-size="10.00">+ GetSelectionRadius()</text>
<text text-anchor="start" x="303.46" y="-335" font-family="Helvetica,sans-Serif" font-size="10.00">+ GetTexture()</text>
<text text-anchor="start" x="303.46" y="-324" font-family="Helvetica,sans-Serif" font-size="10.00">+ operator=()</text>
<text text-anchor="start" x="303.46" y="-313" font-family="Helvetica,sans-Serif" font-size="10.00">+ SetBumpMap()</text>
<text text-anchor="start" x="303.46" y="-302" font-family="Helvetica,sans-Serif" font-size="10.00">+ SetBumpMap()</text>
<text text-anchor="start" x="303.46" y="-291" font-family="Helvetica,sans-Serif" font-size="10.00">+ SetColor()</text>
<text text-anchor="start" x="303.46" y="-280" font-family="Helvetica,sans-Serif" font-size="10.00">+ SetForeground()</text>
<text text-anchor="start" x="303.46" y="-269" font-family="Helvetica,sans-Serif" font-size="10.00">+ SetInternalClipping()</text>
<text text-anchor="start" x="303.46" y="-258" font-family="Helvetica,sans-Serif" font-size="10.00">+ SetLighting()</text>
<text text-anchor="start" x="303.46" y="-247" font-family="Helvetica,sans-Serif" font-size="10.00">+ SetOccupiedSection()</text>
<text text-anchor="start" x="303.46" y="-236" font-family="Helvetica,sans-Serif" font-size="10.00">+ SetOrigin()</text>
<text text-anchor="start" x="303.46" y="-225" font-family="Helvetica,sans-Serif" font-size="10.00">+ SetTexture()</text>
<text text-anchor="start" x="303.46" y="-214" font-family="Helvetica,sans-Serif" font-size="10.00">+ SetTexture()</text>
<text text-anchor="start" x="303.46" y="-203" font-family="Helvetica,sans-Serif" font-size="10.00"># BindBufferData()</text>
<text text-anchor="start" x="303.46" y="-192" font-family="Helvetica,sans-Serif" font-size="10.00"># factor_vec4()</text>
<text text-anchor="start" x="303.46" y="-181" font-family="Helvetica,sans-Serif" font-size="10.00"># Prepare()</text>
<text text-anchor="start" x="303.46" y="-170" font-family="Helvetica,sans-Serif" font-size="10.00"># ebo()</text>
<text text-anchor="start" x="303.46" y="-159" font-family="Helvetica,sans-Serif" font-size="10.00"># vao()</text>
<text text-anchor="start" x="303.46" y="-148" font-family="Helvetica,sans-Serif" font-size="10.00"># vbo()</text>
</a>
</g>
</g>
<!-- Node2&#45;&gt;Node1 -->
<g id="edge1" class="edge"><title>Node2&#45;&gt;Node1</title>
<path fill="none" stroke="midnightblue" d="M287.844,-261.317C234.898,-209.862 163.182,-140.166 117.358,-95.6331"/>
<polygon fill="none" stroke="midnightblue" points="285.575,-263.993 295.186,-268.452 290.454,-258.973 285.575,-263.993"/>
</g>
<!-- Node3 -->
<g id="node3" class="node"><title>Node3</title>
<polygon fill="white" stroke="#bfbfbf" points="4.95987,-712.5 4.95987,-769.5 51.9599,-769.5 51.9599,-712.5 4.95987,-712.5"/>
<text text-anchor="middle" x="28.4599" y="-757.5" font-family="Helvetica,sans-Serif" font-size="10.00">GLfloat</text>
<polyline fill="none" stroke="#bfbfbf" points="4.95987,-750.5 51.9599,-750.5 "/>
<text text-anchor="middle" x="28.4599" y="-738.5" font-family="Helvetica,sans-Serif" font-size="10.00"> </text>
<polyline fill="none" stroke="#bfbfbf" points="4.95987,-731.5 51.9599,-731.5 "/>
<text text-anchor="middle" x="28.4599" y="-719.5" font-family="Helvetica,sans-Serif" font-size="10.00"> </text>
</g>
<!-- Node3&#45;&gt;Node2 -->
<g id="edge2" class="edge"><title>Node3&#45;&gt;Node2</title>
<path fill="none" stroke="#404040" d="M23.3113,-712.337C18.3881,-678.173 14.6886,-619.278 37.4599,-576 91.157,-473.945 208.025,-401.3 284.409,-362.519"/>
<polygon fill="none" stroke="#404040" points="284.637,-362.405 288.217,-356.145 295.372,-357.043 291.792,-363.302 284.637,-362.405"/>
<text text-anchor="middle" x="75.4599" y="-634" font-family="Helvetica,sans-Serif" font-size="10.00"> #colors</text>
<text text-anchor="middle" x="75.4599" y="-623" font-family="Helvetica,sans-Serif" font-size="10.00">#normals</text>
<text text-anchor="middle" x="75.4599" y="-612" font-family="Helvetica,sans-Serif" font-size="10.00">#selection_radius</text>
<text text-anchor="middle" x="75.4599" y="-601" font-family="Helvetica,sans-Serif" font-size="10.00">#vertices</text>
<text text-anchor="middle" x="75.4599" y="-590" font-family="Helvetica,sans-Serif" font-size="10.00">#origin</text>
<text text-anchor="middle" x="75.4599" y="-579" font-family="Helvetica,sans-Serif" font-size="10.00">#texcoords</text>
</g>
<!-- Node4 -->
<g id="node4" class="node"><title>Node4</title>
<g id="a_node4"><a xlink:href="class_omni_o_g_l_1_1_material_lighting.html" target="_top" xlink:title="{OmniOGL::MaterialLighting\n||+ MaterialLighting()\l}">
<polygon fill="white" stroke="black" points="122.46,-580.5 122.46,-637.5 256.46,-637.5 256.46,-580.5 122.46,-580.5"/>
<text text-anchor="middle" x="189.46" y="-625.5" font-family="Helvetica,sans-Serif" font-size="10.00">OmniOGL::MaterialLighting</text>
<polyline fill="none" stroke="black" points="122.46,-618.5 256.46,-618.5 "/>
<text text-anchor="middle" x="189.46" y="-606.5" font-family="Helvetica,sans-Serif" font-size="10.00"> </text>
<polyline fill="none" stroke="black" points="122.46,-599.5 256.46,-599.5 "/>
<text text-anchor="start" x="130.46" y="-587.5" font-family="Helvetica,sans-Serif" font-size="10.00">+ MaterialLighting()</text>
</a>
</g>
</g>
<!-- Node3&#45;&gt;Node4 -->
<g id="edge4" class="edge"><title>Node3&#45;&gt;Node4</title>
<path fill="none" stroke="#404040" d="M52.216,-720.818C76.7627,-700.998 115.632,-669.613 145.748,-645.295"/>
<polygon fill="none" stroke="#404040" points="145.853,-645.21 148.009,-638.329 155.19,-637.672 153.034,-644.553 145.853,-645.21"/>
<text text-anchor="middle" x="161.46" y="-685.5" font-family="Helvetica,sans-Serif" font-size="10.00"> +specular_factor</text>
<text text-anchor="middle" x="161.46" y="-674.5" font-family="Helvetica,sans-Serif" font-size="10.00">+shininess</text>
<text text-anchor="middle" x="161.46" y="-663.5" font-family="Helvetica,sans-Serif" font-size="10.00">+diffuse_factor</text>
</g>
<!-- Node3&#45;&gt;Node1 -->
<g id="edge18" class="edge"><title>Node3&#45;&gt;Node1</title>
<path fill="none" stroke="#404040" d="M20.5691,-712.416C19.0388,-706.383 17.5684,-700.006 16.4599,-694 5.42239,-634.199 4.79823,-618.719 1.45987,-558 -7.42499,-396.4 32.4164,-208.133 56.0441,-113.289"/>
<polygon fill="none" stroke="#404040" points="56.047,-113.277 53.6358,-106.481 58.9817,-101.641 61.3929,-108.438 56.047,-113.277"/>
<text text-anchor="middle" x="23.4599" y="-544.5" font-family="Helvetica,sans-Serif" font-size="10.00"> &#45;diameter</text>
</g>
<!-- Node4&#45;&gt;Node2 -->
<g id="edge3" class="edge"><title>Node4&#45;&gt;Node2</title>
<path fill="none" stroke="#404040" d="M206.083,-580.328C225.495,-548.014 258.823,-492.534 289.177,-442.004"/>
<polygon fill="none" stroke="#404040" points="289.223,-441.926 288.884,-434.723 295.403,-431.64 295.742,-438.843 289.223,-441.926"/>
<text text-anchor="middle" x="250.46" y="-544.5" font-family="Helvetica,sans-Serif" font-size="10.00"> #lighting</text>
</g>
<!-- Node5 -->
<g id="node5" class="node"><title>Node5</title>
<polygon fill="white" stroke="#bfbfbf" points="481.96,-712.5 481.96,-769.5 516.96,-769.5 516.96,-712.5 481.96,-712.5"/>
<text text-anchor="middle" x="499.46" y="-757.5" font-family="Helvetica,sans-Serif" font-size="10.00">bool</text>
<polyline fill="none" stroke="#bfbfbf" points="481.96,-750.5 516.96,-750.5 "/>
<text text-anchor="middle" x="499.46" y="-738.5" font-family="Helvetica,sans-Serif" font-size="10.00"> </text>
<polyline fill="none" stroke="#bfbfbf" points="481.96,-731.5 516.96,-731.5 "/>
<text text-anchor="middle" x="499.46" y="-719.5" font-family="Helvetica,sans-Serif" font-size="10.00"> </text>
</g>
<!-- Node5&#45;&gt;Node4 -->
<g id="edge5" class="edge"><title>Node5&#45;&gt;Node4</title>
<path fill="none" stroke="#404040" d="M481.935,-738.989C444.679,-736.249 355.603,-726.536 289.46,-694 265.378,-682.154 242.187,-663.304 224.211,-646.46"/>
<polygon fill="none" stroke="#404040" points="223.95,-646.209 216.854,-644.926 215.309,-637.882 222.405,-639.165 223.95,-646.209"/>
<text text-anchor="middle" x="315.96" y="-680" font-family="Helvetica,sans-Serif" font-size="10.00"> +enabled</text>
<text text-anchor="middle" x="315.96" y="-669" font-family="Helvetica,sans-Serif" font-size="10.00">+black_only</text>
</g>
<!-- Node7 -->
<g id="node7" class="node"><title>Node7</title>
<g id="a_node7"><a xlink:href="class_omni_o_g_l_1_1_blend_function.html" target="_top" xlink:title="{OmniOGL::BlendFunction\n||+ BlendFunction()\l}">
<polygon fill="white" stroke="black" points="465.46,-580.5 465.46,-637.5 593.46,-637.5 593.46,-580.5 465.46,-580.5"/>
<text text-anchor="middle" x="529.46" y="-625.5" font-family="Helvetica,sans-Serif" font-size="10.00">OmniOGL::BlendFunction</text>
<polyline fill="none" stroke="black" points="465.46,-618.5 593.46,-618.5 "/>
<text text-anchor="middle" x="529.46" y="-606.5" font-family="Helvetica,sans-Serif" font-size="10.00"> </text>
<polyline fill="none" stroke="black" points="465.46,-599.5 593.46,-599.5 "/>
<text text-anchor="start" x="473.46" y="-587.5" font-family="Helvetica,sans-Serif" font-size="10.00">+ BlendFunction()</text>
</a>
</g>
</g>
<!-- Node5&#45;&gt;Node7 -->
<g id="edge9" class="edge"><title>Node5&#45;&gt;Node7</title>
<path fill="none" stroke="#404040" d="M496.394,-712.486C495.488,-696.827 495.771,-677.006 500.46,-660 501.513,-656.179 502.932,-652.346 504.579,-648.597"/>
<polygon fill="none" stroke="#404040" points="504.671,-648.414 503.793,-641.257 510.062,-637.694 510.94,-644.852 504.671,-648.414"/>
<text text-anchor="middle" x="521.96" y="-674.5" font-family="Helvetica,sans-Serif" font-size="10.00"> +enabled</text>
</g>
<!-- Node8 -->
<g id="node8" class="node"><title>Node8</title>
<g id="a_node8"><a xlink:href="class_omni_o_g_l_1_1_stencil_function.html" target="_top" xlink:title="{OmniOGL::StencilFunction\n||+ StencilFunction()\l}">
<polygon fill="white" stroke="black" points="759.46,-580.5 759.46,-637.5 893.46,-637.5 893.46,-580.5 759.46,-580.5"/>
<text text-anchor="middle" x="826.46" y="-625.5" font-family="Helvetica,sans-Serif" font-size="10.00">OmniOGL::StencilFunction</text>
<polyline fill="none" stroke="black" points="759.46,-618.5 893.46,-618.5 "/>
<text text-anchor="middle" x="826.46" y="-606.5" font-family="Helvetica,sans-Serif" font-size="10.00"> </text>
<polyline fill="none" stroke="black" points="759.46,-599.5 893.46,-599.5 "/>
<text text-anchor="start" x="767.46" y="-587.5" font-family="Helvetica,sans-Serif" font-size="10.00">+ StencilFunction()</text>
</a>
</g>
</g>
<!-- Node5&#45;&gt;Node8 -->
<g id="edge12" class="edge"><title>Node5&#45;&gt;Node8</title>
<path fill="none" stroke="#404040" d="M517.009,-736.438C540.48,-730.904 582.279,-718.258 609.46,-694 622.375,-682.474 614.216,-669.838 628.46,-660 673.196,-629.102 697.071,-656.543 749.46,-642 750.179,-641.8 750.901,-641.596 751.624,-641.386"/>
<polygon fill="none" stroke="#404040" points="752.01,-641.264 756.518,-635.636 763.447,-637.633 758.939,-643.261 752.01,-641.264"/>
<text text-anchor="middle" x="649.96" y="-674.5" font-family="Helvetica,sans-Serif" font-size="10.00"> +enabled</text>
</g>
<!-- Node5&#45;&gt;Node2 -->
<g id="edge13" class="edge"><title>Node5&#45;&gt;Node2</title>
<path fill="none" stroke="#404040" d="M481.938,-733.283C451.768,-720.653 390.812,-690.214 365.46,-642 354.358,-620.887 349.828,-577.396 348.662,-529.415"/>
<polygon fill="none" stroke="#404040" points="348.657,-529.129 344.547,-523.203 348.436,-517.131 352.546,-523.056 348.657,-529.129"/>
<text text-anchor="middle" x="410.96" y="-617.5" font-family="Helvetica,sans-Serif" font-size="10.00"> #in_foreground</text>
<text text-anchor="middle" x="410.96" y="-606.5" font-family="Helvetica,sans-Serif" font-size="10.00">#en_collision</text>
<text text-anchor="middle" x="410.96" y="-595.5" font-family="Helvetica,sans-Serif" font-size="10.00">#en_internal_clipping</text>
</g>
<!-- Node9 -->
<g id="node9" class="node"><title>Node9</title>
<g id="a_node9"><a xlink:href="class_omni_o_g_l_1_1_depth_function.html" target="_top" xlink:title="{OmniOGL::DepthFunction\n||+ DepthFunction()\l}">
<polygon fill="white" stroke="black" points="611.96,-580.5 611.96,-637.5 740.96,-637.5 740.96,-580.5 611.96,-580.5"/>
<text text-anchor="middle" x="676.46" y="-625.5" font-family="Helvetica,sans-Serif" font-size="10.00">OmniOGL::DepthFunction</text>
<polyline fill="none" stroke="black" points="611.96,-618.5 740.96,-618.5 "/>
<text text-anchor="middle" x="676.46" y="-606.5" font-family="Helvetica,sans-Serif" font-size="10.00"> </text>
<polyline fill="none" stroke="black" points="611.96,-599.5 740.96,-599.5 "/>
<text text-anchor="start" x="619.96" y="-587.5" font-family="Helvetica,sans-Serif" font-size="10.00">+ DepthFunction()</text>
</a>
</g>
</g>
<!-- Node5&#45;&gt;Node9 -->
<g id="edge16" class="edge"><title>Node5&#45;&gt;Node9</title>
<path fill="none" stroke="#404040" d="M517.321,-722.726C525.62,-714.356 535.409,-703.976 543.46,-694 554.917,-679.802 552.522,-671.772 566.46,-660 568.361,-658.394 583.97,-651.108 602.861,-642.573"/>
<polygon fill="none" stroke="#404040" points="603.011,-642.506 606.843,-636.397 613.955,-637.585 610.123,-643.693 603.011,-642.506"/>
<text text-anchor="middle" x="587.96" y="-674.5" font-family="Helvetica,sans-Serif" font-size="10.00"> +enabled</text>
</g>
<!-- Node6 -->
<g id="node6" class="node"><title>Node6</title>
<polygon fill="white" stroke="#bfbfbf" points="774.46,-712.5 774.46,-769.5 814.46,-769.5 814.46,-712.5 774.46,-712.5"/>
<text text-anchor="middle" x="794.46" y="-757.5" font-family="Helvetica,sans-Serif" font-size="10.00">GLint</text>
<polyline fill="none" stroke="#bfbfbf" points="774.46,-750.5 814.46,-750.5 "/>
<text text-anchor="middle" x="794.46" y="-738.5" font-family="Helvetica,sans-Serif" font-size="10.00"> </text>
<polyline fill="none" stroke="#bfbfbf" points="774.46,-731.5 814.46,-731.5 "/>
<text text-anchor="middle" x="794.46" y="-719.5" font-family="Helvetica,sans-Serif" font-size="10.00"> </text>
</g>
<!-- Node6&#45;&gt;Node2 -->
<g id="edge6" class="edge"><title>Node6&#45;&gt;Node2</title>
<path fill="none" stroke="#404040" d="M814.741,-728.647C828.952,-720.149 847.927,-707.673 862.46,-694 902.791,-656.054 932.517,-622.509 902.46,-576 796.617,-412.223 552.785,-356.381 429.974,-338.229"/>
<polygon fill="none" stroke="#404040" points="429.64,-338.182 423.136,-341.296 417.76,-336.489 424.264,-333.375 429.64,-338.182"/>
<text text-anchor="middle" x="942.96" y="-617.5" font-family="Helvetica,sans-Serif" font-size="10.00"> #texture_sel</text>
<text text-anchor="middle" x="942.96" y="-606.5" font-family="Helvetica,sans-Serif" font-size="10.00">#render_id</text>
<text text-anchor="middle" x="942.96" y="-595.5" font-family="Helvetica,sans-Serif" font-size="10.00">#bump_map</text>
</g>
<!-- Node6&#45;&gt;Node7 -->
<g id="edge8" class="edge"><title>Node6&#45;&gt;Node7</title>
<path fill="none" stroke="#404040" d="M774.312,-734.809C752.462,-728.327 717.613,-715.404 694.46,-694 681.749,-682.249 689.225,-670.496 675.46,-660 648.888,-639.738 634.101,-652.747 602.46,-642 602.206,-641.914 601.952,-641.827 601.697,-641.74"/>
<polygon fill="none" stroke="#404040" points="601.369,-641.62 594.361,-643.322 590.095,-637.509 597.102,-635.806 601.369,-641.62"/>
<text text-anchor="middle" x="715.96" y="-674.5" font-family="Helvetica,sans-Serif" font-size="10.00"> +function</text>
</g>
<!-- Node6&#45;&gt;Node8 -->
<g id="edge11" class="edge"><title>Node6&#45;&gt;Node8</title>
<path fill="none" stroke="#404040" d="M801.246,-712.43C805.765,-694.075 811.77,-669.678 816.786,-649.298"/>
<polygon fill="none" stroke="#404040" points="816.815,-649.182 814.365,-642.4 819.683,-637.53 822.133,-644.312 816.815,-649.182"/>
<text text-anchor="middle" x="835.46" y="-685.5" font-family="Helvetica,sans-Serif" font-size="10.00"> +mask</text>
<text text-anchor="middle" x="835.46" y="-674.5" font-family="Helvetica,sans-Serif" font-size="10.00">+operation</text>
<text text-anchor="middle" x="835.46" y="-663.5" font-family="Helvetica,sans-Serif" font-size="10.00">+function</text>
</g>
<!-- Node6&#45;&gt;Node9 -->
<g id="edge15" class="edge"><title>Node6&#45;&gt;Node9</title>
<path fill="none" stroke="#404040" d="M774.923,-712.436C770.748,-706.403 766.408,-700.02 762.46,-694 752.718,-679.149 753.36,-673.185 741.46,-660 736.989,-655.046 731.975,-650.229 726.769,-645.666"/>
<polygon fill="none" stroke="#404040" points="726.485,-645.43 719.315,-644.665 717.263,-637.752 724.433,-638.517 726.485,-645.43"/>
<text text-anchor="middle" x="782.46" y="-680" font-family="Helvetica,sans-Serif" font-size="10.00"> +mask</text>
<text text-anchor="middle" x="782.46" y="-669" font-family="Helvetica,sans-Serif" font-size="10.00">+function</text>
</g>
<!-- Node7&#45;&gt;Node2 -->
<g id="edge7" class="edge"><title>Node7&#45;&gt;Node2</title>
<path fill="none" stroke="#404040" d="M512.239,-580.328C491.648,-547.238 455.939,-489.857 423.901,-438.374"/>
<polygon fill="none" stroke="#404040" points="423.889,-438.354 417.322,-435.373 417.548,-428.165 424.115,-431.146 423.889,-438.354"/>
<text text-anchor="middle" x="518.96" y="-544.5" font-family="Helvetica,sans-Serif" font-size="10.00"> #blending</text>
</g>
<!-- Node8&#45;&gt;Node2 -->
<g id="edge10" class="edge"><title>Node8&#45;&gt;Node2</title>
<path fill="none" stroke="#404040" d="M779.676,-580.328C697.234,-531.565 525.605,-430.047 428.135,-372.395"/>
<polygon fill="none" stroke="#404040" points="428.112,-372.382 420.911,-372.77 417.784,-366.272 424.984,-365.884 428.112,-372.382"/>
<text text-anchor="middle" x="755.96" y="-544.5" font-family="Helvetica,sans-Serif" font-size="10.00"> #stencil</text>
</g>
<!-- Node9&#45;&gt;Node2 -->
<g id="edge14" class="edge"><title>Node9&#45;&gt;Node2</title>
<path fill="none" stroke="#404040" d="M644.607,-580.328C594.178,-536.518 494.735,-450.127 426.929,-391.22"/>
<polygon fill="none" stroke="#404040" points="426.639,-390.968 419.486,-390.052 417.58,-383.098 424.732,-384.013 426.639,-390.968"/>
<text text-anchor="middle" x="631.96" y="-544.5" font-family="Helvetica,sans-Serif" font-size="10.00"> #depth</text>
</g>
<!-- Node10 -->
<g id="node10" class="node"><title>Node10</title>
<polygon fill="white" stroke="#bfbfbf" points="274.96,-580.5 274.96,-637.5 319.96,-637.5 319.96,-580.5 274.96,-580.5"/>
<text text-anchor="middle" x="297.46" y="-625.5" font-family="Helvetica,sans-Serif" font-size="10.00">GLuint</text>
<polyline fill="none" stroke="#bfbfbf" points="274.96,-618.5 319.96,-618.5 "/>
<text text-anchor="middle" x="297.46" y="-606.5" font-family="Helvetica,sans-Serif" font-size="10.00"> </text>
<polyline fill="none" stroke="#bfbfbf" points="274.96,-599.5 319.96,-599.5 "/>
<text text-anchor="middle" x="297.46" y="-587.5" font-family="Helvetica,sans-Serif" font-size="10.00"> </text>
</g>
<!-- Node10&#45;&gt;Node2 -->
<g id="edge17" class="edge"><title>Node10&#45;&gt;Node2</title>
<path fill="none" stroke="#404040" d="M289.119,-580.281C286.138,-566.89 284.048,-550.597 286.46,-536 288.098,-526.089 290.151,-516.015 292.515,-505.917"/>
<polygon fill="none" stroke="#404040" points="292.564,-505.715 290.111,-498.934 295.427,-494.061 297.88,-500.842 292.564,-505.715"/>
<text text-anchor="middle" x="314.46" y="-550" font-family="Helvetica,sans-Serif" font-size="10.00"> #lengths</text>
<text text-anchor="middle" x="314.46" y="-539" font-family="Helvetica,sans-Serif" font-size="10.00">#my_section</text>
</g>
</g>
</svg>
        <g id="navigator" transform="translate(0 0)" fill="#404254">
                <rect fill="#f2f5e9" fill-opacity="0.5" stroke="#606060" stroke-width=".5" x="0" y="0" width="60" height="60"/>
                <use id="zoomplus" xlink:href="#zoomPlus" x="17" y="9" onmousedown="handleZoom(evt,'in')"/>
                <use id="zoomminus" xlink:href="#zoomMin" x="42" y="9" onmousedown="handleZoom(evt,'out')"/>
                <use id="reset" xlink:href="#resetDef" x="30" y="36" onmousedown="handleReset()"/>
                <g id="arrowUp" xlink:href="#dirArrow" transform="translate(30 24)" onmousedown="handlePan(0,-1)">
                  <use xlink:href="#rim" fill="#404040">
                        <set attributeName="fill" to="#808080" begin="arrowUp.mouseover" end="arrowUp.mouseout"/>
                  </use>
                  <path fill="none" stroke="white" stroke-width="1.5" d="M0,-3.0v7 M-2.5,-0.5L0,-3.0L2.5,-0.5"/>
                </g>
                <g id="arrowRight" xlink:href="#dirArrow" transform="rotate(90) translate(36 -43)" onmousedown="handlePan(1,0)">
                  <use xlink:href="#rim" fill="#404040">
                        <set attributeName="fill" to="#808080" begin="arrowRight.mouseover" end="arrowRight.mouseout"/>
                  </use>
                  <path fill="none" stroke="white" stroke-width="1.5" d="M0,-3.0v7 M-2.5,-0.5L0,-3.0L2.5,-0.5"/>
                </g>
                <g id="arrowDown" xlink:href="#dirArrow" transform="rotate(180) translate(-30 -48)" onmousedown="handlePan(0,1)">
                  <use xlink:href="#rim" fill="#404040">
                        <set attributeName="fill" to="#808080" begin="arrowDown.mouseover" end="arrowDown.mouseout"/>
                  </use>
                  <path fill="none" stroke="white" stroke-width="1.5" d="M0,-3.0v7 M-2.5,-0.5L0,-3.0L2.5,-0.5"/>
                </g>
                <g id="arrowLeft" xlink:href="#dirArrow" transform="rotate(270) translate(-36 17)" onmousedown="handlePan(-1,0)">
                  <use xlink:href="#rim" fill="#404040">
                        <set attributeName="fill" to="#808080" begin="arrowLeft.mouseover" end="arrowLeft.mouseout"/>
                  </use>
                  <path fill="none" stroke="white" stroke-width="1.5" d="M0,-3.0v7 M-2.5,-0.5L0,-3.0L2.5,-0.5"/>
                </g>
        </g>
        <svg viewBox="0 0 15 15" width="100%" height="30px" preserveAspectRatio="xMaxYMin meet">
         <g id="arrow_out" transform="scale(0.3 0.3)">
          <a xlink:href="class_omni_o_g_l_1_1_cube__coll__graph_org.svg" target="_base">
           <rect id="button" ry="5" rx="5" y="6" x="6" height="38" width="38"
                fill="#f2f5e9" fill-opacity="0.5" stroke="#606060" stroke-width="1.0"/>
           <path id="arrow"
             d="M 11.500037,31.436501 C 11.940474,20.09759 22.043105,11.32322 32.158766,21.979434 L 37.068811,17.246167 C 37.068811,17.246167 37.088388,32 37.088388,32 L 22.160133,31.978069 C 22.160133,31.978069 26.997745,27.140456 26.997745,27.140456 C 18.528582,18.264221 13.291696,25.230495 11.500037,31.436501 z"
             style="fill:#404040;"/>
          </a>
         </g>
        </svg>
</svg>
