<?xml version="1.0" encoding="UTF-8" standalone="no"?>
<!DOCTYPE svg PUBLIC "-//W3C//DTD SVG 1.1//EN"
 "http://www.w3.org/Graphics/SVG/1.1/DTD/svg11.dtd">
<!-- Generated by graphviz version 2.30.1 (20130214.1330)
 -->
<!-- Title: OmniOGL::VoxelField Pages: 1 -->
<!--zoomable 506 -->
<svg id="main" version="1.1" xmlns="http://www.w3.org/2000/svg" xmlns:xlink="http://www.w3.org/1999/xlink" xml:space="preserve" onload="init(evt)">
        <defs>
                <circle id="rim" cx="0" cy="0" r="7"/>
                <circle id="rim2" cx="0" cy="0" r="3.5"/>
                <g id="zoomPlus">
                        <use xlink:href="#rim" fill="#404040">
                                <set attributeName="fill" to="#808080" begin="zoomplus.mouseover" end="zoomplus.mouseout"/>
                        </use>
                        <path d="M-4,0h8M0,-4v8" fill="none" stroke="white" stroke-width="1.5" pointer-events="none"/>
                </g>
                <g id="zoomMin">
                        <use xlink:href="#rim" fill="#404040">
                                <set attributeName="fill" to="#808080" begin="zoomminus.mouseover" end="zoomminus.mouseout"/>
                        </use>
                        <path d="M-4,0h8" fill="none" stroke="white" stroke-width="1.5" pointer-events="none"/>
                </g>
                <g id="dirArrow">
                        <path fill="none" stroke="white" stroke-width="1.5" d="M0,-3.0v7 M-2.5,-0.5L0,-3.0L2.5,-0.5"/>
                </g>
               <g id="resetDef">
                       <use xlink:href="#rim2" fill="#404040">
                               <set attributeName="fill" to="#808080" begin="reset.mouseover" end="reset.mouseout"/>
                       </use>
               </g>
        </defs>

<script type="text/javascript">
var viewWidth = 723;
var viewHeight = 506;
var sectionId = 'dynsection-0';
</script>
<script xlink:href="svgpan.js"/>
<svg id="graph" class="graph">
<g id="viewport">
<title>OmniOGL::VoxelField</title>
<polygon fill="white" stroke="white" points="-4,5 -4,-502 720,-502 720,5 -4,5"/>
<!-- Node1 -->
<g id="node1" class="node"><title>Node1</title>
<polygon fill="#bfbfbf" stroke="black" points="434,-1 434,-91 546,-91 546,-1 434,-1"/>
<text text-anchor="middle" x="490" y="-79" font-family="Helvetica,sans-Serif" font-size="10.00">OmniOGL::VoxelField</text>
<polyline fill="none" stroke="black" points="434,-72 546,-72 "/>
<text text-anchor="middle" x="490" y="-60" font-family="Helvetica,sans-Serif" font-size="10.00"> </text>
<polyline fill="none" stroke="black" points="434,-53 546,-53 "/>
<text text-anchor="start" x="442" y="-41" font-family="Helvetica,sans-Serif" font-size="10.00">+ VoxelField()</text>
<text text-anchor="start" x="442" y="-30" font-family="Helvetica,sans-Serif" font-size="10.00">+ ~VoxelField()</text>
<text text-anchor="start" x="442" y="-19" font-family="Helvetica,sans-Serif" font-size="10.00">+ FillWithRandom()</text>
<text text-anchor="start" x="442" y="-8" font-family="Helvetica,sans-Serif" font-size="10.00">+ GetCubeMeshes()</text>
</g>
<!-- Node2 -->
<g id="node2" class="node"><title>Node2</title>
<polygon fill="white" stroke="#bfbfbf" points="100.5,-440.5 100.5,-497.5 147.5,-497.5 147.5,-440.5 100.5,-440.5"/>
<text text-anchor="middle" x="124" y="-485.5" font-family="Helvetica,sans-Serif" font-size="10.00">GLfloat</text>
<polyline fill="none" stroke="#bfbfbf" points="100.5,-478.5 147.5,-478.5 "/>
<text text-anchor="middle" x="124" y="-466.5" font-family="Helvetica,sans-Serif" font-size="10.00"> </text>
<polyline fill="none" stroke="#bfbfbf" points="100.5,-459.5 147.5,-459.5 "/>
<text text-anchor="middle" x="124" y="-447.5" font-family="Helvetica,sans-Serif" font-size="10.00"> </text>
</g>
<!-- Node2&#45;&gt;Node1 -->
<g id="edge1" class="edge"><title>Node2&#45;&gt;Node1</title>
<path fill="none" stroke="#404040" d="M130.139,-440.387C134.068,-424.696 139.785,-404.876 147,-388 171.272,-331.227 178.049,-315.908 217,-268 276.547,-194.76 363.897,-129.289 423.655,-88.9698"/>
<polygon fill="none" stroke="#404040" points="423.762,-88.8978 426.527,-82.2377 433.738,-82.2282 430.974,-88.8883 423.762,-88.8978"/>
<text text-anchor="middle" x="275" y="-242" font-family="Helvetica,sans-Serif" font-size="10.00"> #vox_size</text>
<text text-anchor="middle" x="275" y="-231" font-family="Helvetica,sans-Serif" font-size="10.00">#origin</text>
</g>
<!-- Node8 -->
<g id="node8" class="node"><title>Node8</title>
<g id="a_node8"><a xlink:href="class_omni_o_g_l_1_1_voxel.html" target="_top" xlink:title="A class which represents a single perfectly cubic area of space. This area of space is represented by...">
<polygon fill="white" stroke="black" points="226,-268.5 226,-369.5 390,-369.5 390,-268.5 226,-268.5"/>
<text text-anchor="middle" x="308" y="-357.5" font-family="Helvetica,sans-Serif" font-size="10.00">OmniOGL::Voxel</text>
<polyline fill="none" stroke="black" points="226,-350.5 390,-350.5 "/>
<text text-anchor="middle" x="308" y="-338.5" font-family="Helvetica,sans-Serif" font-size="10.00"> </text>
<polyline fill="none" stroke="black" points="226,-331.5 390,-331.5 "/>
<text text-anchor="start" x="234" y="-319.5" font-family="Helvetica,sans-Serif" font-size="10.00">+ Voxel()</text>
<text text-anchor="start" x="234" y="-308.5" font-family="Helvetica,sans-Serif" font-size="10.00">+ ~Voxel()</text>
<text text-anchor="start" x="234" y="-297.5" font-family="Helvetica,sans-Serif" font-size="10.00">+ AddCubeMesh()</text>
<text text-anchor="start" x="234" y="-286.5" font-family="Helvetica,sans-Serif" font-size="10.00">+ operator=()</text>
<text text-anchor="start" x="234" y="-275.5" font-family="Helvetica,sans-Serif" font-size="10.00">+ SetMarchingCubesParameters()</text>
</a>
</g>
</g>
<!-- Node2&#45;&gt;Node8 -->
<g id="edge9" class="edge"><title>Node2&#45;&gt;Node8</title>
<path fill="none" stroke="#404040" d="M137.747,-440.223C147.065,-423.512 160.645,-402.702 177,-388 188.465,-377.693 201.777,-368.475 215.434,-360.403"/>
<polygon fill="none" stroke="#404040" points="215.482,-360.376 218.727,-353.936 225.92,-354.455 222.674,-360.895 215.482,-360.376"/>
<text text-anchor="middle" x="196" y="-413.5" font-family="Helvetica,sans-Serif" font-size="10.00"> #radius</text>
<text text-anchor="middle" x="196" y="-402.5" font-family="Helvetica,sans-Serif" font-size="10.00">#corners</text>
<text text-anchor="middle" x="196" y="-391.5" font-family="Helvetica,sans-Serif" font-size="10.00">#origin</text>
</g>
<!-- Node3 -->
<g id="node3" class="node"><title>Node3</title>
<polygon fill="white" stroke="#bfbfbf" points="500.5,-146.5 500.5,-203.5 611.5,-203.5 611.5,-146.5 500.5,-146.5"/>
<text text-anchor="middle" x="556" y="-191.5" font-family="Helvetica,sans-Serif" font-size="10.00">std::vector&lt; GLchar &gt;</text>
<polyline fill="none" stroke="#bfbfbf" points="500.5,-184.5 611.5,-184.5 "/>
<text text-anchor="middle" x="556" y="-172.5" font-family="Helvetica,sans-Serif" font-size="10.00"> </text>
<polyline fill="none" stroke="#bfbfbf" points="500.5,-165.5 611.5,-165.5 "/>
<text text-anchor="middle" x="556" y="-153.5" font-family="Helvetica,sans-Serif" font-size="10.00"> </text>
</g>
<!-- Node3&#45;&gt;Node1 -->
<g id="edge2" class="edge"><title>Node3&#45;&gt;Node1</title>
<path fill="none" stroke="#404040" d="M541.679,-146.443C534.967,-133.528 526.719,-117.655 518.798,-102.415"/>
<polygon fill="none" stroke="#404040" points="518.649,-102.128 512.333,-98.6483 513.115,-91.4798 519.432,-94.9592 518.649,-102.128"/>
<text text-anchor="middle" x="540.5" y="-113.5" font-family="Helvetica,sans-Serif" font-size="10.00"> #vox</text>
</g>
<!-- Node4 -->
<g id="node4" class="node"><title>Node4</title>
<polygon fill="white" stroke="#bfbfbf" points="491,-440.5 491,-497.5 539,-497.5 539,-440.5 491,-440.5"/>
<text text-anchor="middle" x="515" y="-485.5" font-family="Helvetica,sans-Serif" font-size="10.00">GLchar</text>
<polyline fill="none" stroke="#bfbfbf" points="491,-478.5 539,-478.5 "/>
<text text-anchor="middle" x="515" y="-466.5" font-family="Helvetica,sans-Serif" font-size="10.00"> </text>
<polyline fill="none" stroke="#bfbfbf" points="491,-459.5 539,-459.5 "/>
<text text-anchor="middle" x="515" y="-447.5" font-family="Helvetica,sans-Serif" font-size="10.00"> </text>
</g>
<!-- Node4&#45;&gt;Node3 -->
<g id="edge3" class="edge"><title>Node4&#45;&gt;Node3</title>
<path fill="none" stroke="#404040" d="M534.075,-440.263C537.253,-434.455 540.123,-428.204 542,-422 563.254,-351.754 562.308,-265.174 559.372,-215.705"/>
<polygon fill="none" stroke="#404040" points="559.368,-215.638 554.979,-209.916 558.573,-203.664 562.962,-209.386 559.368,-215.638"/>
<text text-anchor="middle" x="585.5" y="-316.5" font-family="Helvetica,sans-Serif" font-size="10.00"> +elements</text>
</g>
<!-- Node4&#45;&gt;Node8 -->
<g id="edge11" class="edge"><title>Node4&#45;&gt;Node8</title>
<path fill="none" stroke="#404040" d="M491.425,-440.324C486.323,-434.297 480.968,-427.945 476,-422 463.448,-406.978 463.38,-400.11 448,-388 433.807,-376.824 417.479,-366.848 401.099,-358.207"/>
<polygon fill="none" stroke="#404040" points="401.038,-358.176 393.876,-359.012 390.349,-352.722 397.512,-351.886 401.038,-358.176"/>
<text text-anchor="middle" x="509" y="-402.5" font-family="Helvetica,sans-Serif" font-size="10.00"> #num_vertices</text>
</g>
<!-- Node5 -->
<g id="node5" class="node"><title>Node5</title>
<g id="a_node5"><a xlink:title="STL class.">
<polygon fill="white" stroke="#bfbfbf" points="623.5,-290.5 623.5,-347.5 708.5,-347.5 708.5,-290.5 623.5,-290.5"/>
<text text-anchor="middle" x="666" y="-335.5" font-family="Helvetica,sans-Serif" font-size="10.00">std::vector&lt; T &gt;</text>
<polyline fill="none" stroke="#bfbfbf" points="623.5,-328.5 708.5,-328.5 "/>
<text text-anchor="middle" x="666" y="-316.5" font-family="Helvetica,sans-Serif" font-size="10.00"> </text>
<polyline fill="none" stroke="#bfbfbf" points="623.5,-309.5 708.5,-309.5 "/>
<text text-anchor="middle" x="666" y="-297.5" font-family="Helvetica,sans-Serif" font-size="10.00"> </text>
</a>
</g>
</g>
<!-- Node5&#45;&gt;Node3 -->
<g id="edge4" class="edge"><title>Node5&#45;&gt;Node3</title>
<path fill="none" stroke="orange" d="M638.365,-282.326C619.479,-257.945 594.815,-226.106 577.416,-203.646"/>
<polygon fill="orange" stroke="orange" points="635.639,-284.522 644.53,-290.284 641.173,-280.235 635.639,-284.522"/>
<text text-anchor="middle" x="637.5" y="-236.5" font-family="Helvetica,sans-Serif" font-size="10.00"> &lt; GLchar &gt;</text>
</g>
<!-- Node7 -->
<g id="node7" class="node"><title>Node7</title>
<polygon fill="white" stroke="#bfbfbf" points="368,-141 368,-209 482,-209 482,-141 368,-141"/>
<text text-anchor="start" x="376" y="-197" font-family="Helvetica,sans-Serif" font-size="10.00">std::vector&lt; OmniOGL</text>
<text text-anchor="middle" x="425" y="-186" font-family="Helvetica,sans-Serif" font-size="10.00">::Voxel &gt;</text>
<polyline fill="none" stroke="#bfbfbf" points="368,-179 482,-179 "/>
<text text-anchor="middle" x="425" y="-167" font-family="Helvetica,sans-Serif" font-size="10.00"> </text>
<polyline fill="none" stroke="#bfbfbf" points="368,-160 482,-160 "/>
<text text-anchor="middle" x="425" y="-148" font-family="Helvetica,sans-Serif" font-size="10.00"> </text>
</g>
<!-- Node5&#45;&gt;Node7 -->
<g id="edge14" class="edge"><title>Node5&#45;&gt;Node7</title>
<path fill="none" stroke="orange" d="M633.039,-283.707C625.657,-277.642 617.482,-271.998 609,-268 563.791,-246.694 542.411,-272.923 498,-250 479.238,-240.316 462.377,-224.027 449.599,-209.193"/>
<polygon fill="orange" stroke="orange" points="630.877,-286.465 640.716,-290.395 635.475,-281.187 630.877,-286.465"/>
<text text-anchor="middle" x="546" y="-236.5" font-family="Helvetica,sans-Serif" font-size="10.00"> &lt; OmniOGL::Voxel &gt;</text>
</g>
<!-- Node6 -->
<g id="node6" class="node"><title>Node6</title>
<polygon fill="white" stroke="#bfbfbf" points="651.5,-440.5 651.5,-497.5 680.5,-497.5 680.5,-440.5 651.5,-440.5"/>
<text text-anchor="middle" x="666" y="-485.5" font-family="Helvetica,sans-Serif" font-size="10.00">T</text>
<polyline fill="none" stroke="#bfbfbf" points="651.5,-478.5 680.5,-478.5 "/>
<text text-anchor="middle" x="666" y="-466.5" font-family="Helvetica,sans-Serif" font-size="10.00"> </text>
<polyline fill="none" stroke="#bfbfbf" points="651.5,-459.5 680.5,-459.5 "/>
<text text-anchor="middle" x="666" y="-447.5" font-family="Helvetica,sans-Serif" font-size="10.00"> </text>
</g>
<!-- Node6&#45;&gt;Node5 -->
<g id="edge5" class="edge"><title>Node6&#45;&gt;Node5</title>
<path fill="none" stroke="#404040" d="M666,-440.162C666,-417.527 666,-385.296 666,-359.913"/>
<polygon fill="none" stroke="#404040" points="666,-359.713 662,-353.713 666,-347.713 670,-353.713 666,-359.713"/>
<text text-anchor="middle" x="690.5" y="-402.5" font-family="Helvetica,sans-Serif" font-size="10.00"> +elements</text>
</g>
<!-- Node7&#45;&gt;Node1 -->
<g id="edge6" class="edge"><title>Node7&#45;&gt;Node1</title>
<path fill="none" stroke="#404040" d="M441.908,-140.964C447.962,-129.136 454.962,-115.459 461.714,-102.266"/>
<polygon fill="none" stroke="#404040" points="461.835,-102.03 461.008,-94.866 467.303,-91.3474 468.13,-98.5109 461.835,-102.03"/>
<text text-anchor="middle" x="483" y="-113.5" font-family="Helvetica,sans-Serif" font-size="10.00"> #voxel_vec</text>
</g>
<!-- Node8&#45;&gt;Node7 -->
<g id="edge7" class="edge"><title>Node8&#45;&gt;Node7</title>
<path fill="none" stroke="#404040" d="M335.048,-268.45C343.516,-254.744 353.435,-240.273 364,-228 367.078,-224.424 370.411,-220.883 373.877,-217.431"/>
<polygon fill="none" stroke="#404040" points="373.993,-217.321 375.592,-210.29 382.698,-209.062 381.099,-216.093 373.993,-217.321"/>
<text text-anchor="middle" x="388.5" y="-236.5" font-family="Helvetica,sans-Serif" font-size="10.00"> +elements</text>
</g>
<!-- Node9 -->
<g id="node9" class="node"><title>Node9</title>
<polygon fill="white" stroke="#bfbfbf" points="375.5,-440.5 375.5,-497.5 426.5,-497.5 426.5,-440.5 375.5,-440.5"/>
<text text-anchor="middle" x="401" y="-485.5" font-family="Helvetica,sans-Serif" font-size="10.00">GLshort</text>
<polyline fill="none" stroke="#bfbfbf" points="375.5,-478.5 426.5,-478.5 "/>
<text text-anchor="middle" x="401" y="-466.5" font-family="Helvetica,sans-Serif" font-size="10.00"> </text>
<polyline fill="none" stroke="#bfbfbf" points="375.5,-459.5 426.5,-459.5 "/>
<text text-anchor="middle" x="401" y="-447.5" font-family="Helvetica,sans-Serif" font-size="10.00"> </text>
</g>
<!-- Node9&#45;&gt;Node8 -->
<g id="edge8" class="edge"><title>Node9&#45;&gt;Node8</title>
<path fill="none" stroke="#404040" d="M397.155,-440.252C394.028,-424.149 388.516,-403.96 379,-388 377.238,-385.045 375.314,-382.134 373.263,-379.278"/>
<polygon fill="none" stroke="#404040" points="373.244,-379.254 366.398,-376.988 365.857,-369.797 372.703,-372.064 373.244,-379.254"/>
<text text-anchor="middle" x="418.5" y="-402.5" font-family="Helvetica,sans-Serif" font-size="10.00"> #mc_index</text>
</g>
<!-- Node10 -->
<g id="node10" class="node"><title>Node10</title>
<polygon fill="white" stroke="#bfbfbf" points="0,-440.5 0,-497.5 56,-497.5 56,-440.5 0,-440.5"/>
<text text-anchor="middle" x="28" y="-485.5" font-family="Helvetica,sans-Serif" font-size="10.00">GLushort</text>
<polyline fill="none" stroke="#bfbfbf" points="0,-478.5 56,-478.5 "/>
<text text-anchor="middle" x="28" y="-466.5" font-family="Helvetica,sans-Serif" font-size="10.00"> </text>
<polyline fill="none" stroke="#bfbfbf" points="0,-459.5 56,-459.5 "/>
<text text-anchor="middle" x="28" y="-447.5" font-family="Helvetica,sans-Serif" font-size="10.00"> </text>
</g>
<!-- Node10&#45;&gt;Node8 -->
<g id="edge10" class="edge"><title>Node10&#45;&gt;Node8</title>
<path fill="none" stroke="#404040" d="M36.9936,-440.232C43.9618,-422.876 55.2837,-401.359 72,-388 112.294,-355.798 167.204,-338.845 213.919,-329.921"/>
<polygon fill="none" stroke="#404040" points="214.106,-329.887 219.305,-324.891 225.917,-327.768 220.718,-332.765 214.106,-329.887"/>
<text text-anchor="middle" x="109.5" y="-408" font-family="Helvetica,sans-Serif" font-size="10.00"> #CornersOfEdge</text>
<text text-anchor="middle" x="109.5" y="-397" font-family="Helvetica,sans-Serif" font-size="10.00">#EdgesByAxis</text>
</g>
<!-- Node11 -->
<g id="node11" class="node"><title>Node11</title>
<polygon fill="white" stroke="#bfbfbf" points="172,-440.5 172,-497.5 252,-497.5 252,-440.5 172,-440.5"/>
<text text-anchor="middle" x="212" y="-485.5" font-family="Helvetica,sans-Serif" font-size="10.00">static GLuchar</text>
<polyline fill="none" stroke="#bfbfbf" points="172,-478.5 252,-478.5 "/>
<text text-anchor="middle" x="212" y="-466.5" font-family="Helvetica,sans-Serif" font-size="10.00"> </text>
<polyline fill="none" stroke="#bfbfbf" points="172,-459.5 252,-459.5 "/>
<text text-anchor="middle" x="212" y="-447.5" font-family="Helvetica,sans-Serif" font-size="10.00"> </text>
</g>
<!-- Node11&#45;&gt;Node8 -->
<g id="edge12" class="edge"><title>Node11&#45;&gt;Node8</title>
<path fill="none" stroke="#404040" d="M214.395,-440.128C216.777,-423.982 221.528,-403.792 231,-388 232.806,-384.989 234.79,-382.039 236.913,-379.158"/>
<polygon fill="none" stroke="#404040" points="237.065,-378.971 237.731,-371.79 244.615,-369.643 243.949,-376.824 237.065,-378.971"/>
<text text-anchor="middle" x="267.5" y="-402.5" font-family="Helvetica,sans-Serif" font-size="10.00"> #InvertedIndices</text>
</g>
<!-- Node12 -->
<g id="node12" class="node"><title>Node12</title>
<polygon fill="white" stroke="#bfbfbf" points="270.5,-440.5 270.5,-497.5 345.5,-497.5 345.5,-440.5 270.5,-440.5"/>
<text text-anchor="middle" x="308" y="-485.5" font-family="Helvetica,sans-Serif" font-size="10.00">static GLchar</text>
<polyline fill="none" stroke="#bfbfbf" points="270.5,-478.5 345.5,-478.5 "/>
<text text-anchor="middle" x="308" y="-466.5" font-family="Helvetica,sans-Serif" font-size="10.00"> </text>
<polyline fill="none" stroke="#bfbfbf" points="270.5,-459.5 345.5,-459.5 "/>
<text text-anchor="middle" x="308" y="-447.5" font-family="Helvetica,sans-Serif" font-size="10.00"> </text>
</g>
<!-- Node12&#45;&gt;Node8 -->
<g id="edge13" class="edge"><title>Node12&#45;&gt;Node8</title>
<path fill="none" stroke="#404040" d="M308,-440.162C308,-423.651 308,-402.034 308,-381.693"/>
<polygon fill="none" stroke="#404040" points="308,-381.583 304,-375.583 308,-369.583 312,-375.582 308,-381.583"/>
<text text-anchor="middle" x="343" y="-408" font-family="Helvetica,sans-Serif" font-size="10.00"> #EdgesOfIndex</text>
<text text-anchor="middle" x="343" y="-397" font-family="Helvetica,sans-Serif" font-size="10.00">#VerticeCount</text>
</g>
<!-- Node13 -->
<g id="node13" class="node"><title>Node13</title>
<polygon fill="white" stroke="#bfbfbf" points="629.5,-146.5 629.5,-203.5 674.5,-203.5 674.5,-146.5 629.5,-146.5"/>
<text text-anchor="middle" x="652" y="-191.5" font-family="Helvetica,sans-Serif" font-size="10.00">GLuint</text>
<polyline fill="none" stroke="#bfbfbf" points="629.5,-184.5 674.5,-184.5 "/>
<text text-anchor="middle" x="652" y="-172.5" font-family="Helvetica,sans-Serif" font-size="10.00"> </text>
<polyline fill="none" stroke="#bfbfbf" points="629.5,-165.5 674.5,-165.5 "/>
<text text-anchor="middle" x="652" y="-153.5" font-family="Helvetica,sans-Serif" font-size="10.00"> </text>
</g>
<!-- Node13&#45;&gt;Node1 -->
<g id="edge15" class="edge"><title>Node13&#45;&gt;Node1</title>
<path fill="none" stroke="#404040" d="M629.47,-148.923C626.378,-145.824 623.174,-142.774 620,-140 600.16,-122.657 577.151,-105.384 556.054,-90.5153"/>
<polygon fill="none" stroke="#404040" points="556.039,-90.5045 548.829,-90.354 546.195,-83.6412 553.405,-83.7916 556.039,-90.5045"/>
<text text-anchor="middle" x="612.5" y="-113.5" font-family="Helvetica,sans-Serif" font-size="10.00"> #width</text>
</g>
</g>
</svg>
        <g id="navigator" transform="translate(0 0)" fill="#404254">
                <rect fill="#f2f5e9" fill-opacity="0.5" stroke="#606060" stroke-width=".5" x="0" y="0" width="60" height="60"/>
                <use id="zoomplus" xlink:href="#zoomPlus" x="17" y="9" onmousedown="handleZoom(evt,'in')"/>
                <use id="zoomminus" xlink:href="#zoomMin" x="42" y="9" onmousedown="handleZoom(evt,'out')"/>
                <use id="reset" xlink:href="#resetDef" x="30" y="36" onmousedown="handleReset()"/>
                <g id="arrowUp" xlink:href="#dirArrow" transform="translate(30 24)" onmousedown="handlePan(0,-1)">
                  <use xlink:href="#rim" fill="#404040">
                        <set attributeName="fill" to="#808080" begin="arrowUp.mouseover" end="arrowUp.mouseout"/>
                  </use>
                  <path fill="none" stroke="white" stroke-width="1.5" d="M0,-3.0v7 M-2.5,-0.5L0,-3.0L2.5,-0.5"/>
                </g>
                <g id="arrowRight" xlink:href="#dirArrow" transform="rotate(90) translate(36 -43)" onmousedown="handlePan(1,0)">
                  <use xlink:href="#rim" fill="#404040">
                        <set attributeName="fill" to="#808080" begin="arrowRight.mouseover" end="arrowRight.mouseout"/>
                  </use>
                  <path fill="none" stroke="white" stroke-width="1.5" d="M0,-3.0v7 M-2.5,-0.5L0,-3.0L2.5,-0.5"/>
                </g>
                <g id="arrowDown" xlink:href="#dirArrow" transform="rotate(180) translate(-30 -48)" onmousedown="handlePan(0,1)">
                  <use xlink:href="#rim" fill="#404040">
                        <set attributeName="fill" to="#808080" begin="arrowDown.mouseover" end="arrowDown.mouseout"/>
                  </use>
                  <path fill="none" stroke="white" stroke-width="1.5" d="M0,-3.0v7 M-2.5,-0.5L0,-3.0L2.5,-0.5"/>
                </g>
                <g id="arrowLeft" xlink:href="#dirArrow" transform="rotate(270) translate(-36 17)" onmousedown="handlePan(-1,0)">
                  <use xlink:href="#rim" fill="#404040">
                        <set attributeName="fill" to="#808080" begin="arrowLeft.mouseover" end="arrowLeft.mouseout"/>
                  </use>
                  <path fill="none" stroke="white" stroke-width="1.5" d="M0,-3.0v7 M-2.5,-0.5L0,-3.0L2.5,-0.5"/>
                </g>
        </g>
        <svg viewBox="0 0 15 15" width="100%" height="30px" preserveAspectRatio="xMaxYMin meet">
         <g id="arrow_out" transform="scale(0.3 0.3)">
          <a xlink:href="class_omni_o_g_l_1_1_voxel_field__coll__graph_org.svg" target="_base">
           <rect id="button" ry="5" rx="5" y="6" x="6" height="38" width="38"
                fill="#f2f5e9" fill-opacity="0.5" stroke="#606060" stroke-width="1.0"/>
           <path id="arrow"
             d="M 11.500037,31.436501 C 11.940474,20.09759 22.043105,11.32322 32.158766,21.979434 L 37.068811,17.246167 C 37.068811,17.246167 37.088388,32 37.088388,32 L 22.160133,31.978069 C 22.160133,31.978069 26.997745,27.140456 26.997745,27.140456 C 18.528582,18.264221 13.291696,25.230495 11.500037,31.436501 z"
             style="fill:#404040;"/>
          </a>
         </g>
        </svg>
</svg>
