<?xml version="1.0" encoding="UTF-8" standalone="no"?>
<!DOCTYPE svg PUBLIC "-//W3C//DTD SVG 1.1//EN"
 "http://www.w3.org/Graphics/SVG/1.1/DTD/svg11.dtd">
<!-- Generated by graphviz version 2.30.1 (20130214.1330)
 -->
<!-- Title: OmniOGL::Scene::ApplyLighting Pages: 1 -->
<svg width="338pt" height="28pt"
 viewBox="0.00 0.00 338.00 28.00" xmlns="http://www.w3.org/2000/svg" xmlns:xlink="http://www.w3.org/1999/xlink">
<g id="graph0" class="graph" transform="scale(1 1) rotate(0) translate(4 24)">
<title>OmniOGL::Scene::ApplyLighting</title>
<polygon fill="white" stroke="white" points="-4,5 -4,-24 335,-24 335,5 -4,5"/>
<!-- Node1 -->
<g id="node1" class="node"><title>Node1</title>
<polygon fill="#bfbfbf" stroke="black" points="0,-0.5 0,-19.5 158,-19.5 158,-0.5 0,-0.5"/>
<text text-anchor="middle" x="79" y="-7.5" font-family="Helvetica,sans-Serif" font-size="10.00">OmniOGL::Scene::ApplyLighting</text>
</g>
<!-- Node2 -->
<g id="node2" class="node"><title>Node2</title>
<g id="a_node2"><a xlink:href="_exec_8cpp.html#a133aba9fe60f6d354d05d69e0bbd31a7" target="_top" xlink:title="render">
<polygon fill="white" stroke="black" points="194,-0.5 194,-19.5 238,-19.5 238,-0.5 194,-0.5"/>
<text text-anchor="middle" x="216" y="-7.5" font-family="Helvetica,sans-Serif" font-size="10.00">render</text>
</a>
</g>
</g>
<!-- Node1&#45;&gt;Node2 -->
<g id="edge1" class="edge"><title>Node1&#45;&gt;Node2</title>
<path fill="none" stroke="midnightblue" d="M168.185,-10C177.651,-10 186.516,-10 193.931,-10"/>
<polygon fill="midnightblue" stroke="midnightblue" points="168.139,-6.5001 158.139,-10 168.139,-13.5001 168.139,-6.5001"/>
</g>
<!-- Node3 -->
<g id="node3" class="node"><title>Node3</title>
<g id="a_node3"><a xlink:href="_exec_8cpp.html#a66e65252a6985e382838442f280f46ba" target="_top" xlink:title="WinMain">
<polygon fill="white" stroke="black" points="274.5,-0.5 274.5,-19.5 329.5,-19.5 329.5,-0.5 274.5,-0.5"/>
<text text-anchor="middle" x="302" y="-7.5" font-family="Helvetica,sans-Serif" font-size="10.00">WinMain</text>
</a>
</g>
</g>
<!-- Node2&#45;&gt;Node3 -->
<g id="edge2" class="edge"><title>Node2&#45;&gt;Node3</title>
<path fill="none" stroke="midnightblue" d="M248.253,-10C256.845,-10 266.081,-10 274.386,-10"/>
<polygon fill="midnightblue" stroke="midnightblue" points="248.197,-6.5001 238.197,-10 248.197,-13.5001 248.197,-6.5001"/>
</g>
</g>
</svg>
