<?xml version="1.0" encoding="UTF-8" standalone="no"?>
<!DOCTYPE svg PUBLIC "-//W3C//DTD SVG 1.1//EN"
 "http://www.w3.org/Graphics/SVG/1.1/DTD/svg11.dtd">
<!-- Generated by graphviz version 2.30.1 (20130214.1330)
 -->
<!-- Title: OmniOGL::InputEvents::Activate Pages: 1 -->
<svg width="428pt" height="136pt"
 viewBox="0.00 0.00 428.00 136.00" xmlns="http://www.w3.org/2000/svg" xmlns:xlink="http://www.w3.org/1999/xlink">
<g id="graph0" class="graph" transform="scale(1 1) rotate(0) translate(4 132)">
<title>OmniOGL::InputEvents::Activate</title>
<polygon fill="white" stroke="white" points="-4,5 -4,-132 425,-132 425,5 -4,5"/>
<!-- Node1 -->
<g id="node1" class="node"><title>Node1</title>
<polygon fill="#bfbfbf" stroke="black" points="0,-49 0,-79 116,-79 116,-49 0,-49"/>
<text text-anchor="start" x="8" y="-67" font-family="Helvetica,sans-Serif" font-size="10.00">OmniOGL::InputEvents</text>
<text text-anchor="middle" x="58" y="-56" font-family="Helvetica,sans-Serif" font-size="10.00">::Activate</text>
</g>
<!-- Node2 -->
<g id="node2" class="node"><title>Node2</title>
<g id="a_node2"><a xlink:href="class_omni_o_g_l_1_1_input_events.html#a88d861496c66f76d2dbf4008b547ab8e" target="_top" xlink:title="OmniOGL::InputEvents\l::_evnt_Keybrd">
<polygon fill="white" stroke="black" points="152,-98 152,-128 268,-128 268,-98 152,-98"/>
<text text-anchor="start" x="160" y="-116" font-family="Helvetica,sans-Serif" font-size="10.00">OmniOGL::InputEvents</text>
<text text-anchor="middle" x="210" y="-105" font-family="Helvetica,sans-Serif" font-size="10.00">::_evnt_Keybrd</text>
</a>
</g>
</g>
<!-- Node1&#45;&gt;Node2 -->
<g id="edge1" class="edge"><title>Node1&#45;&gt;Node2</title>
<path fill="none" stroke="midnightblue" d="M105.229,-79.1014C120.413,-84.0615 137.451,-89.6274 153.264,-94.7929"/>
<polygon fill="midnightblue" stroke="midnightblue" points="152.331,-98.1702 162.924,-97.9484 154.505,-91.5162 152.331,-98.1702"/>
</g>
<!-- Node4 -->
<g id="node4" class="node"><title>Node4</title>
<g id="a_node4"><a xlink:href="class_omni_o_g_l_1_1_input_events.html#a8004e6c0d7db77de53605fb526761cc9" target="_top" xlink:title="OmniOGL::InputEvents\l::_evnt_MouseMov">
<polygon fill="white" stroke="black" points="152,-49 152,-79 268,-79 268,-49 152,-49"/>
<text text-anchor="start" x="160" y="-67" font-family="Helvetica,sans-Serif" font-size="10.00">OmniOGL::InputEvents</text>
<text text-anchor="middle" x="210" y="-56" font-family="Helvetica,sans-Serif" font-size="10.00">::_evnt_MouseMov</text>
</a>
</g>
</g>
<!-- Node1&#45;&gt;Node4 -->
<g id="edge3" class="edge"><title>Node1&#45;&gt;Node4</title>
<path fill="none" stroke="midnightblue" d="M116.136,-64C124.377,-64 132.923,-64 141.344,-64"/>
<polygon fill="midnightblue" stroke="midnightblue" points="141.526,-67.5001 151.525,-64 141.525,-60.5001 141.526,-67.5001"/>
</g>
<!-- Node6 -->
<g id="node6" class="node"><title>Node6</title>
<g id="a_node6"><a xlink:href="class_omni_o_g_l_1_1_input_events.html#a5bbcc2fa9e488f4e50a4186fed9b0fc4" target="_top" xlink:title="OmniOGL::InputEvents\l::_evnt_MouseBtn">
<polygon fill="white" stroke="black" points="152,-0 152,-30 268,-30 268,-0 152,-0"/>
<text text-anchor="start" x="160" y="-18" font-family="Helvetica,sans-Serif" font-size="10.00">OmniOGL::InputEvents</text>
<text text-anchor="middle" x="210" y="-7" font-family="Helvetica,sans-Serif" font-size="10.00">::_evnt_MouseBtn</text>
</a>
</g>
</g>
<!-- Node1&#45;&gt;Node6 -->
<g id="edge5" class="edge"><title>Node1&#45;&gt;Node6</title>
<path fill="none" stroke="midnightblue" d="M105.229,-48.8986C120.413,-43.9385 137.451,-38.3726 153.264,-33.2071"/>
<polygon fill="midnightblue" stroke="midnightblue" points="154.505,-36.4838 162.924,-30.0516 152.331,-29.8298 154.505,-36.4838"/>
</g>
<!-- Node3 -->
<g id="node3" class="node"><title>Node3</title>
<g id="a_node3"><a xlink:href="class_omni_o_g_l_1_1_input_events.html#aa5cdedcae6b267a6c61de670d602f8fa" target="_top" xlink:title="OmniOGL::InputEvents\l::evnt_Keybrd">
<polygon fill="white" stroke="black" points="304,-98 304,-128 420,-128 420,-98 304,-98"/>
<text text-anchor="start" x="312" y="-116" font-family="Helvetica,sans-Serif" font-size="10.00">OmniOGL::InputEvents</text>
<text text-anchor="middle" x="362" y="-105" font-family="Helvetica,sans-Serif" font-size="10.00">::evnt_Keybrd</text>
</a>
</g>
</g>
<!-- Node2&#45;&gt;Node3 -->
<g id="edge2" class="edge"><title>Node2&#45;&gt;Node3</title>
<path fill="none" stroke="midnightblue" d="M268.136,-113C276.377,-113 284.923,-113 293.344,-113"/>
<polygon fill="midnightblue" stroke="midnightblue" points="293.526,-116.5 303.525,-113 293.525,-109.5 293.526,-116.5"/>
</g>
<!-- Node5 -->
<g id="node5" class="node"><title>Node5</title>
<g id="a_node5"><a xlink:href="class_omni_o_g_l_1_1_input_events.html#af6143afa6b73f4a0f9447feaae2ef38c" target="_top" xlink:title="OmniOGL::InputEvents\l::evnt_MouseMov">
<polygon fill="white" stroke="black" points="304,-49 304,-79 420,-79 420,-49 304,-49"/>
<text text-anchor="start" x="312" y="-67" font-family="Helvetica,sans-Serif" font-size="10.00">OmniOGL::InputEvents</text>
<text text-anchor="middle" x="362" y="-56" font-family="Helvetica,sans-Serif" font-size="10.00">::evnt_MouseMov</text>
</a>
</g>
</g>
<!-- Node4&#45;&gt;Node5 -->
<g id="edge4" class="edge"><title>Node4&#45;&gt;Node5</title>
<path fill="none" stroke="midnightblue" d="M268.136,-64C276.377,-64 284.923,-64 293.344,-64"/>
<polygon fill="midnightblue" stroke="midnightblue" points="293.526,-67.5001 303.525,-64 293.525,-60.5001 293.526,-67.5001"/>
</g>
<!-- Node7 -->
<g id="node7" class="node"><title>Node7</title>
<g id="a_node7"><a xlink:href="class_omni_o_g_l_1_1_input_events.html#a09eb909106295408dd28e2e74d11b74f" target="_top" xlink:title="OmniOGL::InputEvents\l::evnt_MouseBtn">
<polygon fill="white" stroke="black" points="304,-0 304,-30 420,-30 420,-0 304,-0"/>
<text text-anchor="start" x="312" y="-18" font-family="Helvetica,sans-Serif" font-size="10.00">OmniOGL::InputEvents</text>
<text text-anchor="middle" x="362" y="-7" font-family="Helvetica,sans-Serif" font-size="10.00">::evnt_MouseBtn</text>
</a>
</g>
</g>
<!-- Node6&#45;&gt;Node7 -->
<g id="edge6" class="edge"><title>Node6&#45;&gt;Node7</title>
<path fill="none" stroke="midnightblue" d="M268.136,-15C276.377,-15 284.923,-15 293.344,-15"/>
<polygon fill="midnightblue" stroke="midnightblue" points="293.526,-18.5001 303.525,-15 293.525,-11.5001 293.526,-18.5001"/>
</g>
</g>
</svg>
