<?xml version="1.0" encoding="UTF-8" standalone="no"?>
<!DOCTYPE svg PUBLIC "-//W3C//DTD SVG 1.1//EN"
 "http://www.w3.org/Graphics/SVG/1.1/DTD/svg11.dtd">
<!-- Generated by graphviz version 2.30.1 (20130214.1330)
 -->
<!-- Title: OmniOGL::Scene::UpdateAdjacentSectionsArray Pages: 1 -->
<svg width="696pt" height="66pt"
 viewBox="0.00 0.00 696.00 66.00" xmlns="http://www.w3.org/2000/svg" xmlns:xlink="http://www.w3.org/1999/xlink">
<g id="graph0" class="graph" transform="scale(1 1) rotate(0) translate(4 62)">
<title>OmniOGL::Scene::UpdateAdjacentSectionsArray</title>
<polygon fill="white" stroke="white" points="-4,5 -4,-62 693,-62 693,5 -4,5"/>
<!-- Node1 -->
<g id="node1" class="node"><title>Node1</title>
<polygon fill="#bfbfbf" stroke="black" points="0.5,-14 0.5,-44 169.5,-44 169.5,-14 0.5,-14"/>
<text text-anchor="start" x="8.5" y="-32" font-family="Helvetica,sans-Serif" font-size="10.00">OmniOGL::Scene::UpdateAdjacent</text>
<text text-anchor="middle" x="85" y="-21" font-family="Helvetica,sans-Serif" font-size="10.00">SectionsArray</text>
</g>
<!-- Node2 -->
<g id="node2" class="node"><title>Node2</title>
<g id="a_node2"><a xlink:href="class_omni_o_g_l_1_1_scene.html#aaebf69be455ff198016b48d5442e45d1" target="_top" xlink:title="The constructor for the Scene class. This is a fairly busy constructor since it&#39;s responsible for ini...">
<polygon fill="white" stroke="black" points="218,-38.5 218,-57.5 346,-57.5 346,-38.5 218,-38.5"/>
<text text-anchor="middle" x="282" y="-45.5" font-family="Helvetica,sans-Serif" font-size="10.00">OmniOGL::Scene::Scene</text>
</a>
</g>
</g>
<!-- Node1&#45;&gt;Node2 -->
<g id="edge1" class="edge"><title>Node1&#45;&gt;Node2</title>
<path fill="none" stroke="midnightblue" d="M179.869,-38.1462C192.786,-39.4048 205.787,-40.6716 217.965,-41.8581"/>
<polygon fill="midnightblue" stroke="midnightblue" points="179.838,-34.6267 169.546,-37.1404 179.16,-41.5938 179.838,-34.6267"/>
</g>
<!-- Node3 -->
<g id="node3" class="node"><title>Node3</title>
<g id="a_node3"><a xlink:href="class_omni_o_g_l_1_1_scene.html#aaf90a48c617a97b06e8b75320c0271b0" target="_top" xlink:title="OmniOGL::Scene::HandleInput">
<polygon fill="white" stroke="black" points="206.5,-0.5 206.5,-19.5 357.5,-19.5 357.5,-0.5 206.5,-0.5"/>
<text text-anchor="middle" x="282" y="-7.5" font-family="Helvetica,sans-Serif" font-size="10.00">OmniOGL::Scene::HandleInput</text>
</a>
</g>
</g>
<!-- Node1&#45;&gt;Node3 -->
<g id="edge2" class="edge"><title>Node1&#45;&gt;Node3</title>
<path fill="none" stroke="midnightblue" d="M179.603,-19.8797C188.541,-19.0088 197.523,-18.1337 206.247,-17.2836"/>
<polygon fill="midnightblue" stroke="midnightblue" points="179.16,-16.4062 169.546,-20.8596 179.838,-23.3733 179.16,-16.4062"/>
</g>
<!-- Node4 -->
<g id="node4" class="node"><title>Node4</title>
<g id="a_node4"><a xlink:href="class_omni_o_g_l_1_1_scene.html#ac65b18faabaa3d2af9a0a4b2f2fc0fe0" target="_top" xlink:title="The core of the rendering loop! This method iterates through all possible containers of objects&#45;to&#45;be...">
<polygon fill="white" stroke="black" points="394,-0.5 394,-19.5 516,-19.5 516,-0.5 394,-0.5"/>
<text text-anchor="middle" x="455" y="-7.5" font-family="Helvetica,sans-Serif" font-size="10.00">OmniOGL::Scene::Draw</text>
</a>
</g>
</g>
<!-- Node3&#45;&gt;Node4 -->
<g id="edge3" class="edge"><title>Node3&#45;&gt;Node4</title>
<path fill="none" stroke="midnightblue" d="M367.52,-10C376.413,-10 385.32,-10 393.856,-10"/>
<polygon fill="midnightblue" stroke="midnightblue" points="367.506,-6.5001 357.506,-10 367.506,-13.5001 367.506,-6.5001"/>
</g>
<!-- Node5 -->
<g id="node5" class="node"><title>Node5</title>
<g id="a_node5"><a xlink:href="_exec_8cpp.html#a22953cf79f2478877a279b84333eb642" target="_top" xlink:title="render">
<polygon fill="white" stroke="black" points="552,-0.5 552,-19.5 596,-19.5 596,-0.5 552,-0.5"/>
<text text-anchor="middle" x="574" y="-7.5" font-family="Helvetica,sans-Serif" font-size="10.00">render</text>
</a>
</g>
</g>
<!-- Node4&#45;&gt;Node5 -->
<g id="edge4" class="edge"><title>Node4&#45;&gt;Node5</title>
<path fill="none" stroke="midnightblue" d="M526.318,-10C535.524,-10 544.323,-10 551.751,-10"/>
<polygon fill="midnightblue" stroke="midnightblue" points="526.214,-6.5001 516.214,-10 526.214,-13.5001 526.214,-6.5001"/>
</g>
<!-- Node6 -->
<g id="node6" class="node"><title>Node6</title>
<g id="a_node6"><a xlink:href="_exec_8cpp.html#a66e65252a6985e382838442f280f46ba" target="_top" xlink:title="WinMain">
<polygon fill="white" stroke="black" points="632.5,-0.5 632.5,-19.5 687.5,-19.5 687.5,-0.5 632.5,-0.5"/>
<text text-anchor="middle" x="660" y="-7.5" font-family="Helvetica,sans-Serif" font-size="10.00">WinMain</text>
</a>
</g>
</g>
<!-- Node5&#45;&gt;Node6 -->
<g id="edge5" class="edge"><title>Node5&#45;&gt;Node6</title>
<path fill="none" stroke="midnightblue" d="M606.253,-10C614.845,-10 624.081,-10 632.386,-10"/>
<polygon fill="midnightblue" stroke="midnightblue" points="606.197,-6.5001 596.197,-10 606.197,-13.5001 606.197,-6.5001"/>
</g>
</g>
</svg>
