<?xml version="1.0" encoding="UTF-8" standalone="no"?>
<!DOCTYPE svg PUBLIC "-//W3C//DTD SVG 1.1//EN"
 "http://www.w3.org/Graphics/SVG/1.1/DTD/svg11.dtd">
<!-- Generated by graphviz version 2.30.1 (20130214.1330)
 -->
<!-- Title: OmniOGL::Section::AddObject Pages: 1 -->
<svg width="1238pt" height="124pt"
 viewBox="0.00 0.00 1238.00 123.96" xmlns="http://www.w3.org/2000/svg" xmlns:xlink="http://www.w3.org/1999/xlink">
<g id="graph0" class="graph" transform="scale(1 1) rotate(0) translate(4 119.961)">
<title>OmniOGL::Section::AddObject</title>
<polygon fill="white" stroke="white" points="-4,5 -4,-119.961 1235,-119.961 1235,5 -4,5"/>
<!-- Node1 -->
<g id="node1" class="node"><title>Node1</title>
<polygon fill="#bfbfbf" stroke="black" points="0.5,-57.5 0.5,-76.5 151.5,-76.5 151.5,-57.5 0.5,-57.5"/>
<text text-anchor="middle" x="76" y="-64.5" font-family="Helvetica,sans-Serif" font-size="10.00">OmniOGL::Section::AddObject</text>
</g>
<!-- Node2 -->
<g id="node2" class="node"><title>Node2</title>
<g id="a_node2"><a xlink:href="class_omni_o_g_l_1_1_section_collection.html#a07c937297ecc115e498cac570d6910bd" target="_top" xlink:title="OmniOGL::SectionCollection\l::AddObject">
<polygon fill="white" stroke="black" points="188,-52 188,-82 330,-82 330,-52 188,-52"/>
<text text-anchor="start" x="196" y="-70" font-family="Helvetica,sans-Serif" font-size="10.00">OmniOGL::SectionCollection</text>
<text text-anchor="middle" x="259" y="-59" font-family="Helvetica,sans-Serif" font-size="10.00">::AddObject</text>
</a>
</g>
</g>
<!-- Node1&#45;&gt;Node2 -->
<g id="edge1" class="edge"><title>Node1&#45;&gt;Node2</title>
<path fill="none" stroke="midnightblue" d="M161.842,-67C170.556,-67 179.34,-67 187.869,-67"/>
<polygon fill="midnightblue" stroke="midnightblue" points="161.665,-63.5001 151.665,-67 161.665,-70.5001 161.665,-63.5001"/>
</g>
<!-- Node3 -->
<g id="node3" class="node"><title>Node3</title>
<g id="a_node3"><a xlink:href="class_omni_o_g_l_1_1_scene.html#a63db7f91d326ad1a20741b31417b8148" target="_top" xlink:title="A template method which adds an renderable object of type T to the scene. It is assumed that T is a d...">
<polygon fill="white" stroke="black" points="366,-57.5 366,-76.5 512,-76.5 512,-57.5 366,-57.5"/>
<text text-anchor="middle" x="439" y="-64.5" font-family="Helvetica,sans-Serif" font-size="10.00">OmniOGL::Scene::AddObject</text>
</a>
</g>
</g>
<!-- Node2&#45;&gt;Node3 -->
<g id="edge2" class="edge"><title>Node2&#45;&gt;Node3</title>
<path fill="none" stroke="midnightblue" d="M340.118,-67C348.716,-67 357.426,-67 365.922,-67"/>
<polygon fill="midnightblue" stroke="midnightblue" points="340.095,-63.5001 330.095,-67 340.095,-70.5001 340.095,-63.5001"/>
</g>
<!-- Node4 -->
<g id="node4" class="node"><title>Node4</title>
<g id="a_node4"><a xlink:href="_exec_8cpp.html#a38c5e7def3be6ea702581ee4a92b9cc0" target="_top" xlink:title="render">
<polygon fill="white" stroke="black" points="1094,-38.5 1094,-57.5 1138,-57.5 1138,-38.5 1094,-38.5"/>
<text text-anchor="middle" x="1116" y="-45.5" font-family="Helvetica,sans-Serif" font-size="10.00">render</text>
</a>
</g>
</g>
<!-- Node3&#45;&gt;Node4 -->
<g id="edge3" class="edge"><title>Node3&#45;&gt;Node4</title>
<path fill="none" stroke="midnightblue" d="M469.996,-80.6443C491.271,-89.5471 520.768,-100.349 548,-105 759.134,-141.06 1018.68,-75.3608 1093.75,-54.2278"/>
<polygon fill="midnightblue" stroke="midnightblue" points="471.118,-77.3171 460.548,-76.5893 468.357,-83.7497 471.118,-77.3171"/>
</g>
<!-- Node6 -->
<g id="node6" class="node"><title>Node6</title>
<g id="a_node6"><a xlink:href="class_omni_o_g_l_1_1_scene.html#a8601c13e69f3269928209f1ffdf2584a" target="_top" xlink:title="The constructor for the Scene class. This is a fairly busy constructor since it&#39;s responsible for ini...">
<polygon fill="white" stroke="black" points="566,-76.5 566,-95.5 694,-95.5 694,-76.5 566,-76.5"/>
<text text-anchor="middle" x="630" y="-83.5" font-family="Helvetica,sans-Serif" font-size="10.00">OmniOGL::Scene::Scene</text>
</a>
</g>
</g>
<!-- Node3&#45;&gt;Node6 -->
<g id="edge5" class="edge"><title>Node3&#45;&gt;Node6</title>
<path fill="none" stroke="midnightblue" d="M522.266,-75.2701C536.833,-76.7345 551.794,-78.2386 565.734,-79.6399"/>
<polygon fill="midnightblue" stroke="midnightblue" points="522.562,-71.7823 512.262,-74.2644 521.862,-78.7472 522.562,-71.7823"/>
</g>
<!-- Node7 -->
<g id="node7" class="node"><title>Node7</title>
<g id="a_node7"><a xlink:href="class_omni_o_g_l_1_1_scene.html#ad03a14cbdf1446c4e9300db0a18a8ebf" target="_top" xlink:title="Configures lighting parameters for the Scene including the sole light&#39;s position and color...">
<polygon fill="white" stroke="black" points="755,-38.5 755,-57.5 893,-57.5 893,-38.5 755,-38.5"/>
<text text-anchor="middle" x="824" y="-45.5" font-family="Helvetica,sans-Serif" font-size="10.00">OmniOGL::Scene::AddLight</text>
</a>
</g>
</g>
<!-- Node3&#45;&gt;Node7 -->
<g id="edge6" class="edge"><title>Node3&#45;&gt;Node7</title>
<path fill="none" stroke="midnightblue" d="M522.06,-62.9291C591.449,-59.4869 689.694,-54.6131 754.822,-51.3822"/>
<polygon fill="midnightblue" stroke="midnightblue" points="521.854,-59.435 512.039,-63.4262 522.201,-66.4264 521.854,-59.435"/>
</g>
<!-- Node8 -->
<g id="node8" class="node"><title>Node8</title>
<g id="a_node8"><a xlink:href="class_omni_o_g_l_1_1_scene.html#ad54723f8249185236e8bc77315b3622c" target="_top" xlink:title="In the current implementation this function must determine the derived type of the shared pointer pas...">
<polygon fill="white" stroke="black" points="548,-0.5 548,-19.5 712,-19.5 712,-0.5 548,-0.5"/>
<text text-anchor="middle" x="630" y="-7.5" font-family="Helvetica,sans-Serif" font-size="10.00">OmniOGL::Scene::AddDerivedObj</text>
</a>
</g>
</g>
<!-- Node3&#45;&gt;Node8 -->
<g id="edge8" class="edge"><title>Node3&#45;&gt;Node8</title>
<path fill="none" stroke="midnightblue" d="M480.975,-54.3905C501.147,-48.2055 525.836,-40.6695 548,-34 564.011,-29.182 581.825,-23.8957 596.661,-19.5137"/>
<polygon fill="midnightblue" stroke="midnightblue" points="479.704,-51.1192 471.171,-57.399 481.758,-57.8112 479.704,-51.1192"/>
</g>
<!-- Node5 -->
<g id="node5" class="node"><title>Node5</title>
<g id="a_node5"><a xlink:href="_exec_8cpp.html#a66e65252a6985e382838442f280f46ba" target="_top" xlink:title="WinMain">
<polygon fill="white" stroke="black" points="1174.5,-38.5 1174.5,-57.5 1229.5,-57.5 1229.5,-38.5 1174.5,-38.5"/>
<text text-anchor="middle" x="1202" y="-45.5" font-family="Helvetica,sans-Serif" font-size="10.00">WinMain</text>
</a>
</g>
</g>
<!-- Node4&#45;&gt;Node5 -->
<g id="edge4" class="edge"><title>Node4&#45;&gt;Node5</title>
<path fill="none" stroke="midnightblue" d="M1148.25,-48C1156.85,-48 1166.08,-48 1174.39,-48"/>
<polygon fill="midnightblue" stroke="midnightblue" points="1148.2,-44.5001 1138.2,-48 1148.2,-51.5001 1148.2,-44.5001"/>
</g>
<!-- Node7&#45;&gt;Node4 -->
<g id="edge7" class="edge"><title>Node7&#45;&gt;Node4</title>
<path fill="none" stroke="midnightblue" d="M903.469,-48C967.721,-48 1054.23,-48 1093.73,-48"/>
<polygon fill="midnightblue" stroke="midnightblue" points="903.359,-44.5001 893.359,-48 903.359,-51.5001 903.359,-44.5001"/>
</g>
<!-- Node9 -->
<g id="node9" class="node"><title>Node9</title>
<g id="a_node9"><a xlink:href="class_omni_o_g_l_1_1_scene.html#aaf90a48c617a97b06e8b75320c0271b0" target="_top" xlink:title="OmniOGL::Scene::HandleInput">
<polygon fill="white" stroke="black" points="748.5,-0.5 748.5,-19.5 899.5,-19.5 899.5,-0.5 748.5,-0.5"/>
<text text-anchor="middle" x="824" y="-7.5" font-family="Helvetica,sans-Serif" font-size="10.00">OmniOGL::Scene::HandleInput</text>
</a>
</g>
</g>
<!-- Node8&#45;&gt;Node9 -->
<g id="edge9" class="edge"><title>Node8&#45;&gt;Node9</title>
<path fill="none" stroke="midnightblue" d="M722.308,-10C730.999,-10 739.741,-10 748.249,-10"/>
<polygon fill="midnightblue" stroke="midnightblue" points="722.147,-6.5001 712.147,-10 722.147,-13.5001 722.147,-6.5001"/>
</g>
<!-- Node10 -->
<g id="node10" class="node"><title>Node10</title>
<g id="a_node10"><a xlink:href="class_omni_o_g_l_1_1_scene.html#ac65b18faabaa3d2af9a0a4b2f2fc0fe0" target="_top" xlink:title="The core of the rendering loop! This method iterates through all possible containers of objects&#45;to&#45;be...">
<polygon fill="white" stroke="black" points="936,-0.5 936,-19.5 1058,-19.5 1058,-0.5 936,-0.5"/>
<text text-anchor="middle" x="997" y="-7.5" font-family="Helvetica,sans-Serif" font-size="10.00">OmniOGL::Scene::Draw</text>
</a>
</g>
</g>
<!-- Node9&#45;&gt;Node10 -->
<g id="edge10" class="edge"><title>Node9&#45;&gt;Node10</title>
<path fill="none" stroke="midnightblue" d="M909.52,-10C918.413,-10 927.32,-10 935.856,-10"/>
<polygon fill="midnightblue" stroke="midnightblue" points="909.506,-6.5001 899.506,-10 909.506,-13.5001 909.506,-6.5001"/>
</g>
<!-- Node10&#45;&gt;Node4 -->
<g id="edge11" class="edge"><title>Node10&#45;&gt;Node4</title>
<path fill="none" stroke="midnightblue" d="M1037.13,-22.7082C1056.12,-28.8776 1078.19,-36.0446 1093.97,-41.1707"/>
<polygon fill="midnightblue" stroke="midnightblue" points="1038.12,-19.3493 1027.52,-19.589 1035.95,-26.0069 1038.12,-19.3493"/>
</g>
</g>
</svg>
