<?xml version="1.0" encoding="UTF-8" standalone="no"?>
<!DOCTYPE svg PUBLIC "-//W3C//DTD SVG 1.1//EN"
 "http://www.w3.org/Graphics/SVG/1.1/DTD/svg11.dtd">
<!-- Generated by graphviz version 2.30.1 (20130214.1330)
 -->
<!-- Title: OmniOGL::SurfaceNet Pages: 1 -->
<!--zoomable 494 -->
<svg id="main" version="1.1" xmlns="http://www.w3.org/2000/svg" xmlns:xlink="http://www.w3.org/1999/xlink" xml:space="preserve" onload="init(evt)">
        <defs>
                <circle id="rim" cx="0" cy="0" r="7"/>
                <circle id="rim2" cx="0" cy="0" r="3.5"/>
                <g id="zoomPlus">
                        <use xlink:href="#rim" fill="#404040">
                                <set attributeName="fill" to="#808080" begin="zoomplus.mouseover" end="zoomplus.mouseout"/>
                        </use>
                        <path d="M-4,0h8M0,-4v8" fill="none" stroke="white" stroke-width="1.5" pointer-events="none"/>
                </g>
                <g id="zoomMin">
                        <use xlink:href="#rim" fill="#404040">
                                <set attributeName="fill" to="#808080" begin="zoomminus.mouseover" end="zoomminus.mouseout"/>
                        </use>
                        <path d="M-4,0h8" fill="none" stroke="white" stroke-width="1.5" pointer-events="none"/>
                </g>
                <g id="dirArrow">
                        <path fill="none" stroke="white" stroke-width="1.5" d="M0,-3.0v7 M-2.5,-0.5L0,-3.0L2.5,-0.5"/>
                </g>
               <g id="resetDef">
                       <use xlink:href="#rim2" fill="#404040">
                               <set attributeName="fill" to="#808080" begin="reset.mouseover" end="reset.mouseout"/>
                       </use>
               </g>
        </defs>

<script type="text/javascript">
var viewWidth = 708;
var viewHeight = 494;
var sectionId = 'dynsection-0';
</script>
<script xlink:href="svgpan.js"/>
<svg id="graph" class="graph">
<g id="viewport">
<title>OmniOGL::SurfaceNet</title>
<polygon fill="white" stroke="white" points="-4,5 -4,-490 705,-490 705,5 -4,5"/>
<!-- Node1 -->
<g id="node1" class="node"><title>Node1</title>
<polygon fill="#bfbfbf" stroke="black" points="416,-0.5 416,-145.5 530,-145.5 530,-0.5 416,-0.5"/>
<text text-anchor="middle" x="473" y="-133.5" font-family="Helvetica,sans-Serif" font-size="10.00">OmniOGL::SurfaceNet</text>
<polyline fill="none" stroke="black" points="416,-126.5 530,-126.5 "/>
<text text-anchor="middle" x="473" y="-114.5" font-family="Helvetica,sans-Serif" font-size="10.00"> </text>
<polyline fill="none" stroke="black" points="416,-107.5 530,-107.5 "/>
<text text-anchor="start" x="424" y="-95.5" font-family="Helvetica,sans-Serif" font-size="10.00">+ SurfaceNet()</text>
<text text-anchor="start" x="424" y="-84.5" font-family="Helvetica,sans-Serif" font-size="10.00">+ ~SurfaceNet()</text>
<text text-anchor="start" x="424" y="-73.5" font-family="Helvetica,sans-Serif" font-size="10.00">+ AddNeighbors()</text>
<text text-anchor="start" x="424" y="-62.5" font-family="Helvetica,sans-Serif" font-size="10.00">+ AddNode()</text>
<text text-anchor="start" x="424" y="-51.5" font-family="Helvetica,sans-Serif" font-size="10.00">+ AddNormal()</text>
<text text-anchor="start" x="424" y="-40.5" font-family="Helvetica,sans-Serif" font-size="10.00">+ BlendNormals()</text>
<text text-anchor="start" x="424" y="-29.5" font-family="Helvetica,sans-Serif" font-size="10.00">+ GetNodeCount()</text>
<text text-anchor="start" x="424" y="-18.5" font-family="Helvetica,sans-Serif" font-size="10.00">+ GetVertices()</text>
<text text-anchor="start" x="424" y="-7.5" font-family="Helvetica,sans-Serif" font-size="10.00">+ RelaxNodes()</text>
</g>
<!-- Node2 -->
<g id="node2" class="node"><title>Node2</title>
<polygon fill="white" stroke="#bfbfbf" points="547,-205 547,-273 661,-273 661,-205 547,-205"/>
<text text-anchor="start" x="555" y="-261" font-family="Helvetica,sans-Serif" font-size="10.00">std::vector&lt; OmniOGL</text>
<text text-anchor="middle" x="604" y="-250" font-family="Helvetica,sans-Serif" font-size="10.00">::NetNode * &gt;</text>
<polyline fill="none" stroke="#bfbfbf" points="547,-243 661,-243 "/>
<text text-anchor="middle" x="604" y="-231" font-family="Helvetica,sans-Serif" font-size="10.00"> </text>
<polyline fill="none" stroke="#bfbfbf" points="547,-224 661,-224 "/>
<text text-anchor="middle" x="604" y="-212" font-family="Helvetica,sans-Serif" font-size="10.00"> </text>
</g>
<!-- Node2&#45;&gt;Node1 -->
<g id="edge1" class="edge"><title>Node2&#45;&gt;Node1</title>
<path fill="none" stroke="#404040" d="M652.455,-204.889C664.562,-192.499 671.874,-178.023 663,-164 636.506,-122.135 584.691,-99.363 541.855,-87.207"/>
<polygon fill="none" stroke="#404040" points="541.634,-87.148 534.805,-89.4651 530.04,-84.0529 536.869,-81.7358 541.634,-87.148"/>
<text text-anchor="middle" x="679" y="-172.5" font-family="Helvetica,sans-Serif" font-size="10.00"> #field</text>
</g>
<!-- Node3 -->
<g id="node3" class="node"><title>Node3</title>
<g id="a_node3"><a xlink:href="class_omni_o_g_l_1_1_net_node.html" target="_top" xlink:title="A single node in a collection of nodes (SurfaceNet). There is one node for each vertex in the mesh an...">
<polygon fill="white" stroke="black" points="143.5,-0.5 143.5,-145.5 256.5,-145.5 256.5,-0.5 143.5,-0.5"/>
<text text-anchor="middle" x="200" y="-133.5" font-family="Helvetica,sans-Serif" font-size="10.00">OmniOGL::NetNode</text>
<polyline fill="none" stroke="black" points="143.5,-126.5 256.5,-126.5 "/>
<text text-anchor="middle" x="200" y="-114.5" font-family="Helvetica,sans-Serif" font-size="10.00"> </text>
<polyline fill="none" stroke="black" points="143.5,-107.5 256.5,-107.5 "/>
<text text-anchor="start" x="151.5" y="-95.5" font-family="Helvetica,sans-Serif" font-size="10.00">+ NetNode()</text>
<text text-anchor="start" x="151.5" y="-84.5" font-family="Helvetica,sans-Serif" font-size="10.00">+ ~NetNode()</text>
<text text-anchor="start" x="151.5" y="-73.5" font-family="Helvetica,sans-Serif" font-size="10.00">+ AddNeighbor()</text>
<text text-anchor="start" x="151.5" y="-62.5" font-family="Helvetica,sans-Serif" font-size="10.00">+ AddNormal()</text>
<text text-anchor="start" x="151.5" y="-51.5" font-family="Helvetica,sans-Serif" font-size="10.00">+ CommitNewVertex()</text>
<text text-anchor="start" x="151.5" y="-40.5" font-family="Helvetica,sans-Serif" font-size="10.00">+ GetDistance()</text>
<text text-anchor="start" x="151.5" y="-29.5" font-family="Helvetica,sans-Serif" font-size="10.00">+ GetVertices()</text>
<text text-anchor="start" x="151.5" y="-18.5" font-family="Helvetica,sans-Serif" font-size="10.00">+ Relax()</text>
<text text-anchor="start" x="151.5" y="-7.5" font-family="Helvetica,sans-Serif" font-size="10.00">+ UpdateConstraints()</text>
</a>
</g>
</g>
<!-- Node2&#45;&gt;Node3 -->
<g id="edge3" class="edge"><title>Node2&#45;&gt;Node3</title>
<path fill="none" stroke="#404040" d="M559.18,-204.846C551.334,-198.727 543.338,-192.282 536,-186 525.254,-176.801 525.639,-170.352 513,-164 470.303,-142.542 453.283,-157.89 407,-146 359.874,-133.893 308.178,-115.916 268.237,-100.954"/>
<polygon fill="none" stroke="#404040" points="267.993,-100.862 260.967,-102.483 256.768,-96.62 263.795,-94.9993 267.993,-100.862"/>
<text text-anchor="middle" x="561.5" y="-172.5" font-family="Helvetica,sans-Serif" font-size="10.00"> #neighbors</text>
</g>
<!-- Node3&#45;&gt;Node2 -->
<g id="edge2" class="edge"><title>Node3&#45;&gt;Node2</title>
<path fill="none" stroke="#404040" d="M256.501,-97.7425C297.533,-113.968 354.784,-134.536 407,-146 447.128,-154.81 560.861,-136.08 591,-164 598.995,-171.407 603.156,-181.862 605.134,-192.586"/>
<polygon fill="none" stroke="#404040" points="605.152,-192.739 609.814,-198.241 606.528,-204.66 601.866,-199.158 605.152,-192.739"/>
<text text-anchor="middle" x="627.5" y="-172.5" font-family="Helvetica,sans-Serif" font-size="10.00"> +elements</text>
</g>
<!-- Node4 -->
<g id="node4" class="node"><title>Node4</title>
<polygon fill="white" stroke="#bfbfbf" points="-0.5,-210.5 -0.5,-267.5 46.5,-267.5 46.5,-210.5 -0.5,-210.5"/>
<text text-anchor="middle" x="23" y="-255.5" font-family="Helvetica,sans-Serif" font-size="10.00">GLfloat</text>
<polyline fill="none" stroke="#bfbfbf" points="-0.5,-248.5 46.5,-248.5 "/>
<text text-anchor="middle" x="23" y="-236.5" font-family="Helvetica,sans-Serif" font-size="10.00"> </text>
<polyline fill="none" stroke="#bfbfbf" points="-0.5,-229.5 46.5,-229.5 "/>
<text text-anchor="middle" x="23" y="-217.5" font-family="Helvetica,sans-Serif" font-size="10.00"> </text>
</g>
<!-- Node4&#45;&gt;Node3 -->
<g id="edge4" class="edge"><title>Node4&#45;&gt;Node3</title>
<path fill="none" stroke="#404040" d="M23.1288,-210.444C24.4585,-195.463 28.2447,-177.328 38,-164 61.0333,-132.531 98.5719,-110.686 131.717,-96.4056"/>
<polygon fill="none" stroke="#404040" points="132.13,-96.2355 136.155,-90.2523 143.226,-91.6666 139.201,-97.6497 132.13,-96.2355"/>
<text text-anchor="middle" x="65" y="-178" font-family="Helvetica,sans-Serif" font-size="10.00"> #vertex</text>
<text text-anchor="middle" x="65" y="-167" font-family="Helvetica,sans-Serif" font-size="10.00">#new_vertex</text>
</g>
<!-- Node5 -->
<g id="node5" class="node"><title>Node5</title>
<polygon fill="white" stroke="#bfbfbf" points="399.5,-210.5 399.5,-267.5 520.5,-267.5 520.5,-210.5 399.5,-210.5"/>
<text text-anchor="middle" x="460" y="-255.5" font-family="Helvetica,sans-Serif" font-size="10.00">std::vector&lt; glm::vec3 &gt;</text>
<polyline fill="none" stroke="#bfbfbf" points="399.5,-248.5 520.5,-248.5 "/>
<text text-anchor="middle" x="460" y="-236.5" font-family="Helvetica,sans-Serif" font-size="10.00"> </text>
<polyline fill="none" stroke="#bfbfbf" points="399.5,-229.5 520.5,-229.5 "/>
<text text-anchor="middle" x="460" y="-217.5" font-family="Helvetica,sans-Serif" font-size="10.00"> </text>
</g>
<!-- Node5&#45;&gt;Node3 -->
<g id="edge5" class="edge"><title>Node5&#45;&gt;Node3</title>
<path fill="none" stroke="#404040" d="M436.177,-210.431C422.278,-195.446 403.815,-177.311 385,-164 348.955,-138.499 304.582,-116.639 268.33,-100.851"/>
<polygon fill="none" stroke="#404040" points="267.897,-100.666 260.806,-101.981 256.866,-95.9417 263.956,-94.6268 267.897,-100.666"/>
<text text-anchor="middle" x="433.5" y="-172.5" font-family="Helvetica,sans-Serif" font-size="10.00"> #normals</text>
</g>
<!-- Node5&#45;&gt;Node1 -->
<g id="edge15" class="edge"><title>Node5&#45;&gt;Node1</title>
<path fill="none" stroke="#404040" d="M462.205,-210.18C463.364,-195.567 464.851,-176.8 466.35,-157.898"/>
<polygon fill="none" stroke="#404040" points="466.358,-157.787 462.845,-151.49 467.307,-145.825 470.82,-152.122 466.358,-157.787"/>
<text text-anchor="middle" x="487.5" y="-178" font-family="Helvetica,sans-Serif" font-size="10.00"> #normals</text>
<text text-anchor="middle" x="487.5" y="-167" font-family="Helvetica,sans-Serif" font-size="10.00">#vertices</text>
</g>
<!-- Node6 -->
<g id="node6" class="node"><title>Node6</title>
<polygon fill="white" stroke="#bfbfbf" points="647,-322.5 647,-379.5 683,-379.5 683,-322.5 647,-322.5"/>
<text text-anchor="middle" x="665" y="-367.5" font-family="Helvetica,sans-Serif" font-size="10.00">vec3</text>
<polyline fill="none" stroke="#bfbfbf" points="647,-360.5 683,-360.5 "/>
<text text-anchor="middle" x="665" y="-348.5" font-family="Helvetica,sans-Serif" font-size="10.00"> </text>
<polyline fill="none" stroke="#bfbfbf" points="647,-341.5 683,-341.5 "/>
<text text-anchor="middle" x="665" y="-329.5" font-family="Helvetica,sans-Serif" font-size="10.00"> </text>
</g>
<!-- Node6&#45;&gt;Node5 -->
<g id="edge6" class="edge"><title>Node6&#45;&gt;Node5</title>
<path fill="none" stroke="#404040" d="M660.114,-322.255C656.795,-311.279 651.248,-299.514 642,-292 605.593,-262.419 582.934,-287.469 538,-274 535.623,-273.288 533.223,-272.522 530.811,-271.714"/>
<polygon fill="none" stroke="#404040" points="530.796,-271.709 523.798,-273.448 519.501,-267.657 526.499,-265.918 530.796,-271.709"/>
<text text-anchor="middle" x="675.5" y="-295.5" font-family="Helvetica,sans-Serif" font-size="10.00"> +elements</text>
</g>
<!-- Node7 -->
<g id="node7" class="node"><title>Node7</title>
<g id="a_node7"><a xlink:title="STL class.">
<polygon fill="white" stroke="#bfbfbf" points="398.5,-322.5 398.5,-379.5 483.5,-379.5 483.5,-322.5 398.5,-322.5"/>
<text text-anchor="middle" x="441" y="-367.5" font-family="Helvetica,sans-Serif" font-size="10.00">std::vector&lt; T &gt;</text>
<polyline fill="none" stroke="#bfbfbf" points="398.5,-360.5 483.5,-360.5 "/>
<text text-anchor="middle" x="441" y="-348.5" font-family="Helvetica,sans-Serif" font-size="10.00"> </text>
<polyline fill="none" stroke="#bfbfbf" points="398.5,-341.5 483.5,-341.5 "/>
<text text-anchor="middle" x="441" y="-329.5" font-family="Helvetica,sans-Serif" font-size="10.00"> </text>
</a>
</g>
</g>
<!-- Node7&#45;&gt;Node5 -->
<g id="edge7" class="edge"><title>Node7&#45;&gt;Node5</title>
<path fill="none" stroke="orange" d="M439.934,-312.073C440.233,-305.351 440.859,-298.443 442,-292 443.432,-283.91 445.934,-275.387 448.624,-267.635"/>
<polygon fill="orange" stroke="orange" points="436.428,-312.316 439.706,-322.391 443.426,-312.471 436.428,-312.316"/>
<text text-anchor="middle" x="473.5" y="-295.5" font-family="Helvetica,sans-Serif" font-size="10.00"> &lt; glm::vec3 &gt;</text>
</g>
<!-- Node10 -->
<g id="node10" class="node"><title>Node10</title>
<polygon fill="white" stroke="#bfbfbf" points="260,-210.5 260,-267.5 368,-267.5 368,-210.5 260,-210.5"/>
<text text-anchor="middle" x="314" y="-255.5" font-family="Helvetica,sans-Serif" font-size="10.00">std::vector&lt; GLuint &gt;</text>
<polyline fill="none" stroke="#bfbfbf" points="260,-248.5 368,-248.5 "/>
<text text-anchor="middle" x="314" y="-236.5" font-family="Helvetica,sans-Serif" font-size="10.00"> </text>
<polyline fill="none" stroke="#bfbfbf" points="260,-229.5 368,-229.5 "/>
<text text-anchor="middle" x="314" y="-217.5" font-family="Helvetica,sans-Serif" font-size="10.00"> </text>
</g>
<!-- Node7&#45;&gt;Node10 -->
<g id="edge12" class="edge"><title>Node7&#45;&gt;Node10</title>
<path fill="none" stroke="orange" d="M400.668,-315.752C396.05,-311.798 391.417,-307.817 387,-304 373.227,-292.098 358.083,-278.847 345.176,-267.505"/>
<polygon fill="orange" stroke="orange" points="398.507,-318.509 408.383,-322.344 403.054,-313.187 398.507,-318.509"/>
<text text-anchor="middle" x="412" y="-295.5" font-family="Helvetica,sans-Serif" font-size="10.00"> &lt; GLuint &gt;</text>
</g>
<!-- Node7&#45;&gt;Node2 -->
<g id="edge14" class="edge"><title>Node7&#45;&gt;Node2</title>
<path fill="none" stroke="orange" d="M490.674,-316.478C511.102,-302.692 534.694,-286.771 555.046,-273.036"/>
<polygon fill="orange" stroke="orange" points="488.463,-313.747 482.132,-322.242 492.379,-319.55 488.463,-313.747"/>
<text text-anchor="middle" x="580.5" y="-295.5" font-family="Helvetica,sans-Serif" font-size="10.00"> &lt; OmniOGL::NetNode * &gt;</text>
</g>
<!-- Node8 -->
<g id="node8" class="node"><title>Node8</title>
<polygon fill="white" stroke="#bfbfbf" points="426.5,-428.5 426.5,-485.5 455.5,-485.5 455.5,-428.5 426.5,-428.5"/>
<text text-anchor="middle" x="441" y="-473.5" font-family="Helvetica,sans-Serif" font-size="10.00">T</text>
<polyline fill="none" stroke="#bfbfbf" points="426.5,-466.5 455.5,-466.5 "/>
<text text-anchor="middle" x="441" y="-454.5" font-family="Helvetica,sans-Serif" font-size="10.00"> </text>
<polyline fill="none" stroke="#bfbfbf" points="426.5,-447.5 455.5,-447.5 "/>
<text text-anchor="middle" x="441" y="-435.5" font-family="Helvetica,sans-Serif" font-size="10.00"> </text>
</g>
<!-- Node8&#45;&gt;Node7 -->
<g id="edge8" class="edge"><title>Node8&#45;&gt;Node7</title>
<path fill="none" stroke="#404040" d="M441,-428.403C441,-417.237 441,-404.13 441,-391.956"/>
<polygon fill="none" stroke="#404040" points="441,-391.726 437,-385.726 441,-379.726 445,-385.726 441,-391.726"/>
<text text-anchor="middle" x="465.5" y="-401.5" font-family="Helvetica,sans-Serif" font-size="10.00"> +elements</text>
</g>
<!-- Node9 -->
<g id="node9" class="node"><title>Node9</title>
<polygon fill="white" stroke="#bfbfbf" points="71,-210.5 71,-267.5 129,-267.5 129,-210.5 71,-210.5"/>
<text text-anchor="middle" x="100" y="-255.5" font-family="Helvetica,sans-Serif" font-size="10.00">GLdouble</text>
<polyline fill="none" stroke="#bfbfbf" points="71,-248.5 129,-248.5 "/>
<text text-anchor="middle" x="100" y="-236.5" font-family="Helvetica,sans-Serif" font-size="10.00"> </text>
<polyline fill="none" stroke="#bfbfbf" points="71,-229.5 129,-229.5 "/>
<text text-anchor="middle" x="100" y="-217.5" font-family="Helvetica,sans-Serif" font-size="10.00"> </text>
</g>
<!-- Node9&#45;&gt;Node3 -->
<g id="edge9" class="edge"><title>Node9&#45;&gt;Node3</title>
<path fill="none" stroke="#404040" d="M95.2433,-210.148C94.033,-195.768 94.5619,-178.292 101,-164 108.552,-147.235 120.9,-132.233 134.355,-119.506"/>
<polygon fill="none" stroke="#404040" points="134.38,-119.483 136.18,-112.5 143.318,-111.475 141.518,-118.458 134.38,-119.483"/>
<text text-anchor="middle" x="127" y="-172.5" font-family="Helvetica,sans-Serif" font-size="10.00"> #constraint</text>
</g>
<!-- Node10&#45;&gt;Node3 -->
<g id="edge10" class="edge"><title>Node10&#45;&gt;Node3</title>
<path fill="none" stroke="#404040" d="M260.004,-210.495C255.291,-208.249 250.575,-206.055 246,-204 226.35,-195.176 213.156,-203.783 201,-186 195.203,-177.519 191.756,-167.77 189.936,-157.635"/>
<polygon fill="none" stroke="#404040" points="189.923,-157.531 185.241,-152.046 188.503,-145.615 193.185,-151.099 189.923,-157.531"/>
<text text-anchor="middle" x="242" y="-172.5" font-family="Helvetica,sans-Serif" font-size="10.00"> #neighbor_indices</text>
</g>
<!-- Node10&#45;&gt;Node1 -->
<g id="edge16" class="edge"><title>Node10&#45;&gt;Node1</title>
<path fill="none" stroke="#404040" d="M303.261,-210.24C299.406,-195.55 297.786,-177.758 306,-164 327.329,-128.276 368.274,-105.894 404.281,-92.3843"/>
<polygon fill="none" stroke="#404040" points="404.46,-92.321 408.775,-86.5434 415.768,-88.3043 411.453,-94.0819 404.46,-92.321"/>
<text text-anchor="middle" x="345.5" y="-172.5" font-family="Helvetica,sans-Serif" font-size="10.00"> #element_indices</text>
</g>
<!-- Node11 -->
<g id="node11" class="node"><title>Node11</title>
<polygon fill="white" stroke="#bfbfbf" points="180.5,-322.5 180.5,-379.5 225.5,-379.5 225.5,-322.5 180.5,-322.5"/>
<text text-anchor="middle" x="203" y="-367.5" font-family="Helvetica,sans-Serif" font-size="10.00">GLuint</text>
<polyline fill="none" stroke="#bfbfbf" points="180.5,-360.5 225.5,-360.5 "/>
<text text-anchor="middle" x="203" y="-348.5" font-family="Helvetica,sans-Serif" font-size="10.00"> </text>
<polyline fill="none" stroke="#bfbfbf" points="180.5,-341.5 225.5,-341.5 "/>
<text text-anchor="middle" x="203" y="-329.5" font-family="Helvetica,sans-Serif" font-size="10.00"> </text>
</g>
<!-- Node11&#45;&gt;Node10 -->
<g id="edge11" class="edge"><title>Node11&#45;&gt;Node10</title>
<path fill="none" stroke="#404040" d="M225.536,-327.364C236.255,-316.623 249.264,-303.625 261,-292 266.104,-286.944 271.498,-281.625 276.814,-276.397"/>
<polygon fill="none" stroke="#404040" points="277.059,-276.156 278.537,-269.097 285.62,-267.747 284.143,-274.805 277.059,-276.156"/>
<text text-anchor="middle" x="285.5" y="-295.5" font-family="Helvetica,sans-Serif" font-size="10.00"> +elements</text>
</g>
<!-- Node11&#45;&gt;Node3 -->
<g id="edge13" class="edge"><title>Node11&#45;&gt;Node3</title>
<path fill="none" stroke="#404040" d="M190.652,-322.462C184.965,-308.293 178.854,-290.559 176,-274 169.436,-235.915 173.011,-193.443 179.195,-157.467"/>
<polygon fill="none" stroke="#404040" points="179.219,-157.335 176.366,-150.713 181.381,-145.532 184.235,-152.154 179.219,-157.335"/>
<text text-anchor="middle" x="213.5" y="-236.5" font-family="Helvetica,sans-Serif" font-size="10.00"> #neighbor_count</text>
</g>
</g>
</svg>
        <g id="navigator" transform="translate(0 0)" fill="#404254">
                <rect fill="#f2f5e9" fill-opacity="0.5" stroke="#606060" stroke-width=".5" x="0" y="0" width="60" height="60"/>
                <use id="zoomplus" xlink:href="#zoomPlus" x="17" y="9" onmousedown="handleZoom(evt,'in')"/>
                <use id="zoomminus" xlink:href="#zoomMin" x="42" y="9" onmousedown="handleZoom(evt,'out')"/>
                <use id="reset" xlink:href="#resetDef" x="30" y="36" onmousedown="handleReset()"/>
                <g id="arrowUp" xlink:href="#dirArrow" transform="translate(30 24)" onmousedown="handlePan(0,-1)">
                  <use xlink:href="#rim" fill="#404040">
                        <set attributeName="fill" to="#808080" begin="arrowUp.mouseover" end="arrowUp.mouseout"/>
                  </use>
                  <path fill="none" stroke="white" stroke-width="1.5" d="M0,-3.0v7 M-2.5,-0.5L0,-3.0L2.5,-0.5"/>
                </g>
                <g id="arrowRight" xlink:href="#dirArrow" transform="rotate(90) translate(36 -43)" onmousedown="handlePan(1,0)">
                  <use xlink:href="#rim" fill="#404040">
                        <set attributeName="fill" to="#808080" begin="arrowRight.mouseover" end="arrowRight.mouseout"/>
                  </use>
                  <path fill="none" stroke="white" stroke-width="1.5" d="M0,-3.0v7 M-2.5,-0.5L0,-3.0L2.5,-0.5"/>
                </g>
                <g id="arrowDown" xlink:href="#dirArrow" transform="rotate(180) translate(-30 -48)" onmousedown="handlePan(0,1)">
                  <use xlink:href="#rim" fill="#404040">
                        <set attributeName="fill" to="#808080" begin="arrowDown.mouseover" end="arrowDown.mouseout"/>
                  </use>
                  <path fill="none" stroke="white" stroke-width="1.5" d="M0,-3.0v7 M-2.5,-0.5L0,-3.0L2.5,-0.5"/>
                </g>
                <g id="arrowLeft" xlink:href="#dirArrow" transform="rotate(270) translate(-36 17)" onmousedown="handlePan(-1,0)">
                  <use xlink:href="#rim" fill="#404040">
                        <set attributeName="fill" to="#808080" begin="arrowLeft.mouseover" end="arrowLeft.mouseout"/>
                  </use>
                  <path fill="none" stroke="white" stroke-width="1.5" d="M0,-3.0v7 M-2.5,-0.5L0,-3.0L2.5,-0.5"/>
                </g>
        </g>
        <svg viewBox="0 0 15 15" width="100%" height="30px" preserveAspectRatio="xMaxYMin meet">
         <g id="arrow_out" transform="scale(0.3 0.3)">
          <a xlink:href="class_omni_o_g_l_1_1_surface_net__coll__graph_org.svg" target="_base">
           <rect id="button" ry="5" rx="5" y="6" x="6" height="38" width="38"
                fill="#f2f5e9" fill-opacity="0.5" stroke="#606060" stroke-width="1.0"/>
           <path id="arrow"
             d="M 11.500037,31.436501 C 11.940474,20.09759 22.043105,11.32322 32.158766,21.979434 L 37.068811,17.246167 C 37.068811,17.246167 37.088388,32 37.088388,32 L 22.160133,31.978069 C 22.160133,31.978069 26.997745,27.140456 26.997745,27.140456 C 18.528582,18.264221 13.291696,25.230495 11.500037,31.436501 z"
             style="fill:#404040;"/>
          </a>
         </g>
        </svg>
</svg>
