<?xml version="1.0" encoding="UTF-8" standalone="no"?>
<!DOCTYPE svg PUBLIC "-//W3C//DTD SVG 1.1//EN"
 "http://www.w3.org/Graphics/SVG/1.1/DTD/svg11.dtd">
<!-- Generated by graphviz version 2.30.1 (20130214.1330)
 -->
<!-- Title: OmniOGL::InputUpdate Pages: 1 -->
<svg width="203pt" height="282pt"
 viewBox="0.00 0.00 203.00 282.00" xmlns="http://www.w3.org/2000/svg" xmlns:xlink="http://www.w3.org/1999/xlink">
<g id="graph0" class="graph" transform="scale(1 1) rotate(0) translate(4 278)">
<title>OmniOGL::InputUpdate</title>
<polygon fill="white" stroke="white" points="-4,5 -4,-278 200,-278 200,5 -4,5"/>
<!-- Node1 -->
<g id="node1" class="node"><title>Node1</title>
<polygon fill="#bfbfbf" stroke="black" points="0,-0.5 0,-57.5 118,-57.5 118,-0.5 0,-0.5"/>
<text text-anchor="middle" x="59" y="-45.5" font-family="Helvetica,sans-Serif" font-size="10.00">OmniOGL::InputUpdate</text>
<polyline fill="none" stroke="black" points="0,-38.5 118,-38.5 "/>
<text text-anchor="middle" x="59" y="-26.5" font-family="Helvetica,sans-Serif" font-size="10.00"> </text>
<polyline fill="none" stroke="black" points="0,-19.5 118,-19.5 "/>
<text text-anchor="start" x="8" y="-7.5" font-family="Helvetica,sans-Serif" font-size="10.00">+ InputUpdate()</text>
</g>
<!-- Node2 -->
<g id="node2" class="node"><title>Node2</title>
<polygon fill="white" stroke="#bfbfbf" points="5.5,-216.5 5.5,-273.5 40.5,-273.5 40.5,-216.5 5.5,-216.5"/>
<text text-anchor="middle" x="23" y="-261.5" font-family="Helvetica,sans-Serif" font-size="10.00">float</text>
<polyline fill="none" stroke="#bfbfbf" points="5.5,-254.5 40.5,-254.5 "/>
<text text-anchor="middle" x="23" y="-242.5" font-family="Helvetica,sans-Serif" font-size="10.00"> </text>
<polyline fill="none" stroke="#bfbfbf" points="5.5,-235.5 40.5,-235.5 "/>
<text text-anchor="middle" x="23" y="-223.5" font-family="Helvetica,sans-Serif" font-size="10.00"> </text>
</g>
<!-- Node2&#45;&gt;Node1 -->
<g id="edge1" class="edge"><title>Node2&#45;&gt;Node1</title>
<path fill="none" stroke="#404040" d="M17.9405,-216.351C12.8781,-182.312 7.92365,-123.214 24,-76 24.9279,-73.2749 26.0874,-70.5828 27.4148,-67.9507"/>
<polygon fill="none" stroke="#404040" points="27.4872,-67.8299 27.14,-60.6271 33.6551,-57.5363 34.0024,-64.7391 27.4872,-67.8299"/>
<text text-anchor="middle" x="49" y="-145.5" font-family="Helvetica,sans-Serif" font-size="10.00"> &#45;angle_up</text>
<text text-anchor="middle" x="49" y="-134.5" font-family="Helvetica,sans-Serif" font-size="10.00">&#45;angle_side</text>
<text text-anchor="middle" x="49" y="-123.5" font-family="Helvetica,sans-Serif" font-size="10.00">&#45;direction</text>
</g>
<!-- Node3 -->
<g id="node3" class="node"><title>Node3</title>
<polygon fill="white" stroke="#bfbfbf" points="78.5,-216.5 78.5,-273.5 113.5,-273.5 113.5,-216.5 78.5,-216.5"/>
<text text-anchor="middle" x="96" y="-261.5" font-family="Helvetica,sans-Serif" font-size="10.00">bool</text>
<polyline fill="none" stroke="#bfbfbf" points="78.5,-254.5 113.5,-254.5 "/>
<text text-anchor="middle" x="96" y="-242.5" font-family="Helvetica,sans-Serif" font-size="10.00"> </text>
<polyline fill="none" stroke="#bfbfbf" points="78.5,-235.5 113.5,-235.5 "/>
<text text-anchor="middle" x="96" y="-223.5" font-family="Helvetica,sans-Serif" font-size="10.00"> </text>
</g>
<!-- Node3&#45;&gt;Node1 -->
<g id="edge2" class="edge"><title>Node3&#45;&gt;Node1</title>
<path fill="none" stroke="#404040" d="M93.9593,-216.372C91.1226,-182.853 85.0453,-124.772 74,-76 73.5199,-73.8802 72.9837,-71.719 72.4075,-69.5463"/>
<polygon fill="none" stroke="#404040" points="72.3967,-69.5093 66.877,-64.8689 69.0375,-57.989 74.5572,-62.6294 72.3967,-69.5093"/>
<text text-anchor="middle" x="143.5" y="-189.5" font-family="Helvetica,sans-Serif" font-size="10.00"> &#45;toggle_bumpmapping</text>
<text text-anchor="middle" x="143.5" y="-178.5" font-family="Helvetica,sans-Serif" font-size="10.00">&#45;trigger_camera_update</text>
<text text-anchor="middle" x="143.5" y="-167.5" font-family="Helvetica,sans-Serif" font-size="10.00">&#45;toggle_diffuse</text>
<text text-anchor="middle" x="143.5" y="-156.5" font-family="Helvetica,sans-Serif" font-size="10.00">&#45;toggle_specular</text>
<text text-anchor="middle" x="143.5" y="-145.5" font-family="Helvetica,sans-Serif" font-size="10.00">&#45;exitbool</text>
<text text-anchor="middle" x="143.5" y="-134.5" font-family="Helvetica,sans-Serif" font-size="10.00">&#45;toggle_texture</text>
<text text-anchor="middle" x="143.5" y="-123.5" font-family="Helvetica,sans-Serif" font-size="10.00">&#45;pending_removal</text>
<text text-anchor="middle" x="143.5" y="-112.5" font-family="Helvetica,sans-Serif" font-size="10.00">&#45;pending_placement</text>
<text text-anchor="middle" x="143.5" y="-101.5" font-family="Helvetica,sans-Serif" font-size="10.00">&#45;free_cam</text>
<text text-anchor="middle" x="143.5" y="-90.5" font-family="Helvetica,sans-Serif" font-size="10.00">&#45;toggle_wireframe</text>
<text text-anchor="middle" x="143.5" y="-79.5" font-family="Helvetica,sans-Serif" font-size="10.00">...</text>
</g>
</g>
</svg>
