<?xml version="1.0" encoding="UTF-8" standalone="no"?>
<!DOCTYPE svg PUBLIC "-//W3C//DTD SVG 1.1//EN"
 "http://www.w3.org/Graphics/SVG/1.1/DTD/svg11.dtd">
<!-- Generated by graphviz version 2.30.1 (20130214.1330)
 -->
<!-- Title: OmniOGL::Scene::Scene Pages: 1 -->
<svg width="656pt" height="333pt"
 viewBox="0.00 0.00 656.00 332.51" xmlns="http://www.w3.org/2000/svg" xmlns:xlink="http://www.w3.org/1999/xlink">
<g id="graph0" class="graph" transform="scale(1 1) rotate(0) translate(4 328.509)">
<title>OmniOGL::Scene::Scene</title>
<polygon fill="white" stroke="white" points="-4,5 -4,-328.509 653,-328.509 653,5 -4,5"/>
<!-- Node1 -->
<g id="node1" class="node"><title>Node1</title>
<polygon fill="#bfbfbf" stroke="black" points="0,-148.5 0,-167.5 128,-167.5 128,-148.5 0,-148.5"/>
<text text-anchor="middle" x="64" y="-155.5" font-family="Helvetica,sans-Serif" font-size="10.00">OmniOGL::Scene::Scene</text>
</g>
<!-- Node2 -->
<g id="node2" class="node"><title>Node2</title>
<g id="a_node2"><a xlink:href="namespace_omni_o_g_l.html#abe5ff24d55002e6ebffb4415d994260a" target="_top" xlink:title="Sets the pointer to the value &#45;1.">
<polygon fill="white" stroke="black" points="404,-255.5 404,-274.5 488,-274.5 488,-255.5 404,-255.5"/>
<text text-anchor="middle" x="446" y="-262.5" font-family="Helvetica,sans-Serif" font-size="10.00">OmniOGL::_Init</text>
</a>
</g>
</g>
<!-- Node1&#45;&gt;Node2 -->
<g id="edge1" class="edge"><title>Node1&#45;&gt;Node2</title>
<path fill="none" stroke="midnightblue" d="M71.8525,-167.599C86.3044,-186.95 122.051,-230.308 164,-248 238.981,-279.624 335.296,-277.302 393.475,-271.815"/>
<polygon fill="midnightblue" stroke="midnightblue" points="393.931,-275.286 403.529,-270.798 393.227,-268.322 393.931,-275.286"/>
</g>
<!-- Node3 -->
<g id="node3" class="node"><title>Node3</title>
<g id="a_node3"><a xlink:href="namespace_omni_o_g_l.html#a80cd48382ee4083e78ba3431e570b82c" target="_top" xlink:title="A wrapper around the new[] keyword. Allocates the desired number of elements to the given pointer...">
<polygon fill="white" stroke="black" points="401,-177.5 401,-196.5 491,-196.5 491,-177.5 401,-177.5"/>
<text text-anchor="middle" x="446" y="-184.5" font-family="Helvetica,sans-Serif" font-size="10.00">OmniOGL::_New</text>
</a>
</g>
</g>
<!-- Node1&#45;&gt;Node3 -->
<g id="edge2" class="edge"><title>Node1&#45;&gt;Node3</title>
<path fill="none" stroke="midnightblue" d="M128.176,-162.821C201.546,-168.421 321.351,-177.564 390.704,-182.856"/>
<polygon fill="midnightblue" stroke="midnightblue" points="390.736,-186.369 400.973,-183.64 391.268,-179.389 390.736,-186.369"/>
</g>
<!-- Node5 -->
<g id="node5" class="node"><title>Node5</title>
<g id="a_node5"><a xlink:href="class_omni_o_g_l_1_1_section.html#a048b806e5f535ddbf0dbca0b5111e65a" target="_top" xlink:title="A method used to either set or retrieve the unique ID/index of the Section. This method will always r...">
<polygon fill="white" stroke="black" points="376,-88.5 376,-107.5 516,-107.5 516,-88.5 376,-88.5"/>
<text text-anchor="middle" x="446" y="-95.5" font-family="Helvetica,sans-Serif" font-size="10.00">OmniOGL::Section::QueryID</text>
</a>
</g>
</g>
<!-- Node1&#45;&gt;Node5 -->
<g id="edge4" class="edge"><title>Node1&#45;&gt;Node5</title>
<path fill="none" stroke="midnightblue" d="M80.3868,-148.305C99.2593,-136.992 132.62,-118.837 164,-111 230.6,-94.3672 308.778,-92.0802 365.742,-93.3998"/>
<polygon fill="midnightblue" stroke="midnightblue" points="365.674,-96.8992 375.766,-93.6742 365.866,-89.9018 365.674,-96.8992"/>
</g>
<!-- Node6 -->
<g id="node6" class="node"><title>Node6</title>
<g id="a_node6"><a xlink:href="class_omni_o_g_l_1_1_scene.html#a7ad1d09b92c04fb221415d8c861e1f48" target="_top" xlink:title="A private method which updates the list of indices which represent all Sections which are in close pr...">
<polygon fill="white" stroke="black" points="164.5,-121 164.5,-151 333.5,-151 333.5,-121 164.5,-121"/>
<text text-anchor="start" x="172.5" y="-139" font-family="Helvetica,sans-Serif" font-size="10.00">OmniOGL::Scene::UpdateAdjacent</text>
<text text-anchor="middle" x="249" y="-128" font-family="Helvetica,sans-Serif" font-size="10.00">SectionsArray</text>
</a>
</g>
</g>
<!-- Node1&#45;&gt;Node6 -->
<g id="edge5" class="edge"><title>Node1&#45;&gt;Node6</title>
<path fill="none" stroke="midnightblue" d="M128.234,-150.398C136.716,-149.378 145.558,-148.315 154.425,-147.249"/>
<polygon fill="midnightblue" stroke="midnightblue" points="154.919,-150.715 164.43,-146.047 154.084,-143.765 154.919,-150.715"/>
</g>
<!-- Node4 -->
<g id="node4" class="node"><title>Node4</title>
<g id="a_node4"><a xlink:href="namespace_omni_o_g_l.html#a8f559408c62db097a1a918d7f58f4183" target="_top" xlink:title="A &quot;clone&quot; of the well&#45;known printf() function, with the debug routed to the OutputDebugString() funct...">
<polygon fill="white" stroke="black" points="558,-215.5 558,-234.5 648,-234.5 648,-215.5 558,-215.5"/>
<text text-anchor="middle" x="603" y="-222.5" font-family="Helvetica,sans-Serif" font-size="10.00">OmniOGL::dprint</text>
</a>
</g>
</g>
<!-- Node1&#45;&gt;Node4 -->
<g id="edge7" class="edge"><title>Node1&#45;&gt;Node4</title>
<path fill="none" stroke="midnightblue" d="M69.5627,-167.562C81.3365,-190.991 115.268,-251.092 164,-275 306.891,-345.103 370.805,-333.723 522,-284 546.898,-275.812 570.411,-256.574 585.419,-242.278"/>
<polygon fill="midnightblue" stroke="midnightblue" points="588.185,-244.466 592.836,-234.946 583.264,-239.487 588.185,-244.466"/>
</g>
<!-- Node7 -->
<g id="node7" class="node"><title>Node7</title>
<g id="a_node7"><a xlink:href="class_omni_o_g_l_1_1_camera.html#a711885effb33e3a5de6b3b724af34f62" target="_top" xlink:title="A comprehensive method which checks to see if camera movement or camera orientation change is pending...">
<polygon fill="white" stroke="black" points="180.5,-44.5 180.5,-63.5 317.5,-63.5 317.5,-44.5 180.5,-44.5"/>
<text text-anchor="middle" x="249" y="-51.5" font-family="Helvetica,sans-Serif" font-size="10.00">OmniOGL::Camera::Update</text>
</a>
</g>
</g>
<!-- Node1&#45;&gt;Node7 -->
<g id="edge8" class="edge"><title>Node1&#45;&gt;Node7</title>
<path fill="none" stroke="midnightblue" d="M74.1775,-148.384C90.638,-131.68 126.935,-97.2481 164,-78 172.783,-73.4391 182.545,-69.644 192.218,-66.5206"/>
<polygon fill="midnightblue" stroke="midnightblue" points="193.261,-69.8617 201.821,-63.6177 191.236,-63.1612 193.261,-69.8617"/>
</g>
<!-- Node9 -->
<g id="node9" class="node"><title>Node9</title>
<g id="a_node9"><a xlink:href="class_omni_o_g_l_1_1_line_strip.html#af64b3e0837c49702b82c3b7a6c4288e4" target="_top" xlink:title="Adds a line segment to the class instance using absolute coordinates for a start and end point (i...">
<polygon fill="white" stroke="black" points="197,-209 197,-239 301,-239 301,-209 197,-209"/>
<text text-anchor="start" x="205" y="-227" font-family="Helvetica,sans-Serif" font-size="10.00">OmniOGL::LineStrip</text>
<text text-anchor="middle" x="249" y="-216" font-family="Helvetica,sans-Serif" font-size="10.00">::AddInstance</text>
</a>
</g>
</g>
<!-- Node1&#45;&gt;Node9 -->
<g id="edge11" class="edge"><title>Node1&#45;&gt;Node9</title>
<path fill="none" stroke="midnightblue" d="M91.0404,-167.515C110.997,-174.797 139.224,-185.071 164,-194 174.373,-197.738 185.474,-201.718 196.096,-205.515"/>
<polygon fill="midnightblue" stroke="midnightblue" points="195.086,-208.871 205.681,-208.939 197.441,-202.279 195.086,-208.871"/>
</g>
<!-- Node11 -->
<g id="node11" class="node"><title>Node11</title>
<g id="a_node11"><a xlink:href="class_omni_o_g_l_1_1_scene.html#a63db7f91d326ad1a20741b31417b8148" target="_top" xlink:title="A template method which adds an renderable object of type T to the scene. It is assumed that T is a d...">
<polygon fill="white" stroke="black" points="176,-3.5 176,-22.5 322,-22.5 322,-3.5 176,-3.5"/>
<text text-anchor="middle" x="249" y="-10.5" font-family="Helvetica,sans-Serif" font-size="10.00">OmniOGL::Scene::AddObject</text>
</a>
</g>
</g>
<!-- Node1&#45;&gt;Node11 -->
<g id="edge16" class="edge"><title>Node1&#45;&gt;Node11</title>
<path fill="none" stroke="midnightblue" d="M69.9668,-148.256C82.4083,-124.865 117.291,-65.2445 164,-35 169.398,-31.5049 175.329,-28.5638 181.466,-26.089"/>
<polygon fill="midnightblue" stroke="midnightblue" points="183.01,-29.2531 191.232,-22.5713 180.637,-22.6673 183.01,-29.2531"/>
</g>
<!-- Node3&#45;&gt;Node4 -->
<g id="edge3" class="edge"><title>Node3&#45;&gt;Node4</title>
<path fill="none" stroke="midnightblue" d="M486.113,-196.589C506.475,-201.581 531.566,-207.732 553.189,-213.033"/>
<polygon fill="midnightblue" stroke="midnightblue" points="552.622,-216.498 563.168,-215.48 554.289,-209.699 552.622,-216.498"/>
</g>
<!-- Node6&#45;&gt;Node5 -->
<g id="edge6" class="edge"><title>Node6&#45;&gt;Node5</title>
<path fill="none" stroke="midnightblue" d="M327.069,-120.981C346.831,-117.13 367.766,-113.051 386.425,-109.415"/>
<polygon fill="midnightblue" stroke="midnightblue" points="387.099,-112.849 396.245,-107.501 385.76,-105.978 387.099,-112.849"/>
</g>
<!-- Node8 -->
<g id="node8" class="node"><title>Node8</title>
<g id="a_node8"><a xlink:href="class_omni_o_g_l_1_1_camera.html#a698009762978100380046bf41abd45ea" target="_top" xlink:title="This method rotates a 3D vector (represented by a three element float array) around another 3D vector...">
<polygon fill="white" stroke="black" points="385.5,-39 385.5,-69 506.5,-69 506.5,-39 385.5,-39"/>
<text text-anchor="start" x="393.5" y="-57" font-family="Helvetica,sans-Serif" font-size="10.00">OmniOGL::Camera::raw</text>
<text text-anchor="middle" x="446" y="-46" font-family="Helvetica,sans-Serif" font-size="10.00">_rotate</text>
</a>
</g>
</g>
<!-- Node7&#45;&gt;Node8 -->
<g id="edge9" class="edge"><title>Node7&#45;&gt;Node8</title>
<path fill="none" stroke="midnightblue" d="M317.654,-54C336.217,-54 356.377,-54 375.065,-54"/>
<polygon fill="midnightblue" stroke="midnightblue" points="375.276,-57.5001 385.276,-54 375.276,-50.5001 375.276,-57.5001"/>
</g>
<!-- Node7&#45;&gt;Node5 -->
<g id="edge10" class="edge"><title>Node7&#45;&gt;Node5</title>
<path fill="none" stroke="midnightblue" d="M292.312,-63.5473C321.826,-70.2069 361.4,-79.1363 392.863,-86.2358"/>
<polygon fill="midnightblue" stroke="midnightblue" points="392.245,-89.6843 402.77,-88.4713 393.786,-82.856 392.245,-89.6843"/>
</g>
<!-- Node9&#45;&gt;Node2 -->
<g id="edge12" class="edge"><title>Node9&#45;&gt;Node2</title>
<path fill="none" stroke="midnightblue" d="M301.234,-234.772C329.901,-240.8 365.515,-248.288 394.124,-254.303"/>
<polygon fill="midnightblue" stroke="midnightblue" points="393.422,-257.732 403.928,-256.364 394.863,-250.882 393.422,-257.732"/>
</g>
<!-- Node9&#45;&gt;Node3 -->
<g id="edge13" class="edge"><title>Node9&#45;&gt;Node3</title>
<path fill="none" stroke="midnightblue" d="M301.234,-214.279C328.771,-209.054 362.718,-202.613 390.709,-197.301"/>
<polygon fill="midnightblue" stroke="midnightblue" points="391.556,-200.703 400.729,-195.4 390.251,-193.826 391.556,-200.703"/>
</g>
<!-- Node10 -->
<g id="node10" class="node"><title>Node10</title>
<g id="a_node10"><a xlink:href="namespace_omni_o_g_l.html#ab790cf1cdc8d2bcbdbbe06c6d87f1a1d" target="_top" xlink:title="A wrapper for the delete[] keyword. Always uses delete[], and never delete.">
<polygon fill="white" stroke="black" points="396.5,-215.5 396.5,-234.5 495.5,-234.5 495.5,-215.5 396.5,-215.5"/>
<text text-anchor="middle" x="446" y="-222.5" font-family="Helvetica,sans-Serif" font-size="10.00">OmniOGL::_Delete</text>
</a>
</g>
</g>
<!-- Node9&#45;&gt;Node10 -->
<g id="edge14" class="edge"><title>Node9&#45;&gt;Node10</title>
<path fill="none" stroke="midnightblue" d="M301.234,-224.263C327.349,-224.397 359.23,-224.56 386.328,-224.699"/>
<polygon fill="midnightblue" stroke="midnightblue" points="386.439,-228.2 396.457,-224.751 386.475,-221.2 386.439,-228.2"/>
</g>
<!-- Node10&#45;&gt;Node4 -->
<g id="edge15" class="edge"><title>Node10&#45;&gt;Node4</title>
<path fill="none" stroke="midnightblue" d="M495.618,-225C512.087,-225 530.586,-225 547.484,-225"/>
<polygon fill="midnightblue" stroke="midnightblue" points="547.765,-228.5 557.765,-225 547.765,-221.5 547.765,-228.5"/>
</g>
<!-- Node12 -->
<g id="node12" class="node"><title>Node12</title>
<g id="a_node12"><a xlink:href="class_omni_o_g_l_1_1_section.html#a20b4cf2c6472d59e9967aa8dbad377a4" target="_top" xlink:title="Adds an object to the Section&#39;s collection (linked list) of objects. This method also increments Sect...">
<polygon fill="white" stroke="black" points="370.5,-0.5 370.5,-19.5 521.5,-19.5 521.5,-0.5 370.5,-0.5"/>
<text text-anchor="middle" x="446" y="-7.5" font-family="Helvetica,sans-Serif" font-size="10.00">OmniOGL::Section::AddObject</text>
</a>
</g>
</g>
<!-- Node11&#45;&gt;Node12 -->
<g id="edge17" class="edge"><title>Node11&#45;&gt;Node12</title>
<path fill="none" stroke="midnightblue" d="M322.057,-11.8914C334.47,-11.7005 347.475,-11.5004 360.187,-11.3048"/>
<polygon fill="midnightblue" stroke="midnightblue" points="360.357,-14.8027 370.302,-11.1492 360.249,-7.80354 360.357,-14.8027"/>
</g>
</g>
</svg>
