<?xml version="1.0" encoding="UTF-8" standalone="no"?>
<!DOCTYPE svg PUBLIC "-//W3C//DTD SVG 1.1//EN"
 "http://www.w3.org/Graphics/SVG/1.1/DTD/svg11.dtd">
<!-- Generated by graphviz version 2.30.1 (20130214.1330)
 -->
<!-- Title: OmniOGL::OGLAttributes Pages: 1 -->
<svg width="170pt" height="260pt"
 viewBox="0.00 0.00 170.00 260.00" xmlns="http://www.w3.org/2000/svg" xmlns:xlink="http://www.w3.org/1999/xlink">
<g id="graph0" class="graph" transform="scale(1 1) rotate(0) translate(4 256)">
<title>OmniOGL::OGLAttributes</title>
<polygon fill="white" stroke="white" points="-4,5 -4,-256 167,-256 167,5 -4,5"/>
<!-- Node1 -->
<g id="node1" class="node"><title>Node1</title>
<polygon fill="#bfbfbf" stroke="black" points="0,-0.5 0,-101.5 162,-101.5 162,-0.5 0,-0.5"/>
<text text-anchor="middle" x="81" y="-89.5" font-family="Helvetica,sans-Serif" font-size="10.00">OmniOGL::OGLAttributes</text>
<polyline fill="none" stroke="black" points="0,-82.5 162,-82.5 "/>
<text text-anchor="middle" x="81" y="-70.5" font-family="Helvetica,sans-Serif" font-size="10.00"> </text>
<polyline fill="none" stroke="black" points="0,-63.5 162,-63.5 "/>
<text text-anchor="start" x="8" y="-51.5" font-family="Helvetica,sans-Serif" font-size="10.00">+ OGLAttributes()</text>
<text text-anchor="start" x="8" y="-40.5" font-family="Helvetica,sans-Serif" font-size="10.00">+ OGLAttributes()</text>
<text text-anchor="start" x="8" y="-29.5" font-family="Helvetica,sans-Serif" font-size="10.00">+ OGLAttributes::OGLAttributes()</text>
<text text-anchor="start" x="8" y="-18.5" font-family="Helvetica,sans-Serif" font-size="10.00">+ operator=()</text>
<text text-anchor="start" x="8" y="-7.5" font-family="Helvetica,sans-Serif" font-size="10.00">&#45; ConfigureAttribute()</text>
</g>
<!-- Node2 -->
<g id="node2" class="node"><title>Node2</title>
<polygon fill="white" stroke="#bfbfbf" points="29,-194.5 29,-251.5 69,-251.5 69,-194.5 29,-194.5"/>
<text text-anchor="middle" x="49" y="-239.5" font-family="Helvetica,sans-Serif" font-size="10.00">GLint</text>
<polyline fill="none" stroke="#bfbfbf" points="29,-232.5 69,-232.5 "/>
<text text-anchor="middle" x="49" y="-220.5" font-family="Helvetica,sans-Serif" font-size="10.00"> </text>
<polyline fill="none" stroke="#bfbfbf" points="29,-213.5 69,-213.5 "/>
<text text-anchor="middle" x="49" y="-201.5" font-family="Helvetica,sans-Serif" font-size="10.00"> </text>
</g>
<!-- Node2&#45;&gt;Node1 -->
<g id="edge1" class="edge"><title>Node2&#45;&gt;Node1</title>
<path fill="none" stroke="#404040" d="M46.2,-194.373C44.836,-173.65 44.5039,-144.721 50,-120 50.5068,-117.72 51.0957,-115.425 51.7525,-113.127"/>
<polygon fill="none" stroke="#404040" points="51.7689,-113.078 49.8556,-106.125 55.5376,-101.685 57.4509,-108.637 51.7689,-113.078"/>
<text text-anchor="middle" x="70.5" y="-167.5" font-family="Helvetica,sans-Serif" font-size="10.00"> &#45;color</text>
<text text-anchor="middle" x="70.5" y="-156.5" font-family="Helvetica,sans-Serif" font-size="10.00">&#45;srt</text>
<text text-anchor="middle" x="70.5" y="-145.5" font-family="Helvetica,sans-Serif" font-size="10.00">&#45;texcoord</text>
<text text-anchor="middle" x="70.5" y="-134.5" font-family="Helvetica,sans-Serif" font-size="10.00">&#45;normal</text>
<text text-anchor="middle" x="70.5" y="-123.5" font-family="Helvetica,sans-Serif" font-size="10.00">&#45;position</text>
</g>
<!-- Node3 -->
<g id="node3" class="node"><title>Node3</title>
<polygon fill="white" stroke="#bfbfbf" points="95.5,-194.5 95.5,-251.5 130.5,-251.5 130.5,-194.5 95.5,-194.5"/>
<text text-anchor="middle" x="113" y="-239.5" font-family="Helvetica,sans-Serif" font-size="10.00">bool</text>
<polyline fill="none" stroke="#bfbfbf" points="95.5,-232.5 130.5,-232.5 "/>
<text text-anchor="middle" x="113" y="-220.5" font-family="Helvetica,sans-Serif" font-size="10.00"> </text>
<polyline fill="none" stroke="#bfbfbf" points="95.5,-213.5 130.5,-213.5 "/>
<text text-anchor="middle" x="113" y="-201.5" font-family="Helvetica,sans-Serif" font-size="10.00"> </text>
</g>
<!-- Node3&#45;&gt;Node1 -->
<g id="edge2" class="edge"><title>Node3&#45;&gt;Node1</title>
<path fill="none" stroke="#404040" d="M107.787,-194.308C103.684,-172.508 97.8081,-141.293 92.6047,-113.65"/>
<polygon fill="none" stroke="#404040" points="92.5667,-113.448 87.5258,-108.291 90.3468,-101.655 95.3877,-106.811 92.5667,-113.448"/>
<text text-anchor="middle" x="116.5" y="-145.5" font-family="Helvetica,sans-Serif" font-size="10.00"> &#45;valid</text>
</g>
</g>
</svg>
