<?xml version="1.0" encoding="UTF-8" standalone="no"?>
<!DOCTYPE svg PUBLIC "-//W3C//DTD SVG 1.1//EN"
 "http://www.w3.org/Graphics/SVG/1.1/DTD/svg11.dtd">
<!-- Generated by graphviz version 2.30.1 (20130214.1330)
 -->
<!-- Title: OmniOGL::RenObj::SetTexture Pages: 1 -->
<svg width="450pt" height="38pt"
 viewBox="0.00 0.00 450.00 38.00" xmlns="http://www.w3.org/2000/svg" xmlns:xlink="http://www.w3.org/1999/xlink">
<g id="graph0" class="graph" transform="scale(1 1) rotate(0) translate(4 34)">
<title>OmniOGL::RenObj::SetTexture</title>
<polygon fill="white" stroke="white" points="-4,5 -4,-34 447,-34 447,5 -4,5"/>
<!-- Node1 -->
<g id="node1" class="node"><title>Node1</title>
<polygon fill="#bfbfbf" stroke="black" points="0,-5.5 0,-24.5 152,-24.5 152,-5.5 0,-5.5"/>
<text text-anchor="middle" x="76" y="-12.5" font-family="Helvetica,sans-Serif" font-size="10.00">OmniOGL::RenObj::SetTexture</text>
</g>
<!-- Node2 -->
<g id="node2" class="node"><title>Node2</title>
<g id="a_node2"><a xlink:href="class_omni_o_g_l_1_1_texture_master.html#a56b2b7f79786e2e26ba0d602f35d08fd" target="_top" xlink:title="A static method which takes the path to a picture file as a parameter, uses the SOIL library to load ...">
<polygon fill="white" stroke="black" points="188,-0 188,-30 316,-30 316,-0 188,-0"/>
<text text-anchor="start" x="196" y="-18" font-family="Helvetica,sans-Serif" font-size="10.00">OmniOGL::TextureMaster</text>
<text text-anchor="middle" x="252" y="-7" font-family="Helvetica,sans-Serif" font-size="10.00">::MakeTexture</text>
</a>
</g>
</g>
<!-- Node1&#45;&gt;Node2 -->
<g id="edge1" class="edge"><title>Node1&#45;&gt;Node2</title>
<path fill="none" stroke="midnightblue" d="M152.054,-15C160.555,-15 169.211,-15 177.689,-15"/>
<polygon fill="midnightblue" stroke="midnightblue" points="177.92,-18.5001 187.92,-15 177.92,-11.5001 177.92,-18.5001"/>
</g>
<!-- Node3 -->
<g id="node3" class="node"><title>Node3</title>
<g id="a_node3"><a xlink:href="namespace_omni_o_g_l.html#a8f559408c62db097a1a918d7f58f4183" target="_top" xlink:title="A &quot;clone&quot; of the well&#45;known printf() function, with the debug routed to the OutputDebugString() funct...">
<polygon fill="white" stroke="black" points="352,-5.5 352,-24.5 442,-24.5 442,-5.5 352,-5.5"/>
<text text-anchor="middle" x="397" y="-12.5" font-family="Helvetica,sans-Serif" font-size="10.00">OmniOGL::dprint</text>
</a>
</g>
</g>
<!-- Node2&#45;&gt;Node3 -->
<g id="edge2" class="edge"><title>Node2&#45;&gt;Node3</title>
<path fill="none" stroke="midnightblue" d="M316.138,-15C324.555,-15 333.129,-15 341.385,-15"/>
<polygon fill="midnightblue" stroke="midnightblue" points="341.636,-18.5001 351.636,-15 341.635,-11.5001 341.636,-18.5001"/>
</g>
</g>
</svg>
