<?xml version="1.0" encoding="UTF-8" standalone="no"?>
<!DOCTYPE svg PUBLIC "-//W3C//DTD SVG 1.1//EN"
 "http://www.w3.org/Graphics/SVG/1.1/DTD/svg11.dtd">
<!-- Generated by graphviz version 2.30.1 (20130214.1330)
 -->
<!-- Title: OmniOGL::BlockArray::operator= Pages: 1 -->
<svg width="566pt" height="142pt"
 viewBox="0.00 0.00 566.00 142.00" xmlns="http://www.w3.org/2000/svg" xmlns:xlink="http://www.w3.org/1999/xlink">
<g id="graph0" class="graph" transform="scale(1 1) rotate(0) translate(4 138)">
<title>OmniOGL::BlockArray::operator=</title>
<polygon fill="white" stroke="white" points="-4,5 -4,-138 563,-138 563,5 -4,5"/>
<!-- Node1 -->
<g id="node1" class="node"><title>Node1</title>
<polygon fill="#bfbfbf" stroke="black" points="0,-47 0,-77 114,-77 114,-47 0,-47"/>
<text text-anchor="start" x="8" y="-65" font-family="Helvetica,sans-Serif" font-size="10.00">OmniOGL::BlockArray</text>
<text text-anchor="middle" x="57" y="-54" font-family="Helvetica,sans-Serif" font-size="10.00">::operator=</text>
</g>
<!-- Node2 -->
<g id="node2" class="node"><title>Node2</title>
<g id="a_node2"><a xlink:href="class_omni_o_g_l_1_1_ren_obj.html#a0f76d1a329f2ed1ded9a87b1fdb70d19" target="_top" xlink:title="The &#39;=&#39; operator for the RenObj class. This method is called any time a derived class instance of a R...">
<polygon fill="white" stroke="black" points="150,-52.5 150,-71.5 296,-71.5 296,-52.5 150,-52.5"/>
<text text-anchor="middle" x="223" y="-59.5" font-family="Helvetica,sans-Serif" font-size="10.00">OmniOGL::RenObj::operator=</text>
</a>
</g>
</g>
<!-- Node1&#45;&gt;Node2 -->
<g id="edge1" class="edge"><title>Node1&#45;&gt;Node2</title>
<path fill="none" stroke="midnightblue" d="M114.439,-62C122.631,-62 131.2,-62 139.773,-62"/>
<polygon fill="midnightblue" stroke="midnightblue" points="139.816,-65.5001 149.816,-62 139.815,-58.5001 139.816,-65.5001"/>
</g>
<!-- Node6 -->
<g id="node6" class="node"><title>Node6</title>
<g id="a_node6"><a xlink:href="namespace_omni_o_g_l.html#ab790cf1cdc8d2bcbdbbe06c6d87f1a1d" target="_top" xlink:title="A wrapper for the delete[] keyword. Always uses delete[], and never delete.">
<polygon fill="white" stroke="black" points="332.5,-0.5 332.5,-19.5 431.5,-19.5 431.5,-0.5 332.5,-0.5"/>
<text text-anchor="middle" x="382" y="-7.5" font-family="Helvetica,sans-Serif" font-size="10.00">OmniOGL::_Delete</text>
</a>
</g>
</g>
<!-- Node1&#45;&gt;Node6 -->
<g id="edge8" class="edge"><title>Node1&#45;&gt;Node6</title>
<path fill="none" stroke="midnightblue" d="M114.334,-49.7921C126.094,-47.4049 138.432,-45.0188 150,-43 208.373,-32.8129 275.452,-23.4939 322.233,-17.3766"/>
<polygon fill="midnightblue" stroke="midnightblue" points="322.726,-20.8421 332.191,-16.0827 321.823,-13.9005 322.726,-20.8421"/>
</g>
<!-- Node4 -->
<g id="node4" class="node"><title>Node4</title>
<g id="a_node4"><a xlink:href="namespace_omni_o_g_l.html#a80cd48382ee4083e78ba3431e570b82c" target="_top" xlink:title="A wrapper around the new[] keyword. Allocates the desired number of elements to the given pointer...">
<polygon fill="white" stroke="black" points="337,-114.5 337,-133.5 427,-133.5 427,-114.5 337,-114.5"/>
<text text-anchor="middle" x="382" y="-121.5" font-family="Helvetica,sans-Serif" font-size="10.00">OmniOGL::_New</text>
</a>
</g>
</g>
<!-- Node1&#45;&gt;Node4 -->
<g id="edge9" class="edge"><title>Node1&#45;&gt;Node4</title>
<path fill="none" stroke="midnightblue" d="M114.403,-73.8308C126.159,-76.2453 138.477,-78.7379 150,-81 210.414,-92.8602 279.883,-105.682 326.732,-114.209"/>
<polygon fill="midnightblue" stroke="midnightblue" points="326.202,-117.67 336.667,-116.014 327.454,-110.782 326.202,-117.67"/>
</g>
<!-- Node3 -->
<g id="node3" class="node"><title>Node3</title>
<g id="a_node3"><a xlink:href="namespace_omni_o_g_l.html#abe5ff24d55002e6ebffb4415d994260a" target="_top" xlink:title="Sets the pointer to the value &#45;1.">
<polygon fill="white" stroke="black" points="340,-76.5 340,-95.5 424,-95.5 424,-76.5 340,-76.5"/>
<text text-anchor="middle" x="382" y="-83.5" font-family="Helvetica,sans-Serif" font-size="10.00">OmniOGL::_Init</text>
</a>
</g>
</g>
<!-- Node2&#45;&gt;Node3 -->
<g id="edge2" class="edge"><title>Node2&#45;&gt;Node3</title>
<path fill="none" stroke="midnightblue" d="M286.502,-71.5544C300.812,-73.7419 315.862,-76.0426 329.641,-78.1489"/>
<polygon fill="midnightblue" stroke="midnightblue" points="329.482,-81.6652 339.896,-79.7166 330.54,-74.7456 329.482,-81.6652"/>
</g>
<!-- Node2&#45;&gt;Node4 -->
<g id="edge3" class="edge"><title>Node2&#45;&gt;Node4</title>
<path fill="none" stroke="midnightblue" d="M247.997,-71.626C269.866,-80.3816 303.074,-93.6336 332,-105 336.813,-106.891 341.896,-108.876 346.894,-110.821"/>
<polygon fill="midnightblue" stroke="midnightblue" points="345.718,-114.119 356.307,-114.475 348.251,-107.593 345.718,-114.119"/>
</g>
<!-- Node2&#45;&gt;Node6 -->
<g id="edge5" class="edge"><title>Node2&#45;&gt;Node6</title>
<path fill="none" stroke="midnightblue" d="M252.796,-52.4624C277.947,-44.1322 314.661,-31.9721 342.361,-22.7975"/>
<polygon fill="midnightblue" stroke="midnightblue" points="343.729,-26.0317 352.121,-19.565 341.528,-19.3867 343.729,-26.0317"/>
</g>
<!-- Node7 -->
<g id="node7" class="node"><title>Node7</title>
<g id="a_node7"><a xlink:href="namespace_omni_o_g_l.html#ade1ba238a31a1003412522a2769d5945" target="_top" xlink:title="OmniOGL::_Valid">
<polygon fill="white" stroke="black" points="335.5,-38.5 335.5,-57.5 428.5,-57.5 428.5,-38.5 335.5,-38.5"/>
<text text-anchor="middle" x="382" y="-45.5" font-family="Helvetica,sans-Serif" font-size="10.00">OmniOGL::_Valid</text>
</a>
</g>
</g>
<!-- Node2&#45;&gt;Node7 -->
<g id="edge7" class="edge"><title>Node2&#45;&gt;Node7</title>
<path fill="none" stroke="midnightblue" d="M296.067,-55.5736C305.894,-54.6974 315.856,-53.809 325.332,-52.964"/>
<polygon fill="midnightblue" stroke="midnightblue" points="325.745,-56.4412 335.395,-52.0667 325.123,-49.4688 325.745,-56.4412"/>
</g>
<!-- Node5 -->
<g id="node5" class="node"><title>Node5</title>
<g id="a_node5"><a xlink:href="namespace_omni_o_g_l.html#a8f559408c62db097a1a918d7f58f4183" target="_top" xlink:title="A &quot;clone&quot; of the well&#45;known printf() function, with the debug routed to the OutputDebugString() funct...">
<polygon fill="white" stroke="black" points="468,-57.5 468,-76.5 558,-76.5 558,-57.5 468,-57.5"/>
<text text-anchor="middle" x="513" y="-64.5" font-family="Helvetica,sans-Serif" font-size="10.00">OmniOGL::dprint</text>
</a>
</g>
</g>
<!-- Node4&#45;&gt;Node5 -->
<g id="edge4" class="edge"><title>Node4&#45;&gt;Node5</title>
<path fill="none" stroke="midnightblue" d="M408.576,-114.491C416.163,-111.561 424.458,-108.248 432,-105 449.261,-97.566 468.276,-88.5683 483.435,-81.1948"/>
<polygon fill="midnightblue" stroke="midnightblue" points="485.342,-84.1583 492.783,-76.6166 482.263,-77.8717 485.342,-84.1583"/>
</g>
<!-- Node6&#45;&gt;Node5 -->
<g id="edge6" class="edge"><title>Node6&#45;&gt;Node5</title>
<path fill="none" stroke="midnightblue" d="M408.576,-19.5089C416.163,-22.4392 424.458,-25.7518 432,-29 449.261,-36.434 468.276,-45.4317 483.435,-52.8052"/>
<polygon fill="midnightblue" stroke="midnightblue" points="482.263,-56.1283 492.783,-57.3834 485.342,-49.8417 482.263,-56.1283"/>
</g>
</g>
</svg>
