<?xml version="1.0" encoding="UTF-8" standalone="no"?>
<!DOCTYPE svg PUBLIC "-//W3C//DTD SVG 1.1//EN"
 "http://www.w3.org/Graphics/SVG/1.1/DTD/svg11.dtd">
<!-- Generated by graphviz version 2.30.1 (20130214.1330)
 -->
<!-- Title: OmniOGL::RenObj::MakeTexture Pages: 1 -->
<svg width="542pt" height="66pt"
 viewBox="0.00 0.00 542.00 66.00" xmlns="http://www.w3.org/2000/svg" xmlns:xlink="http://www.w3.org/1999/xlink">
<g id="graph0" class="graph" transform="scale(1 1) rotate(0) translate(4 62)">
<title>OmniOGL::RenObj::MakeTexture</title>
<polygon fill="white" stroke="white" points="-4,5 -4,-62 539,-62 539,5 -4,5"/>
<!-- Node1 -->
<g id="node1" class="node"><title>Node1</title>
<polygon fill="#bfbfbf" stroke="black" points="0.5,-19.5 0.5,-38.5 161.5,-38.5 161.5,-19.5 0.5,-19.5"/>
<text text-anchor="middle" x="81" y="-26.5" font-family="Helvetica,sans-Serif" font-size="10.00">OmniOGL::RenObj::MakeTexture</text>
</g>
<!-- Node2 -->
<g id="node2" class="node"><title>Node2</title>
<g id="a_node2"><a xlink:href="class_omni_o_g_l_1_1_ren_obj.html#af3c38be2a56405acab4dd354904f8576" target="_top" xlink:title="A setter which is more&#45;or&#45;less just a wrapper around the static function RenObj::MakeTexture(). This method sets the appropriate member with the value returned by MakeTexture(). The texture of an object is the image that is used to color the object&#39;s face(s). RenObj::SetTexture(std::string,bool), RenObj::MakeTexture(), RenObj::texture_sel">
<polygon fill="white" stroke="black" points="204,-38.5 204,-57.5 356,-57.5 356,-38.5 204,-38.5"/>
<text text-anchor="middle" x="280" y="-45.5" font-family="Helvetica,sans-Serif" font-size="10.00">OmniOGL::RenObj::SetTexture</text>
</a>
</g>
</g>
<!-- Node1&#45;&gt;Node2 -->
<g id="edge1" class="edge"><title>Node1&#45;&gt;Node2</title>
<path fill="none" stroke="midnightblue" d="M171.8,-37.6609C182.543,-38.697 193.424,-39.7465 203.929,-40.7596"/>
<polygon fill="midnightblue" stroke="midnightblue" points="171.849,-34.1495 161.56,-36.6733 171.177,-41.1172 171.849,-34.1495"/>
</g>
<!-- Node5 -->
<g id="node5" class="node"><title>Node5</title>
<g id="a_node5"><a xlink:href="class_omni_o_g_l_1_1_ren_obj.html#a3e92b18f8431eadeedd525dfd5f7f45c" target="_top" xlink:title="A setter which is more&#45;or&#45;less just a wrapper around the static function RenObj::MakeTexture(). This method sets the appropriate member with the value returned by MakeTexture(). The bump map is an image whose color components are used to alter the normals of each object to simulate small differences in lighting.RenObj::SetBumpMap(GLint), RenObj::MakeTexture(), RenObj::bump_map">
<polygon fill="white" stroke="black" points="198,-0.5 198,-19.5 362,-19.5 362,-0.5 198,-0.5"/>
<text text-anchor="middle" x="280" y="-7.5" font-family="Helvetica,sans-Serif" font-size="10.00">OmniOGL::RenObj::SetBumpMap</text>
</a>
</g>
</g>
<!-- Node1&#45;&gt;Node5 -->
<g id="edge4" class="edge"><title>Node1&#45;&gt;Node5</title>
<path fill="none" stroke="midnightblue" d="M171.726,-20.3462C180.437,-19.5061 189.24,-18.6571 197.86,-17.8257"/>
<polygon fill="midnightblue" stroke="midnightblue" points="171.177,-16.8828 161.56,-21.3267 171.849,-23.8505 171.177,-16.8828"/>
</g>
<!-- Node3 -->
<g id="node3" class="node"><title>Node3</title>
<g id="a_node3"><a xlink:href="_exec_8cpp.html#a38c5e7def3be6ea702581ee4a92b9cc0" target="_top" xlink:title="render">
<polygon fill="white" stroke="black" points="398,-19.5 398,-38.5 442,-38.5 442,-19.5 398,-19.5"/>
<text text-anchor="middle" x="420" y="-26.5" font-family="Helvetica,sans-Serif" font-size="10.00">render</text>
</a>
</g>
</g>
<!-- Node2&#45;&gt;Node3 -->
<g id="edge2" class="edge"><title>Node2&#45;&gt;Node3</title>
<path fill="none" stroke="midnightblue" d="M360.514,-37.0524C374.304,-35.1538 387.52,-33.3342 397.889,-31.9065"/>
<polygon fill="midnightblue" stroke="midnightblue" points="359.833,-33.613 350.404,-38.4443 360.788,-40.5476 359.833,-33.613"/>
</g>
<!-- Node4 -->
<g id="node4" class="node"><title>Node4</title>
<g id="a_node4"><a xlink:href="_exec_8cpp.html#a66e65252a6985e382838442f280f46ba" target="_top" xlink:title="WinMain">
<polygon fill="white" stroke="black" points="478.5,-19.5 478.5,-38.5 533.5,-38.5 533.5,-19.5 478.5,-19.5"/>
<text text-anchor="middle" x="506" y="-26.5" font-family="Helvetica,sans-Serif" font-size="10.00">WinMain</text>
</a>
</g>
</g>
<!-- Node3&#45;&gt;Node4 -->
<g id="edge3" class="edge"><title>Node3&#45;&gt;Node4</title>
<path fill="none" stroke="midnightblue" d="M452.253,-29C460.845,-29 470.081,-29 478.386,-29"/>
<polygon fill="midnightblue" stroke="midnightblue" points="452.197,-25.5001 442.197,-29 452.197,-32.5001 452.197,-25.5001"/>
</g>
<!-- Node5&#45;&gt;Node3 -->
<g id="edge5" class="edge"><title>Node5&#45;&gt;Node3</title>
<path fill="none" stroke="midnightblue" d="M360.514,-20.9476C374.304,-22.8462 387.52,-24.6658 397.889,-26.0935"/>
<polygon fill="midnightblue" stroke="midnightblue" points="360.788,-17.4524 350.404,-19.5557 359.833,-24.387 360.788,-17.4524"/>
</g>
</g>
</svg>
