<?xml version="1.0" encoding="UTF-8" standalone="no"?>
<!DOCTYPE svg PUBLIC "-//W3C//DTD SVG 1.1//EN"
 "http://www.w3.org/Graphics/SVG/1.1/DTD/svg11.dtd">
<!-- Generated by graphviz version 2.30.1 (20130214.1330)
 -->
<!-- Title: OmniOGL::LineStrip::operator= Pages: 1 -->
<svg width="556pt" height="142pt"
 viewBox="0.00 0.00 556.00 142.00" xmlns="http://www.w3.org/2000/svg" xmlns:xlink="http://www.w3.org/1999/xlink">
<g id="graph0" class="graph" transform="scale(1 1) rotate(0) translate(4 138)">
<title>OmniOGL::LineStrip::operator=</title>
<polygon fill="white" stroke="white" points="-4,5 -4,-138 553,-138 553,5 -4,5"/>
<!-- Node1 -->
<g id="node1" class="node"><title>Node1</title>
<polygon fill="#bfbfbf" stroke="black" points="0,-52 0,-82 104,-82 104,-52 0,-52"/>
<text text-anchor="start" x="8" y="-70" font-family="Helvetica,sans-Serif" font-size="10.00">OmniOGL::LineStrip</text>
<text text-anchor="middle" x="52" y="-59" font-family="Helvetica,sans-Serif" font-size="10.00">::operator=</text>
</g>
<!-- Node2 -->
<g id="node2" class="node"><title>Node2</title>
<g id="a_node2"><a xlink:href="class_omni_o_g_l_1_1_ren_obj.html#a0f76d1a329f2ed1ded9a87b1fdb70d19" target="_top" xlink:title="The &#39;=&#39; operator for the RenObj class. This method is called any time a derived class instance of a R...">
<polygon fill="white" stroke="black" points="140,-57.5 140,-76.5 286,-76.5 286,-57.5 140,-57.5"/>
<text text-anchor="middle" x="213" y="-64.5" font-family="Helvetica,sans-Serif" font-size="10.00">OmniOGL::RenObj::operator=</text>
</a>
</g>
</g>
<!-- Node1&#45;&gt;Node2 -->
<g id="edge1" class="edge"><title>Node1&#45;&gt;Node2</title>
<path fill="none" stroke="midnightblue" d="M104.184,-67C112.34,-67 120.954,-67 129.613,-67"/>
<polygon fill="midnightblue" stroke="midnightblue" points="129.775,-70.5001 139.775,-67 129.775,-63.5001 129.775,-70.5001"/>
</g>
<!-- Node3 -->
<g id="node3" class="node"><title>Node3</title>
<g id="a_node3"><a xlink:href="namespace_omni_o_g_l.html#abe5ff24d55002e6ebffb4415d994260a" target="_top" xlink:title="Sets the pointer to the value &#45;1.">
<polygon fill="white" stroke="black" points="330,-114.5 330,-133.5 414,-133.5 414,-114.5 330,-114.5"/>
<text text-anchor="middle" x="372" y="-121.5" font-family="Helvetica,sans-Serif" font-size="10.00">OmniOGL::_Init</text>
</a>
</g>
</g>
<!-- Node2&#45;&gt;Node3 -->
<g id="edge2" class="edge"><title>Node2&#45;&gt;Node3</title>
<path fill="none" stroke="midnightblue" d="M240.278,-76.5405C266.203,-85.9527 306.035,-100.414 334.917,-110.9"/>
<polygon fill="midnightblue" stroke="midnightblue" points="334.042,-114.306 344.636,-114.428 336.431,-107.726 334.042,-114.306"/>
</g>
<!-- Node4 -->
<g id="node4" class="node"><title>Node4</title>
<g id="a_node4"><a xlink:href="namespace_omni_o_g_l.html#a80cd48382ee4083e78ba3431e570b82c" target="_top" xlink:title="A wrapper around the new[] keyword. Allocates the desired number of elements to the given pointer...">
<polygon fill="white" stroke="black" points="327,-76.5 327,-95.5 417,-95.5 417,-76.5 327,-76.5"/>
<text text-anchor="middle" x="372" y="-83.5" font-family="Helvetica,sans-Serif" font-size="10.00">OmniOGL::_New</text>
</a>
</g>
</g>
<!-- Node2&#45;&gt;Node4 -->
<g id="edge3" class="edge"><title>Node2&#45;&gt;Node4</title>
<path fill="none" stroke="midnightblue" d="M286.067,-75.7215C296.357,-76.9668 306.796,-78.2301 316.67,-79.425"/>
<polygon fill="midnightblue" stroke="midnightblue" points="316.377,-82.915 326.725,-80.6418 317.218,-75.9657 316.377,-82.915"/>
</g>
<!-- Node6 -->
<g id="node6" class="node"><title>Node6</title>
<g id="a_node6"><a xlink:href="namespace_omni_o_g_l.html#ab790cf1cdc8d2bcbdbbe06c6d87f1a1d" target="_top" xlink:title="A wrapper for the delete[] keyword. Always uses delete[], and never delete.">
<polygon fill="white" stroke="black" points="322.5,-38.5 322.5,-57.5 421.5,-57.5 421.5,-38.5 322.5,-38.5"/>
<text text-anchor="middle" x="372" y="-45.5" font-family="Helvetica,sans-Serif" font-size="10.00">OmniOGL::_Delete</text>
</a>
</g>
</g>
<!-- Node2&#45;&gt;Node6 -->
<g id="edge5" class="edge"><title>Node2&#45;&gt;Node6</title>
<path fill="none" stroke="midnightblue" d="M286.067,-58.2785C294.778,-57.2243 303.595,-56.1573 312.086,-55.1297"/>
<polygon fill="midnightblue" stroke="midnightblue" points="312.745,-58.5756 322.252,-53.8995 311.904,-51.6263 312.745,-58.5756"/>
</g>
<!-- Node7 -->
<g id="node7" class="node"><title>Node7</title>
<g id="a_node7"><a xlink:href="namespace_omni_o_g_l.html#ade1ba238a31a1003412522a2769d5945" target="_top" xlink:title="OmniOGL::_Valid">
<polygon fill="white" stroke="black" points="325.5,-0.5 325.5,-19.5 418.5,-19.5 418.5,-0.5 325.5,-0.5"/>
<text text-anchor="middle" x="372" y="-7.5" font-family="Helvetica,sans-Serif" font-size="10.00">OmniOGL::_Valid</text>
</a>
</g>
</g>
<!-- Node2&#45;&gt;Node7 -->
<g id="edge7" class="edge"><title>Node2&#45;&gt;Node7</title>
<path fill="none" stroke="midnightblue" d="M240.278,-57.4595C266.203,-48.0473 306.035,-33.5862 334.917,-23.1001"/>
<polygon fill="midnightblue" stroke="midnightblue" points="336.431,-26.2742 344.636,-19.5716 334.042,-19.6944 336.431,-26.2742"/>
</g>
<!-- Node5 -->
<g id="node5" class="node"><title>Node5</title>
<g id="a_node5"><a xlink:href="namespace_omni_o_g_l.html#a8f559408c62db097a1a918d7f58f4183" target="_top" xlink:title="A &quot;clone&quot; of the well&#45;known printf() function, with the debug routed to the OutputDebugString() funct...">
<polygon fill="white" stroke="black" points="458,-57.5 458,-76.5 548,-76.5 548,-57.5 458,-57.5"/>
<text text-anchor="middle" x="503" y="-64.5" font-family="Helvetica,sans-Serif" font-size="10.00">OmniOGL::dprint</text>
</a>
</g>
</g>
<!-- Node4&#45;&gt;Node5 -->
<g id="edge4" class="edge"><title>Node4&#45;&gt;Node5</title>
<path fill="none" stroke="midnightblue" d="M417.034,-79.5144C426.887,-78.0631 437.452,-76.5071 447.667,-75.0025"/>
<polygon fill="midnightblue" stroke="midnightblue" points="448.344,-78.4407 457.727,-73.5209 447.323,-71.5154 448.344,-78.4407"/>
</g>
<!-- Node6&#45;&gt;Node5 -->
<g id="edge6" class="edge"><title>Node6&#45;&gt;Node5</title>
<path fill="none" stroke="midnightblue" d="M421.769,-55.1831C430.282,-56.4369 439.184,-57.7481 447.832,-59.0218"/>
<polygon fill="midnightblue" stroke="midnightblue" points="447.425,-62.4995 457.828,-60.4941 448.445,-55.5742 447.425,-62.4995"/>
</g>
</g>
</svg>
