<?xml version="1.0" encoding="UTF-8" standalone="no"?>
<!DOCTYPE svg PUBLIC "-//W3C//DTD SVG 1.1//EN"
 "http://www.w3.org/Graphics/SVG/1.1/DTD/svg11.dtd">
<!-- Generated by graphviz version 2.30.1 (20130214.1330)
 -->
<!-- Title: OmniOGL::Scene::GlobalInitialization Pages: 1 -->
<!--zoomable 136 -->
<svg id="main" version="1.1" xmlns="http://www.w3.org/2000/svg" xmlns:xlink="http://www.w3.org/1999/xlink" xml:space="preserve" onload="init(evt)">
        <defs>
                <circle id="rim" cx="0" cy="0" r="7"/>
                <circle id="rim2" cx="0" cy="0" r="3.5"/>
                <g id="zoomPlus">
                        <use xlink:href="#rim" fill="#404040">
                                <set attributeName="fill" to="#808080" begin="zoomplus.mouseover" end="zoomplus.mouseout"/>
                        </use>
                        <path d="M-4,0h8M0,-4v8" fill="none" stroke="white" stroke-width="1.5" pointer-events="none"/>
                </g>
                <g id="zoomMin">
                        <use xlink:href="#rim" fill="#404040">
                                <set attributeName="fill" to="#808080" begin="zoomminus.mouseover" end="zoomminus.mouseout"/>
                        </use>
                        <path d="M-4,0h8" fill="none" stroke="white" stroke-width="1.5" pointer-events="none"/>
                </g>
                <g id="dirArrow">
                        <path fill="none" stroke="white" stroke-width="1.5" d="M0,-3.0v7 M-2.5,-0.5L0,-3.0L2.5,-0.5"/>
                </g>
               <g id="resetDef">
                       <use xlink:href="#rim2" fill="#404040">
                               <set attributeName="fill" to="#808080" begin="reset.mouseover" end="reset.mouseout"/>
                       </use>
               </g>
        </defs>

<script type="text/javascript">
var viewWidth = 514;
var viewHeight = 136;
var sectionId = 'dynsection-18';
</script>
<script xlink:href="svgpan.js"/>
<svg id="graph" class="graph">
<g id="viewport">
<title>OmniOGL::Scene::GlobalInitialization</title>
<polygon fill="white" stroke="white" points="-4,5 -4,-132 511,-132 511,5 -4,5"/>
<!-- Node1 -->
<g id="node1" class="node"><title>Node1</title>
<polygon fill="#bfbfbf" stroke="black" points="0.5,-54.5 0.5,-73.5 179.5,-73.5 179.5,-54.5 0.5,-54.5"/>
<text text-anchor="middle" x="90" y="-61.5" font-family="Helvetica,sans-Serif" font-size="10.00">OmniOGL::Scene::GlobalInitialization</text>
</g>
<!-- Node2 -->
<g id="node2" class="node"><title>Node2</title>
<g id="a_node2"><a xlink:href="class_omni_o_g_l_1_1_o_g_l_buffers.html#aced7928dd8f160dffc9f6476ed46ccc7" target="_top" xlink:title="OmniOGL::OGLBuffers\l::CreateVAO">
<polygon fill="white" stroke="black" points="216,-98 216,-128 332,-128 332,-98 216,-98"/>
<text text-anchor="start" x="224" y="-116" font-family="Helvetica,sans-Serif" font-size="10.00">OmniOGL::OGLBuffers</text>
<text text-anchor="middle" x="274" y="-105" font-family="Helvetica,sans-Serif" font-size="10.00">::CreateVAO</text>
</a>
</g>
</g>
<!-- Node1&#45;&gt;Node2 -->
<g id="edge1" class="edge"><title>Node1&#45;&gt;Node2</title>
<path fill="none" stroke="midnightblue" d="M126.523,-73.564C149.465,-79.7405 180.013,-87.9649 207.274,-95.3045"/>
<polygon fill="midnightblue" stroke="midnightblue" points="206.582,-98.7429 217.148,-97.963 208.402,-91.9836 206.582,-98.7429"/>
</g>
<!-- Node4 -->
<g id="node4" class="node"><title>Node4</title>
<g id="a_node4"><a xlink:href="class_omni_o_g_l_1_1_o_g_l_buffers.html#a3cd416254327ba7bfe8dd27bf1758ea8" target="_top" xlink:title="A simple wrapper around glGenBuffers() which also increments a global counter keeping track of how ma...">
<polygon fill="white" stroke="black" points="216,-49 216,-79 332,-79 332,-49 216,-49"/>
<text text-anchor="start" x="224" y="-67" font-family="Helvetica,sans-Serif" font-size="10.00">OmniOGL::OGLBuffers</text>
<text text-anchor="middle" x="274" y="-56" font-family="Helvetica,sans-Serif" font-size="10.00">::CreateVBO</text>
</a>
</g>
</g>
<!-- Node1&#45;&gt;Node4 -->
<g id="edge3" class="edge"><title>Node1&#45;&gt;Node4</title>
<path fill="none" stroke="midnightblue" d="M179.601,-64C188.342,-64 197.112,-64 205.589,-64"/>
<polygon fill="midnightblue" stroke="midnightblue" points="205.761,-67.5001 215.761,-64 205.761,-60.5001 205.761,-67.5001"/>
</g>
<!-- Node6 -->
<g id="node6" class="node"><title>Node6</title>
<g id="a_node6"><a xlink:href="class_omni_o_g_l_1_1_o_g_l_buffers.html#aab5c455cf9fec77c007a9b69b1c5339a" target="_top" xlink:title="A simple wrapper around glGenBuffers() which also increments a global counter keeping track of how ma...">
<polygon fill="white" stroke="black" points="216,-0 216,-30 332,-30 332,-0 216,-0"/>
<text text-anchor="start" x="224" y="-18" font-family="Helvetica,sans-Serif" font-size="10.00">OmniOGL::OGLBuffers</text>
<text text-anchor="middle" x="274" y="-7" font-family="Helvetica,sans-Serif" font-size="10.00">::CreateEBO</text>
</a>
</g>
</g>
<!-- Node1&#45;&gt;Node6 -->
<g id="edge5" class="edge"><title>Node1&#45;&gt;Node6</title>
<path fill="none" stroke="midnightblue" d="M126.523,-54.436C149.465,-48.2595 180.013,-40.0351 207.274,-32.6955"/>
<polygon fill="midnightblue" stroke="midnightblue" points="208.402,-36.0164 217.148,-30.037 206.582,-29.2571 208.402,-36.0164"/>
</g>
<!-- Node3 -->
<g id="node3" class="node"><title>Node3</title>
<g id="a_node3"><a xlink:href="class_omni_o_g_l_1_1_o_g_l_buffers.html#a966449fc915c1e54317bc4189476a83a" target="_top" xlink:title="OmniOGL::OGLBuffers::vao">
<polygon fill="white" stroke="black" points="368.5,-103.5 368.5,-122.5 505.5,-122.5 505.5,-103.5 368.5,-103.5"/>
<text text-anchor="middle" x="437" y="-110.5" font-family="Helvetica,sans-Serif" font-size="10.00">OmniOGL::OGLBuffers::vao</text>
</a>
</g>
</g>
<!-- Node2&#45;&gt;Node3 -->
<g id="edge2" class="edge"><title>Node2&#45;&gt;Node3</title>
<path fill="none" stroke="midnightblue" d="M332.216,-113C340.596,-113 349.345,-113 358.053,-113"/>
<polygon fill="midnightblue" stroke="midnightblue" points="358.234,-116.5 368.234,-113 358.234,-109.5 358.234,-116.5"/>
</g>
<!-- Node5 -->
<g id="node5" class="node"><title>Node5</title>
<g id="a_node5"><a xlink:href="class_omni_o_g_l_1_1_o_g_l_buffers.html#aee0431bf99d4f232db33ad6b10780088" target="_top" xlink:title="OmniOGL::OGLBuffers::vbo">
<polygon fill="white" stroke="black" points="368.5,-30.5 368.5,-49.5 505.5,-49.5 505.5,-30.5 368.5,-30.5"/>
<text text-anchor="middle" x="437" y="-37.5" font-family="Helvetica,sans-Serif" font-size="10.00">OmniOGL::OGLBuffers::vbo</text>
</a>
</g>
</g>
<!-- Node4&#45;&gt;Node5 -->
<g id="edge4" class="edge"><title>Node4&#45;&gt;Node5</title>
<path fill="none" stroke="midnightblue" d="M332.216,-55.4709C341.909,-54.0259 352.096,-52.5074 362.143,-51.0097"/>
<polygon fill="midnightblue" stroke="midnightblue" points="362.746,-54.4586 372.121,-49.5223 361.714,-47.5351 362.746,-54.4586"/>
</g>
<!-- Node6&#45;&gt;Node5 -->
<g id="edge6" class="edge"><title>Node6&#45;&gt;Node5</title>
<path fill="none" stroke="midnightblue" d="M332.216,-23.8845C342.734,-25.5177 353.833,-27.2411 364.704,-28.9293"/>
<polygon fill="midnightblue" stroke="midnightblue" points="364.183,-32.3902 374.602,-30.4661 365.257,-25.4731 364.183,-32.3902"/>
</g>
</g>
</svg>
        <g id="navigator" transform="translate(0 0)" fill="#404254">
                <rect fill="#f2f5e9" fill-opacity="0.5" stroke="#606060" stroke-width=".5" x="0" y="0" width="60" height="60"/>
                <use id="zoomplus" xlink:href="#zoomPlus" x="17" y="9" onmousedown="handleZoom(evt,'in')"/>
                <use id="zoomminus" xlink:href="#zoomMin" x="42" y="9" onmousedown="handleZoom(evt,'out')"/>
                <use id="reset" xlink:href="#resetDef" x="30" y="36" onmousedown="handleReset()"/>
                <g id="arrowUp" xlink:href="#dirArrow" transform="translate(30 24)" onmousedown="handlePan(0,-1)">
                  <use xlink:href="#rim" fill="#404040">
                        <set attributeName="fill" to="#808080" begin="arrowUp.mouseover" end="arrowUp.mouseout"/>
                  </use>
                  <path fill="none" stroke="white" stroke-width="1.5" d="M0,-3.0v7 M-2.5,-0.5L0,-3.0L2.5,-0.5"/>
                </g>
                <g id="arrowRight" xlink:href="#dirArrow" transform="rotate(90) translate(36 -43)" onmousedown="handlePan(1,0)">
                  <use xlink:href="#rim" fill="#404040">
                        <set attributeName="fill" to="#808080" begin="arrowRight.mouseover" end="arrowRight.mouseout"/>
                  </use>
                  <path fill="none" stroke="white" stroke-width="1.5" d="M0,-3.0v7 M-2.5,-0.5L0,-3.0L2.5,-0.5"/>
                </g>
                <g id="arrowDown" xlink:href="#dirArrow" transform="rotate(180) translate(-30 -48)" onmousedown="handlePan(0,1)">
                  <use xlink:href="#rim" fill="#404040">
                        <set attributeName="fill" to="#808080" begin="arrowDown.mouseover" end="arrowDown.mouseout"/>
                  </use>
                  <path fill="none" stroke="white" stroke-width="1.5" d="M0,-3.0v7 M-2.5,-0.5L0,-3.0L2.5,-0.5"/>
                </g>
                <g id="arrowLeft" xlink:href="#dirArrow" transform="rotate(270) translate(-36 17)" onmousedown="handlePan(-1,0)">
                  <use xlink:href="#rim" fill="#404040">
                        <set attributeName="fill" to="#808080" begin="arrowLeft.mouseover" end="arrowLeft.mouseout"/>
                  </use>
                  <path fill="none" stroke="white" stroke-width="1.5" d="M0,-3.0v7 M-2.5,-0.5L0,-3.0L2.5,-0.5"/>
                </g>
        </g>
        <svg viewBox="0 0 15 15" width="100%" height="30px" preserveAspectRatio="xMaxYMin meet">
         <g id="arrow_out" transform="scale(0.3 0.3)">
          <a xlink:href="class_omni_o_g_l_1_1_scene_a199b6195ca00c1ca4a50e3d0b9c312a3_cgraph_org.svg" target="_base">
           <rect id="button" ry="5" rx="5" y="6" x="6" height="38" width="38"
                fill="#f2f5e9" fill-opacity="0.5" stroke="#606060" stroke-width="1.0"/>
           <path id="arrow"
             d="M 11.500037,31.436501 C 11.940474,20.09759 22.043105,11.32322 32.158766,21.979434 L 37.068811,17.246167 C 37.068811,17.246167 37.088388,32 37.088388,32 L 22.160133,31.978069 C 22.160133,31.978069 26.997745,27.140456 26.997745,27.140456 C 18.528582,18.264221 13.291696,25.230495 11.500037,31.436501 z"
             style="fill:#404040;"/>
          </a>
         </g>
        </svg>
</svg>
