<?xml version="1.0" encoding="UTF-8" standalone="no"?>
<!DOCTYPE svg PUBLIC "-//W3C//DTD SVG 1.1//EN"
 "http://www.w3.org/Graphics/SVG/1.1/DTD/svg11.dtd">
<!-- Generated by graphviz version 2.30.1 (20130214.1330)
 -->
<!-- Title: OmniOGL::TextureMaster Pages: 1 -->
<svg width="194pt" height="292pt"
 viewBox="0.00 0.00 194.00 292.00" xmlns="http://www.w3.org/2000/svg" xmlns:xlink="http://www.w3.org/1999/xlink">
<g id="graph0" class="graph" transform="scale(1 1) rotate(0) translate(4 288)">
<title>OmniOGL::TextureMaster</title>
<polygon fill="white" stroke="white" points="-4,5 -4,-288 191,-288 191,5 -4,5"/>
<!-- Node1 -->
<g id="node1" class="node"><title>Node1</title>
<polygon fill="#bfbfbf" stroke="black" points="24,-1 24,-69 152,-69 152,-1 24,-1"/>
<text text-anchor="middle" x="88" y="-57" font-family="Helvetica,sans-Serif" font-size="10.00">OmniOGL::TextureMaster</text>
<polyline fill="none" stroke="black" points="24,-50 152,-50 "/>
<text text-anchor="middle" x="88" y="-38" font-family="Helvetica,sans-Serif" font-size="10.00"> </text>
<polyline fill="none" stroke="black" points="24,-31 152,-31 "/>
<text text-anchor="start" x="32" y="-19" font-family="Helvetica,sans-Serif" font-size="10.00">&#45; FreeTextures()</text>
<text text-anchor="start" x="32" y="-8" font-family="Helvetica,sans-Serif" font-size="10.00">&#45; MakeTexture()</text>
</g>
<!-- Node2 -->
<g id="node2" class="node"><title>Node2</title>
<polygon fill="white" stroke="#bfbfbf" points="0,-118.5 0,-175.5 40,-175.5 40,-118.5 0,-118.5"/>
<text text-anchor="middle" x="20" y="-163.5" font-family="Helvetica,sans-Serif" font-size="10.00">GLint</text>
<polyline fill="none" stroke="#bfbfbf" points="0,-156.5 40,-156.5 "/>
<text text-anchor="middle" x="20" y="-144.5" font-family="Helvetica,sans-Serif" font-size="10.00"> </text>
<polyline fill="none" stroke="#bfbfbf" points="0,-137.5 40,-137.5 "/>
<text text-anchor="middle" x="20" y="-125.5" font-family="Helvetica,sans-Serif" font-size="10.00"> </text>
</g>
<!-- Node2&#45;&gt;Node1 -->
<g id="edge1" class="edge"><title>Node2&#45;&gt;Node1</title>
<path fill="none" stroke="#404040" d="M35.812,-118.397C41.451,-108.723 47.9145,-97.823 54,-88 55.7246,-85.2163 57.5183,-82.3615 59.3404,-79.4916"/>
<polygon fill="none" stroke="#404040" points="59.5076,-79.2312 59.3834,-72.0211 65.991,-69.1333 66.1153,-76.3434 59.5076,-79.2312"/>
<text text-anchor="middle" x="69" y="-91.5" font-family="Helvetica,sans-Serif" font-size="10.00"> &#45;index</text>
</g>
<!-- Node3 -->
<g id="node3" class="node"><title>Node3</title>
<g id="a_node3"><a xlink:title="STL class.">
<polygon fill="white" stroke="#bfbfbf" points="58,-118.5 58,-175.5 118,-175.5 118,-118.5 58,-118.5"/>
<text text-anchor="middle" x="88" y="-163.5" font-family="Helvetica,sans-Serif" font-size="10.00">std::string</text>
<polyline fill="none" stroke="#bfbfbf" points="58,-156.5 118,-156.5 "/>
<text text-anchor="middle" x="88" y="-144.5" font-family="Helvetica,sans-Serif" font-size="10.00"> </text>
<polyline fill="none" stroke="#bfbfbf" points="58,-137.5 118,-137.5 "/>
<text text-anchor="middle" x="88" y="-125.5" font-family="Helvetica,sans-Serif" font-size="10.00"> </text>
</a>
</g>
</g>
<!-- Node3&#45;&gt;Node1 -->
<g id="edge2" class="edge"><title>Node3&#45;&gt;Node1</title>
<path fill="none" stroke="#404040" d="M88,-118.242C88,-107.073 88,-93.8972 88,-81.4036"/>
<polygon fill="none" stroke="#404040" points="88.0001,-81.2368 84,-75.2368 88,-69.2368 92,-75.2367 88.0001,-81.2368"/>
<text text-anchor="middle" x="112" y="-91.5" font-family="Helvetica,sans-Serif" font-size="10.00"> &#45;filenames</text>
</g>
<!-- Node4 -->
<g id="node4" class="node"><title>Node4</title>
<g id="a_node4"><a xlink:title="STL class.">
<polygon fill="white" stroke="#bfbfbf" points="40.5,-215 40.5,-283 135.5,-283 135.5,-215 40.5,-215"/>
<text text-anchor="start" x="48.5" y="-271" font-family="Helvetica,sans-Serif" font-size="10.00">std::basic_string&lt;</text>
<text text-anchor="middle" x="88" y="-260" font-family="Helvetica,sans-Serif" font-size="10.00"> char &gt;</text>
<polyline fill="none" stroke="#bfbfbf" points="40.5,-253 135.5,-253 "/>
<text text-anchor="middle" x="88" y="-241" font-family="Helvetica,sans-Serif" font-size="10.00"> </text>
<polyline fill="none" stroke="#bfbfbf" points="40.5,-234 135.5,-234 "/>
<text text-anchor="middle" x="88" y="-222" font-family="Helvetica,sans-Serif" font-size="10.00"> </text>
</a>
</g>
</g>
<!-- Node4&#45;&gt;Node3 -->
<g id="edge3" class="edge"><title>Node4&#45;&gt;Node3</title>
<path fill="none" stroke="midnightblue" d="M88,-204.857C88,-194.952 88,-184.682 88,-175.64"/>
<polygon fill="none" stroke="midnightblue" points="84.5001,-204.979 88,-214.979 91.5001,-204.979 84.5001,-204.979"/>
</g>
<!-- Node5 -->
<g id="node5" class="node"><title>Node5</title>
<polygon fill="white" stroke="#bfbfbf" points="136.5,-118.5 136.5,-175.5 181.5,-175.5 181.5,-118.5 136.5,-118.5"/>
<text text-anchor="middle" x="159" y="-163.5" font-family="Helvetica,sans-Serif" font-size="10.00">GLuint</text>
<polyline fill="none" stroke="#bfbfbf" points="136.5,-156.5 181.5,-156.5 "/>
<text text-anchor="middle" x="159" y="-144.5" font-family="Helvetica,sans-Serif" font-size="10.00"> </text>
<polyline fill="none" stroke="#bfbfbf" points="136.5,-137.5 181.5,-137.5 "/>
<text text-anchor="middle" x="159" y="-125.5" font-family="Helvetica,sans-Serif" font-size="10.00"> </text>
</g>
<!-- Node5&#45;&gt;Node1 -->
<g id="edge4" class="edge"><title>Node5&#45;&gt;Node1</title>
<path fill="none" stroke="#404040" d="M151.02,-118.395C147.503,-108.411 142.827,-97.3121 137,-88 135.024,-84.8421 132.837,-81.7095 130.516,-78.6397"/>
<polygon fill="none" stroke="#404040" points="130.32,-78.3989 123.43,-76.2733 122.742,-69.095 129.632,-71.2207 130.32,-78.3989"/>
<text text-anchor="middle" x="165" y="-91.5" font-family="Helvetica,sans-Serif" font-size="10.00"> &#45;textures</text>
</g>
</g>
</svg>
