<?xml version="1.0" encoding="UTF-8" standalone="no"?>
<!DOCTYPE svg PUBLIC "-//W3C//DTD SVG 1.1//EN"
 "http://www.w3.org/Graphics/SVG/1.1/DTD/svg11.dtd">
<!-- Generated by graphviz version 2.30.1 (20130214.1330)
 -->
<!-- Title: OmniOGL::SectionCollection::UpdateAdjacentSectionsArray Pages: 1 -->
<svg width="858pt" height="101pt"
 viewBox="0.00 0.00 858.00 101.00" xmlns="http://www.w3.org/2000/svg" xmlns:xlink="http://www.w3.org/1999/xlink">
<g id="graph0" class="graph" transform="scale(1 1) rotate(0) translate(4 97)">
<title>OmniOGL::SectionCollection::UpdateAdjacentSectionsArray</title>
<polygon fill="white" stroke="white" points="-4,5 -4,-97 855,-97 855,5 -4,5"/>
<!-- Node1 -->
<g id="node1" class="node"><title>Node1</title>
<polygon fill="#bfbfbf" stroke="black" points="0.5,-38 0.5,-68 153.5,-68 153.5,-38 0.5,-38"/>
<text text-anchor="start" x="8.5" y="-56" font-family="Helvetica,sans-Serif" font-size="10.00">OmniOGL::SectionCollection</text>
<text text-anchor="middle" x="77" y="-45" font-family="Helvetica,sans-Serif" font-size="10.00">::UpdateAdjacentSectionsArray</text>
</g>
<!-- Node2 -->
<g id="node2" class="node"><title>Node2</title>
<g id="a_node2"><a xlink:href="class_omni_o_g_l_1_1_section_collection.html#a8ce8d4ffbeab35bf911fb1b473cf73f2" target="_top" xlink:title="OmniOGL::SectionCollection\l::SectionCollection">
<polygon fill="white" stroke="black" points="190,-63 190,-93 332,-93 332,-63 190,-63"/>
<text text-anchor="start" x="198" y="-81" font-family="Helvetica,sans-Serif" font-size="10.00">OmniOGL::SectionCollection</text>
<text text-anchor="middle" x="261" y="-70" font-family="Helvetica,sans-Serif" font-size="10.00">::SectionCollection</text>
</a>
</g>
</g>
<!-- Node1&#45;&gt;Node2 -->
<g id="edge1" class="edge"><title>Node1&#45;&gt;Node2</title>
<path fill="none" stroke="midnightblue" d="M163.522,-64.7476C172.35,-65.9601 181.246,-67.1821 189.877,-68.3677"/>
<polygon fill="midnightblue" stroke="midnightblue" points="163.987,-61.2786 153.603,-63.3851 163.034,-68.2134 163.987,-61.2786"/>
</g>
<!-- Node3 -->
<g id="node3" class="node"><title>Node3</title>
<g id="a_node3"><a xlink:href="class_omni_o_g_l_1_1_section_collection.html#a8eb741628a5957199c4c511be6e4f599" target="_top" xlink:title="OmniOGL::SectionCollection\l::UpdateCurrentSection">
<polygon fill="white" stroke="black" points="190,-14 190,-44 332,-44 332,-14 190,-14"/>
<text text-anchor="start" x="198" y="-32" font-family="Helvetica,sans-Serif" font-size="10.00">OmniOGL::SectionCollection</text>
<text text-anchor="middle" x="261" y="-21" font-family="Helvetica,sans-Serif" font-size="10.00">::UpdateCurrentSection</text>
</a>
</g>
</g>
<!-- Node1&#45;&gt;Node3 -->
<g id="edge2" class="edge"><title>Node1&#45;&gt;Node3</title>
<path fill="none" stroke="midnightblue" d="M163.522,-41.7223C172.35,-40.5583 181.246,-39.3852 189.877,-38.247"/>
<polygon fill="midnightblue" stroke="midnightblue" points="163.06,-38.2529 153.603,-43.0303 163.975,-45.1929 163.06,-38.2529"/>
</g>
<!-- Node4 -->
<g id="node4" class="node"><title>Node4</title>
<g id="a_node4"><a xlink:href="class_omni_o_g_l_1_1_scene.html#a8601c13e69f3269928209f1ffdf2584a" target="_top" xlink:title="The constructor for the Scene class. This is a fairly busy constructor since it&#39;s responsible for ini...">
<polygon fill="white" stroke="black" points="380,-38.5 380,-57.5 508,-57.5 508,-38.5 380,-38.5"/>
<text text-anchor="middle" x="444" y="-45.5" font-family="Helvetica,sans-Serif" font-size="10.00">OmniOGL::Scene::Scene</text>
</a>
</g>
</g>
<!-- Node3&#45;&gt;Node4 -->
<g id="edge3" class="edge"><title>Node3&#45;&gt;Node4</title>
<path fill="none" stroke="midnightblue" d="M342.269,-37.4261C354.873,-38.7491 367.744,-40.1002 379.889,-41.375"/>
<polygon fill="midnightblue" stroke="midnightblue" points="342.549,-33.9363 332.238,-36.3731 341.818,-40.898 342.549,-33.9363"/>
</g>
<!-- Node5 -->
<g id="node5" class="node"><title>Node5</title>
<g id="a_node5"><a xlink:href="class_omni_o_g_l_1_1_scene.html#aaf90a48c617a97b06e8b75320c0271b0" target="_top" xlink:title="OmniOGL::Scene::HandleInput">
<polygon fill="white" stroke="black" points="368.5,-0.5 368.5,-19.5 519.5,-19.5 519.5,-0.5 368.5,-0.5"/>
<text text-anchor="middle" x="444" y="-7.5" font-family="Helvetica,sans-Serif" font-size="10.00">OmniOGL::Scene::HandleInput</text>
</a>
</g>
</g>
<!-- Node3&#45;&gt;Node5 -->
<g id="edge4" class="edge"><title>Node3&#45;&gt;Node5</title>
<path fill="none" stroke="midnightblue" d="M342.312,-20.5695C350.959,-19.6618 359.731,-18.7409 368.308,-17.8406"/>
<polygon fill="midnightblue" stroke="midnightblue" points="341.818,-17.102 332.238,-21.6269 342.549,-24.0637 341.818,-17.102"/>
</g>
<!-- Node6 -->
<g id="node6" class="node"><title>Node6</title>
<g id="a_node6"><a xlink:href="class_omni_o_g_l_1_1_scene.html#ac65b18faabaa3d2af9a0a4b2f2fc0fe0" target="_top" xlink:title="The core of the rendering loop! This method iterates through all possible containers of objects&#45;to&#45;be...">
<polygon fill="white" stroke="black" points="556,-0.5 556,-19.5 678,-19.5 678,-0.5 556,-0.5"/>
<text text-anchor="middle" x="617" y="-7.5" font-family="Helvetica,sans-Serif" font-size="10.00">OmniOGL::Scene::Draw</text>
</a>
</g>
</g>
<!-- Node5&#45;&gt;Node6 -->
<g id="edge5" class="edge"><title>Node5&#45;&gt;Node6</title>
<path fill="none" stroke="midnightblue" d="M529.52,-10C538.413,-10 547.32,-10 555.856,-10"/>
<polygon fill="midnightblue" stroke="midnightblue" points="529.506,-6.5001 519.506,-10 529.506,-13.5001 529.506,-6.5001"/>
</g>
<!-- Node7 -->
<g id="node7" class="node"><title>Node7</title>
<g id="a_node7"><a xlink:href="_exec_8cpp.html#a38c5e7def3be6ea702581ee4a92b9cc0" target="_top" xlink:title="render">
<polygon fill="white" stroke="black" points="714,-0.5 714,-19.5 758,-19.5 758,-0.5 714,-0.5"/>
<text text-anchor="middle" x="736" y="-7.5" font-family="Helvetica,sans-Serif" font-size="10.00">render</text>
</a>
</g>
</g>
<!-- Node6&#45;&gt;Node7 -->
<g id="edge6" class="edge"><title>Node6&#45;&gt;Node7</title>
<path fill="none" stroke="midnightblue" d="M688.318,-10C697.524,-10 706.323,-10 713.751,-10"/>
<polygon fill="midnightblue" stroke="midnightblue" points="688.214,-6.5001 678.214,-10 688.214,-13.5001 688.214,-6.5001"/>
</g>
<!-- Node8 -->
<g id="node8" class="node"><title>Node8</title>
<g id="a_node8"><a xlink:href="_exec_8cpp.html#a66e65252a6985e382838442f280f46ba" target="_top" xlink:title="WinMain">
<polygon fill="white" stroke="black" points="794.5,-0.5 794.5,-19.5 849.5,-19.5 849.5,-0.5 794.5,-0.5"/>
<text text-anchor="middle" x="822" y="-7.5" font-family="Helvetica,sans-Serif" font-size="10.00">WinMain</text>
</a>
</g>
</g>
<!-- Node7&#45;&gt;Node8 -->
<g id="edge7" class="edge"><title>Node7&#45;&gt;Node8</title>
<path fill="none" stroke="midnightblue" d="M768.253,-10C776.845,-10 786.081,-10 794.386,-10"/>
<polygon fill="midnightblue" stroke="midnightblue" points="768.197,-6.5001 758.197,-10 768.197,-13.5001 768.197,-6.5001"/>
</g>
</g>
</svg>
