<?xml version="1.0" encoding="UTF-8" standalone="no"?>
<!DOCTYPE svg PUBLIC "-//W3C//DTD SVG 1.1//EN"
 "http://www.w3.org/Graphics/SVG/1.1/DTD/svg11.dtd">
<!-- Generated by graphviz version 2.30.1 (20130214.1330)
 -->
<!-- Title: Graphical Class Hierarchy Pages: 1 -->
<svg width="260pt" height="256pt"
 viewBox="0.00 0.00 260.00 256.00" xmlns="http://www.w3.org/2000/svg" xmlns:xlink="http://www.w3.org/1999/xlink">
<g id="graph0" class="graph" transform="scale(1 1) rotate(0) translate(4 252)">
<title>Graphical Class Hierarchy</title>
<polygon fill="white" stroke="white" points="-4,5 -4,-252 257,-252 257,5 -4,5"/>
<!-- Node1 -->
<g id="node1" class="node"><title>Node1</title>
<g id="a_node1"><a xlink:href="class_omni_o_g_l_1_1_ren_obj.html" target="_top" xlink:title="The purely virtual base class which is used to represent a single object which will potentially be re...">
<polygon fill="white" stroke="black" points="0,-114.5 0,-133.5 98,-133.5 98,-114.5 0,-114.5"/>
<text text-anchor="middle" x="49" y="-121.5" font-family="Helvetica,sans-Serif" font-size="10.00">OmniOGL::RenObj</text>
</a>
</g>
</g>
<!-- Node2 -->
<g id="node2" class="node"><title>Node2</title>
<g id="a_node2"><a xlink:href="class_omni_o_g_l_1_1_blender_obj.html" target="_top" xlink:title="A class derived from a RenObj which gets is vertices and normals from a file generated by the program...">
<polygon fill="white" stroke="black" points="136,-228.5 136,-247.5 250,-247.5 250,-228.5 136,-228.5"/>
<text text-anchor="middle" x="193" y="-235.5" font-family="Helvetica,sans-Serif" font-size="10.00">OmniOGL::BlenderObj</text>
</a>
</g>
</g>
<!-- Node1&#45;&gt;Node2 -->
<g id="edge1" class="edge"><title>Node1&#45;&gt;Node2</title>
<path fill="none" stroke="midnightblue" d="M61.5175,-142.05C75.9901,-163.348 102.753,-198.453 134,-219 139.843,-222.842 146.529,-225.966 153.234,-228.487"/>
<polygon fill="midnightblue" stroke="midnightblue" points="64.3607,-140.004 55.9252,-133.594 58.522,-143.865 64.3607,-140.004"/>
</g>
<!-- Node3 -->
<g id="node3" class="node"><title>Node3</title>
<g id="a_node3"><a xlink:href="class_omni_o_g_l_1_1_block_array.html" target="_top" xlink:title="A class intended as a means for rendering voxels. Currently voxel implementation is incomplete so thi...">
<polygon fill="white" stroke="black" points="136,-190.5 136,-209.5 250,-209.5 250,-190.5 136,-190.5"/>
<text text-anchor="middle" x="193" y="-197.5" font-family="Helvetica,sans-Serif" font-size="10.00">OmniOGL::BlockArray</text>
</a>
</g>
</g>
<!-- Node1&#45;&gt;Node3 -->
<g id="edge2" class="edge"><title>Node1&#45;&gt;Node3</title>
<path fill="none" stroke="midnightblue" d="M70.1321,-140.039C86.5612,-152.527 110.774,-169.597 134,-181 141.419,-184.642 149.701,-187.829 157.632,-190.5"/>
<polygon fill="midnightblue" stroke="midnightblue" points="71.9117,-136.991 61.8612,-133.638 67.6275,-142.527 71.9117,-136.991"/>
</g>
<!-- Node4 -->
<g id="node4" class="node"><title>Node4</title>
<g id="a_node4"><a xlink:href="class_omni_o_g_l_1_1_cube.html" target="_top" xlink:title="A simple perfect cube which can be scaled in size. Vertex, normals, and texture coordinates are all h...">
<polygon fill="white" stroke="black" points="148.5,-152.5 148.5,-171.5 237.5,-171.5 237.5,-152.5 148.5,-152.5"/>
<text text-anchor="middle" x="193" y="-159.5" font-family="Helvetica,sans-Serif" font-size="10.00">OmniOGL::Cube</text>
</a>
</g>
</g>
<!-- Node1&#45;&gt;Node4 -->
<g id="edge3" class="edge"><title>Node1&#45;&gt;Node4</title>
<path fill="none" stroke="midnightblue" d="M95.4929,-136.174C115.128,-141.429 137.766,-147.487 156.179,-152.414"/>
<polygon fill="midnightblue" stroke="midnightblue" points="96.3975,-132.793 85.8326,-133.589 94.5879,-139.555 96.3975,-132.793"/>
</g>
<!-- Node5 -->
<g id="node5" class="node"><title>Node5</title>
<g id="a_node5"><a xlink:href="class_omni_o_g_l_1_1_floor.html" target="_top" xlink:title="A basic flat and wide floor. This class will have little use later on, but for now it serves as a goo...">
<polygon fill="white" stroke="black" points="149,-114.5 149,-133.5 237,-133.5 237,-114.5 149,-114.5"/>
<text text-anchor="middle" x="193" y="-121.5" font-family="Helvetica,sans-Serif" font-size="10.00">OmniOGL::Floor</text>
</a>
</g>
</g>
<!-- Node1&#45;&gt;Node5 -->
<g id="edge4" class="edge"><title>Node1&#45;&gt;Node5</title>
<path fill="none" stroke="midnightblue" d="M108.269,-124C121.808,-124 135.986,-124 148.745,-124"/>
<polygon fill="midnightblue" stroke="midnightblue" points="108.075,-120.5 98.0747,-124 108.075,-127.5 108.075,-120.5"/>
</g>
<!-- Node6 -->
<g id="node6" class="node"><title>Node6</title>
<g id="a_node6"><a xlink:href="class_omni_o_g_l_1_1_group.html" target="_top" xlink:title="A group of identical objects which may differ by scale, rotation, and translation &#45; all of which are ...">
<polygon fill="white" stroke="black" points="147,-76.5 147,-95.5 239,-95.5 239,-76.5 147,-76.5"/>
<text text-anchor="middle" x="193" y="-83.5" font-family="Helvetica,sans-Serif" font-size="10.00">OmniOGL::Group</text>
</a>
</g>
</g>
<!-- Node1&#45;&gt;Node6 -->
<g id="edge5" class="edge"><title>Node1&#45;&gt;Node6</title>
<path fill="none" stroke="midnightblue" d="M95.4929,-111.826C115.128,-106.571 137.766,-100.513 156.179,-95.5859"/>
<polygon fill="midnightblue" stroke="midnightblue" points="94.5879,-108.445 85.8326,-114.411 96.3975,-115.207 94.5879,-108.445"/>
</g>
<!-- Node7 -->
<g id="node7" class="node"><title>Node7</title>
<g id="a_node7"><a xlink:href="class_omni_o_g_l_1_1_line_strip.html" target="_top" xlink:title="A series of points, every two of which will be used as the start and endpoints of a line...">
<polygon fill="white" stroke="black" points="141,-38.5 141,-57.5 245,-57.5 245,-38.5 141,-38.5"/>
<text text-anchor="middle" x="193" y="-45.5" font-family="Helvetica,sans-Serif" font-size="10.00">OmniOGL::LineStrip</text>
</a>
</g>
</g>
<!-- Node1&#45;&gt;Node7 -->
<g id="edge6" class="edge"><title>Node1&#45;&gt;Node7</title>
<path fill="none" stroke="midnightblue" d="M70.1321,-107.961C86.5612,-95.4735 110.774,-78.4028 134,-67 141.419,-63.3576 149.701,-60.171 157.632,-57.5005"/>
<polygon fill="midnightblue" stroke="midnightblue" points="67.6275,-105.473 61.8612,-114.362 71.9117,-111.009 67.6275,-105.473"/>
</g>
<!-- Node8 -->
<g id="node8" class="node"><title>Node8</title>
<g id="a_node8"><a xlink:href="class_omni_o_g_l_1_1_text_overlay.html" target="_top" xlink:title="A series of 2D quads with letters on them. All letters are stored in one texture file and thus ultima...">
<polygon fill="white" stroke="black" points="134.5,-0.5 134.5,-19.5 251.5,-19.5 251.5,-0.5 134.5,-0.5"/>
<text text-anchor="middle" x="193" y="-7.5" font-family="Helvetica,sans-Serif" font-size="10.00">OmniOGL::TextOverlay</text>
</a>
</g>
</g>
<!-- Node1&#45;&gt;Node8 -->
<g id="edge7" class="edge"><title>Node1&#45;&gt;Node8</title>
<path fill="none" stroke="midnightblue" d="M61.5175,-105.95C75.9901,-84.6523 102.753,-49.5466 134,-29 139.843,-25.1577 146.529,-22.0337 153.234,-19.5131"/>
<polygon fill="midnightblue" stroke="midnightblue" points="58.522,-104.135 55.9252,-114.406 64.3607,-107.996 58.522,-104.135"/>
</g>
</g>
</svg>
