<?xml version="1.0" encoding="UTF-8" standalone="no"?>
<!DOCTYPE svg PUBLIC "-//W3C//DTD SVG 1.1//EN"
 "http://www.w3.org/Graphics/SVG/1.1/DTD/svg11.dtd">
<!-- Generated by graphviz version 2.30.1 (20130214.1330)
 -->
<!-- Title: OmniOGL::RemoveNearObject Pages: 1 -->
<svg width="660pt" height="82pt"
 viewBox="0.00 0.00 660.00 82.00" xmlns="http://www.w3.org/2000/svg" xmlns:xlink="http://www.w3.org/1999/xlink">
<g id="graph0" class="graph" transform="scale(1 1) rotate(0) translate(4 78)">
<title>OmniOGL::RemoveNearObject</title>
<polygon fill="white" stroke="white" points="-4,5 -4,-78 657,-78 657,5 -4,5"/>
<!-- Node1 -->
<g id="node1" class="node"><title>Node1</title>
<polygon fill="#bfbfbf" stroke="black" points="0.5,-27.5 0.5,-46.5 149.5,-46.5 149.5,-27.5 0.5,-27.5"/>
<text text-anchor="middle" x="75" y="-34.5" font-family="Helvetica,sans-Serif" font-size="10.00">OmniOGL::RemoveNearObject</text>
</g>
<!-- Node2 -->
<g id="node2" class="node"><title>Node2</title>
<g id="a_node2"><a xlink:href="class_omni_o_g_l_1_1_scene.html#ad8fb0d536b837b12c42c51321392d249" target="_top" xlink:title="A getter which returns a pointer to the Section object currently being occupied by the player/camera ...">
<polygon fill="white" stroke="black" points="189.5,-44 189.5,-74 346.5,-74 346.5,-44 189.5,-44"/>
<text text-anchor="start" x="197.5" y="-62" font-family="Helvetica,sans-Serif" font-size="10.00">OmniOGL::Scene::GetOccupied</text>
<text text-anchor="middle" x="268" y="-51" font-family="Helvetica,sans-Serif" font-size="10.00">Section</text>
</a>
</g>
</g>
<!-- Node1&#45;&gt;Node2 -->
<g id="edge1" class="edge"><title>Node1&#45;&gt;Node2</title>
<path fill="none" stroke="midnightblue" d="M149.572,-45.4743C159.244,-46.5883 169.232,-47.7388 179.112,-48.8767"/>
<polygon fill="midnightblue" stroke="midnightblue" points="179.015,-52.3886 189.35,-50.056 179.816,-45.4346 179.015,-52.3886"/>
</g>
<!-- Node3 -->
<g id="node3" class="node"><title>Node3</title>
<g id="a_node3"><a xlink:href="class_omni_o_g_l_1_1_scene.html#a0dbdc05458b6c7c905b79dd847bc5e24" target="_top" xlink:title="Removes a RenObj (or one of its derivates) from the Scene, only if the object [pointer] already exist...">
<polygon fill="white" stroke="black" points="186.5,-5.5 186.5,-24.5 349.5,-24.5 349.5,-5.5 186.5,-5.5"/>
<text text-anchor="middle" x="268" y="-12.5" font-family="Helvetica,sans-Serif" font-size="10.00">OmniOGL::Scene::RemoveObject</text>
</a>
</g>
</g>
<!-- Node1&#45;&gt;Node3 -->
<g id="edge2" class="edge"><title>Node1&#45;&gt;Node3</title>
<path fill="none" stroke="midnightblue" d="M149.572,-28.5257C158.353,-27.5143 167.395,-26.4728 176.379,-25.438"/>
<polygon fill="midnightblue" stroke="midnightblue" points="176.948,-28.8957 186.482,-24.2744 176.147,-21.9417 176.948,-28.8957"/>
</g>
<!-- Node4 -->
<g id="node4" class="node"><title>Node4</title>
<g id="a_node4"><a xlink:href="class_omni_o_g_l_1_1_section.html#ac8ecd65a9d61f632f44d18df9174cf8d" target="_top" xlink:title="Removes an object from the Section&#39;s collection (linked list) of objects. This method also decrements...">
<polygon fill="white" stroke="black" points="386,-0 386,-30 526,-30 526,-0 386,-0"/>
<text text-anchor="start" x="394" y="-18" font-family="Helvetica,sans-Serif" font-size="10.00">OmniOGL::Section::Remove</text>
<text text-anchor="middle" x="456" y="-7" font-family="Helvetica,sans-Serif" font-size="10.00">Object</text>
</a>
</g>
</g>
<!-- Node3&#45;&gt;Node4 -->
<g id="edge3" class="edge"><title>Node3&#45;&gt;Node4</title>
<path fill="none" stroke="midnightblue" d="M349.501,-15C358.18,-15 367.008,-15 375.674,-15"/>
<polygon fill="midnightblue" stroke="midnightblue" points="375.754,-18.5001 385.754,-15 375.754,-11.5001 375.754,-18.5001"/>
</g>
<!-- Node5 -->
<g id="node5" class="node"><title>Node5</title>
<g id="a_node5"><a xlink:href="namespace_omni_o_g_l.html#a8f559408c62db097a1a918d7f58f4183" target="_top" xlink:title="A &quot;clone&quot; of the well&#45;known printf() function, with the debug routed to the OutputDebugString() funct...">
<polygon fill="white" stroke="black" points="562,-5.5 562,-24.5 652,-24.5 652,-5.5 562,-5.5"/>
<text text-anchor="middle" x="607" y="-12.5" font-family="Helvetica,sans-Serif" font-size="10.00">OmniOGL::dprint</text>
</a>
</g>
</g>
<!-- Node4&#45;&gt;Node5 -->
<g id="edge4" class="edge"><title>Node4&#45;&gt;Node5</title>
<path fill="none" stroke="midnightblue" d="M526.266,-15C534.708,-15 543.241,-15 551.428,-15"/>
<polygon fill="midnightblue" stroke="midnightblue" points="551.579,-18.5001 561.579,-15 551.579,-11.5001 551.579,-18.5001"/>
</g>
</g>
</svg>
