<?xml version="1.0" encoding="UTF-8" standalone="no"?>
<!DOCTYPE svg PUBLIC "-//W3C//DTD SVG 1.1//EN"
 "http://www.w3.org/Graphics/SVG/1.1/DTD/svg11.dtd">
<!-- Generated by graphviz version 2.30.1 (20130214.1330)
 -->
<!-- Title: OmniOGL::GetFileContents Pages: 1 -->
<svg width="400pt" height="77pt"
 viewBox="0.00 0.00 400.00 77.00" xmlns="http://www.w3.org/2000/svg" xmlns:xlink="http://www.w3.org/1999/xlink">
<g id="graph0" class="graph" transform="scale(1 1) rotate(0) translate(4 73)">
<title>OmniOGL::GetFileContents</title>
<polygon fill="white" stroke="white" points="-4,5 -4,-73 397,-73 397,5 -4,5"/>
<!-- Node1 -->
<g id="node1" class="node"><title>Node1</title>
<polygon fill="#bfbfbf" stroke="black" points="0.5,-27.5 0.5,-46.5 137.5,-46.5 137.5,-27.5 0.5,-27.5"/>
<text text-anchor="middle" x="69" y="-34.5" font-family="Helvetica,sans-Serif" font-size="10.00">OmniOGL::GetFileContents</text>
</g>
<!-- Node2 -->
<g id="node2" class="node"><title>Node2</title>
<g id="a_node2"><a xlink:href="namespace_omni_o_g_l.html#a73e45a9a8c8783e5a10758095bfc8f6a" target="_top" xlink:title="Grabs the contents of an existing file and attempts to compile and create a Vertex Shader which can u...">
<polygon fill="white" stroke="black" points="174.5,-49.5 174.5,-68.5 299.5,-68.5 299.5,-49.5 174.5,-49.5"/>
<text text-anchor="middle" x="237" y="-56.5" font-family="Helvetica,sans-Serif" font-size="10.00">OmniOGL::MakVertShad</text>
</a>
</g>
</g>
<!-- Node1&#45;&gt;Node2 -->
<g id="edge1" class="edge"><title>Node1&#45;&gt;Node2</title>
<path fill="none" stroke="midnightblue" d="M147.614,-47.2862C156.607,-48.4781 165.686,-49.6812 174.424,-50.8393"/>
<polygon fill="midnightblue" stroke="midnightblue" points="147.892,-43.7925 137.519,-45.9482 146.972,-50.7318 147.892,-43.7925"/>
</g>
<!-- Node4 -->
<g id="node4" class="node"><title>Node4</title>
<g id="a_node4"><a xlink:href="class_omni_o_g_l_1_1_blender_obj.html#abbca4966b62188421994e9bdf9b0054f" target="_top" xlink:title="The sole BlenderObj constructor for the time being (except for the copy constructor) which requires a...">
<polygon fill="white" stroke="black" points="180,-0 180,-30 294,-30 294,-0 180,-0"/>
<text text-anchor="start" x="188" y="-18" font-family="Helvetica,sans-Serif" font-size="10.00">OmniOGL::BlenderObj</text>
<text text-anchor="middle" x="237" y="-7" font-family="Helvetica,sans-Serif" font-size="10.00">::BlenderObj</text>
</a>
</g>
</g>
<!-- Node1&#45;&gt;Node4 -->
<g id="edge3" class="edge"><title>Node1&#45;&gt;Node4</title>
<path fill="none" stroke="midnightblue" d="M147.507,-26.728C158.447,-25.2781 169.514,-23.8114 179.945,-22.429"/>
<polygon fill="midnightblue" stroke="midnightblue" points="146.972,-23.2682 137.519,-28.0518 147.892,-30.2075 146.972,-23.2682"/>
</g>
<!-- Node3 -->
<g id="node3" class="node"><title>Node3</title>
<g id="a_node3"><a xlink:href="_exec_8cpp.html#a66e65252a6985e382838442f280f46ba" target="_top" xlink:title="WinMain">
<polygon fill="white" stroke="black" points="336.5,-49.5 336.5,-68.5 391.5,-68.5 391.5,-49.5 336.5,-49.5"/>
<text text-anchor="middle" x="364" y="-56.5" font-family="Helvetica,sans-Serif" font-size="10.00">WinMain</text>
</a>
</g>
</g>
<!-- Node2&#45;&gt;Node3 -->
<g id="edge2" class="edge"><title>Node2&#45;&gt;Node3</title>
<path fill="none" stroke="midnightblue" d="M310.028,-59C319.416,-59 328.51,-59 336.436,-59"/>
<polygon fill="midnightblue" stroke="midnightblue" points="309.768,-55.5001 299.768,-59 309.768,-62.5001 309.768,-55.5001"/>
</g>
</g>
</svg>
