<?xml version="1.0" encoding="UTF-8" standalone="no"?>
<!DOCTYPE svg PUBLIC "-//W3C//DTD SVG 1.1//EN"
 "http://www.w3.org/Graphics/SVG/1.1/DTD/svg11.dtd">
<!-- Generated by graphviz version 2.30.1 (20130214.1330)
 -->
<!-- Title: OmniOGL::MakeWindow Pages: 1 -->
<svg width="1022pt" height="296pt"
 viewBox="0.00 0.00 1022.00 296.00" xmlns="http://www.w3.org/2000/svg" xmlns:xlink="http://www.w3.org/1999/xlink">
<g id="graph0" class="graph" transform="scale(1 1) rotate(0) translate(4 292)">
<title>OmniOGL::MakeWindow</title>
<polygon fill="white" stroke="white" points="-4,5 -4,-292 1019,-292 1019,5 -4,5"/>
<!-- Node1 -->
<g id="node1" class="node"><title>Node1</title>
<polygon fill="#bfbfbf" stroke="black" points="0.5,-145.5 0.5,-164.5 125.5,-164.5 125.5,-145.5 0.5,-145.5"/>
<text text-anchor="middle" x="63" y="-152.5" font-family="Helvetica,sans-Serif" font-size="10.00">OmniOGL::MakeWindow</text>
</g>
<!-- Node2 -->
<g id="node2" class="node"><title>Node2</title>
<g id="a_node2"><a xlink:href="namespace_omni_o_g_l.html#a8f559408c62db097a1a918d7f58f4183" target="_top" xlink:title="A &quot;clone&quot; of the well&#45;known printf() function, with the debug routed to the OutputDebugString() funct...">
<polygon fill="white" stroke="black" points="924,-142.5 924,-161.5 1014,-161.5 1014,-142.5 924,-142.5"/>
<text text-anchor="middle" x="969" y="-149.5" font-family="Helvetica,sans-Serif" font-size="10.00">OmniOGL::dprint</text>
</a>
</g>
</g>
<!-- Node1&#45;&gt;Node2 -->
<g id="edge1" class="edge"><title>Node1&#45;&gt;Node2</title>
<path fill="none" stroke="midnightblue" d="M78.0261,-164.565C124.153,-195.061 276.198,-288 416,-288 416,-288 416,-288 619,-288 750.857,-288 892.788,-202.677 946.11,-167.195"/>
<polygon fill="midnightblue" stroke="midnightblue" points="948.124,-170.058 954.456,-161.563 944.209,-164.256 948.124,-170.058"/>
</g>
<!-- Node3 -->
<g id="node3" class="node"><title>Node3</title>
<g id="a_node3"><a xlink:href="namespace_omni_o_g_l.html#a9a2525b1056458096e98c5608ed2f904" target="_top" xlink:title="An event handler for keyboard events which is passed to glfwSetKeyCallback() as a means of handling k...">
<polygon fill="white" stroke="black" points="170.5,-164.5 170.5,-183.5 289.5,-183.5 289.5,-164.5 170.5,-164.5"/>
<text text-anchor="middle" x="230" y="-171.5" font-family="Helvetica,sans-Serif" font-size="10.00">OmniOGL::evnt_Keybrd</text>
</a>
</g>
</g>
<!-- Node1&#45;&gt;Node3 -->
<g id="edge2" class="edge"><title>Node1&#45;&gt;Node3</title>
<path fill="none" stroke="midnightblue" d="M125.909,-162.129C137.041,-163.411 148.707,-164.754 160.025,-166.057"/>
<polygon fill="midnightblue" stroke="midnightblue" points="159.96,-169.573 170.294,-167.24 160.761,-162.619 159.96,-169.573"/>
</g>
<!-- Node12 -->
<g id="node12" class="node"><title>Node12</title>
<g id="a_node12"><a xlink:href="namespace_omni_o_g_l.html#a20ece517b2932529961307cc7abf15bb" target="_top" xlink:title="An event handler for keyboard events which is passed to glfwSetMousePosCallback() as a means of handl...">
<polygon fill="white" stroke="black" points="162.5,-126.5 162.5,-145.5 297.5,-145.5 297.5,-126.5 162.5,-126.5"/>
<text text-anchor="middle" x="230" y="-133.5" font-family="Helvetica,sans-Serif" font-size="10.00">OmniOGL::evnt_MouseMov</text>
</a>
</g>
</g>
<!-- Node1&#45;&gt;Node12 -->
<g id="edge12" class="edge"><title>Node1&#45;&gt;Node12</title>
<path fill="none" stroke="midnightblue" d="M125.909,-147.871C134.547,-146.876 143.505,-145.845 152.373,-144.824"/>
<polygon fill="midnightblue" stroke="midnightblue" points="152.791,-148.299 162.325,-143.678 151.99,-141.345 152.791,-148.299"/>
</g>
<!-- Node13 -->
<g id="node13" class="node"><title>Node13</title>
<g id="a_node13"><a xlink:href="namespace_omni_o_g_l.html#a3a42d273f9da945de1baa561983d981a" target="_top" xlink:title="An event handler for keyboard events which is passed to glfwSetMouseButtonCallback() as a means of ha...">
<polygon fill="white" stroke="black" points="163.5,-38.5 163.5,-57.5 296.5,-57.5 296.5,-38.5 163.5,-38.5"/>
<text text-anchor="middle" x="230" y="-45.5" font-family="Helvetica,sans-Serif" font-size="10.00">OmniOGL::evnt_MouseBtn</text>
</a>
</g>
</g>
<!-- Node1&#45;&gt;Node13 -->
<g id="edge13" class="edge"><title>Node1&#45;&gt;Node13</title>
<path fill="none" stroke="midnightblue" d="M78.9337,-145.316C107.771,-126.615 171.306,-85.4135 205.733,-63.0885"/>
<polygon fill="midnightblue" stroke="midnightblue" points="207.733,-65.9629 214.219,-57.5853 203.924,-60.0897 207.733,-65.9629"/>
</g>
<!-- Node4 -->
<g id="node4" class="node"><title>Node4</title>
<g id="a_node4"><a xlink:href="class_omni_o_g_l_1_1_scene.html#ab13174444217c90a47b511f43aa7683e" target="_top" xlink:title="Toggles phong shading (a.k.a. specular highlights) on/off. Primarily used for debugging purposes...">
<polygon fill="white" stroke="black" points="339,-240.5 339,-259.5 495,-259.5 495,-240.5 339,-240.5"/>
<text text-anchor="middle" x="417" y="-247.5" font-family="Helvetica,sans-Serif" font-size="10.00">OmniOGL::Scene::TogglePhong</text>
</a>
</g>
</g>
<!-- Node3&#45;&gt;Node4 -->
<g id="edge3" class="edge"><title>Node3&#45;&gt;Node4</title>
<path fill="none" stroke="midnightblue" d="M245.381,-183.658C264.739,-196.252 300.611,-218.181 334,-231 340.659,-233.557 347.76,-235.829 354.892,-237.833"/>
<polygon fill="midnightblue" stroke="midnightblue" points="354.036,-241.227 364.599,-240.4 355.826,-234.459 354.036,-241.227"/>
</g>
<!-- Node5 -->
<g id="node5" class="node"><title>Node5</title>
<g id="a_node5"><a xlink:href="class_omni_o_g_l_1_1_scene.html#ac22c153e30b6ec0826789b499c500b0d" target="_top" xlink:title="Toggles lambertian reflectance (a.k.a. diffuse highlights) on/off. Primarily used for debugging purpo...">
<polygon fill="white" stroke="black" points="335,-202.5 335,-221.5 499,-221.5 499,-202.5 335,-202.5"/>
<text text-anchor="middle" x="417" y="-209.5" font-family="Helvetica,sans-Serif" font-size="10.00">OmniOGL::Scene::ToggleLambert</text>
</a>
</g>
</g>
<!-- Node3&#45;&gt;Node5 -->
<g id="edge4" class="edge"><title>Node3&#45;&gt;Node5</title>
<path fill="none" stroke="midnightblue" d="M277.683,-183.589C302.646,-188.716 333.564,-195.067 359.834,-200.463"/>
<polygon fill="midnightblue" stroke="midnightblue" points="359.153,-203.896 369.652,-202.48 360.561,-197.039 359.153,-203.896"/>
</g>
<!-- Node6 -->
<g id="node6" class="node"><title>Node6</title>
<g id="a_node6"><a xlink:href="namespace_omni_o_g_l.html#a6630146f2a7cfde12d20ac50fe2f01df" target="_top" xlink:title="Iterates through all objects in the Section which the player/user is currently in, as well as all of the persistant objects in the Scene, and attempts to find which object is within closest proximity to the camera CENTER (the point the camera is looking at). Only objects which are within a close&#45;enough proximity will qualify. The nearest qualifying object is removed from the Scene (or from the Section it occupied, if it occupied one). evnt_Keybrd()">
<polygon fill="white" stroke="black" points="342.5,-164.5 342.5,-183.5 491.5,-183.5 491.5,-164.5 342.5,-164.5"/>
<text text-anchor="middle" x="417" y="-171.5" font-family="Helvetica,sans-Serif" font-size="10.00">OmniOGL::RemoveNearObject</text>
</a>
</g>
</g>
<!-- Node3&#45;&gt;Node6 -->
<g id="edge5" class="edge"><title>Node3&#45;&gt;Node6</title>
<path fill="none" stroke="midnightblue" d="M289.535,-174C302.994,-174 317.567,-174 331.871,-174"/>
<polygon fill="midnightblue" stroke="midnightblue" points="332.219,-177.5 342.219,-174 332.219,-170.5 332.219,-177.5"/>
</g>
<!-- Node10 -->
<g id="node10" class="node"><title>Node10</title>
<g id="a_node10"><a xlink:href="class_omni_o_g_l_1_1_scene.html#a452adda2e655d6702fa23361ab9a4651" target="_top" xlink:title="Toggles bump mapping via [specially formatted] textures on/off. Primarily used for debugging purposes...">
<polygon fill="white" stroke="black" points="340,-115 340,-145 494,-145 494,-115 340,-115"/>
<text text-anchor="start" x="348" y="-133" font-family="Helvetica,sans-Serif" font-size="10.00">OmniOGL::Scene::ToggleBump</text>
<text text-anchor="middle" x="417" y="-122" font-family="Helvetica,sans-Serif" font-size="10.00">Mapping</text>
</a>
</g>
</g>
<!-- Node3&#45;&gt;Node10 -->
<g id="edge10" class="edge"><title>Node3&#45;&gt;Node10</title>
<path fill="none" stroke="midnightblue" d="M271.142,-164.453C292.064,-159.477 318.314,-153.233 342.702,-147.433"/>
<polygon fill="midnightblue" stroke="midnightblue" points="343.738,-150.784 352.657,-145.065 342.118,-143.974 343.738,-150.784"/>
</g>
<!-- Node11 -->
<g id="node11" class="node"><title>Node11</title>
<g id="a_node11"><a xlink:href="class_omni_o_g_l_1_1_scene.html#a87c0724c8678835982e0fd9774e5ebb3" target="_top" xlink:title="Toggles texture mapping on/off. Does not affect textures used for bump mapping. Primarily used for de...">
<polygon fill="white" stroke="black" points="334,-76.5 334,-95.5 500,-95.5 500,-76.5 334,-76.5"/>
<text text-anchor="middle" x="417" y="-83.5" font-family="Helvetica,sans-Serif" font-size="10.00">OmniOGL::Scene::ToggleTextures</text>
</a>
</g>
</g>
<!-- Node3&#45;&gt;Node11 -->
<g id="edge11" class="edge"><title>Node3&#45;&gt;Node11</title>
<path fill="none" stroke="midnightblue" d="M279.634,-164.448C286.132,-161.983 292.456,-158.887 298,-155 320.42,-139.278 311.204,-120.172 334,-105 337.102,-102.935 340.4,-101.094 343.823,-99.4506"/>
<polygon fill="midnightblue" stroke="midnightblue" points="345.262,-102.643 353.132,-95.5497 342.556,-96.1868 345.262,-102.643"/>
</g>
<!-- Node7 -->
<g id="node7" class="node"><title>Node7</title>
<g id="a_node7"><a xlink:href="class_omni_o_g_l_1_1_scene.html#ad8fb0d536b837b12c42c51321392d249" target="_top" xlink:title="A getter which returns a pointer to the Section object currently being occupied by the player/camera ...">
<polygon fill="white" stroke="black" points="539.5,-181 539.5,-211 696.5,-211 696.5,-181 539.5,-181"/>
<text text-anchor="start" x="547.5" y="-199" font-family="Helvetica,sans-Serif" font-size="10.00">OmniOGL::Scene::GetOccupied</text>
<text text-anchor="middle" x="618" y="-188" font-family="Helvetica,sans-Serif" font-size="10.00">Section</text>
</a>
</g>
</g>
<!-- Node6&#45;&gt;Node7 -->
<g id="edge6" class="edge"><title>Node6&#45;&gt;Node7</title>
<path fill="none" stroke="midnightblue" d="M491.535,-182.129C503.853,-183.491 516.742,-184.916 529.372,-186.313"/>
<polygon fill="midnightblue" stroke="midnightblue" points="529.106,-189.804 539.43,-187.424 529.876,-182.847 529.106,-189.804"/>
</g>
<!-- Node8 -->
<g id="node8" class="node"><title>Node8</title>
<g id="a_node8"><a xlink:href="class_omni_o_g_l_1_1_scene.html#a0dbdc05458b6c7c905b79dd847bc5e24" target="_top" xlink:title="Removes a RenObj (or one of its derivates) from the Scene, only if the object [pointer] already exist...">
<polygon fill="white" stroke="black" points="536.5,-142.5 536.5,-161.5 699.5,-161.5 699.5,-142.5 536.5,-142.5"/>
<text text-anchor="middle" x="618" y="-149.5" font-family="Helvetica,sans-Serif" font-size="10.00">OmniOGL::Scene::RemoveObject</text>
</a>
</g>
</g>
<!-- Node6&#45;&gt;Node8 -->
<g id="edge7" class="edge"><title>Node6&#45;&gt;Node8</title>
<path fill="none" stroke="midnightblue" d="M491.535,-165.871C502.838,-164.621 514.623,-163.318 526.247,-162.033"/>
<polygon fill="midnightblue" stroke="midnightblue" points="526.849,-165.488 536.404,-160.91 526.08,-158.53 526.849,-165.488"/>
</g>
<!-- Node9 -->
<g id="node9" class="node"><title>Node9</title>
<g id="a_node9"><a xlink:href="class_omni_o_g_l_1_1_section.html#ac8ecd65a9d61f632f44d18df9174cf8d" target="_top" xlink:title="Removes an object from the Section&#39;s collection (linked list) of objects. This method also decrements...">
<polygon fill="white" stroke="black" points="742,-137 742,-167 882,-167 882,-137 742,-137"/>
<text text-anchor="start" x="750" y="-155" font-family="Helvetica,sans-Serif" font-size="10.00">OmniOGL::Section::Remove</text>
<text text-anchor="middle" x="812" y="-144" font-family="Helvetica,sans-Serif" font-size="10.00">Object</text>
</a>
</g>
</g>
<!-- Node8&#45;&gt;Node9 -->
<g id="edge8" class="edge"><title>Node8&#45;&gt;Node9</title>
<path fill="none" stroke="midnightblue" d="M699.591,-152C710.245,-152 721.159,-152 731.79,-152"/>
<polygon fill="midnightblue" stroke="midnightblue" points="731.878,-155.5 741.878,-152 731.878,-148.5 731.878,-155.5"/>
</g>
<!-- Node9&#45;&gt;Node2 -->
<g id="edge9" class="edge"><title>Node9&#45;&gt;Node2</title>
<path fill="none" stroke="midnightblue" d="M882.34,-152C892.749,-152 903.357,-152 913.401,-152"/>
<polygon fill="midnightblue" stroke="midnightblue" points="913.632,-155.5 923.632,-152 913.632,-148.5 913.632,-155.5"/>
</g>
<!-- Node13&#45;&gt;Node2 -->
<g id="edge14" class="edge"><title>Node13&#45;&gt;Node2</title>
<path fill="none" stroke="midnightblue" d="M296.641,-51.1129C351.193,-54.0652 430.795,-59.2186 500,-67 673.401,-86.4972 718.028,-87.5329 888,-127 902.232,-130.305 917.606,-134.863 931.038,-139.183"/>
<polygon fill="midnightblue" stroke="midnightblue" points="930.286,-142.62 940.879,-142.415 932.471,-135.969 930.286,-142.62"/>
</g>
<!-- Node14 -->
<g id="node14" class="node"><title>Node14</title>
<g id="a_node14"><a xlink:href="namespace_omni_o_g_l.html#af5108efeb0d59c8b63da8231e70c987f" target="_top" xlink:title="In the current implementation this function must determine the derived type of the shared pointer pas...">
<polygon fill="white" stroke="black" points="352,-0.5 352,-19.5 482,-19.5 482,-0.5 352,-0.5"/>
<text text-anchor="middle" x="417" y="-7.5" font-family="Helvetica,sans-Serif" font-size="10.00">OmniOGL::AddDerivedObj</text>
</a>
</g>
</g>
<!-- Node13&#45;&gt;Node14 -->
<g id="edge15" class="edge"><title>Node13&#45;&gt;Node14</title>
<path fill="none" stroke="midnightblue" d="M277.683,-38.411C302.646,-33.2835 333.564,-26.9328 359.834,-21.5368"/>
<polygon fill="midnightblue" stroke="midnightblue" points="360.561,-24.9606 369.652,-19.5201 359.153,-18.1038 360.561,-24.9606"/>
</g>
<!-- Node15 -->
<g id="node15" class="node"><title>Node15</title>
<g id="a_node15"><a xlink:href="class_omni_o_g_l_1_1_scene.html#a63db7f91d326ad1a20741b31417b8148" target="_top" xlink:title="A template method which adds an renderable object of type T to the scene. It is assumed that T is a d...">
<polygon fill="white" stroke="black" points="545,-0.5 545,-19.5 691,-19.5 691,-0.5 545,-0.5"/>
<text text-anchor="middle" x="618" y="-7.5" font-family="Helvetica,sans-Serif" font-size="10.00">OmniOGL::Scene::AddObject</text>
</a>
</g>
</g>
<!-- Node14&#45;&gt;Node15 -->
<g id="edge16" class="edge"><title>Node14&#45;&gt;Node15</title>
<path fill="none" stroke="midnightblue" d="M482.06,-10C498.777,-10 517.028,-10 534.553,-10"/>
<polygon fill="midnightblue" stroke="midnightblue" points="534.77,-13.5001 544.77,-10 534.769,-6.5001 534.77,-13.5001"/>
</g>
<!-- Node16 -->
<g id="node16" class="node"><title>Node16</title>
<g id="a_node16"><a xlink:href="class_omni_o_g_l_1_1_section.html#a20b4cf2c6472d59e9967aa8dbad377a4" target="_top" xlink:title="Adds an object to the Section&#39;s collection (linked list) of objects. This method also increments Sect...">
<polygon fill="white" stroke="black" points="736.5,-0.5 736.5,-19.5 887.5,-19.5 887.5,-0.5 736.5,-0.5"/>
<text text-anchor="middle" x="812" y="-7.5" font-family="Helvetica,sans-Serif" font-size="10.00">OmniOGL::Section::AddObject</text>
</a>
</g>
</g>
<!-- Node15&#45;&gt;Node16 -->
<g id="edge17" class="edge"><title>Node15&#45;&gt;Node16</title>
<path fill="none" stroke="midnightblue" d="M691.04,-10C702.48,-10 714.404,-10 726.106,-10"/>
<polygon fill="midnightblue" stroke="midnightblue" points="726.314,-13.5001 736.314,-10 726.314,-6.5001 726.314,-13.5001"/>
</g>
</g>
</svg>
