<?xml version="1.0" encoding="UTF-8" standalone="no"?>
<!DOCTYPE svg PUBLIC "-//W3C//DTD SVG 1.1//EN"
 "http://www.w3.org/Graphics/SVG/1.1/DTD/svg11.dtd">
<!-- Generated by graphviz version 2.30.1 (20130214.1330)
 -->
<!-- Title: OmniOGL::_New Pages: 1 -->
<!--zoomable 884 -->
<svg id="main" version="1.1" xmlns="http://www.w3.org/2000/svg" xmlns:xlink="http://www.w3.org/1999/xlink" xml:space="preserve" onload="init(evt)">
        <defs>
                <circle id="rim" cx="0" cy="0" r="7"/>
                <circle id="rim2" cx="0" cy="0" r="3.5"/>
                <g id="zoomPlus">
                        <use xlink:href="#rim" fill="#404040">
                                <set attributeName="fill" to="#808080" begin="zoomplus.mouseover" end="zoomplus.mouseout"/>
                        </use>
                        <path d="M-4,0h8M0,-4v8" fill="none" stroke="white" stroke-width="1.5" pointer-events="none"/>
                </g>
                <g id="zoomMin">
                        <use xlink:href="#rim" fill="#404040">
                                <set attributeName="fill" to="#808080" begin="zoomminus.mouseover" end="zoomminus.mouseout"/>
                        </use>
                        <path d="M-4,0h8" fill="none" stroke="white" stroke-width="1.5" pointer-events="none"/>
                </g>
                <g id="dirArrow">
                        <path fill="none" stroke="white" stroke-width="1.5" d="M0,-3.0v7 M-2.5,-0.5L0,-3.0L2.5,-0.5"/>
                </g>
               <g id="resetDef">
                       <use xlink:href="#rim2" fill="#404040">
                               <set attributeName="fill" to="#808080" begin="reset.mouseover" end="reset.mouseout"/>
                       </use>
               </g>
        </defs>

<script type="text/javascript">
var viewWidth = 748;
var viewHeight = 884;
var sectionId = 'dynsection-4';
</script>
<script xlink:href="svgpan.js"/>
<svg id="graph" class="graph">
<g id="viewport">
<title>OmniOGL::_New</title>
<polygon fill="white" stroke="white" points="-4,5 -4,-879.553 745,-879.553 745,5 -4,5"/>
<!-- Node1 -->
<g id="node1" class="node"><title>Node1</title>
<polygon fill="#bfbfbf" stroke="black" points="0,-410.5 0,-429.5 90,-429.5 90,-410.5 0,-410.5"/>
<text text-anchor="middle" x="45" y="-417.5" font-family="Helvetica,sans-Serif" font-size="10.00">OmniOGL::_New</text>
</g>
<!-- Node2 -->
<g id="node2" class="node"><title>Node2</title>
<g id="a_node2"><a xlink:href="namespace_omni_o_g_l.html#a73e45a9a8c8783e5a10758095bfc8f6a" target="_top" xlink:title="Grabs the contents of an existing file and attempts to compile and create a Vertex Shader which can u...">
<polygon fill="white" stroke="black" points="521.5,-726.5 521.5,-745.5 646.5,-745.5 646.5,-726.5 521.5,-726.5"/>
<text text-anchor="middle" x="584" y="-733.5" font-family="Helvetica,sans-Serif" font-size="10.00">OmniOGL::MakVertShad</text>
</a>
</g>
</g>
<!-- Node1&#45;&gt;Node2 -->
<g id="edge1" class="edge"><title>Node1&#45;&gt;Node2</title>
<path fill="none" stroke="midnightblue" d="M48.2909,-439.774C54.013,-480.503 72.538,-574.487 126,-629 231.553,-736.628 423.209,-744.579 521.399,-740.71"/>
<polygon fill="midnightblue" stroke="midnightblue" points="51.7516,-439.245 46.998,-429.776 44.8094,-440.143 51.7516,-439.245"/>
</g>
<!-- Node4 -->
<g id="node4" class="node"><title>Node4</title>
<g id="a_node4"><a xlink:href="class_omni_o_g_l_1_1_ren_obj.html#a6d44159052e428be6591176edd86e885" target="_top" xlink:title="The copy constructor for the RenObj class. This class is responsible for initializing all of the RenO...">
<polygon fill="white" stroke="black" points="134.5,-600.5 134.5,-619.5 271.5,-619.5 271.5,-600.5 134.5,-600.5"/>
<text text-anchor="middle" x="203" y="-607.5" font-family="Helvetica,sans-Serif" font-size="10.00">OmniOGL::RenObj::RenObj</text>
</a>
</g>
</g>
<!-- Node1&#45;&gt;Node4 -->
<g id="edge3" class="edge"><title>Node1&#45;&gt;Node4</title>
<path fill="none" stroke="midnightblue" d="M49.474,-439.609C56.8669,-475.364 77.6075,-551.134 126,-591 130.724,-594.891 136.135,-598.002 141.846,-600.486"/>
<polygon fill="midnightblue" stroke="midnightblue" points="52.8554,-438.659 47.5246,-429.503 45.982,-439.985 52.8554,-438.659"/>
</g>
<!-- Node5 -->
<g id="node5" class="node"><title>Node5</title>
<g id="a_node5"><a xlink:href="class_omni_o_g_l_1_1_ren_obj.html#a0f76d1a329f2ed1ded9a87b1fdb70d19" target="_top" xlink:title="The &#39;=&#39; operator for the RenObj class. This method is called any time a derived class instance of a R...">
<polygon fill="white" stroke="black" points="130,-562.5 130,-581.5 276,-581.5 276,-562.5 130,-562.5"/>
<text text-anchor="middle" x="203" y="-569.5" font-family="Helvetica,sans-Serif" font-size="10.00">OmniOGL::RenObj::operator=</text>
</a>
</g>
</g>
<!-- Node1&#45;&gt;Node5 -->
<g id="edge4" class="edge"><title>Node1&#45;&gt;Node5</title>
<path fill="none" stroke="midnightblue" d="M52.9406,-439.093C64.0661,-467.058 88.5238,-518.972 126,-548 134.095,-554.27 143.86,-558.921 153.654,-562.364"/>
<polygon fill="midnightblue" stroke="midnightblue" points="56.1694,-437.738 49.33,-429.646 49.6307,-440.237 56.1694,-437.738"/>
</g>
<!-- Node13 -->
<g id="node13" class="node"><title>Node13</title>
<g id="a_node13"><a xlink:href="class_omni_o_g_l_1_1_ren_obj.html#af9a25f349be03a23bbb5fd0760a4a178" target="_top" xlink:title="A setter which takes three floats as a parameter and derives three float arrays of size four to be us...">
<polygon fill="white" stroke="black" points="126.5,-410.5 126.5,-429.5 279.5,-429.5 279.5,-410.5 126.5,-410.5"/>
<text text-anchor="middle" x="203" y="-417.5" font-family="Helvetica,sans-Serif" font-size="10.00">OmniOGL::RenObj::SetLighting</text>
</a>
</g>
</g>
<!-- Node1&#45;&gt;Node13 -->
<g id="edge12" class="edge"><title>Node1&#45;&gt;Node13</title>
<path fill="none" stroke="midnightblue" d="M100.312,-420C108.72,-420 117.534,-420 126.31,-420"/>
<polygon fill="midnightblue" stroke="midnightblue" points="100.286,-416.5 90.2861,-420 100.286,-423.5 100.286,-416.5"/>
</g>
<!-- Node14 -->
<g id="node14" class="node"><title>Node14</title>
<g id="a_node14"><a xlink:href="class_omni_o_g_l_1_1_ren_obj.html#afdabc2c84fb637c69116d103cab247bb" target="_top" xlink:title="OmniOGL::RenObj::EnableLighting">
<polygon fill="white" stroke="black" points="316,-753.5 316,-772.5 484,-772.5 484,-753.5 316,-753.5"/>
<text text-anchor="middle" x="400" y="-760.5" font-family="Helvetica,sans-Serif" font-size="10.00">OmniOGL::RenObj::EnableLighting</text>
</a>
</g>
</g>
<!-- Node1&#45;&gt;Node14 -->
<g id="edge13" class="edge"><title>Node1&#45;&gt;Node14</title>
<path fill="none" stroke="midnightblue" d="M48.0296,-440.007C54.9165,-503.625 79.5904,-699.401 126,-739 191.33,-794.743 300.252,-783.811 358.817,-772.514"/>
<polygon fill="midnightblue" stroke="midnightblue" points="51.4759,-439.313 46.9494,-429.734 44.5143,-440.045 51.4759,-439.313"/>
</g>
<!-- Node16 -->
<g id="node16" class="node"><title>Node16</title>
<g id="a_node16"><a xlink:href="class_omni_o_g_l_1_1_blender_obj.html#abbca4966b62188421994e9bdf9b0054f" target="_top" xlink:title="The sole BlenderObj constructor for the time being (except for the copy constructor) which requires a...">
<polygon fill="white" stroke="black" points="146,-361 146,-391 260,-391 260,-361 146,-361"/>
<text text-anchor="start" x="154" y="-379" font-family="Helvetica,sans-Serif" font-size="10.00">OmniOGL::BlenderObj</text>
<text text-anchor="middle" x="203" y="-368" font-family="Helvetica,sans-Serif" font-size="10.00">::BlenderObj</text>
</a>
</g>
</g>
<!-- Node1&#45;&gt;Node16 -->
<g id="edge16" class="edge"><title>Node1&#45;&gt;Node16</title>
<path fill="none" stroke="midnightblue" d="M89.6508,-407.688C107.937,-402.531 129.371,-396.485 148.586,-391.065"/>
<polygon fill="midnightblue" stroke="midnightblue" points="88.524,-404.369 79.8497,-410.453 90.4243,-411.107 88.524,-404.369"/>
</g>
<!-- Node17 -->
<g id="node17" class="node"><title>Node17</title>
<g id="a_node17"><a xlink:href="class_omni_o_g_l_1_1_cube.html#a00e82e577b136e70843831ac569fc19b" target="_top" xlink:title="The default constructor for the Cube class. This method is responsible for initializing all members s...">
<polygon fill="white" stroke="black" points="144.5,-322.5 144.5,-341.5 261.5,-341.5 261.5,-322.5 144.5,-322.5"/>
<text text-anchor="middle" x="203" y="-329.5" font-family="Helvetica,sans-Serif" font-size="10.00">OmniOGL::Cube::Cube</text>
</a>
</g>
</g>
<!-- Node1&#45;&gt;Node17 -->
<g id="edge17" class="edge"><title>Node1&#45;&gt;Node17</title>
<path fill="none" stroke="midnightblue" d="M61.8389,-402.697C76.9121,-387.237 100.953,-365.069 126,-352 134.225,-347.708 143.443,-344.285 152.546,-341.573"/>
<polygon fill="midnightblue" stroke="midnightblue" points="59.1682,-400.426 54.8163,-410.086 64.2423,-405.249 59.1682,-400.426"/>
</g>
<!-- Node18 -->
<g id="node18" class="node"><title>Node18</title>
<g id="a_node18"><a xlink:href="class_omni_o_g_l_1_1_floor.html#a636158345b20717527b337fb3e5e2924" target="_top" xlink:title="Default constructor for the Floor class &#45; responsible for initializing any members owned by this clas...">
<polygon fill="white" stroke="black" points="145,-284.5 145,-303.5 261,-303.5 261,-284.5 145,-284.5"/>
<text text-anchor="middle" x="203" y="-291.5" font-family="Helvetica,sans-Serif" font-size="10.00">OmniOGL::Floor::Floor</text>
</a>
</g>
</g>
<!-- Node1&#45;&gt;Node18 -->
<g id="edge18" class="edge"><title>Node1&#45;&gt;Node18</title>
<path fill="none" stroke="midnightblue" d="M54.9952,-401.03C67.4779,-376.808 92.3707,-335.365 126,-313 131.889,-309.084 138.521,-305.974 145.352,-303.506"/>
<polygon fill="midnightblue" stroke="midnightblue" points="51.7294,-399.737 50.4159,-410.25 57.9988,-402.85 51.7294,-399.737"/>
</g>
<!-- Node19 -->
<g id="node19" class="node"><title>Node19</title>
<g id="a_node19"><a xlink:href="class_omni_o_g_l_1_1_text_overlay.html#aa5bab4ddc1cdcc8d2f81b6c3e11a77a6" target="_top" xlink:title="The default constructor for the TextOverlay class which is invoked whenever the object is instantiate...">
<polygon fill="white" stroke="black" points="144.5,-235 144.5,-265 261.5,-265 261.5,-235 144.5,-235"/>
<text text-anchor="start" x="152.5" y="-253" font-family="Helvetica,sans-Serif" font-size="10.00">OmniOGL::TextOverlay</text>
<text text-anchor="middle" x="203" y="-242" font-family="Helvetica,sans-Serif" font-size="10.00">::TextOverlay</text>
</a>
</g>
</g>
<!-- Node1&#45;&gt;Node19 -->
<g id="edge19" class="edge"><title>Node1&#45;&gt;Node19</title>
<path fill="none" stroke="midnightblue" d="M51.5716,-400.645C61.466,-369.664 85.016,-308.978 126,-275 131.453,-270.479 137.75,-266.767 144.338,-263.721"/>
<polygon fill="midnightblue" stroke="midnightblue" points="48.205,-399.686 48.6351,-410.272 54.9005,-401.728 48.205,-399.686"/>
</g>
<!-- Node9 -->
<g id="node9" class="node"><title>Node9</title>
<g id="a_node9"><a xlink:href="class_omni_o_g_l_1_1_text_overlay.html#aac511da2435b188ccb84ae6e1de1c7f0" target="_top" xlink:title="The assignment operator method for this class. This method is responsible for setting all of the memb...">
<polygon fill="white" stroke="black" points="341.5,-491 341.5,-521 458.5,-521 458.5,-491 341.5,-491"/>
<text text-anchor="start" x="349.5" y="-509" font-family="Helvetica,sans-Serif" font-size="10.00">OmniOGL::TextOverlay</text>
<text text-anchor="middle" x="400" y="-498" font-family="Helvetica,sans-Serif" font-size="10.00">::operator=</text>
</a>
</g>
</g>
<!-- Node1&#45;&gt;Node9 -->
<g id="edge20" class="edge"><title>Node1&#45;&gt;Node9</title>
<path fill="none" stroke="midnightblue" d="M64.1309,-435.991C79.4868,-448.561 102.67,-465.346 126,-474 197.027,-500.347 284.944,-506.323 341.492,-507.061"/>
<polygon fill="midnightblue" stroke="midnightblue" points="66.3556,-433.289 56.4538,-429.519 61.8439,-438.641 66.3556,-433.289"/>
</g>
<!-- Node20 -->
<g id="node20" class="node"><title>Node20</title>
<g id="a_node20"><a xlink:href="class_omni_o_g_l_1_1_text_overlay.html#a4e34d1e6e721640ae3deab8034f6e2b1" target="_top" xlink:title="This method populates the vertex, color, and texture coordinate arrays with data necessary to render ...">
<polygon fill="white" stroke="black" points="341.5,-841 341.5,-871 458.5,-871 458.5,-841 341.5,-841"/>
<text text-anchor="start" x="349.5" y="-859" font-family="Helvetica,sans-Serif" font-size="10.00">OmniOGL::TextOverlay</text>
<text text-anchor="middle" x="400" y="-848" font-family="Helvetica,sans-Serif" font-size="10.00">::SetText</text>
</a>
</g>
</g>
<!-- Node1&#45;&gt;Node20 -->
<g id="edge21" class="edge"><title>Node1&#45;&gt;Node20</title>
<path fill="none" stroke="midnightblue" d="M46.8397,-440.141C50.4151,-515.283 67.0028,-777.676 126,-831 183.995,-883.418 279.952,-878.865 341.284,-868.867"/>
<polygon fill="midnightblue" stroke="midnightblue" points="50.3182,-439.582 46.3731,-429.749 43.3253,-439.896 50.3182,-439.582"/>
</g>
<!-- Node21 -->
<g id="node21" class="node"><title>Node21</title>
<g id="a_node21"><a xlink:href="class_omni_o_g_l_1_1_line_strip.html#af64b3e0837c49702b82c3b7a6c4288e4" target="_top" xlink:title="Adds a line segment to the class instance using absolute coordinates for a start and end point (i...">
<polygon fill="white" stroke="black" points="151,-186 151,-216 255,-216 255,-186 151,-186"/>
<text text-anchor="start" x="159" y="-204" font-family="Helvetica,sans-Serif" font-size="10.00">OmniOGL::LineStrip</text>
<text text-anchor="middle" x="203" y="-193" font-family="Helvetica,sans-Serif" font-size="10.00">::AddInstance</text>
</a>
</g>
</g>
<!-- Node1&#45;&gt;Node21 -->
<g id="edge23" class="edge"><title>Node1&#45;&gt;Node21</title>
<path fill="none" stroke="midnightblue" d="M48.6191,-400.306C54.8261,-361.405 74.0185,-274.303 126,-226 133.021,-219.476 141.778,-214.653 150.826,-211.087"/>
<polygon fill="midnightblue" stroke="midnightblue" points="45.1369,-399.93 47.1416,-410.333 52.0621,-400.951 45.1369,-399.93"/>
</g>
<!-- Node26 -->
<g id="node26" class="node"><title>Node26</title>
<g id="a_node26"><a xlink:href="class_omni_o_g_l_1_1_block_array.html#ae07147d93047e5dee286fa611251e7fd" target="_top" xlink:title="The copy constructor for this class which is responsible for copying data from an existing BlockArray...">
<polygon fill="white" stroke="black" points="146,-137 146,-167 260,-167 260,-137 146,-137"/>
<text text-anchor="start" x="154" y="-155" font-family="Helvetica,sans-Serif" font-size="10.00">OmniOGL::BlockArray</text>
<text text-anchor="middle" x="203" y="-144" font-family="Helvetica,sans-Serif" font-size="10.00">::BlockArray</text>
</a>
</g>
</g>
<!-- Node1&#45;&gt;Node26 -->
<g id="edge28" class="edge"><title>Node1&#45;&gt;Node26</title>
<path fill="none" stroke="midnightblue" d="M46.7501,-399.889C49.5586,-353.888 62.8758,-240.109 126,-177 131.599,-171.402 138.473,-167.058 145.775,-163.686"/>
<polygon fill="midnightblue" stroke="midnightblue" points="43.2458,-399.889 46.2386,-410.052 50.237,-400.241 43.2458,-399.889"/>
</g>
<!-- Node11 -->
<g id="node11" class="node"><title>Node11</title>
<g id="a_node11"><a xlink:href="class_omni_o_g_l_1_1_block_array.html#aa65d78b3ff0f2d2c27011a8f057aa07d" target="_top" xlink:title="The &quot;=&quot; operator method for the BlockArray class. This method copies all data from one existing Block...">
<polygon fill="white" stroke="black" points="343,-442 343,-472 457,-472 457,-442 343,-442"/>
<text text-anchor="start" x="351" y="-460" font-family="Helvetica,sans-Serif" font-size="10.00">OmniOGL::BlockArray</text>
<text text-anchor="middle" x="400" y="-449" font-family="Helvetica,sans-Serif" font-size="10.00">::operator=</text>
</a>
</g>
</g>
<!-- Node1&#45;&gt;Node11 -->
<g id="edge29" class="edge"><title>Node1&#45;&gt;Node11</title>
<path fill="none" stroke="midnightblue" d="M71.777,-434.474C87.0308,-442.212 107.026,-450.958 126,-455 199.708,-470.7 287.169,-467.669 342.865,-463.118"/>
<polygon fill="midnightblue" stroke="midnightblue" points="72.976,-431.15 62.496,-429.594 69.7184,-437.346 72.976,-431.15"/>
</g>
<!-- Node27 -->
<g id="node27" class="node"><title>Node27</title>
<g id="a_node27"><a xlink:href="class_omni_o_g_l_1_1_block_array.html#acb2c4730f7024c2ab8efbe84911d7f69" target="_top" xlink:title="This method takes various critical parameters and populates its class members with their data...">
<polygon fill="white" stroke="black" points="146,-792 146,-822 260,-822 260,-792 146,-792"/>
<text text-anchor="start" x="154" y="-810" font-family="Helvetica,sans-Serif" font-size="10.00">OmniOGL::BlockArray</text>
<text text-anchor="middle" x="203" y="-799" font-family="Helvetica,sans-Serif" font-size="10.00">::UpdateVertices</text>
</a>
</g>
</g>
<!-- Node1&#45;&gt;Node27 -->
<g id="edge30" class="edge"><title>Node1&#45;&gt;Node27</title>
<path fill="none" stroke="midnightblue" d="M47.9827,-439.602C55.1111,-506.549 81.4078,-724.872 126,-777 131.44,-783.36 138.41,-788.382 145.915,-792.344"/>
<polygon fill="midnightblue" stroke="midnightblue" points="51.4545,-439.149 46.9381,-429.565 44.4921,-439.873 51.4545,-439.149"/>
</g>
<!-- Node29 -->
<g id="node29" class="node"><title>Node29</title>
<g id="a_node29"><a xlink:href="class_omni_o_g_l_1_1_group.html#a6e21fa431b1caaadbb01011b8bd64ef9" target="_top" xlink:title="The sole constructor for the Group class which requires a shared pointer to a RenObj (or one of its d...">
<polygon fill="white" stroke="black" points="140.5,-98.5 140.5,-117.5 265.5,-117.5 265.5,-98.5 140.5,-98.5"/>
<text text-anchor="middle" x="203" y="-105.5" font-family="Helvetica,sans-Serif" font-size="10.00">OmniOGL::Group::Group</text>
</a>
</g>
</g>
<!-- Node1&#45;&gt;Node29 -->
<g id="edge33" class="edge"><title>Node1&#45;&gt;Node29</title>
<path fill="none" stroke="midnightblue" d="M45.1628,-399.952C44.1213,-347.375 48.9041,-204.322 126,-128 130.363,-123.681 135.541,-120.262 141.112,-117.56"/>
<polygon fill="midnightblue" stroke="midnightblue" points="41.6736,-400.369 45.4703,-410.26 48.6705,-400.161 41.6736,-400.369"/>
</g>
<!-- Node12 -->
<g id="node12" class="node"><title>Node12</title>
<g id="a_node12"><a xlink:href="class_omni_o_g_l_1_1_group.html#a3ed0d1f33c3001ac2c6f0f86144d71ab" target="_top" xlink:title="The assignment operator method which is responsible for copying the data of one instance over to the ...">
<polygon fill="white" stroke="black" points="330,-403.5 330,-422.5 470,-422.5 470,-403.5 330,-403.5"/>
<text text-anchor="middle" x="400" y="-410.5" font-family="Helvetica,sans-Serif" font-size="10.00">OmniOGL::Group::operator=</text>
</a>
</g>
</g>
<!-- Node1&#45;&gt;Node12 -->
<g id="edge34" class="edge"><title>Node1&#45;&gt;Node12</title>
<path fill="none" stroke="midnightblue" d="M88.2268,-431.97C100.323,-434.868 113.594,-437.547 126,-439 193.98,-446.962 211.951,-446.347 280,-439 295.19,-437.36 331.147,-429.288 359.586,-422.567"/>
<polygon fill="midnightblue" stroke="midnightblue" points="88.9383,-428.54 78.3876,-429.507 87.2382,-435.33 88.9383,-428.54"/>
</g>
<!-- Node30 -->
<g id="node30" class="node"><title>Node30</title>
<g id="a_node30"><a xlink:href="class_omni_o_g_l_1_1_group.html#a9dcdbfb8c49117647880ae13d8e051bc" target="_top" xlink:title="Adds a specified number of &quot;cloned&quot; objects to the Group which will be differ by scale, rotation, and translation/location. The scale, rotation, and translation for each object is determined randomly but within a range specified by members of this class. If no parameter is passed to this method then it will generate one object by default. Group::SetScaleRanges(), Group::SetRotationRanges(), Group::SetTranslationRanges(), Group::AddInstance()">
<polygon fill="white" stroke="black" points="127,-49 127,-79 279,-79 279,-49 127,-49"/>
<text text-anchor="start" x="135" y="-67" font-family="Helvetica,sans-Serif" font-size="10.00">OmniOGL::Group::AddRandom</text>
<text text-anchor="middle" x="203" y="-56" font-family="Helvetica,sans-Serif" font-size="10.00">Instances</text>
</a>
</g>
</g>
<!-- Node1&#45;&gt;Node30 -->
<g id="edge35" class="edge"><title>Node1&#45;&gt;Node30</title>
<path fill="none" stroke="midnightblue" d="M48.2239,-400.501C55.8678,-336.707 82.9863,-135.631 126,-89 129.579,-85.1203 133.77,-81.8416 138.312,-79.0709"/>
<polygon fill="midnightblue" stroke="midnightblue" points="44.7465,-400.105 47.0584,-410.444 51.6989,-400.92 44.7465,-400.105"/>
</g>
<!-- Node31 -->
<g id="node31" class="node"><title>Node31</title>
<g id="a_node31"><a xlink:href="class_omni_o_g_l_1_1_section_collection.html#a8ce8d4ffbeab35bf911fb1b473cf73f2" target="_top" xlink:title="OmniOGL::SectionCollection\l::SectionCollection">
<polygon fill="white" stroke="black" points="132,-0 132,-30 274,-30 274,-0 132,-0"/>
<text text-anchor="start" x="140" y="-18" font-family="Helvetica,sans-Serif" font-size="10.00">OmniOGL::SectionCollection</text>
<text text-anchor="middle" x="203" y="-7" font-family="Helvetica,sans-Serif" font-size="10.00">::SectionCollection</text>
</a>
</g>
</g>
<!-- Node1&#45;&gt;Node31 -->
<g id="edge36" class="edge"><title>Node1&#45;&gt;Node31</title>
<path fill="none" stroke="midnightblue" d="M47.5444,-400.338C53.4342,-330.183 76.6823,-93.4541 126,-39 129.065,-35.6156 132.603,-32.7049 136.441,-30.2021"/>
<polygon fill="midnightblue" stroke="midnightblue" points="44.0446,-400.194 46.7206,-410.445 51.0214,-400.763 44.0446,-400.194"/>
</g>
<!-- Node3 -->
<g id="node3" class="node"><title>Node3</title>
<g id="a_node3"><a xlink:href="_exec_8cpp.html#a66e65252a6985e382838442f280f46ba" target="_top" xlink:title="WinMain">
<polygon fill="white" stroke="black" points="684.5,-756.5 684.5,-775.5 739.5,-775.5 739.5,-756.5 684.5,-756.5"/>
<text text-anchor="middle" x="712" y="-763.5" font-family="Helvetica,sans-Serif" font-size="10.00">WinMain</text>
</a>
</g>
</g>
<!-- Node2&#45;&gt;Node3 -->
<g id="edge2" class="edge"><title>Node2&#45;&gt;Node3</title>
<path fill="none" stroke="midnightblue" d="M635.414,-748.003C652.123,-751.982 670.064,-756.253 684.271,-759.636"/>
<polygon fill="midnightblue" stroke="midnightblue" points="635.752,-744.486 625.214,-745.575 634.131,-751.296 635.752,-744.486"/>
</g>
<!-- Node6 -->
<g id="node6" class="node"><title>Node6</title>
<g id="a_node6"><a xlink:href="class_omni_o_g_l_1_1_blender_obj.html#adaa4f366633bf3f03e0712ce346b6960" target="_top" xlink:title="The assignment operator method. Since the BlenderObj class has no unique members this method simply i...">
<polygon fill="white" stroke="black" points="343,-579 343,-609 457,-609 457,-579 343,-579"/>
<text text-anchor="start" x="351" y="-597" font-family="Helvetica,sans-Serif" font-size="10.00">OmniOGL::BlenderObj</text>
<text text-anchor="middle" x="400" y="-586" font-family="Helvetica,sans-Serif" font-size="10.00">::operator=</text>
</a>
</g>
</g>
<!-- Node5&#45;&gt;Node6 -->
<g id="edge5" class="edge"><title>Node5&#45;&gt;Node6</title>
<path fill="none" stroke="midnightblue" d="M286.235,-581.278C305.287,-583.427 325.137,-585.667 342.777,-587.657"/>
<polygon fill="midnightblue" stroke="midnightblue" points="286.386,-577.773 276.057,-580.129 285.601,-584.729 286.386,-577.773"/>
</g>
<!-- Node7 -->
<g id="node7" class="node"><title>Node7</title>
<g id="a_node7"><a xlink:href="class_omni_o_g_l_1_1_cube.html#a86352bb28ba6e31c2a1c995b30a3cd25" target="_top" xlink:title="The &quot;= operator&quot; for the Cube class. This method sets all of the Cube class members of one Cube to be...">
<polygon fill="white" stroke="black" points="332,-540.5 332,-559.5 468,-559.5 468,-540.5 332,-540.5"/>
<text text-anchor="middle" x="400" y="-547.5" font-family="Helvetica,sans-Serif" font-size="10.00">OmniOGL::Cube::operator=</text>
</a>
</g>
</g>
<!-- Node5&#45;&gt;Node7 -->
<g id="edge6" class="edge"><title>Node5&#45;&gt;Node7</title>
<path fill="none" stroke="midnightblue" d="M286.425,-562.701C301.543,-560.995 317.157,-559.234 331.764,-557.586"/>
<polygon fill="midnightblue" stroke="midnightblue" points="285.601,-559.271 276.057,-563.871 286.386,-566.227 285.601,-559.271"/>
</g>
<!-- Node8 -->
<g id="node8" class="node"><title>Node8</title>
<g id="a_node8"><a xlink:href="class_omni_o_g_l_1_1_floor.html#a2f9d6cc54ea9629077201252b2deac27" target="_top" xlink:title="Assignment operator method. This method is called whenever a Floor is on the left&#45;hand side of an &#39;=&#39;...">
<polygon fill="white" stroke="black" points="332.5,-677.5 332.5,-696.5 467.5,-696.5 467.5,-677.5 332.5,-677.5"/>
<text text-anchor="middle" x="400" y="-684.5" font-family="Helvetica,sans-Serif" font-size="10.00">OmniOGL::Floor::operator=</text>
</a>
</g>
</g>
<!-- Node5&#45;&gt;Node8 -->
<g id="edge7" class="edge"><title>Node5&#45;&gt;Node8</title>
<path fill="none" stroke="midnightblue" d="M273.427,-586.341C275.728,-587.754 277.929,-589.302 280,-591 308.904,-614.696 286.995,-643.428 316,-667 321.291,-671.3 327.361,-674.701 333.758,-677.386"/>
<polygon fill="midnightblue" stroke="midnightblue" points="274.625,-583.02 264.135,-581.537 271.411,-589.238 274.625,-583.02"/>
</g>
<!-- Node5&#45;&gt;Node9 -->
<g id="edge8" class="edge"><title>Node5&#45;&gt;Node9</title>
<path fill="none" stroke="midnightblue" d="M247.298,-559.441C258.081,-556.009 269.545,-552.098 280,-548 296.474,-541.543 299.483,-537.347 316,-531 325.131,-527.491 334.976,-524.153 344.584,-521.124"/>
<polygon fill="midnightblue" stroke="midnightblue" points="246.143,-556.135 237.636,-562.449 248.224,-562.818 246.143,-556.135"/>
</g>
<!-- Node10 -->
<g id="node10" class="node"><title>Node10</title>
<g id="a_node10"><a xlink:href="class_omni_o_g_l_1_1_line_strip.html#a16bb6a0a3573bdd448482cf67f983e6e" target="_top" xlink:title="The assignment operator method which is responsible for copying the data of one instance over to the ...">
<polygon fill="white" stroke="black" points="348,-628 348,-658 452,-658 452,-628 348,-628"/>
<text text-anchor="start" x="356" y="-646" font-family="Helvetica,sans-Serif" font-size="10.00">OmniOGL::LineStrip</text>
<text text-anchor="middle" x="400" y="-635" font-family="Helvetica,sans-Serif" font-size="10.00">::operator=</text>
</a>
</g>
</g>
<!-- Node5&#45;&gt;Node10 -->
<g id="edge9" class="edge"><title>Node5&#45;&gt;Node10</title>
<path fill="none" stroke="midnightblue" d="M264.272,-584.674C269.692,-586.526 275.011,-588.625 280,-591 298.059,-599.595 298.151,-608.977 316,-618 325.939,-623.024 337.067,-627.232 347.866,-630.677"/>
<polygon fill="midnightblue" stroke="midnightblue" points="265.048,-581.25 254.459,-581.603 262.957,-587.93 265.048,-581.25"/>
</g>
<!-- Node5&#45;&gt;Node11 -->
<g id="edge10" class="edge"><title>Node5&#45;&gt;Node11</title>
<path fill="none" stroke="midnightblue" d="M223.612,-555.918C254.341,-530.767 310.881,-484.696 316,-482 324.389,-477.582 333.675,-473.825 342.91,-470.67"/>
<polygon fill="midnightblue" stroke="midnightblue" points="221.212,-553.36 215.694,-562.404 225.648,-558.775 221.212,-553.36"/>
</g>
<!-- Node5&#45;&gt;Node12 -->
<g id="edge11" class="edge"><title>Node5&#45;&gt;Node12</title>
<path fill="none" stroke="midnightblue" d="M217.311,-554.208C244.118,-518.571 303.147,-441.139 316,-433 322.887,-428.639 330.646,-425.228 338.585,-422.561"/>
<polygon fill="midnightblue" stroke="midnightblue" points="214.441,-552.201 211.238,-562.3 220.04,-556.403 214.441,-552.201"/>
</g>
<!-- Node15 -->
<g id="node15" class="node"><title>Node15</title>
<g id="a_node15"><a xlink:href="_exec_8cpp.html#a38c5e7def3be6ea702581ee4a92b9cc0" target="_top" xlink:title="render">
<polygon fill="white" stroke="black" points="562,-786.5 562,-805.5 606,-805.5 606,-786.5 562,-786.5"/>
<text text-anchor="middle" x="584" y="-793.5" font-family="Helvetica,sans-Serif" font-size="10.00">render</text>
</a>
</g>
</g>
<!-- Node14&#45;&gt;Node15 -->
<g id="edge14" class="edge"><title>Node14&#45;&gt;Node15</title>
<path fill="none" stroke="midnightblue" d="M463.534,-774.339C497.594,-780.514 537.57,-787.763 561.562,-792.113"/>
<polygon fill="midnightblue" stroke="midnightblue" points="464.106,-770.885 453.642,-772.545 462.857,-777.773 464.106,-770.885"/>
</g>
<!-- Node15&#45;&gt;Node3 -->
<g id="edge15" class="edge"><title>Node15&#45;&gt;Node3</title>
<path fill="none" stroke="midnightblue" d="M616.061,-788.604C636.94,-783.633 664.183,-777.147 684.128,-772.398"/>
<polygon fill="midnightblue" stroke="midnightblue" points="615.007,-785.258 606.09,-790.979 616.628,-792.067 615.007,-785.258"/>
</g>
<!-- Node20&#45;&gt;Node15 -->
<g id="edge22" class="edge"><title>Node20&#45;&gt;Node15</title>
<path fill="none" stroke="midnightblue" d="M462.379,-837.869C469.681,-835.606 477.018,-833.284 484,-831 511.029,-822.157 541.879,-811.095 561.856,-803.801"/>
<polygon fill="midnightblue" stroke="midnightblue" points="461.011,-834.627 452.478,-840.908 463.065,-841.319 461.011,-834.627"/>
</g>
<!-- Node22 -->
<g id="node22" class="node"><title>Node22</title>
<g id="a_node22"><a xlink:href="class_omni_o_g_l_1_1_voxel.html#a612f60e83446d91e456002ec9df2e4b4" target="_top" xlink:title="A method which takes a LineStrip as a parameter and adds the 12 line segments which represent the edg...">
<polygon fill="white" stroke="black" points="319.5,-235.5 319.5,-254.5 480.5,-254.5 480.5,-235.5 319.5,-235.5"/>
<text text-anchor="middle" x="400" y="-242.5" font-family="Helvetica,sans-Serif" font-size="10.00">OmniOGL::Voxel::AddCubeMesh</text>
</a>
</g>
</g>
<!-- Node21&#45;&gt;Node22 -->
<g id="edge24" class="edge"><title>Node21&#45;&gt;Node22</title>
<path fill="none" stroke="midnightblue" d="M265.102,-214.787C294.856,-221.501 329.89,-229.406 356.658,-235.446"/>
<polygon fill="midnightblue" stroke="midnightblue" points="265.759,-211.347 255.234,-212.56 264.218,-218.176 265.759,-211.347"/>
</g>
<!-- Node23 -->
<g id="node23" class="node"><title>Node23</title>
<g id="a_node23"><a xlink:href="class_omni_o_g_l_1_1_block_array.html#ad00adebf2f11e675cfe560d9862a4ebe" target="_top" xlink:title="Processes the normals stored in this class&#39;s members and converts all normal lines into a single Line...">
<polygon fill="white" stroke="black" points="343,-186 343,-216 457,-216 457,-186 343,-186"/>
<text text-anchor="start" x="351" y="-204" font-family="Helvetica,sans-Serif" font-size="10.00">OmniOGL::BlockArray</text>
<text text-anchor="middle" x="400" y="-193" font-family="Helvetica,sans-Serif" font-size="10.00">::GetNormals</text>
</a>
</g>
</g>
<!-- Node21&#45;&gt;Node23 -->
<g id="edge25" class="edge"><title>Node21&#45;&gt;Node23</title>
<path fill="none" stroke="midnightblue" d="M265.281,-201C290.144,-201 318.669,-201 342.97,-201"/>
<polygon fill="midnightblue" stroke="midnightblue" points="265.234,-197.5 255.234,-201 265.234,-204.5 265.234,-197.5"/>
</g>
<!-- Node24 -->
<g id="node24" class="node"><title>Node24</title>
<g id="a_node24"><a xlink:href="class_omni_o_g_l_1_1_section_collection.html#abe45275bef4b3ae221ccba89da393359" target="_top" xlink:title="OmniOGL::SectionCollection\l::GetGridlines">
<polygon fill="white" stroke="black" points="329,-137 329,-167 471,-167 471,-137 329,-137"/>
<text text-anchor="start" x="337" y="-155" font-family="Helvetica,sans-Serif" font-size="10.00">OmniOGL::SectionCollection</text>
<text text-anchor="middle" x="400" y="-144" font-family="Helvetica,sans-Serif" font-size="10.00">::GetGridlines</text>
</a>
</g>
</g>
<!-- Node21&#45;&gt;Node24 -->
<g id="edge26" class="edge"><title>Node21&#45;&gt;Node24</title>
<path fill="none" stroke="midnightblue" d="M265.125,-185.641C288.723,-179.711 315.639,-172.947 339.119,-167.047"/>
<polygon fill="midnightblue" stroke="midnightblue" points="264.079,-182.294 255.234,-188.126 265.785,-189.083 264.079,-182.294"/>
</g>
<!-- Node25 -->
<g id="node25" class="node"><title>Node25</title>
<g id="a_node25"><a xlink:href="class_omni_o_g_l_1_1_scene.html#a8601c13e69f3269928209f1ffdf2584a" target="_top" xlink:title="The constructor for the Scene class. This is a fairly busy constructor since it&#39;s responsible for ini...">
<polygon fill="white" stroke="black" points="520,-142.5 520,-161.5 648,-161.5 648,-142.5 520,-142.5"/>
<text text-anchor="middle" x="584" y="-149.5" font-family="Helvetica,sans-Serif" font-size="10.00">OmniOGL::Scene::Scene</text>
</a>
</g>
</g>
<!-- Node24&#45;&gt;Node25 -->
<g id="edge27" class="edge"><title>Node24&#45;&gt;Node25</title>
<path fill="none" stroke="midnightblue" d="M481.346,-152C494.218,-152 507.377,-152 519.776,-152"/>
<polygon fill="midnightblue" stroke="midnightblue" points="481.106,-148.5 471.106,-152 481.106,-155.5 481.106,-148.5"/>
</g>
<!-- Node28 -->
<g id="node28" class="node"><title>Node28</title>
<g id="a_node28"><a xlink:href="class_omni_o_g_l_1_1_voxel_field.html#af35e1fbb4908ffbe639962bce40c36a4" target="_top" xlink:title="The core method of this class which initializes all voxels and populates a given BlockArray with the ...">
<polygon fill="white" stroke="black" points="344,-792 344,-822 456,-822 456,-792 344,-792"/>
<text text-anchor="start" x="352" y="-810" font-family="Helvetica,sans-Serif" font-size="10.00">OmniOGL::VoxelField</text>
<text text-anchor="middle" x="400" y="-799" font-family="Helvetica,sans-Serif" font-size="10.00">::FillWithRandom</text>
</a>
</g>
</g>
<!-- Node27&#45;&gt;Node28 -->
<g id="edge31" class="edge"><title>Node27&#45;&gt;Node28</title>
<path fill="none" stroke="midnightblue" d="M270.225,-807C294.206,-807 321.01,-807 343.928,-807"/>
<polygon fill="midnightblue" stroke="midnightblue" points="270.14,-803.5 260.14,-807 270.14,-810.5 270.14,-803.5"/>
</g>
<!-- Node28&#45;&gt;Node15 -->
<g id="edge32" class="edge"><title>Node28&#45;&gt;Node15</title>
<path fill="none" stroke="midnightblue" d="M466.312,-803.053C499.813,-801.028 538.373,-798.697 561.702,-797.287"/>
<polygon fill="midnightblue" stroke="midnightblue" points="465.871,-799.573 456.1,-803.67 466.293,-806.56 465.871,-799.573"/>
</g>
</g>
</svg>
        <g id="navigator" transform="translate(0 0)" fill="#404254">
                <rect fill="#f2f5e9" fill-opacity="0.5" stroke="#606060" stroke-width=".5" x="0" y="0" width="60" height="60"/>
                <use id="zoomplus" xlink:href="#zoomPlus" x="17" y="9" onmousedown="handleZoom(evt,'in')"/>
                <use id="zoomminus" xlink:href="#zoomMin" x="42" y="9" onmousedown="handleZoom(evt,'out')"/>
                <use id="reset" xlink:href="#resetDef" x="30" y="36" onmousedown="handleReset()"/>
                <g id="arrowUp" xlink:href="#dirArrow" transform="translate(30 24)" onmousedown="handlePan(0,-1)">
                  <use xlink:href="#rim" fill="#404040">
                        <set attributeName="fill" to="#808080" begin="arrowUp.mouseover" end="arrowUp.mouseout"/>
                  </use>
                  <path fill="none" stroke="white" stroke-width="1.5" d="M0,-3.0v7 M-2.5,-0.5L0,-3.0L2.5,-0.5"/>
                </g>
                <g id="arrowRight" xlink:href="#dirArrow" transform="rotate(90) translate(36 -43)" onmousedown="handlePan(1,0)">
                  <use xlink:href="#rim" fill="#404040">
                        <set attributeName="fill" to="#808080" begin="arrowRight.mouseover" end="arrowRight.mouseout"/>
                  </use>
                  <path fill="none" stroke="white" stroke-width="1.5" d="M0,-3.0v7 M-2.5,-0.5L0,-3.0L2.5,-0.5"/>
                </g>
                <g id="arrowDown" xlink:href="#dirArrow" transform="rotate(180) translate(-30 -48)" onmousedown="handlePan(0,1)">
                  <use xlink:href="#rim" fill="#404040">
                        <set attributeName="fill" to="#808080" begin="arrowDown.mouseover" end="arrowDown.mouseout"/>
                  </use>
                  <path fill="none" stroke="white" stroke-width="1.5" d="M0,-3.0v7 M-2.5,-0.5L0,-3.0L2.5,-0.5"/>
                </g>
                <g id="arrowLeft" xlink:href="#dirArrow" transform="rotate(270) translate(-36 17)" onmousedown="handlePan(-1,0)">
                  <use xlink:href="#rim" fill="#404040">
                        <set attributeName="fill" to="#808080" begin="arrowLeft.mouseover" end="arrowLeft.mouseout"/>
                  </use>
                  <path fill="none" stroke="white" stroke-width="1.5" d="M0,-3.0v7 M-2.5,-0.5L0,-3.0L2.5,-0.5"/>
                </g>
        </g>
        <svg viewBox="0 0 15 15" width="100%" height="30px" preserveAspectRatio="xMaxYMin meet">
         <g id="arrow_out" transform="scale(0.3 0.3)">
          <a xlink:href="namespace_omni_o_g_l_a80cd48382ee4083e78ba3431e570b82c_icgraph_org.svg" target="_base">
           <rect id="button" ry="5" rx="5" y="6" x="6" height="38" width="38"
                fill="#f2f5e9" fill-opacity="0.5" stroke="#606060" stroke-width="1.0"/>
           <path id="arrow"
             d="M 11.500037,31.436501 C 11.940474,20.09759 22.043105,11.32322 32.158766,21.979434 L 37.068811,17.246167 C 37.068811,17.246167 37.088388,32 37.088388,32 L 22.160133,31.978069 C 22.160133,31.978069 26.997745,27.140456 26.997745,27.140456 C 18.528582,18.264221 13.291696,25.230495 11.500037,31.436501 z"
             style="fill:#404040;"/>
          </a>
         </g>
        </svg>
</svg>
