<?xml version="1.0" encoding="UTF-8" standalone="no"?>
<!DOCTYPE svg PUBLIC "-//W3C//DTD SVG 1.1//EN"
 "http://www.w3.org/Graphics/SVG/1.1/DTD/svg11.dtd">
<!-- Generated by graphviz version 2.30.1 (20130214.1330)
 -->
<!-- Title: OmniOGL::CaptureInput Pages: 1 -->
<svg width="302pt" height="28pt"
 viewBox="0.00 0.00 302.00 28.00" xmlns="http://www.w3.org/2000/svg" xmlns:xlink="http://www.w3.org/1999/xlink">
<g id="graph0" class="graph" transform="scale(1 1) rotate(0) translate(4 24)">
<title>OmniOGL::CaptureInput</title>
<polygon fill="white" stroke="white" points="-4,5 -4,-24 299,-24 299,5 -4,5"/>
<!-- Node1 -->
<g id="node1" class="node"><title>Node1</title>
<polygon fill="#bfbfbf" stroke="black" points="0.5,-0.5 0.5,-19.5 121.5,-19.5 121.5,-0.5 0.5,-0.5"/>
<text text-anchor="middle" x="61" y="-7.5" font-family="Helvetica,sans-Serif" font-size="10.00">OmniOGL::CaptureInput</text>
</g>
<!-- Node2 -->
<g id="node2" class="node"><title>Node2</title>
<g id="a_node2"><a xlink:href="_exec_8cpp.html#a133aba9fe60f6d354d05d69e0bbd31a7" target="_top" xlink:title="render">
<polygon fill="white" stroke="black" points="158,-0.5 158,-19.5 202,-19.5 202,-0.5 158,-0.5"/>
<text text-anchor="middle" x="180" y="-7.5" font-family="Helvetica,sans-Serif" font-size="10.00">render</text>
</a>
</g>
</g>
<!-- Node1&#45;&gt;Node2 -->
<g id="edge1" class="edge"><title>Node1&#45;&gt;Node2</title>
<path fill="none" stroke="midnightblue" d="M131.599,-10C141.163,-10 150.317,-10 157.986,-10"/>
<polygon fill="midnightblue" stroke="midnightblue" points="131.528,-6.5001 121.528,-10 131.528,-13.5001 131.528,-6.5001"/>
</g>
<!-- Node3 -->
<g id="node3" class="node"><title>Node3</title>
<g id="a_node3"><a xlink:href="_exec_8cpp.html#a66e65252a6985e382838442f280f46ba" target="_top" xlink:title="WinMain">
<polygon fill="white" stroke="black" points="238.5,-0.5 238.5,-19.5 293.5,-19.5 293.5,-0.5 238.5,-0.5"/>
<text text-anchor="middle" x="266" y="-7.5" font-family="Helvetica,sans-Serif" font-size="10.00">WinMain</text>
</a>
</g>
</g>
<!-- Node2&#45;&gt;Node3 -->
<g id="edge2" class="edge"><title>Node2&#45;&gt;Node3</title>
<path fill="none" stroke="midnightblue" d="M212.253,-10C220.845,-10 230.081,-10 238.386,-10"/>
<polygon fill="midnightblue" stroke="midnightblue" points="212.197,-6.5001 202.197,-10 212.197,-13.5001 212.197,-6.5001"/>
</g>
</g>
</svg>
