<?xml version="1.0" encoding="UTF-8" standalone="no"?>
<!DOCTYPE svg PUBLIC "-//W3C//DTD SVG 1.1//EN"
 "http://www.w3.org/Graphics/SVG/1.1/DTD/svg11.dtd">
<!-- Generated by graphviz version 2.30.1 (20130214.1330)
 -->
<!-- Title: OmniOGL::RemoveNearObject Pages: 1 -->
<svg width="568pt" height="28pt"
 viewBox="0.00 0.00 568.00 28.00" xmlns="http://www.w3.org/2000/svg" xmlns:xlink="http://www.w3.org/1999/xlink">
<g id="graph0" class="graph" transform="scale(1 1) rotate(0) translate(4 24)">
<title>OmniOGL::RemoveNearObject</title>
<polygon fill="white" stroke="white" points="-4,5 -4,-24 565,-24 565,5 -4,5"/>
<!-- Node1 -->
<g id="node1" class="node"><title>Node1</title>
<polygon fill="#bfbfbf" stroke="black" points="0.5,-0.5 0.5,-19.5 149.5,-19.5 149.5,-0.5 0.5,-0.5"/>
<text text-anchor="middle" x="75" y="-7.5" font-family="Helvetica,sans-Serif" font-size="10.00">OmniOGL::RemoveNearObject</text>
</g>
<!-- Node2 -->
<g id="node2" class="node"><title>Node2</title>
<g id="a_node2"><a xlink:href="namespace_omni_o_g_l.html#a9a2525b1056458096e98c5608ed2f904" target="_top" xlink:title="An event handler for keyboard events which is passed to glfwSetKeyCallback() as a means of handling k...">
<polygon fill="white" stroke="black" points="186.5,-0.5 186.5,-19.5 305.5,-19.5 305.5,-0.5 186.5,-0.5"/>
<text text-anchor="middle" x="246" y="-7.5" font-family="Helvetica,sans-Serif" font-size="10.00">OmniOGL::evnt_Keybrd</text>
</a>
</g>
</g>
<!-- Node1&#45;&gt;Node2 -->
<g id="edge1" class="edge"><title>Node1&#45;&gt;Node2</title>
<path fill="none" stroke="midnightblue" d="M159.752,-10C168.736,-10 177.732,-10 186.333,-10"/>
<polygon fill="midnightblue" stroke="midnightblue" points="159.634,-6.5001 149.634,-10 159.634,-13.5001 159.634,-6.5001"/>
</g>
<!-- Node3 -->
<g id="node3" class="node"><title>Node3</title>
<g id="a_node3"><a xlink:href="namespace_omni_o_g_l.html#a03177ea10e60c8e0edb883425d0f84a4" target="_top" xlink:title="OmniOGL::MakeWindow">
<polygon fill="white" stroke="black" points="342.5,-0.5 342.5,-19.5 467.5,-19.5 467.5,-0.5 342.5,-0.5"/>
<text text-anchor="middle" x="405" y="-7.5" font-family="Helvetica,sans-Serif" font-size="10.00">OmniOGL::MakeWindow</text>
</a>
</g>
</g>
<!-- Node2&#45;&gt;Node3 -->
<g id="edge2" class="edge"><title>Node2&#45;&gt;Node3</title>
<path fill="none" stroke="midnightblue" d="M316.092,-10C324.852,-10 333.77,-10 342.403,-10"/>
<polygon fill="midnightblue" stroke="midnightblue" points="315.908,-6.5001 305.908,-10 315.908,-13.5001 315.908,-6.5001"/>
</g>
<!-- Node4 -->
<g id="node4" class="node"><title>Node4</title>
<g id="a_node4"><a xlink:href="_exec_8cpp.html#a66e65252a6985e382838442f280f46ba" target="_top" xlink:title="WinMain">
<polygon fill="white" stroke="black" points="504.5,-0.5 504.5,-19.5 559.5,-19.5 559.5,-0.5 504.5,-0.5"/>
<text text-anchor="middle" x="532" y="-7.5" font-family="Helvetica,sans-Serif" font-size="10.00">WinMain</text>
</a>
</g>
</g>
<!-- Node3&#45;&gt;Node4 -->
<g id="edge3" class="edge"><title>Node3&#45;&gt;Node4</title>
<path fill="none" stroke="midnightblue" d="M478.028,-10C487.416,-10 496.51,-10 504.436,-10"/>
<polygon fill="midnightblue" stroke="midnightblue" points="477.768,-6.5001 467.768,-10 477.768,-13.5001 477.768,-6.5001"/>
</g>
</g>
</svg>
