<?xml version="1.0" encoding="UTF-8" standalone="no"?>
<!DOCTYPE svg PUBLIC "-//W3C//DTD SVG 1.1//EN"
 "http://www.w3.org/Graphics/SVG/1.1/DTD/svg11.dtd">
<!-- Generated by graphviz version 2.30.1 (20130214.1330)
 -->
<!-- Title: OmniOGL::evnt_MouseMov Pages: 1 -->
<svg width="398pt" height="28pt"
 viewBox="0.00 0.00 398.00 28.00" xmlns="http://www.w3.org/2000/svg" xmlns:xlink="http://www.w3.org/1999/xlink">
<g id="graph0" class="graph" transform="scale(1 1) rotate(0) translate(4 24)">
<title>OmniOGL::evnt_MouseMov</title>
<polygon fill="white" stroke="white" points="-4,5 -4,-24 395,-24 395,5 -4,5"/>
<!-- Node1 -->
<g id="node1" class="node"><title>Node1</title>
<polygon fill="#bfbfbf" stroke="black" points="0.5,-0.5 0.5,-19.5 135.5,-19.5 135.5,-0.5 0.5,-0.5"/>
<text text-anchor="middle" x="68" y="-7.5" font-family="Helvetica,sans-Serif" font-size="10.00">OmniOGL::evnt_MouseMov</text>
</g>
<!-- Node2 -->
<g id="node2" class="node"><title>Node2</title>
<g id="a_node2"><a xlink:href="namespace_omni_o_g_l.html#a03177ea10e60c8e0edb883425d0f84a4" target="_top" xlink:title="OmniOGL::MakeWindow">
<polygon fill="white" stroke="black" points="172.5,-0.5 172.5,-19.5 297.5,-19.5 297.5,-0.5 172.5,-0.5"/>
<text text-anchor="middle" x="235" y="-7.5" font-family="Helvetica,sans-Serif" font-size="10.00">OmniOGL::MakeWindow</text>
</a>
</g>
</g>
<!-- Node1&#45;&gt;Node2 -->
<g id="edge1" class="edge"><title>Node1&#45;&gt;Node2</title>
<path fill="none" stroke="midnightblue" d="M145.699,-10C154.666,-10 163.726,-10 172.45,-10"/>
<polygon fill="midnightblue" stroke="midnightblue" points="145.636,-6.5001 135.636,-10 145.636,-13.5001 145.636,-6.5001"/>
</g>
<!-- Node3 -->
<g id="node3" class="node"><title>Node3</title>
<g id="a_node3"><a xlink:href="_exec_8cpp.html#a66e65252a6985e382838442f280f46ba" target="_top" xlink:title="WinMain">
<polygon fill="white" stroke="black" points="334.5,-0.5 334.5,-19.5 389.5,-19.5 389.5,-0.5 334.5,-0.5"/>
<text text-anchor="middle" x="362" y="-7.5" font-family="Helvetica,sans-Serif" font-size="10.00">WinMain</text>
</a>
</g>
</g>
<!-- Node2&#45;&gt;Node3 -->
<g id="edge2" class="edge"><title>Node2&#45;&gt;Node3</title>
<path fill="none" stroke="midnightblue" d="M308.028,-10C317.416,-10 326.51,-10 334.436,-10"/>
<polygon fill="midnightblue" stroke="midnightblue" points="307.768,-6.5001 297.768,-10 307.768,-13.5001 307.768,-6.5001"/>
</g>
</g>
</svg>
