<?xml version="1.0" encoding="UTF-8" standalone="no"?>
<!DOCTYPE svg PUBLIC "-//W3C//DTD SVG 1.1//EN"
 "http://www.w3.org/Graphics/SVG/1.1/DTD/svg11.dtd">
<!-- Generated by graphviz version 2.30.1 (20130214.1330)
 -->
<!-- Title: OmniOGL::_Valid Pages: 1 -->
<!--zoomable 811 -->
<svg id="main" version="1.1" xmlns="http://www.w3.org/2000/svg" xmlns:xlink="http://www.w3.org/1999/xlink" xml:space="preserve" onload="init(evt)">
        <defs>
                <circle id="rim" cx="0" cy="0" r="7"/>
                <circle id="rim2" cx="0" cy="0" r="3.5"/>
                <g id="zoomPlus">
                        <use xlink:href="#rim" fill="#404040">
                                <set attributeName="fill" to="#808080" begin="zoomplus.mouseover" end="zoomplus.mouseout"/>
                        </use>
                        <path d="M-4,0h8M0,-4v8" fill="none" stroke="white" stroke-width="1.5" pointer-events="none"/>
                </g>
                <g id="zoomMin">
                        <use xlink:href="#rim" fill="#404040">
                                <set attributeName="fill" to="#808080" begin="zoomminus.mouseover" end="zoomminus.mouseout"/>
                        </use>
                        <path d="M-4,0h8" fill="none" stroke="white" stroke-width="1.5" pointer-events="none"/>
                </g>
                <g id="dirArrow">
                        <path fill="none" stroke="white" stroke-width="1.5" d="M0,-3.0v7 M-2.5,-0.5L0,-3.0L2.5,-0.5"/>
                </g>
               <g id="resetDef">
                       <use xlink:href="#rim2" fill="#404040">
                               <set attributeName="fill" to="#808080" begin="reset.mouseover" end="reset.mouseout"/>
                       </use>
               </g>
        </defs>

<script type="text/javascript">
var viewWidth = 1034;
var viewHeight = 811;
var sectionId = 'dynsection-5';
</script>
<script xlink:href="svgpan.js"/>
<svg id="graph" class="graph">
<g id="viewport">
<title>OmniOGL::_Valid</title>
<polygon fill="white" stroke="white" points="-4,5 -4,-806.706 1031,-806.706 1031,5 -4,5"/>
<!-- Node1 -->
<g id="node1" class="node"><title>Node1</title>
<polygon fill="#bfbfbf" stroke="black" points="0.5,-258.206 0.5,-277.206 93.5,-277.206 93.5,-258.206 0.5,-258.206"/>
<text text-anchor="middle" x="47" y="-265.206" font-family="Helvetica,sans-Serif" font-size="10.00">OmniOGL::_Valid</text>
</g>
<!-- Node2 -->
<g id="node2" class="node"><title>Node2</title>
<g id="a_node2"><a xlink:href="class_omni_o_g_l_1_1_ren_obj.html#a6d44159052e428be6591176edd86e885" target="_top" xlink:title="The copy constructor for the RenObj class. This class is responsible for initializing all of the RenO...">
<polygon fill="white" stroke="black" points="138.5,-641.206 138.5,-660.206 275.5,-660.206 275.5,-641.206 138.5,-641.206"/>
<text text-anchor="middle" x="207" y="-648.206" font-family="Helvetica,sans-Serif" font-size="10.00">OmniOGL::RenObj::RenObj</text>
</a>
</g>
</g>
<!-- Node1&#45;&gt;Node2 -->
<g id="edge1" class="edge"><title>Node1&#45;&gt;Node2</title>
<path fill="none" stroke="midnightblue" d="M49.7566,-287.469C56.2366,-355.938 81.0049,-581.55 130,-631.706 133.706,-635.5 138.048,-638.579 142.744,-641.073"/>
<polygon fill="midnightblue" stroke="midnightblue" points="53.2159,-286.865 48.8144,-277.228 46.2454,-287.507 53.2159,-286.865"/>
</g>
<!-- Node3 -->
<g id="node3" class="node"><title>Node3</title>
<g id="a_node3"><a xlink:href="class_omni_o_g_l_1_1_ren_obj.html#a0f76d1a329f2ed1ded9a87b1fdb70d19" target="_top" xlink:title="The &#39;=&#39; operator for the RenObj class. This method is called any time a derived class instance of a R...">
<polygon fill="white" stroke="black" points="134,-603.206 134,-622.206 280,-622.206 280,-603.206 134,-603.206"/>
<text text-anchor="middle" x="207" y="-610.206" font-family="Helvetica,sans-Serif" font-size="10.00">OmniOGL::RenObj::operator=</text>
</a>
</g>
</g>
<!-- Node1&#45;&gt;Node3 -->
<g id="edge2" class="edge"><title>Node1&#45;&gt;Node3</title>
<path fill="none" stroke="midnightblue" d="M54.1635,-287.418C66.539,-326.111 96.1415,-414.354 130,-484.706 152.191,-530.815 185.519,-582.169 199.482,-603.072"/>
<polygon fill="midnightblue" stroke="midnightblue" points="57.37,-285.951 51.0146,-277.474 50.6965,-288.064 57.37,-285.951"/>
</g>
<!-- Node11 -->
<g id="node11" class="node"><title>Node11</title>
<g id="a_node11"><a xlink:href="class_omni_o_g_l_1_1_ren_obj.html#a0a4218e288329f8e7b17081670948c9d" target="_top" xlink:title="This method attempts to handle all of the necessary OpenGL state changes in one place. The desired value of various states are stored as a local variable owned by the object. This method is called for each object each frame and simply sets each state to the position specified by the object.">
<polygon fill="white" stroke="black" points="138,-280.206 138,-299.206 276,-299.206 276,-280.206 138,-280.206"/>
<text text-anchor="middle" x="207" y="-287.206" font-family="Helvetica,sans-Serif" font-size="10.00">OmniOGL::RenObj::Prepare</text>
</a>
</g>
</g>
<!-- Node1&#45;&gt;Node11 -->
<g id="edge10" class="edge"><title>Node1&#45;&gt;Node11</title>
<path fill="none" stroke="midnightblue" d="M103.621,-275.45C114.658,-276.987 126.365,-278.617 137.767,-280.205"/>
<polygon fill="midnightblue" stroke="midnightblue" points="104.087,-271.982 93.7001,-274.069 103.122,-278.915 104.087,-271.982"/>
</g>
<!-- Node19 -->
<g id="node19" class="node"><title>Node19</title>
<g id="a_node19"><a xlink:href="class_omni_o_g_l_1_1_ren_obj.html#a69290eee0c84c3fa1448bfb852f20291" target="_top" xlink:title="A getter for determining whether the lighting calculations will be performed in the fragment shader a...">
<polygon fill="white" stroke="black" points="130,-356.706 130,-386.706 284,-386.706 284,-356.706 130,-356.706"/>
<text text-anchor="start" x="138" y="-374.706" font-family="Helvetica,sans-Serif" font-size="10.00">OmniOGL::RenObj::GetLighting</text>
<text text-anchor="middle" x="207" y="-363.706" font-family="Helvetica,sans-Serif" font-size="10.00">Enable</text>
</a>
</g>
</g>
<!-- Node1&#45;&gt;Node19 -->
<g id="edge18" class="edge"><title>Node1&#45;&gt;Node19</title>
<path fill="none" stroke="midnightblue" d="M62.0757,-285.297C77.1572,-303.08 102.644,-330.223 130,-346.706 136.306,-350.505 143.258,-353.803 150.318,-356.644"/>
<polygon fill="midnightblue" stroke="midnightblue" points="64.6177,-282.879 55.5454,-277.407 59.2251,-287.342 64.6177,-282.879"/>
</g>
<!-- Node20 -->
<g id="node20" class="node"><title>Node20</title>
<g id="a_node20"><a xlink:href="class_omni_o_g_l_1_1_ren_obj.html#af9a25f349be03a23bbb5fd0760a4a178" target="_top" xlink:title="A setter which takes three floats as a parameter and derives three float arrays of size four to be us...">
<polygon fill="white" stroke="black" points="130.5,-318.206 130.5,-337.206 283.5,-337.206 283.5,-318.206 130.5,-318.206"/>
<text text-anchor="middle" x="207" y="-325.206" font-family="Helvetica,sans-Serif" font-size="10.00">OmniOGL::RenObj::SetLighting</text>
</a>
</g>
</g>
<!-- Node1&#45;&gt;Node20 -->
<g id="edge19" class="edge"><title>Node1&#45;&gt;Node20</title>
<path fill="none" stroke="midnightblue" d="M73.6285,-282.342C89.4808,-290.93 110.468,-301.48 130,-308.706 139.822,-312.339 150.611,-315.506 160.897,-318.158"/>
<polygon fill="midnightblue" stroke="midnightblue" points="74.9272,-279.061 64.4806,-277.295 71.5458,-285.19 74.9272,-279.061"/>
</g>
<!-- Node21 -->
<g id="node21" class="node"><title>Node21</title>
<g id="a_node21"><a xlink:href="class_omni_o_g_l_1_1_ren_obj.html#afdabc2c84fb637c69116d103cab247bb" target="_top" xlink:title="OmniOGL::RenObj::EnableLighting">
<polygon fill="white" stroke="black" points="686,-139.206 686,-158.206 854,-158.206 854,-139.206 686,-139.206"/>
<text text-anchor="middle" x="770" y="-146.206" font-family="Helvetica,sans-Serif" font-size="10.00">OmniOGL::RenObj::EnableLighting</text>
</a>
</g>
</g>
<!-- Node1&#45;&gt;Node21 -->
<g id="edge20" class="edge"><title>Node1&#45;&gt;Node21</title>
<path fill="none" stroke="midnightblue" d="M69.7792,-252.367C85.7341,-241.86 108.303,-228.47 130,-220.706 230.382,-184.784 536.678,-162.385 685.748,-153.326"/>
<polygon fill="midnightblue" stroke="midnightblue" points="67.5351,-249.659 61.2061,-258.155 71.4523,-255.46 67.5351,-249.659"/>
</g>
<!-- Node24 -->
<g id="node24" class="node"><title>Node24</title>
<g id="a_node24"><a xlink:href="class_omni_o_g_l_1_1_text_overlay.html#a547a10b67bd38c07df4f953be5e55486" target="_top" xlink:title="The copy constructor for the TextOverlay class, invoked whenever the object is instantiated by copyin...">
<polygon fill="white" stroke="black" points="148.5,-230.706 148.5,-260.706 265.5,-260.706 265.5,-230.706 148.5,-230.706"/>
<text text-anchor="start" x="156.5" y="-248.706" font-family="Helvetica,sans-Serif" font-size="10.00">OmniOGL::TextOverlay</text>
<text text-anchor="middle" x="207" y="-237.706" font-family="Helvetica,sans-Serif" font-size="10.00">::TextOverlay</text>
</a>
</g>
</g>
<!-- Node1&#45;&gt;Node24 -->
<g id="edge23" class="edge"><title>Node1&#45;&gt;Node24</title>
<path fill="none" stroke="midnightblue" d="M103.945,-259.916C118.329,-257.913 133.829,-255.755 148.3,-253.74"/>
<polygon fill="midnightblue" stroke="midnightblue" points="103.122,-256.497 93.7001,-261.342 104.087,-263.43 103.122,-256.497"/>
</g>
<!-- Node7 -->
<g id="node7" class="node"><title>Node7</title>
<g id="a_node7"><a xlink:href="class_omni_o_g_l_1_1_text_overlay.html#aac511da2435b188ccb84ae6e1de1c7f0" target="_top" xlink:title="The assignment operator method for this class. This method is responsible for setting all of the memb...">
<polygon fill="white" stroke="black" points="332.5,-509.706 332.5,-539.706 449.5,-539.706 449.5,-509.706 332.5,-509.706"/>
<text text-anchor="start" x="340.5" y="-527.706" font-family="Helvetica,sans-Serif" font-size="10.00">OmniOGL::TextOverlay</text>
<text text-anchor="middle" x="391" y="-516.706" font-family="Helvetica,sans-Serif" font-size="10.00">::operator=</text>
</a>
</g>
</g>
<!-- Node1&#45;&gt;Node7 -->
<g id="edge24" class="edge"><title>Node1&#45;&gt;Node7</title>
<path fill="none" stroke="midnightblue" d="M56.3947,-286.679C69.1001,-313.67 95.4422,-363.452 130,-395.706 191.611,-453.209 283.693,-490.637 340.135,-509.677"/>
<polygon fill="midnightblue" stroke="midnightblue" points="59.5519,-285.167 52.2042,-277.534 53.1882,-288.083 59.5519,-285.167"/>
</g>
<!-- Node25 -->
<g id="node25" class="node"><title>Node25</title>
<g id="a_node25"><a xlink:href="class_omni_o_g_l_1_1_group.html#a6e21fa431b1caaadbb01011b8bd64ef9" target="_top" xlink:title="The sole constructor for the Group class which requires a shared pointer to a RenObj (or one of its d...">
<polygon fill="white" stroke="black" points="144.5,-154.206 144.5,-173.206 269.5,-173.206 269.5,-154.206 144.5,-154.206"/>
<text text-anchor="middle" x="207" y="-161.206" font-family="Helvetica,sans-Serif" font-size="10.00">OmniOGL::Group::Group</text>
</a>
</g>
</g>
<!-- Node1&#45;&gt;Node25 -->
<g id="edge25" class="edge"><title>Node1&#45;&gt;Node25</title>
<path fill="none" stroke="midnightblue" d="M61.7498,-250.104C76.729,-232.04 102.284,-204.3 130,-187.706 140.21,-181.593 152.137,-176.879 163.475,-173.314"/>
<polygon fill="midnightblue" stroke="midnightblue" points="58.8482,-248.126 55.2828,-258.103 64.2917,-252.527 58.8482,-248.126"/>
</g>
<!-- Node26 -->
<g id="node26" class="node"><title>Node26</title>
<g id="a_node26"><a xlink:href="class_omni_o_g_l_1_1_section_collection.html#a8eb741628a5957199c4c511be6e4f599" target="_top" xlink:title="OmniOGL::SectionCollection\l::UpdateCurrentSection">
<polygon fill="white" stroke="black" points="320,-110.706 320,-140.706 462,-140.706 462,-110.706 320,-110.706"/>
<text text-anchor="start" x="328" y="-128.706" font-family="Helvetica,sans-Serif" font-size="10.00">OmniOGL::SectionCollection</text>
<text text-anchor="middle" x="391" y="-117.706" font-family="Helvetica,sans-Serif" font-size="10.00">::UpdateCurrentSection</text>
</a>
</g>
</g>
<!-- Node1&#45;&gt;Node26 -->
<g id="edge26" class="edge"><title>Node1&#45;&gt;Node26</title>
<path fill="none" stroke="midnightblue" d="M54.5185,-248.609C65.2862,-220.348 89.698,-168.204 130,-144.706 187.475,-111.194 264.673,-109.904 319.992,-114.88"/>
<polygon fill="midnightblue" stroke="midnightblue" points="51.1733,-247.567 51.055,-258.161 57.7541,-249.953 51.1733,-247.567"/>
</g>
<!-- Node30 -->
<g id="node30" class="node"><title>Node30</title>
<g id="a_node30"><a xlink:href="class_omni_o_g_l_1_1_section_collection.html#aa4bab32a8d339d5a1e34d28b283768ff" target="_top" xlink:title="OmniOGL::SectionCollection\l::UpdateAdjacentSectionsArray">
<polygon fill="white" stroke="black" points="130.5,-66.7058 130.5,-96.7058 283.5,-96.7058 283.5,-66.7058 130.5,-66.7058"/>
<text text-anchor="start" x="138.5" y="-84.7058" font-family="Helvetica,sans-Serif" font-size="10.00">OmniOGL::SectionCollection</text>
<text text-anchor="middle" x="207" y="-73.7058" font-family="Helvetica,sans-Serif" font-size="10.00">::UpdateAdjacentSectionsArray</text>
</a>
</g>
</g>
<!-- Node1&#45;&gt;Node30 -->
<g id="edge31" class="edge"><title>Node1&#45;&gt;Node30</title>
<path fill="none" stroke="midnightblue" d="M53.2572,-248.548C63.0922,-216.089 87.2414,-150.079 130,-111.706 136.757,-105.642 144.885,-100.735 153.277,-96.7858"/>
<polygon fill="midnightblue" stroke="midnightblue" points="49.8874,-247.602 50.4644,-258.181 56.6106,-249.551 49.8874,-247.602"/>
</g>
<!-- Node32 -->
<g id="node32" class="node"><title>Node32</title>
<g id="a_node32"><a xlink:href="class_omni_o_g_l_1_1_scene.html#abac81957e4ffd51ad7f25cb265b5916a" target="_top" xlink:title="Adds a &quot;sound&quot; to the Scene which can be subject to 3D effects (the most common being panning and vol...">
<polygon fill="white" stroke="black" points="501.5,-28.2058 501.5,-47.2058 646.5,-47.2058 646.5,-28.2058 501.5,-28.2058"/>
<text text-anchor="middle" x="574" y="-35.2058" font-family="Helvetica,sans-Serif" font-size="10.00">OmniOGL::Scene::AddSound</text>
</a>
</g>
</g>
<!-- Node1&#45;&gt;Node32 -->
<g id="edge34" class="edge"><title>Node1&#45;&gt;Node32</title>
<path fill="none" stroke="midnightblue" d="M48.919,-247.885C52.1069,-204.689 66.3519,-102.289 130,-56.7058 257.205,34.3953 461.667,-7.18556 540.527,-28.1894"/>
<polygon fill="midnightblue" stroke="midnightblue" points="45.4197,-247.769 48.3019,-257.964 52.4066,-248.197 45.4197,-247.769"/>
</g>
<!-- Node4 -->
<g id="node4" class="node"><title>Node4</title>
<g id="a_node4"><a xlink:href="class_omni_o_g_l_1_1_blender_obj.html#adaa4f366633bf3f03e0712ce346b6960" target="_top" xlink:title="The assignment operator method. Since the BlenderObj class has no unique members this method simply i...">
<polygon fill="white" stroke="black" points="334,-772.706 334,-802.706 448,-802.706 448,-772.706 334,-772.706"/>
<text text-anchor="start" x="342" y="-790.706" font-family="Helvetica,sans-Serif" font-size="10.00">OmniOGL::BlenderObj</text>
<text text-anchor="middle" x="391" y="-779.706" font-family="Helvetica,sans-Serif" font-size="10.00">::operator=</text>
</a>
</g>
</g>
<!-- Node3&#45;&gt;Node4 -->
<g id="edge3" class="edge"><title>Node3&#45;&gt;Node4</title>
<path fill="none" stroke="midnightblue" d="M279.368,-627.727C280.992,-628.956 282.541,-630.28 284,-631.706 327.188,-673.903 278.931,-718.443 320,-762.706 323.95,-766.963 328.674,-770.496 333.778,-773.427"/>
<polygon fill="midnightblue" stroke="midnightblue" points="281.043,-624.647 270.703,-622.339 277.347,-630.592 281.043,-624.647"/>
</g>
<!-- Node5 -->
<g id="node5" class="node"><title>Node5</title>
<g id="a_node5"><a xlink:href="class_omni_o_g_l_1_1_cube.html#a86352bb28ba6e31c2a1c995b30a3cd25" target="_top" xlink:title="The &quot;= operator&quot; for the Cube class. This method sets all of the Cube class members of one Cube to be...">
<polygon fill="white" stroke="black" points="323,-734.206 323,-753.206 459,-753.206 459,-734.206 323,-734.206"/>
<text text-anchor="middle" x="391" y="-741.206" font-family="Helvetica,sans-Serif" font-size="10.00">OmniOGL::Cube::operator=</text>
</a>
</g>
</g>
<!-- Node3&#45;&gt;Node5 -->
<g id="edge4" class="edge"><title>Node3&#45;&gt;Node5</title>
<path fill="none" stroke="midnightblue" d="M278.348,-627.357C280.327,-628.687 282.219,-630.133 284,-631.706 317.227,-661.038 287.069,-695.041 320,-724.706 324.304,-728.583 329.321,-731.68 334.657,-734.152"/>
<polygon fill="midnightblue" stroke="midnightblue" points="279.62,-624.059 269.182,-622.24 276.207,-630.171 279.62,-624.059"/>
</g>
<!-- Node6 -->
<g id="node6" class="node"><title>Node6</title>
<g id="a_node6"><a xlink:href="class_omni_o_g_l_1_1_floor.html#a2f9d6cc54ea9629077201252b2deac27" target="_top" xlink:title="Assignment operator method. This method is called whenever a Floor is on the left&#45;hand side of an &#39;=&#39;...">
<polygon fill="white" stroke="black" points="323.5,-696.206 323.5,-715.206 458.5,-715.206 458.5,-696.206 323.5,-696.206"/>
<text text-anchor="middle" x="391" y="-703.206" font-family="Helvetica,sans-Serif" font-size="10.00">OmniOGL::Floor::operator=</text>
</a>
</g>
</g>
<!-- Node3&#45;&gt;Node6 -->
<g id="edge5" class="edge"><title>Node3&#45;&gt;Node6</title>
<path fill="none" stroke="midnightblue" d="M275.363,-626.508C278.378,-628.06 281.276,-629.786 284,-631.706 307.578,-648.322 296.702,-668.7 320,-685.706 325.921,-690.028 332.752,-693.418 339.777,-696.077"/>
<polygon fill="midnightblue" stroke="midnightblue" points="276.587,-623.222 266.028,-622.354 273.741,-629.617 276.587,-623.222"/>
</g>
<!-- Node3&#45;&gt;Node7 -->
<g id="edge6" class="edge"><title>Node3&#45;&gt;Node7</title>
<path fill="none" stroke="midnightblue" d="M231.905,-597.69C254.169,-584.086 288.561,-564.037 320,-549.706 327.75,-546.173 336.156,-542.8 344.366,-539.74"/>
<polygon fill="midnightblue" stroke="midnightblue" points="229.824,-594.861 223.149,-603.089 233.498,-600.819 229.824,-594.861"/>
</g>
<!-- Node8 -->
<g id="node8" class="node"><title>Node8</title>
<g id="a_node8"><a xlink:href="class_omni_o_g_l_1_1_line_strip.html#a16bb6a0a3573bdd448482cf67f983e6e" target="_top" xlink:title="The assignment operator method which is responsible for copying the data of one instance over to the ...">
<polygon fill="white" stroke="black" points="339,-646.706 339,-676.706 443,-676.706 443,-646.706 339,-646.706"/>
<text text-anchor="start" x="347" y="-664.706" font-family="Helvetica,sans-Serif" font-size="10.00">OmniOGL::LineStrip</text>
<text text-anchor="middle" x="391" y="-653.706" font-family="Helvetica,sans-Serif" font-size="10.00">::operator=</text>
</a>
</g>
</g>
<!-- Node3&#45;&gt;Node8 -->
<g id="edge7" class="edge"><title>Node3&#45;&gt;Node8</title>
<path fill="none" stroke="midnightblue" d="M257.069,-624.737C266.041,-627.004 275.311,-629.391 284,-631.706 301.926,-636.482 321.486,-641.946 338.868,-646.891"/>
<polygon fill="midnightblue" stroke="midnightblue" points="257.664,-621.278 247.113,-622.239 255.961,-628.068 257.664,-621.278"/>
</g>
<!-- Node9 -->
<g id="node9" class="node"><title>Node9</title>
<g id="a_node9"><a xlink:href="class_omni_o_g_l_1_1_block_array.html#aa65d78b3ff0f2d2c27011a8f057aa07d" target="_top" xlink:title="The &quot;=&quot; operator method for the BlockArray class. This method copies all data from one existing Block...">
<polygon fill="white" stroke="black" points="334,-597.706 334,-627.706 448,-627.706 448,-597.706 334,-597.706"/>
<text text-anchor="start" x="342" y="-615.706" font-family="Helvetica,sans-Serif" font-size="10.00">OmniOGL::BlockArray</text>
<text text-anchor="middle" x="391" y="-604.706" font-family="Helvetica,sans-Serif" font-size="10.00">::operator=</text>
</a>
</g>
</g>
<!-- Node3&#45;&gt;Node9 -->
<g id="edge8" class="edge"><title>Node3&#45;&gt;Node9</title>
<path fill="none" stroke="midnightblue" d="M290.329,-612.706C305.068,-612.706 320.113,-612.706 333.899,-612.706"/>
<polygon fill="midnightblue" stroke="midnightblue" points="290.193,-609.206 280.193,-612.706 290.193,-616.206 290.193,-609.206"/>
</g>
<!-- Node10 -->
<g id="node10" class="node"><title>Node10</title>
<g id="a_node10"><a xlink:href="class_omni_o_g_l_1_1_group.html#a3ed0d1f33c3001ac2c6f0f86144d71ab" target="_top" xlink:title="The assignment operator method which is responsible for copying the data of one instance over to the ...">
<polygon fill="white" stroke="black" points="321,-559.206 321,-578.206 461,-578.206 461,-559.206 321,-559.206"/>
<text text-anchor="middle" x="391" y="-566.206" font-family="Helvetica,sans-Serif" font-size="10.00">OmniOGL::Group::operator=</text>
</a>
</g>
</g>
<!-- Node3&#45;&gt;Node10 -->
<g id="edge9" class="edge"><title>Node3&#45;&gt;Node10</title>
<path fill="none" stroke="midnightblue" d="M257.508,-600.737C286.762,-593.664 323.295,-584.832 350.586,-578.235"/>
<polygon fill="midnightblue" stroke="midnightblue" points="256.389,-597.406 247.491,-603.158 258.034,-604.21 256.389,-597.406"/>
</g>
<!-- Node12 -->
<g id="node12" class="node"><title>Node12</title>
<g id="a_node12"><a xlink:href="class_omni_o_g_l_1_1_blender_obj.html#a3c4dab9041ae8991266d48363dce03ff" target="_top" xlink:title="The draw method which must be implemented in order for the class to be instantiable. This method is responsible for sending the vertices, normals, etc. necessary to draw the object to the shader program, set all necessary options to their desired state, and finally invoke the desired OpenGL draw call. At the time being this method implementation is fairly rudimentary as it contains no logic to determine whether or not it needs send its data to the graphics card (it sends its data blindly).">
<polygon fill="white" stroke="black" points="334,-274.706 334,-304.706 448,-304.706 448,-274.706 334,-274.706"/>
<text text-anchor="start" x="342" y="-292.706" font-family="Helvetica,sans-Serif" font-size="10.00">OmniOGL::BlenderObj</text>
<text text-anchor="middle" x="391" y="-281.706" font-family="Helvetica,sans-Serif" font-size="10.00">::Draw</text>
</a>
</g>
</g>
<!-- Node11&#45;&gt;Node12 -->
<g id="edge11" class="edge"><title>Node11&#45;&gt;Node12</title>
<path fill="none" stroke="midnightblue" d="M286.434,-289.706C302.416,-289.706 318.925,-289.706 333.938,-289.706"/>
<polygon fill="midnightblue" stroke="midnightblue" points="286.029,-286.206 276.029,-289.706 286.029,-293.206 286.029,-286.206"/>
</g>
<!-- Node13 -->
<g id="node13" class="node"><title>Node13</title>
<g id="a_node13"><a xlink:href="class_omni_o_g_l_1_1_cube.html#a00747eeb6be98f4c9338ec10c2add6b8" target="_top" xlink:title="A method which is called each frame in order to render the object to the screen. This method is respo...">
<polygon fill="white" stroke="black" points="333,-236.206 333,-255.206 449,-255.206 449,-236.206 333,-236.206"/>
<text text-anchor="middle" x="391" y="-243.206" font-family="Helvetica,sans-Serif" font-size="10.00">OmniOGL::Cube::Draw</text>
</a>
</g>
</g>
<!-- Node11&#45;&gt;Node13 -->
<g id="edge12" class="edge"><title>Node11&#45;&gt;Node13</title>
<path fill="none" stroke="midnightblue" d="M257.508,-277.737C286.762,-270.664 323.295,-261.832 350.586,-255.235"/>
<polygon fill="midnightblue" stroke="midnightblue" points="256.389,-274.406 247.491,-280.158 258.034,-281.21 256.389,-274.406"/>
</g>
<!-- Node14 -->
<g id="node14" class="node"><title>Node14</title>
<g id="a_node14"><a xlink:href="class_omni_o_g_l_1_1_floor.html#ac36ccc5c2f1acb80548af20f166b1f77" target="_top" xlink:title="A method which will be called each frame for each Floor object and is responsible for binding relevan...">
<polygon fill="white" stroke="black" points="333,-198.206 333,-217.206 449,-217.206 449,-198.206 333,-198.206"/>
<text text-anchor="middle" x="391" y="-205.206" font-family="Helvetica,sans-Serif" font-size="10.00">OmniOGL::Floor::Draw</text>
</a>
</g>
</g>
<!-- Node11&#45;&gt;Node14 -->
<g id="edge13" class="edge"><title>Node11&#45;&gt;Node14</title>
<path fill="none" stroke="midnightblue" d="M270.871,-276.55C275.463,-274.578 279.896,-272.31 284,-269.706 305.044,-256.349 299.008,-240.143 320,-226.706 326.045,-222.836 332.869,-219.748 339.824,-217.284"/>
<polygon fill="midnightblue" stroke="midnightblue" points="269.379,-273.373 261.278,-280.201 271.869,-279.915 269.379,-273.373"/>
</g>
<!-- Node15 -->
<g id="node15" class="node"><title>Node15</title>
<g id="a_node15"><a xlink:href="class_omni_o_g_l_1_1_text_overlay.html#aa30ee3a394108270a31eed426e19a4ca" target="_top" xlink:title="A method which will be called each frame for each TextOverlay object and is responsible for binding r...">
<polygon fill="white" stroke="black" points="332.5,-460.706 332.5,-490.706 449.5,-490.706 449.5,-460.706 332.5,-460.706"/>
<text text-anchor="start" x="340.5" y="-478.706" font-family="Helvetica,sans-Serif" font-size="10.00">OmniOGL::TextOverlay</text>
<text text-anchor="middle" x="391" y="-467.706" font-family="Helvetica,sans-Serif" font-size="10.00">::Draw</text>
</a>
</g>
</g>
<!-- Node11&#45;&gt;Node15 -->
<g id="edge14" class="edge"><title>Node11&#45;&gt;Node15</title>
<path fill="none" stroke="midnightblue" d="M279.406,-304.689C281.019,-305.929 282.555,-307.266 284,-308.706 330.114,-354.668 276.193,-402.539 320,-450.706 323.56,-454.62 327.775,-457.922 332.344,-460.707"/>
<polygon fill="midnightblue" stroke="midnightblue" points="281.111,-301.626 270.784,-299.257 277.379,-307.549 281.111,-301.626"/>
</g>
<!-- Node16 -->
<g id="node16" class="node"><title>Node16</title>
<g id="a_node16"><a xlink:href="class_omni_o_g_l_1_1_line_strip.html#a3ecdafa271dd370a5073a0d6dd2e5bf9" target="_top" xlink:title="when commenting, note that we translate to 0,0,0 instead of the object&#39;s origin">
<polygon fill="white" stroke="black" points="339,-411.706 339,-441.706 443,-441.706 443,-411.706 339,-411.706"/>
<text text-anchor="start" x="347" y="-429.706" font-family="Helvetica,sans-Serif" font-size="10.00">OmniOGL::LineStrip</text>
<text text-anchor="middle" x="391" y="-418.706" font-family="Helvetica,sans-Serif" font-size="10.00">::Draw</text>
</a>
</g>
</g>
<!-- Node11&#45;&gt;Node16 -->
<g id="edge15" class="edge"><title>Node11&#45;&gt;Node16</title>
<path fill="none" stroke="midnightblue" d="M278.348,-304.357C280.327,-305.687 282.219,-307.133 284,-308.706 317.227,-338.038 288.25,-370.78 320,-401.706 325.362,-406.928 331.887,-411.067 338.773,-414.346"/>
<polygon fill="midnightblue" stroke="midnightblue" points="279.62,-301.059 269.182,-299.24 276.207,-307.171 279.62,-301.059"/>
</g>
<!-- Node17 -->
<g id="node17" class="node"><title>Node17</title>
<g id="a_node17"><a xlink:href="class_omni_o_g_l_1_1_block_array.html#a2ffeafa923f1f49001d771ce7e670521" target="_top" xlink:title="OmniOGL::BlockArray\l::Draw">
<polygon fill="white" stroke="black" points="334,-362.706 334,-392.706 448,-392.706 448,-362.706 334,-362.706"/>
<text text-anchor="start" x="342" y="-380.706" font-family="Helvetica,sans-Serif" font-size="10.00">OmniOGL::BlockArray</text>
<text text-anchor="middle" x="391" y="-369.706" font-family="Helvetica,sans-Serif" font-size="10.00">::Draw</text>
</a>
</g>
</g>
<!-- Node11&#45;&gt;Node17 -->
<g id="edge16" class="edge"><title>Node11&#45;&gt;Node17</title>
<path fill="none" stroke="midnightblue" d="M273.444,-303.051C277.121,-304.719 280.671,-306.595 284,-308.706 305.34,-322.235 299.349,-338.148 320,-352.706 325.379,-356.498 331.393,-359.771 337.576,-362.582"/>
<polygon fill="midnightblue" stroke="midnightblue" points="274.677,-299.775 264.092,-299.319 272.083,-306.276 274.677,-299.775"/>
</g>
<!-- Node18 -->
<g id="node18" class="node"><title>Node18</title>
<g id="a_node18"><a xlink:href="class_omni_o_g_l_1_1_group.html#a16851672d0c006abd0f9aafd267713f2" target="_top" xlink:title="A method which will be called each frame for each LineStrip object and is responsible for binding rel...">
<polygon fill="white" stroke="black" points="331,-324.206 331,-343.206 451,-343.206 451,-324.206 331,-324.206"/>
<text text-anchor="middle" x="391" y="-331.206" font-family="Helvetica,sans-Serif" font-size="10.00">OmniOGL::Group::Draw</text>
</a>
</g>
</g>
<!-- Node11&#45;&gt;Node18 -->
<g id="edge17" class="edge"><title>Node11&#45;&gt;Node18</title>
<path fill="none" stroke="midnightblue" d="M257.508,-301.675C286.762,-308.747 323.295,-317.579 350.586,-324.177"/>
<polygon fill="midnightblue" stroke="midnightblue" points="258.034,-298.201 247.491,-299.253 256.389,-305.005 258.034,-298.201"/>
</g>
<!-- Node22 -->
<g id="node22" class="node"><title>Node22</title>
<g id="a_node22"><a xlink:href="_exec_8cpp.html#a38c5e7def3be6ea702581ee4a92b9cc0" target="_top" xlink:title="render">
<polygon fill="white" stroke="black" points="890,-81.2058 890,-100.206 934,-100.206 934,-81.2058 890,-81.2058"/>
<text text-anchor="middle" x="912" y="-88.2058" font-family="Helvetica,sans-Serif" font-size="10.00">render</text>
</a>
</g>
</g>
<!-- Node21&#45;&gt;Node22 -->
<g id="edge21" class="edge"><title>Node21&#45;&gt;Node22</title>
<path fill="none" stroke="midnightblue" d="M803.387,-135.288C829.927,-124.293 866.726,-109.048 889.685,-99.5364"/>
<polygon fill="midnightblue" stroke="midnightblue" points="802.017,-132.067 794.118,-139.128 804.696,-138.534 802.017,-132.067"/>
</g>
<!-- Node23 -->
<g id="node23" class="node"><title>Node23</title>
<g id="a_node23"><a xlink:href="_exec_8cpp.html#a66e65252a6985e382838442f280f46ba" target="_top" xlink:title="WinMain">
<polygon fill="white" stroke="black" points="970.5,-81.2058 970.5,-100.206 1025.5,-100.206 1025.5,-81.2058 970.5,-81.2058"/>
<text text-anchor="middle" x="998" y="-88.2058" font-family="Helvetica,sans-Serif" font-size="10.00">WinMain</text>
</a>
</g>
</g>
<!-- Node22&#45;&gt;Node23 -->
<g id="edge22" class="edge"><title>Node22&#45;&gt;Node23</title>
<path fill="none" stroke="midnightblue" d="M944.253,-90.7058C952.845,-90.7058 962.081,-90.7058 970.386,-90.7058"/>
<polygon fill="midnightblue" stroke="midnightblue" points="944.197,-87.2059 934.197,-90.7058 944.197,-94.2059 944.197,-87.2059"/>
</g>
<!-- Node27 -->
<g id="node27" class="node"><title>Node27</title>
<g id="a_node27"><a xlink:href="class_omni_o_g_l_1_1_scene.html#a8601c13e69f3269928209f1ffdf2584a" target="_top" xlink:title="The constructor for the Scene class. This is a fairly busy constructor since it&#39;s responsible for ini...">
<polygon fill="white" stroke="black" points="510,-119.206 510,-138.206 638,-138.206 638,-119.206 510,-119.206"/>
<text text-anchor="middle" x="574" y="-126.206" font-family="Helvetica,sans-Serif" font-size="10.00">OmniOGL::Scene::Scene</text>
</a>
</g>
</g>
<!-- Node26&#45;&gt;Node27 -->
<g id="edge27" class="edge"><title>Node26&#45;&gt;Node27</title>
<path fill="none" stroke="midnightblue" d="M472.269,-127.036C484.873,-127.245 497.744,-127.458 509.889,-127.66"/>
<polygon fill="midnightblue" stroke="midnightblue" points="472.295,-123.536 462.238,-126.87 472.179,-130.535 472.295,-123.536"/>
</g>
<!-- Node28 -->
<g id="node28" class="node"><title>Node28</title>
<g id="a_node28"><a xlink:href="class_omni_o_g_l_1_1_scene.html#aaf90a48c617a97b06e8b75320c0271b0" target="_top" xlink:title="OmniOGL::Scene::HandleInput">
<polygon fill="white" stroke="black" points="498.5,-81.2058 498.5,-100.206 649.5,-100.206 649.5,-81.2058 498.5,-81.2058"/>
<text text-anchor="middle" x="574" y="-88.2058" font-family="Helvetica,sans-Serif" font-size="10.00">OmniOGL::Scene::HandleInput</text>
</a>
</g>
</g>
<!-- Node26&#45;&gt;Node28 -->
<g id="edge28" class="edge"><title>Node26&#45;&gt;Node28</title>
<path fill="none" stroke="midnightblue" d="M472.461,-110.147C489.958,-106.764 507.961,-103.282 523.811,-100.217"/>
<polygon fill="midnightblue" stroke="midnightblue" points="471.392,-106.789 462.238,-112.124 472.721,-113.662 471.392,-106.789"/>
</g>
<!-- Node29 -->
<g id="node29" class="node"><title>Node29</title>
<g id="a_node29"><a xlink:href="class_omni_o_g_l_1_1_scene.html#ac65b18faabaa3d2af9a0a4b2f2fc0fe0" target="_top" xlink:title="The core of the rendering loop! This method iterates through all possible containers of objects&#45;to&#45;be...">
<polygon fill="white" stroke="black" points="709,-81.2058 709,-100.206 831,-100.206 831,-81.2058 709,-81.2058"/>
<text text-anchor="middle" x="770" y="-88.2058" font-family="Helvetica,sans-Serif" font-size="10.00">OmniOGL::Scene::Draw</text>
</a>
</g>
</g>
<!-- Node28&#45;&gt;Node29 -->
<g id="edge29" class="edge"><title>Node28&#45;&gt;Node29</title>
<path fill="none" stroke="midnightblue" d="M659.895,-90.7058C676.351,-90.7058 693.278,-90.7058 708.743,-90.7058"/>
<polygon fill="midnightblue" stroke="midnightblue" points="659.728,-87.2059 649.728,-90.7058 659.728,-94.2059 659.728,-87.2059"/>
</g>
<!-- Node29&#45;&gt;Node22 -->
<g id="edge30" class="edge"><title>Node29&#45;&gt;Node22</title>
<path fill="none" stroke="midnightblue" d="M841.534,-90.7058C859.159,-90.7058 876.739,-90.7058 889.804,-90.7058"/>
<polygon fill="midnightblue" stroke="midnightblue" points="841.185,-87.2059 831.185,-90.7058 841.185,-94.2059 841.185,-87.2059"/>
</g>
<!-- Node31 -->
<g id="node31" class="node"><title>Node31</title>
<g id="a_node31"><a xlink:href="class_omni_o_g_l_1_1_section_collection.html#a8ce8d4ffbeab35bf911fb1b473cf73f2" target="_top" xlink:title="OmniOGL::SectionCollection\l::SectionCollection">
<polygon fill="white" stroke="black" points="320,-61.7058 320,-91.7058 462,-91.7058 462,-61.7058 320,-61.7058"/>
<text text-anchor="start" x="328" y="-79.7058" font-family="Helvetica,sans-Serif" font-size="10.00">OmniOGL::SectionCollection</text>
<text text-anchor="middle" x="391" y="-68.7058" font-family="Helvetica,sans-Serif" font-size="10.00">::SectionCollection</text>
</a>
</g>
</g>
<!-- Node30&#45;&gt;Node31 -->
<g id="edge32" class="edge"><title>Node30&#45;&gt;Node31</title>
<path fill="none" stroke="midnightblue" d="M293.807,-79.3485C302.541,-79.1085 311.339,-78.8668 319.877,-78.6322"/>
<polygon fill="midnightblue" stroke="midnightblue" points="293.503,-75.8554 283.603,-79.6288 293.696,-82.8527 293.503,-75.8554"/>
</g>
<!-- Node30&#45;&gt;Node26 -->
<g id="edge33" class="edge"><title>Node30&#45;&gt;Node26</title>
<path fill="none" stroke="midnightblue" d="M279.877,-99.0827C295.737,-102.917 312.409,-106.948 327.846,-110.68"/>
<polygon fill="midnightblue" stroke="midnightblue" points="280.668,-95.673 270.125,-96.725 279.023,-102.477 280.668,-95.673"/>
</g>
<!-- Node32&#45;&gt;Node22 -->
<g id="edge35" class="edge"><title>Node32&#45;&gt;Node22</title>
<path fill="none" stroke="midnightblue" d="M656.99,-43.3472C712.975,-48.2575 788.571,-56.971 854,-71.7058 866.11,-74.433 879.278,-78.7302 889.904,-82.5486"/>
<polygon fill="midnightblue" stroke="midnightblue" points="657.034,-39.8382 646.772,-42.474 656.437,-46.8128 657.034,-39.8382"/>
</g>
</g>
</svg>
        <g id="navigator" transform="translate(0 0)" fill="#404254">
                <rect fill="#f2f5e9" fill-opacity="0.5" stroke="#606060" stroke-width=".5" x="0" y="0" width="60" height="60"/>
                <use id="zoomplus" xlink:href="#zoomPlus" x="17" y="9" onmousedown="handleZoom(evt,'in')"/>
                <use id="zoomminus" xlink:href="#zoomMin" x="42" y="9" onmousedown="handleZoom(evt,'out')"/>
                <use id="reset" xlink:href="#resetDef" x="30" y="36" onmousedown="handleReset()"/>
                <g id="arrowUp" xlink:href="#dirArrow" transform="translate(30 24)" onmousedown="handlePan(0,-1)">
                  <use xlink:href="#rim" fill="#404040">
                        <set attributeName="fill" to="#808080" begin="arrowUp.mouseover" end="arrowUp.mouseout"/>
                  </use>
                  <path fill="none" stroke="white" stroke-width="1.5" d="M0,-3.0v7 M-2.5,-0.5L0,-3.0L2.5,-0.5"/>
                </g>
                <g id="arrowRight" xlink:href="#dirArrow" transform="rotate(90) translate(36 -43)" onmousedown="handlePan(1,0)">
                  <use xlink:href="#rim" fill="#404040">
                        <set attributeName="fill" to="#808080" begin="arrowRight.mouseover" end="arrowRight.mouseout"/>
                  </use>
                  <path fill="none" stroke="white" stroke-width="1.5" d="M0,-3.0v7 M-2.5,-0.5L0,-3.0L2.5,-0.5"/>
                </g>
                <g id="arrowDown" xlink:href="#dirArrow" transform="rotate(180) translate(-30 -48)" onmousedown="handlePan(0,1)">
                  <use xlink:href="#rim" fill="#404040">
                        <set attributeName="fill" to="#808080" begin="arrowDown.mouseover" end="arrowDown.mouseout"/>
                  </use>
                  <path fill="none" stroke="white" stroke-width="1.5" d="M0,-3.0v7 M-2.5,-0.5L0,-3.0L2.5,-0.5"/>
                </g>
                <g id="arrowLeft" xlink:href="#dirArrow" transform="rotate(270) translate(-36 17)" onmousedown="handlePan(-1,0)">
                  <use xlink:href="#rim" fill="#404040">
                        <set attributeName="fill" to="#808080" begin="arrowLeft.mouseover" end="arrowLeft.mouseout"/>
                  </use>
                  <path fill="none" stroke="white" stroke-width="1.5" d="M0,-3.0v7 M-2.5,-0.5L0,-3.0L2.5,-0.5"/>
                </g>
        </g>
        <svg viewBox="0 0 15 15" width="100%" height="30px" preserveAspectRatio="xMaxYMin meet">
         <g id="arrow_out" transform="scale(0.3 0.3)">
          <a xlink:href="namespace_omni_o_g_l_ade1ba238a31a1003412522a2769d5945_icgraph_org.svg" target="_base">
           <rect id="button" ry="5" rx="5" y="6" x="6" height="38" width="38"
                fill="#f2f5e9" fill-opacity="0.5" stroke="#606060" stroke-width="1.0"/>
           <path id="arrow"
             d="M 11.500037,31.436501 C 11.940474,20.09759 22.043105,11.32322 32.158766,21.979434 L 37.068811,17.246167 C 37.068811,17.246167 37.088388,32 37.088388,32 L 22.160133,31.978069 C 22.160133,31.978069 26.997745,27.140456 26.997745,27.140456 C 18.528582,18.264221 13.291696,25.230495 11.500037,31.436501 z"
             style="fill:#404040;"/>
          </a>
         </g>
        </svg>
</svg>
