<?xml version="1.0" encoding="UTF-8" standalone="no"?>
<!DOCTYPE svg PUBLIC "-//W3C//DTD SVG 1.1//EN"
 "http://www.w3.org/Graphics/SVG/1.1/DTD/svg11.dtd">
<!-- Generated by graphviz version 2.30.1 (20130214.1330)
 -->
<!-- Title: OmniOGL::AddDerivedObj Pages: 1 -->
<svg width="562pt" height="28pt"
 viewBox="0.00 0.00 562.00 28.00" xmlns="http://www.w3.org/2000/svg" xmlns:xlink="http://www.w3.org/1999/xlink">
<g id="graph0" class="graph" transform="scale(1 1) rotate(0) translate(4 24)">
<title>OmniOGL::AddDerivedObj</title>
<polygon fill="white" stroke="white" points="-4,5 -4,-24 559,-24 559,5 -4,5"/>
<!-- Node1 -->
<g id="node1" class="node"><title>Node1</title>
<polygon fill="#bfbfbf" stroke="black" points="0,-0.5 0,-19.5 130,-19.5 130,-0.5 0,-0.5"/>
<text text-anchor="middle" x="65" y="-7.5" font-family="Helvetica,sans-Serif" font-size="10.00">OmniOGL::AddDerivedObj</text>
</g>
<!-- Node2 -->
<g id="node2" class="node"><title>Node2</title>
<g id="a_node2"><a xlink:href="namespace_omni_o_g_l.html#a3a42d273f9da945de1baa561983d981a" target="_top" xlink:title="An event handler for keyboard events which is passed to glfwSetMouseButtonCallback() as a means of ha...">
<polygon fill="white" stroke="black" points="166.5,-0.5 166.5,-19.5 299.5,-19.5 299.5,-0.5 166.5,-0.5"/>
<text text-anchor="middle" x="233" y="-7.5" font-family="Helvetica,sans-Serif" font-size="10.00">OmniOGL::evnt_MouseBtn</text>
</a>
</g>
</g>
<!-- Node1&#45;&gt;Node2 -->
<g id="edge1" class="edge"><title>Node1&#45;&gt;Node2</title>
<path fill="none" stroke="midnightblue" d="M140.293,-10C148.977,-10 157.79,-10 166.346,-10"/>
<polygon fill="midnightblue" stroke="midnightblue" points="140.18,-6.5001 130.18,-10 140.18,-13.5001 140.18,-6.5001"/>
</g>
<!-- Node3 -->
<g id="node3" class="node"><title>Node3</title>
<g id="a_node3"><a xlink:href="namespace_omni_o_g_l.html#a03177ea10e60c8e0edb883425d0f84a4" target="_top" xlink:title="OmniOGL::MakeWindow">
<polygon fill="white" stroke="black" points="336.5,-0.5 336.5,-19.5 461.5,-19.5 461.5,-0.5 336.5,-0.5"/>
<text text-anchor="middle" x="399" y="-7.5" font-family="Helvetica,sans-Serif" font-size="10.00">OmniOGL::MakeWindow</text>
</a>
</g>
</g>
<!-- Node2&#45;&gt;Node3 -->
<g id="edge2" class="edge"><title>Node2&#45;&gt;Node3</title>
<path fill="none" stroke="midnightblue" d="M309.79,-10C318.73,-10 327.77,-10 336.48,-10"/>
<polygon fill="midnightblue" stroke="midnightblue" points="309.76,-6.5001 299.76,-10 309.76,-13.5001 309.76,-6.5001"/>
</g>
<!-- Node4 -->
<g id="node4" class="node"><title>Node4</title>
<g id="a_node4"><a xlink:href="_exec_8cpp.html#a66e65252a6985e382838442f280f46ba" target="_top" xlink:title="WinMain">
<polygon fill="white" stroke="black" points="498.5,-0.5 498.5,-19.5 553.5,-19.5 553.5,-0.5 498.5,-0.5"/>
<text text-anchor="middle" x="526" y="-7.5" font-family="Helvetica,sans-Serif" font-size="10.00">WinMain</text>
</a>
</g>
</g>
<!-- Node3&#45;&gt;Node4 -->
<g id="edge3" class="edge"><title>Node3&#45;&gt;Node4</title>
<path fill="none" stroke="midnightblue" d="M472.028,-10C481.416,-10 490.51,-10 498.436,-10"/>
<polygon fill="midnightblue" stroke="midnightblue" points="471.768,-6.5001 461.768,-10 471.768,-13.5001 471.768,-6.5001"/>
</g>
</g>
</svg>
