<?xml version="1.0" encoding="UTF-8" standalone="no"?>
<!DOCTYPE svg PUBLIC "-//W3C//DTD SVG 1.1//EN"
 "http://www.w3.org/Graphics/SVG/1.1/DTD/svg11.dtd">
<!-- Generated by graphviz version 2.30.1 (20130214.1330)
 -->
<!-- Title: OmniOGL::_Init Pages: 1 -->
<svg width="1002pt" height="744pt"
 viewBox="0.00 0.00 1002.00 744.29" xmlns="http://www.w3.org/2000/svg" xmlns:xlink="http://www.w3.org/1999/xlink">
<g id="graph0" class="graph" transform="scale(1 1) rotate(0) translate(4 740.292)">
<title>OmniOGL::_Init</title>
<polygon fill="white" stroke="white" points="-4,5 -4,-740.292 999,-740.292 999,5 -4,5"/>
<!-- Node1 -->
<g id="node1" class="node"><title>Node1</title>
<polygon fill="#bfbfbf" stroke="black" points="0,-307.014 0,-326.014 84,-326.014 84,-307.014 0,-307.014"/>
<text text-anchor="middle" x="42" y="-314.014" font-family="Helvetica,sans-Serif" font-size="10.00">OmniOGL::_Init</text>
</g>
<!-- Node2 -->
<g id="node2" class="node"><title>Node2</title>
<g id="a_node2"><a xlink:href="namespace_omni_o_g_l.html#a73e45a9a8c8783e5a10758095bfc8f6a" target="_top" xlink:title="Grabs the contents of an existing file and attempts to compile and create a Vertex Shader which can u...">
<polygon fill="white" stroke="black" points="696.5,-578.014 696.5,-597.014 821.5,-597.014 821.5,-578.014 696.5,-578.014"/>
<text text-anchor="middle" x="759" y="-585.014" font-family="Helvetica,sans-Serif" font-size="10.00">OmniOGL::MakVertShad</text>
</a>
</g>
</g>
<!-- Node1&#45;&gt;Node2 -->
<g id="edge1" class="edge"><title>Node1&#45;&gt;Node2</title>
<path fill="none" stroke="midnightblue" d="M44.7199,-336.581C49.52,-382.751 66.4415,-498.524 120,-576.514 180.287,-664.303 209.167,-688.247 310,-722.514 480.746,-780.54 692.257,-636.405 745.427,-597.096"/>
<polygon fill="midnightblue" stroke="midnightblue" points="48.1831,-336.028 43.7458,-326.407 41.215,-336.695 48.1831,-336.028"/>
</g>
<!-- Node4 -->
<g id="node4" class="node"><title>Node4</title>
<g id="a_node4"><a xlink:href="class_omni_o_g_l_1_1_ren_obj.html#a6d44159052e428be6591176edd86e885" target="_top" xlink:title="The copy constructor for the RenObj class. This class is responsible for initializing all of the RenO...">
<polygon fill="white" stroke="black" points="128.5,-548.014 128.5,-567.014 265.5,-567.014 265.5,-548.014 128.5,-548.014"/>
<text text-anchor="middle" x="197" y="-555.014" font-family="Helvetica,sans-Serif" font-size="10.00">OmniOGL::RenObj::RenObj</text>
</a>
</g>
</g>
<!-- Node1&#45;&gt;Node4 -->
<g id="edge3" class="edge"><title>Node1&#45;&gt;Node4</title>
<path fill="none" stroke="midnightblue" d="M43.835,-336.35C46.7723,-379.758 60.0432,-483.663 120,-538.514 124.215,-542.37 129.092,-545.472 134.301,-547.963"/>
<polygon fill="midnightblue" stroke="midnightblue" points="47.3226,-336.029 43.2691,-326.241 40.3335,-336.421 47.3226,-336.029"/>
</g>
<!-- Node5 -->
<g id="node5" class="node"><title>Node5</title>
<g id="a_node5"><a xlink:href="class_omni_o_g_l_1_1_ren_obj.html#a0f76d1a329f2ed1ded9a87b1fdb70d19" target="_top" xlink:title="The &#39;=&#39; operator for the RenObj class. This method is called any time a derived class instance of a R...">
<polygon fill="white" stroke="black" points="124,-510.014 124,-529.014 270,-529.014 270,-510.014 124,-510.014"/>
<text text-anchor="middle" x="197" y="-517.014" font-family="Helvetica,sans-Serif" font-size="10.00">OmniOGL::RenObj::operator=</text>
</a>
</g>
</g>
<!-- Node1&#45;&gt;Node5 -->
<g id="edge4" class="edge"><title>Node1&#45;&gt;Node5</title>
<path fill="none" stroke="midnightblue" d="M45.5646,-336.366C51.5039,-374.01 69.7562,-455.896 120,-499.514 124.945,-503.807 130.708,-507.193 136.808,-509.862"/>
<polygon fill="midnightblue" stroke="midnightblue" points="48.9892,-335.592 44.0949,-326.195 42.0611,-336.593 48.9892,-335.592"/>
</g>
<!-- Node13 -->
<g id="node13" class="node"><title>Node13</title>
<g id="a_node13"><a xlink:href="class_omni_o_g_l_1_1_text_overlay.html#aa5bab4ddc1cdcc8d2f81b6c3e11a77a6" target="_top" xlink:title="The default constructor for the TextOverlay class which is invoked whenever the object is instantiate...">
<polygon fill="white" stroke="black" points="138.5,-460.514 138.5,-490.514 255.5,-490.514 255.5,-460.514 138.5,-460.514"/>
<text text-anchor="start" x="146.5" y="-478.514" font-family="Helvetica,sans-Serif" font-size="10.00">OmniOGL::TextOverlay</text>
<text text-anchor="middle" x="197" y="-467.514" font-family="Helvetica,sans-Serif" font-size="10.00">::TextOverlay</text>
</a>
</g>
</g>
<!-- Node1&#45;&gt;Node13 -->
<g id="edge12" class="edge"><title>Node1&#45;&gt;Node13</title>
<path fill="none" stroke="midnightblue" d="M49.8532,-335.79C60.6653,-363.635 84.2044,-415.099 120,-445.514 127.135,-451.576 135.642,-456.506 144.34,-460.486"/>
<polygon fill="midnightblue" stroke="midnightblue" points="52.9959,-334.201 46.2214,-326.055 46.4374,-336.647 52.9959,-334.201"/>
</g>
<!-- Node14 -->
<g id="node14" class="node"><title>Node14</title>
<g id="a_node14"><a xlink:href="class_omni_o_g_l_1_1_text_overlay.html#a4e34d1e6e721640ae3deab8034f6e2b1" target="_top" xlink:title="This method populates the vertex, color, and texture coordinate arrays with data necessary to render ...">
<polygon fill="white" stroke="black" points="525.5,-27.5139 525.5,-57.5139 642.5,-57.5139 642.5,-27.5139 525.5,-27.5139"/>
<text text-anchor="start" x="533.5" y="-45.5139" font-family="Helvetica,sans-Serif" font-size="10.00">OmniOGL::TextOverlay</text>
<text text-anchor="middle" x="584" y="-34.5139" font-family="Helvetica,sans-Serif" font-size="10.00">::SetText</text>
</a>
</g>
</g>
<!-- Node1&#45;&gt;Node14 -->
<g id="edge13" class="edge"><title>Node1&#45;&gt;Node14</title>
<path fill="none" stroke="midnightblue" d="M46.0133,-296.609C54.7408,-241.851 81.8638,-91.0675 120,-61.5139 241.616,32.7324 439.928,-3.23437 532.465,-27.4577"/>
<polygon fill="midnightblue" stroke="midnightblue" points="42.5133,-296.339 44.4329,-306.758 49.43,-297.416 42.5133,-296.339"/>
</g>
<!-- Node16 -->
<g id="node16" class="node"><title>Node16</title>
<g id="a_node16"><a xlink:href="class_omni_o_g_l_1_1_line_strip.html#af64b3e0837c49702b82c3b7a6c4288e4" target="_top" xlink:title="Adds a line segment to the class instance using absolute coordinates for a start and end point (i...">
<polygon fill="white" stroke="black" points="145,-372.514 145,-402.514 249,-402.514 249,-372.514 145,-372.514"/>
<text text-anchor="start" x="153" y="-390.514" font-family="Helvetica,sans-Serif" font-size="10.00">OmniOGL::LineStrip</text>
<text text-anchor="middle" x="197" y="-379.514" font-family="Helvetica,sans-Serif" font-size="10.00">::AddInstance</text>
</a>
</g>
</g>
<!-- Node1&#45;&gt;Node16 -->
<g id="edge16" class="edge"><title>Node1&#45;&gt;Node16</title>
<path fill="none" stroke="midnightblue" d="M65.5327,-331.783C80.5131,-341.474 100.878,-353.787 120,-362.514 127.961,-366.147 136.606,-369.506 145.117,-372.506"/>
<polygon fill="midnightblue" stroke="midnightblue" points="67.2382,-328.715 56.9604,-326.143 63.3909,-334.563 67.2382,-328.715"/>
</g>
<!-- Node21 -->
<g id="node21" class="node"><title>Node21</title>
<g id="a_node21"><a xlink:href="class_omni_o_g_l_1_1_block_array.html#a14765eb5f0ef34abef770f8f94a65027" target="_top" xlink:title="The default constructor for this class which takes no parameters and does little but initialize vario...">
<polygon fill="white" stroke="black" points="140,-323.514 140,-353.514 254,-353.514 254,-323.514 140,-323.514"/>
<text text-anchor="start" x="148" y="-341.514" font-family="Helvetica,sans-Serif" font-size="10.00">OmniOGL::BlockArray</text>
<text text-anchor="middle" x="197" y="-330.514" font-family="Helvetica,sans-Serif" font-size="10.00">::BlockArray</text>
</a>
</g>
</g>
<!-- Node1&#45;&gt;Node21 -->
<g id="edge21" class="edge"><title>Node1&#45;&gt;Node21</title>
<path fill="none" stroke="midnightblue" d="M93.9524,-323.84C108.702,-325.961 124.884,-328.288 139.928,-330.451"/>
<polygon fill="midnightblue" stroke="midnightblue" points="94.3976,-320.368 84.0012,-322.409 93.4012,-327.297 94.3976,-320.368"/>
</g>
<!-- Node22 -->
<g id="node22" class="node"><title>Node22</title>
<g id="a_node22"><a xlink:href="class_omni_o_g_l_1_1_group.html#a6e21fa431b1caaadbb01011b8bd64ef9" target="_top" xlink:title="The sole constructor for the Group class which requires a shared pointer to a RenObj (or one of its d...">
<polygon fill="white" stroke="black" points="134.5,-285.014 134.5,-304.014 259.5,-304.014 259.5,-285.014 134.5,-285.014"/>
<text text-anchor="middle" x="197" y="-292.014" font-family="Helvetica,sans-Serif" font-size="10.00">OmniOGL::Group::Group</text>
</a>
</g>
</g>
<!-- Node1&#45;&gt;Node22 -->
<g id="edge22" class="edge"><title>Node1&#45;&gt;Node22</title>
<path fill="none" stroke="midnightblue" d="M94.1038,-309.166C107.034,-307.306 121.056,-305.29 134.442,-303.365"/>
<polygon fill="midnightblue" stroke="midnightblue" points="93.4012,-305.731 84.0012,-310.618 94.3976,-312.659 93.4012,-305.731"/>
</g>
<!-- Node12 -->
<g id="node12" class="node"><title>Node12</title>
<g id="a_node12"><a xlink:href="class_omni_o_g_l_1_1_group.html#a3ed0d1f33c3001ac2c6f0f86144d71ab" target="_top" xlink:title="The assignment operator method which is responsible for copying the data of one instance over to the ...">
<polygon fill="white" stroke="black" points="321,-422.014 321,-441.014 461,-441.014 461,-422.014 321,-422.014"/>
<text text-anchor="middle" x="391" y="-429.014" font-family="Helvetica,sans-Serif" font-size="10.00">OmniOGL::Group::operator=</text>
</a>
</g>
</g>
<!-- Node1&#45;&gt;Node12 -->
<g id="edge23" class="edge"><title>Node1&#45;&gt;Node12</title>
<path fill="none" stroke="midnightblue" d="M52.0614,-335.176C64.1138,-357.695 87.7151,-394.632 120,-411.514 182.166,-444.021 263.618,-445.422 320.738,-440.939"/>
<polygon fill="midnightblue" stroke="midnightblue" points="55.1556,-333.54 47.4787,-326.238 48.9266,-336.733 55.1556,-333.54"/>
</g>
<!-- Node23 -->
<g id="node23" class="node"><title>Node23</title>
<g id="a_node23"><a xlink:href="class_omni_o_g_l_1_1_group.html#a9dcdbfb8c49117647880ae13d8e051bc" target="_top" xlink:title="Adds a specified number of &quot;cloned&quot; objects to the Group which will be differ by scale, rotation, and translation/location. The scale, rotation, and translation for each object is determined randomly but within a range specified by members of this class. If no parameter is passed to this method then it will generate one object by default. Group::SetScaleRanges(), Group::SetRotationRanges(), Group::SetTranslationRanges(), Group::AddInstance()">
<polygon fill="white" stroke="black" points="121,-197.514 121,-227.514 273,-227.514 273,-197.514 121,-197.514"/>
<text text-anchor="start" x="129" y="-215.514" font-family="Helvetica,sans-Serif" font-size="10.00">OmniOGL::Group::AddRandom</text>
<text text-anchor="middle" x="197" y="-204.514" font-family="Helvetica,sans-Serif" font-size="10.00">Instances</text>
</a>
</g>
</g>
<!-- Node1&#45;&gt;Node23 -->
<g id="edge24" class="edge"><title>Node1&#45;&gt;Node23</title>
<path fill="none" stroke="midnightblue" d="M57.7365,-298.831C72.1871,-282.413 95.5537,-258.209 120,-242.514 128.953,-236.766 139.183,-231.811 149.173,-227.678"/>
<polygon fill="midnightblue" stroke="midnightblue" points="54.9035,-296.757 51.0339,-306.62 60.2095,-301.323 54.9035,-296.757"/>
</g>
<!-- Node24 -->
<g id="node24" class="node"><title>Node24</title>
<g id="a_node24"><a xlink:href="class_omni_o_g_l_1_1_section.html#a7ff7448b42b8d8200258f46236c1d9dc" target="_top" xlink:title="The default constructor for the Section class which is responsible for initializing all members owned...">
<polygon fill="white" stroke="black" points="128,-159.014 128,-178.014 266,-178.014 266,-159.014 128,-159.014"/>
<text text-anchor="middle" x="197" y="-166.014" font-family="Helvetica,sans-Serif" font-size="10.00">OmniOGL::Section::Section</text>
</a>
</g>
</g>
<!-- Node1&#45;&gt;Node24 -->
<g id="edge25" class="edge"><title>Node1&#45;&gt;Node24</title>
<path fill="none" stroke="midnightblue" d="M49.0662,-297.399C59.1061,-268.947 81.9381,-215.783 120,-187.514 125.241,-183.621 131.188,-180.521 137.393,-178.052"/>
<polygon fill="midnightblue" stroke="midnightblue" points="45.711,-296.396 45.8396,-306.99 52.3456,-298.628 45.711,-296.396"/>
</g>
<!-- Node25 -->
<g id="node25" class="node"><title>Node25</title>
<g id="a_node25"><a xlink:href="class_omni_o_g_l_1_1_section_collection.html#a8ce8d4ffbeab35bf911fb1b473cf73f2" target="_top" xlink:title="OmniOGL::SectionCollection\l::SectionCollection">
<polygon fill="white" stroke="black" points="320,-120.514 320,-150.514 462,-150.514 462,-120.514 320,-120.514"/>
<text text-anchor="start" x="328" y="-138.514" font-family="Helvetica,sans-Serif" font-size="10.00">OmniOGL::SectionCollection</text>
<text text-anchor="middle" x="391" y="-127.514" font-family="Helvetica,sans-Serif" font-size="10.00">::SectionCollection</text>
</a>
</g>
</g>
<!-- Node1&#45;&gt;Node25 -->
<g id="edge26" class="edge"><title>Node1&#45;&gt;Node25</title>
<path fill="none" stroke="midnightblue" d="M45.5789,-296.465C51.4419,-260.076 69.4311,-183.761 120,-149.514 178.49,-109.902 261.525,-112.026 320.03,-120.505"/>
<polygon fill="midnightblue" stroke="midnightblue" points="42.0555,-296.373 44.0755,-306.773 48.9822,-297.383 42.0555,-296.373"/>
</g>
<!-- Node26 -->
<g id="node26" class="node"><title>Node26</title>
<g id="a_node26"><a xlink:href="class_omni_o_g_l_1_1_section_collection.html#aa4bab32a8d339d5a1e34d28b283768ff" target="_top" xlink:title="OmniOGL::SectionCollection\l::UpdateAdjacentSectionsArray">
<polygon fill="white" stroke="black" points="120.5,-71.5139 120.5,-101.514 273.5,-101.514 273.5,-71.5139 120.5,-71.5139"/>
<text text-anchor="start" x="128.5" y="-89.5139" font-family="Helvetica,sans-Serif" font-size="10.00">OmniOGL::SectionCollection</text>
<text text-anchor="middle" x="197" y="-78.5139" font-family="Helvetica,sans-Serif" font-size="10.00">::UpdateAdjacentSectionsArray</text>
</a>
</g>
</g>
<!-- Node1&#45;&gt;Node26 -->
<g id="edge27" class="edge"><title>Node1&#45;&gt;Node26</title>
<path fill="none" stroke="midnightblue" d="M45.314,-296.75C50.9428,-257.284 68.8644,-168.084 120,-116.514 126.093,-110.37 133.597,-105.45 141.494,-101.52"/>
<polygon fill="midnightblue" stroke="midnightblue" points="41.8398,-296.326 44.0106,-306.696 48.7805,-297.236 41.8398,-296.326"/>
</g>
<!-- Node20 -->
<g id="node20" class="node"><title>Node20</title>
<g id="a_node20"><a xlink:href="class_omni_o_g_l_1_1_scene.html#a8601c13e69f3269928209f1ffdf2584a" target="_top" xlink:title="The constructor for the Scene class. This is a fairly busy constructor since it&#39;s responsible for ini...">
<polygon fill="white" stroke="black" points="520,-247.014 520,-266.014 648,-266.014 648,-247.014 520,-247.014"/>
<text text-anchor="middle" x="584" y="-254.014" font-family="Helvetica,sans-Serif" font-size="10.00">OmniOGL::Scene::Scene</text>
</a>
</g>
</g>
<!-- Node1&#45;&gt;Node20 -->
<g id="edge34" class="edge"><title>Node1&#45;&gt;Node20</title>
<path fill="none" stroke="midnightblue" d="M64.8539,-301.453C79.69,-292.114 100.15,-280.904 120,-275.514 258.778,-237.83 429.487,-243.508 519.875,-250.366"/>
<polygon fill="midnightblue" stroke="midnightblue" points="62.8705,-298.567 56.3989,-306.956 66.6892,-304.434 62.8705,-298.567"/>
</g>
<!-- Node3 -->
<g id="node3" class="node"><title>Node3</title>
<g id="a_node3"><a xlink:href="_exec_8cpp.html#a66e65252a6985e382838442f280f46ba" target="_top" xlink:title="WinMain">
<polygon fill="white" stroke="black" points="938.5,-173.014 938.5,-192.014 993.5,-192.014 993.5,-173.014 938.5,-173.014"/>
<text text-anchor="middle" x="966" y="-180.014" font-family="Helvetica,sans-Serif" font-size="10.00">WinMain</text>
</a>
</g>
</g>
<!-- Node2&#45;&gt;Node3 -->
<g id="edge2" class="edge"><title>Node2&#45;&gt;Node3</title>
<path fill="none" stroke="midnightblue" d="M769.499,-568.748C805.573,-497.479 933.39,-244.962 960.089,-192.216"/>
<polygon fill="midnightblue" stroke="midnightblue" points="766.259,-567.399 764.865,-577.902 772.504,-570.561 766.259,-567.399"/>
</g>
<!-- Node6 -->
<g id="node6" class="node"><title>Node6</title>
<g id="a_node6"><a xlink:href="class_omni_o_g_l_1_1_blender_obj.html#adaa4f366633bf3f03e0712ce346b6960" target="_top" xlink:title="The assignment operator method. Since the BlenderObj class has no unique members this method simply i...">
<polygon fill="white" stroke="black" points="334,-536.514 334,-566.514 448,-566.514 448,-536.514 334,-536.514"/>
<text text-anchor="start" x="342" y="-554.514" font-family="Helvetica,sans-Serif" font-size="10.00">OmniOGL::BlenderObj</text>
<text text-anchor="middle" x="391" y="-543.514" font-family="Helvetica,sans-Serif" font-size="10.00">::operator=</text>
</a>
</g>
</g>
<!-- Node5&#45;&gt;Node6 -->
<g id="edge5" class="edge"><title>Node5&#45;&gt;Node6</title>
<path fill="none" stroke="midnightblue" d="M265.198,-530.714C287.603,-534.448 312.314,-538.566 333.795,-542.146"/>
<polygon fill="midnightblue" stroke="midnightblue" points="265.526,-527.22 255.086,-529.028 264.375,-534.125 265.526,-527.22"/>
</g>
<!-- Node7 -->
<g id="node7" class="node"><title>Node7</title>
<g id="a_node7"><a xlink:href="class_omni_o_g_l_1_1_cube.html#a86352bb28ba6e31c2a1c995b30a3cd25" target="_top" xlink:title="The &quot;= operator&quot; for the Cube class. This method sets all of the Cube class members of one Cube to be...">
<polygon fill="white" stroke="black" points="323,-498.014 323,-517.014 459,-517.014 459,-498.014 323,-498.014"/>
<text text-anchor="middle" x="391" y="-505.014" font-family="Helvetica,sans-Serif" font-size="10.00">OmniOGL::Cube::operator=</text>
</a>
</g>
</g>
<!-- Node5&#45;&gt;Node7 -->
<g id="edge6" class="edge"><title>Node5&#45;&gt;Node7</title>
<path fill="none" stroke="midnightblue" d="M280.312,-514.369C294.543,-513.48 309.185,-512.565 322.95,-511.705"/>
<polygon fill="midnightblue" stroke="midnightblue" points="279.802,-510.894 270.04,-515.011 280.239,-517.881 279.802,-510.894"/>
</g>
<!-- Node8 -->
<g id="node8" class="node"><title>Node8</title>
<g id="a_node8"><a xlink:href="class_omni_o_g_l_1_1_floor.html#a2f9d6cc54ea9629077201252b2deac27" target="_top" xlink:title="Assignment operator method. This method is called whenever a Floor is on the left&#45;hand side of an &#39;=&#39;...">
<polygon fill="white" stroke="black" points="323.5,-460.014 323.5,-479.014 458.5,-479.014 458.5,-460.014 323.5,-460.014"/>
<text text-anchor="middle" x="391" y="-467.014" font-family="Helvetica,sans-Serif" font-size="10.00">OmniOGL::Floor::operator=</text>
</a>
</g>
</g>
<!-- Node5&#45;&gt;Node8 -->
<g id="edge7" class="edge"><title>Node5&#45;&gt;Node8</title>
<path fill="none" stroke="midnightblue" d="M245.306,-507.372C254.825,-504.843 264.747,-502.144 274,-499.514 290.093,-494.94 293.853,-492.893 310,-488.514 322.124,-485.225 335.366,-481.953 347.525,-479.073"/>
<polygon fill="midnightblue" stroke="midnightblue" points="244.353,-504.004 235.576,-509.937 246.138,-510.772 244.353,-504.004"/>
</g>
<!-- Node9 -->
<g id="node9" class="node"><title>Node9</title>
<g id="a_node9"><a xlink:href="class_omni_o_g_l_1_1_text_overlay.html#aac511da2435b188ccb84ae6e1de1c7f0" target="_top" xlink:title="The assignment operator method for this class. This method is responsible for setting all of the memb...">
<polygon fill="white" stroke="black" points="332.5,-683.514 332.5,-713.514 449.5,-713.514 449.5,-683.514 332.5,-683.514"/>
<text text-anchor="start" x="340.5" y="-701.514" font-family="Helvetica,sans-Serif" font-size="10.00">OmniOGL::TextOverlay</text>
<text text-anchor="middle" x="391" y="-690.514" font-family="Helvetica,sans-Serif" font-size="10.00">::operator=</text>
</a>
</g>
</g>
<!-- Node5&#45;&gt;Node9 -->
<g id="edge8" class="edge"><title>Node5&#45;&gt;Node9</title>
<path fill="none" stroke="midnightblue" d="M269.383,-534.521C271.002,-535.754 272.546,-537.083 274,-538.514 318.251,-582.079 267.029,-628.686 310,-673.514 316.142,-679.922 323.9,-684.695 332.154,-688.249"/>
<polygon fill="midnightblue" stroke="midnightblue" points="271.069,-531.447 260.734,-529.116 267.359,-537.383 271.069,-531.447"/>
</g>
<!-- Node10 -->
<g id="node10" class="node"><title>Node10</title>
<g id="a_node10"><a xlink:href="class_omni_o_g_l_1_1_line_strip.html#a16bb6a0a3573bdd448482cf67f983e6e" target="_top" xlink:title="The assignment operator method which is responsible for copying the data of one instance over to the ...">
<polygon fill="white" stroke="black" points="339,-634.514 339,-664.514 443,-664.514 443,-634.514 339,-634.514"/>
<text text-anchor="start" x="347" y="-652.514" font-family="Helvetica,sans-Serif" font-size="10.00">OmniOGL::LineStrip</text>
<text text-anchor="middle" x="391" y="-641.514" font-family="Helvetica,sans-Serif" font-size="10.00">::operator=</text>
</a>
</g>
</g>
<!-- Node5&#45;&gt;Node10 -->
<g id="edge9" class="edge"><title>Node5&#45;&gt;Node10</title>
<path fill="none" stroke="midnightblue" d="M268.293,-534.229C270.288,-535.541 272.198,-536.966 274,-538.514 305.432,-565.513 279.362,-596.616 310,-624.514 318.069,-631.862 328.277,-637.05 338.678,-640.713"/>
<polygon fill="midnightblue" stroke="midnightblue" points="269.525,-530.913 259.074,-529.172 266.158,-537.05 269.525,-530.913"/>
</g>
<!-- Node11 -->
<g id="node11" class="node"><title>Node11</title>
<g id="a_node11"><a xlink:href="class_omni_o_g_l_1_1_block_array.html#aa65d78b3ff0f2d2c27011a8f057aa07d" target="_top" xlink:title="The &quot;=&quot; operator method for the BlockArray class. This method copies all data from one existing Block...">
<polygon fill="white" stroke="black" points="334,-585.514 334,-615.514 448,-615.514 448,-585.514 334,-585.514"/>
<text text-anchor="start" x="342" y="-603.514" font-family="Helvetica,sans-Serif" font-size="10.00">OmniOGL::BlockArray</text>
<text text-anchor="middle" x="391" y="-592.514" font-family="Helvetica,sans-Serif" font-size="10.00">::operator=</text>
</a>
</g>
</g>
<!-- Node5&#45;&gt;Node11 -->
<g id="edge10" class="edge"><title>Node5&#45;&gt;Node11</title>
<path fill="none" stroke="midnightblue" d="M261.699,-532.561C265.971,-534.305 270.115,-536.279 274,-538.514 293.888,-549.955 290.452,-563.502 310,-575.514 317.315,-580.009 325.507,-583.759 333.784,-586.87"/>
<polygon fill="midnightblue" stroke="midnightblue" points="262.787,-529.232 252.193,-529.1 260.392,-535.81 262.787,-529.232"/>
</g>
<!-- Node5&#45;&gt;Node12 -->
<g id="edge11" class="edge"><title>Node5&#45;&gt;Node12</title>
<path fill="none" stroke="midnightblue" d="M262.08,-506.181C266.262,-504.251 270.282,-502.042 274,-499.514 296.345,-484.317 287.473,-465.44 310,-450.514 315.831,-446.65 322.361,-443.57 329.108,-441.114"/>
<polygon fill="midnightblue" stroke="midnightblue" points="260.671,-502.975 252.717,-509.975 263.3,-509.463 260.671,-502.975"/>
</g>
<!-- Node15 -->
<g id="node15" class="node"><title>Node15</title>
<g id="a_node15"><a xlink:href="_exec_8cpp.html#a38c5e7def3be6ea702581ee4a92b9cc0" target="_top" xlink:title="render">
<polygon fill="white" stroke="black" points="858,-77.0139 858,-96.0139 902,-96.0139 902,-77.0139 858,-77.0139"/>
<text text-anchor="middle" x="880" y="-84.0139" font-family="Helvetica,sans-Serif" font-size="10.00">render</text>
</a>
</g>
</g>
<!-- Node14&#45;&gt;Node15 -->
<g id="edge14" class="edge"><title>Node14&#45;&gt;Node15</title>
<path fill="none" stroke="midnightblue" d="M652.754,-45.754C700.491,-48.9838 765.681,-55.3083 822,-67.5139 834.131,-70.1431 847.301,-74.4334 857.922,-78.2725"/>
<polygon fill="midnightblue" stroke="midnightblue" points="652.743,-42.246 642.538,-45.0919 652.29,-49.2314 652.743,-42.246"/>
</g>
<!-- Node15&#45;&gt;Node3 -->
<g id="edge15" class="edge"><title>Node15&#45;&gt;Node3</title>
<path fill="none" stroke="midnightblue" d="M895.98,-103.634C913.692,-123.877 942.545,-156.851 956.672,-172.997"/>
<polygon fill="midnightblue" stroke="midnightblue" points="898.58,-101.291 889.361,-96.0697 893.312,-105.9 898.58,-101.291"/>
</g>
<!-- Node17 -->
<g id="node17" class="node"><title>Node17</title>
<g id="a_node17"><a xlink:href="class_omni_o_g_l_1_1_voxel.html#a612f60e83446d91e456002ec9df2e4b4" target="_top" xlink:title="A method which takes a LineStrip as a parameter and adds the 12 line segments which represent the edg...">
<polygon fill="white" stroke="black" points="310.5,-384.014 310.5,-403.014 471.5,-403.014 471.5,-384.014 310.5,-384.014"/>
<text text-anchor="middle" x="391" y="-391.014" font-family="Helvetica,sans-Serif" font-size="10.00">OmniOGL::Voxel::AddCubeMesh</text>
</a>
</g>
</g>
<!-- Node16&#45;&gt;Node17 -->
<g id="edge17" class="edge"><title>Node16&#45;&gt;Node17</title>
<path fill="none" stroke="midnightblue" d="M259.583,-389.438C275.746,-389.943 293.41,-390.495 310.371,-391.025"/>
<polygon fill="midnightblue" stroke="midnightblue" points="259.305,-385.928 249.2,-389.114 259.086,-392.925 259.305,-385.928"/>
</g>
<!-- Node18 -->
<g id="node18" class="node"><title>Node18</title>
<g id="a_node18"><a xlink:href="class_omni_o_g_l_1_1_block_array.html#ad00adebf2f11e675cfe560d9862a4ebe" target="_top" xlink:title="Processes the normals stored in this class&#39;s members and converts all normal lines into a single Line...">
<polygon fill="white" stroke="black" points="334,-334.514 334,-364.514 448,-364.514 448,-334.514 334,-334.514"/>
<text text-anchor="start" x="342" y="-352.514" font-family="Helvetica,sans-Serif" font-size="10.00">OmniOGL::BlockArray</text>
<text text-anchor="middle" x="391" y="-341.514" font-family="Helvetica,sans-Serif" font-size="10.00">::GetNormals</text>
</a>
</g>
</g>
<!-- Node16&#45;&gt;Node18 -->
<g id="edge18" class="edge"><title>Node16&#45;&gt;Node18</title>
<path fill="none" stroke="midnightblue" d="M259.236,-375.394C283.178,-370.656 310.456,-365.257 333.88,-360.621"/>
<polygon fill="midnightblue" stroke="midnightblue" points="258.33,-372.006 249.2,-377.381 259.69,-378.872 258.33,-372.006"/>
</g>
<!-- Node19 -->
<g id="node19" class="node"><title>Node19</title>
<g id="a_node19"><a xlink:href="class_omni_o_g_l_1_1_section_collection.html#abe45275bef4b3ae221ccba89da393359" target="_top" xlink:title="OmniOGL::SectionCollection\l::GetGridlines">
<polygon fill="white" stroke="black" points="320,-285.514 320,-315.514 462,-315.514 462,-285.514 320,-285.514"/>
<text text-anchor="start" x="328" y="-303.514" font-family="Helvetica,sans-Serif" font-size="10.00">OmniOGL::SectionCollection</text>
<text text-anchor="middle" x="391" y="-292.514" font-family="Helvetica,sans-Serif" font-size="10.00">::GetGridlines</text>
</a>
</g>
</g>
<!-- Node16&#45;&gt;Node19 -->
<g id="edge19" class="edge"><title>Node16&#45;&gt;Node19</title>
<path fill="none" stroke="midnightblue" d="M258.347,-370.798C263.809,-368.362 269.115,-365.611 274,-362.514 293.648,-350.056 290.19,-336.712 310,-324.514 315.556,-321.092 321.631,-318.132 327.87,-315.577"/>
<polygon fill="midnightblue" stroke="midnightblue" points="256.983,-367.575 249.056,-374.605 259.636,-374.052 256.983,-367.575"/>
</g>
<!-- Node19&#45;&gt;Node20 -->
<g id="edge20" class="edge"><title>Node19&#45;&gt;Node20</title>
<path fill="none" stroke="midnightblue" d="M467.179,-283.195C492.556,-277.349 519.941,-271.041 541.707,-266.026"/>
<polygon fill="midnightblue" stroke="midnightblue" points="466.156,-279.839 457.197,-285.495 467.728,-286.66 466.156,-279.839"/>
</g>
<!-- Node26&#45;&gt;Node25 -->
<g id="edge28" class="edge"><title>Node26&#45;&gt;Node25</title>
<path fill="none" stroke="midnightblue" d="M266.767,-104.064C287.851,-109.444 310.845,-115.313 331.2,-120.508"/>
<polygon fill="midnightblue" stroke="midnightblue" points="267.466,-100.63 256.911,-101.549 265.735,-107.413 267.466,-100.63"/>
</g>
<!-- Node27 -->
<g id="node27" class="node"><title>Node27</title>
<g id="a_node27"><a xlink:href="class_omni_o_g_l_1_1_section_collection.html#a8eb741628a5957199c4c511be6e4f599" target="_top" xlink:title="OmniOGL::SectionCollection\l::UpdateCurrentSection">
<polygon fill="white" stroke="black" points="320,-71.5139 320,-101.514 462,-101.514 462,-71.5139 320,-71.5139"/>
<text text-anchor="start" x="328" y="-89.5139" font-family="Helvetica,sans-Serif" font-size="10.00">OmniOGL::SectionCollection</text>
<text text-anchor="middle" x="391" y="-78.5139" font-family="Helvetica,sans-Serif" font-size="10.00">::UpdateCurrentSection</text>
</a>
</g>
</g>
<!-- Node26&#45;&gt;Node27 -->
<g id="edge29" class="edge"><title>Node26&#45;&gt;Node27</title>
<path fill="none" stroke="midnightblue" d="M283.679,-86.5139C295.751,-86.5139 308.043,-86.5139 319.78,-86.5139"/>
<polygon fill="midnightblue" stroke="midnightblue" points="283.608,-83.014 273.608,-86.5139 283.608,-90.014 283.608,-83.014"/>
</g>
<!-- Node27&#45;&gt;Node20 -->
<g id="edge30" class="edge"><title>Node27&#45;&gt;Node20</title>
<path fill="none" stroke="midnightblue" d="M464.909,-106.095C467.359,-107.471 469.732,-108.942 472,-110.514 526.17,-148.061 565.312,-220.346 578.311,-246.642"/>
<polygon fill="midnightblue" stroke="midnightblue" points="466.263,-102.858 455.753,-101.515 463.131,-109.119 466.263,-102.858"/>
</g>
<!-- Node28 -->
<g id="node28" class="node"><title>Node28</title>
<g id="a_node28"><a xlink:href="class_omni_o_g_l_1_1_scene.html#aaf90a48c617a97b06e8b75320c0271b0" target="_top" xlink:title="OmniOGL::Scene::HandleInput">
<polygon fill="white" stroke="black" points="508.5,-77.0139 508.5,-96.0139 659.5,-96.0139 659.5,-77.0139 508.5,-77.0139"/>
<text text-anchor="middle" x="584" y="-84.0139" font-family="Helvetica,sans-Serif" font-size="10.00">OmniOGL::Scene::HandleInput</text>
</a>
</g>
</g>
<!-- Node27&#45;&gt;Node28 -->
<g id="edge31" class="edge"><title>Node27&#45;&gt;Node28</title>
<path fill="none" stroke="midnightblue" d="M472.073,-86.5139C484.135,-86.5139 496.535,-86.5139 508.475,-86.5139"/>
<polygon fill="midnightblue" stroke="midnightblue" points="472.037,-83.014 462.037,-86.5139 472.037,-90.014 472.037,-83.014"/>
</g>
<!-- Node29 -->
<g id="node29" class="node"><title>Node29</title>
<g id="a_node29"><a xlink:href="class_omni_o_g_l_1_1_scene.html#ac65b18faabaa3d2af9a0a4b2f2fc0fe0" target="_top" xlink:title="The core of the rendering loop! This method iterates through all possible containers of objects&#45;to&#45;be...">
<polygon fill="white" stroke="black" points="698,-77.0139 698,-96.0139 820,-96.0139 820,-77.0139 698,-77.0139"/>
<text text-anchor="middle" x="759" y="-84.0139" font-family="Helvetica,sans-Serif" font-size="10.00">OmniOGL::Scene::Draw</text>
</a>
</g>
</g>
<!-- Node28&#45;&gt;Node29 -->
<g id="edge32" class="edge"><title>Node28&#45;&gt;Node29</title>
<path fill="none" stroke="midnightblue" d="M669.879,-86.5139C679.359,-86.5139 688.866,-86.5139 697.943,-86.5139"/>
<polygon fill="midnightblue" stroke="midnightblue" points="669.623,-83.014 659.623,-86.5139 669.623,-90.014 669.623,-83.014"/>
</g>
<!-- Node29&#45;&gt;Node15 -->
<g id="edge33" class="edge"><title>Node29&#45;&gt;Node15</title>
<path fill="none" stroke="midnightblue" d="M830.262,-86.5139C840.231,-86.5139 849.784,-86.5139 857.749,-86.5139"/>
<polygon fill="midnightblue" stroke="midnightblue" points="830.197,-83.014 820.197,-86.5139 830.197,-90.014 830.197,-83.014"/>
</g>
</g>
</svg>
