<?xml version="1.0" encoding="UTF-8" standalone="no"?>
<!DOCTYPE svg PUBLIC "-//W3C//DTD SVG 1.1//EN"
 "http://www.w3.org/Graphics/SVG/1.1/DTD/svg11.dtd">
<!-- Generated by graphviz version 2.30.1 (20130214.1330)
 -->
<!-- Title: OmniOGL::AddDerivedObj Pages: 1 -->
<svg width="508pt" height="28pt"
 viewBox="0.00 0.00 508.00 28.00" xmlns="http://www.w3.org/2000/svg" xmlns:xlink="http://www.w3.org/1999/xlink">
<g id="graph0" class="graph" transform="scale(1 1) rotate(0) translate(4 24)">
<title>OmniOGL::AddDerivedObj</title>
<polygon fill="white" stroke="white" points="-4,5 -4,-24 505,-24 505,5 -4,5"/>
<!-- Node1 -->
<g id="node1" class="node"><title>Node1</title>
<polygon fill="#bfbfbf" stroke="black" points="0,-0.5 0,-19.5 130,-19.5 130,-0.5 0,-0.5"/>
<text text-anchor="middle" x="65" y="-7.5" font-family="Helvetica,sans-Serif" font-size="10.00">OmniOGL::AddDerivedObj</text>
</g>
<!-- Node2 -->
<g id="node2" class="node"><title>Node2</title>
<g id="a_node2"><a xlink:href="class_omni_o_g_l_1_1_scene.html#a63db7f91d326ad1a20741b31417b8148" target="_top" xlink:title="A template method which adds an renderable object of type T to the scene. It is assumed that T is a d...">
<polygon fill="white" stroke="black" points="166,-0.5 166,-19.5 312,-19.5 312,-0.5 166,-0.5"/>
<text text-anchor="middle" x="239" y="-7.5" font-family="Helvetica,sans-Serif" font-size="10.00">OmniOGL::Scene::AddObject</text>
</a>
</g>
</g>
<!-- Node1&#45;&gt;Node2 -->
<g id="edge1" class="edge"><title>Node1&#45;&gt;Node2</title>
<path fill="none" stroke="midnightblue" d="M130.046,-10C138.422,-10 147.095,-10 155.717,-10"/>
<polygon fill="midnightblue" stroke="midnightblue" points="155.796,-13.5001 165.796,-10 155.796,-6.5001 155.796,-13.5001"/>
</g>
<!-- Node3 -->
<g id="node3" class="node"><title>Node3</title>
<g id="a_node3"><a xlink:href="class_omni_o_g_l_1_1_section.html#a20b4cf2c6472d59e9967aa8dbad377a4" target="_top" xlink:title="Adds an object to the Section&#39;s collection (linked list) of objects. This method also increments Sect...">
<polygon fill="white" stroke="black" points="348.5,-0.5 348.5,-19.5 499.5,-19.5 499.5,-0.5 348.5,-0.5"/>
<text text-anchor="middle" x="424" y="-7.5" font-family="Helvetica,sans-Serif" font-size="10.00">OmniOGL::Section::AddObject</text>
</a>
</g>
</g>
<!-- Node2&#45;&gt;Node3 -->
<g id="edge2" class="edge"><title>Node2&#45;&gt;Node3</title>
<path fill="none" stroke="midnightblue" d="M312.064,-10C320.619,-10 329.411,-10 338.123,-10"/>
<polygon fill="midnightblue" stroke="midnightblue" points="338.294,-13.5001 348.294,-10 338.294,-6.5001 338.294,-13.5001"/>
</g>
</g>
</svg>
