<?xml version="1.0" encoding="UTF-8" standalone="no"?>
<!DOCTYPE svg PUBLIC "-//W3C//DTD SVG 1.1//EN"
 "http://www.w3.org/Graphics/SVG/1.1/DTD/svg11.dtd">
<!-- Generated by graphviz version 2.30.1 (20130214.1330)
 -->
<!-- Title: OmniOGL::DumpMemoryLeaks Pages: 1 -->
<svg width="392pt" height="28pt"
 viewBox="0.00 0.00 392.00 28.00" xmlns="http://www.w3.org/2000/svg" xmlns:xlink="http://www.w3.org/1999/xlink">
<g id="graph0" class="graph" transform="scale(1 1) rotate(0) translate(4 24)">
<title>OmniOGL::DumpMemoryLeaks</title>
<polygon fill="white" stroke="white" points="-4,5 -4,-24 389,-24 389,5 -4,5"/>
<!-- Node1 -->
<g id="node1" class="node"><title>Node1</title>
<polygon fill="#bfbfbf" stroke="black" points="0.5,-0.5 0.5,-19.5 153.5,-19.5 153.5,-0.5 0.5,-0.5"/>
<text text-anchor="middle" x="77" y="-7.5" font-family="Helvetica,sans-Serif" font-size="10.00">OmniOGL::DumpMemoryLeaks</text>
</g>
<!-- Node2 -->
<g id="node2" class="node"><title>Node2</title>
<g id="a_node2"><a xlink:href="namespace_omni_o_g_l.html#a748c37cacee8502de8ee4367c07c9a8b" target="_top" xlink:title="Responsible for appropriately disposing of all resources not owned by another class (or not taken car...">
<polygon fill="white" stroke="black" points="190.5,-0.5 190.5,-19.5 291.5,-19.5 291.5,-0.5 190.5,-0.5"/>
<text text-anchor="middle" x="241" y="-7.5" font-family="Helvetica,sans-Serif" font-size="10.00">OmniOGL::Recycle</text>
</a>
</g>
</g>
<!-- Node1&#45;&gt;Node2 -->
<g id="edge1" class="edge"><title>Node1&#45;&gt;Node2</title>
<path fill="none" stroke="midnightblue" d="M163.928,-10C172.904,-10 181.8,-10 190.171,-10"/>
<polygon fill="midnightblue" stroke="midnightblue" points="163.783,-6.5001 153.783,-10 163.782,-13.5001 163.783,-6.5001"/>
</g>
<!-- Node3 -->
<g id="node3" class="node"><title>Node3</title>
<g id="a_node3"><a xlink:href="_exec_8cpp.html#a66e65252a6985e382838442f280f46ba" target="_top" xlink:title="WinMain">
<polygon fill="white" stroke="black" points="328.5,-0.5 328.5,-19.5 383.5,-19.5 383.5,-0.5 328.5,-0.5"/>
<text text-anchor="middle" x="356" y="-7.5" font-family="Helvetica,sans-Serif" font-size="10.00">WinMain</text>
</a>
</g>
</g>
<!-- Node2&#45;&gt;Node3 -->
<g id="edge2" class="edge"><title>Node2&#45;&gt;Node3</title>
<path fill="none" stroke="midnightblue" d="M301.727,-10C311.096,-10 320.346,-10 328.443,-10"/>
<polygon fill="midnightblue" stroke="midnightblue" points="301.563,-6.5001 291.563,-10 301.563,-13.5001 301.563,-6.5001"/>
</g>
</g>
</svg>
