<?xml version="1.0" encoding="UTF-8" standalone="no"?>
<!DOCTYPE svg PUBLIC "-//W3C//DTD SVG 1.1//EN"
 "http://www.w3.org/Graphics/SVG/1.1/DTD/svg11.dtd">
<!-- Generated by graphviz version 2.30.1 (20130214.1330)
 -->
<!-- Title: OmniOGL::MakVertShad Pages: 1 -->
<svg width="434pt" height="180pt"
 viewBox="0.00 0.00 434.00 180.00" xmlns="http://www.w3.org/2000/svg" xmlns:xlink="http://www.w3.org/1999/xlink">
<g id="graph0" class="graph" transform="scale(1 1) rotate(0) translate(4 176)">
<title>OmniOGL::MakVertShad</title>
<polygon fill="white" stroke="white" points="-4,5 -4,-176 431,-176 431,5 -4,5"/>
<!-- Node1 -->
<g id="node1" class="node"><title>Node1</title>
<polygon fill="#bfbfbf" stroke="black" points="0.5,-76.5 0.5,-95.5 125.5,-95.5 125.5,-76.5 0.5,-76.5"/>
<text text-anchor="middle" x="63" y="-83.5" font-family="Helvetica,sans-Serif" font-size="10.00">OmniOGL::MakVertShad</text>
</g>
<!-- Node2 -->
<g id="node2" class="node"><title>Node2</title>
<g id="a_node2"><a xlink:href="namespace_omni_o_g_l.html#abe5ff24d55002e6ebffb4415d994260a" target="_top" xlink:title="Sets the pointer to the value &#45;1.">
<polygon fill="white" stroke="black" points="189,-152.5 189,-171.5 273,-171.5 273,-152.5 189,-152.5"/>
<text text-anchor="middle" x="231" y="-159.5" font-family="Helvetica,sans-Serif" font-size="10.00">OmniOGL::_Init</text>
</a>
</g>
</g>
<!-- Node1&#45;&gt;Node2 -->
<g id="edge1" class="edge"><title>Node1&#45;&gt;Node2</title>
<path fill="none" stroke="midnightblue" d="M78.0123,-95.6967C96.5154,-108.131 130.451,-129.675 162,-143 167.498,-145.322 173.364,-147.448 179.259,-149.369"/>
<polygon fill="midnightblue" stroke="midnightblue" points="178.562,-152.816 189.149,-152.405 180.617,-146.124 178.562,-152.816"/>
</g>
<!-- Node3 -->
<g id="node3" class="node"><title>Node3</title>
<g id="a_node3"><a xlink:href="namespace_omni_o_g_l.html#a669a68a7e0b56e9d63f62b13e186ea48" target="_top" xlink:title="Returns the contents of a file as a string.">
<polygon fill="white" stroke="black" points="162.5,-114.5 162.5,-133.5 299.5,-133.5 299.5,-114.5 162.5,-114.5"/>
<text text-anchor="middle" x="231" y="-121.5" font-family="Helvetica,sans-Serif" font-size="10.00">OmniOGL::GetFileContents</text>
</a>
</g>
</g>
<!-- Node1&#45;&gt;Node3 -->
<g id="edge2" class="edge"><title>Node1&#45;&gt;Node3</title>
<path fill="none" stroke="midnightblue" d="M105.889,-95.589C127.893,-100.626 155.055,-106.844 178.352,-112.177"/>
<polygon fill="midnightblue" stroke="midnightblue" points="177.884,-115.66 188.412,-114.48 179.446,-108.837 177.884,-115.66"/>
</g>
<!-- Node4 -->
<g id="node4" class="node"><title>Node4</title>
<g id="a_node4"><a xlink:href="namespace_omni_o_g_l.html#a80cd48382ee4083e78ba3431e570b82c" target="_top" xlink:title="A wrapper around the new[] keyword. Allocates the desired number of elements to the given pointer...">
<polygon fill="white" stroke="black" points="186,-76.5 186,-95.5 276,-95.5 276,-76.5 186,-76.5"/>
<text text-anchor="middle" x="231" y="-83.5" font-family="Helvetica,sans-Serif" font-size="10.00">OmniOGL::_New</text>
</a>
</g>
</g>
<!-- Node1&#45;&gt;Node4 -->
<g id="edge3" class="edge"><title>Node1&#45;&gt;Node4</title>
<path fill="none" stroke="midnightblue" d="M125.812,-86C142.145,-86 159.652,-86 175.563,-86"/>
<polygon fill="midnightblue" stroke="midnightblue" points="175.76,-89.5001 185.76,-86 175.76,-82.5001 175.76,-89.5001"/>
</g>
<!-- Node5 -->
<g id="node5" class="node"><title>Node5</title>
<g id="a_node5"><a xlink:href="namespace_omni_o_g_l.html#a8f559408c62db097a1a918d7f58f4183" target="_top" xlink:title="A &quot;clone&quot; of the well&#45;known printf() function, with the debug routed to the OutputDebugString() funct...">
<polygon fill="white" stroke="black" points="336,-38.5 336,-57.5 426,-57.5 426,-38.5 336,-38.5"/>
<text text-anchor="middle" x="381" y="-45.5" font-family="Helvetica,sans-Serif" font-size="10.00">OmniOGL::dprint</text>
</a>
</g>
</g>
<!-- Node1&#45;&gt;Node5 -->
<g id="edge5" class="edge"><title>Node1&#45;&gt;Node5</title>
<path fill="none" stroke="midnightblue" d="M108.23,-76.4066C125.005,-73.0367 144.322,-69.4771 162,-67 217.381,-59.2397 281.15,-54.1219 325.35,-51.1735"/>
<polygon fill="midnightblue" stroke="midnightblue" points="325.838,-54.6492 335.589,-50.5059 325.382,-47.664 325.838,-54.6492"/>
</g>
<!-- Node6 -->
<g id="node6" class="node"><title>Node6</title>
<g id="a_node6"><a xlink:href="namespace_omni_o_g_l.html#ab790cf1cdc8d2bcbdbbe06c6d87f1a1d" target="_top" xlink:title="A wrapper for the delete[] keyword. Always uses delete[], and never delete.">
<polygon fill="white" stroke="black" points="181.5,-0.5 181.5,-19.5 280.5,-19.5 280.5,-0.5 181.5,-0.5"/>
<text text-anchor="middle" x="231" y="-7.5" font-family="Helvetica,sans-Serif" font-size="10.00">OmniOGL::_Delete</text>
</a>
</g>
</g>
<!-- Node1&#45;&gt;Node6 -->
<g id="edge6" class="edge"><title>Node1&#45;&gt;Node6</title>
<path fill="none" stroke="midnightblue" d="M80.2753,-76.4005C99.4243,-65.3347 132.37,-47.0039 162,-34 171.019,-30.0419 180.916,-26.2499 190.301,-22.8958"/>
<polygon fill="midnightblue" stroke="midnightblue" points="191.547,-26.1682 199.837,-19.5704 189.242,-19.5586 191.547,-26.1682"/>
</g>
<!-- Node4&#45;&gt;Node5 -->
<g id="edge4" class="edge"><title>Node4&#45;&gt;Node5</title>
<path fill="none" stroke="midnightblue" d="M269.347,-76.411C288.701,-71.4417 312.53,-65.3233 333.113,-60.0387"/>
<polygon fill="midnightblue" stroke="midnightblue" points="334.107,-63.3971 342.922,-57.5201 332.366,-56.617 334.107,-63.3971"/>
</g>
<!-- Node6&#45;&gt;Node5 -->
<g id="edge7" class="edge"><title>Node6&#45;&gt;Node5</title>
<path fill="none" stroke="midnightblue" d="M269.347,-19.589C288.701,-24.5583 312.53,-30.6767 333.113,-35.9613"/>
<polygon fill="midnightblue" stroke="midnightblue" points="332.366,-39.383 342.922,-38.4799 334.107,-32.6029 332.366,-39.383"/>
</g>
</g>
</svg>
