<?xml version="1.0" encoding="UTF-8" standalone="no"?>
<!DOCTYPE svg PUBLIC "-//W3C//DTD SVG 1.1//EN"
 "http://www.w3.org/Graphics/SVG/1.1/DTD/svg11.dtd">
<!-- Generated by graphviz version 2.30.1 (20130214.1330)
 -->
<!-- Title: OmniOGL::evnt_MouseBtn Pages: 1 -->
<svg width="678pt" height="66pt"
 viewBox="0.00 0.00 678.00 66.00" xmlns="http://www.w3.org/2000/svg" xmlns:xlink="http://www.w3.org/1999/xlink">
<g id="graph0" class="graph" transform="scale(1 1) rotate(0) translate(4 62)">
<title>OmniOGL::evnt_MouseBtn</title>
<polygon fill="white" stroke="white" points="-4,5 -4,-62 675,-62 675,5 -4,5"/>
<!-- Node1 -->
<g id="node1" class="node"><title>Node1</title>
<polygon fill="#bfbfbf" stroke="black" points="0.5,-19.5 0.5,-38.5 133.5,-38.5 133.5,-19.5 0.5,-19.5"/>
<text text-anchor="middle" x="67" y="-26.5" font-family="Helvetica,sans-Serif" font-size="10.00">OmniOGL::evnt_MouseBtn</text>
</g>
<!-- Node2 -->
<g id="node2" class="node"><title>Node2</title>
<g id="a_node2"><a xlink:href="namespace_omni_o_g_l.html#a8f559408c62db097a1a918d7f58f4183" target="_top" xlink:title="A &quot;clone&quot; of the well&#45;known printf() function, with the debug routed to the OutputDebugString() funct...">
<polygon fill="white" stroke="black" points="190,-38.5 190,-57.5 280,-57.5 280,-38.5 190,-38.5"/>
<text text-anchor="middle" x="235" y="-45.5" font-family="Helvetica,sans-Serif" font-size="10.00">OmniOGL::dprint</text>
</a>
</g>
</g>
<!-- Node1&#45;&gt;Node2 -->
<g id="edge1" class="edge"><title>Node1&#45;&gt;Node2</title>
<path fill="none" stroke="midnightblue" d="M133.608,-36.5093C148.923,-38.2623 165.066,-40.11 179.821,-41.7988"/>
<polygon fill="midnightblue" stroke="midnightblue" points="179.454,-45.2796 189.788,-42.9395 180.25,-38.325 179.454,-45.2796"/>
</g>
<!-- Node3 -->
<g id="node3" class="node"><title>Node3</title>
<g id="a_node3"><a xlink:href="namespace_omni_o_g_l.html#af5108efeb0d59c8b63da8231e70c987f" target="_top" xlink:title="In the current implementation this function must determine the derived type of the shared pointer pas...">
<polygon fill="white" stroke="black" points="170,-0.5 170,-19.5 300,-19.5 300,-0.5 170,-0.5"/>
<text text-anchor="middle" x="235" y="-7.5" font-family="Helvetica,sans-Serif" font-size="10.00">OmniOGL::AddDerivedObj</text>
</a>
</g>
</g>
<!-- Node1&#45;&gt;Node3 -->
<g id="edge2" class="edge"><title>Node1&#45;&gt;Node3</title>
<path fill="none" stroke="midnightblue" d="M133.608,-21.4907C142.206,-20.5066 151.064,-19.4926 159.792,-18.4937"/>
<polygon fill="midnightblue" stroke="midnightblue" points="160.417,-21.9451 169.954,-17.3306 159.62,-14.9906 160.417,-21.9451"/>
</g>
<!-- Node4 -->
<g id="node4" class="node"><title>Node4</title>
<g id="a_node4"><a xlink:href="class_omni_o_g_l_1_1_scene.html#a63db7f91d326ad1a20741b31417b8148" target="_top" xlink:title="A template method which adds an renderable object of type T to the scene. It is assumed that T is a d...">
<polygon fill="white" stroke="black" points="336,-0.5 336,-19.5 482,-19.5 482,-0.5 336,-0.5"/>
<text text-anchor="middle" x="409" y="-7.5" font-family="Helvetica,sans-Serif" font-size="10.00">OmniOGL::Scene::AddObject</text>
</a>
</g>
</g>
<!-- Node3&#45;&gt;Node4 -->
<g id="edge3" class="edge"><title>Node3&#45;&gt;Node4</title>
<path fill="none" stroke="midnightblue" d="M300.046,-10C308.422,-10 317.095,-10 325.717,-10"/>
<polygon fill="midnightblue" stroke="midnightblue" points="325.796,-13.5001 335.796,-10 325.796,-6.5001 325.796,-13.5001"/>
</g>
<!-- Node5 -->
<g id="node5" class="node"><title>Node5</title>
<g id="a_node5"><a xlink:href="class_omni_o_g_l_1_1_section.html#a20b4cf2c6472d59e9967aa8dbad377a4" target="_top" xlink:title="Adds an object to the Section&#39;s collection (linked list) of objects. This method also increments Sect...">
<polygon fill="white" stroke="black" points="518.5,-0.5 518.5,-19.5 669.5,-19.5 669.5,-0.5 518.5,-0.5"/>
<text text-anchor="middle" x="594" y="-7.5" font-family="Helvetica,sans-Serif" font-size="10.00">OmniOGL::Section::AddObject</text>
</a>
</g>
</g>
<!-- Node4&#45;&gt;Node5 -->
<g id="edge4" class="edge"><title>Node4&#45;&gt;Node5</title>
<path fill="none" stroke="midnightblue" d="M482.064,-10C490.619,-10 499.411,-10 508.123,-10"/>
<polygon fill="midnightblue" stroke="midnightblue" points="508.294,-13.5001 518.294,-10 508.294,-6.5001 508.294,-13.5001"/>
</g>
</g>
</svg>
