<?xml version="1.0" encoding="UTF-8" standalone="no"?>
<!DOCTYPE svg PUBLIC "-//W3C//DTD SVG 1.1//EN"
 "http://www.w3.org/Graphics/SVG/1.1/DTD/svg11.dtd">
<!-- Generated by graphviz version 2.30.1 (20130214.1330)
 -->
<!-- Title: OmniOGL::Recycle Pages: 1 -->
<svg width="426pt" height="142pt"
 viewBox="0.00 0.00 426.00 142.00" xmlns="http://www.w3.org/2000/svg" xmlns:xlink="http://www.w3.org/1999/xlink">
<g id="graph0" class="graph" transform="scale(1 1) rotate(0) translate(4 138)">
<title>OmniOGL::Recycle</title>
<polygon fill="white" stroke="white" points="-4,5 -4,-138 423,-138 423,5 -4,5"/>
<!-- Node1 -->
<g id="node1" class="node"><title>Node1</title>
<polygon fill="#bfbfbf" stroke="black" points="0.5,-57.5 0.5,-76.5 101.5,-76.5 101.5,-57.5 0.5,-57.5"/>
<text text-anchor="middle" x="51" y="-64.5" font-family="Helvetica,sans-Serif" font-size="10.00">OmniOGL::Recycle</text>
</g>
<!-- Node2 -->
<g id="node2" class="node"><title>Node2</title>
<g id="a_node2"><a xlink:href="namespace_omni_o_g_l.html#adf7da2f49b56acf0604f6146124cbda2" target="_top" xlink:title="If #define RECORD_MEMORY is set to a non&#45;zero number, this function will return the maxmimum # of byt...">
<polygon fill="white" stroke="black" points="144.5,-114.5 144.5,-133.5 285.5,-133.5 285.5,-114.5 144.5,-114.5"/>
<text text-anchor="middle" x="215" y="-121.5" font-family="Helvetica,sans-Serif" font-size="10.00">OmniOGL::GetMaxAllocated</text>
</a>
</g>
</g>
<!-- Node1&#45;&gt;Node2 -->
<g id="edge1" class="edge"><title>Node1&#45;&gt;Node2</title>
<path fill="none" stroke="midnightblue" d="M75.9518,-76.6377C93.1254,-83.4382 116.864,-92.6152 138,-100 149.214,-103.918 161.454,-107.908 172.771,-111.48"/>
<polygon fill="midnightblue" stroke="midnightblue" points="171.84,-114.856 182.429,-114.499 173.929,-108.175 171.84,-114.856"/>
</g>
<!-- Node3 -->
<g id="node3" class="node"><title>Node3</title>
<g id="a_node3"><a xlink:href="namespace_omni_o_g_l.html#a8f559408c62db097a1a918d7f58f4183" target="_top" xlink:title="A &quot;clone&quot; of the well&#45;known printf() function, with the debug routed to the OutputDebugString() funct...">
<polygon fill="white" stroke="black" points="328,-38.5 328,-57.5 418,-57.5 418,-38.5 328,-38.5"/>
<text text-anchor="middle" x="373" y="-45.5" font-family="Helvetica,sans-Serif" font-size="10.00">OmniOGL::dprint</text>
</a>
</g>
</g>
<!-- Node1&#45;&gt;Node3 -->
<g id="edge2" class="edge"><title>Node1&#45;&gt;Node3</title>
<path fill="none" stroke="midnightblue" d="M101.839,-70.3668C150.518,-72.8633 226.614,-74.6581 292,-67 304.406,-65.547 317.677,-62.8676 329.773,-59.9699"/>
<polygon fill="midnightblue" stroke="midnightblue" points="330.762,-63.3305 339.612,-57.5066 329.062,-56.54 330.762,-63.3305"/>
</g>
<!-- Node4 -->
<g id="node4" class="node"><title>Node4</title>
<g id="a_node4"><a xlink:href="namespace_omni_o_g_l.html#a5e7d01c2eccec5725be694aa69c2ac93" target="_top" xlink:title="If #define RECORD_MEMORY is set to a non&#45;zero number, this function will return the number of bytes a...">
<polygon fill="white" stroke="black" points="141,-38.5 141,-57.5 289,-57.5 289,-38.5 141,-38.5"/>
<text text-anchor="middle" x="215" y="-45.5" font-family="Helvetica,sans-Serif" font-size="10.00">OmniOGL::GetBytesAllocated</text>
</a>
</g>
</g>
<!-- Node1&#45;&gt;Node4 -->
<g id="edge3" class="edge"><title>Node1&#45;&gt;Node4</title>
<path fill="none" stroke="midnightblue" d="M101.927,-61.1443C111.035,-60.0761 120.761,-58.9355 130.535,-57.7892"/>
<polygon fill="midnightblue" stroke="midnightblue" points="131.189,-61.2365 140.713,-56.5954 130.373,-54.2841 131.189,-61.2365"/>
</g>
<!-- Node5 -->
<g id="node5" class="node"><title>Node5</title>
<g id="a_node5"><a xlink:href="namespace_omni_o_g_l.html#ab9c488f21e10f211832f0232a44b4cef" target="_top" xlink:title="Prints to the console all &quot;recorded&quot; memory allocations which have not yet been subject to _Delete()...">
<polygon fill="white" stroke="black" points="138.5,-0.5 138.5,-19.5 291.5,-19.5 291.5,-0.5 138.5,-0.5"/>
<text text-anchor="middle" x="215" y="-7.5" font-family="Helvetica,sans-Serif" font-size="10.00">OmniOGL::DumpMemoryLeaks</text>
</a>
</g>
</g>
<!-- Node1&#45;&gt;Node5 -->
<g id="edge4" class="edge"><title>Node1&#45;&gt;Node5</title>
<path fill="none" stroke="midnightblue" d="M71.0904,-57.4318C88.2726,-49.0954 114.377,-37.1051 138,-29 145.156,-26.5448 152.79,-24.2595 160.357,-22.1862"/>
<polygon fill="midnightblue" stroke="midnightblue" points="161.442,-25.5197 170.22,-19.5863 159.658,-18.7509 161.442,-25.5197"/>
</g>
<!-- Node5&#45;&gt;Node3 -->
<g id="edge5" class="edge"><title>Node5&#45;&gt;Node3</title>
<path fill="none" stroke="midnightblue" d="M255.365,-19.589C275.951,-24.6035 301.34,-30.7881 323.169,-36.1053"/>
<polygon fill="midnightblue" stroke="midnightblue" points="322.373,-39.5137 332.918,-38.4799 324.03,-32.7126 322.373,-39.5137"/>
</g>
</g>
</svg>
