<?xml version="1.0" encoding="UTF-8" standalone="no"?>
<!DOCTYPE svg PUBLIC "-//W3C//DTD SVG 1.1//EN"
 "http://www.w3.org/Graphics/SVG/1.1/DTD/svg11.dtd">
<!-- Generated by graphviz version 2.30.1 (20130214.1330)
 -->
<!-- Title: OmniOGL::GetBytesAllocated Pages: 1 -->
<svg width="386pt" height="28pt"
 viewBox="0.00 0.00 386.00 28.00" xmlns="http://www.w3.org/2000/svg" xmlns:xlink="http://www.w3.org/1999/xlink">
<g id="graph0" class="graph" transform="scale(1 1) rotate(0) translate(4 24)">
<title>OmniOGL::GetBytesAllocated</title>
<polygon fill="white" stroke="white" points="-4,5 -4,-24 383,-24 383,5 -4,5"/>
<!-- Node1 -->
<g id="node1" class="node"><title>Node1</title>
<polygon fill="#bfbfbf" stroke="black" points="0,-0.5 0,-19.5 148,-19.5 148,-0.5 0,-0.5"/>
<text text-anchor="middle" x="74" y="-7.5" font-family="Helvetica,sans-Serif" font-size="10.00">OmniOGL::GetBytesAllocated</text>
</g>
<!-- Node2 -->
<g id="node2" class="node"><title>Node2</title>
<g id="a_node2"><a xlink:href="namespace_omni_o_g_l.html#a748c37cacee8502de8ee4367c07c9a8b" target="_top" xlink:title="Responsible for appropriately disposing of all resources not owned by another class (or not taken car...">
<polygon fill="white" stroke="black" points="184.5,-0.5 184.5,-19.5 285.5,-19.5 285.5,-0.5 184.5,-0.5"/>
<text text-anchor="middle" x="235" y="-7.5" font-family="Helvetica,sans-Serif" font-size="10.00">OmniOGL::Recycle</text>
</a>
</g>
</g>
<!-- Node1&#45;&gt;Node2 -->
<g id="edge1" class="edge"><title>Node1&#45;&gt;Node2</title>
<path fill="none" stroke="midnightblue" d="M158.481,-10C167.362,-10 176.176,-10 184.48,-10"/>
<polygon fill="midnightblue" stroke="midnightblue" points="158.45,-6.5001 148.45,-10 158.45,-13.5001 158.45,-6.5001"/>
</g>
<!-- Node3 -->
<g id="node3" class="node"><title>Node3</title>
<g id="a_node3"><a xlink:href="_exec_8cpp.html#a66e65252a6985e382838442f280f46ba" target="_top" xlink:title="WinMain">
<polygon fill="white" stroke="black" points="322.5,-0.5 322.5,-19.5 377.5,-19.5 377.5,-0.5 322.5,-0.5"/>
<text text-anchor="middle" x="350" y="-7.5" font-family="Helvetica,sans-Serif" font-size="10.00">WinMain</text>
</a>
</g>
</g>
<!-- Node2&#45;&gt;Node3 -->
<g id="edge2" class="edge"><title>Node2&#45;&gt;Node3</title>
<path fill="none" stroke="midnightblue" d="M295.727,-10C305.096,-10 314.346,-10 322.443,-10"/>
<polygon fill="midnightblue" stroke="midnightblue" points="295.563,-6.5001 285.563,-10 295.563,-13.5001 295.563,-6.5001"/>
</g>
</g>
</svg>
