<?xml version="1.0" encoding="UTF-8" standalone="no"?>
<!DOCTYPE svg PUBLIC "-//W3C//DTD SVG 1.1//EN"
 "http://www.w3.org/Graphics/SVG/1.1/DTD/svg11.dtd">
<!-- Generated by graphviz version 2.30.1 (20130214.1330)
 -->
<!-- Title: OmniOGL::_Delete Pages: 1 -->
<svg width="658pt" height="612pt"
 viewBox="0.00 0.00 658.00 612.00" xmlns="http://www.w3.org/2000/svg" xmlns:xlink="http://www.w3.org/1999/xlink">
<g id="graph0" class="graph" transform="scale(1 1) rotate(0) translate(4 608)">
<title>OmniOGL::_Delete</title>
<polygon fill="white" stroke="white" points="-4,5 -4,-608 655,-608 655,5 -4,5"/>
<!-- Node1 -->
<g id="node1" class="node"><title>Node1</title>
<polygon fill="#bfbfbf" stroke="black" points="0.5,-254.5 0.5,-273.5 99.5,-273.5 99.5,-254.5 0.5,-254.5"/>
<text text-anchor="middle" x="50" y="-261.5" font-family="Helvetica,sans-Serif" font-size="10.00">OmniOGL::_Delete</text>
</g>
<!-- Node2 -->
<g id="node2" class="node"><title>Node2</title>
<g id="a_node2"><a xlink:href="namespace_omni_o_g_l.html#a73e45a9a8c8783e5a10758095bfc8f6a" target="_top" xlink:title="Grabs the contents of an existing file and attempts to compile and create a Vertex Shader which can u...">
<polygon fill="white" stroke="black" points="149.5,-570.5 149.5,-589.5 274.5,-589.5 274.5,-570.5 149.5,-570.5"/>
<text text-anchor="middle" x="212" y="-577.5" font-family="Helvetica,sans-Serif" font-size="10.00">OmniOGL::MakVertShad</text>
</a>
</g>
</g>
<!-- Node1&#45;&gt;Node2 -->
<g id="edge1" class="edge"><title>Node1&#45;&gt;Node2</title>
<path fill="none" stroke="midnightblue" d="M55.1988,-283.618C64.7867,-325.646 91.0045,-426.516 136,-500 153.696,-528.9 183.043,-556.288 199.283,-570.294"/>
<polygon fill="midnightblue" stroke="midnightblue" points="58.5612,-282.614 52.9794,-273.609 51.7272,-284.13 58.5612,-282.614"/>
</g>
<!-- Node4 -->
<g id="node4" class="node"><title>Node4</title>
<g id="a_node4"><a xlink:href="class_omni_o_g_l_1_1_ren_obj.html#a0f76d1a329f2ed1ded9a87b1fdb70d19" target="_top" xlink:title="The &#39;=&#39; operator for the RenObj class. This method is called any time a derived class instance of a R...">
<polygon fill="white" stroke="black" points="139,-392.5 139,-411.5 285,-411.5 285,-392.5 139,-392.5"/>
<text text-anchor="middle" x="212" y="-399.5" font-family="Helvetica,sans-Serif" font-size="10.00">OmniOGL::RenObj::operator=</text>
</a>
</g>
</g>
<!-- Node1&#45;&gt;Node4 -->
<g id="edge3" class="edge"><title>Node1&#45;&gt;Node4</title>
<path fill="none" stroke="midnightblue" d="M61.0408,-282.352C74.9739,-306.268 102.303,-347.978 136,-373 147.544,-381.572 161.94,-387.941 175.024,-392.492"/>
<polygon fill="midnightblue" stroke="midnightblue" points="64.0393,-280.544 56.0631,-273.571 57.9496,-283.996 64.0393,-280.544"/>
</g>
<!-- Node12 -->
<g id="node12" class="node"><title>Node12</title>
<g id="a_node12"><a xlink:href="class_omni_o_g_l_1_1_ren_obj.html#a5226fe9344aeaa8cc3712948aaba4d77" target="_top" xlink:title="The destructor for the RenObj class which is responsible for freeing any memory which was dynamically...">
<polygon fill="white" stroke="black" points="140.5,-235.5 140.5,-254.5 283.5,-254.5 283.5,-235.5 140.5,-235.5"/>
<text text-anchor="middle" x="212" y="-242.5" font-family="Helvetica,sans-Serif" font-size="10.00">OmniOGL::RenObj::~RenObj</text>
</a>
</g>
</g>
<!-- Node1&#45;&gt;Node12 -->
<g id="edge11" class="edge"><title>Node1&#45;&gt;Node12</title>
<path fill="none" stroke="midnightblue" d="M109.977,-256.996C119.858,-255.823 130.199,-254.595 140.338,-253.391"/>
<polygon fill="midnightblue" stroke="midnightblue" points="109.392,-253.541 99.8747,-258.196 110.218,-260.492 109.392,-253.541"/>
</g>
<!-- Node8 -->
<g id="node8" class="node"><title>Node8</title>
<g id="a_node8"><a xlink:href="class_omni_o_g_l_1_1_text_overlay.html#aac511da2435b188ccb84ae6e1de1c7f0" target="_top" xlink:title="The assignment operator method for this class. This method is responsible for setting all of the memb...">
<polygon fill="white" stroke="black" points="346.5,-341 346.5,-371 463.5,-371 463.5,-341 346.5,-341"/>
<text text-anchor="start" x="354.5" y="-359" font-family="Helvetica,sans-Serif" font-size="10.00">OmniOGL::TextOverlay</text>
<text text-anchor="middle" x="405" y="-348" font-family="Helvetica,sans-Serif" font-size="10.00">::operator=</text>
</a>
</g>
</g>
<!-- Node1&#45;&gt;Node8 -->
<g id="edge12" class="edge"><title>Node1&#45;&gt;Node8</title>
<path fill="none" stroke="midnightblue" d="M79.9572,-277.924C96.1528,-285.287 116.875,-294.015 136,-300 207.106,-322.254 291.613,-338.251 346.451,-347.31"/>
<polygon fill="midnightblue" stroke="midnightblue" points="81.058,-274.577 70.5128,-273.553 78.1177,-280.93 81.058,-274.577"/>
</g>
<!-- Node13 -->
<g id="node13" class="node"><title>Node13</title>
<g id="a_node13"><a xlink:href="class_omni_o_g_l_1_1_text_overlay.html#a4e34d1e6e721640ae3deab8034f6e2b1" target="_top" xlink:title="This method populates the vertex, color, and texture coordinate arrays with data necessary to render ...">
<polygon fill="white" stroke="black" points="153.5,-461 153.5,-491 270.5,-491 270.5,-461 153.5,-461"/>
<text text-anchor="start" x="161.5" y="-479" font-family="Helvetica,sans-Serif" font-size="10.00">OmniOGL::TextOverlay</text>
<text text-anchor="middle" x="212" y="-468" font-family="Helvetica,sans-Serif" font-size="10.00">::SetText</text>
</a>
</g>
</g>
<!-- Node1&#45;&gt;Node13 -->
<g id="edge13" class="edge"><title>Node1&#45;&gt;Node13</title>
<path fill="none" stroke="midnightblue" d="M58.2577,-283.472C70.6561,-314.923 98.2796,-377.743 136,-421 149.902,-436.942 169.215,-450.971 184.761,-460.869"/>
<polygon fill="midnightblue" stroke="midnightblue" points="61.3711,-281.817 54.5155,-273.739 54.8374,-284.329 61.3711,-281.817"/>
</g>
<!-- Node15 -->
<g id="node15" class="node"><title>Node15</title>
<g id="a_node15"><a xlink:href="class_omni_o_g_l_1_1_text_overlay.html#a99e93fd3148ff504f033993479d29388" target="_top" xlink:title="The destructor for the TextOverlay class which is responsible for freeing any memory owned by the cla...">
<polygon fill="white" stroke="black" points="153.5,-186 153.5,-216 270.5,-216 270.5,-186 153.5,-186"/>
<text text-anchor="start" x="161.5" y="-204" font-family="Helvetica,sans-Serif" font-size="10.00">OmniOGL::TextOverlay</text>
<text text-anchor="middle" x="212" y="-193" font-family="Helvetica,sans-Serif" font-size="10.00">::~TextOverlay</text>
</a>
</g>
</g>
<!-- Node1&#45;&gt;Node15 -->
<g id="edge16" class="edge"><title>Node1&#45;&gt;Node15</title>
<path fill="none" stroke="midnightblue" d="M80.5068,-249.947C96.7215,-242.443 117.287,-233.281 136,-226 144.826,-222.566 154.342,-219.167 163.536,-216.033"/>
<polygon fill="midnightblue" stroke="midnightblue" points="78.6085,-246.97 71.0285,-254.372 81.5703,-253.313 78.6085,-246.97"/>
</g>
<!-- Node16 -->
<g id="node16" class="node"><title>Node16</title>
<g id="a_node16"><a xlink:href="class_omni_o_g_l_1_1_line_strip.html#af64b3e0837c49702b82c3b7a6c4288e4" target="_top" xlink:title="Adds a line segment to the class instance using absolute coordinates for a start and end point (i...">
<polygon fill="white" stroke="black" points="160,-137 160,-167 264,-167 264,-137 160,-137"/>
<text text-anchor="start" x="168" y="-155" font-family="Helvetica,sans-Serif" font-size="10.00">OmniOGL::LineStrip</text>
<text text-anchor="middle" x="212" y="-144" font-family="Helvetica,sans-Serif" font-size="10.00">::AddInstance</text>
</a>
</g>
</g>
<!-- Node1&#45;&gt;Node16 -->
<g id="edge17" class="edge"><title>Node1&#45;&gt;Node16</title>
<path fill="none" stroke="midnightblue" d="M63.9764,-246.376C79.2077,-226.847 106.2,-195.658 136,-177 143.329,-172.411 151.593,-168.567 159.888,-165.379"/>
<polygon fill="midnightblue" stroke="midnightblue" points="61.1095,-244.363 57.838,-254.44 66.6796,-248.603 61.1095,-244.363"/>
</g>
<!-- Node10 -->
<g id="node10" class="node"><title>Node10</title>
<g id="a_node10"><a xlink:href="class_omni_o_g_l_1_1_block_array.html#aa65d78b3ff0f2d2c27011a8f057aa07d" target="_top" xlink:title="The &quot;=&quot; operator method for the BlockArray class. This method copies all data from one existing Block...">
<polygon fill="white" stroke="black" points="348,-292 348,-322 462,-322 462,-292 348,-292"/>
<text text-anchor="start" x="356" y="-310" font-family="Helvetica,sans-Serif" font-size="10.00">OmniOGL::BlockArray</text>
<text text-anchor="middle" x="405" y="-299" font-family="Helvetica,sans-Serif" font-size="10.00">::operator=</text>
</a>
</g>
</g>
<!-- Node1&#45;&gt;Node10 -->
<g id="edge22" class="edge"><title>Node1&#45;&gt;Node10</title>
<path fill="none" stroke="midnightblue" d="M110.023,-274.155C118.722,-275.526 127.586,-276.853 136,-278 209.033,-287.958 293.643,-296.64 347.941,-301.847"/>
<polygon fill="midnightblue" stroke="midnightblue" points="110.352,-270.663 99.9232,-272.534 109.242,-277.574 110.352,-270.663"/>
</g>
<!-- Node11 -->
<g id="node11" class="node"><title>Node11</title>
<g id="a_node11"><a xlink:href="class_omni_o_g_l_1_1_group.html#a3ed0d1f33c3001ac2c6f0f86144d71ab" target="_top" xlink:title="The assignment operator method which is responsible for copying the data of one instance over to the ...">
<polygon fill="white" stroke="black" points="335,-253.5 335,-272.5 475,-272.5 475,-253.5 335,-253.5"/>
<text text-anchor="middle" x="405" y="-260.5" font-family="Helvetica,sans-Serif" font-size="10.00">OmniOGL::Group::operator=</text>
</a>
</g>
</g>
<!-- Node1&#45;&gt;Node11 -->
<g id="edge23" class="edge"><title>Node1&#45;&gt;Node11</title>
<path fill="none" stroke="midnightblue" d="M109.764,-264.141C157.723,-264.222 227.243,-264.262 288,-264 303.205,-263.934 319.531,-263.821 334.995,-263.693"/>
<polygon fill="midnightblue" stroke="midnightblue" points="109.574,-260.64 99.5678,-264.122 109.561,-267.64 109.574,-260.64"/>
</g>
<!-- Node21 -->
<g id="node21" class="node"><title>Node21</title>
<g id="a_node21"><a xlink:href="class_omni_o_g_l_1_1_group.html#a9dcdbfb8c49117647880ae13d8e051bc" target="_top" xlink:title="Adds a specified number of &quot;cloned&quot; objects to the Group which will be differ by scale, rotation, and translation/location. The scale, rotation, and translation for each object is determined randomly but within a range specified by members of this class. If no parameter is passed to this method then it will generate one object by default. Group::SetScaleRanges(), Group::SetRotationRanges(), Group::SetTranslationRanges(), Group::AddInstance()">
<polygon fill="white" stroke="black" points="136,-88 136,-118 288,-118 288,-88 136,-88"/>
<text text-anchor="start" x="144" y="-106" font-family="Helvetica,sans-Serif" font-size="10.00">OmniOGL::Group::AddRandom</text>
<text text-anchor="middle" x="212" y="-95" font-family="Helvetica,sans-Serif" font-size="10.00">Instances</text>
</a>
</g>
</g>
<!-- Node1&#45;&gt;Node21 -->
<g id="edge24" class="edge"><title>Node1&#45;&gt;Node21</title>
<path fill="none" stroke="midnightblue" d="M58.1085,-244.617C69.8541,-215.215 96.0584,-159.448 136,-128 140.853,-124.179 146.317,-120.929 152.027,-118.167"/>
<polygon fill="midnightblue" stroke="midnightblue" points="54.7603,-243.572 54.4367,-254.162 61.2936,-246.085 54.7603,-243.572"/>
</g>
<!-- Node22 -->
<g id="node22" class="node"><title>Node22</title>
<g id="a_node22"><a xlink:href="class_omni_o_g_l_1_1_group.html#a1453cb36ec7118d9621ebf390e387ca7" target="_top" xlink:title="The destructor for the Group class which is responsible for freeing any memory owned by the class...">
<polygon fill="white" stroke="black" points="146.5,-49.5 146.5,-68.5 277.5,-68.5 277.5,-49.5 146.5,-49.5"/>
<text text-anchor="middle" x="212" y="-56.5" font-family="Helvetica,sans-Serif" font-size="10.00">OmniOGL::Group::~Group</text>
</a>
</g>
</g>
<!-- Node1&#45;&gt;Node22 -->
<g id="edge25" class="edge"><title>Node1&#45;&gt;Node22</title>
<path fill="none" stroke="midnightblue" d="M54.2498,-244.237C61.5952,-206.066 83.1415,-122.084 136,-78 140.642,-74.1286 145.969,-71.0312 151.598,-68.5552"/>
<polygon fill="midnightblue" stroke="midnightblue" points="50.7979,-243.658 52.4732,-254.119 57.6874,-244.896 50.7979,-243.658"/>
</g>
<!-- Node23 -->
<g id="node23" class="node"><title>Node23</title>
<g id="a_node23"><a xlink:href="class_omni_o_g_l_1_1_section_collection.html#a23e3fd7c631f59fa4263686c7de2df34" target="_top" xlink:title="OmniOGL::SectionCollection\l::~SectionCollection">
<polygon fill="white" stroke="black" points="141,-0 141,-30 283,-30 283,-0 141,-0"/>
<text text-anchor="start" x="149" y="-18" font-family="Helvetica,sans-Serif" font-size="10.00">OmniOGL::SectionCollection</text>
<text text-anchor="middle" x="212" y="-7" font-family="Helvetica,sans-Serif" font-size="10.00">::~SectionCollection</text>
</a>
</g>
</g>
<!-- Node1&#45;&gt;Node23 -->
<g id="edge26" class="edge"><title>Node1&#45;&gt;Node23</title>
<path fill="none" stroke="midnightblue" d="M52.8686,-244.285C58.0093,-201.088 76.2252,-97.377 136,-40 140.06,-36.1031 144.743,-32.8132 149.745,-30.0358"/>
<polygon fill="midnightblue" stroke="midnightblue" points="49.3768,-244.022 51.7833,-254.34 56.3363,-244.773 49.3768,-244.022"/>
</g>
<!-- Node3 -->
<g id="node3" class="node"><title>Node3</title>
<g id="a_node3"><a xlink:href="_exec_8cpp.html#a66e65252a6985e382838442f280f46ba" target="_top" xlink:title="WinMain">
<polygon fill="white" stroke="black" points="558.5,-584.5 558.5,-603.5 613.5,-603.5 613.5,-584.5 558.5,-584.5"/>
<text text-anchor="middle" x="586" y="-591.5" font-family="Helvetica,sans-Serif" font-size="10.00">WinMain</text>
</a>
</g>
</g>
<!-- Node2&#45;&gt;Node3 -->
<g id="edge2" class="edge"><title>Node2&#45;&gt;Node3</title>
<path fill="none" stroke="midnightblue" d="M284.83,-590.395C297.839,-591.897 311.304,-593.203 324,-594 409.472,-599.369 511,-596.81 558.289,-595.103"/>
<polygon fill="midnightblue" stroke="midnightblue" points="284.865,-586.874 274.518,-589.155 284.029,-593.824 284.865,-586.874"/>
</g>
<!-- Node5 -->
<g id="node5" class="node"><title>Node5</title>
<g id="a_node5"><a xlink:href="class_omni_o_g_l_1_1_blender_obj.html#adaa4f366633bf3f03e0712ce346b6960" target="_top" xlink:title="The assignment operator method. Since the BlenderObj class has no unique members this method simply i...">
<polygon fill="white" stroke="black" points="348,-516 348,-546 462,-546 462,-516 348,-516"/>
<text text-anchor="start" x="356" y="-534" font-family="Helvetica,sans-Serif" font-size="10.00">OmniOGL::BlenderObj</text>
<text text-anchor="middle" x="405" y="-523" font-family="Helvetica,sans-Serif" font-size="10.00">::operator=</text>
</a>
</g>
</g>
<!-- Node4&#45;&gt;Node5 -->
<g id="edge4" class="edge"><title>Node4&#45;&gt;Node5</title>
<path fill="none" stroke="midnightblue" d="M240.34,-416.65C255.466,-425.59 273.98,-437.98 288,-452 308.396,-472.396 300.913,-488.709 324,-506 331.105,-511.321 339.366,-515.526 347.829,-518.844"/>
<polygon fill="midnightblue" stroke="midnightblue" points="241.848,-413.481 231.431,-411.547 238.369,-419.555 241.848,-413.481"/>
</g>
<!-- Node6 -->
<g id="node6" class="node"><title>Node6</title>
<g id="a_node6"><a xlink:href="class_omni_o_g_l_1_1_cube.html#a86352bb28ba6e31c2a1c995b30a3cd25" target="_top" xlink:title="The &quot;= operator&quot; for the Cube class. This method sets all of the Cube class members of one Cube to be...">
<polygon fill="white" stroke="black" points="337,-477.5 337,-496.5 473,-496.5 473,-477.5 337,-477.5"/>
<text text-anchor="middle" x="405" y="-484.5" font-family="Helvetica,sans-Serif" font-size="10.00">OmniOGL::Cube::operator=</text>
</a>
</g>
</g>
<!-- Node4&#45;&gt;Node6 -->
<g id="edge5" class="edge"><title>Node4&#45;&gt;Node6</title>
<path fill="none" stroke="midnightblue" d="M234.399,-417.412C256.033,-432.329 290.907,-454.597 324,-468 333.262,-471.751 343.44,-474.871 353.341,-477.425"/>
<polygon fill="midnightblue" stroke="midnightblue" points="236.181,-414.387 225.982,-411.516 232.165,-420.12 236.181,-414.387"/>
</g>
<!-- Node7 -->
<g id="node7" class="node"><title>Node7</title>
<g id="a_node7"><a xlink:href="class_omni_o_g_l_1_1_floor.html#a2f9d6cc54ea9629077201252b2deac27" target="_top" xlink:title="Assignment operator method. This method is called whenever a Floor is on the left&#45;hand side of an &#39;=&#39;...">
<polygon fill="white" stroke="black" points="337.5,-439.5 337.5,-458.5 472.5,-458.5 472.5,-439.5 337.5,-439.5"/>
<text text-anchor="middle" x="405" y="-446.5" font-family="Helvetica,sans-Serif" font-size="10.00">OmniOGL::Floor::operator=</text>
</a>
</g>
</g>
<!-- Node4&#45;&gt;Node7 -->
<g id="edge6" class="edge"><title>Node4&#45;&gt;Node7</title>
<path fill="none" stroke="midnightblue" d="M261.71,-413.986C293.782,-421.878 335.205,-432.071 365.078,-439.422"/>
<polygon fill="midnightblue" stroke="midnightblue" points="262.198,-410.502 251.652,-411.511 260.526,-417.299 262.198,-410.502"/>
</g>
<!-- Node4&#45;&gt;Node8 -->
<g id="edge7" class="edge"><title>Node4&#45;&gt;Node8</title>
<path fill="none" stroke="midnightblue" d="M262.46,-390.088C288.116,-383.909 319.599,-376.327 346.354,-369.883"/>
<polygon fill="midnightblue" stroke="midnightblue" points="261.478,-386.725 252.575,-392.469 263.117,-393.53 261.478,-386.725"/>
</g>
<!-- Node9 -->
<g id="node9" class="node"><title>Node9</title>
<g id="a_node9"><a xlink:href="class_omni_o_g_l_1_1_line_strip.html#a16bb6a0a3573bdd448482cf67f983e6e" target="_top" xlink:title="The assignment operator method which is responsible for copying the data of one instance over to the ...">
<polygon fill="white" stroke="black" points="353,-390 353,-420 457,-420 457,-390 353,-390"/>
<text text-anchor="start" x="361" y="-408" font-family="Helvetica,sans-Serif" font-size="10.00">OmniOGL::LineStrip</text>
<text text-anchor="middle" x="405" y="-397" font-family="Helvetica,sans-Serif" font-size="10.00">::operator=</text>
</a>
</g>
</g>
<!-- Node4&#45;&gt;Node9 -->
<g id="edge8" class="edge"><title>Node4&#45;&gt;Node9</title>
<path fill="none" stroke="midnightblue" d="M295.333,-403.293C314.857,-403.6 335.129,-403.918 352.802,-404.196"/>
<polygon fill="midnightblue" stroke="midnightblue" points="295.263,-399.792 285.209,-403.134 295.153,-406.791 295.263,-399.792"/>
</g>
<!-- Node4&#45;&gt;Node10 -->
<g id="edge9" class="edge"><title>Node4&#45;&gt;Node10</title>
<path fill="none" stroke="midnightblue" d="M233.82,-386.544C255.453,-371.056 290.734,-347.368 324,-332 331.926,-328.339 340.531,-325.02 349.062,-322.085"/>
<polygon fill="midnightblue" stroke="midnightblue" points="231.737,-383.731 225.697,-392.436 235.847,-389.398 231.737,-383.731"/>
</g>
<!-- Node4&#45;&gt;Node11 -->
<g id="edge10" class="edge"><title>Node4&#45;&gt;Node11</title>
<path fill="none" stroke="midnightblue" d="M224.747,-383.896C242.824,-357.537 280.02,-308.921 324,-283 331.4,-278.639 339.726,-275.223 348.137,-272.549"/>
<polygon fill="midnightblue" stroke="midnightblue" points="221.83,-381.962 219.17,-392.217 227.645,-385.858 221.83,-381.962"/>
</g>
<!-- Node14 -->
<g id="node14" class="node"><title>Node14</title>
<g id="a_node14"><a xlink:href="_exec_8cpp.html#a38c5e7def3be6ea702581ee4a92b9cc0" target="_top" xlink:title="render">
<polygon fill="white" stroke="black" points="383,-565.5 383,-584.5 427,-584.5 427,-565.5 383,-565.5"/>
<text text-anchor="middle" x="405" y="-572.5" font-family="Helvetica,sans-Serif" font-size="10.00">render</text>
</a>
</g>
</g>
<!-- Node13&#45;&gt;Node14 -->
<g id="edge14" class="edge"><title>Node13&#45;&gt;Node14</title>
<path fill="none" stroke="midnightblue" d="M237.441,-497.516C258.883,-515.339 291.617,-540.079 324,-555 342.984,-563.747 366.335,-569.022 382.897,-571.94"/>
<polygon fill="midnightblue" stroke="midnightblue" points="239.697,-494.84 229.8,-491.059 235.179,-500.187 239.697,-494.84"/>
</g>
<!-- Node14&#45;&gt;Node3 -->
<g id="edge15" class="edge"><title>Node14&#45;&gt;Node3</title>
<path fill="none" stroke="midnightblue" d="M437.617,-578.356C471.898,-581.995 526.022,-587.74 558.264,-591.162"/>
<polygon fill="midnightblue" stroke="midnightblue" points="437.55,-574.829 427.237,-577.254 436.811,-581.79 437.55,-574.829"/>
</g>
<!-- Node17 -->
<g id="node17" class="node"><title>Node17</title>
<g id="a_node17"><a xlink:href="class_omni_o_g_l_1_1_voxel.html#a612f60e83446d91e456002ec9df2e4b4" target="_top" xlink:title="A method which takes a LineStrip as a parameter and adds the 12 line segments which represent the edg...">
<polygon fill="white" stroke="black" points="324.5,-186.5 324.5,-205.5 485.5,-205.5 485.5,-186.5 324.5,-186.5"/>
<text text-anchor="middle" x="405" y="-193.5" font-family="Helvetica,sans-Serif" font-size="10.00">OmniOGL::Voxel::AddCubeMesh</text>
</a>
</g>
</g>
<!-- Node16&#45;&gt;Node17 -->
<g id="edge18" class="edge"><title>Node16&#45;&gt;Node17</title>
<path fill="none" stroke="midnightblue" d="M274.183,-166.094C303.078,-172.751 336.807,-180.521 362.642,-186.473"/>
<polygon fill="midnightblue" stroke="midnightblue" points="274.715,-162.625 264.184,-163.791 273.144,-169.447 274.715,-162.625"/>
</g>
<!-- Node18 -->
<g id="node18" class="node"><title>Node18</title>
<g id="a_node18"><a xlink:href="class_omni_o_g_l_1_1_block_array.html#ad00adebf2f11e675cfe560d9862a4ebe" target="_top" xlink:title="Processes the normals stored in this class&#39;s members and converts all normal lines into a single Line...">
<polygon fill="white" stroke="black" points="348,-137 348,-167 462,-167 462,-137 348,-137"/>
<text text-anchor="start" x="356" y="-155" font-family="Helvetica,sans-Serif" font-size="10.00">OmniOGL::BlockArray</text>
<text text-anchor="middle" x="405" y="-144" font-family="Helvetica,sans-Serif" font-size="10.00">::GetNormals</text>
</a>
</g>
</g>
<!-- Node16&#45;&gt;Node18 -->
<g id="edge19" class="edge"><title>Node16&#45;&gt;Node18</title>
<path fill="none" stroke="midnightblue" d="M274.439,-152C298.062,-152 324.885,-152 347.972,-152"/>
<polygon fill="midnightblue" stroke="midnightblue" points="274.185,-148.5 264.184,-152 274.184,-155.5 274.185,-148.5"/>
</g>
<!-- Node19 -->
<g id="node19" class="node"><title>Node19</title>
<g id="a_node19"><a xlink:href="class_omni_o_g_l_1_1_section_collection.html#abe45275bef4b3ae221ccba89da393359" target="_top" xlink:title="OmniOGL::SectionCollection\l::GetGridlines">
<polygon fill="white" stroke="black" points="334,-88 334,-118 476,-118 476,-88 334,-88"/>
<text text-anchor="start" x="342" y="-106" font-family="Helvetica,sans-Serif" font-size="10.00">OmniOGL::SectionCollection</text>
<text text-anchor="middle" x="405" y="-95" font-family="Helvetica,sans-Serif" font-size="10.00">::GetGridlines</text>
</a>
</g>
</g>
<!-- Node16&#45;&gt;Node19 -->
<g id="edge20" class="edge"><title>Node16&#45;&gt;Node19</title>
<path fill="none" stroke="midnightblue" d="M274.081,-136.33C296.865,-130.485 322.666,-123.866 345.237,-118.075"/>
<polygon fill="midnightblue" stroke="midnightblue" points="273.001,-132.994 264.184,-138.869 274.741,-139.774 273.001,-132.994"/>
</g>
<!-- Node20 -->
<g id="node20" class="node"><title>Node20</title>
<g id="a_node20"><a xlink:href="class_omni_o_g_l_1_1_scene.html#a8601c13e69f3269928209f1ffdf2584a" target="_top" xlink:title="The constructor for the Scene class. This is a fairly busy constructor since it&#39;s responsible for ini...">
<polygon fill="white" stroke="black" points="522,-93.5 522,-112.5 650,-112.5 650,-93.5 522,-93.5"/>
<text text-anchor="middle" x="586" y="-100.5" font-family="Helvetica,sans-Serif" font-size="10.00">OmniOGL::Scene::Scene</text>
</a>
</g>
</g>
<!-- Node19&#45;&gt;Node20 -->
<g id="edge21" class="edge"><title>Node19&#45;&gt;Node20</title>
<path fill="none" stroke="midnightblue" d="M486.581,-103C498.443,-103 510.516,-103 521.956,-103"/>
<polygon fill="midnightblue" stroke="midnightblue" points="486.232,-99.5001 476.232,-103 486.232,-106.5 486.232,-99.5001"/>
</g>
</g>
</svg>
