<?xml version="1.0" encoding="UTF-8" standalone="no"?>
<!DOCTYPE svg PUBLIC "-//W3C//DTD SVG 1.1//EN"
 "http://www.w3.org/Graphics/SVG/1.1/DTD/svg11.dtd">
<!-- Generated by graphviz version 2.30.1 (20130214.1330)
 -->
<!-- Title: OmniOGL::matrix_info Pages: 1 -->
<svg width="1201pt" height="1148pt"
 viewBox="0.00 0.00 1201.00 1148.00" xmlns="http://www.w3.org/2000/svg" xmlns:xlink="http://www.w3.org/1999/xlink">
<g id="graph0" class="graph" transform="scale(1 1) rotate(0) translate(4 1144)">
<title>OmniOGL::matrix_info</title>
<polygon fill="white" stroke="white" points="-4,5 -4,-1144 1198,-1144 1198,5 -4,5"/>
<!-- Node1 -->
<g id="node1" class="node"><title>Node1</title>
<polygon fill="#bfbfbf" stroke="black" points="423.5,-327 423.5,-505 536.5,-505 536.5,-327 423.5,-327"/>
<text text-anchor="middle" x="480" y="-493" font-family="Helvetica,sans-Serif" font-size="10.00">OmniOGL::matrix_info</text>
<polyline fill="none" stroke="black" points="423.5,-486 536.5,-486 "/>
<text text-anchor="start" x="431.5" y="-474" font-family="Helvetica,sans-Serif" font-size="10.00">+ atb_color</text>
<text text-anchor="start" x="431.5" y="-463" font-family="Helvetica,sans-Serif" font-size="10.00">+ atb_normal</text>
<text text-anchor="start" x="431.5" y="-452" font-family="Helvetica,sans-Serif" font-size="10.00">+ uni_isblack</text>
<text text-anchor="start" x="431.5" y="-441" font-family="Helvetica,sans-Serif" font-size="10.00">+ uni_isbumpmap</text>
<text text-anchor="start" x="431.5" y="-430" font-family="Helvetica,sans-Serif" font-size="10.00">+ uni_islambert</text>
<text text-anchor="start" x="431.5" y="-419" font-family="Helvetica,sans-Serif" font-size="10.00">+ uni_islight</text>
<text text-anchor="start" x="431.5" y="-408" font-family="Helvetica,sans-Serif" font-size="10.00">+ uni_isphong</text>
<text text-anchor="start" x="431.5" y="-397" font-family="Helvetica,sans-Serif" font-size="10.00">+ uni_istex</text>
<text text-anchor="start" x="431.5" y="-386" font-family="Helvetica,sans-Serif" font-size="10.00">+ uni_isvoxel</text>
<text text-anchor="start" x="431.5" y="-375" font-family="Helvetica,sans-Serif" font-size="10.00">+ uni_lightposn</text>
<text text-anchor="start" x="431.5" y="-364" font-family="Helvetica,sans-Serif" font-size="10.00">+ uni_lshininess</text>
<text text-anchor="start" x="431.5" y="-353" font-family="Helvetica,sans-Serif" font-size="10.00">+ uni_lspecular</text>
<polyline fill="none" stroke="black" points="423.5,-346 536.5,-346 "/>
<text text-anchor="middle" x="480" y="-334" font-family="Helvetica,sans-Serif" font-size="10.00"> </text>
</g>
<!-- Node13 -->
<g id="node13" class="node"><title>Node13</title>
<g id="a_node13"><a xlink:href="class_omni_o_g_l_1_1_scene.html" target="_top" xlink:title="Contains meta&#45;information for the 3D scene and handles sorting/addition/removal of objects to/from th...">
<polygon fill="white" stroke="black" points="520.5,-0.5 520.5,-277.5 681.5,-277.5 681.5,-0.5 520.5,-0.5"/>
<text text-anchor="middle" x="601" y="-265.5" font-family="Helvetica,sans-Serif" font-size="10.00">OmniOGL::Scene</text>
<polyline fill="none" stroke="black" points="520.5,-258.5 681.5,-258.5 "/>
<text text-anchor="middle" x="601" y="-246.5" font-family="Helvetica,sans-Serif" font-size="10.00"> </text>
<polyline fill="none" stroke="black" points="520.5,-239.5 681.5,-239.5 "/>
<text text-anchor="start" x="528.5" y="-227.5" font-family="Helvetica,sans-Serif" font-size="10.00">+ Scene()</text>
<text text-anchor="start" x="528.5" y="-216.5" font-family="Helvetica,sans-Serif" font-size="10.00">+ ~Scene()</text>
<text text-anchor="start" x="528.5" y="-205.5" font-family="Helvetica,sans-Serif" font-size="10.00">+ AddObject()</text>
<text text-anchor="start" x="528.5" y="-194.5" font-family="Helvetica,sans-Serif" font-size="10.00">+ AddSound()</text>
<text text-anchor="start" x="528.5" y="-183.5" font-family="Helvetica,sans-Serif" font-size="10.00">+ ApplyLighting()</text>
<text text-anchor="start" x="528.5" y="-172.5" font-family="Helvetica,sans-Serif" font-size="10.00">+ BumpMapEn()</text>
<text text-anchor="start" x="528.5" y="-161.5" font-family="Helvetica,sans-Serif" font-size="10.00">+ CameraQuery()</text>
<text text-anchor="start" x="528.5" y="-150.5" font-family="Helvetica,sans-Serif" font-size="10.00">+ Draw()</text>
<text text-anchor="start" x="528.5" y="-139.5" font-family="Helvetica,sans-Serif" font-size="10.00">+ GetObjCount()</text>
<text text-anchor="start" x="528.5" y="-128.5" font-family="Helvetica,sans-Serif" font-size="10.00">+ GetOccupiedSection()</text>
<text text-anchor="start" x="528.5" y="-117.5" font-family="Helvetica,sans-Serif" font-size="10.00">+ GetOccupiedSectionIndex()</text>
<text text-anchor="start" x="528.5" y="-106.5" font-family="Helvetica,sans-Serif" font-size="10.00">+ GlobalTextureEn()</text>
<text text-anchor="start" x="528.5" y="-95.5" font-family="Helvetica,sans-Serif" font-size="10.00">+ IncrementTotal()</text>
<text text-anchor="start" x="528.5" y="-84.5" font-family="Helvetica,sans-Serif" font-size="10.00">+ RemoveObject()</text>
<text text-anchor="start" x="528.5" y="-73.5" font-family="Helvetica,sans-Serif" font-size="10.00">+ sTranslate()</text>
<text text-anchor="start" x="528.5" y="-62.5" font-family="Helvetica,sans-Serif" font-size="10.00">+ ToggleBumpMapping()</text>
<text text-anchor="start" x="528.5" y="-51.5" font-family="Helvetica,sans-Serif" font-size="10.00">+ ToggleLambert()</text>
<text text-anchor="start" x="528.5" y="-40.5" font-family="Helvetica,sans-Serif" font-size="10.00">+ TogglePhong()</text>
<text text-anchor="start" x="528.5" y="-29.5" font-family="Helvetica,sans-Serif" font-size="10.00">+ ToggleTextures()</text>
<text text-anchor="start" x="528.5" y="-18.5" font-family="Helvetica,sans-Serif" font-size="10.00">+ UpdateSRT()</text>
<text text-anchor="start" x="528.5" y="-7.5" font-family="Helvetica,sans-Serif" font-size="10.00"># UpdateAdjacentSectionsArray()</text>
</a>
</g>
</g>
<!-- Node1&#45;&gt;Node13 -->
<g id="edge20" class="edge"><title>Node1&#45;&gt;Node13</title>
<path fill="none" stroke="#404040" d="M536.545,-342.56C543.758,-331.369 550.521,-319.649 556,-308 558.851,-301.938 561.547,-295.664 564.091,-289.262"/>
<polygon fill="none" stroke="#404040" points="564.253,-288.835 562.642,-281.806 568.51,-277.616 570.122,-284.645 564.253,-288.835"/>
<text text-anchor="middle" x="572" y="-299.5" font-family="Helvetica,sans-Serif" font-size="10.00"> #info</text>
</g>
<!-- Node2 -->
<g id="node2" class="node"><title>Node2</title>
<polygon fill="white" stroke="#bfbfbf" points="520.5,-697.5 520.5,-754.5 603.5,-754.5 603.5,-697.5 520.5,-697.5"/>
<text text-anchor="middle" x="562" y="-742.5" font-family="Helvetica,sans-Serif" font-size="10.00">ISoundEngine *</text>
<polyline fill="none" stroke="#bfbfbf" points="520.5,-735.5 603.5,-735.5 "/>
<text text-anchor="middle" x="562" y="-723.5" font-family="Helvetica,sans-Serif" font-size="10.00"> </text>
<polyline fill="none" stroke="#bfbfbf" points="520.5,-716.5 603.5,-716.5 "/>
<text text-anchor="middle" x="562" y="-704.5" font-family="Helvetica,sans-Serif" font-size="10.00"> </text>
</g>
<!-- Node2&#45;&gt;Node1 -->
<g id="edge1" class="edge"><title>Node2&#45;&gt;Node1</title>
<path fill="none" stroke="#404040" d="M541.885,-697.397C532.169,-685.712 519.657,-672.796 506,-664 484.377,-650.073 466.096,-666.824 451,-646 424.338,-609.22 426.974,-560.112 438.189,-516.805"/>
<polygon fill="none" stroke="#404040" points="438.243,-516.611 436.006,-509.755 441.474,-505.054 443.711,-511.909 438.243,-516.611"/>
<text text-anchor="middle" x="486" y="-582.5" font-family="Helvetica,sans-Serif" font-size="10.00"> +sound_engine</text>
</g>
<!-- Node3 -->
<g id="node3" class="node"><title>Node3</title>
<polygon fill="white" stroke="#bfbfbf" points="622,-697.5 622,-754.5 662,-754.5 662,-697.5 622,-697.5"/>
<text text-anchor="middle" x="642" y="-742.5" font-family="Helvetica,sans-Serif" font-size="10.00">GLint</text>
<polyline fill="none" stroke="#bfbfbf" points="622,-735.5 662,-735.5 "/>
<text text-anchor="middle" x="642" y="-723.5" font-family="Helvetica,sans-Serif" font-size="10.00"> </text>
<polyline fill="none" stroke="#bfbfbf" points="622,-716.5 662,-716.5 "/>
<text text-anchor="middle" x="642" y="-704.5" font-family="Helvetica,sans-Serif" font-size="10.00"> </text>
</g>
<!-- Node3&#45;&gt;Node1 -->
<g id="edge2" class="edge"><title>Node3&#45;&gt;Node1</title>
<path fill="none" stroke="#404040" d="M634.156,-697.385C629.496,-685.554 622.408,-672.525 612,-664 587.814,-644.19 565.291,-668.892 544,-646 506.422,-605.597 536.043,-577.087 521,-524 520.311,-521.57 519.59,-519.118 518.842,-516.652"/>
<polygon fill="none" stroke="#404040" points="518.786,-516.478 513.158,-511.97 515.155,-505.04 520.783,-509.549 518.786,-516.478"/>
<text text-anchor="middle" x="577.5" y="-637.5" font-family="Helvetica,sans-Serif" font-size="10.00"> +atb_texcoord</text>
<text text-anchor="middle" x="577.5" y="-626.5" font-family="Helvetica,sans-Serif" font-size="10.00">+atb_position</text>
<text text-anchor="middle" x="577.5" y="-615.5" font-family="Helvetica,sans-Serif" font-size="10.00">+uni_eyepos</text>
<text text-anchor="middle" x="577.5" y="-604.5" font-family="Helvetica,sans-Serif" font-size="10.00">+uni_lambient</text>
<text text-anchor="middle" x="577.5" y="-593.5" font-family="Helvetica,sans-Serif" font-size="10.00">+uni_lightclr</text>
<text text-anchor="middle" x="577.5" y="-582.5" font-family="Helvetica,sans-Serif" font-size="10.00">+uni_ldiffuse</text>
<text text-anchor="middle" x="577.5" y="-571.5" font-family="Helvetica,sans-Serif" font-size="10.00">+uni_tex</text>
<text text-anchor="middle" x="577.5" y="-560.5" font-family="Helvetica,sans-Serif" font-size="10.00">+uni_bumpmap</text>
<text text-anchor="middle" x="577.5" y="-549.5" font-family="Helvetica,sans-Serif" font-size="10.00">+uni_pv</text>
<text text-anchor="middle" x="577.5" y="-538.5" font-family="Helvetica,sans-Serif" font-size="10.00">+atb_srt</text>
<text text-anchor="middle" x="577.5" y="-527.5" font-family="Helvetica,sans-Serif" font-size="10.00">...</text>
</g>
<!-- Node14 -->
<g id="node14" class="node"><title>Node14</title>
<g id="a_node14"><a xlink:href="class_omni_o_g_l_1_1_camera.html" target="_top" xlink:title="Provides a viewport for the player to view the scene. Stores the location and orientation of the came...">
<polygon fill="white" stroke="black" points="933,-371 933,-461 1033,-461 1033,-371 933,-371"/>
<text text-anchor="middle" x="983" y="-449" font-family="Helvetica,sans-Serif" font-size="10.00">OmniOGL::Camera</text>
<polyline fill="none" stroke="black" points="933,-442 1033,-442 "/>
<text text-anchor="middle" x="983" y="-430" font-family="Helvetica,sans-Serif" font-size="10.00"> </text>
<polyline fill="none" stroke="black" points="933,-423 1033,-423 "/>
<text text-anchor="start" x="941" y="-411" font-family="Helvetica,sans-Serif" font-size="10.00">+ Camera()</text>
<text text-anchor="start" x="941" y="-400" font-family="Helvetica,sans-Serif" font-size="10.00">+ ~Camera()</text>
<text text-anchor="start" x="941" y="-389" font-family="Helvetica,sans-Serif" font-size="10.00">+ Update()</text>
<text text-anchor="start" x="941" y="-378" font-family="Helvetica,sans-Serif" font-size="10.00"># raw_rotate()</text>
</a>
</g>
</g>
<!-- Node3&#45;&gt;Node14 -->
<g id="edge16" class="edge"><title>Node3&#45;&gt;Node14</title>
<path fill="none" stroke="#404040" d="M662.23,-713.913C684.862,-700.558 721.2,-676.115 743,-646 776.799,-599.309 742.183,-560.248 787,-524 833.036,-486.765 868.259,-536.515 919,-506 933.036,-497.559 944.868,-484.734 954.392,-471.428"/>
<polygon fill="none" stroke="#404040" points="954.547,-471.195 954.561,-463.984 961.222,-461.223 961.209,-468.434 954.547,-471.195"/>
<text text-anchor="middle" x="821" y="-582.5" font-family="Helvetica,sans-Serif" font-size="10.00"> +curr_direction</text>
</g>
<!-- Node3&#45;&gt;Node13 -->
<g id="edge18" class="edge"><title>Node3&#45;&gt;Node13</title>
<path fill="none" stroke="#404040" d="M640.05,-697.178C635.005,-625.195 621.237,-428.75 611.482,-289.563"/>
<polygon fill="none" stroke="#404040" points="611.479,-289.514 607.069,-283.808 610.64,-277.543 615.05,-283.249 611.479,-289.514"/>
<text text-anchor="middle" x="653" y="-413.5" font-family="Helvetica,sans-Serif" font-size="10.00"> #current_id</text>
</g>
<!-- Node4 -->
<g id="node4" class="node"><title>Node4</title>
<polygon fill="white" stroke="#bfbfbf" points="343,-697.5 343,-754.5 381,-754.5 381,-697.5 343,-697.5"/>
<text text-anchor="middle" x="362" y="-742.5" font-family="Helvetica,sans-Serif" font-size="10.00">mat4</text>
<polyline fill="none" stroke="#bfbfbf" points="343,-735.5 381,-735.5 "/>
<text text-anchor="middle" x="362" y="-723.5" font-family="Helvetica,sans-Serif" font-size="10.00"> </text>
<polyline fill="none" stroke="#bfbfbf" points="343,-716.5 381,-716.5 "/>
<text text-anchor="middle" x="362" y="-704.5" font-family="Helvetica,sans-Serif" font-size="10.00"> </text>
</g>
<!-- Node4&#45;&gt;Node1 -->
<g id="edge3" class="edge"><title>Node4&#45;&gt;Node1</title>
<path fill="none" stroke="#404040" d="M351.141,-697.379C337.115,-657.069 317.564,-580.753 345,-524 359.421,-494.169 386.646,-470.117 412.89,-452.43"/>
<polygon fill="none" stroke="#404040" points="413.181,-452.241 416.047,-445.624 423.257,-445.724 420.392,-452.341 413.181,-452.241"/>
<text text-anchor="middle" x="374" y="-615.5" font-family="Helvetica,sans-Serif" font-size="10.00"> +mat_srt</text>
<text text-anchor="middle" x="374" y="-604.5" font-family="Helvetica,sans-Serif" font-size="10.00">+mat_project</text>
<text text-anchor="middle" x="374" y="-593.5" font-family="Helvetica,sans-Serif" font-size="10.00">+mat_scale</text>
<text text-anchor="middle" x="374" y="-582.5" font-family="Helvetica,sans-Serif" font-size="10.00">+mat_pv</text>
<text text-anchor="middle" x="374" y="-571.5" font-family="Helvetica,sans-Serif" font-size="10.00">+mat_view</text>
<text text-anchor="middle" x="374" y="-560.5" font-family="Helvetica,sans-Serif" font-size="10.00">+mat_rotate</text>
<text text-anchor="middle" x="374" y="-549.5" font-family="Helvetica,sans-Serif" font-size="10.00">+mat_trans</text>
</g>
<!-- Node5 -->
<g id="node5" class="node"><title>Node5</title>
<g id="a_node5"><a xlink:href="class_omni_o_g_l_1_1_section.html" target="_top" xlink:title="A 3D subsection of the rendered environment. All subsections share the same fixed size and the subjec...">
<polygon fill="white" stroke="black" points="145.5,-664.5 145.5,-787.5 244.5,-787.5 244.5,-664.5 145.5,-664.5"/>
<text text-anchor="middle" x="195" y="-775.5" font-family="Helvetica,sans-Serif" font-size="10.00">OmniOGL::Section</text>
<polyline fill="none" stroke="black" points="145.5,-768.5 244.5,-768.5 "/>
<text text-anchor="middle" x="195" y="-756.5" font-family="Helvetica,sans-Serif" font-size="10.00"> </text>
<polyline fill="none" stroke="black" points="145.5,-749.5 244.5,-749.5 "/>
<text text-anchor="start" x="153.5" y="-737.5" font-family="Helvetica,sans-Serif" font-size="10.00">+ Section()</text>
<text text-anchor="start" x="153.5" y="-726.5" font-family="Helvetica,sans-Serif" font-size="10.00">+ Section()</text>
<text text-anchor="start" x="153.5" y="-715.5" font-family="Helvetica,sans-Serif" font-size="10.00">+ ~Section()</text>
<text text-anchor="start" x="153.5" y="-704.5" font-family="Helvetica,sans-Serif" font-size="10.00">+ AddObject()</text>
<text text-anchor="start" x="153.5" y="-693.5" font-family="Helvetica,sans-Serif" font-size="10.00">+ GetObjCount()</text>
<text text-anchor="start" x="153.5" y="-682.5" font-family="Helvetica,sans-Serif" font-size="10.00">+ QueryID()</text>
<text text-anchor="start" x="153.5" y="-671.5" font-family="Helvetica,sans-Serif" font-size="10.00">+ RemoveObject()</text>
</a>
</g>
</g>
<!-- Node5&#45;&gt;Node1 -->
<g id="edge4" class="edge"><title>Node5&#45;&gt;Node1</title>
<path fill="none" stroke="#404040" d="M216.993,-664.47C238.213,-606.312 267.494,-526.81 270,-524 307.709,-481.723 366.051,-453.879 411.681,-437.221"/>
<polygon fill="none" stroke="#404040" points="411.97,-437.119 416.296,-431.35 423.285,-433.124 418.96,-438.893 411.97,-437.119"/>
<text text-anchor="middle" x="299" y="-582.5" font-family="Helvetica,sans-Serif" font-size="10.00"> +section_ptr</text>
</g>
<!-- Node5&#45;&gt;Node5 -->
<g id="edge10" class="edge"><title>Node5&#45;&gt;Node5</title>
<path fill="none" stroke="#404040" d="M244.672,-743.313C254.769,-741.427 262,-735.656 262,-726 262,-720.568 259.712,-716.366 255.913,-713.393"/>
<polygon fill="none" stroke="#404040" points="255.741,-713.321 248.662,-714.693 244.672,-708.687 251.751,-707.314 255.741,-713.321"/>
<text text-anchor="middle" x="293" y="-734.5" font-family="Helvetica,sans-Serif" font-size="10.00"> +z_neighbors</text>
<text text-anchor="middle" x="293" y="-723.5" font-family="Helvetica,sans-Serif" font-size="10.00">+x_neighbors</text>
<text text-anchor="middle" x="293" y="-712.5" font-family="Helvetica,sans-Serif" font-size="10.00">+y_neighbors</text>
</g>
<!-- Node5&#45;&gt;Node13 -->
<g id="edge21" class="edge"><title>Node5&#45;&gt;Node13</title>
<path fill="none" stroke="#404040" d="M195.767,-664.079C198.117,-623.151 204.861,-568.731 223,-524 280.322,-382.644 417.977,-265.571 510.374,-199.195"/>
<polygon fill="none" stroke="#404040" points="510.509,-199.099 513.08,-192.362 520.288,-192.143 517.717,-198.88 510.509,-199.099"/>
<text text-anchor="middle" x="379" y="-413.5" font-family="Helvetica,sans-Serif" font-size="10.00"> #sections</text>
</g>
<!-- Node6 -->
<g id="node6" class="node"><title>Node6</title>
<polygon fill="white" stroke="#bfbfbf" points="727.5,-864.5 727.5,-921.5 774.5,-921.5 774.5,-864.5 727.5,-864.5"/>
<text text-anchor="middle" x="751" y="-909.5" font-family="Helvetica,sans-Serif" font-size="10.00">GLfloat</text>
<polyline fill="none" stroke="#bfbfbf" points="727.5,-902.5 774.5,-902.5 "/>
<text text-anchor="middle" x="751" y="-890.5" font-family="Helvetica,sans-Serif" font-size="10.00"> </text>
<polyline fill="none" stroke="#bfbfbf" points="727.5,-883.5 774.5,-883.5 "/>
<text text-anchor="middle" x="751" y="-871.5" font-family="Helvetica,sans-Serif" font-size="10.00"> </text>
</g>
<!-- Node6&#45;&gt;Node5 -->
<g id="edge5" class="edge"><title>Node6&#45;&gt;Node5</title>
<path fill="none" stroke="#404040" d="M727.081,-887.512C662.599,-875.1 480.167,-837.899 334,-788 307.841,-779.07 279.783,-767.217 255.774,-756.336"/>
<polygon fill="none" stroke="#404040" points="255.603,-756.257 248.482,-757.392 244.696,-751.255 251.817,-750.12 255.603,-756.257"/>
<text text-anchor="middle" x="525.5" y="-831.5" font-family="Helvetica,sans-Serif" font-size="10.00"> +x_limits</text>
<text text-anchor="middle" x="525.5" y="-820.5" font-family="Helvetica,sans-Serif" font-size="10.00">+y_limits</text>
<text text-anchor="middle" x="525.5" y="-809.5" font-family="Helvetica,sans-Serif" font-size="10.00">+z_limits</text>
</g>
<!-- Node6&#45;&gt;Node14 -->
<g id="edge15" class="edge"><title>Node6&#45;&gt;Node14</title>
<path fill="none" stroke="#404040" d="M774.708,-878.326C827.757,-846.097 954.69,-759.468 997,-646 1017.93,-589.866 1009.43,-520.645 998.864,-473.091"/>
<polygon fill="none" stroke="#404040" points="998.813,-472.871 993.549,-467.942 996.074,-461.188 1001.34,-466.117 998.813,-472.871"/>
<text text-anchor="middle" x="1022.5" y="-767.5" font-family="Helvetica,sans-Serif" font-size="10.00"> #orig_look_vec</text>
<text text-anchor="middle" x="1022.5" y="-756.5" font-family="Helvetica,sans-Serif" font-size="10.00">+angle_up</text>
<text text-anchor="middle" x="1022.5" y="-745.5" font-family="Helvetica,sans-Serif" font-size="10.00">+eye</text>
<text text-anchor="middle" x="1022.5" y="-734.5" font-family="Helvetica,sans-Serif" font-size="10.00">#fov</text>
<text text-anchor="middle" x="1022.5" y="-723.5" font-family="Helvetica,sans-Serif" font-size="10.00">#clip_far</text>
<text text-anchor="middle" x="1022.5" y="-712.5" font-family="Helvetica,sans-Serif" font-size="10.00">+angle_side</text>
<text text-anchor="middle" x="1022.5" y="-701.5" font-family="Helvetica,sans-Serif" font-size="10.00">+center</text>
<text text-anchor="middle" x="1022.5" y="-690.5" font-family="Helvetica,sans-Serif" font-size="10.00">#up</text>
<text text-anchor="middle" x="1022.5" y="-679.5" font-family="Helvetica,sans-Serif" font-size="10.00">#clip_near</text>
</g>
<!-- Node7 -->
<g id="node7" class="node"><title>Node7</title>
<polygon fill="white" stroke="#bfbfbf" points="0,-864.5 0,-921.5 122,-921.5 122,-864.5 0,-864.5"/>
<text text-anchor="middle" x="61" y="-909.5" font-family="Helvetica,sans-Serif" font-size="10.00">std::list&lt; ptrRenObj3D &gt;</text>
<polyline fill="none" stroke="#bfbfbf" points="0,-902.5 122,-902.5 "/>
<text text-anchor="middle" x="61" y="-890.5" font-family="Helvetica,sans-Serif" font-size="10.00"> </text>
<polyline fill="none" stroke="#bfbfbf" points="0,-883.5 122,-883.5 "/>
<text text-anchor="middle" x="61" y="-871.5" font-family="Helvetica,sans-Serif" font-size="10.00"> </text>
</g>
<!-- Node7&#45;&gt;Node5 -->
<g id="edge6" class="edge"><title>Node7&#45;&gt;Node5</title>
<path fill="none" stroke="#404040" d="M83.4286,-864.383C98.425,-845.917 118.874,-820.738 138.17,-796.977"/>
<polygon fill="none" stroke="#404040" points="138.213,-796.924 138.891,-789.745 145.778,-787.609 145.101,-794.788 138.213,-796.924"/>
<text text-anchor="middle" x="148.5" y="-820.5" font-family="Helvetica,sans-Serif" font-size="10.00"> +objects</text>
</g>
<!-- Node7&#45;&gt;Node13 -->
<g id="edge19" class="edge"><title>Node7&#45;&gt;Node13</title>
<path fill="none" stroke="#404040" d="M53.6654,-864.498C31.016,-772.681 -27.4836,-474.167 125,-326 231.763,-222.259 403.049,-174.606 508.419,-154.082"/>
<polygon fill="none" stroke="#404040" points="508.511,-154.065 513.661,-149.016 520.301,-151.828 515.151,-156.876 508.511,-154.065"/>
<text text-anchor="middle" x="68.5" y="-588" font-family="Helvetica,sans-Serif" font-size="10.00"> #foregnd_objs</text>
<text text-anchor="middle" x="68.5" y="-577" font-family="Helvetica,sans-Serif" font-size="10.00">+persistant_objs</text>
</g>
<!-- Node8 -->
<g id="node8" class="node"><title>Node8</title>
<polygon fill="white" stroke="#bfbfbf" points="25,-976.5 25,-1033.5 97,-1033.5 97,-976.5 25,-976.5"/>
<text text-anchor="middle" x="61" y="-1021.5" font-family="Helvetica,sans-Serif" font-size="10.00">ptrRenObj3D</text>
<polyline fill="none" stroke="#bfbfbf" points="25,-1014.5 97,-1014.5 "/>
<text text-anchor="middle" x="61" y="-1002.5" font-family="Helvetica,sans-Serif" font-size="10.00"> </text>
<polyline fill="none" stroke="#bfbfbf" points="25,-995.5 97,-995.5 "/>
<text text-anchor="middle" x="61" y="-983.5" font-family="Helvetica,sans-Serif" font-size="10.00"> </text>
</g>
<!-- Node8&#45;&gt;Node7 -->
<g id="edge7" class="edge"><title>Node8&#45;&gt;Node7</title>
<path fill="none" stroke="#404040" d="M61,-976.242C61,-963.475 61,-948.088 61,-934.094"/>
<polygon fill="none" stroke="#404040" points="61.0001,-933.749 57,-927.749 61,-921.749 65,-927.749 61.0001,-933.749"/>
<text text-anchor="middle" x="85.5" y="-949.5" font-family="Helvetica,sans-Serif" font-size="10.00"> +elements</text>
</g>
<!-- Node9 -->
<g id="node9" class="node"><title>Node9</title>
<g id="a_node9"><a xlink:title="STL class.">
<polygon fill="white" stroke="#bfbfbf" points="608,-976.5 608,-1033.5 680,-1033.5 680,-976.5 608,-976.5"/>
<text text-anchor="middle" x="644" y="-1021.5" font-family="Helvetica,sans-Serif" font-size="10.00">std::list&lt; T &gt;</text>
<polyline fill="none" stroke="#bfbfbf" points="608,-1014.5 680,-1014.5 "/>
<text text-anchor="middle" x="644" y="-1002.5" font-family="Helvetica,sans-Serif" font-size="10.00"> </text>
<polyline fill="none" stroke="#bfbfbf" points="608,-995.5 680,-995.5 "/>
<text text-anchor="middle" x="644" y="-983.5" font-family="Helvetica,sans-Serif" font-size="10.00"> </text>
</a>
</g>
</g>
<!-- Node9&#45;&gt;Node7 -->
<g id="edge8" class="edge"><title>Node9&#45;&gt;Node7</title>
<path fill="none" stroke="orange" d="M598.018,-999.294C511.827,-989.91 320.459,-966.404 163,-928 149.58,-924.727 135.396,-920.505 122.011,-916.157"/>
<polygon fill="orange" stroke="orange" points="597.681,-1002.78 607.998,-1000.37 598.43,-995.818 597.681,-1002.78"/>
<text text-anchor="middle" x="332.5" y="-949.5" font-family="Helvetica,sans-Serif" font-size="10.00"> &lt; ptrRenObj3D &gt;</text>
</g>
<!-- Node10 -->
<g id="node10" class="node"><title>Node10</title>
<polygon fill="white" stroke="#bfbfbf" points="835.5,-1082.5 835.5,-1139.5 864.5,-1139.5 864.5,-1082.5 835.5,-1082.5"/>
<text text-anchor="middle" x="850" y="-1127.5" font-family="Helvetica,sans-Serif" font-size="10.00">T</text>
<polyline fill="none" stroke="#bfbfbf" points="835.5,-1120.5 864.5,-1120.5 "/>
<text text-anchor="middle" x="850" y="-1108.5" font-family="Helvetica,sans-Serif" font-size="10.00"> </text>
<polyline fill="none" stroke="#bfbfbf" points="835.5,-1101.5 864.5,-1101.5 "/>
<text text-anchor="middle" x="850" y="-1089.5" font-family="Helvetica,sans-Serif" font-size="10.00"> </text>
</g>
<!-- Node10&#45;&gt;Node9 -->
<g id="edge9" class="edge"><title>Node10&#45;&gt;Node9</title>
<path fill="none" stroke="#404040" d="M835.185,-1102.52C805.441,-1087.5 737.344,-1053.13 690.992,-1029.72"/>
<polygon fill="none" stroke="#404040" points="690.716,-1029.58 683.557,-1030.45 680.004,-1024.18 687.163,-1023.31 690.716,-1029.58"/>
<text text-anchor="middle" x="778.5" y="-1055.5" font-family="Helvetica,sans-Serif" font-size="10.00"> +elements</text>
</g>
<!-- Node17 -->
<g id="node17" class="node"><title>Node17</title>
<g id="a_node17"><a xlink:title="STL class.">
<polygon fill="white" stroke="#bfbfbf" points="945.5,-976.5 945.5,-1033.5 1030.5,-1033.5 1030.5,-976.5 945.5,-976.5"/>
<text text-anchor="middle" x="988" y="-1021.5" font-family="Helvetica,sans-Serif" font-size="10.00">std::vector&lt; T &gt;</text>
<polyline fill="none" stroke="#bfbfbf" points="945.5,-1014.5 1030.5,-1014.5 "/>
<text text-anchor="middle" x="988" y="-1002.5" font-family="Helvetica,sans-Serif" font-size="10.00"> </text>
<polyline fill="none" stroke="#bfbfbf" points="945.5,-995.5 1030.5,-995.5 "/>
<text text-anchor="middle" x="988" y="-983.5" font-family="Helvetica,sans-Serif" font-size="10.00"> </text>
</a>
</g>
</g>
<!-- Node10&#45;&gt;Node17 -->
<g id="edge25" class="edge"><title>Node10&#45;&gt;Node17</title>
<path fill="none" stroke="#404040" d="M864.508,-1099.07C882.689,-1085.36 914.73,-1061.22 941.618,-1040.95"/>
<polygon fill="none" stroke="#404040" points="941.672,-1040.91 944.057,-1034.11 951.256,-1033.69 948.871,-1040.5 941.672,-1040.91"/>
<text text-anchor="middle" x="947.5" y="-1055.5" font-family="Helvetica,sans-Serif" font-size="10.00"> +elements</text>
</g>
<!-- Node11 -->
<g id="node11" class="node"><title>Node11</title>
<polygon fill="white" stroke="#bfbfbf" points="172.5,-864.5 172.5,-921.5 217.5,-921.5 217.5,-864.5 172.5,-864.5"/>
<text text-anchor="middle" x="195" y="-909.5" font-family="Helvetica,sans-Serif" font-size="10.00">GLuint</text>
<polyline fill="none" stroke="#bfbfbf" points="172.5,-902.5 217.5,-902.5 "/>
<text text-anchor="middle" x="195" y="-890.5" font-family="Helvetica,sans-Serif" font-size="10.00"> </text>
<polyline fill="none" stroke="#bfbfbf" points="172.5,-883.5 217.5,-883.5 "/>
<text text-anchor="middle" x="195" y="-871.5" font-family="Helvetica,sans-Serif" font-size="10.00"> </text>
</g>
<!-- Node11&#45;&gt;Node5 -->
<g id="edge11" class="edge"><title>Node11&#45;&gt;Node5</title>
<path fill="none" stroke="#404040" d="M195,-864.383C195,-846.652 195,-822.732 195,-799.822"/>
<polygon fill="none" stroke="#404040" points="195,-799.609 191,-793.609 195,-787.609 199,-793.609 195,-799.609"/>
<text text-anchor="middle" x="220.5" y="-826" font-family="Helvetica,sans-Serif" font-size="10.00"> #obj_count</text>
<text text-anchor="middle" x="220.5" y="-815" font-family="Helvetica,sans-Serif" font-size="10.00">#id</text>
</g>
<!-- Node11&#45;&gt;Node13 -->
<g id="edge28" class="edge"><title>Node11&#45;&gt;Node13</title>
<path fill="none" stroke="#404040" d="M174.929,-864.392C161.433,-844.263 144.593,-815.763 136,-788 117.273,-727.496 126.669,-709.28 124,-646 121.715,-591.826 110.911,-576.619 124,-524 148.044,-427.337 157.728,-395.585 229,-326 308.61,-248.274 427.156,-196.73 508.925,-168.008"/>
<polygon fill="none" stroke="#404040" points="509.12,-167.941 513.484,-162.201 520.462,-164.021 516.097,-169.762 509.12,-167.941"/>
<text text-anchor="middle" x="159" y="-582.5" font-family="Helvetica,sans-Serif" font-size="10.00"> #section_count</text>
</g>
<!-- Node11&#45;&gt;Node1 -->
<g id="edge29" class="edge"><title>Node11&#45;&gt;Node1</title>
<path fill="none" stroke="#404040" d="M217.797,-886.93C259.447,-876.384 347.461,-847.908 390,-788 458.746,-691.185 396.846,-637.722 431,-524 431.735,-521.554 432.514,-519.092 433.333,-516.621"/>
<polygon fill="none" stroke="#404040" points="433.433,-516.336 431.657,-509.347 437.425,-505.02 439.201,-512.009 433.433,-516.336"/>
<text text-anchor="middle" x="467.5" y="-745.5" font-family="Helvetica,sans-Serif" font-size="10.00"> +vbo</text>
<text text-anchor="middle" x="467.5" y="-734.5" font-family="Helvetica,sans-Serif" font-size="10.00">+vao</text>
<text text-anchor="middle" x="467.5" y="-723.5" font-family="Helvetica,sans-Serif" font-size="10.00">+adjacent_sections</text>
<text text-anchor="middle" x="467.5" y="-712.5" font-family="Helvetica,sans-Serif" font-size="10.00">+current_section</text>
<text text-anchor="middle" x="467.5" y="-701.5" font-family="Helvetica,sans-Serif" font-size="10.00">+shader_pgm</text>
</g>
<!-- Node12 -->
<g id="node12" class="node"><title>Node12</title>
<polygon fill="white" stroke="#bfbfbf" points="830.5,-697.5 830.5,-754.5 865.5,-754.5 865.5,-697.5 830.5,-697.5"/>
<text text-anchor="middle" x="848" y="-742.5" font-family="Helvetica,sans-Serif" font-size="10.00">bool</text>
<polyline fill="none" stroke="#bfbfbf" points="830.5,-735.5 865.5,-735.5 "/>
<text text-anchor="middle" x="848" y="-723.5" font-family="Helvetica,sans-Serif" font-size="10.00"> </text>
<polyline fill="none" stroke="#bfbfbf" points="830.5,-716.5 865.5,-716.5 "/>
<text text-anchor="middle" x="848" y="-704.5" font-family="Helvetica,sans-Serif" font-size="10.00"> </text>
</g>
<!-- Node12&#45;&gt;Node1 -->
<g id="edge12" class="edge"><title>Node12&#45;&gt;Node1</title>
<path fill="none" stroke="#404040" d="M830.29,-722.753C792.585,-717.036 703.841,-698.474 655,-646 616.123,-604.231 647.629,-570.813 615,-524 597.039,-498.231 571.093,-475.596 546.736,-457.861"/>
<polygon fill="none" stroke="#404040" points="546.577,-457.749 539.369,-457.546 536.784,-450.814 543.992,-451.017 546.577,-457.749"/>
<text text-anchor="middle" x="697" y="-582.5" font-family="Helvetica,sans-Serif" font-size="10.00"> +camera_changed</text>
</g>
<!-- Node12&#45;&gt;Node14 -->
<g id="edge17" class="edge"><title>Node12&#45;&gt;Node14</title>
<path fill="none" stroke="#404040" d="M851.991,-697.378C859.808,-643.914 876.829,-530.905 882,-524 892.962,-509.363 905.014,-517.782 919,-506 930.715,-496.131 941.389,-483.671 950.52,-471.224"/>
<polygon fill="none" stroke="#404040" points="950.6,-471.111 950.779,-463.902 957.502,-461.294 957.323,-468.503 950.6,-471.111"/>
<text text-anchor="middle" x="939.5" y="-588" font-family="Helvetica,sans-Serif" font-size="10.00"> +mouse_update_available</text>
<text text-anchor="middle" x="939.5" y="-577" font-family="Helvetica,sans-Serif" font-size="10.00">+free_cam</text>
</g>
<!-- Node12&#45;&gt;Node13 -->
<g id="edge26" class="edge"><title>Node12&#45;&gt;Node13</title>
<path fill="none" stroke="#404040" d="M850.123,-697.252C852.248,-657.755 852.897,-583.512 834,-524 802.614,-425.155 740.954,-325.374 688.946,-252.307"/>
<polygon fill="none" stroke="#404040" points="688.673,-251.926 681.925,-249.384 681.676,-242.177 688.424,-244.719 688.673,-251.926"/>
<text text-anchor="middle" x="861.5" y="-435.5" font-family="Helvetica,sans-Serif" font-size="10.00"> #islambert</text>
<text text-anchor="middle" x="861.5" y="-424.5" font-family="Helvetica,sans-Serif" font-size="10.00">#isbumpmap</text>
<text text-anchor="start" x="828" y="-413.5" font-family="Helvetica,sans-Serif" font-size="10.00">#global_texture</text>
<text text-anchor="middle" x="861.5" y="-402.5" font-family="Helvetica,sans-Serif" font-size="10.00">_enable</text>
<text text-anchor="middle" x="861.5" y="-391.5" font-family="Helvetica,sans-Serif" font-size="10.00">#isphong</text>
</g>
<!-- Node13&#45;&gt;Node1 -->
<g id="edge13" class="edge"><title>Node13&#45;&gt;Node1</title>
<path fill="none" stroke="#404040" d="M520.411,-260.439C514.306,-272.181 508.704,-284.142 504,-296 501.571,-302.122 499.378,-308.523 497.399,-315.043"/>
<polygon fill="none" stroke="#404040" points="497.32,-315.324 499.541,-322.184 494.063,-326.873 491.841,-320.013 497.32,-315.324"/>
<text text-anchor="middle" x="530" y="-299.5" font-family="Helvetica,sans-Serif" font-size="10.00"> +scene_ptr</text>
</g>
<!-- Node14&#45;&gt;Node13 -->
<g id="edge14" class="edge"><title>Node14&#45;&gt;Node13</title>
<path fill="none" stroke="#404040" d="M956.66,-370.857C946.177,-355.519 933.217,-338.937 919,-326 851.337,-264.428 760.01,-213.594 692.586,-180.721"/>
<polygon fill="none" stroke="#404040" points="692.364,-180.614 685.222,-181.609 681.556,-175.399 688.698,-174.404 692.364,-180.614"/>
<text text-anchor="middle" x="925" y="-299.5" font-family="Helvetica,sans-Serif" font-size="10.00"> +sc_camera</text>
</g>
<!-- Node15 -->
<g id="node15" class="node"><title>Node15</title>
<polygon fill="white" stroke="#bfbfbf" points="937,-859 937,-927 1039,-927 1039,-859 937,-859"/>
<text text-anchor="start" x="945" y="-915" font-family="Helvetica,sans-Serif" font-size="10.00">std::vector&lt; irrklang</text>
<text text-anchor="middle" x="988" y="-904" font-family="Helvetica,sans-Serif" font-size="10.00">::ISound * &gt;</text>
<polyline fill="none" stroke="#bfbfbf" points="937,-897 1039,-897 "/>
<text text-anchor="middle" x="988" y="-885" font-family="Helvetica,sans-Serif" font-size="10.00"> </text>
<polyline fill="none" stroke="#bfbfbf" points="937,-878 1039,-878 "/>
<text text-anchor="middle" x="988" y="-866" font-family="Helvetica,sans-Serif" font-size="10.00"> </text>
</g>
<!-- Node15&#45;&gt;Node13 -->
<g id="edge22" class="edge"><title>Node15&#45;&gt;Node13</title>
<path fill="none" stroke="#404040" d="M1018.84,-858.755C1034.46,-839.611 1051.82,-814.202 1060,-788 1091.26,-687.939 1100.39,-409.111 1042,-326 961.935,-212.037 797.664,-167.571 693.775,-150.451"/>
<polygon fill="none" stroke="#404040" points="693.58,-150.42 687.029,-153.433 681.728,-148.544 688.28,-145.531 693.58,-150.42"/>
<text text-anchor="middle" x="1113" y="-582.5" font-family="Helvetica,sans-Serif" font-size="10.00"> #sound_objs</text>
</g>
<!-- Node16 -->
<g id="node16" class="node"><title>Node16</title>
<polygon fill="white" stroke="#bfbfbf" points="874.5,-976.5 874.5,-1033.5 927.5,-1033.5 927.5,-976.5 874.5,-976.5"/>
<text text-anchor="middle" x="901" y="-1021.5" font-family="Helvetica,sans-Serif" font-size="10.00">ISound *</text>
<polyline fill="none" stroke="#bfbfbf" points="874.5,-1014.5 927.5,-1014.5 "/>
<text text-anchor="middle" x="901" y="-1002.5" font-family="Helvetica,sans-Serif" font-size="10.00"> </text>
<polyline fill="none" stroke="#bfbfbf" points="874.5,-995.5 927.5,-995.5 "/>
<text text-anchor="middle" x="901" y="-983.5" font-family="Helvetica,sans-Serif" font-size="10.00"> </text>
</g>
<!-- Node16&#45;&gt;Node15 -->
<g id="edge23" class="edge"><title>Node16&#45;&gt;Node15</title>
<path fill="none" stroke="#404040" d="M915.158,-976.476C920.791,-966.501 927.676,-955.386 935,-946 937.576,-942.699 940.351,-939.398 943.234,-936.15"/>
<polygon fill="none" stroke="#404040" points="943.398,-935.974 944.553,-928.856 951.568,-927.185 950.413,-934.303 943.398,-935.974"/>
<text text-anchor="middle" x="959.5" y="-949.5" font-family="Helvetica,sans-Serif" font-size="10.00"> +elements</text>
</g>
<!-- Node17&#45;&gt;Node15 -->
<g id="edge24" class="edge"><title>Node17&#45;&gt;Node15</title>
<path fill="none" stroke="orange" d="M988,-966.024C988,-953.408 988,-939.466 988,-927.237"/>
<polygon fill="orange" stroke="orange" points="984.5,-966.242 988,-976.242 991.5,-966.242 984.5,-966.242"/>
<text text-anchor="middle" x="1036" y="-949.5" font-family="Helvetica,sans-Serif" font-size="10.00"> &lt; irrklang::ISound * &gt;</text>
</g>
<!-- Node18 -->
<g id="node18" class="node"><title>Node18</title>
<polygon fill="white" stroke="#bfbfbf" points="1111,-387.5 1111,-444.5 1159,-444.5 1159,-387.5 1111,-387.5"/>
<text text-anchor="middle" x="1135" y="-432.5" font-family="Helvetica,sans-Serif" font-size="10.00">long int</text>
<polyline fill="none" stroke="#bfbfbf" points="1111,-425.5 1159,-425.5 "/>
<text text-anchor="middle" x="1135" y="-413.5" font-family="Helvetica,sans-Serif" font-size="10.00"> </text>
<polyline fill="none" stroke="#bfbfbf" points="1111,-406.5 1159,-406.5 "/>
<text text-anchor="middle" x="1135" y="-394.5" font-family="Helvetica,sans-Serif" font-size="10.00"> </text>
</g>
<!-- Node18&#45;&gt;Node13 -->
<g id="edge27" class="edge"><title>Node18&#45;&gt;Node13</title>
<path fill="none" stroke="#404040" d="M1133.32,-387.424C1130.23,-360.594 1121.51,-320.406 1097,-296 988.019,-187.494 804.426,-154.319 693.791,-144.265"/>
<polygon fill="none" stroke="#404040" points="693.62,-144.251 687.302,-147.725 681.664,-143.229 687.983,-139.754 693.62,-144.251"/>
<text text-anchor="middle" x="1149" y="-299.5" font-family="Helvetica,sans-Serif" font-size="10.00"> #total_object_count</text>
</g>
</g>
</svg>
